<?xml version="1.0" encoding="utf-8" standalone="no"?>
<!DOCTYPE svg PUBLIC "-//W3C//DTD SVG 1.1//EN"
  "http://www.w3.org/Graphics/SVG/1.1/DTD/svg11.dtd">
<svg xmlns:xlink="http://www.w3.org/1999/xlink" width="207.063153pt" height="188.595pt" viewBox="0 0 207.063153 188.595" xmlns="http://www.w3.org/2000/svg" version="1.1">
 <metadata>
  <rdf:RDF xmlns:dc="http://purl.org/dc/elements/1.1/" xmlns:cc="http://creativecommons.org/ns#" xmlns:rdf="http://www.w3.org/1999/02/22-rdf-syntax-ns#">
   <cc:Work>
    <dc:type rdf:resource="http://purl.org/dc/dcmitype/StillImage"/>
    <dc:date>2024-04-15T12:17:06.236684</dc:date>
    <dc:format>image/svg+xml</dc:format>
    <dc:creator>
     <cc:Agent>
      <dc:title>Matplotlib v3.6.3, https://matplotlib.org/</dc:title>
     </cc:Agent>
    </dc:creator>
   </cc:Work>
  </rdf:RDF>
 </metadata>
 <defs>
  <style type="text/css">*{stroke-linejoin: round; stroke-linecap: butt}</style>
 </defs>
 <g id="figure_1">
  <g id="patch_1">
   <path d="M 0 188.595 
L 207.063153 188.595 
L 207.063153 0 
L 0 0 
L 0 188.595 
z
" style="fill: none"/>
  </g>
  <g id="axes_1">
   <g id="patch_2">
    <path d="M 55.0275 145.8 
L 194.5275 145.8 
L 194.5275 7.2 
L 55.0275 7.2 
L 55.0275 145.8 
z
" style="fill: none"/>
   </g>
   <g id="matplotlib.axis_1">
    <g id="xtick_1">
     <g id="line2d_1">
      <defs>
       <path id="mffb0e547f4" d="M 0 0 
L 0 6 
" style="stroke: #000000; stroke-width: 1.25"/>
      </defs>
      <g>
       <use xlink:href="#mffb0e547f4" x="61.368409" y="145.8" style="stroke: #000000; stroke-width: 1.25"/>
      </g>
     </g>
     <g id="text_1">
      <!-- 0.00 -->
      <g transform="translate(49.691847 163.889375) scale(0.12 -0.12)">
       <defs>
        <path id="ArialMT-30" d="M 266 2259 
Q 266 3072 433 3567 
Q 600 4063 929 4331 
Q 1259 4600 1759 4600 
Q 2128 4600 2406 4451 
Q 2684 4303 2865 4023 
Q 3047 3744 3150 3342 
Q 3253 2941 3253 2259 
Q 3253 1453 3087 958 
Q 2922 463 2592 192 
Q 2263 -78 1759 -78 
Q 1097 -78 719 397 
Q 266 969 266 2259 
z
M 844 2259 
Q 844 1131 1108 757 
Q 1372 384 1759 384 
Q 2147 384 2411 759 
Q 2675 1134 2675 2259 
Q 2675 3391 2411 3762 
Q 2147 4134 1753 4134 
Q 1366 4134 1134 3806 
Q 844 3388 844 2259 
z
" transform="scale(0.015625)"/>
        <path id="ArialMT-2e" d="M 581 0 
L 581 641 
L 1222 641 
L 1222 0 
L 581 0 
z
" transform="scale(0.015625)"/>
       </defs>
       <use xlink:href="#ArialMT-30"/>
       <use xlink:href="#ArialMT-2e" x="55.615234"/>
       <use xlink:href="#ArialMT-30" x="83.398438"/>
       <use xlink:href="#ArialMT-30" x="139.013672"/>
      </g>
     </g>
    </g>
    <g id="xtick_2">
     <g id="line2d_2">
      <g>
       <use xlink:href="#mffb0e547f4" x="93.072955" y="145.8" style="stroke: #000000; stroke-width: 1.25"/>
      </g>
     </g>
     <g id="text_2">
      <!-- 0.25 -->
      <g transform="translate(81.396392 163.889375) scale(0.12 -0.12)">
       <defs>
        <path id="ArialMT-32" d="M 3222 541 
L 3222 0 
L 194 0 
Q 188 203 259 391 
Q 375 700 629 1000 
Q 884 1300 1366 1694 
Q 2113 2306 2375 2664 
Q 2638 3022 2638 3341 
Q 2638 3675 2398 3904 
Q 2159 4134 1775 4134 
Q 1369 4134 1125 3890 
Q 881 3647 878 3216 
L 300 3275 
Q 359 3922 746 4261 
Q 1134 4600 1788 4600 
Q 2447 4600 2831 4234 
Q 3216 3869 3216 3328 
Q 3216 3053 3103 2787 
Q 2991 2522 2730 2228 
Q 2469 1934 1863 1422 
Q 1356 997 1212 845 
Q 1069 694 975 541 
L 3222 541 
z
" transform="scale(0.015625)"/>
        <path id="ArialMT-35" d="M 266 1200 
L 856 1250 
Q 922 819 1161 601 
Q 1400 384 1738 384 
Q 2144 384 2425 690 
Q 2706 997 2706 1503 
Q 2706 1984 2436 2262 
Q 2166 2541 1728 2541 
Q 1456 2541 1237 2417 
Q 1019 2294 894 2097 
L 366 2166 
L 809 4519 
L 3088 4519 
L 3088 3981 
L 1259 3981 
L 1013 2750 
Q 1425 3038 1878 3038 
Q 2478 3038 2890 2622 
Q 3303 2206 3303 1553 
Q 3303 931 2941 478 
Q 2500 -78 1738 -78 
Q 1113 -78 717 272 
Q 322 622 266 1200 
z
" transform="scale(0.015625)"/>
       </defs>
       <use xlink:href="#ArialMT-30"/>
       <use xlink:href="#ArialMT-2e" x="55.615234"/>
       <use xlink:href="#ArialMT-32" x="83.398438"/>
       <use xlink:href="#ArialMT-35" x="139.013672"/>
      </g>
     </g>
    </g>
    <g id="xtick_3">
     <g id="line2d_3">
      <g>
       <use xlink:href="#mffb0e547f4" x="124.7775" y="145.8" style="stroke: #000000; stroke-width: 1.25"/>
      </g>
     </g>
     <g id="text_3">
      <!-- 0.50 -->
      <g transform="translate(113.100938 163.889375) scale(0.12 -0.12)">
       <use xlink:href="#ArialMT-30"/>
       <use xlink:href="#ArialMT-2e" x="55.615234"/>
       <use xlink:href="#ArialMT-35" x="83.398438"/>
       <use xlink:href="#ArialMT-30" x="139.013672"/>
      </g>
     </g>
    </g>
    <g id="xtick_4">
     <g id="line2d_4">
      <g>
       <use xlink:href="#mffb0e547f4" x="156.482045" y="145.8" style="stroke: #000000; stroke-width: 1.25"/>
      </g>
     </g>
     <g id="text_4">
      <!-- 0.75 -->
      <g transform="translate(144.805483 163.889375) scale(0.12 -0.12)">
       <defs>
        <path id="ArialMT-37" d="M 303 3981 
L 303 4522 
L 3269 4522 
L 3269 4084 
Q 2831 3619 2401 2847 
Q 1972 2075 1738 1259 
Q 1569 684 1522 0 
L 944 0 
Q 953 541 1156 1306 
Q 1359 2072 1739 2783 
Q 2119 3494 2547 3981 
L 303 3981 
z
" transform="scale(0.015625)"/>
       </defs>
       <use xlink:href="#ArialMT-30"/>
       <use xlink:href="#ArialMT-2e" x="55.615234"/>
       <use xlink:href="#ArialMT-37" x="83.398438"/>
       <use xlink:href="#ArialMT-35" x="139.013672"/>
      </g>
     </g>
    </g>
    <g id="xtick_5">
     <g id="line2d_5">
      <g>
       <use xlink:href="#mffb0e547f4" x="188.186591" y="145.8" style="stroke: #000000; stroke-width: 1.25"/>
      </g>
     </g>
     <g id="text_5">
      <!-- 1.00 -->
      <g transform="translate(176.510028 163.889375) scale(0.12 -0.12)">
       <defs>
        <path id="ArialMT-31" d="M 2384 0 
L 1822 0 
L 1822 3584 
Q 1619 3391 1289 3197 
Q 959 3003 697 2906 
L 697 3450 
Q 1169 3672 1522 3987 
Q 1875 4303 2022 4600 
L 2384 4600 
L 2384 0 
z
" transform="scale(0.015625)"/>
       </defs>
       <use xlink:href="#ArialMT-31"/>
       <use xlink:href="#ArialMT-2e" x="55.615234"/>
       <use xlink:href="#ArialMT-30" x="83.398438"/>
       <use xlink:href="#ArialMT-30" x="139.013672"/>
      </g>
     </g>
    </g>
    <g id="text_6">
     <!-- Experimental Transfection -->
     <g transform="translate(55.414687 179.01) scale(0.12 -0.12)">
      <defs>
       <path id="ArialMT-45" d="M 506 0 
L 506 4581 
L 3819 4581 
L 3819 4041 
L 1113 4041 
L 1113 2638 
L 3647 2638 
L 3647 2100 
L 1113 2100 
L 1113 541 
L 3925 541 
L 3925 0 
L 506 0 
z
" transform="scale(0.015625)"/>
       <path id="ArialMT-78" d="M 47 0 
L 1259 1725 
L 138 3319 
L 841 3319 
L 1350 2541 
Q 1494 2319 1581 2169 
Q 1719 2375 1834 2534 
L 2394 3319 
L 3066 3319 
L 1919 1756 
L 3153 0 
L 2463 0 
L 1781 1031 
L 1600 1309 
L 728 0 
L 47 0 
z
" transform="scale(0.015625)"/>
       <path id="ArialMT-70" d="M 422 -1272 
L 422 3319 
L 934 3319 
L 934 2888 
Q 1116 3141 1344 3267 
Q 1572 3394 1897 3394 
Q 2322 3394 2647 3175 
Q 2972 2956 3137 2557 
Q 3303 2159 3303 1684 
Q 3303 1175 3120 767 
Q 2938 359 2589 142 
Q 2241 -75 1856 -75 
Q 1575 -75 1351 44 
Q 1128 163 984 344 
L 984 -1272 
L 422 -1272 
z
M 931 1641 
Q 931 1000 1190 694 
Q 1450 388 1819 388 
Q 2194 388 2461 705 
Q 2728 1022 2728 1688 
Q 2728 2322 2467 2637 
Q 2206 2953 1844 2953 
Q 1484 2953 1207 2617 
Q 931 2281 931 1641 
z
" transform="scale(0.015625)"/>
       <path id="ArialMT-65" d="M 2694 1069 
L 3275 997 
Q 3138 488 2766 206 
Q 2394 -75 1816 -75 
Q 1088 -75 661 373 
Q 234 822 234 1631 
Q 234 2469 665 2931 
Q 1097 3394 1784 3394 
Q 2450 3394 2872 2941 
Q 3294 2488 3294 1666 
Q 3294 1616 3291 1516 
L 816 1516 
Q 847 969 1125 678 
Q 1403 388 1819 388 
Q 2128 388 2347 550 
Q 2566 713 2694 1069 
z
M 847 1978 
L 2700 1978 
Q 2663 2397 2488 2606 
Q 2219 2931 1791 2931 
Q 1403 2931 1139 2672 
Q 875 2413 847 1978 
z
" transform="scale(0.015625)"/>
       <path id="ArialMT-72" d="M 416 0 
L 416 3319 
L 922 3319 
L 922 2816 
Q 1116 3169 1280 3281 
Q 1444 3394 1641 3394 
Q 1925 3394 2219 3213 
L 2025 2691 
Q 1819 2813 1613 2813 
Q 1428 2813 1281 2702 
Q 1134 2591 1072 2394 
Q 978 2094 978 1738 
L 978 0 
L 416 0 
z
" transform="scale(0.015625)"/>
       <path id="ArialMT-69" d="M 425 3934 
L 425 4581 
L 988 4581 
L 988 3934 
L 425 3934 
z
M 425 0 
L 425 3319 
L 988 3319 
L 988 0 
L 425 0 
z
" transform="scale(0.015625)"/>
       <path id="ArialMT-6d" d="M 422 0 
L 422 3319 
L 925 3319 
L 925 2853 
Q 1081 3097 1340 3245 
Q 1600 3394 1931 3394 
Q 2300 3394 2536 3241 
Q 2772 3088 2869 2813 
Q 3263 3394 3894 3394 
Q 4388 3394 4653 3120 
Q 4919 2847 4919 2278 
L 4919 0 
L 4359 0 
L 4359 2091 
Q 4359 2428 4304 2576 
Q 4250 2725 4106 2815 
Q 3963 2906 3769 2906 
Q 3419 2906 3187 2673 
Q 2956 2441 2956 1928 
L 2956 0 
L 2394 0 
L 2394 2156 
Q 2394 2531 2256 2718 
Q 2119 2906 1806 2906 
Q 1569 2906 1367 2781 
Q 1166 2656 1075 2415 
Q 984 2175 984 1722 
L 984 0 
L 422 0 
z
" transform="scale(0.015625)"/>
       <path id="ArialMT-6e" d="M 422 0 
L 422 3319 
L 928 3319 
L 928 2847 
Q 1294 3394 1984 3394 
Q 2284 3394 2536 3286 
Q 2788 3178 2913 3003 
Q 3038 2828 3088 2588 
Q 3119 2431 3119 2041 
L 3119 0 
L 2556 0 
L 2556 2019 
Q 2556 2363 2490 2533 
Q 2425 2703 2258 2804 
Q 2091 2906 1866 2906 
Q 1506 2906 1245 2678 
Q 984 2450 984 1813 
L 984 0 
L 422 0 
z
" transform="scale(0.015625)"/>
       <path id="ArialMT-74" d="M 1650 503 
L 1731 6 
Q 1494 -44 1306 -44 
Q 1000 -44 831 53 
Q 663 150 594 308 
Q 525 466 525 972 
L 525 2881 
L 113 2881 
L 113 3319 
L 525 3319 
L 525 4141 
L 1084 4478 
L 1084 3319 
L 1650 3319 
L 1650 2881 
L 1084 2881 
L 1084 941 
Q 1084 700 1114 631 
Q 1144 563 1211 522 
Q 1278 481 1403 481 
Q 1497 481 1650 503 
z
" transform="scale(0.015625)"/>
       <path id="ArialMT-61" d="M 2588 409 
Q 2275 144 1986 34 
Q 1697 -75 1366 -75 
Q 819 -75 525 192 
Q 231 459 231 875 
Q 231 1119 342 1320 
Q 453 1522 633 1644 
Q 813 1766 1038 1828 
Q 1203 1872 1538 1913 
Q 2219 1994 2541 2106 
Q 2544 2222 2544 2253 
Q 2544 2597 2384 2738 
Q 2169 2928 1744 2928 
Q 1347 2928 1158 2789 
Q 969 2650 878 2297 
L 328 2372 
Q 403 2725 575 2942 
Q 747 3159 1072 3276 
Q 1397 3394 1825 3394 
Q 2250 3394 2515 3294 
Q 2781 3194 2906 3042 
Q 3031 2891 3081 2659 
Q 3109 2516 3109 2141 
L 3109 1391 
Q 3109 606 3145 398 
Q 3181 191 3288 0 
L 2700 0 
Q 2613 175 2588 409 
z
M 2541 1666 
Q 2234 1541 1622 1453 
Q 1275 1403 1131 1340 
Q 988 1278 909 1158 
Q 831 1038 831 891 
Q 831 666 1001 516 
Q 1172 366 1500 366 
Q 1825 366 2078 508 
Q 2331 650 2450 897 
Q 2541 1088 2541 1459 
L 2541 1666 
z
" transform="scale(0.015625)"/>
       <path id="ArialMT-6c" d="M 409 0 
L 409 4581 
L 972 4581 
L 972 0 
L 409 0 
z
" transform="scale(0.015625)"/>
       <path id="ArialMT-20" transform="scale(0.015625)"/>
       <path id="ArialMT-54" d="M 1659 0 
L 1659 4041 
L 150 4041 
L 150 4581 
L 3781 4581 
L 3781 4041 
L 2266 4041 
L 2266 0 
L 1659 0 
z
" transform="scale(0.015625)"/>
       <path id="ArialMT-73" d="M 197 991 
L 753 1078 
Q 800 744 1014 566 
Q 1228 388 1613 388 
Q 2000 388 2187 545 
Q 2375 703 2375 916 
Q 2375 1106 2209 1216 
Q 2094 1291 1634 1406 
Q 1016 1563 777 1677 
Q 538 1791 414 1992 
Q 291 2194 291 2438 
Q 291 2659 392 2848 
Q 494 3038 669 3163 
Q 800 3259 1026 3326 
Q 1253 3394 1513 3394 
Q 1903 3394 2198 3281 
Q 2494 3169 2634 2976 
Q 2775 2784 2828 2463 
L 2278 2388 
Q 2241 2644 2061 2787 
Q 1881 2931 1553 2931 
Q 1166 2931 1000 2803 
Q 834 2675 834 2503 
Q 834 2394 903 2306 
Q 972 2216 1119 2156 
Q 1203 2125 1616 2013 
Q 2213 1853 2448 1751 
Q 2684 1650 2818 1456 
Q 2953 1263 2953 975 
Q 2953 694 2789 445 
Q 2625 197 2315 61 
Q 2006 -75 1616 -75 
Q 969 -75 630 194 
Q 291 463 197 991 
z
" transform="scale(0.015625)"/>
       <path id="ArialMT-66" d="M 556 0 
L 556 2881 
L 59 2881 
L 59 3319 
L 556 3319 
L 556 3672 
Q 556 4006 616 4169 
Q 697 4388 901 4523 
Q 1106 4659 1475 4659 
Q 1713 4659 2000 4603 
L 1916 4113 
Q 1741 4144 1584 4144 
Q 1328 4144 1222 4034 
Q 1116 3925 1116 3625 
L 1116 3319 
L 1763 3319 
L 1763 2881 
L 1116 2881 
L 1116 0 
L 556 0 
z
" transform="scale(0.015625)"/>
       <path id="ArialMT-63" d="M 2588 1216 
L 3141 1144 
Q 3050 572 2676 248 
Q 2303 -75 1759 -75 
Q 1078 -75 664 370 
Q 250 816 250 1647 
Q 250 2184 428 2587 
Q 606 2991 970 3192 
Q 1334 3394 1763 3394 
Q 2303 3394 2647 3120 
Q 2991 2847 3088 2344 
L 2541 2259 
Q 2463 2594 2264 2762 
Q 2066 2931 1784 2931 
Q 1359 2931 1093 2626 
Q 828 2322 828 1663 
Q 828 994 1084 691 
Q 1341 388 1753 388 
Q 2084 388 2306 591 
Q 2528 794 2588 1216 
z
" transform="scale(0.015625)"/>
       <path id="ArialMT-6f" d="M 213 1659 
Q 213 2581 725 3025 
Q 1153 3394 1769 3394 
Q 2453 3394 2887 2945 
Q 3322 2497 3322 1706 
Q 3322 1066 3130 698 
Q 2938 331 2570 128 
Q 2203 -75 1769 -75 
Q 1072 -75 642 372 
Q 213 819 213 1659 
z
M 791 1659 
Q 791 1022 1069 705 
Q 1347 388 1769 388 
Q 2188 388 2466 706 
Q 2744 1025 2744 1678 
Q 2744 2294 2464 2611 
Q 2184 2928 1769 2928 
Q 1347 2928 1069 2612 
Q 791 2297 791 1659 
z
" transform="scale(0.015625)"/>
      </defs>
      <use xlink:href="#ArialMT-45"/>
      <use xlink:href="#ArialMT-78" x="66.699219"/>
      <use xlink:href="#ArialMT-70" x="116.699219"/>
      <use xlink:href="#ArialMT-65" x="172.314453"/>
      <use xlink:href="#ArialMT-72" x="227.929688"/>
      <use xlink:href="#ArialMT-69" x="261.230469"/>
      <use xlink:href="#ArialMT-6d" x="283.447266"/>
      <use xlink:href="#ArialMT-65" x="366.748047"/>
      <use xlink:href="#ArialMT-6e" x="422.363281"/>
      <use xlink:href="#ArialMT-74" x="477.978516"/>
      <use xlink:href="#ArialMT-61" x="505.761719"/>
      <use xlink:href="#ArialMT-6c" x="561.376953"/>
      <use xlink:href="#ArialMT-20" x="583.59375"/>
      <use xlink:href="#ArialMT-54" x="609.626953"/>
      <use xlink:href="#ArialMT-72" x="666.960938"/>
      <use xlink:href="#ArialMT-61" x="700.261719"/>
      <use xlink:href="#ArialMT-6e" x="755.876953"/>
      <use xlink:href="#ArialMT-73" x="811.492188"/>
      <use xlink:href="#ArialMT-66" x="861.492188"/>
      <use xlink:href="#ArialMT-65" x="889.275391"/>
      <use xlink:href="#ArialMT-63" x="944.890625"/>
      <use xlink:href="#ArialMT-74" x="994.890625"/>
      <use xlink:href="#ArialMT-69" x="1022.673828"/>
      <use xlink:href="#ArialMT-6f" x="1044.890625"/>
      <use xlink:href="#ArialMT-6e" x="1100.505859"/>
     </g>
    </g>
   </g>
   <g id="matplotlib.axis_2">
    <g id="ytick_1">
     <g id="line2d_6">
      <defs>
       <path id="m4dec974d03" d="M 0 0 
L -6 0 
" style="stroke: #000000; stroke-width: 1.25"/>
      </defs>
      <g>
       <use xlink:href="#m4dec974d03" x="55.0275" y="139.5" style="stroke: #000000; stroke-width: 1.25"/>
      </g>
     </g>
     <g id="text_7">
      <!-- 0.00 -->
      <g transform="translate(22.174375 143.794688) scale(0.12 -0.12)">
       <use xlink:href="#ArialMT-30"/>
       <use xlink:href="#ArialMT-2e" x="55.615234"/>
       <use xlink:href="#ArialMT-30" x="83.398438"/>
       <use xlink:href="#ArialMT-30" x="139.013672"/>
      </g>
     </g>
    </g>
    <g id="ytick_2">
     <g id="line2d_7">
      <g>
       <use xlink:href="#m4dec974d03" x="55.0275" y="108" style="stroke: #000000; stroke-width: 1.25"/>
      </g>
     </g>
     <g id="text_8">
      <!-- 0.25 -->
      <g transform="translate(22.174375 112.294688) scale(0.12 -0.12)">
       <use xlink:href="#ArialMT-30"/>
       <use xlink:href="#ArialMT-2e" x="55.615234"/>
       <use xlink:href="#ArialMT-32" x="83.398438"/>
       <use xlink:href="#ArialMT-35" x="139.013672"/>
      </g>
     </g>
    </g>
    <g id="ytick_3">
     <g id="line2d_8">
      <g>
       <use xlink:href="#m4dec974d03" x="55.0275" y="76.5" style="stroke: #000000; stroke-width: 1.25"/>
      </g>
     </g>
     <g id="text_9">
      <!-- 0.50 -->
      <g transform="translate(22.174375 80.794688) scale(0.12 -0.12)">
       <use xlink:href="#ArialMT-30"/>
       <use xlink:href="#ArialMT-2e" x="55.615234"/>
       <use xlink:href="#ArialMT-35" x="83.398438"/>
       <use xlink:href="#ArialMT-30" x="139.013672"/>
      </g>
     </g>
    </g>
    <g id="ytick_4">
     <g id="line2d_9">
      <g>
       <use xlink:href="#m4dec974d03" x="55.0275" y="45" style="stroke: #000000; stroke-width: 1.25"/>
      </g>
     </g>
     <g id="text_10">
      <!-- 0.75 -->
      <g transform="translate(22.174375 49.294688) scale(0.12 -0.12)">
       <use xlink:href="#ArialMT-30"/>
       <use xlink:href="#ArialMT-2e" x="55.615234"/>
       <use xlink:href="#ArialMT-37" x="83.398438"/>
       <use xlink:href="#ArialMT-35" x="139.013672"/>
      </g>
     </g>
    </g>
    <g id="ytick_5">
     <g id="line2d_10">
      <g>
       <use xlink:href="#m4dec974d03" x="55.0275" y="13.5" style="stroke: #000000; stroke-width: 1.25"/>
      </g>
     </g>
     <g id="text_11">
      <!-- 1.00 -->
      <g transform="translate(22.174375 17.794688) scale(0.12 -0.12)">
       <use xlink:href="#ArialMT-31"/>
       <use xlink:href="#ArialMT-2e" x="55.615234"/>
       <use xlink:href="#ArialMT-30" x="83.398438"/>
       <use xlink:href="#ArialMT-30" x="139.013672"/>
      </g>
     </g>
    </g>
    <g id="text_12">
     <!-- Predicted Transfection -->
     <g transform="translate(15.789375 136.195312) rotate(-90) scale(0.12 -0.12)">
      <defs>
       <path id="ArialMT-50" d="M 494 0 
L 494 4581 
L 2222 4581 
Q 2678 4581 2919 4538 
Q 3256 4481 3484 4323 
Q 3713 4166 3852 3881 
Q 3991 3597 3991 3256 
Q 3991 2672 3619 2267 
Q 3247 1863 2275 1863 
L 1100 1863 
L 1100 0 
L 494 0 
z
M 1100 2403 
L 2284 2403 
Q 2872 2403 3119 2622 
Q 3366 2841 3366 3238 
Q 3366 3525 3220 3729 
Q 3075 3934 2838 4000 
Q 2684 4041 2272 4041 
L 1100 4041 
L 1100 2403 
z
" transform="scale(0.015625)"/>
       <path id="ArialMT-64" d="M 2575 0 
L 2575 419 
Q 2259 -75 1647 -75 
Q 1250 -75 917 144 
Q 584 363 401 755 
Q 219 1147 219 1656 
Q 219 2153 384 2558 
Q 550 2963 881 3178 
Q 1213 3394 1622 3394 
Q 1922 3394 2156 3267 
Q 2391 3141 2538 2938 
L 2538 4581 
L 3097 4581 
L 3097 0 
L 2575 0 
z
M 797 1656 
Q 797 1019 1065 703 
Q 1334 388 1700 388 
Q 2069 388 2326 689 
Q 2584 991 2584 1609 
Q 2584 2291 2321 2609 
Q 2059 2928 1675 2928 
Q 1300 2928 1048 2622 
Q 797 2316 797 1656 
z
" transform="scale(0.015625)"/>
      </defs>
      <use xlink:href="#ArialMT-50"/>
      <use xlink:href="#ArialMT-72" x="66.699219"/>
      <use xlink:href="#ArialMT-65" x="100"/>
      <use xlink:href="#ArialMT-64" x="155.615234"/>
      <use xlink:href="#ArialMT-69" x="211.230469"/>
      <use xlink:href="#ArialMT-63" x="233.447266"/>
      <use xlink:href="#ArialMT-74" x="283.447266"/>
      <use xlink:href="#ArialMT-65" x="311.230469"/>
      <use xlink:href="#ArialMT-64" x="366.845703"/>
      <use xlink:href="#ArialMT-20" x="422.460938"/>
      <use xlink:href="#ArialMT-54" x="448.494141"/>
      <use xlink:href="#ArialMT-72" x="505.828125"/>
      <use xlink:href="#ArialMT-61" x="539.128906"/>
      <use xlink:href="#ArialMT-6e" x="594.744141"/>
      <use xlink:href="#ArialMT-73" x="650.359375"/>
      <use xlink:href="#ArialMT-66" x="700.359375"/>
      <use xlink:href="#ArialMT-65" x="728.142578"/>
      <use xlink:href="#ArialMT-63" x="783.757812"/>
      <use xlink:href="#ArialMT-74" x="833.757812"/>
      <use xlink:href="#ArialMT-69" x="861.541016"/>
      <use xlink:href="#ArialMT-6f" x="883.757812"/>
      <use xlink:href="#ArialMT-6e" x="939.373047"/>
     </g>
    </g>
   </g>
   <g id="PathCollection_1">
    <defs>
     <path id="m45ad2f6694" d="M 0 1.5 
C 0.397805 1.5 0.77937 1.341951 1.06066 1.06066 
C 1.341951 0.77937 1.5 0.397805 1.5 0 
C 1.5 -0.397805 1.341951 -0.77937 1.06066 -1.06066 
C 0.77937 -1.341951 0.397805 -1.5 0 -1.5 
C -0.397805 -1.5 -0.77937 -1.341951 -1.06066 -1.06066 
C -1.341951 -0.77937 -1.5 -0.397805 -1.5 0 
C -1.5 0.397805 -1.341951 0.77937 -1.06066 1.06066 
C -0.77937 1.341951 -0.397805 1.5 0 1.5 
z
" style="stroke: #db5f57; stroke-opacity: 0.6"/>
    </defs>
    <g clip-path="url(#p8aebd46511)">
     <use xlink:href="#m45ad2f6694" x="106.913986" y="90.607854" style="fill: #db5f57; fill-opacity: 0.6; stroke: #db5f57; stroke-opacity: 0.6"/>
     <use xlink:href="#m45ad2f6694" x="83.942556" y="93.890888" style="fill: #db5f57; fill-opacity: 0.6; stroke: #db5f57; stroke-opacity: 0.6"/>
     <use xlink:href="#m45ad2f6694" x="143.875427" y="93.143249" style="fill: #db5f57; fill-opacity: 0.6; stroke: #db5f57; stroke-opacity: 0.6"/>
     <use xlink:href="#m45ad2f6694" x="152.048091" y="54.424928" style="fill: #db5f57; fill-opacity: 0.6; stroke: #db5f57; stroke-opacity: 0.6"/>
     <use xlink:href="#m45ad2f6694" x="114.306274" y="72.812283" style="fill: #db5f57; fill-opacity: 0.6; stroke: #db5f57; stroke-opacity: 0.6"/>
     <use xlink:href="#m45ad2f6694" x="71.2579" y="130.77419" style="fill: #db5f57; fill-opacity: 0.6; stroke: #db5f57; stroke-opacity: 0.6"/>
     <use xlink:href="#m45ad2f6694" x="65.511496" y="121.138224" style="fill: #db5f57; fill-opacity: 0.6; stroke: #db5f57; stroke-opacity: 0.6"/>
     <use xlink:href="#m45ad2f6694" x="81.090637" y="122.31873" style="fill: #db5f57; fill-opacity: 0.6; stroke: #db5f57; stroke-opacity: 0.6"/>
     <use xlink:href="#m45ad2f6694" x="111.638807" y="96.169517" style="fill: #db5f57; fill-opacity: 0.6; stroke: #db5f57; stroke-opacity: 0.6"/>
     <use xlink:href="#m45ad2f6694" x="180.127436" y="32.62422" style="fill: #db5f57; fill-opacity: 0.6; stroke: #db5f57; stroke-opacity: 0.6"/>
     <use xlink:href="#m45ad2f6694" x="129.559076" y="57.104331" style="fill: #db5f57; fill-opacity: 0.6; stroke: #db5f57; stroke-opacity: 0.6"/>
     <use xlink:href="#m45ad2f6694" x="132.907598" y="63.089071" style="fill: #db5f57; fill-opacity: 0.6; stroke: #db5f57; stroke-opacity: 0.6"/>
     <use xlink:href="#m45ad2f6694" x="120.535093" y="89.618098" style="fill: #db5f57; fill-opacity: 0.6; stroke: #db5f57; stroke-opacity: 0.6"/>
     <use xlink:href="#m45ad2f6694" x="95.009706" y="102.682351" style="fill: #db5f57; fill-opacity: 0.6; stroke: #db5f57; stroke-opacity: 0.6"/>
     <use xlink:href="#m45ad2f6694" x="61.368409" y="96.880337" style="fill: #db5f57; fill-opacity: 0.6; stroke: #db5f57; stroke-opacity: 0.6"/>
     <use xlink:href="#m45ad2f6694" x="88.341039" y="112.075808" style="fill: #db5f57; fill-opacity: 0.6; stroke: #db5f57; stroke-opacity: 0.6"/>
     <use xlink:href="#m45ad2f6694" x="85.176969" y="110.59906" style="fill: #db5f57; fill-opacity: 0.6; stroke: #db5f57; stroke-opacity: 0.6"/>
     <use xlink:href="#m45ad2f6694" x="61.368409" y="128.729799" style="fill: #db5f57; fill-opacity: 0.6; stroke: #db5f57; stroke-opacity: 0.6"/>
     <use xlink:href="#m45ad2f6694" x="121.159393" y="90.412778" style="fill: #db5f57; fill-opacity: 0.6; stroke: #db5f57; stroke-opacity: 0.6"/>
     <use xlink:href="#m45ad2f6694" x="125.018707" y="73.962696" style="fill: #db5f57; fill-opacity: 0.6; stroke: #db5f57; stroke-opacity: 0.6"/>
     <use xlink:href="#m45ad2f6694" x="167.159007" y="42.574578" style="fill: #db5f57; fill-opacity: 0.6; stroke: #db5f57; stroke-opacity: 0.6"/>
     <use xlink:href="#m45ad2f6694" x="157.865439" y="37.240004" style="fill: #db5f57; fill-opacity: 0.6; stroke: #db5f57; stroke-opacity: 0.6"/>
     <use xlink:href="#m45ad2f6694" x="127.771306" y="71.521643" style="fill: #db5f57; fill-opacity: 0.6; stroke: #db5f57; stroke-opacity: 0.6"/>
     <use xlink:href="#m45ad2f6694" x="111.269902" y="85.330491" style="fill: #db5f57; fill-opacity: 0.6; stroke: #db5f57; stroke-opacity: 0.6"/>
     <use xlink:href="#m45ad2f6694" x="89.263301" y="96.691707" style="fill: #db5f57; fill-opacity: 0.6; stroke: #db5f57; stroke-opacity: 0.6"/>
     <use xlink:href="#m45ad2f6694" x="109.368623" y="94.536698" style="fill: #db5f57; fill-opacity: 0.6; stroke: #db5f57; stroke-opacity: 0.6"/>
     <use xlink:href="#m45ad2f6694" x="61.368409" y="131.910501" style="fill: #db5f57; fill-opacity: 0.6; stroke: #db5f57; stroke-opacity: 0.6"/>
     <use xlink:href="#m45ad2f6694" x="95.307667" y="105.849995" style="fill: #db5f57; fill-opacity: 0.6; stroke: #db5f57; stroke-opacity: 0.6"/>
     <use xlink:href="#m45ad2f6694" x="115.044084" y="84.955057" style="fill: #db5f57; fill-opacity: 0.6; stroke: #db5f57; stroke-opacity: 0.6"/>
     <use xlink:href="#m45ad2f6694" x="109.042284" y="94.564101" style="fill: #db5f57; fill-opacity: 0.6; stroke: #db5f57; stroke-opacity: 0.6"/>
     <use xlink:href="#m45ad2f6694" x="81.090637" y="108.747542" style="fill: #db5f57; fill-opacity: 0.6; stroke: #db5f57; stroke-opacity: 0.6"/>
     <use xlink:href="#m45ad2f6694" x="124.522104" y="86.682149" style="fill: #db5f57; fill-opacity: 0.6; stroke: #db5f57; stroke-opacity: 0.6"/>
     <use xlink:href="#m45ad2f6694" x="120.081056" y="93.867303" style="fill: #db5f57; fill-opacity: 0.6; stroke: #db5f57; stroke-opacity: 0.6"/>
     <use xlink:href="#m45ad2f6694" x="116.420383" y="90.558315" style="fill: #db5f57; fill-opacity: 0.6; stroke: #db5f57; stroke-opacity: 0.6"/>
     <use xlink:href="#m45ad2f6694" x="125.231537" y="71.635993" style="fill: #db5f57; fill-opacity: 0.6; stroke: #db5f57; stroke-opacity: 0.6"/>
     <use xlink:href="#m45ad2f6694" x="82.594634" y="107.80338" style="fill: #db5f57; fill-opacity: 0.6; stroke: #db5f57; stroke-opacity: 0.6"/>
     <use xlink:href="#m45ad2f6694" x="142.484939" y="70.271099" style="fill: #db5f57; fill-opacity: 0.6; stroke: #db5f57; stroke-opacity: 0.6"/>
     <use xlink:href="#m45ad2f6694" x="69.583639" y="128.539627" style="fill: #db5f57; fill-opacity: 0.6; stroke: #db5f57; stroke-opacity: 0.6"/>
     <use xlink:href="#m45ad2f6694" x="82.594634" y="119.462744" style="fill: #db5f57; fill-opacity: 0.6; stroke: #db5f57; stroke-opacity: 0.6"/>
     <use xlink:href="#m45ad2f6694" x="118.648002" y="83.837208" style="fill: #db5f57; fill-opacity: 0.6; stroke: #db5f57; stroke-opacity: 0.6"/>
     <use xlink:href="#m45ad2f6694" x="116.675779" y="90.741384" style="fill: #db5f57; fill-opacity: 0.6; stroke: #db5f57; stroke-opacity: 0.6"/>
     <use xlink:href="#m45ad2f6694" x="132.240732" y="51.836086" style="fill: #db5f57; fill-opacity: 0.6; stroke: #db5f57; stroke-opacity: 0.6"/>
     <use xlink:href="#m45ad2f6694" x="107.893003" y="91.150403" style="fill: #db5f57; fill-opacity: 0.6; stroke: #db5f57; stroke-opacity: 0.6"/>
     <use xlink:href="#m45ad2f6694" x="103.451954" y="94.902464" style="fill: #db5f57; fill-opacity: 0.6; stroke: #db5f57; stroke-opacity: 0.6"/>
     <use xlink:href="#m45ad2f6694" x="88.341039" y="115.832637" style="fill: #db5f57; fill-opacity: 0.6; stroke: #db5f57; stroke-opacity: 0.6"/>
     <use xlink:href="#m45ad2f6694" x="105.849837" y="105.801722" style="fill: #db5f57; fill-opacity: 0.6; stroke: #db5f57; stroke-opacity: 0.6"/>
     <use xlink:href="#m45ad2f6694" x="92.782087" y="106.183157" style="fill: #db5f57; fill-opacity: 0.6; stroke: #db5f57; stroke-opacity: 0.6"/>
     <use xlink:href="#m45ad2f6694" x="185.306294" y="35.609848" style="fill: #db5f57; fill-opacity: 0.6; stroke: #db5f57; stroke-opacity: 0.6"/>
     <use xlink:href="#m45ad2f6694" x="179.418003" y="25.9204" style="fill: #db5f57; fill-opacity: 0.6; stroke: #db5f57; stroke-opacity: 0.6"/>
     <use xlink:href="#m45ad2f6694" x="100.160187" y="112.216827" style="fill: #db5f57; fill-opacity: 0.6; stroke: #db5f57; stroke-opacity: 0.6"/>
     <use xlink:href="#m45ad2f6694" x="61.368409" y="131.194109" style="fill: #db5f57; fill-opacity: 0.6; stroke: #db5f57; stroke-opacity: 0.6"/>
     <use xlink:href="#m45ad2f6694" x="72.761898" y="112.655755" style="fill: #db5f57; fill-opacity: 0.6; stroke: #db5f57; stroke-opacity: 0.6"/>
     <use xlink:href="#m45ad2f6694" x="121.485732" y="81.642572" style="fill: #db5f57; fill-opacity: 0.6; stroke: #db5f57; stroke-opacity: 0.6"/>
     <use xlink:href="#m45ad2f6694" x="61.368409" y="120.006652" style="fill: #db5f57; fill-opacity: 0.6; stroke: #db5f57; stroke-opacity: 0.6"/>
     <use xlink:href="#m45ad2f6694" x="145.677386" y="69.874363" style="fill: #db5f57; fill-opacity: 0.6; stroke: #db5f57; stroke-opacity: 0.6"/>
     <use xlink:href="#m45ad2f6694" x="89.263301" y="94.556534" style="fill: #db5f57; fill-opacity: 0.6; stroke: #db5f57; stroke-opacity: 0.6"/>
     <use xlink:href="#m45ad2f6694" x="188.186591" y="27.998989" style="fill: #db5f57; fill-opacity: 0.6; stroke: #db5f57; stroke-opacity: 0.6"/>
     <use xlink:href="#m45ad2f6694" x="67.696548" y="121.368741" style="fill: #db5f57; fill-opacity: 0.6; stroke: #db5f57; stroke-opacity: 0.6"/>
     <use xlink:href="#m45ad2f6694" x="77.529285" y="113.878505" style="fill: #db5f57; fill-opacity: 0.6; stroke: #db5f57; stroke-opacity: 0.6"/>
     <use xlink:href="#m45ad2f6694" x="168.39342" y="36.624439" style="fill: #db5f57; fill-opacity: 0.6; stroke: #db5f57; stroke-opacity: 0.6"/>
     <use xlink:href="#m45ad2f6694" x="61.368409" y="129.41459" style="fill: #db5f57; fill-opacity: 0.6; stroke: #db5f57; stroke-opacity: 0.6"/>
     <use xlink:href="#m45ad2f6694" x="108.361228" y="98.223098" style="fill: #db5f57; fill-opacity: 0.6; stroke: #db5f57; stroke-opacity: 0.6"/>
     <use xlink:href="#m45ad2f6694" x="71.2579" y="130.827944" style="fill: #db5f57; fill-opacity: 0.6; stroke: #db5f57; stroke-opacity: 0.6"/>
     <use xlink:href="#m45ad2f6694" x="124.706557" y="102.393525" style="fill: #db5f57; fill-opacity: 0.6; stroke: #db5f57; stroke-opacity: 0.6"/>
     <use xlink:href="#m45ad2f6694" x="65.511496" y="125.470307" style="fill: #db5f57; fill-opacity: 0.6; stroke: #db5f57; stroke-opacity: 0.6"/>
     <use xlink:href="#m45ad2f6694" x="132.99273" y="78.939882" style="fill: #db5f57; fill-opacity: 0.6; stroke: #db5f57; stroke-opacity: 0.6"/>
     <use xlink:href="#m45ad2f6694" x="101.536486" y="101.942502" style="fill: #db5f57; fill-opacity: 0.6; stroke: #db5f57; stroke-opacity: 0.6"/>
     <use xlink:href="#m45ad2f6694" x="118.420983" y="84.051943" style="fill: #db5f57; fill-opacity: 0.6; stroke: #db5f57; stroke-opacity: 0.6"/>
     <use xlink:href="#m45ad2f6694" x="115.18597" y="83.242627" style="fill: #db5f57; fill-opacity: 0.6; stroke: #db5f57; stroke-opacity: 0.6"/>
     <use xlink:href="#m45ad2f6694" x="119.51351" y="75.000413" style="fill: #db5f57; fill-opacity: 0.6; stroke: #db5f57; stroke-opacity: 0.6"/>
     <use xlink:href="#m45ad2f6694" x="102.785088" y="92.789466" style="fill: #db5f57; fill-opacity: 0.6; stroke: #db5f57; stroke-opacity: 0.6"/>
     <use xlink:href="#m45ad2f6694" x="84.566857" y="86.711782" style="fill: #db5f57; fill-opacity: 0.6; stroke: #db5f57; stroke-opacity: 0.6"/>
     <use xlink:href="#m45ad2f6694" x="78.508302" y="119.823523" style="fill: #db5f57; fill-opacity: 0.6; stroke: #db5f57; stroke-opacity: 0.6"/>
     <use xlink:href="#m45ad2f6694" x="104.402594" y="90.606569" style="fill: #db5f57; fill-opacity: 0.6; stroke: #db5f57; stroke-opacity: 0.6"/>
     <use xlink:href="#m45ad2f6694" x="96.414382" y="93.048853" style="fill: #db5f57; fill-opacity: 0.6; stroke: #db5f57; stroke-opacity: 0.6"/>
     <use xlink:href="#m45ad2f6694" x="128.920587" y="86.720912" style="fill: #db5f57; fill-opacity: 0.6; stroke: #db5f57; stroke-opacity: 0.6"/>
     <use xlink:href="#m45ad2f6694" x="149.721152" y="79.977684" style="fill: #db5f57; fill-opacity: 0.6; stroke: #db5f57; stroke-opacity: 0.6"/>
     <use xlink:href="#m45ad2f6694" x="115.18597" y="97.475319" style="fill: #db5f57; fill-opacity: 0.6; stroke: #db5f57; stroke-opacity: 0.6"/>
     <use xlink:href="#m45ad2f6694" x="118.818266" y="83.858228" style="fill: #db5f57; fill-opacity: 0.6; stroke: #db5f57; stroke-opacity: 0.6"/>
     <use xlink:href="#m45ad2f6694" x="81.090637" y="104.2385" style="fill: #db5f57; fill-opacity: 0.6; stroke: #db5f57; stroke-opacity: 0.6"/>
     <use xlink:href="#m45ad2f6694" x="116.619024" y="91.703454" style="fill: #db5f57; fill-opacity: 0.6; stroke: #db5f57; stroke-opacity: 0.6"/>
     <use xlink:href="#m45ad2f6694" x="125.756517" y="31.224299" style="fill: #db5f57; fill-opacity: 0.6; stroke: #db5f57; stroke-opacity: 0.6"/>
     <use xlink:href="#m45ad2f6694" x="61.368409" y="133.773313" style="fill: #db5f57; fill-opacity: 0.6; stroke: #db5f57; stroke-opacity: 0.6"/>
     <use xlink:href="#m45ad2f6694" x="111.92258" y="90.208335" style="fill: #db5f57; fill-opacity: 0.6; stroke: #db5f57; stroke-opacity: 0.6"/>
     <use xlink:href="#m45ad2f6694" x="104.544481" y="95.364964" style="fill: #db5f57; fill-opacity: 0.6; stroke: #db5f57; stroke-opacity: 0.6"/>
     <use xlink:href="#m45ad2f6694" x="119.669585" y="87.569152" style="fill: #db5f57; fill-opacity: 0.6; stroke: #db5f57; stroke-opacity: 0.6"/>
     <use xlink:href="#m45ad2f6694" x="62.914972" y="131.495925" style="fill: #db5f57; fill-opacity: 0.6; stroke: #db5f57; stroke-opacity: 0.6"/>
     <use xlink:href="#m45ad2f6694" x="102.430371" y="102.33761" style="fill: #db5f57; fill-opacity: 0.6; stroke: #db5f57; stroke-opacity: 0.6"/>
     <use xlink:href="#m45ad2f6694" x="120.03849" y="86.264423" style="fill: #db5f57; fill-opacity: 0.6; stroke: #db5f57; stroke-opacity: 0.6"/>
     <use xlink:href="#m45ad2f6694" x="118.87502" y="87.053434" style="fill: #db5f57; fill-opacity: 0.6; stroke: #db5f57; stroke-opacity: 0.6"/>
     <use xlink:href="#m45ad2f6694" x="138.015513" y="79.965669" style="fill: #db5f57; fill-opacity: 0.6; stroke: #db5f57; stroke-opacity: 0.6"/>
     <use xlink:href="#m45ad2f6694" x="110.404394" y="87.722577" style="fill: #db5f57; fill-opacity: 0.6; stroke: #db5f57; stroke-opacity: 0.6"/>
     <use xlink:href="#m45ad2f6694" x="62.914972" y="127.436527" style="fill: #db5f57; fill-opacity: 0.6; stroke: #db5f57; stroke-opacity: 0.6"/>
     <use xlink:href="#m45ad2f6694" x="86.85123" y="113.839501" style="fill: #db5f57; fill-opacity: 0.6; stroke: #db5f57; stroke-opacity: 0.6"/>
     <use xlink:href="#m45ad2f6694" x="71.2579" y="131.271891" style="fill: #db5f57; fill-opacity: 0.6; stroke: #db5f57; stroke-opacity: 0.6"/>
     <use xlink:href="#m45ad2f6694" x="92.072654" y="110.175575" style="fill: #db5f57; fill-opacity: 0.6; stroke: #db5f57; stroke-opacity: 0.6"/>
     <use xlink:href="#m45ad2f6694" x="105.849837" y="103.33737" style="fill: #db5f57; fill-opacity: 0.6; stroke: #db5f57; stroke-opacity: 0.6"/>
     <use xlink:href="#m45ad2f6694" x="127.501721" y="82.450314" style="fill: #db5f57; fill-opacity: 0.6; stroke: #db5f57; stroke-opacity: 0.6"/>
     <use xlink:href="#m45ad2f6694" x="61.368409" y="130.755925" style="fill: #db5f57; fill-opacity: 0.6; stroke: #db5f57; stroke-opacity: 0.6"/>
     <use xlink:href="#m45ad2f6694" x="113.199559" y="101.601502" style="fill: #db5f57; fill-opacity: 0.6; stroke: #db5f57; stroke-opacity: 0.6"/>
     <use xlink:href="#m45ad2f6694" x="101.720939" y="92.367166" style="fill: #db5f57; fill-opacity: 0.6; stroke: #db5f57; stroke-opacity: 0.6"/>
     <use xlink:href="#m45ad2f6694" x="95.307667" y="102.685548" style="fill: #db5f57; fill-opacity: 0.6; stroke: #db5f57; stroke-opacity: 0.6"/>
     <use xlink:href="#m45ad2f6694" x="125.274103" y="84.449592" style="fill: #db5f57; fill-opacity: 0.6; stroke: #db5f57; stroke-opacity: 0.6"/>
     <use xlink:href="#m45ad2f6694" x="138.966153" y="103.362539" style="fill: #db5f57; fill-opacity: 0.6; stroke: #db5f57; stroke-opacity: 0.6"/>
     <use xlink:href="#m45ad2f6694" x="61.368409" y="129.170832" style="fill: #db5f57; fill-opacity: 0.6; stroke: #db5f57; stroke-opacity: 0.6"/>
     <use xlink:href="#m45ad2f6694" x="114.377217" y="94.782048" style="fill: #db5f57; fill-opacity: 0.6; stroke: #db5f57; stroke-opacity: 0.6"/>
     <use xlink:href="#m45ad2f6694" x="121.343846" y="72.660687" style="fill: #db5f57; fill-opacity: 0.6; stroke: #db5f57; stroke-opacity: 0.6"/>
     <use xlink:href="#m45ad2f6694" x="84.566857" y="112.954279" style="fill: #db5f57; fill-opacity: 0.6; stroke: #db5f57; stroke-opacity: 0.6"/>
    </g>
   </g>
   <g id="PolyCollection_1">
    <defs>
     <path id="m7827836546" d="M 61.368409 -63.48096 
L 61.368409 -57.154507 
L 62.649401 -58.207248 
L 63.930393 -59.258363 
L 65.211384 -60.290964 
L 66.492376 -61.312378 
L 67.773368 -62.372217 
L 69.05436 -63.395487 
L 70.335351 -64.434326 
L 71.616343 -65.484685 
L 72.897335 -66.535053 
L 74.178326 -67.586231 
L 75.459318 -68.654879 
L 76.74031 -69.698646 
L 78.021302 -70.712884 
L 79.302293 -71.723273 
L 80.583285 -72.737476 
L 81.864277 -73.777034 
L 83.145269 -74.775348 
L 84.42626 -75.784408 
L 85.707252 -76.756649 
L 86.988244 -77.746288 
L 88.269236 -78.746817 
L 89.550227 -79.733501 
L 90.831219 -80.726369 
L 92.112211 -81.727571 
L 93.393202 -82.721306 
L 94.674194 -83.724922 
L 95.955186 -84.706856 
L 97.236178 -85.69824 
L 98.517169 -86.676062 
L 99.798161 -87.661684 
L 101.079153 -88.631993 
L 102.360145 -89.59216 
L 103.641136 -90.543025 
L 104.922128 -91.496186 
L 106.20312 -92.44697 
L 107.484112 -93.386651 
L 108.765103 -94.346905 
L 110.046095 -95.250064 
L 111.327087 -96.131608 
L 112.608079 -97.067341 
L 113.88907 -98.002901 
L 115.170062 -98.898978 
L 116.451054 -99.829045 
L 117.732045 -100.760262 
L 119.013037 -101.660438 
L 120.294029 -102.557534 
L 121.575021 -103.476722 
L 122.856012 -104.413628 
L 124.137004 -105.297029 
L 125.417996 -106.179704 
L 126.698988 -107.095267 
L 127.979979 -107.974148 
L 129.260971 -108.912398 
L 130.541963 -109.830704 
L 131.822955 -110.722582 
L 133.103946 -111.611563 
L 134.384938 -112.54434 
L 135.66593 -113.463398 
L 136.946921 -114.367906 
L 138.227913 -115.272467 
L 139.508905 -116.151157 
L 140.789897 -117.046291 
L 142.070888 -117.982503 
L 143.35188 -118.892757 
L 144.632872 -119.797904 
L 145.913864 -120.70305 
L 147.194855 -121.57791 
L 148.475847 -122.484016 
L 149.756839 -123.399416 
L 151.037831 -124.314923 
L 152.318822 -125.227661 
L 153.599814 -126.132866 
L 154.880806 -127.037473 
L 156.161798 -127.939507 
L 157.442789 -128.846955 
L 158.723781 -129.751202 
L 160.004773 -130.654235 
L 161.285764 -131.53803 
L 162.566756 -132.41152 
L 163.847748 -133.275277 
L 165.12874 -134.139034 
L 166.409731 -135.002791 
L 167.690723 -135.866548 
L 168.971715 -136.730305 
L 170.252707 -137.594062 
L 171.533698 -138.470604 
L 172.81469 -139.349909 
L 174.095682 -140.231351 
L 175.376674 -141.132264 
L 176.657665 -142.040228 
L 177.938657 -142.951028 
L 179.219649 -143.861828 
L 180.50064 -144.772629 
L 181.781632 -145.682015 
L 183.062624 -146.566347 
L 184.343616 -147.447032 
L 185.624607 -148.334312 
L 186.905599 -149.210327 
L 188.186591 -150.077826 
L 188.186591 -163.183372 
L 188.186591 -163.183372 
L 186.905599 -162.137637 
L 185.624607 -161.091903 
L 184.343616 -160.046169 
L 183.062624 -159.000435 
L 181.781632 -157.954701 
L 180.50064 -156.908967 
L 179.219649 -155.863232 
L 177.938657 -154.817498 
L 176.657665 -153.771764 
L 175.376674 -152.725881 
L 174.095682 -151.679805 
L 172.81469 -150.633728 
L 171.533698 -149.587652 
L 170.252707 -148.541576 
L 168.971715 -147.495499 
L 167.690723 -146.449423 
L 166.409731 -145.403347 
L 165.12874 -144.35727 
L 163.847748 -143.311194 
L 162.566756 -142.265117 
L 161.285764 -141.219041 
L 160.004773 -140.170573 
L 158.723781 -139.118757 
L 157.442789 -138.055543 
L 156.161798 -136.998009 
L 154.880806 -135.940476 
L 153.599814 -134.889157 
L 152.318822 -133.845224 
L 151.037831 -132.801164 
L 149.756839 -131.735412 
L 148.475847 -130.665045 
L 147.194855 -129.603587 
L 145.913864 -128.55657 
L 144.632872 -127.52685 
L 143.35188 -126.457784 
L 142.070888 -125.408441 
L 140.789897 -124.332707 
L 139.508905 -123.264181 
L 138.227913 -122.191223 
L 136.946921 -121.140434 
L 135.66593 -120.141582 
L 134.384938 -119.059003 
L 133.103946 -117.985928 
L 131.822955 -116.954785 
L 130.541963 -115.926648 
L 129.260971 -114.893532 
L 127.979979 -113.848789 
L 126.698988 -112.795792 
L 125.417996 -111.757858 
L 124.137004 -110.729534 
L 122.856012 -109.705019 
L 121.575021 -108.670056 
L 120.294029 -107.608003 
L 119.013037 -106.580813 
L 117.732045 -105.532523 
L 116.451054 -104.494524 
L 115.170062 -103.49085 
L 113.88907 -102.444633 
L 112.608079 -101.470248 
L 111.327087 -100.4393 
L 110.046095 -99.43314 
L 108.765103 -98.411525 
L 107.484112 -97.382093 
L 106.20312 -96.37435 
L 104.922128 -95.357523 
L 103.641136 -94.35721 
L 102.360145 -93.383771 
L 101.079153 -92.422345 
L 99.798161 -91.435519 
L 98.517169 -90.461131 
L 97.236178 -89.46349 
L 95.955186 -88.49255 
L 94.674194 -87.540387 
L 93.393202 -86.567338 
L 92.112211 -85.594784 
L 90.831219 -84.65936 
L 89.550227 -83.712939 
L 88.269236 -82.797515 
L 86.988244 -81.824532 
L 85.707252 -80.878621 
L 84.42626 -79.922834 
L 83.145269 -79.034632 
L 81.864277 -78.123906 
L 80.583285 -77.203083 
L 79.302293 -76.264606 
L 78.021302 -75.350799 
L 76.74031 -74.499042 
L 75.459318 -73.591481 
L 74.178326 -72.679706 
L 72.897335 -71.732206 
L 71.616343 -70.77527 
L 70.335351 -69.82595 
L 69.05436 -68.938857 
L 67.773368 -68.008447 
L 66.492376 -67.076972 
L 65.211384 -66.171317 
L 63.930393 -65.251321 
L 62.649401 -64.363069 
L 61.368409 -63.48096 
z
" style="stroke: #ffffff; stroke-opacity: 0.15"/>
    </defs>
    <g clip-path="url(#p8aebd46511)">
     <use xlink:href="#m7827836546" x="0" y="188.595" style="fill-opacity: 0.15; stroke: #ffffff; stroke-opacity: 0.15"/>
    </g>
   </g>
   <g id="line2d_11">
    <path d="M 61.368409 128.523937 
L 62.649401 127.54378 
L 63.930393 126.563624 
L 65.211384 125.583467 
L 66.492376 124.603311 
L 67.773368 123.623155 
L 69.05436 122.642998 
L 70.335351 121.662842 
L 71.616343 120.682685 
L 72.897335 119.702529 
L 74.178326 118.722372 
L 75.459318 117.742216 
L 76.74031 116.76206 
L 78.021302 115.781903 
L 79.302293 114.801747 
L 80.583285 113.82159 
L 81.864277 112.841434 
L 83.145269 111.861277 
L 84.42626 110.881121 
L 85.707252 109.900965 
L 86.988244 108.920808 
L 88.269236 107.940652 
L 89.550227 106.960495 
L 90.831219 105.980339 
L 92.112211 105.000182 
L 93.393202 104.020026 
L 94.674194 103.03987 
L 95.955186 102.059713 
L 97.236178 101.079557 
L 98.517169 100.0994 
L 99.798161 99.119244 
L 101.079153 98.139088 
L 102.360145 97.158931 
L 103.641136 96.178775 
L 104.922128 95.198618 
L 106.20312 94.218462 
L 107.484112 93.238305 
L 108.765103 92.258149 
L 110.046095 91.277993 
L 111.327087 90.297836 
L 112.608079 89.31768 
L 113.88907 88.337523 
L 115.170062 87.357367 
L 116.451054 86.37721 
L 117.732045 85.397054 
L 119.013037 84.416898 
L 120.294029 83.436741 
L 121.575021 82.456585 
L 122.856012 81.476428 
L 124.137004 80.496272 
L 125.417996 79.516115 
L 126.698988 78.535959 
L 127.979979 77.555803 
L 129.260971 76.575646 
L 130.541963 75.59549 
L 131.822955 74.615333 
L 133.103946 73.635177 
L 134.384938 72.655021 
L 135.66593 71.674864 
L 136.946921 70.694708 
L 138.227913 69.714551 
L 139.508905 68.734395 
L 140.789897 67.754238 
L 142.070888 66.774082 
L 143.35188 65.793926 
L 144.632872 64.813769 
L 145.913864 63.833613 
L 147.194855 62.853456 
L 148.475847 61.8733 
L 149.756839 60.893143 
L 151.037831 59.912987 
L 152.318822 58.932831 
L 153.599814 57.952674 
L 154.880806 56.972518 
L 156.161798 55.992361 
L 157.442789 55.012205 
L 158.723781 54.032048 
L 160.004773 53.051892 
L 161.285764 52.071736 
L 162.566756 51.091579 
L 163.847748 50.111423 
L 165.12874 49.131266 
L 166.409731 48.15111 
L 167.690723 47.170953 
L 168.971715 46.190797 
L 170.252707 45.210641 
L 171.533698 44.230484 
L 172.81469 43.250328 
L 174.095682 42.270171 
L 175.376674 41.290015 
L 176.657665 40.309859 
L 177.938657 39.329702 
L 179.219649 38.349546 
L 180.50064 37.369389 
L 181.781632 36.389233 
L 183.062624 35.409076 
L 184.343616 34.42892 
L 185.624607 33.448764 
L 186.905599 32.468607 
L 188.186591 31.488451 
" clip-path="url(#p8aebd46511)" style="fill: none; stroke-dasharray: 8.325,3.6; stroke-dashoffset: 0; stroke: #000000; stroke-width: 2.25"/>
   </g>
   <g id="patch_3">
    <path d="M 55.0275 145.8 
L 55.0275 7.2 
" style="fill: none; stroke: #000000; stroke-width: 1.25; stroke-linejoin: miter; stroke-linecap: square"/>
   </g>
   <g id="patch_4">
    <path d="M 55.0275 145.8 
L 194.5275 145.8 
" style="fill: none; stroke: #000000; stroke-width: 1.25; stroke-linejoin: miter; stroke-linecap: square"/>
   </g>
   <g id="text_13">
    <!-- Pearsons r = 0.91 -->
    <g style="fill: #262626" transform="translate(68.9775 21.06) scale(0.12 -0.12)">
     <defs>
      <path id="ArialMT-3d" d="M 3381 2694 
L 356 2694 
L 356 3219 
L 3381 3219 
L 3381 2694 
z
M 3381 1303 
L 356 1303 
L 356 1828 
L 3381 1828 
L 3381 1303 
z
" transform="scale(0.015625)"/>
      <path id="ArialMT-39" d="M 350 1059 
L 891 1109 
Q 959 728 1153 556 
Q 1347 384 1650 384 
Q 1909 384 2104 503 
Q 2300 622 2425 820 
Q 2550 1019 2634 1356 
Q 2719 1694 2719 2044 
Q 2719 2081 2716 2156 
Q 2547 1888 2255 1720 
Q 1963 1553 1622 1553 
Q 1053 1553 659 1965 
Q 266 2378 266 3053 
Q 266 3750 677 4175 
Q 1088 4600 1706 4600 
Q 2153 4600 2523 4359 
Q 2894 4119 3086 3673 
Q 3278 3228 3278 2384 
Q 3278 1506 3087 986 
Q 2897 466 2520 194 
Q 2144 -78 1638 -78 
Q 1100 -78 759 220 
Q 419 519 350 1059 
z
M 2653 3081 
Q 2653 3566 2395 3850 
Q 2138 4134 1775 4134 
Q 1400 4134 1122 3828 
Q 844 3522 844 3034 
Q 844 2597 1108 2323 
Q 1372 2050 1759 2050 
Q 2150 2050 2401 2323 
Q 2653 2597 2653 3081 
z
" transform="scale(0.015625)"/>
     </defs>
     <use xlink:href="#ArialMT-50"/>
     <use xlink:href="#ArialMT-65" x="66.699219"/>
     <use xlink:href="#ArialMT-61" x="122.314453"/>
     <use xlink:href="#ArialMT-72" x="177.929688"/>
     <use xlink:href="#ArialMT-73" x="211.230469"/>
     <use xlink:href="#ArialMT-6f" x="261.230469"/>
     <use xlink:href="#ArialMT-6e" x="316.845703"/>
     <use xlink:href="#ArialMT-73" x="372.460938"/>
     <use xlink:href="#ArialMT-20" x="422.460938"/>
     <use xlink:href="#ArialMT-72" x="450.244141"/>
     <use xlink:href="#ArialMT-20" x="483.544922"/>
     <use xlink:href="#ArialMT-3d" x="511.328125"/>
     <use xlink:href="#ArialMT-20" x="569.726562"/>
     <use xlink:href="#ArialMT-30" x="597.509766"/>
     <use xlink:href="#ArialMT-2e" x="653.125"/>
     <use xlink:href="#ArialMT-39" x="680.908203"/>
     <use xlink:href="#ArialMT-31" x="736.523438"/>
    </g>
   </g>
   <g id="text_14">
    <!-- Spearmans r = 0.90 -->
    <g style="fill: #262626" transform="translate(68.9775 34.92) scale(0.12 -0.12)">
     <defs>
      <path id="ArialMT-53" d="M 288 1472 
L 859 1522 
Q 900 1178 1048 958 
Q 1197 738 1509 602 
Q 1822 466 2213 466 
Q 2559 466 2825 569 
Q 3091 672 3220 851 
Q 3350 1031 3350 1244 
Q 3350 1459 3225 1620 
Q 3100 1781 2813 1891 
Q 2628 1963 1997 2114 
Q 1366 2266 1113 2400 
Q 784 2572 623 2826 
Q 463 3081 463 3397 
Q 463 3744 659 4045 
Q 856 4347 1234 4503 
Q 1613 4659 2075 4659 
Q 2584 4659 2973 4495 
Q 3363 4331 3572 4012 
Q 3781 3694 3797 3291 
L 3216 3247 
Q 3169 3681 2898 3903 
Q 2628 4125 2100 4125 
Q 1550 4125 1298 3923 
Q 1047 3722 1047 3438 
Q 1047 3191 1225 3031 
Q 1400 2872 2139 2705 
Q 2878 2538 3153 2413 
Q 3553 2228 3743 1945 
Q 3934 1663 3934 1294 
Q 3934 928 3725 604 
Q 3516 281 3123 101 
Q 2731 -78 2241 -78 
Q 1619 -78 1198 103 
Q 778 284 539 648 
Q 300 1013 288 1472 
z
" transform="scale(0.015625)"/>
     </defs>
     <use xlink:href="#ArialMT-53"/>
     <use xlink:href="#ArialMT-70" x="66.699219"/>
     <use xlink:href="#ArialMT-65" x="122.314453"/>
     <use xlink:href="#ArialMT-61" x="177.929688"/>
     <use xlink:href="#ArialMT-72" x="233.544922"/>
     <use xlink:href="#ArialMT-6d" x="266.845703"/>
     <use xlink:href="#ArialMT-61" x="350.146484"/>
     <use xlink:href="#ArialMT-6e" x="405.761719"/>
     <use xlink:href="#ArialMT-73" x="461.376953"/>
     <use xlink:href="#ArialMT-20" x="511.376953"/>
     <use xlink:href="#ArialMT-72" x="539.160156"/>
     <use xlink:href="#ArialMT-20" x="572.460938"/>
     <use xlink:href="#ArialMT-3d" x="600.244141"/>
     <use xlink:href="#ArialMT-20" x="658.642578"/>
     <use xlink:href="#ArialMT-30" x="686.425781"/>
     <use xlink:href="#ArialMT-2e" x="742.041016"/>
     <use xlink:href="#ArialMT-39" x="769.824219"/>
     <use xlink:href="#ArialMT-30" x="825.439453"/>
    </g>
   </g>
  </g>
 </g>
 <defs>
  <clipPath id="p8aebd46511">
   <rect x="55.0275" y="7.2" width="139.5" height="138.6"/>
  </clipPath>
 </defs>
</svg>
