<?xml version="1.0" encoding="utf-8" standalone="no"?>
<!DOCTYPE svg PUBLIC "-//W3C//DTD SVG 1.1//EN"
  "http://www.w3.org/Graphics/SVG/1.1/DTD/svg11.dtd">
<svg xmlns:xlink="http://www.w3.org/1999/xlink" width="224.485312pt" height="205.331719pt" viewBox="0 0 224.485312 205.331719" xmlns="http://www.w3.org/2000/svg" version="1.1">
 <metadata>
  <rdf:RDF xmlns:dc="http://purl.org/dc/elements/1.1/" xmlns:cc="http://creativecommons.org/ns#" xmlns:rdf="http://www.w3.org/1999/02/22-rdf-syntax-ns#">
   <cc:Work>
    <dc:type rdf:resource="http://purl.org/dc/dcmitype/StillImage"/>
    <dc:date>2023-11-03T17:04:28.915424</dc:date>
    <dc:format>image/svg+xml</dc:format>
    <dc:creator>
     <cc:Agent>
      <dc:title>Matplotlib v3.6.3, https://matplotlib.org/</dc:title>
     </cc:Agent>
    </dc:creator>
   </cc:Work>
  </rdf:RDF>
 </metadata>
 <defs>
  <style type="text/css">*{stroke-linejoin: round; stroke-linecap: butt}</style>
 </defs>
 <g id="figure_1">
  <g id="patch_1">
   <path d="M 0 205.331719 
L 224.485313 205.331719 
L 224.485313 -0 
L 0 -0 
L 0 205.331719 
z
" style="fill: none"/>
  </g>
  <g id="axes_1">
   <g id="patch_2">
    <path d="M 55.0275 162.536719 
L 194.5275 162.536719 
L 194.5275 23.936719 
L 55.0275 23.936719 
L 55.0275 162.536719 
z
" style="fill: none"/>
   </g>
   <g id="matplotlib.axis_1">
    <g id="xtick_1">
     <g id="line2d_1">
      <path d="M 55.0275 162.536719 
L 55.0275 23.936719 
" clip-path="url(#p29b6e50708)" style="fill: none; stroke: #ffffff; stroke-linecap: round"/>
     </g>
     <g id="line2d_2">
      <defs>
       <path id="m33ec62e94a" d="M 0 0 
L 0 6 
" style="stroke: #000000; stroke-width: 1.25"/>
      </defs>
      <g>
       <use xlink:href="#m33ec62e94a" x="55.0275" y="162.536719" style="stroke: #000000; stroke-width: 1.25"/>
      </g>
     </g>
     <g id="text_1">
      <!-- 0.00 -->
      <g transform="translate(43.350938 180.626094) scale(0.12 -0.12)">
       <defs>
        <path id="ArialMT-30" d="M 266 2259 
Q 266 3072 433 3567 
Q 600 4063 929 4331 
Q 1259 4600 1759 4600 
Q 2128 4600 2406 4451 
Q 2684 4303 2865 4023 
Q 3047 3744 3150 3342 
Q 3253 2941 3253 2259 
Q 3253 1453 3087 958 
Q 2922 463 2592 192 
Q 2263 -78 1759 -78 
Q 1097 -78 719 397 
Q 266 969 266 2259 
z
M 844 2259 
Q 844 1131 1108 757 
Q 1372 384 1759 384 
Q 2147 384 2411 759 
Q 2675 1134 2675 2259 
Q 2675 3391 2411 3762 
Q 2147 4134 1753 4134 
Q 1366 4134 1134 3806 
Q 844 3388 844 2259 
z
" transform="scale(0.015625)"/>
        <path id="ArialMT-2e" d="M 581 0 
L 581 641 
L 1222 641 
L 1222 0 
L 581 0 
z
" transform="scale(0.015625)"/>
       </defs>
       <use xlink:href="#ArialMT-30"/>
       <use xlink:href="#ArialMT-2e" x="55.615234"/>
       <use xlink:href="#ArialMT-30" x="83.398438"/>
       <use xlink:href="#ArialMT-30" x="139.013672"/>
      </g>
     </g>
    </g>
    <g id="xtick_2">
     <g id="line2d_3">
      <path d="M 88.241786 162.536719 
L 88.241786 23.936719 
" clip-path="url(#p29b6e50708)" style="fill: none; stroke: #ffffff; stroke-linecap: round"/>
     </g>
     <g id="line2d_4">
      <g>
       <use xlink:href="#m33ec62e94a" x="88.241786" y="162.536719" style="stroke: #000000; stroke-width: 1.25"/>
      </g>
     </g>
     <g id="text_2">
      <!-- 0.25 -->
      <g transform="translate(76.565223 180.626094) scale(0.12 -0.12)">
       <defs>
        <path id="ArialMT-32" d="M 3222 541 
L 3222 0 
L 194 0 
Q 188 203 259 391 
Q 375 700 629 1000 
Q 884 1300 1366 1694 
Q 2113 2306 2375 2664 
Q 2638 3022 2638 3341 
Q 2638 3675 2398 3904 
Q 2159 4134 1775 4134 
Q 1369 4134 1125 3890 
Q 881 3647 878 3216 
L 300 3275 
Q 359 3922 746 4261 
Q 1134 4600 1788 4600 
Q 2447 4600 2831 4234 
Q 3216 3869 3216 3328 
Q 3216 3053 3103 2787 
Q 2991 2522 2730 2228 
Q 2469 1934 1863 1422 
Q 1356 997 1212 845 
Q 1069 694 975 541 
L 3222 541 
z
" transform="scale(0.015625)"/>
        <path id="ArialMT-35" d="M 266 1200 
L 856 1250 
Q 922 819 1161 601 
Q 1400 384 1738 384 
Q 2144 384 2425 690 
Q 2706 997 2706 1503 
Q 2706 1984 2436 2262 
Q 2166 2541 1728 2541 
Q 1456 2541 1237 2417 
Q 1019 2294 894 2097 
L 366 2166 
L 809 4519 
L 3088 4519 
L 3088 3981 
L 1259 3981 
L 1013 2750 
Q 1425 3038 1878 3038 
Q 2478 3038 2890 2622 
Q 3303 2206 3303 1553 
Q 3303 931 2941 478 
Q 2500 -78 1738 -78 
Q 1113 -78 717 272 
Q 322 622 266 1200 
z
" transform="scale(0.015625)"/>
       </defs>
       <use xlink:href="#ArialMT-30"/>
       <use xlink:href="#ArialMT-2e" x="55.615234"/>
       <use xlink:href="#ArialMT-32" x="83.398438"/>
       <use xlink:href="#ArialMT-35" x="139.013672"/>
      </g>
     </g>
    </g>
    <g id="xtick_3">
     <g id="line2d_5">
      <path d="M 121.456071 162.536719 
L 121.456071 23.936719 
" clip-path="url(#p29b6e50708)" style="fill: none; stroke: #ffffff; stroke-linecap: round"/>
     </g>
     <g id="line2d_6">
      <g>
       <use xlink:href="#m33ec62e94a" x="121.456071" y="162.536719" style="stroke: #000000; stroke-width: 1.25"/>
      </g>
     </g>
     <g id="text_3">
      <!-- 0.50 -->
      <g transform="translate(109.779509 180.626094) scale(0.12 -0.12)">
       <use xlink:href="#ArialMT-30"/>
       <use xlink:href="#ArialMT-2e" x="55.615234"/>
       <use xlink:href="#ArialMT-35" x="83.398438"/>
       <use xlink:href="#ArialMT-30" x="139.013672"/>
      </g>
     </g>
    </g>
    <g id="xtick_4">
     <g id="line2d_7">
      <path d="M 154.670357 162.536719 
L 154.670357 23.936719 
" clip-path="url(#p29b6e50708)" style="fill: none; stroke: #ffffff; stroke-linecap: round"/>
     </g>
     <g id="line2d_8">
      <g>
       <use xlink:href="#m33ec62e94a" x="154.670357" y="162.536719" style="stroke: #000000; stroke-width: 1.25"/>
      </g>
     </g>
     <g id="text_4">
      <!-- 0.75 -->
      <g transform="translate(142.993795 180.626094) scale(0.12 -0.12)">
       <defs>
        <path id="ArialMT-37" d="M 303 3981 
L 303 4522 
L 3269 4522 
L 3269 4084 
Q 2831 3619 2401 2847 
Q 1972 2075 1738 1259 
Q 1569 684 1522 0 
L 944 0 
Q 953 541 1156 1306 
Q 1359 2072 1739 2783 
Q 2119 3494 2547 3981 
L 303 3981 
z
" transform="scale(0.015625)"/>
       </defs>
       <use xlink:href="#ArialMT-30"/>
       <use xlink:href="#ArialMT-2e" x="55.615234"/>
       <use xlink:href="#ArialMT-37" x="83.398438"/>
       <use xlink:href="#ArialMT-35" x="139.013672"/>
      </g>
     </g>
    </g>
    <g id="xtick_5">
     <g id="line2d_9">
      <path d="M 187.884643 162.536719 
L 187.884643 23.936719 
" clip-path="url(#p29b6e50708)" style="fill: none; stroke: #ffffff; stroke-linecap: round"/>
     </g>
     <g id="line2d_10">
      <g>
       <use xlink:href="#m33ec62e94a" x="187.884643" y="162.536719" style="stroke: #000000; stroke-width: 1.25"/>
      </g>
     </g>
     <g id="text_5">
      <!-- 1.00 -->
      <g transform="translate(176.20808 180.626094) scale(0.12 -0.12)">
       <defs>
        <path id="ArialMT-31" d="M 2384 0 
L 1822 0 
L 1822 3584 
Q 1619 3391 1289 3197 
Q 959 3003 697 2906 
L 697 3450 
Q 1169 3672 1522 3987 
Q 1875 4303 2022 4600 
L 2384 4600 
L 2384 0 
z
" transform="scale(0.015625)"/>
       </defs>
       <use xlink:href="#ArialMT-31"/>
       <use xlink:href="#ArialMT-2e" x="55.615234"/>
       <use xlink:href="#ArialMT-30" x="83.398438"/>
       <use xlink:href="#ArialMT-30" x="139.013672"/>
      </g>
     </g>
    </g>
    <g id="text_6">
     <!-- Experimental Transfection -->
     <g transform="translate(55.414687 195.746719) scale(0.12 -0.12)">
      <defs>
       <path id="ArialMT-45" d="M 506 0 
L 506 4581 
L 3819 4581 
L 3819 4041 
L 1113 4041 
L 1113 2638 
L 3647 2638 
L 3647 2100 
L 1113 2100 
L 1113 541 
L 3925 541 
L 3925 0 
L 506 0 
z
" transform="scale(0.015625)"/>
       <path id="ArialMT-78" d="M 47 0 
L 1259 1725 
L 138 3319 
L 841 3319 
L 1350 2541 
Q 1494 2319 1581 2169 
Q 1719 2375 1834 2534 
L 2394 3319 
L 3066 3319 
L 1919 1756 
L 3153 0 
L 2463 0 
L 1781 1031 
L 1600 1309 
L 728 0 
L 47 0 
z
" transform="scale(0.015625)"/>
       <path id="ArialMT-70" d="M 422 -1272 
L 422 3319 
L 934 3319 
L 934 2888 
Q 1116 3141 1344 3267 
Q 1572 3394 1897 3394 
Q 2322 3394 2647 3175 
Q 2972 2956 3137 2557 
Q 3303 2159 3303 1684 
Q 3303 1175 3120 767 
Q 2938 359 2589 142 
Q 2241 -75 1856 -75 
Q 1575 -75 1351 44 
Q 1128 163 984 344 
L 984 -1272 
L 422 -1272 
z
M 931 1641 
Q 931 1000 1190 694 
Q 1450 388 1819 388 
Q 2194 388 2461 705 
Q 2728 1022 2728 1688 
Q 2728 2322 2467 2637 
Q 2206 2953 1844 2953 
Q 1484 2953 1207 2617 
Q 931 2281 931 1641 
z
" transform="scale(0.015625)"/>
       <path id="ArialMT-65" d="M 2694 1069 
L 3275 997 
Q 3138 488 2766 206 
Q 2394 -75 1816 -75 
Q 1088 -75 661 373 
Q 234 822 234 1631 
Q 234 2469 665 2931 
Q 1097 3394 1784 3394 
Q 2450 3394 2872 2941 
Q 3294 2488 3294 1666 
Q 3294 1616 3291 1516 
L 816 1516 
Q 847 969 1125 678 
Q 1403 388 1819 388 
Q 2128 388 2347 550 
Q 2566 713 2694 1069 
z
M 847 1978 
L 2700 1978 
Q 2663 2397 2488 2606 
Q 2219 2931 1791 2931 
Q 1403 2931 1139 2672 
Q 875 2413 847 1978 
z
" transform="scale(0.015625)"/>
       <path id="ArialMT-72" d="M 416 0 
L 416 3319 
L 922 3319 
L 922 2816 
Q 1116 3169 1280 3281 
Q 1444 3394 1641 3394 
Q 1925 3394 2219 3213 
L 2025 2691 
Q 1819 2813 1613 2813 
Q 1428 2813 1281 2702 
Q 1134 2591 1072 2394 
Q 978 2094 978 1738 
L 978 0 
L 416 0 
z
" transform="scale(0.015625)"/>
       <path id="ArialMT-69" d="M 425 3934 
L 425 4581 
L 988 4581 
L 988 3934 
L 425 3934 
z
M 425 0 
L 425 3319 
L 988 3319 
L 988 0 
L 425 0 
z
" transform="scale(0.015625)"/>
       <path id="ArialMT-6d" d="M 422 0 
L 422 3319 
L 925 3319 
L 925 2853 
Q 1081 3097 1340 3245 
Q 1600 3394 1931 3394 
Q 2300 3394 2536 3241 
Q 2772 3088 2869 2813 
Q 3263 3394 3894 3394 
Q 4388 3394 4653 3120 
Q 4919 2847 4919 2278 
L 4919 0 
L 4359 0 
L 4359 2091 
Q 4359 2428 4304 2576 
Q 4250 2725 4106 2815 
Q 3963 2906 3769 2906 
Q 3419 2906 3187 2673 
Q 2956 2441 2956 1928 
L 2956 0 
L 2394 0 
L 2394 2156 
Q 2394 2531 2256 2718 
Q 2119 2906 1806 2906 
Q 1569 2906 1367 2781 
Q 1166 2656 1075 2415 
Q 984 2175 984 1722 
L 984 0 
L 422 0 
z
" transform="scale(0.015625)"/>
       <path id="ArialMT-6e" d="M 422 0 
L 422 3319 
L 928 3319 
L 928 2847 
Q 1294 3394 1984 3394 
Q 2284 3394 2536 3286 
Q 2788 3178 2913 3003 
Q 3038 2828 3088 2588 
Q 3119 2431 3119 2041 
L 3119 0 
L 2556 0 
L 2556 2019 
Q 2556 2363 2490 2533 
Q 2425 2703 2258 2804 
Q 2091 2906 1866 2906 
Q 1506 2906 1245 2678 
Q 984 2450 984 1813 
L 984 0 
L 422 0 
z
" transform="scale(0.015625)"/>
       <path id="ArialMT-74" d="M 1650 503 
L 1731 6 
Q 1494 -44 1306 -44 
Q 1000 -44 831 53 
Q 663 150 594 308 
Q 525 466 525 972 
L 525 2881 
L 113 2881 
L 113 3319 
L 525 3319 
L 525 4141 
L 1084 4478 
L 1084 3319 
L 1650 3319 
L 1650 2881 
L 1084 2881 
L 1084 941 
Q 1084 700 1114 631 
Q 1144 563 1211 522 
Q 1278 481 1403 481 
Q 1497 481 1650 503 
z
" transform="scale(0.015625)"/>
       <path id="ArialMT-61" d="M 2588 409 
Q 2275 144 1986 34 
Q 1697 -75 1366 -75 
Q 819 -75 525 192 
Q 231 459 231 875 
Q 231 1119 342 1320 
Q 453 1522 633 1644 
Q 813 1766 1038 1828 
Q 1203 1872 1538 1913 
Q 2219 1994 2541 2106 
Q 2544 2222 2544 2253 
Q 2544 2597 2384 2738 
Q 2169 2928 1744 2928 
Q 1347 2928 1158 2789 
Q 969 2650 878 2297 
L 328 2372 
Q 403 2725 575 2942 
Q 747 3159 1072 3276 
Q 1397 3394 1825 3394 
Q 2250 3394 2515 3294 
Q 2781 3194 2906 3042 
Q 3031 2891 3081 2659 
Q 3109 2516 3109 2141 
L 3109 1391 
Q 3109 606 3145 398 
Q 3181 191 3288 0 
L 2700 0 
Q 2613 175 2588 409 
z
M 2541 1666 
Q 2234 1541 1622 1453 
Q 1275 1403 1131 1340 
Q 988 1278 909 1158 
Q 831 1038 831 891 
Q 831 666 1001 516 
Q 1172 366 1500 366 
Q 1825 366 2078 508 
Q 2331 650 2450 897 
Q 2541 1088 2541 1459 
L 2541 1666 
z
" transform="scale(0.015625)"/>
       <path id="ArialMT-6c" d="M 409 0 
L 409 4581 
L 972 4581 
L 972 0 
L 409 0 
z
" transform="scale(0.015625)"/>
       <path id="ArialMT-20" transform="scale(0.015625)"/>
       <path id="ArialMT-54" d="M 1659 0 
L 1659 4041 
L 150 4041 
L 150 4581 
L 3781 4581 
L 3781 4041 
L 2266 4041 
L 2266 0 
L 1659 0 
z
" transform="scale(0.015625)"/>
       <path id="ArialMT-73" d="M 197 991 
L 753 1078 
Q 800 744 1014 566 
Q 1228 388 1613 388 
Q 2000 388 2187 545 
Q 2375 703 2375 916 
Q 2375 1106 2209 1216 
Q 2094 1291 1634 1406 
Q 1016 1563 777 1677 
Q 538 1791 414 1992 
Q 291 2194 291 2438 
Q 291 2659 392 2848 
Q 494 3038 669 3163 
Q 800 3259 1026 3326 
Q 1253 3394 1513 3394 
Q 1903 3394 2198 3281 
Q 2494 3169 2634 2976 
Q 2775 2784 2828 2463 
L 2278 2388 
Q 2241 2644 2061 2787 
Q 1881 2931 1553 2931 
Q 1166 2931 1000 2803 
Q 834 2675 834 2503 
Q 834 2394 903 2306 
Q 972 2216 1119 2156 
Q 1203 2125 1616 2013 
Q 2213 1853 2448 1751 
Q 2684 1650 2818 1456 
Q 2953 1263 2953 975 
Q 2953 694 2789 445 
Q 2625 197 2315 61 
Q 2006 -75 1616 -75 
Q 969 -75 630 194 
Q 291 463 197 991 
z
" transform="scale(0.015625)"/>
       <path id="ArialMT-66" d="M 556 0 
L 556 2881 
L 59 2881 
L 59 3319 
L 556 3319 
L 556 3672 
Q 556 4006 616 4169 
Q 697 4388 901 4523 
Q 1106 4659 1475 4659 
Q 1713 4659 2000 4603 
L 1916 4113 
Q 1741 4144 1584 4144 
Q 1328 4144 1222 4034 
Q 1116 3925 1116 3625 
L 1116 3319 
L 1763 3319 
L 1763 2881 
L 1116 2881 
L 1116 0 
L 556 0 
z
" transform="scale(0.015625)"/>
       <path id="ArialMT-63" d="M 2588 1216 
L 3141 1144 
Q 3050 572 2676 248 
Q 2303 -75 1759 -75 
Q 1078 -75 664 370 
Q 250 816 250 1647 
Q 250 2184 428 2587 
Q 606 2991 970 3192 
Q 1334 3394 1763 3394 
Q 2303 3394 2647 3120 
Q 2991 2847 3088 2344 
L 2541 2259 
Q 2463 2594 2264 2762 
Q 2066 2931 1784 2931 
Q 1359 2931 1093 2626 
Q 828 2322 828 1663 
Q 828 994 1084 691 
Q 1341 388 1753 388 
Q 2084 388 2306 591 
Q 2528 794 2588 1216 
z
" transform="scale(0.015625)"/>
       <path id="ArialMT-6f" d="M 213 1659 
Q 213 2581 725 3025 
Q 1153 3394 1769 3394 
Q 2453 3394 2887 2945 
Q 3322 2497 3322 1706 
Q 3322 1066 3130 698 
Q 2938 331 2570 128 
Q 2203 -75 1769 -75 
Q 1072 -75 642 372 
Q 213 819 213 1659 
z
M 791 1659 
Q 791 1022 1069 705 
Q 1347 388 1769 388 
Q 2188 388 2466 706 
Q 2744 1025 2744 1678 
Q 2744 2294 2464 2611 
Q 2184 2928 1769 2928 
Q 1347 2928 1069 2612 
Q 791 2297 791 1659 
z
" transform="scale(0.015625)"/>
      </defs>
      <use xlink:href="#ArialMT-45"/>
      <use xlink:href="#ArialMT-78" x="66.699219"/>
      <use xlink:href="#ArialMT-70" x="116.699219"/>
      <use xlink:href="#ArialMT-65" x="172.314453"/>
      <use xlink:href="#ArialMT-72" x="227.929688"/>
      <use xlink:href="#ArialMT-69" x="261.230469"/>
      <use xlink:href="#ArialMT-6d" x="283.447266"/>
      <use xlink:href="#ArialMT-65" x="366.748047"/>
      <use xlink:href="#ArialMT-6e" x="422.363281"/>
      <use xlink:href="#ArialMT-74" x="477.978516"/>
      <use xlink:href="#ArialMT-61" x="505.761719"/>
      <use xlink:href="#ArialMT-6c" x="561.376953"/>
      <use xlink:href="#ArialMT-20" x="583.59375"/>
      <use xlink:href="#ArialMT-54" x="609.626953"/>
      <use xlink:href="#ArialMT-72" x="666.960938"/>
      <use xlink:href="#ArialMT-61" x="700.261719"/>
      <use xlink:href="#ArialMT-6e" x="755.876953"/>
      <use xlink:href="#ArialMT-73" x="811.492188"/>
      <use xlink:href="#ArialMT-66" x="861.492188"/>
      <use xlink:href="#ArialMT-65" x="889.275391"/>
      <use xlink:href="#ArialMT-63" x="944.890625"/>
      <use xlink:href="#ArialMT-74" x="994.890625"/>
      <use xlink:href="#ArialMT-69" x="1022.673828"/>
      <use xlink:href="#ArialMT-6f" x="1044.890625"/>
      <use xlink:href="#ArialMT-6e" x="1100.505859"/>
     </g>
    </g>
   </g>
   <g id="matplotlib.axis_2">
    <g id="ytick_1">
     <g id="line2d_11">
      <path d="M 55.0275 162.536719 
L 194.5275 162.536719 
" clip-path="url(#p29b6e50708)" style="fill: none; stroke: #ffffff; stroke-linecap: round"/>
     </g>
     <g id="line2d_12">
      <defs>
       <path id="mb513c35a44" d="M 0 0 
L -6 0 
" style="stroke: #000000; stroke-width: 1.25"/>
      </defs>
      <g>
       <use xlink:href="#mb513c35a44" x="55.0275" y="162.536719" style="stroke: #000000; stroke-width: 1.25"/>
      </g>
     </g>
     <g id="text_7">
      <!-- 0.00 -->
      <g transform="translate(22.174375 166.831406) scale(0.12 -0.12)">
       <use xlink:href="#ArialMT-30"/>
       <use xlink:href="#ArialMT-2e" x="55.615234"/>
       <use xlink:href="#ArialMT-30" x="83.398438"/>
       <use xlink:href="#ArialMT-30" x="139.013672"/>
      </g>
     </g>
    </g>
    <g id="ytick_2">
     <g id="line2d_13">
      <path d="M 55.0275 129.536719 
L 194.5275 129.536719 
" clip-path="url(#p29b6e50708)" style="fill: none; stroke: #ffffff; stroke-linecap: round"/>
     </g>
     <g id="line2d_14">
      <g>
       <use xlink:href="#mb513c35a44" x="55.0275" y="129.536719" style="stroke: #000000; stroke-width: 1.25"/>
      </g>
     </g>
     <g id="text_8">
      <!-- 0.25 -->
      <g transform="translate(22.174375 133.831406) scale(0.12 -0.12)">
       <use xlink:href="#ArialMT-30"/>
       <use xlink:href="#ArialMT-2e" x="55.615234"/>
       <use xlink:href="#ArialMT-32" x="83.398438"/>
       <use xlink:href="#ArialMT-35" x="139.013672"/>
      </g>
     </g>
    </g>
    <g id="ytick_3">
     <g id="line2d_15">
      <path d="M 55.0275 96.536719 
L 194.5275 96.536719 
" clip-path="url(#p29b6e50708)" style="fill: none; stroke: #ffffff; stroke-linecap: round"/>
     </g>
     <g id="line2d_16">
      <g>
       <use xlink:href="#mb513c35a44" x="55.0275" y="96.536719" style="stroke: #000000; stroke-width: 1.25"/>
      </g>
     </g>
     <g id="text_9">
      <!-- 0.50 -->
      <g transform="translate(22.174375 100.831406) scale(0.12 -0.12)">
       <use xlink:href="#ArialMT-30"/>
       <use xlink:href="#ArialMT-2e" x="55.615234"/>
       <use xlink:href="#ArialMT-35" x="83.398438"/>
       <use xlink:href="#ArialMT-30" x="139.013672"/>
      </g>
     </g>
    </g>
    <g id="ytick_4">
     <g id="line2d_17">
      <path d="M 55.0275 63.536719 
L 194.5275 63.536719 
" clip-path="url(#p29b6e50708)" style="fill: none; stroke: #ffffff; stroke-linecap: round"/>
     </g>
     <g id="line2d_18">
      <g>
       <use xlink:href="#mb513c35a44" x="55.0275" y="63.536719" style="stroke: #000000; stroke-width: 1.25"/>
      </g>
     </g>
     <g id="text_10">
      <!-- 0.75 -->
      <g transform="translate(22.174375 67.831406) scale(0.12 -0.12)">
       <use xlink:href="#ArialMT-30"/>
       <use xlink:href="#ArialMT-2e" x="55.615234"/>
       <use xlink:href="#ArialMT-37" x="83.398438"/>
       <use xlink:href="#ArialMT-35" x="139.013672"/>
      </g>
     </g>
    </g>
    <g id="ytick_5">
     <g id="line2d_19">
      <path d="M 55.0275 30.536719 
L 194.5275 30.536719 
" clip-path="url(#p29b6e50708)" style="fill: none; stroke: #ffffff; stroke-linecap: round"/>
     </g>
     <g id="line2d_20">
      <g>
       <use xlink:href="#mb513c35a44" x="55.0275" y="30.536719" style="stroke: #000000; stroke-width: 1.25"/>
      </g>
     </g>
     <g id="text_11">
      <!-- 1.00 -->
      <g transform="translate(22.174375 34.831406) scale(0.12 -0.12)">
       <use xlink:href="#ArialMT-31"/>
       <use xlink:href="#ArialMT-2e" x="55.615234"/>
       <use xlink:href="#ArialMT-30" x="83.398438"/>
       <use xlink:href="#ArialMT-30" x="139.013672"/>
      </g>
     </g>
    </g>
    <g id="text_12">
     <!-- Predicted Transfection -->
     <g transform="translate(15.789375 152.932031) rotate(-90) scale(0.12 -0.12)">
      <defs>
       <path id="ArialMT-50" d="M 494 0 
L 494 4581 
L 2222 4581 
Q 2678 4581 2919 4538 
Q 3256 4481 3484 4323 
Q 3713 4166 3852 3881 
Q 3991 3597 3991 3256 
Q 3991 2672 3619 2267 
Q 3247 1863 2275 1863 
L 1100 1863 
L 1100 0 
L 494 0 
z
M 1100 2403 
L 2284 2403 
Q 2872 2403 3119 2622 
Q 3366 2841 3366 3238 
Q 3366 3525 3220 3729 
Q 3075 3934 2838 4000 
Q 2684 4041 2272 4041 
L 1100 4041 
L 1100 2403 
z
" transform="scale(0.015625)"/>
       <path id="ArialMT-64" d="M 2575 0 
L 2575 419 
Q 2259 -75 1647 -75 
Q 1250 -75 917 144 
Q 584 363 401 755 
Q 219 1147 219 1656 
Q 219 2153 384 2558 
Q 550 2963 881 3178 
Q 1213 3394 1622 3394 
Q 1922 3394 2156 3267 
Q 2391 3141 2538 2938 
L 2538 4581 
L 3097 4581 
L 3097 0 
L 2575 0 
z
M 797 1656 
Q 797 1019 1065 703 
Q 1334 388 1700 388 
Q 2069 388 2326 689 
Q 2584 991 2584 1609 
Q 2584 2291 2321 2609 
Q 2059 2928 1675 2928 
Q 1300 2928 1048 2622 
Q 797 2316 797 1656 
z
" transform="scale(0.015625)"/>
      </defs>
      <use xlink:href="#ArialMT-50"/>
      <use xlink:href="#ArialMT-72" x="66.699219"/>
      <use xlink:href="#ArialMT-65" x="100"/>
      <use xlink:href="#ArialMT-64" x="155.615234"/>
      <use xlink:href="#ArialMT-69" x="211.230469"/>
      <use xlink:href="#ArialMT-63" x="233.447266"/>
      <use xlink:href="#ArialMT-74" x="283.447266"/>
      <use xlink:href="#ArialMT-65" x="311.230469"/>
      <use xlink:href="#ArialMT-64" x="366.845703"/>
      <use xlink:href="#ArialMT-20" x="422.460938"/>
      <use xlink:href="#ArialMT-54" x="448.494141"/>
      <use xlink:href="#ArialMT-72" x="505.828125"/>
      <use xlink:href="#ArialMT-61" x="539.128906"/>
      <use xlink:href="#ArialMT-6e" x="594.744141"/>
      <use xlink:href="#ArialMT-73" x="650.359375"/>
      <use xlink:href="#ArialMT-66" x="700.359375"/>
      <use xlink:href="#ArialMT-65" x="728.142578"/>
      <use xlink:href="#ArialMT-63" x="783.757812"/>
      <use xlink:href="#ArialMT-74" x="833.757812"/>
      <use xlink:href="#ArialMT-69" x="861.541016"/>
      <use xlink:href="#ArialMT-6f" x="883.757812"/>
      <use xlink:href="#ArialMT-6e" x="939.373047"/>
     </g>
    </g>
   </g>
   <g id="PathCollection_1">
    <defs>
     <path id="m22ce4b277a" d="M 0 3 
C 0.795609 3 1.55874 2.683901 2.12132 2.12132 
C 2.683901 1.55874 3 0.795609 3 0 
C 3 -0.795609 2.683901 -1.55874 2.12132 -2.12132 
C 1.55874 -2.683901 0.795609 -3 0 -3 
C -0.795609 -3 -1.55874 -2.683901 -2.12132 -2.12132 
C -2.683901 -1.55874 -3 -0.795609 -3 0 
C -3 0.795609 -2.683901 1.55874 -2.12132 2.12132 
C -1.55874 2.683901 -0.795609 3 0 3 
z
" style="stroke: #1a1a1a; stroke-opacity: 0.8"/>
    </defs>
    <g clip-path="url(#p29b6e50708)">
     <use xlink:href="#m22ce4b277a" x="75.587687" y="112.18445" style="fill: #1a1a1a; fill-opacity: 0.8; stroke: #1a1a1a; stroke-opacity: 0.8"/>
     <use xlink:href="#m22ce4b277a" x="77.787453" y="120.302526" style="fill: #1a1a1a; fill-opacity: 0.8; stroke: #1a1a1a; stroke-opacity: 0.8"/>
     <use xlink:href="#m22ce4b277a" x="67.333121" y="152.617944" style="fill: #1a1a1a; fill-opacity: 0.8; stroke: #1a1a1a; stroke-opacity: 0.8"/>
     <use xlink:href="#m22ce4b277a" x="55.0275" y="159.950911" style="fill: #1a1a1a; fill-opacity: 0.8; stroke: #1a1a1a; stroke-opacity: 0.8"/>
     <use xlink:href="#m22ce4b277a" x="131.191669" y="114.543303" style="fill: #1a1a1a; fill-opacity: 0.8; stroke: #1a1a1a; stroke-opacity: 0.8"/>
     <use xlink:href="#m22ce4b277a" x="122.414385" y="106.733035" style="fill: #1a1a1a; fill-opacity: 0.8; stroke: #1a1a1a; stroke-opacity: 0.8"/>
     <use xlink:href="#m22ce4b277a" x="81.577149" y="116.8345" style="fill: #1a1a1a; fill-opacity: 0.8; stroke: #1a1a1a; stroke-opacity: 0.8"/>
     <use xlink:href="#m22ce4b277a" x="63.695884" y="165.740343" style="fill: #1a1a1a; fill-opacity: 0.8; stroke: #1a1a1a; stroke-opacity: 0.8"/>
     <use xlink:href="#m22ce4b277a" x="130.102676" y="111.415815" style="fill: #1a1a1a; fill-opacity: 0.8; stroke: #1a1a1a; stroke-opacity: 0.8"/>
     <use xlink:href="#m22ce4b277a" x="132.58558" y="110.816658" style="fill: #1a1a1a; fill-opacity: 0.8; stroke: #1a1a1a; stroke-opacity: 0.8"/>
     <use xlink:href="#m22ce4b277a" x="77.787453" y="132.379214" style="fill: #1a1a1a; fill-opacity: 0.8; stroke: #1a1a1a; stroke-opacity: 0.8"/>
     <use xlink:href="#m22ce4b277a" x="55.0275" y="163.640376" style="fill: #1a1a1a; fill-opacity: 0.8; stroke: #1a1a1a; stroke-opacity: 0.8"/>
     <use xlink:href="#m22ce4b277a" x="55.0275" y="161.111205" style="fill: #1a1a1a; fill-opacity: 0.8; stroke: #1a1a1a; stroke-opacity: 0.8"/>
     <use xlink:href="#m22ce4b277a" x="127.92469" y="104.354878" style="fill: #1a1a1a; fill-opacity: 0.8; stroke: #1a1a1a; stroke-opacity: 0.8"/>
     <use xlink:href="#m22ce4b277a" x="55.0275" y="137.255689" style="fill: #1a1a1a; fill-opacity: 0.8; stroke: #1a1a1a; stroke-opacity: 0.8"/>
     <use xlink:href="#m22ce4b277a" x="113.245064" y="103.384025" style="fill: #1a1a1a; fill-opacity: 0.8; stroke: #1a1a1a; stroke-opacity: 0.8"/>
     <use xlink:href="#m22ce4b277a" x="89.526797" y="125.414673" style="fill: #1a1a1a; fill-opacity: 0.8; stroke: #1a1a1a; stroke-opacity: 0.8"/>
     <use xlink:href="#m22ce4b277a" x="55.0275" y="162.974142" style="fill: #1a1a1a; fill-opacity: 0.8; stroke: #1a1a1a; stroke-opacity: 0.8"/>
     <use xlink:href="#m22ce4b277a" x="121.020474" y="103.810894" style="fill: #1a1a1a; fill-opacity: 0.8; stroke: #1a1a1a; stroke-opacity: 0.8"/>
     <use xlink:href="#m22ce4b277a" x="70.447641" y="136.531362" style="fill: #1a1a1a; fill-opacity: 0.8; stroke: #1a1a1a; stroke-opacity: 0.8"/>
     <use xlink:href="#m22ce4b277a" x="103.05209" y="112.139422" style="fill: #1a1a1a; fill-opacity: 0.8; stroke: #1a1a1a; stroke-opacity: 0.8"/>
     <use xlink:href="#m22ce4b277a" x="102.050217" y="117.701557" style="fill: #1a1a1a; fill-opacity: 0.8; stroke: #1a1a1a; stroke-opacity: 0.8"/>
     <use xlink:href="#m22ce4b277a" x="117.143659" y="116.262546" style="fill: #1a1a1a; fill-opacity: 0.8; stroke: #1a1a1a; stroke-opacity: 0.8"/>
     <use xlink:href="#m22ce4b277a" x="55.0275" y="155.179165" style="fill: #1a1a1a; fill-opacity: 0.8; stroke: #1a1a1a; stroke-opacity: 0.8"/>
     <use xlink:href="#m22ce4b277a" x="55.0275" y="156.114911" style="fill: #1a1a1a; fill-opacity: 0.8; stroke: #1a1a1a; stroke-opacity: 0.8"/>
     <use xlink:href="#m22ce4b277a" x="73.170123" y="152.800898" style="fill: #1a1a1a; fill-opacity: 0.8; stroke: #1a1a1a; stroke-opacity: 0.8"/>
     <use xlink:href="#m22ce4b277a" x="55.0275" y="149.244367" style="fill: #1a1a1a; fill-opacity: 0.8; stroke: #1a1a1a; stroke-opacity: 0.8"/>
     <use xlink:href="#m22ce4b277a" x="55.0275" y="162.596085" style="fill: #1a1a1a; fill-opacity: 0.8; stroke: #1a1a1a; stroke-opacity: 0.8"/>
     <use xlink:href="#m22ce4b277a" x="59.318132" y="155.519947" style="fill: #1a1a1a; fill-opacity: 0.8; stroke: #1a1a1a; stroke-opacity: 0.8"/>
     <use xlink:href="#m22ce4b277a" x="55.0275" y="162.771683" style="fill: #1a1a1a; fill-opacity: 0.8; stroke: #1a1a1a; stroke-opacity: 0.8"/>
     <use xlink:href="#m22ce4b277a" x="59.318132" y="143.330864" style="fill: #1a1a1a; fill-opacity: 0.8; stroke: #1a1a1a; stroke-opacity: 0.8"/>
     <use xlink:href="#m22ce4b277a" x="55.0275" y="160.015604" style="fill: #1a1a1a; fill-opacity: 0.8; stroke: #1a1a1a; stroke-opacity: 0.8"/>
     <use xlink:href="#m22ce4b277a" x="55.0275" y="153.309308" style="fill: #1a1a1a; fill-opacity: 0.8; stroke: #1a1a1a; stroke-opacity: 0.8"/>
     <use xlink:href="#m22ce4b277a" x="55.0275" y="150.792049" style="fill: #1a1a1a; fill-opacity: 0.8; stroke: #1a1a1a; stroke-opacity: 0.8"/>
     <use xlink:href="#m22ce4b277a" x="55.0275" y="152.87646" style="fill: #1a1a1a; fill-opacity: 0.8; stroke: #1a1a1a; stroke-opacity: 0.8"/>
     <use xlink:href="#m22ce4b277a" x="63.695884" y="132.990618" style="fill: #1a1a1a; fill-opacity: 0.8; stroke: #1a1a1a; stroke-opacity: 0.8"/>
     <use xlink:href="#m22ce4b277a" x="131.714385" y="105.85326" style="fill: #1a1a1a; fill-opacity: 0.8; stroke: #1a1a1a; stroke-opacity: 0.8"/>
     <use xlink:href="#m22ce4b277a" x="56.748109" y="158.482718" style="fill: #1a1a1a; fill-opacity: 0.8; stroke: #1a1a1a; stroke-opacity: 0.8"/>
     <use xlink:href="#m22ce4b277a" x="88.263566" y="133.513591" style="fill: #1a1a1a; fill-opacity: 0.8; stroke: #1a1a1a; stroke-opacity: 0.8"/>
     <use xlink:href="#m22ce4b277a" x="68.94483" y="101.524676" style="fill: #1a1a1a; fill-opacity: 0.8; stroke: #1a1a1a; stroke-opacity: 0.8"/>
     <use xlink:href="#m22ce4b277a" x="80.684174" y="119.365643" style="fill: #1a1a1a; fill-opacity: 0.8; stroke: #1a1a1a; stroke-opacity: 0.8"/>
     <use xlink:href="#m22ce4b277a" x="56.748109" y="159.997453" style="fill: #1a1a1a; fill-opacity: 0.8; stroke: #1a1a1a; stroke-opacity: 0.8"/>
     <use xlink:href="#m22ce4b277a" x="107.71298" y="89.936379" style="fill: #1a1a1a; fill-opacity: 0.8; stroke: #1a1a1a; stroke-opacity: 0.8"/>
     <use xlink:href="#m22ce4b277a" x="107.974338" y="94.555391" style="fill: #1a1a1a; fill-opacity: 0.8; stroke: #1a1a1a; stroke-opacity: 0.8"/>
     <use xlink:href="#m22ce4b277a" x="101.353261" y="82.73456" style="fill: #1a1a1a; fill-opacity: 0.8; stroke: #1a1a1a; stroke-opacity: 0.8"/>
     <use xlink:href="#m22ce4b277a" x="116.446704" y="85.99975" style="fill: #1a1a1a; fill-opacity: 0.8; stroke: #1a1a1a; stroke-opacity: 0.8"/>
     <use xlink:href="#m22ce4b277a" x="162.03195" y="63.086821" style="fill: #1a1a1a; fill-opacity: 0.8; stroke: #1a1a1a; stroke-opacity: 0.8"/>
     <use xlink:href="#m22ce4b277a" x="174.533589" y="84.657163" style="fill: #1a1a1a; fill-opacity: 0.8; stroke: #1a1a1a; stroke-opacity: 0.8"/>
     <use xlink:href="#m22ce4b277a" x="183.267313" y="62.63779" style="fill: #1a1a1a; fill-opacity: 0.8; stroke: #1a1a1a; stroke-opacity: 0.8"/>
     <use xlink:href="#m22ce4b277a" x="172.747641" y="91.941043" style="fill: #1a1a1a; fill-opacity: 0.8; stroke: #1a1a1a; stroke-opacity: 0.8"/>
     <use xlink:href="#m22ce4b277a" x="181.677383" y="93.662064" style="fill: #1a1a1a; fill-opacity: 0.8; stroke: #1a1a1a; stroke-opacity: 0.8"/>
     <use xlink:href="#m22ce4b277a" x="151.642957" y="83.056079" style="fill: #1a1a1a; fill-opacity: 0.8; stroke: #1a1a1a; stroke-opacity: 0.8"/>
     <use xlink:href="#m22ce4b277a" x="116.272465" y="129.130409" style="fill: #1a1a1a; fill-opacity: 0.8; stroke: #1a1a1a; stroke-opacity: 0.8"/>
     <use xlink:href="#m22ce4b277a" x="125.289327" y="149.306078" style="fill: #1a1a1a; fill-opacity: 0.8; stroke: #1a1a1a; stroke-opacity: 0.8"/>
     <use xlink:href="#m22ce4b277a" x="97.106189" y="72.779432" style="fill: #1a1a1a; fill-opacity: 0.8; stroke: #1a1a1a; stroke-opacity: 0.8"/>
     <use xlink:href="#m22ce4b277a" x="74.411575" y="96.126696" style="fill: #1a1a1a; fill-opacity: 0.8; stroke: #1a1a1a; stroke-opacity: 0.8"/>
     <use xlink:href="#m22ce4b277a" x="90.70291" y="117.139669" style="fill: #1a1a1a; fill-opacity: 0.8; stroke: #1a1a1a; stroke-opacity: 0.8"/>
     <use xlink:href="#m22ce4b277a" x="130.472933" y="138.763264" style="fill: #1a1a1a; fill-opacity: 0.8; stroke: #1a1a1a; stroke-opacity: 0.8"/>
     <use xlink:href="#m22ce4b277a" x="143.170591" y="78.957255" style="fill: #1a1a1a; fill-opacity: 0.8; stroke: #1a1a1a; stroke-opacity: 0.8"/>
     <use xlink:href="#m22ce4b277a" x="182.853495" y="54.831597" style="fill: #1a1a1a; fill-opacity: 0.8; stroke: #1a1a1a; stroke-opacity: 0.8"/>
     <use xlink:href="#m22ce4b277a" x="153.167547" y="93.80392" style="fill: #1a1a1a; fill-opacity: 0.8; stroke: #1a1a1a; stroke-opacity: 0.8"/>
     <use xlink:href="#m22ce4b277a" x="55.0275" y="163.062977" style="fill: #1a1a1a; fill-opacity: 0.8; stroke: #1a1a1a; stroke-opacity: 0.8"/>
     <use xlink:href="#m22ce4b277a" x="55.0275" y="159.016691" style="fill: #1a1a1a; fill-opacity: 0.8; stroke: #1a1a1a; stroke-opacity: 0.8"/>
     <use xlink:href="#m22ce4b277a" x="55.0275" y="156.920627" style="fill: #1a1a1a; fill-opacity: 0.8; stroke: #1a1a1a; stroke-opacity: 0.8"/>
     <use xlink:href="#m22ce4b277a" x="55.0275" y="160.746665" style="fill: #1a1a1a; fill-opacity: 0.8; stroke: #1a1a1a; stroke-opacity: 0.8"/>
     <use xlink:href="#m22ce4b277a" x="55.0275" y="162.333296" style="fill: #1a1a1a; fill-opacity: 0.8; stroke: #1a1a1a; stroke-opacity: 0.8"/>
     <use xlink:href="#m22ce4b277a" x="56.748109" y="159.551379" style="fill: #1a1a1a; fill-opacity: 0.8; stroke: #1a1a1a; stroke-opacity: 0.8"/>
     <use xlink:href="#m22ce4b277a" x="55.0275" y="157.028113" style="fill: #1a1a1a; fill-opacity: 0.8; stroke: #1a1a1a; stroke-opacity: 0.8"/>
     <use xlink:href="#m22ce4b277a" x="55.0275" y="163.141061" style="fill: #1a1a1a; fill-opacity: 0.8; stroke: #1a1a1a; stroke-opacity: 0.8"/>
     <use xlink:href="#m22ce4b277a" x="74.411575" y="152.224349" style="fill: #1a1a1a; fill-opacity: 0.8; stroke: #1a1a1a; stroke-opacity: 0.8"/>
     <use xlink:href="#m22ce4b277a" x="55.0275" y="157.417998" style="fill: #1a1a1a; fill-opacity: 0.8; stroke: #1a1a1a; stroke-opacity: 0.8"/>
     <use xlink:href="#m22ce4b277a" x="55.0275" y="159.572257" style="fill: #1a1a1a; fill-opacity: 0.8; stroke: #1a1a1a; stroke-opacity: 0.8"/>
     <use xlink:href="#m22ce4b277a" x="81.577149" y="155.133901" style="fill: #1a1a1a; fill-opacity: 0.8; stroke: #1a1a1a; stroke-opacity: 0.8"/>
     <use xlink:href="#m22ce4b277a" x="55.0275" y="158.515554" style="fill: #1a1a1a; fill-opacity: 0.8; stroke: #1a1a1a; stroke-opacity: 0.8"/>
     <use xlink:href="#m22ce4b277a" x="122.675744" y="149.584139" style="fill: #1a1a1a; fill-opacity: 0.8; stroke: #1a1a1a; stroke-opacity: 0.8"/>
     <use xlink:href="#m22ce4b277a" x="73.170123" y="128.586102" style="fill: #1a1a1a; fill-opacity: 0.8; stroke: #1a1a1a; stroke-opacity: 0.8"/>
     <use xlink:href="#m22ce4b277a" x="126.857477" y="107.986338" style="fill: #1a1a1a; fill-opacity: 0.8; stroke: #1a1a1a; stroke-opacity: 0.8"/>
     <use xlink:href="#m22ce4b277a" x="67.333121" y="121.938174" style="fill: #1a1a1a; fill-opacity: 0.8; stroke: #1a1a1a; stroke-opacity: 0.8"/>
     <use xlink:href="#m22ce4b277a" x="99.523753" y="138.14544" style="fill: #1a1a1a; fill-opacity: 0.8; stroke: #1a1a1a; stroke-opacity: 0.8"/>
     <use xlink:href="#m22ce4b277a" x="80.684174" y="113.005672" style="fill: #1a1a1a; fill-opacity: 0.8; stroke: #1a1a1a; stroke-opacity: 0.8"/>
     <use xlink:href="#m22ce4b277a" x="120.606657" y="108.962812" style="fill: #1a1a1a; fill-opacity: 0.8; stroke: #1a1a1a; stroke-opacity: 0.8"/>
     <use xlink:href="#m22ce4b277a" x="139.968952" y="80.346899" style="fill: #1a1a1a; fill-opacity: 0.8; stroke: #1a1a1a; stroke-opacity: 0.8"/>
     <use xlink:href="#m22ce4b277a" x="148.288858" y="73.515718" style="fill: #1a1a1a; fill-opacity: 0.8; stroke: #1a1a1a; stroke-opacity: 0.8"/>
     <use xlink:href="#m22ce4b277a" x="167.324456" y="66.548714" style="fill: #1a1a1a; fill-opacity: 0.8; stroke: #1a1a1a; stroke-opacity: 0.8"/>
     <use xlink:href="#m22ce4b277a" x="85.541083" y="116.660134" style="fill: #1a1a1a; fill-opacity: 0.8; stroke: #1a1a1a; stroke-opacity: 0.8"/>
     <use xlink:href="#m22ce4b277a" x="84.038273" y="130.683704" style="fill: #1a1a1a; fill-opacity: 0.8; stroke: #1a1a1a; stroke-opacity: 0.8"/>
     <use xlink:href="#m22ce4b277a" x="92.880896" y="116.311173" style="fill: #1a1a1a; fill-opacity: 0.8; stroke: #1a1a1a; stroke-opacity: 0.8"/>
     <use xlink:href="#m22ce4b277a" x="125.049748" y="98.559573" style="fill: #1a1a1a; fill-opacity: 0.8; stroke: #1a1a1a; stroke-opacity: 0.8"/>
     <use xlink:href="#m22ce4b277a" x="67.333121" y="141.097971" style="fill: #1a1a1a; fill-opacity: 0.8; stroke: #1a1a1a; stroke-opacity: 0.8"/>
     <use xlink:href="#m22ce4b277a" x="163.948577" y="114.572996" style="fill: #1a1a1a; fill-opacity: 0.8; stroke: #1a1a1a; stroke-opacity: 0.8"/>
     <use xlink:href="#m22ce4b277a" x="162.097289" y="90.03069" style="fill: #1a1a1a; fill-opacity: 0.8; stroke: #1a1a1a; stroke-opacity: 0.8"/>
     <use xlink:href="#m22ce4b277a" x="56.748109" y="131.745336" style="fill: #1a1a1a; fill-opacity: 0.8; stroke: #1a1a1a; stroke-opacity: 0.8"/>
     <use xlink:href="#m22ce4b277a" x="160.855837" y="79.487632" style="fill: #1a1a1a; fill-opacity: 0.8; stroke: #1a1a1a; stroke-opacity: 0.8"/>
     <use xlink:href="#m22ce4b277a" x="113.637102" y="97.751352" style="fill: #1a1a1a; fill-opacity: 0.8; stroke: #1a1a1a; stroke-opacity: 0.8"/>
     <use xlink:href="#m22ce4b277a" x="136.418835" y="76.318729" style="fill: #1a1a1a; fill-opacity: 0.8; stroke: #1a1a1a; stroke-opacity: 0.8"/>
     <use xlink:href="#m22ce4b277a" x="127.184174" y="72.957992" style="fill: #1a1a1a; fill-opacity: 0.8; stroke: #1a1a1a; stroke-opacity: 0.8"/>
     <use xlink:href="#m22ce4b277a" x="130.560053" y="85.284597" style="fill: #1a1a1a; fill-opacity: 0.8; stroke: #1a1a1a; stroke-opacity: 0.8"/>
     <use xlink:href="#m22ce4b277a" x="55.0275" y="158.738426" style="fill: #1a1a1a; fill-opacity: 0.8; stroke: #1a1a1a; stroke-opacity: 0.8"/>
     <use xlink:href="#m22ce4b277a" x="68.94483" y="153.427058" style="fill: #1a1a1a; fill-opacity: 0.8; stroke: #1a1a1a; stroke-opacity: 0.8"/>
     <use xlink:href="#m22ce4b277a" x="68.94483" y="150.414775" style="fill: #1a1a1a; fill-opacity: 0.8; stroke: #1a1a1a; stroke-opacity: 0.8"/>
     <use xlink:href="#m22ce4b277a" x="84.038273" y="163.745254" style="fill: #1a1a1a; fill-opacity: 0.8; stroke: #1a1a1a; stroke-opacity: 0.8"/>
     <use xlink:href="#m22ce4b277a" x="99.523753" y="140.217181" style="fill: #1a1a1a; fill-opacity: 0.8; stroke: #1a1a1a; stroke-opacity: 0.8"/>
     <use xlink:href="#m22ce4b277a" x="73.170123" y="159.651686" style="fill: #1a1a1a; fill-opacity: 0.8; stroke: #1a1a1a; stroke-opacity: 0.8"/>
     <use xlink:href="#m22ce4b277a" x="149.835228" y="136.0446" style="fill: #1a1a1a; fill-opacity: 0.8; stroke: #1a1a1a; stroke-opacity: 0.8"/>
     <use xlink:href="#m22ce4b277a" x="76.72024" y="138.018839" style="fill: #1a1a1a; fill-opacity: 0.8; stroke: #1a1a1a; stroke-opacity: 0.8"/>
     <use xlink:href="#m22ce4b277a" x="86.259819" y="120.2679" style="fill: #1a1a1a; fill-opacity: 0.8; stroke: #1a1a1a; stroke-opacity: 0.8"/>
     <use xlink:href="#m22ce4b277a" x="67.333121" y="161.473588" style="fill: #1a1a1a; fill-opacity: 0.8; stroke: #1a1a1a; stroke-opacity: 0.8"/>
     <use xlink:href="#m22ce4b277a" x="103.05209" y="97.519173" style="fill: #1a1a1a; fill-opacity: 0.8; stroke: #1a1a1a; stroke-opacity: 0.8"/>
     <use xlink:href="#m22ce4b277a" x="109.956306" y="98.425112" style="fill: #1a1a1a; fill-opacity: 0.8; stroke: #1a1a1a; stroke-opacity: 0.8"/>
     <use xlink:href="#m22ce4b277a" x="55.0275" y="159.014932" style="fill: #1a1a1a; fill-opacity: 0.8; stroke: #1a1a1a; stroke-opacity: 0.8"/>
     <use xlink:href="#m22ce4b277a" x="55.0275" y="157.538801" style="fill: #1a1a1a; fill-opacity: 0.8; stroke: #1a1a1a; stroke-opacity: 0.8"/>
     <use xlink:href="#m22ce4b277a" x="143.540849" y="68.363575" style="fill: #1a1a1a; fill-opacity: 0.8; stroke: #1a1a1a; stroke-opacity: 0.8"/>
     <use xlink:href="#m22ce4b277a" x="68.94483" y="108.83258" style="fill: #1a1a1a; fill-opacity: 0.8; stroke: #1a1a1a; stroke-opacity: 0.8"/>
     <use xlink:href="#m22ce4b277a" x="80.684174" y="109.445188" style="fill: #1a1a1a; fill-opacity: 0.8; stroke: #1a1a1a; stroke-opacity: 0.8"/>
     <use xlink:href="#m22ce4b277a" x="92.880896" y="134.574035" style="fill: #1a1a1a; fill-opacity: 0.8; stroke: #1a1a1a; stroke-opacity: 0.8"/>
     <use xlink:href="#m22ce4b277a" x="88.895181" y="118.053413" style="fill: #1a1a1a; fill-opacity: 0.8; stroke: #1a1a1a; stroke-opacity: 0.8"/>
     <use xlink:href="#m22ce4b277a" x="89.526797" y="143.971213" style="fill: #1a1a1a; fill-opacity: 0.8; stroke: #1a1a1a; stroke-opacity: 0.8"/>
     <use xlink:href="#m22ce4b277a" x="91.269186" y="113.35496" style="fill: #1a1a1a; fill-opacity: 0.8; stroke: #1a1a1a; stroke-opacity: 0.8"/>
     <use xlink:href="#m22ce4b277a" x="86.956774" y="130.342155" style="fill: #1a1a1a; fill-opacity: 0.8; stroke: #1a1a1a; stroke-opacity: 0.8"/>
     <use xlink:href="#m22ce4b277a" x="84.800568" y="130.162698" style="fill: #1a1a1a; fill-opacity: 0.8; stroke: #1a1a1a; stroke-opacity: 0.8"/>
     <use xlink:href="#m22ce4b277a" x="120.606657" y="102.458236" style="fill: #1a1a1a; fill-opacity: 0.8; stroke: #1a1a1a; stroke-opacity: 0.8"/>
     <use xlink:href="#m22ce4b277a" x="113.637102" y="85.368248" style="fill: #1a1a1a; fill-opacity: 0.8; stroke: #1a1a1a; stroke-opacity: 0.8"/>
     <use xlink:href="#m22ce4b277a" x="59.318132" y="133.061322" style="fill: #1a1a1a; fill-opacity: 0.8; stroke: #1a1a1a; stroke-opacity: 0.8"/>
     <use xlink:href="#m22ce4b277a" x="74.411575" y="109.077159" style="fill: #1a1a1a; fill-opacity: 0.8; stroke: #1a1a1a; stroke-opacity: 0.8"/>
     <use xlink:href="#m22ce4b277a" x="67.333121" y="128.309434" style="fill: #1a1a1a; fill-opacity: 0.8; stroke: #1a1a1a; stroke-opacity: 0.8"/>
     <use xlink:href="#m22ce4b277a" x="118.929608" y="91.714182" style="fill: #1a1a1a; fill-opacity: 0.8; stroke: #1a1a1a; stroke-opacity: 0.8"/>
     <use xlink:href="#m22ce4b277a" x="97.933823" y="116.71952" style="fill: #1a1a1a; fill-opacity: 0.8; stroke: #1a1a1a; stroke-opacity: 0.8"/>
     <use xlink:href="#m22ce4b277a" x="164.710872" y="99.940669" style="fill: #1a1a1a; fill-opacity: 0.8; stroke: #1a1a1a; stroke-opacity: 0.8"/>
     <use xlink:href="#m22ce4b277a" x="99.131715" y="101.390117" style="fill: #1a1a1a; fill-opacity: 0.8; stroke: #1a1a1a; stroke-opacity: 0.8"/>
     <use xlink:href="#m22ce4b277a" x="55.0275" y="166.791211" style="fill: #1a1a1a; fill-opacity: 0.8; stroke: #1a1a1a; stroke-opacity: 0.8"/>
     <use xlink:href="#m22ce4b277a" x="61.626797" y="152.423931" style="fill: #1a1a1a; fill-opacity: 0.8; stroke: #1a1a1a; stroke-opacity: 0.8"/>
     <use xlink:href="#m22ce4b277a" x="70.447641" y="155.495238" style="fill: #1a1a1a; fill-opacity: 0.8; stroke: #1a1a1a; stroke-opacity: 0.8"/>
     <use xlink:href="#m22ce4b277a" x="56.748109" y="160.896095" style="fill: #1a1a1a; fill-opacity: 0.8; stroke: #1a1a1a; stroke-opacity: 0.8"/>
     <use xlink:href="#m22ce4b277a" x="55.0275" y="159.708433" style="fill: #1a1a1a; fill-opacity: 0.8; stroke: #1a1a1a; stroke-opacity: 0.8"/>
     <use xlink:href="#m22ce4b277a" x="65.590732" y="153.215382" style="fill: #1a1a1a; fill-opacity: 0.8; stroke: #1a1a1a; stroke-opacity: 0.8"/>
     <use xlink:href="#m22ce4b277a" x="61.626797" y="164.120132" style="fill: #1a1a1a; fill-opacity: 0.8; stroke: #1a1a1a; stroke-opacity: 0.8"/>
     <use xlink:href="#m22ce4b277a" x="55.0275" y="167.62433" style="fill: #1a1a1a; fill-opacity: 0.8; stroke: #1a1a1a; stroke-opacity: 0.8"/>
     <use xlink:href="#m22ce4b277a" x="55.0275" y="146.423257" style="fill: #1a1a1a; fill-opacity: 0.8; stroke: #1a1a1a; stroke-opacity: 0.8"/>
     <use xlink:href="#m22ce4b277a" x="55.0275" y="158.40806" style="fill: #1a1a1a; fill-opacity: 0.8; stroke: #1a1a1a; stroke-opacity: 0.8"/>
     <use xlink:href="#m22ce4b277a" x="70.447641" y="152.947983" style="fill: #1a1a1a; fill-opacity: 0.8; stroke: #1a1a1a; stroke-opacity: 0.8"/>
     <use xlink:href="#m22ce4b277a" x="55.0275" y="138.980396" style="fill: #1a1a1a; fill-opacity: 0.8; stroke: #1a1a1a; stroke-opacity: 0.8"/>
     <use xlink:href="#m22ce4b277a" x="59.318132" y="139.059338" style="fill: #1a1a1a; fill-opacity: 0.8; stroke: #1a1a1a; stroke-opacity: 0.8"/>
     <use xlink:href="#m22ce4b277a" x="102.050217" y="138.067073" style="fill: #1a1a1a; fill-opacity: 0.8; stroke: #1a1a1a; stroke-opacity: 0.8"/>
     <use xlink:href="#m22ce4b277a" x="114.050919" y="147.144943" style="fill: #1a1a1a; fill-opacity: 0.8; stroke: #1a1a1a; stroke-opacity: 0.8"/>
    </g>
   </g>
   <g id="PolyCollection_1">
    <defs>
     <path id="m000adc4fc9" d="M 55.0275 -57.375776 
L 55.0275 -50.850346 
L 56.322852 -51.741269 
L 57.618203 -52.611312 
L 58.913555 -53.516563 
L 60.208907 -54.394722 
L 61.504258 -55.309641 
L 62.79961 -56.187594 
L 64.094962 -57.100827 
L 65.390313 -57.969738 
L 66.685665 -58.82923 
L 67.981016 -59.766398 
L 69.276368 -60.659253 
L 70.57172 -61.560974 
L 71.867071 -62.437813 
L 73.162423 -63.273711 
L 74.457775 -64.097743 
L 75.753126 -64.926159 
L 77.048478 -65.808913 
L 78.34383 -66.665963 
L 79.639181 -67.542877 
L 80.934533 -68.397095 
L 82.229885 -69.233542 
L 83.525236 -70.081927 
L 84.820588 -70.887042 
L 86.115939 -71.710091 
L 87.411291 -72.564744 
L 88.706643 -73.368956 
L 90.001994 -74.204169 
L 91.297346 -75.026004 
L 92.592698 -75.898108 
L 93.888049 -76.677316 
L 95.183401 -77.520046 
L 96.478753 -78.352234 
L 97.774104 -79.168376 
L 99.069456 -79.959185 
L 100.364808 -80.803024 
L 101.660159 -81.639051 
L 102.955511 -82.44759 
L 104.250862 -83.24105 
L 105.546214 -84.023814 
L 106.841566 -84.826311 
L 108.136917 -85.619218 
L 109.432269 -86.411497 
L 110.727621 -87.181942 
L 112.022972 -87.975812 
L 113.318324 -88.782635 
L 114.613676 -89.571263 
L 115.909027 -90.312668 
L 117.204379 -91.148409 
L 118.499731 -91.934019 
L 119.795082 -92.719628 
L 121.090434 -93.505238 
L 122.385785 -94.290847 
L 123.681137 -95.076456 
L 124.976489 -95.862066 
L 126.27184 -96.6494 
L 127.567192 -97.436775 
L 128.862544 -98.226666 
L 130.157895 -99.064816 
L 131.453247 -99.811644 
L 132.748599 -100.581149 
L 134.04395 -101.366204 
L 135.339302 -102.152657 
L 136.634654 -102.93911 
L 137.930005 -103.735801 
L 139.225357 -104.543772 
L 140.520708 -105.296554 
L 141.81606 -106.080591 
L 143.111412 -106.864968 
L 144.406763 -107.601394 
L 145.702115 -108.333097 
L 146.997467 -109.083664 
L 148.292818 -109.872263 
L 149.58817 -110.662583 
L 150.883522 -111.453032 
L 152.178873 -112.24348 
L 153.474225 -113.033929 
L 154.769577 -113.824377 
L 156.064928 -114.608852 
L 157.36028 -115.371467 
L 158.655631 -116.134082 
L 159.950983 -116.896791 
L 161.246335 -117.660738 
L 162.541686 -118.424684 
L 163.837038 -119.18863 
L 165.13239 -119.948491 
L 166.427741 -120.715311 
L 167.723093 -121.478215 
L 169.018445 -122.24215 
L 170.313796 -123.006085 
L 171.609148 -123.793131 
L 172.9045 -124.581031 
L 174.199851 -125.368197 
L 175.495203 -126.155363 
L 176.790554 -126.942542 
L 178.085906 -127.730035 
L 179.381258 -128.504288 
L 180.676609 -129.26806 
L 181.971961 -130.031831 
L 183.267313 -130.795602 
L 183.267313 -147.199366 
L 183.267313 -147.199366 
L 181.971961 -146.253207 
L 180.676609 -145.30681 
L 179.381258 -144.354415 
L 178.085906 -143.39698 
L 176.790554 -142.439546 
L 175.495203 -141.482112 
L 174.199851 -140.524677 
L 172.9045 -139.567243 
L 171.609148 -138.609809 
L 170.313796 -137.652374 
L 169.018445 -136.69494 
L 167.723093 -135.737506 
L 166.427741 -134.780071 
L 165.13239 -133.822241 
L 163.837038 -132.864133 
L 162.541686 -131.906026 
L 161.246335 -130.947919 
L 159.950983 -129.989811 
L 158.655631 -129.031704 
L 157.36028 -128.073874 
L 156.064928 -127.122952 
L 154.769577 -126.16365 
L 153.474225 -125.222498 
L 152.178873 -124.272683 
L 150.883522 -123.322867 
L 149.58817 -122.373052 
L 148.292818 -121.423236 
L 146.997467 -120.473421 
L 145.702115 -119.527899 
L 144.406763 -118.600089 
L 143.111412 -117.672279 
L 141.81606 -116.743628 
L 140.520708 -115.814877 
L 139.225357 -114.886126 
L 137.930005 -113.946885 
L 136.634654 -113.027458 
L 135.339302 -112.100603 
L 134.04395 -111.162752 
L 132.748599 -110.223281 
L 131.453247 -109.318735 
L 130.157895 -108.348519 
L 128.862544 -107.392558 
L 127.567192 -106.44561 
L 126.27184 -105.514641 
L 124.976489 -104.583791 
L 123.681137 -103.66274 
L 122.385785 -102.720393 
L 121.090434 -101.783049 
L 119.795082 -100.837186 
L 118.499731 -99.891376 
L 117.204379 -98.945217 
L 115.909027 -97.999057 
L 114.613676 -97.086331 
L 113.318324 -96.146882 
L 112.022972 -95.249414 
L 110.727621 -94.326771 
L 109.432269 -93.410369 
L 108.136917 -92.478848 
L 106.841566 -91.566813 
L 105.546214 -90.651403 
L 104.250862 -89.735992 
L 102.955511 -88.819598 
L 101.660159 -87.904 
L 100.364808 -86.961122 
L 99.069456 -86.007862 
L 97.774104 -85.09249 
L 96.478753 -84.210261 
L 95.183401 -83.324949 
L 93.888049 -82.438256 
L 92.592698 -81.568743 
L 91.297346 -80.650927 
L 90.001994 -79.782884 
L 88.706643 -78.905893 
L 87.411291 -78.017158 
L 86.115939 -77.118177 
L 84.820588 -76.235919 
L 83.525236 -75.383443 
L 82.229885 -74.529544 
L 80.934533 -73.651806 
L 79.639181 -72.844181 
L 78.34383 -72.005319 
L 77.048478 -71.157781 
L 75.753126 -70.315113 
L 74.457775 -69.429457 
L 73.162423 -68.649158 
L 71.867071 -67.870304 
L 70.57172 -67.090518 
L 69.276368 -66.307119 
L 67.981016 -65.494032 
L 66.685665 -64.687169 
L 65.390313 -63.865699 
L 64.094962 -63.044034 
L 62.79961 -62.221626 
L 61.504258 -61.397389 
L 60.208907 -60.582468 
L 58.913555 -59.783463 
L 57.618203 -58.983657 
L 56.322852 -58.15529 
L 55.0275 -57.375776 
z
" style="stroke: #ffffff; stroke-opacity: 0.15"/>
    </defs>
    <g clip-path="url(#p29b6e50708)">
     <use xlink:href="#m000adc4fc9" x="0" y="205.331719" style="fill: #1a1a1a; fill-opacity: 0.15; stroke: #ffffff; stroke-opacity: 0.15"/>
    </g>
   </g>
   <g id="line2d_21">
    <path d="M 55.0275 151.317237 
L 56.322852 150.459697 
L 57.618203 149.602157 
L 58.913555 148.744616 
L 60.208907 147.887076 
L 61.504258 147.029535 
L 62.79961 146.171995 
L 64.094962 145.314455 
L 65.390313 144.456914 
L 66.685665 143.599374 
L 67.981016 142.741833 
L 69.276368 141.884293 
L 70.57172 141.026753 
L 71.867071 140.169212 
L 73.162423 139.311672 
L 74.457775 138.454131 
L 75.753126 137.596591 
L 77.048478 136.739051 
L 78.34383 135.88151 
L 79.639181 135.02397 
L 80.934533 134.166429 
L 82.229885 133.308889 
L 83.525236 132.451349 
L 84.820588 131.593808 
L 86.115939 130.736268 
L 87.411291 129.878728 
L 88.706643 129.021187 
L 90.001994 128.163647 
L 91.297346 127.306106 
L 92.592698 126.448566 
L 93.888049 125.591026 
L 95.183401 124.733485 
L 96.478753 123.875945 
L 97.774104 123.018404 
L 99.069456 122.160864 
L 100.364808 121.303324 
L 101.660159 120.445783 
L 102.955511 119.588243 
L 104.250862 118.730702 
L 105.546214 117.873162 
L 106.841566 117.015622 
L 108.136917 116.158081 
L 109.432269 115.300541 
L 110.727621 114.443 
L 112.022972 113.58546 
L 113.318324 112.72792 
L 114.613676 111.870379 
L 115.909027 111.012839 
L 117.204379 110.155298 
L 118.499731 109.297758 
L 119.795082 108.440218 
L 121.090434 107.582677 
L 122.385785 106.725137 
L 123.681137 105.867596 
L 124.976489 105.010056 
L 126.27184 104.152516 
L 127.567192 103.294975 
L 128.862544 102.437435 
L 130.157895 101.579894 
L 131.453247 100.722354 
L 132.748599 99.864814 
L 134.04395 99.007273 
L 135.339302 98.149733 
L 136.634654 97.292192 
L 137.930005 96.434652 
L 139.225357 95.577112 
L 140.520708 94.719571 
L 141.81606 93.862031 
L 143.111412 93.00449 
L 144.406763 92.14695 
L 145.702115 91.28941 
L 146.997467 90.431869 
L 148.292818 89.574329 
L 149.58817 88.716789 
L 150.883522 87.859248 
L 152.178873 87.001708 
L 153.474225 86.144167 
L 154.769577 85.286627 
L 156.064928 84.429087 
L 157.36028 83.571546 
L 158.655631 82.714006 
L 159.950983 81.856465 
L 161.246335 80.998925 
L 162.541686 80.141385 
L 163.837038 79.283844 
L 165.13239 78.426304 
L 166.427741 77.568763 
L 167.723093 76.711223 
L 169.018445 75.853683 
L 170.313796 74.996142 
L 171.609148 74.138602 
L 172.9045 73.281061 
L 174.199851 72.423521 
L 175.495203 71.565981 
L 176.790554 70.70844 
L 178.085906 69.8509 
L 179.381258 68.993359 
L 180.676609 68.135819 
L 181.971961 67.278279 
L 183.267313 66.420738 
" clip-path="url(#p29b6e50708)" style="fill: none; stroke: #1a1a1a; stroke-width: 2.25; stroke-linecap: round"/>
   </g>
   <g id="patch_3">
    <path d="M 55.0275 162.536719 
L 55.0275 23.936719 
" style="fill: none; stroke: #000000; stroke-width: 1.25; stroke-linejoin: miter; stroke-linecap: square"/>
   </g>
   <g id="patch_4">
    <path d="M 194.5275 162.536719 
L 194.5275 23.936719 
" style="fill: none; stroke: #ffffff; stroke-width: 1.25; stroke-linejoin: miter; stroke-linecap: square"/>
   </g>
   <g id="patch_5">
    <path d="M 55.0275 162.536719 
L 194.5275 162.536719 
" style="fill: none; stroke: #000000; stroke-width: 1.25; stroke-linejoin: miter; stroke-linecap: square"/>
   </g>
   <g id="patch_6">
    <path d="M 55.0275 23.936719 
L 194.5275 23.936719 
" style="fill: none; stroke: #ffffff; stroke-width: 1.25; stroke-linejoin: miter; stroke-linecap: square"/>
   </g>
   <g id="text_13">
    <!-- Pearsons r = 0.81 -->
    <g style="fill: #262626" transform="translate(68.9775 37.796719) scale(0.12 -0.12)">
     <defs>
      <path id="ArialMT-3d" d="M 3381 2694 
L 356 2694 
L 356 3219 
L 3381 3219 
L 3381 2694 
z
M 3381 1303 
L 356 1303 
L 356 1828 
L 3381 1828 
L 3381 1303 
z
" transform="scale(0.015625)"/>
      <path id="ArialMT-38" d="M 1131 2484 
Q 781 2613 612 2850 
Q 444 3088 444 3419 
Q 444 3919 803 4259 
Q 1163 4600 1759 4600 
Q 2359 4600 2725 4251 
Q 3091 3903 3091 3403 
Q 3091 3084 2923 2848 
Q 2756 2613 2416 2484 
Q 2838 2347 3058 2040 
Q 3278 1734 3278 1309 
Q 3278 722 2862 322 
Q 2447 -78 1769 -78 
Q 1091 -78 675 323 
Q 259 725 259 1325 
Q 259 1772 486 2073 
Q 713 2375 1131 2484 
z
M 1019 3438 
Q 1019 3113 1228 2906 
Q 1438 2700 1772 2700 
Q 2097 2700 2305 2904 
Q 2513 3109 2513 3406 
Q 2513 3716 2298 3927 
Q 2084 4138 1766 4138 
Q 1444 4138 1231 3931 
Q 1019 3725 1019 3438 
z
M 838 1322 
Q 838 1081 952 856 
Q 1066 631 1291 507 
Q 1516 384 1775 384 
Q 2178 384 2440 643 
Q 2703 903 2703 1303 
Q 2703 1709 2433 1975 
Q 2163 2241 1756 2241 
Q 1359 2241 1098 1978 
Q 838 1716 838 1322 
z
" transform="scale(0.015625)"/>
     </defs>
     <use xlink:href="#ArialMT-50"/>
     <use xlink:href="#ArialMT-65" x="66.699219"/>
     <use xlink:href="#ArialMT-61" x="122.314453"/>
     <use xlink:href="#ArialMT-72" x="177.929688"/>
     <use xlink:href="#ArialMT-73" x="211.230469"/>
     <use xlink:href="#ArialMT-6f" x="261.230469"/>
     <use xlink:href="#ArialMT-6e" x="316.845703"/>
     <use xlink:href="#ArialMT-73" x="372.460938"/>
     <use xlink:href="#ArialMT-20" x="422.460938"/>
     <use xlink:href="#ArialMT-72" x="450.244141"/>
     <use xlink:href="#ArialMT-20" x="483.544922"/>
     <use xlink:href="#ArialMT-3d" x="511.328125"/>
     <use xlink:href="#ArialMT-20" x="569.726562"/>
     <use xlink:href="#ArialMT-30" x="597.509766"/>
     <use xlink:href="#ArialMT-2e" x="653.125"/>
     <use xlink:href="#ArialMT-38" x="680.908203"/>
     <use xlink:href="#ArialMT-31" x="736.523438"/>
    </g>
   </g>
   <g id="text_14">
    <!-- Spearmans r = 0.83 -->
    <g style="fill: #262626" transform="translate(68.9775 51.656719) scale(0.12 -0.12)">
     <defs>
      <path id="ArialMT-53" d="M 288 1472 
L 859 1522 
Q 900 1178 1048 958 
Q 1197 738 1509 602 
Q 1822 466 2213 466 
Q 2559 466 2825 569 
Q 3091 672 3220 851 
Q 3350 1031 3350 1244 
Q 3350 1459 3225 1620 
Q 3100 1781 2813 1891 
Q 2628 1963 1997 2114 
Q 1366 2266 1113 2400 
Q 784 2572 623 2826 
Q 463 3081 463 3397 
Q 463 3744 659 4045 
Q 856 4347 1234 4503 
Q 1613 4659 2075 4659 
Q 2584 4659 2973 4495 
Q 3363 4331 3572 4012 
Q 3781 3694 3797 3291 
L 3216 3247 
Q 3169 3681 2898 3903 
Q 2628 4125 2100 4125 
Q 1550 4125 1298 3923 
Q 1047 3722 1047 3438 
Q 1047 3191 1225 3031 
Q 1400 2872 2139 2705 
Q 2878 2538 3153 2413 
Q 3553 2228 3743 1945 
Q 3934 1663 3934 1294 
Q 3934 928 3725 604 
Q 3516 281 3123 101 
Q 2731 -78 2241 -78 
Q 1619 -78 1198 103 
Q 778 284 539 648 
Q 300 1013 288 1472 
z
" transform="scale(0.015625)"/>
      <path id="ArialMT-33" d="M 269 1209 
L 831 1284 
Q 928 806 1161 595 
Q 1394 384 1728 384 
Q 2125 384 2398 659 
Q 2672 934 2672 1341 
Q 2672 1728 2419 1979 
Q 2166 2231 1775 2231 
Q 1616 2231 1378 2169 
L 1441 2663 
Q 1497 2656 1531 2656 
Q 1891 2656 2178 2843 
Q 2466 3031 2466 3422 
Q 2466 3731 2256 3934 
Q 2047 4138 1716 4138 
Q 1388 4138 1169 3931 
Q 950 3725 888 3313 
L 325 3413 
Q 428 3978 793 4289 
Q 1159 4600 1703 4600 
Q 2078 4600 2393 4439 
Q 2709 4278 2876 4000 
Q 3044 3722 3044 3409 
Q 3044 3113 2884 2869 
Q 2725 2625 2413 2481 
Q 2819 2388 3044 2092 
Q 3269 1797 3269 1353 
Q 3269 753 2831 336 
Q 2394 -81 1725 -81 
Q 1122 -81 723 278 
Q 325 638 269 1209 
z
" transform="scale(0.015625)"/>
     </defs>
     <use xlink:href="#ArialMT-53"/>
     <use xlink:href="#ArialMT-70" x="66.699219"/>
     <use xlink:href="#ArialMT-65" x="122.314453"/>
     <use xlink:href="#ArialMT-61" x="177.929688"/>
     <use xlink:href="#ArialMT-72" x="233.544922"/>
     <use xlink:href="#ArialMT-6d" x="266.845703"/>
     <use xlink:href="#ArialMT-61" x="350.146484"/>
     <use xlink:href="#ArialMT-6e" x="405.761719"/>
     <use xlink:href="#ArialMT-73" x="461.376953"/>
     <use xlink:href="#ArialMT-20" x="511.376953"/>
     <use xlink:href="#ArialMT-72" x="539.160156"/>
     <use xlink:href="#ArialMT-20" x="572.460938"/>
     <use xlink:href="#ArialMT-3d" x="600.244141"/>
     <use xlink:href="#ArialMT-20" x="658.642578"/>
     <use xlink:href="#ArialMT-30" x="686.425781"/>
     <use xlink:href="#ArialMT-2e" x="742.041016"/>
     <use xlink:href="#ArialMT-38" x="769.824219"/>
     <use xlink:href="#ArialMT-33" x="825.439453"/>
    </g>
   </g>
   <g id="text_15">
    <!-- Hold-out Set Performance -->
    <g style="fill: #262626" transform="translate(32.269688 17.936719) scale(0.15 -0.15)">
     <defs>
      <path id="Arial-BoldMT-48" d="M 469 0 
L 469 4581 
L 1394 4581 
L 1394 2778 
L 3206 2778 
L 3206 4581 
L 4131 4581 
L 4131 0 
L 3206 0 
L 3206 2003 
L 1394 2003 
L 1394 0 
L 469 0 
z
" transform="scale(0.015625)"/>
      <path id="Arial-BoldMT-6f" d="M 256 1706 
Q 256 2144 472 2553 
Q 688 2963 1083 3178 
Q 1478 3394 1966 3394 
Q 2719 3394 3200 2905 
Q 3681 2416 3681 1669 
Q 3681 916 3195 420 
Q 2709 -75 1972 -75 
Q 1516 -75 1102 131 
Q 688 338 472 736 
Q 256 1134 256 1706 
z
M 1156 1659 
Q 1156 1166 1390 903 
Q 1625 641 1969 641 
Q 2313 641 2545 903 
Q 2778 1166 2778 1666 
Q 2778 2153 2545 2415 
Q 2313 2678 1969 2678 
Q 1625 2678 1390 2415 
Q 1156 2153 1156 1659 
z
" transform="scale(0.015625)"/>
      <path id="Arial-BoldMT-6c" d="M 459 0 
L 459 4581 
L 1338 4581 
L 1338 0 
L 459 0 
z
" transform="scale(0.015625)"/>
      <path id="Arial-BoldMT-64" d="M 3503 0 
L 2688 0 
L 2688 488 
Q 2484 203 2207 64 
Q 1931 -75 1650 -75 
Q 1078 -75 670 386 
Q 263 847 263 1672 
Q 263 2516 659 2955 
Q 1056 3394 1663 3394 
Q 2219 3394 2625 2931 
L 2625 4581 
L 3503 4581 
L 3503 0 
z
M 1159 1731 
Q 1159 1200 1306 963 
Q 1519 619 1900 619 
Q 2203 619 2415 876 
Q 2628 1134 2628 1647 
Q 2628 2219 2422 2470 
Q 2216 2722 1894 2722 
Q 1581 2722 1370 2473 
Q 1159 2225 1159 1731 
z
" transform="scale(0.015625)"/>
      <path id="Arial-BoldMT-2d" d="M 359 1222 
L 359 2100 
L 2084 2100 
L 2084 1222 
L 359 1222 
z
" transform="scale(0.015625)"/>
      <path id="Arial-BoldMT-75" d="M 2644 0 
L 2644 497 
Q 2463 231 2167 78 
Q 1872 -75 1544 -75 
Q 1209 -75 943 72 
Q 678 219 559 484 
Q 441 750 441 1219 
L 441 3319 
L 1319 3319 
L 1319 1794 
Q 1319 1094 1367 936 
Q 1416 778 1544 686 
Q 1672 594 1869 594 
Q 2094 594 2272 717 
Q 2450 841 2515 1023 
Q 2581 1206 2581 1919 
L 2581 3319 
L 3459 3319 
L 3459 0 
L 2644 0 
z
" transform="scale(0.015625)"/>
      <path id="Arial-BoldMT-74" d="M 1981 3319 
L 1981 2619 
L 1381 2619 
L 1381 1281 
Q 1381 875 1398 808 
Q 1416 741 1477 697 
Q 1538 653 1625 653 
Q 1747 653 1978 738 
L 2053 56 
Q 1747 -75 1359 -75 
Q 1122 -75 931 4 
Q 741 84 652 211 
Q 563 338 528 553 
Q 500 706 500 1172 
L 500 2619 
L 97 2619 
L 97 3319 
L 500 3319 
L 500 3978 
L 1381 4491 
L 1381 3319 
L 1981 3319 
z
" transform="scale(0.015625)"/>
      <path id="Arial-BoldMT-20" transform="scale(0.015625)"/>
      <path id="Arial-BoldMT-53" d="M 231 1491 
L 1131 1578 
Q 1213 1125 1461 912 
Q 1709 700 2131 700 
Q 2578 700 2804 889 
Q 3031 1078 3031 1331 
Q 3031 1494 2936 1608 
Q 2841 1722 2603 1806 
Q 2441 1863 1863 2006 
Q 1119 2191 819 2459 
Q 397 2838 397 3381 
Q 397 3731 595 4036 
Q 794 4341 1167 4500 
Q 1541 4659 2069 4659 
Q 2931 4659 3367 4281 
Q 3803 3903 3825 3272 
L 2900 3231 
Q 2841 3584 2645 3739 
Q 2450 3894 2059 3894 
Q 1656 3894 1428 3728 
Q 1281 3622 1281 3444 
Q 1281 3281 1419 3166 
Q 1594 3019 2269 2859 
Q 2944 2700 3267 2529 
Q 3591 2359 3773 2064 
Q 3956 1769 3956 1334 
Q 3956 941 3737 597 
Q 3519 253 3119 86 
Q 2719 -81 2122 -81 
Q 1253 -81 787 320 
Q 322 722 231 1491 
z
" transform="scale(0.015625)"/>
      <path id="Arial-BoldMT-65" d="M 2381 1056 
L 3256 909 
Q 3088 428 2723 176 
Q 2359 -75 1813 -75 
Q 947 -75 531 491 
Q 203 944 203 1634 
Q 203 2459 634 2926 
Q 1066 3394 1725 3394 
Q 2466 3394 2894 2905 
Q 3322 2416 3303 1406 
L 1103 1406 
Q 1113 1016 1316 798 
Q 1519 581 1822 581 
Q 2028 581 2168 693 
Q 2309 806 2381 1056 
z
M 2431 1944 
Q 2422 2325 2234 2523 
Q 2047 2722 1778 2722 
Q 1491 2722 1303 2513 
Q 1116 2303 1119 1944 
L 2431 1944 
z
" transform="scale(0.015625)"/>
      <path id="Arial-BoldMT-50" d="M 466 0 
L 466 4581 
L 1950 4581 
Q 2794 4581 3050 4513 
Q 3444 4409 3709 4064 
Q 3975 3719 3975 3172 
Q 3975 2750 3822 2462 
Q 3669 2175 3433 2011 
Q 3197 1847 2953 1794 
Q 2622 1728 1994 1728 
L 1391 1728 
L 1391 0 
L 466 0 
z
M 1391 3806 
L 1391 2506 
L 1897 2506 
Q 2444 2506 2628 2578 
Q 2813 2650 2917 2803 
Q 3022 2956 3022 3159 
Q 3022 3409 2875 3571 
Q 2728 3734 2503 3775 
Q 2338 3806 1838 3806 
L 1391 3806 
z
" transform="scale(0.015625)"/>
      <path id="Arial-BoldMT-72" d="M 1300 0 
L 422 0 
L 422 3319 
L 1238 3319 
L 1238 2847 
Q 1447 3181 1614 3287 
Q 1781 3394 1994 3394 
Q 2294 3394 2572 3228 
L 2300 2463 
Q 2078 2606 1888 2606 
Q 1703 2606 1575 2504 
Q 1447 2403 1373 2137 
Q 1300 1872 1300 1025 
L 1300 0 
z
" transform="scale(0.015625)"/>
      <path id="Arial-BoldMT-66" d="M 75 3319 
L 563 3319 
L 563 3569 
Q 563 3988 652 4194 
Q 741 4400 980 4529 
Q 1219 4659 1584 4659 
Q 1959 4659 2319 4547 
L 2200 3934 
Q 1991 3984 1797 3984 
Q 1606 3984 1523 3895 
Q 1441 3806 1441 3553 
L 1441 3319 
L 2097 3319 
L 2097 2628 
L 1441 2628 
L 1441 0 
L 563 0 
L 563 2628 
L 75 2628 
L 75 3319 
z
" transform="scale(0.015625)"/>
      <path id="Arial-BoldMT-6d" d="M 394 3319 
L 1203 3319 
L 1203 2866 
Q 1638 3394 2238 3394 
Q 2556 3394 2790 3262 
Q 3025 3131 3175 2866 
Q 3394 3131 3647 3262 
Q 3900 3394 4188 3394 
Q 4553 3394 4806 3245 
Q 5059 3097 5184 2809 
Q 5275 2597 5275 2122 
L 5275 0 
L 4397 0 
L 4397 1897 
Q 4397 2391 4306 2534 
Q 4184 2722 3931 2722 
Q 3747 2722 3584 2609 
Q 3422 2497 3350 2280 
Q 3278 2063 3278 1594 
L 3278 0 
L 2400 0 
L 2400 1819 
Q 2400 2303 2353 2443 
Q 2306 2584 2207 2653 
Q 2109 2722 1941 2722 
Q 1738 2722 1575 2612 
Q 1413 2503 1342 2297 
Q 1272 2091 1272 1613 
L 1272 0 
L 394 0 
L 394 3319 
z
" transform="scale(0.015625)"/>
      <path id="Arial-BoldMT-61" d="M 1116 2306 
L 319 2450 
Q 453 2931 781 3162 
Q 1109 3394 1756 3394 
Q 2344 3394 2631 3255 
Q 2919 3116 3036 2902 
Q 3153 2688 3153 2116 
L 3144 1091 
Q 3144 653 3186 445 
Q 3228 238 3344 0 
L 2475 0 
Q 2441 88 2391 259 
Q 2369 338 2359 363 
Q 2134 144 1878 34 
Q 1622 -75 1331 -75 
Q 819 -75 523 203 
Q 228 481 228 906 
Q 228 1188 362 1408 
Q 497 1628 739 1745 
Q 981 1863 1438 1950 
Q 2053 2066 2291 2166 
L 2291 2253 
Q 2291 2506 2166 2614 
Q 2041 2722 1694 2722 
Q 1459 2722 1328 2630 
Q 1197 2538 1116 2306 
z
M 2291 1594 
Q 2122 1538 1756 1459 
Q 1391 1381 1278 1306 
Q 1106 1184 1106 997 
Q 1106 813 1243 678 
Q 1381 544 1594 544 
Q 1831 544 2047 700 
Q 2206 819 2256 991 
Q 2291 1103 2291 1419 
L 2291 1594 
z
" transform="scale(0.015625)"/>
      <path id="Arial-BoldMT-6e" d="M 3478 0 
L 2600 0 
L 2600 1694 
Q 2600 2231 2544 2389 
Q 2488 2547 2361 2634 
Q 2234 2722 2056 2722 
Q 1828 2722 1647 2597 
Q 1466 2472 1398 2265 
Q 1331 2059 1331 1503 
L 1331 0 
L 453 0 
L 453 3319 
L 1269 3319 
L 1269 2831 
Q 1703 3394 2363 3394 
Q 2653 3394 2893 3289 
Q 3134 3184 3257 3021 
Q 3381 2859 3429 2653 
Q 3478 2447 3478 2063 
L 3478 0 
z
" transform="scale(0.015625)"/>
      <path id="Arial-BoldMT-63" d="M 3353 2338 
L 2488 2181 
Q 2444 2441 2289 2572 
Q 2134 2703 1888 2703 
Q 1559 2703 1364 2476 
Q 1169 2250 1169 1719 
Q 1169 1128 1367 884 
Q 1566 641 1900 641 
Q 2150 641 2309 783 
Q 2469 925 2534 1272 
L 3397 1125 
Q 3263 531 2881 228 
Q 2500 -75 1859 -75 
Q 1131 -75 698 384 
Q 266 844 266 1656 
Q 266 2478 700 2936 
Q 1134 3394 1875 3394 
Q 2481 3394 2839 3133 
Q 3197 2872 3353 2338 
z
" transform="scale(0.015625)"/>
     </defs>
     <use xlink:href="#Arial-BoldMT-48"/>
     <use xlink:href="#Arial-BoldMT-6f" x="72.216797"/>
     <use xlink:href="#Arial-BoldMT-6c" x="133.300781"/>
     <use xlink:href="#Arial-BoldMT-64" x="161.083984"/>
     <use xlink:href="#Arial-BoldMT-2d" x="222.167969"/>
     <use xlink:href="#Arial-BoldMT-6f" x="255.46875"/>
     <use xlink:href="#Arial-BoldMT-75" x="316.552734"/>
     <use xlink:href="#Arial-BoldMT-74" x="377.636719"/>
     <use xlink:href="#Arial-BoldMT-20" x="410.9375"/>
     <use xlink:href="#Arial-BoldMT-53" x="438.720703"/>
     <use xlink:href="#Arial-BoldMT-65" x="505.419922"/>
     <use xlink:href="#Arial-BoldMT-74" x="561.035156"/>
     <use xlink:href="#Arial-BoldMT-20" x="594.335938"/>
     <use xlink:href="#Arial-BoldMT-50" x="622.119141"/>
     <use xlink:href="#Arial-BoldMT-65" x="688.818359"/>
     <use xlink:href="#Arial-BoldMT-72" x="744.433594"/>
     <use xlink:href="#Arial-BoldMT-66" x="783.349609"/>
     <use xlink:href="#Arial-BoldMT-6f" x="816.650391"/>
     <use xlink:href="#Arial-BoldMT-72" x="877.734375"/>
     <use xlink:href="#Arial-BoldMT-6d" x="916.650391"/>
     <use xlink:href="#Arial-BoldMT-61" x="1005.566406"/>
     <use xlink:href="#Arial-BoldMT-6e" x="1061.181641"/>
     <use xlink:href="#Arial-BoldMT-63" x="1122.265625"/>
     <use xlink:href="#Arial-BoldMT-65" x="1177.880859"/>
    </g>
   </g>
  </g>
 </g>
 <defs>
  <clipPath id="p29b6e50708">
   <rect x="55.0275" y="23.936719" width="139.5" height="138.6"/>
  </clipPath>
 </defs>
</svg>
