<?xml version="1.0" encoding="utf-8" standalone="no"?>
<!DOCTYPE svg PUBLIC "-//W3C//DTD SVG 1.1//EN"
  "http://www.w3.org/Graphics/SVG/1.1/DTD/svg11.dtd">
<svg xmlns:xlink="http://www.w3.org/1999/xlink" width="423.142451pt" height="257.513028pt" viewBox="0 0 423.142451 257.513028" xmlns="http://www.w3.org/2000/svg" version="1.1">
 <metadata>
  <rdf:RDF xmlns:dc="http://purl.org/dc/elements/1.1/" xmlns:cc="http://creativecommons.org/ns#" xmlns:rdf="http://www.w3.org/1999/02/22-rdf-syntax-ns#">
   <cc:Work>
    <dc:type rdf:resource="http://purl.org/dc/dcmitype/StillImage"/>
    <dc:date>2024-03-01T01:13:28.729836</dc:date>
    <dc:format>image/svg+xml</dc:format>
    <dc:creator>
     <cc:Agent>
      <dc:title>Matplotlib v3.6.3, https://matplotlib.org/</dc:title>
     </cc:Agent>
    </dc:creator>
   </cc:Work>
  </rdf:RDF>
 </metadata>
 <defs>
  <style type="text/css">*{stroke-linejoin: round; stroke-linecap: butt}</style>
 </defs>
 <g id="figure_1">
  <g id="patch_1">
   <path d="M -0 257.513028 
L 423.142451 257.513028 
L 423.142451 0 
L -0 0 
L -0 257.513028 
z
" style="fill: none"/>
  </g>
  <g id="axes_1">
   <g id="patch_2">
    <path d="M 98.609482 229.692403 
L 377.609482 229.692403 
L 377.609482 7.932403 
L 98.609482 7.932403 
L 98.609482 229.692403 
z
" style="fill: none"/>
   </g>
   <g id="matplotlib.axis_1">
    <g id="xtick_1">
     <g id="line2d_1">
      <path d="M 102.836754 229.692403 
L 102.836754 7.932403 
" clip-path="url(#pb9b696a4f1)" style="fill: none; stroke: #000000; stroke-opacity: 0.8; stroke-linecap: round"/>
     </g>
     <g id="text_1">
      <!-- Feature -->
      <g style="fill: #262626" transform="translate(82.161129 247.781778) scale(0.12 -0.12)">
       <defs>
        <path id="ArialMT-46" d="M 525 0 
L 525 4581 
L 3616 4581 
L 3616 4041 
L 1131 4041 
L 1131 2622 
L 3281 2622 
L 3281 2081 
L 1131 2081 
L 1131 0 
L 525 0 
z
" transform="scale(0.015625)"/>
        <path id="ArialMT-65" d="M 2694 1069 
L 3275 997 
Q 3138 488 2766 206 
Q 2394 -75 1816 -75 
Q 1088 -75 661 373 
Q 234 822 234 1631 
Q 234 2469 665 2931 
Q 1097 3394 1784 3394 
Q 2450 3394 2872 2941 
Q 3294 2488 3294 1666 
Q 3294 1616 3291 1516 
L 816 1516 
Q 847 969 1125 678 
Q 1403 388 1819 388 
Q 2128 388 2347 550 
Q 2566 713 2694 1069 
z
M 847 1978 
L 2700 1978 
Q 2663 2397 2488 2606 
Q 2219 2931 1791 2931 
Q 1403 2931 1139 2672 
Q 875 2413 847 1978 
z
" transform="scale(0.015625)"/>
        <path id="ArialMT-61" d="M 2588 409 
Q 2275 144 1986 34 
Q 1697 -75 1366 -75 
Q 819 -75 525 192 
Q 231 459 231 875 
Q 231 1119 342 1320 
Q 453 1522 633 1644 
Q 813 1766 1038 1828 
Q 1203 1872 1538 1913 
Q 2219 1994 2541 2106 
Q 2544 2222 2544 2253 
Q 2544 2597 2384 2738 
Q 2169 2928 1744 2928 
Q 1347 2928 1158 2789 
Q 969 2650 878 2297 
L 328 2372 
Q 403 2725 575 2942 
Q 747 3159 1072 3276 
Q 1397 3394 1825 3394 
Q 2250 3394 2515 3294 
Q 2781 3194 2906 3042 
Q 3031 2891 3081 2659 
Q 3109 2516 3109 2141 
L 3109 1391 
Q 3109 606 3145 398 
Q 3181 191 3288 0 
L 2700 0 
Q 2613 175 2588 409 
z
M 2541 1666 
Q 2234 1541 1622 1453 
Q 1275 1403 1131 1340 
Q 988 1278 909 1158 
Q 831 1038 831 891 
Q 831 666 1001 516 
Q 1172 366 1500 366 
Q 1825 366 2078 508 
Q 2331 650 2450 897 
Q 2541 1088 2541 1459 
L 2541 1666 
z
" transform="scale(0.015625)"/>
        <path id="ArialMT-74" d="M 1650 503 
L 1731 6 
Q 1494 -44 1306 -44 
Q 1000 -44 831 53 
Q 663 150 594 308 
Q 525 466 525 972 
L 525 2881 
L 113 2881 
L 113 3319 
L 525 3319 
L 525 4141 
L 1084 4478 
L 1084 3319 
L 1650 3319 
L 1650 2881 
L 1084 2881 
L 1084 941 
Q 1084 700 1114 631 
Q 1144 563 1211 522 
Q 1278 481 1403 481 
Q 1497 481 1650 503 
z
" transform="scale(0.015625)"/>
        <path id="ArialMT-75" d="M 2597 0 
L 2597 488 
Q 2209 -75 1544 -75 
Q 1250 -75 995 37 
Q 741 150 617 320 
Q 494 491 444 738 
Q 409 903 409 1263 
L 409 3319 
L 972 3319 
L 972 1478 
Q 972 1038 1006 884 
Q 1059 663 1231 536 
Q 1403 409 1656 409 
Q 1909 409 2131 539 
Q 2353 669 2445 892 
Q 2538 1116 2538 1541 
L 2538 3319 
L 3100 3319 
L 3100 0 
L 2597 0 
z
" transform="scale(0.015625)"/>
        <path id="ArialMT-72" d="M 416 0 
L 416 3319 
L 922 3319 
L 922 2816 
Q 1116 3169 1280 3281 
Q 1444 3394 1641 3394 
Q 1925 3394 2219 3213 
L 2025 2691 
Q 1819 2813 1613 2813 
Q 1428 2813 1281 2702 
Q 1134 2591 1072 2394 
Q 978 2094 978 1738 
L 978 0 
L 416 0 
z
" transform="scale(0.015625)"/>
       </defs>
       <use xlink:href="#ArialMT-46"/>
       <use xlink:href="#ArialMT-65" x="61.083984"/>
       <use xlink:href="#ArialMT-61" x="116.699219"/>
       <use xlink:href="#ArialMT-74" x="172.314453"/>
       <use xlink:href="#ArialMT-75" x="200.097656"/>
       <use xlink:href="#ArialMT-72" x="255.712891"/>
       <use xlink:href="#ArialMT-65" x="289.013672"/>
      </g>
     </g>
    </g>
    <g id="xtick_2">
     <g id="line2d_2">
      <path d="M 145.109482 229.692403 
L 145.109482 7.932403 
" clip-path="url(#pb9b696a4f1)" style="fill: none; stroke: #000000; stroke-opacity: 0.8; stroke-linecap: round"/>
     </g>
     <g id="text_2">
      <!-- B16 -->
      <g style="fill: #262626" transform="translate(134.434169 247.781778) scale(0.12 -0.12)">
       <defs>
        <path id="ArialMT-42" d="M 469 0 
L 469 4581 
L 2188 4581 
Q 2713 4581 3030 4442 
Q 3347 4303 3526 4014 
Q 3706 3725 3706 3409 
Q 3706 3116 3547 2856 
Q 3388 2597 3066 2438 
Q 3481 2316 3704 2022 
Q 3928 1728 3928 1328 
Q 3928 1006 3792 729 
Q 3656 453 3456 303 
Q 3256 153 2954 76 
Q 2653 0 2216 0 
L 469 0 
z
M 1075 2656 
L 2066 2656 
Q 2469 2656 2644 2709 
Q 2875 2778 2992 2937 
Q 3109 3097 3109 3338 
Q 3109 3566 3000 3739 
Q 2891 3913 2687 3977 
Q 2484 4041 1991 4041 
L 1075 4041 
L 1075 2656 
z
M 1075 541 
L 2216 541 
Q 2509 541 2628 563 
Q 2838 600 2978 687 
Q 3119 775 3209 942 
Q 3300 1109 3300 1328 
Q 3300 1584 3169 1773 
Q 3038 1963 2805 2039 
Q 2572 2116 2134 2116 
L 1075 2116 
L 1075 541 
z
" transform="scale(0.015625)"/>
        <path id="ArialMT-31" d="M 2384 0 
L 1822 0 
L 1822 3584 
Q 1619 3391 1289 3197 
Q 959 3003 697 2906 
L 697 3450 
Q 1169 3672 1522 3987 
Q 1875 4303 2022 4600 
L 2384 4600 
L 2384 0 
z
" transform="scale(0.015625)"/>
        <path id="ArialMT-36" d="M 3184 3459 
L 2625 3416 
Q 2550 3747 2413 3897 
Q 2184 4138 1850 4138 
Q 1581 4138 1378 3988 
Q 1113 3794 959 3422 
Q 806 3050 800 2363 
Q 1003 2672 1297 2822 
Q 1591 2972 1913 2972 
Q 2475 2972 2870 2558 
Q 3266 2144 3266 1488 
Q 3266 1056 3080 686 
Q 2894 316 2569 119 
Q 2244 -78 1831 -78 
Q 1128 -78 684 439 
Q 241 956 241 2144 
Q 241 3472 731 4075 
Q 1159 4600 1884 4600 
Q 2425 4600 2770 4297 
Q 3116 3994 3184 3459 
z
M 888 1484 
Q 888 1194 1011 928 
Q 1134 663 1356 523 
Q 1578 384 1822 384 
Q 2178 384 2434 671 
Q 2691 959 2691 1453 
Q 2691 1928 2437 2201 
Q 2184 2475 1800 2475 
Q 1419 2475 1153 2201 
Q 888 1928 888 1484 
z
" transform="scale(0.015625)"/>
       </defs>
       <use xlink:href="#ArialMT-42"/>
       <use xlink:href="#ArialMT-31" x="66.699219"/>
       <use xlink:href="#ArialMT-36" x="122.314453"/>
      </g>
     </g>
    </g>
    <g id="xtick_3">
     <g id="line2d_3">
      <path d="M 187.382209 229.692403 
L 187.382209 7.932403 
" clip-path="url(#pb9b696a4f1)" style="fill: none; stroke: #000000; stroke-opacity: 0.8; stroke-linecap: round"/>
     </g>
     <g id="text_3">
      <!-- HepG2 -->
      <g style="fill: #262626" transform="translate(168.372522 247.928028) scale(0.12 -0.12)">
       <defs>
        <path id="ArialMT-48" d="M 513 0 
L 513 4581 
L 1119 4581 
L 1119 2700 
L 3500 2700 
L 3500 4581 
L 4106 4581 
L 4106 0 
L 3500 0 
L 3500 2159 
L 1119 2159 
L 1119 0 
L 513 0 
z
" transform="scale(0.015625)"/>
        <path id="ArialMT-70" d="M 422 -1272 
L 422 3319 
L 934 3319 
L 934 2888 
Q 1116 3141 1344 3267 
Q 1572 3394 1897 3394 
Q 2322 3394 2647 3175 
Q 2972 2956 3137 2557 
Q 3303 2159 3303 1684 
Q 3303 1175 3120 767 
Q 2938 359 2589 142 
Q 2241 -75 1856 -75 
Q 1575 -75 1351 44 
Q 1128 163 984 344 
L 984 -1272 
L 422 -1272 
z
M 931 1641 
Q 931 1000 1190 694 
Q 1450 388 1819 388 
Q 2194 388 2461 705 
Q 2728 1022 2728 1688 
Q 2728 2322 2467 2637 
Q 2206 2953 1844 2953 
Q 1484 2953 1207 2617 
Q 931 2281 931 1641 
z
" transform="scale(0.015625)"/>
        <path id="ArialMT-47" d="M 2638 1797 
L 2638 2334 
L 4578 2338 
L 4578 638 
Q 4131 281 3656 101 
Q 3181 -78 2681 -78 
Q 2006 -78 1454 211 
Q 903 500 622 1047 
Q 341 1594 341 2269 
Q 341 2938 620 3517 
Q 900 4097 1425 4378 
Q 1950 4659 2634 4659 
Q 3131 4659 3532 4498 
Q 3934 4338 4162 4050 
Q 4391 3763 4509 3300 
L 3963 3150 
Q 3859 3500 3706 3700 
Q 3553 3900 3268 4020 
Q 2984 4141 2638 4141 
Q 2222 4141 1919 4014 
Q 1616 3888 1430 3681 
Q 1244 3475 1141 3228 
Q 966 2803 966 2306 
Q 966 1694 1177 1281 
Q 1388 869 1791 669 
Q 2194 469 2647 469 
Q 3041 469 3416 620 
Q 3791 772 3984 944 
L 3984 1797 
L 2638 1797 
z
" transform="scale(0.015625)"/>
        <path id="ArialMT-32" d="M 3222 541 
L 3222 0 
L 194 0 
Q 188 203 259 391 
Q 375 700 629 1000 
Q 884 1300 1366 1694 
Q 2113 2306 2375 2664 
Q 2638 3022 2638 3341 
Q 2638 3675 2398 3904 
Q 2159 4134 1775 4134 
Q 1369 4134 1125 3890 
Q 881 3647 878 3216 
L 300 3275 
Q 359 3922 746 4261 
Q 1134 4600 1788 4600 
Q 2447 4600 2831 4234 
Q 3216 3869 3216 3328 
Q 3216 3053 3103 2787 
Q 2991 2522 2730 2228 
Q 2469 1934 1863 1422 
Q 1356 997 1212 845 
Q 1069 694 975 541 
L 3222 541 
z
" transform="scale(0.015625)"/>
       </defs>
       <use xlink:href="#ArialMT-48"/>
       <use xlink:href="#ArialMT-65" x="72.216797"/>
       <use xlink:href="#ArialMT-70" x="127.832031"/>
       <use xlink:href="#ArialMT-47" x="183.447266"/>
       <use xlink:href="#ArialMT-32" x="261.230469"/>
      </g>
     </g>
    </g>
    <g id="xtick_4">
     <g id="line2d_4">
      <path d="M 229.654936 229.692403 
L 229.654936 7.932403 
" clip-path="url(#pb9b696a4f1)" style="fill: none; stroke: #000000; stroke-opacity: 0.8; stroke-linecap: round"/>
     </g>
     <g id="text_4">
      <!-- PC3 -->
      <g style="fill: #262626" transform="translate(217.983061 247.781778) scale(0.12 -0.12)">
       <defs>
        <path id="ArialMT-50" d="M 494 0 
L 494 4581 
L 2222 4581 
Q 2678 4581 2919 4538 
Q 3256 4481 3484 4323 
Q 3713 4166 3852 3881 
Q 3991 3597 3991 3256 
Q 3991 2672 3619 2267 
Q 3247 1863 2275 1863 
L 1100 1863 
L 1100 0 
L 494 0 
z
M 1100 2403 
L 2284 2403 
Q 2872 2403 3119 2622 
Q 3366 2841 3366 3238 
Q 3366 3525 3220 3729 
Q 3075 3934 2838 4000 
Q 2684 4041 2272 4041 
L 1100 4041 
L 1100 2403 
z
" transform="scale(0.015625)"/>
        <path id="ArialMT-43" d="M 3763 1606 
L 4369 1453 
Q 4178 706 3683 314 
Q 3188 -78 2472 -78 
Q 1731 -78 1267 223 
Q 803 525 561 1097 
Q 319 1669 319 2325 
Q 319 3041 592 3573 
Q 866 4106 1370 4382 
Q 1875 4659 2481 4659 
Q 3169 4659 3637 4309 
Q 4106 3959 4291 3325 
L 3694 3184 
Q 3534 3684 3231 3912 
Q 2928 4141 2469 4141 
Q 1941 4141 1586 3887 
Q 1231 3634 1087 3207 
Q 944 2781 944 2328 
Q 944 1744 1114 1308 
Q 1284 872 1643 656 
Q 2003 441 2422 441 
Q 2931 441 3284 734 
Q 3638 1028 3763 1606 
z
" transform="scale(0.015625)"/>
        <path id="ArialMT-33" d="M 269 1209 
L 831 1284 
Q 928 806 1161 595 
Q 1394 384 1728 384 
Q 2125 384 2398 659 
Q 2672 934 2672 1341 
Q 2672 1728 2419 1979 
Q 2166 2231 1775 2231 
Q 1616 2231 1378 2169 
L 1441 2663 
Q 1497 2656 1531 2656 
Q 1891 2656 2178 2843 
Q 2466 3031 2466 3422 
Q 2466 3731 2256 3934 
Q 2047 4138 1716 4138 
Q 1388 4138 1169 3931 
Q 950 3725 888 3313 
L 325 3413 
Q 428 3978 793 4289 
Q 1159 4600 1703 4600 
Q 2078 4600 2393 4439 
Q 2709 4278 2876 4000 
Q 3044 3722 3044 3409 
Q 3044 3113 2884 2869 
Q 2725 2625 2413 2481 
Q 2819 2388 3044 2092 
Q 3269 1797 3269 1353 
Q 3269 753 2831 336 
Q 2394 -81 1725 -81 
Q 1122 -81 723 278 
Q 325 638 269 1209 
z
" transform="scale(0.015625)"/>
       </defs>
       <use xlink:href="#ArialMT-50"/>
       <use xlink:href="#ArialMT-43" x="66.699219"/>
       <use xlink:href="#ArialMT-33" x="138.916016"/>
      </g>
     </g>
    </g>
    <g id="xtick_5">
     <g id="line2d_5">
      <path d="M 271.927664 229.692403 
L 271.927664 7.932403 
" clip-path="url(#pb9b696a4f1)" style="fill: none; stroke: #000000; stroke-opacity: 0.8; stroke-linecap: round"/>
     </g>
     <g id="text_5">
      <!-- HEK293 -->
      <g style="fill: #262626" transform="translate(249.580476 247.781778) scale(0.12 -0.12)">
       <defs>
        <path id="ArialMT-45" d="M 506 0 
L 506 4581 
L 3819 4581 
L 3819 4041 
L 1113 4041 
L 1113 2638 
L 3647 2638 
L 3647 2100 
L 1113 2100 
L 1113 541 
L 3925 541 
L 3925 0 
L 506 0 
z
" transform="scale(0.015625)"/>
        <path id="ArialMT-4b" d="M 469 0 
L 469 4581 
L 1075 4581 
L 1075 2309 
L 3350 4581 
L 4172 4581 
L 2250 2725 
L 4256 0 
L 3456 0 
L 1825 2319 
L 1075 1588 
L 1075 0 
L 469 0 
z
" transform="scale(0.015625)"/>
        <path id="ArialMT-39" d="M 350 1059 
L 891 1109 
Q 959 728 1153 556 
Q 1347 384 1650 384 
Q 1909 384 2104 503 
Q 2300 622 2425 820 
Q 2550 1019 2634 1356 
Q 2719 1694 2719 2044 
Q 2719 2081 2716 2156 
Q 2547 1888 2255 1720 
Q 1963 1553 1622 1553 
Q 1053 1553 659 1965 
Q 266 2378 266 3053 
Q 266 3750 677 4175 
Q 1088 4600 1706 4600 
Q 2153 4600 2523 4359 
Q 2894 4119 3086 3673 
Q 3278 3228 3278 2384 
Q 3278 1506 3087 986 
Q 2897 466 2520 194 
Q 2144 -78 1638 -78 
Q 1100 -78 759 220 
Q 419 519 350 1059 
z
M 2653 3081 
Q 2653 3566 2395 3850 
Q 2138 4134 1775 4134 
Q 1400 4134 1122 3828 
Q 844 3522 844 3034 
Q 844 2597 1108 2323 
Q 1372 2050 1759 2050 
Q 2150 2050 2401 2323 
Q 2653 2597 2653 3081 
z
" transform="scale(0.015625)"/>
       </defs>
       <use xlink:href="#ArialMT-48"/>
       <use xlink:href="#ArialMT-45" x="72.216797"/>
       <use xlink:href="#ArialMT-4b" x="138.916016"/>
       <use xlink:href="#ArialMT-32" x="205.615234"/>
       <use xlink:href="#ArialMT-39" x="261.230469"/>
       <use xlink:href="#ArialMT-33" x="316.845703"/>
      </g>
     </g>
    </g>
    <g id="xtick_6">
     <g id="line2d_6">
      <path d="M 314.200391 229.692403 
L 314.200391 7.932403 
" clip-path="url(#pb9b696a4f1)" style="fill: none; stroke: #000000; stroke-opacity: 0.8; stroke-linecap: round"/>
     </g>
     <g id="text_6">
      <!-- N2a -->
      <g style="fill: #262626" transform="translate(303.194141 247.781778) scale(0.12 -0.12)">
       <defs>
        <path id="ArialMT-4e" d="M 488 0 
L 488 4581 
L 1109 4581 
L 3516 984 
L 3516 4581 
L 4097 4581 
L 4097 0 
L 3475 0 
L 1069 3600 
L 1069 0 
L 488 0 
z
" transform="scale(0.015625)"/>
       </defs>
       <use xlink:href="#ArialMT-4e"/>
       <use xlink:href="#ArialMT-32" x="72.216797"/>
       <use xlink:href="#ArialMT-61" x="127.832031"/>
      </g>
     </g>
    </g>
    <g id="xtick_7">
     <g id="line2d_7">
      <path d="M 356.473118 229.692403 
L 356.473118 7.932403 
" clip-path="url(#pb9b696a4f1)" style="fill: none; stroke: #000000; stroke-opacity: 0.8; stroke-linecap: round"/>
     </g>
     <g id="text_7">
      <!-- ARPE19 -->
      <g style="fill: #262626" transform="translate(333.460306 247.781778) scale(0.12 -0.12)">
       <defs>
        <path id="ArialMT-41" d="M -9 0 
L 1750 4581 
L 2403 4581 
L 4278 0 
L 3588 0 
L 3053 1388 
L 1138 1388 
L 634 0 
L -9 0 
z
M 1313 1881 
L 2866 1881 
L 2388 3150 
Q 2169 3728 2063 4100 
Q 1975 3659 1816 3225 
L 1313 1881 
z
" transform="scale(0.015625)"/>
        <path id="ArialMT-52" d="M 503 0 
L 503 4581 
L 2534 4581 
Q 3147 4581 3465 4457 
Q 3784 4334 3975 4021 
Q 4166 3709 4166 3331 
Q 4166 2844 3850 2509 
Q 3534 2175 2875 2084 
Q 3116 1969 3241 1856 
Q 3506 1613 3744 1247 
L 4541 0 
L 3778 0 
L 3172 953 
Q 2906 1366 2734 1584 
Q 2563 1803 2427 1890 
Q 2291 1978 2150 2013 
Q 2047 2034 1813 2034 
L 1109 2034 
L 1109 0 
L 503 0 
z
M 1109 2559 
L 2413 2559 
Q 2828 2559 3062 2645 
Q 3297 2731 3419 2920 
Q 3541 3109 3541 3331 
Q 3541 3656 3305 3865 
Q 3069 4075 2559 4075 
L 1109 4075 
L 1109 2559 
z
" transform="scale(0.015625)"/>
       </defs>
       <use xlink:href="#ArialMT-41"/>
       <use xlink:href="#ArialMT-52" x="66.699219"/>
       <use xlink:href="#ArialMT-50" x="138.916016"/>
       <use xlink:href="#ArialMT-45" x="205.615234"/>
       <use xlink:href="#ArialMT-31" x="272.314453"/>
       <use xlink:href="#ArialMT-39" x="327.929688"/>
      </g>
     </g>
    </g>
   </g>
   <g id="matplotlib.axis_2">
    <g id="ytick_1">
     <g id="line2d_8">
      <defs>
       <path id="mb926983ba6" d="M 0 0 
L -6 0 
" style="stroke: #262626; stroke-width: 1.25"/>
      </defs>
      <g>
       <use xlink:href="#mb926983ba6" x="98.609482" y="193.338304" style="fill: #262626; stroke: #262626; stroke-width: 1.25"/>
      </g>
     </g>
     <g id="text_8">
      <!-- Zeta -->
      <g style="fill: #262626" transform="translate(70.44584 212.094414) rotate(-45) scale(0.12 -0.12)">
       <defs>
        <path id="ArialMT-5a" d="M 128 0 
L 128 563 
L 2475 3497 
Q 2725 3809 2950 4041 
L 394 4041 
L 394 4581 
L 3675 4581 
L 3675 4041 
L 1103 863 
L 825 541 
L 3750 541 
L 3750 0 
L 128 0 
z
" transform="scale(0.015625)"/>
       </defs>
       <use xlink:href="#ArialMT-5a"/>
       <use xlink:href="#ArialMT-65" x="61.083984"/>
       <use xlink:href="#ArialMT-74" x="116.699219"/>
       <use xlink:href="#ArialMT-61" x="144.482422"/>
      </g>
     </g>
    </g>
    <g id="ytick_2">
     <g id="line2d_9">
      <g>
       <use xlink:href="#mb926983ba6" x="98.609482" y="178.190763" style="fill: #262626; stroke: #262626; stroke-width: 1.25"/>
      </g>
     </g>
     <g id="text_9">
      <!-- Size -->
      <g style="fill: #262626" transform="translate(70.916508 196.476205) rotate(-45) scale(0.12 -0.12)">
       <defs>
        <path id="ArialMT-53" d="M 288 1472 
L 859 1522 
Q 900 1178 1048 958 
Q 1197 738 1509 602 
Q 1822 466 2213 466 
Q 2559 466 2825 569 
Q 3091 672 3220 851 
Q 3350 1031 3350 1244 
Q 3350 1459 3225 1620 
Q 3100 1781 2813 1891 
Q 2628 1963 1997 2114 
Q 1366 2266 1113 2400 
Q 784 2572 623 2826 
Q 463 3081 463 3397 
Q 463 3744 659 4045 
Q 856 4347 1234 4503 
Q 1613 4659 2075 4659 
Q 2584 4659 2973 4495 
Q 3363 4331 3572 4012 
Q 3781 3694 3797 3291 
L 3216 3247 
Q 3169 3681 2898 3903 
Q 2628 4125 2100 4125 
Q 1550 4125 1298 3923 
Q 1047 3722 1047 3438 
Q 1047 3191 1225 3031 
Q 1400 2872 2139 2705 
Q 2878 2538 3153 2413 
Q 3553 2228 3743 1945 
Q 3934 1663 3934 1294 
Q 3934 928 3725 604 
Q 3516 281 3123 101 
Q 2731 -78 2241 -78 
Q 1619 -78 1198 103 
Q 778 284 539 648 
Q 300 1013 288 1472 
z
" transform="scale(0.015625)"/>
        <path id="ArialMT-69" d="M 425 3934 
L 425 4581 
L 988 4581 
L 988 3934 
L 425 3934 
z
M 425 0 
L 425 3319 
L 988 3319 
L 988 0 
L 425 0 
z
" transform="scale(0.015625)"/>
        <path id="ArialMT-7a" d="M 125 0 
L 125 456 
L 2238 2881 
Q 1878 2863 1603 2863 
L 250 2863 
L 250 3319 
L 2963 3319 
L 2963 2947 
L 1166 841 
L 819 456 
Q 1197 484 1528 484 
L 3063 484 
L 3063 0 
L 125 0 
z
" transform="scale(0.015625)"/>
       </defs>
       <use xlink:href="#ArialMT-53"/>
       <use xlink:href="#ArialMT-69" x="66.699219"/>
       <use xlink:href="#ArialMT-7a" x="88.916016"/>
       <use xlink:href="#ArialMT-65" x="138.916016"/>
      </g>
     </g>
    </g>
    <g id="ytick_3">
     <g id="line2d_10">
      <g>
       <use xlink:href="#mb926983ba6" x="98.609482" y="163.043222" style="fill: #262626; stroke: #262626; stroke-width: 1.25"/>
      </g>
     </g>
     <g id="text_10">
      <!-- Double_bonds -->
      <g style="fill: #262626" transform="translate(32.699596 219.545576) rotate(-45) scale(0.12 -0.12)">
       <defs>
        <path id="ArialMT-44" d="M 494 0 
L 494 4581 
L 2072 4581 
Q 2606 4581 2888 4516 
Q 3281 4425 3559 4188 
Q 3922 3881 4101 3404 
Q 4281 2928 4281 2316 
Q 4281 1794 4159 1391 
Q 4038 988 3847 723 
Q 3656 459 3429 307 
Q 3203 156 2883 78 
Q 2563 0 2147 0 
L 494 0 
z
M 1100 541 
L 2078 541 
Q 2531 541 2789 625 
Q 3047 709 3200 863 
Q 3416 1078 3536 1442 
Q 3656 1806 3656 2325 
Q 3656 3044 3420 3430 
Q 3184 3816 2847 3947 
Q 2603 4041 2063 4041 
L 1100 4041 
L 1100 541 
z
" transform="scale(0.015625)"/>
        <path id="ArialMT-6f" d="M 213 1659 
Q 213 2581 725 3025 
Q 1153 3394 1769 3394 
Q 2453 3394 2887 2945 
Q 3322 2497 3322 1706 
Q 3322 1066 3130 698 
Q 2938 331 2570 128 
Q 2203 -75 1769 -75 
Q 1072 -75 642 372 
Q 213 819 213 1659 
z
M 791 1659 
Q 791 1022 1069 705 
Q 1347 388 1769 388 
Q 2188 388 2466 706 
Q 2744 1025 2744 1678 
Q 2744 2294 2464 2611 
Q 2184 2928 1769 2928 
Q 1347 2928 1069 2612 
Q 791 2297 791 1659 
z
" transform="scale(0.015625)"/>
        <path id="ArialMT-62" d="M 941 0 
L 419 0 
L 419 4581 
L 981 4581 
L 981 2947 
Q 1338 3394 1891 3394 
Q 2197 3394 2470 3270 
Q 2744 3147 2920 2923 
Q 3097 2700 3197 2384 
Q 3297 2069 3297 1709 
Q 3297 856 2875 390 
Q 2453 -75 1863 -75 
Q 1275 -75 941 416 
L 941 0 
z
M 934 1684 
Q 934 1088 1097 822 
Q 1363 388 1816 388 
Q 2184 388 2453 708 
Q 2722 1028 2722 1663 
Q 2722 2313 2464 2622 
Q 2206 2931 1841 2931 
Q 1472 2931 1203 2611 
Q 934 2291 934 1684 
z
" transform="scale(0.015625)"/>
        <path id="ArialMT-6c" d="M 409 0 
L 409 4581 
L 972 4581 
L 972 0 
L 409 0 
z
" transform="scale(0.015625)"/>
        <path id="ArialMT-5f" d="M -97 -1272 
L -97 -866 
L 3631 -866 
L 3631 -1272 
L -97 -1272 
z
" transform="scale(0.015625)"/>
        <path id="ArialMT-6e" d="M 422 0 
L 422 3319 
L 928 3319 
L 928 2847 
Q 1294 3394 1984 3394 
Q 2284 3394 2536 3286 
Q 2788 3178 2913 3003 
Q 3038 2828 3088 2588 
Q 3119 2431 3119 2041 
L 3119 0 
L 2556 0 
L 2556 2019 
Q 2556 2363 2490 2533 
Q 2425 2703 2258 2804 
Q 2091 2906 1866 2906 
Q 1506 2906 1245 2678 
Q 984 2450 984 1813 
L 984 0 
L 422 0 
z
" transform="scale(0.015625)"/>
        <path id="ArialMT-64" d="M 2575 0 
L 2575 419 
Q 2259 -75 1647 -75 
Q 1250 -75 917 144 
Q 584 363 401 755 
Q 219 1147 219 1656 
Q 219 2153 384 2558 
Q 550 2963 881 3178 
Q 1213 3394 1622 3394 
Q 1922 3394 2156 3267 
Q 2391 3141 2538 2938 
L 2538 4581 
L 3097 4581 
L 3097 0 
L 2575 0 
z
M 797 1656 
Q 797 1019 1065 703 
Q 1334 388 1700 388 
Q 2069 388 2326 689 
Q 2584 991 2584 1609 
Q 2584 2291 2321 2609 
Q 2059 2928 1675 2928 
Q 1300 2928 1048 2622 
Q 797 2316 797 1656 
z
" transform="scale(0.015625)"/>
        <path id="ArialMT-73" d="M 197 991 
L 753 1078 
Q 800 744 1014 566 
Q 1228 388 1613 388 
Q 2000 388 2187 545 
Q 2375 703 2375 916 
Q 2375 1106 2209 1216 
Q 2094 1291 1634 1406 
Q 1016 1563 777 1677 
Q 538 1791 414 1992 
Q 291 2194 291 2438 
Q 291 2659 392 2848 
Q 494 3038 669 3163 
Q 800 3259 1026 3326 
Q 1253 3394 1513 3394 
Q 1903 3394 2198 3281 
Q 2494 3169 2634 2976 
Q 2775 2784 2828 2463 
L 2278 2388 
Q 2241 2644 2061 2787 
Q 1881 2931 1553 2931 
Q 1166 2931 1000 2803 
Q 834 2675 834 2503 
Q 834 2394 903 2306 
Q 972 2216 1119 2156 
Q 1203 2125 1616 2013 
Q 2213 1853 2448 1751 
Q 2684 1650 2818 1456 
Q 2953 1263 2953 975 
Q 2953 694 2789 445 
Q 2625 197 2315 61 
Q 2006 -75 1616 -75 
Q 969 -75 630 194 
Q 291 463 197 991 
z
" transform="scale(0.015625)"/>
       </defs>
       <use xlink:href="#ArialMT-44"/>
       <use xlink:href="#ArialMT-6f" x="72.216797"/>
       <use xlink:href="#ArialMT-75" x="127.832031"/>
       <use xlink:href="#ArialMT-62" x="183.447266"/>
       <use xlink:href="#ArialMT-6c" x="239.0625"/>
       <use xlink:href="#ArialMT-65" x="261.279297"/>
       <use xlink:href="#ArialMT-5f" x="316.894531"/>
       <use xlink:href="#ArialMT-62" x="372.509766"/>
       <use xlink:href="#ArialMT-6f" x="428.125"/>
       <use xlink:href="#ArialMT-6e" x="483.740234"/>
       <use xlink:href="#ArialMT-64" x="539.355469"/>
       <use xlink:href="#ArialMT-73" x="594.970703"/>
      </g>
     </g>
    </g>
    <g id="ytick_4">
     <g id="line2d_11">
      <g>
       <use xlink:href="#mb926983ba6" x="98.609482" y="147.895681" style="fill: #262626; stroke: #262626; stroke-width: 1.25"/>
      </g>
     </g>
     <g id="text_11">
      <!-- Total_Carbon_Tails -->
      <g style="fill: #262626" transform="translate(15.268972 221.858948) rotate(-45) scale(0.12 -0.12)">
       <defs>
        <path id="ArialMT-54" d="M 1659 0 
L 1659 4041 
L 150 4041 
L 150 4581 
L 3781 4581 
L 3781 4041 
L 2266 4041 
L 2266 0 
L 1659 0 
z
" transform="scale(0.015625)"/>
       </defs>
       <use xlink:href="#ArialMT-54"/>
       <use xlink:href="#ArialMT-6f" x="49.958984"/>
       <use xlink:href="#ArialMT-74" x="105.574219"/>
       <use xlink:href="#ArialMT-61" x="133.357422"/>
       <use xlink:href="#ArialMT-6c" x="188.972656"/>
       <use xlink:href="#ArialMT-5f" x="211.189453"/>
       <use xlink:href="#ArialMT-43" x="266.804688"/>
       <use xlink:href="#ArialMT-61" x="339.021484"/>
       <use xlink:href="#ArialMT-72" x="394.636719"/>
       <use xlink:href="#ArialMT-62" x="427.9375"/>
       <use xlink:href="#ArialMT-6f" x="483.552734"/>
       <use xlink:href="#ArialMT-6e" x="539.167969"/>
       <use xlink:href="#ArialMT-5f" x="594.783203"/>
       <use xlink:href="#ArialMT-54" x="650.398438"/>
       <use xlink:href="#ArialMT-61" x="700.357422"/>
       <use xlink:href="#ArialMT-69" x="755.972656"/>
       <use xlink:href="#ArialMT-6c" x="778.189453"/>
       <use xlink:href="#ArialMT-73" x="800.40625"/>
      </g>
     </g>
    </g>
    <g id="ytick_5">
     <g id="line2d_12">
      <g>
       <use xlink:href="#mb926983ba6" x="98.609482" y="132.74814" style="fill: #262626; stroke: #262626; stroke-width: 1.25"/>
      </g>
     </g>
     <g id="text_12">
      <!-- Hbond_A -->
      <g style="fill: #262626" transform="translate(52.04206 169.90803) rotate(-45) scale(0.12 -0.12)">
       <use xlink:href="#ArialMT-48"/>
       <use xlink:href="#ArialMT-62" x="72.216797"/>
       <use xlink:href="#ArialMT-6f" x="127.832031"/>
       <use xlink:href="#ArialMT-6e" x="183.447266"/>
       <use xlink:href="#ArialMT-64" x="239.0625"/>
       <use xlink:href="#ArialMT-5f" x="294.677734"/>
       <use xlink:href="#ArialMT-41" x="350.292969"/>
      </g>
     </g>
    </g>
    <g id="ytick_6">
     <g id="line2d_13">
      <g>
       <use xlink:href="#mb926983ba6" x="98.609482" y="117.600599" style="fill: #262626; stroke: #262626; stroke-width: 1.25"/>
      </g>
     </g>
     <g id="text_13">
      <!-- Hbond_D -->
      <g style="fill: #262626" transform="translate(51.574044 155.228505) rotate(-45) scale(0.12 -0.12)">
       <use xlink:href="#ArialMT-48"/>
       <use xlink:href="#ArialMT-62" x="72.216797"/>
       <use xlink:href="#ArialMT-6f" x="127.832031"/>
       <use xlink:href="#ArialMT-6e" x="183.447266"/>
       <use xlink:href="#ArialMT-64" x="239.0625"/>
       <use xlink:href="#ArialMT-5f" x="294.677734"/>
       <use xlink:href="#ArialMT-44" x="350.292969"/>
      </g>
     </g>
    </g>
    <g id="ytick_7">
     <g id="line2d_14">
      <g>
       <use xlink:href="#mb926983ba6" x="98.609482" y="102.453058" style="fill: #262626; stroke: #262626; stroke-width: 1.25"/>
      </g>
     </g>
     <g id="text_14">
      <!-- cLogP -->
      <g style="fill: #262626" transform="translate(63.265171 128.290401) rotate(-45) scale(0.12 -0.12)">
       <defs>
        <path id="ArialMT-63" d="M 2588 1216 
L 3141 1144 
Q 3050 572 2676 248 
Q 2303 -75 1759 -75 
Q 1078 -75 664 370 
Q 250 816 250 1647 
Q 250 2184 428 2587 
Q 606 2991 970 3192 
Q 1334 3394 1763 3394 
Q 2303 3394 2647 3120 
Q 2991 2847 3088 2344 
L 2541 2259 
Q 2463 2594 2264 2762 
Q 2066 2931 1784 2931 
Q 1359 2931 1093 2626 
Q 828 2322 828 1663 
Q 828 994 1084 691 
Q 1341 388 1753 388 
Q 2084 388 2306 591 
Q 2528 794 2588 1216 
z
" transform="scale(0.015625)"/>
        <path id="ArialMT-4c" d="M 469 0 
L 469 4581 
L 1075 4581 
L 1075 541 
L 3331 541 
L 3331 0 
L 469 0 
z
" transform="scale(0.015625)"/>
        <path id="ArialMT-67" d="M 319 -275 
L 866 -356 
Q 900 -609 1056 -725 
Q 1266 -881 1628 -881 
Q 2019 -881 2231 -725 
Q 2444 -569 2519 -288 
Q 2563 -116 2559 434 
Q 2191 0 1641 0 
Q 956 0 581 494 
Q 206 988 206 1678 
Q 206 2153 378 2554 
Q 550 2956 876 3175 
Q 1203 3394 1644 3394 
Q 2231 3394 2613 2919 
L 2613 3319 
L 3131 3319 
L 3131 450 
Q 3131 -325 2973 -648 
Q 2816 -972 2473 -1159 
Q 2131 -1347 1631 -1347 
Q 1038 -1347 672 -1080 
Q 306 -813 319 -275 
z
M 784 1719 
Q 784 1066 1043 766 
Q 1303 466 1694 466 
Q 2081 466 2343 764 
Q 2606 1063 2606 1700 
Q 2606 2309 2336 2618 
Q 2066 2928 1684 2928 
Q 1309 2928 1046 2623 
Q 784 2319 784 1719 
z
" transform="scale(0.015625)"/>
       </defs>
       <use xlink:href="#ArialMT-63"/>
       <use xlink:href="#ArialMT-4c" x="50"/>
       <use xlink:href="#ArialMT-6f" x="105.615234"/>
       <use xlink:href="#ArialMT-67" x="161.230469"/>
       <use xlink:href="#ArialMT-50" x="216.845703"/>
      </g>
     </g>
    </g>
    <g id="ytick_8">
     <g id="line2d_15">
      <g>
       <use xlink:href="#mb926983ba6" x="98.609482" y="87.305517" style="fill: #262626; stroke: #262626; stroke-width: 1.25"/>
      </g>
     </g>
     <g id="text_15">
      <!-- N_charged_centers -->
      <g style="fill: #262626" transform="translate(13.273605 163.134425) rotate(-45) scale(0.12 -0.12)">
       <defs>
        <path id="ArialMT-68" d="M 422 0 
L 422 4581 
L 984 4581 
L 984 2938 
Q 1378 3394 1978 3394 
Q 2347 3394 2619 3248 
Q 2891 3103 3008 2847 
Q 3125 2591 3125 2103 
L 3125 0 
L 2563 0 
L 2563 2103 
Q 2563 2525 2380 2717 
Q 2197 2909 1863 2909 
Q 1613 2909 1392 2779 
Q 1172 2650 1078 2428 
Q 984 2206 984 1816 
L 984 0 
L 422 0 
z
" transform="scale(0.015625)"/>
       </defs>
       <use xlink:href="#ArialMT-4e"/>
       <use xlink:href="#ArialMT-5f" x="72.216797"/>
       <use xlink:href="#ArialMT-63" x="127.832031"/>
       <use xlink:href="#ArialMT-68" x="177.832031"/>
       <use xlink:href="#ArialMT-61" x="233.447266"/>
       <use xlink:href="#ArialMT-72" x="289.0625"/>
       <use xlink:href="#ArialMT-67" x="322.363281"/>
       <use xlink:href="#ArialMT-65" x="377.978516"/>
       <use xlink:href="#ArialMT-64" x="433.59375"/>
       <use xlink:href="#ArialMT-5f" x="489.208984"/>
       <use xlink:href="#ArialMT-63" x="544.824219"/>
       <use xlink:href="#ArialMT-65" x="594.824219"/>
       <use xlink:href="#ArialMT-6e" x="650.439453"/>
       <use xlink:href="#ArialMT-74" x="706.054688"/>
       <use xlink:href="#ArialMT-65" x="733.837891"/>
       <use xlink:href="#ArialMT-72" x="789.453125"/>
       <use xlink:href="#ArialMT-73" x="822.753906"/>
      </g>
     </g>
    </g>
    <g id="ytick_9">
     <g id="line2d_16">
      <g>
       <use xlink:href="#mb926983ba6" x="98.609482" y="72.157976" style="fill: #262626; stroke: #262626; stroke-width: 1.25"/>
      </g>
     </g>
     <g id="text_16">
      <!-- P_charged_centers -->
      <g style="fill: #262626" transform="translate(13.741622 147.518868) rotate(-45) scale(0.12 -0.12)">
       <use xlink:href="#ArialMT-50"/>
       <use xlink:href="#ArialMT-5f" x="66.699219"/>
       <use xlink:href="#ArialMT-63" x="122.314453"/>
       <use xlink:href="#ArialMT-68" x="172.314453"/>
       <use xlink:href="#ArialMT-61" x="227.929688"/>
       <use xlink:href="#ArialMT-72" x="283.544922"/>
       <use xlink:href="#ArialMT-67" x="316.845703"/>
       <use xlink:href="#ArialMT-65" x="372.460938"/>
       <use xlink:href="#ArialMT-64" x="428.076172"/>
       <use xlink:href="#ArialMT-5f" x="483.691406"/>
       <use xlink:href="#ArialMT-63" x="539.306641"/>
       <use xlink:href="#ArialMT-65" x="589.306641"/>
       <use xlink:href="#ArialMT-6e" x="644.921875"/>
       <use xlink:href="#ArialMT-74" x="700.537109"/>
       <use xlink:href="#ArialMT-65" x="728.320312"/>
       <use xlink:href="#ArialMT-72" x="783.935547"/>
       <use xlink:href="#ArialMT-73" x="817.236328"/>
      </g>
     </g>
    </g>
    <g id="ytick_10">
     <g id="line2d_17">
      <g>
       <use xlink:href="#mb926983ba6" x="98.609482" y="57.010435" style="fill: #262626; stroke: #262626; stroke-width: 1.25"/>
      </g>
     </g>
     <g id="text_17">
      <!-- NP_ratio -->
      <g style="fill: #262626" transform="translate(54.41131 91.801075) rotate(-45) scale(0.12 -0.12)">
       <use xlink:href="#ArialMT-4e"/>
       <use xlink:href="#ArialMT-50" x="72.216797"/>
       <use xlink:href="#ArialMT-5f" x="138.916016"/>
       <use xlink:href="#ArialMT-72" x="194.53125"/>
       <use xlink:href="#ArialMT-61" x="227.832031"/>
       <use xlink:href="#ArialMT-74" x="283.447266"/>
       <use xlink:href="#ArialMT-69" x="311.230469"/>
       <use xlink:href="#ArialMT-6f" x="333.447266"/>
      </g>
     </g>
    </g>
    <g id="ytick_11">
     <g id="line2d_18">
      <g>
       <use xlink:href="#mb926983ba6" x="98.609482" y="41.862894" style="fill: #262626; stroke: #262626; stroke-width: 1.25"/>
      </g>
     </g>
     <g id="text_18">
      <!-- PEG_(Chol+PEG) -->
      <g style="fill: #262626" transform="translate(18.708163 112.287534) rotate(-45) scale(0.12 -0.12)">
       <defs>
        <path id="ArialMT-28" d="M 1497 -1347 
Q 1031 -759 709 28 
Q 388 816 388 1659 
Q 388 2403 628 3084 
Q 909 3875 1497 4659 
L 1900 4659 
Q 1522 4009 1400 3731 
Q 1209 3300 1100 2831 
Q 966 2247 966 1656 
Q 966 153 1900 -1347 
L 1497 -1347 
z
" transform="scale(0.015625)"/>
        <path id="ArialMT-2b" d="M 1603 741 
L 1603 1997 
L 356 1997 
L 356 2522 
L 1603 2522 
L 1603 3769 
L 2134 3769 
L 2134 2522 
L 3381 2522 
L 3381 1997 
L 2134 1997 
L 2134 741 
L 1603 741 
z
" transform="scale(0.015625)"/>
        <path id="ArialMT-29" d="M 791 -1347 
L 388 -1347 
Q 1322 153 1322 1656 
Q 1322 2244 1188 2822 
Q 1081 3291 891 3722 
Q 769 4003 388 4659 
L 791 4659 
Q 1378 3875 1659 3084 
Q 1900 2403 1900 1659 
Q 1900 816 1576 28 
Q 1253 -759 791 -1347 
z
" transform="scale(0.015625)"/>
       </defs>
       <use xlink:href="#ArialMT-50"/>
       <use xlink:href="#ArialMT-45" x="66.699219"/>
       <use xlink:href="#ArialMT-47" x="133.398438"/>
       <use xlink:href="#ArialMT-5f" x="211.181641"/>
       <use xlink:href="#ArialMT-28" x="266.796875"/>
       <use xlink:href="#ArialMT-43" x="300.097656"/>
       <use xlink:href="#ArialMT-68" x="372.314453"/>
       <use xlink:href="#ArialMT-6f" x="427.929688"/>
       <use xlink:href="#ArialMT-6c" x="483.544922"/>
       <use xlink:href="#ArialMT-2b" x="505.761719"/>
       <use xlink:href="#ArialMT-50" x="564.160156"/>
       <use xlink:href="#ArialMT-45" x="630.859375"/>
       <use xlink:href="#ArialMT-47" x="697.558594"/>
       <use xlink:href="#ArialMT-29" x="775.341797"/>
      </g>
     </g>
    </g>
    <g id="ytick_12">
     <g id="line2d_19">
      <g>
       <use xlink:href="#mb926983ba6" x="98.609482" y="26.715353" style="fill: #262626; stroke: #262626; stroke-width: 1.25"/>
      </g>
     </g>
     <g id="text_19">
      <!-- (IL+HL) -->
      <g style="fill: #262626" transform="translate(58.794488 57.053668) rotate(-45) scale(0.12 -0.12)">
       <defs>
        <path id="ArialMT-49" d="M 597 0 
L 597 4581 
L 1203 4581 
L 1203 0 
L 597 0 
z
" transform="scale(0.015625)"/>
       </defs>
       <use xlink:href="#ArialMT-28"/>
       <use xlink:href="#ArialMT-49" x="33.300781"/>
       <use xlink:href="#ArialMT-4c" x="61.083984"/>
       <use xlink:href="#ArialMT-2b" x="116.699219"/>
       <use xlink:href="#ArialMT-48" x="175.097656"/>
       <use xlink:href="#ArialMT-4c" x="247.314453"/>
       <use xlink:href="#ArialMT-29" x="302.929688"/>
      </g>
     </g>
    </g>
    <g id="ytick_13">
     <g id="line2d_20">
      <g>
       <use xlink:href="#mb926983ba6" x="98.609482" y="11.567812" style="fill: #262626; stroke: #262626; stroke-width: 1.25"/>
      </g>
     </g>
     <g id="text_20">
      <!-- HL_(IL+HL) -->
      <g style="fill: #262626" transform="translate(43.2293 57.471315) rotate(-45) scale(0.12 -0.12)">
       <use xlink:href="#ArialMT-48"/>
       <use xlink:href="#ArialMT-4c" x="72.216797"/>
       <use xlink:href="#ArialMT-5f" x="127.832031"/>
       <use xlink:href="#ArialMT-28" x="183.447266"/>
       <use xlink:href="#ArialMT-49" x="216.748047"/>
       <use xlink:href="#ArialMT-4c" x="244.53125"/>
       <use xlink:href="#ArialMT-2b" x="300.146484"/>
       <use xlink:href="#ArialMT-48" x="358.544922"/>
       <use xlink:href="#ArialMT-4c" x="430.761719"/>
       <use xlink:href="#ArialMT-29" x="486.376953"/>
      </g>
     </g>
    </g>
   </g>
   <g id="line2d_21">
    <path d="M 102.836754 11.567812 
L 107.373945 11.605428 
L 107.878077 11.824741 
L 108.382209 12.234701 
L 109.138407 13.194038 
L 109.894606 14.54874 
L 110.90287 16.935186 
L 111.911135 19.940901 
L 113.171465 24.496115 
L 114.683862 31.009714 
L 116.196259 38.513595 
L 118.212788 49.780541 
L 120.733449 65.354639 
L 125.018573 93.632597 
L 128.799564 117.96016 
L 131.068159 131.174355 
L 132.832622 140.303357 
L 134.345019 147.114745 
L 135.60535 151.953113 
L 136.86568 155.930332 
L 137.873945 158.42938 
L 138.882209 160.269805 
L 139.638407 161.189165 
L 140.394606 161.691026 
L 140.898738 161.783811 
L 149.721052 161.726058 
L 150.225184 161.478241 
L 150.981383 160.752573 
L 151.737581 159.620087 
L 152.493779 158.100937 
L 153.502044 155.50876 
L 154.510308 152.312781 
L 155.770639 147.541488 
L 157.283035 140.800495 
L 159.047498 131.739702 
L 161.064027 120.120471 
L 163.836754 102.618511 
L 172.154936 48.907402 
L 174.171465 37.736128 
L 175.935928 29.180363 
L 177.448325 22.956244 
L 178.708655 18.674904 
L 179.71692 15.909653 
L 180.725184 13.782662 
L 181.481383 12.635015 
L 182.237581 11.893414 
L 182.741713 11.634548 
L 183.497912 11.567812 
L 234.415267 11.678602 
L 234.919399 11.983036 
L 235.675597 12.790326 
L 236.431796 14.00047 
L 237.187994 15.593313 
L 238.196259 18.277579 
L 239.204523 21.558599 
L 240.464854 26.426283 
L 241.97725 33.268407 
L 243.741713 42.427142 
L 245.758242 54.131877 
L 248.530969 71.70537 
L 256.345019 122.348567 
L 258.361548 133.74494 
L 260.126011 142.552914 
L 261.638407 149.034254 
L 262.898738 153.558885 
L 263.907002 156.537711 
L 264.915267 158.895114 
L 265.671465 160.226619 
L 266.427664 161.16155 
L 267.183862 161.679751 
L 267.687994 161.78375 
L 276.510308 161.734397 
L 277.01444 161.497649 
L 277.518573 161.070794 
L 278.274771 160.087122 
L 279.030969 158.709297 
L 280.039234 156.293905 
L 281.047498 153.261397 
L 282.307829 148.675721 
L 283.820226 142.13001 
L 285.584688 133.259185 
L 287.601217 121.807136 
L 290.121878 106.08095 
L 299.700391 44.72932 
L 301.71692 34.055713 
L 303.229316 27.10579 
L 304.741713 21.23954 
L 306.002044 17.295122 
L 307.010308 14.824739 
L 307.766507 13.402972 
L 308.522705 12.373046 
L 309.278903 11.755114 
L 309.783035 11.581996 
L 311.799564 11.567812 
L 360.700391 11.567812 
L 360.700391 11.567812 
" clip-path="url(#pb9b696a4f1)" style="fill: none; stroke: #f668be; stroke-opacity: 0.75; stroke-width: 3; stroke-linecap: round"/>
   </g>
   <g id="line2d_22">
    <path d="M 102.836754 26.715353 
L 107.626011 26.802223 
L 108.382209 27.186089 
L 109.138407 27.863255 
L 109.894606 28.819497 
L 110.90287 30.504015 
L 111.911135 32.625655 
L 113.171465 35.841039 
L 114.683862 40.438785 
L 116.448325 46.678301 
L 118.464854 54.742364 
L 120.985515 65.827062 
L 130.564027 109.159395 
L 132.580556 116.716545 
L 134.092953 121.643506 
L 135.60535 125.808958 
L 136.86568 128.616353 
L 137.873945 130.380352 
L 138.882209 131.679451 
L 139.638407 132.328399 
L 140.394606 132.682647 
L 141.150804 132.74814 
L 149.721052 132.701551 
L 150.47725 132.34397 
L 151.233449 131.647367 
L 151.989647 130.628001 
L 152.997912 128.794871 
L 154.006176 126.45538 
L 155.266507 122.877657 
L 156.526837 118.644231 
L 158.039234 112.804568 
L 159.803697 105.108758 
L 162.072292 94.135009 
L 165.349151 76.973131 
L 170.894606 47.800736 
L 173.163201 37.051758 
L 174.927664 29.59434 
L 176.44006 24.003287 
L 177.952457 19.288928 
L 179.212788 16.123828 
L 180.221052 14.145707 
L 181.229316 12.701744 
L 181.985515 11.992497 
L 182.741713 11.621648 
L 183.497912 11.567812 
L 234.667333 11.664268 
L 235.675597 12.060918 
L 236.683862 12.746443 
L 237.692126 13.701575 
L 238.952457 15.245267 
L 240.212788 17.142478 
L 241.725184 19.832784 
L 243.489647 23.459621 
L 245.506176 28.121836 
L 248.278903 35.160599 
L 256.849151 57.446644 
L 258.86568 61.913189 
L 260.630143 65.320359 
L 262.14254 67.786383 
L 263.40287 69.47131 
L 264.663201 70.779646 
L 265.671465 71.529878 
L 266.67973 71.995736 
L 267.435928 72.146918 
L 270.208655 72.157976 
L 318.857416 72.216186 
L 319.613614 72.594605 
L 320.369812 73.311068 
L 321.126011 74.349317 
L 322.134275 76.206104 
L 323.14254 78.567515 
L 324.40287 82.170194 
L 325.663201 86.425863 
L 327.175597 92.288633 
L 328.94006 100.006461 
L 331.208655 111.000701 
L 334.485515 128.176649 
L 340.030969 157.331048 
L 342.299564 168.057517 
L 344.064027 175.491348 
L 345.576424 181.057947 
L 347.088821 185.743944 
L 348.349151 188.882424 
L 349.357416 190.837293 
L 350.36568 192.256267 
L 351.121878 192.945633 
L 351.878077 193.295623 
L 352.886341 193.338304 
L 360.700391 193.338304 
L 360.700391 193.338304 
" clip-path="url(#pb9b696a4f1)" style="fill: none; stroke: #f35cf4; stroke-opacity: 0.75; stroke-width: 3; stroke-linecap: round"/>
   </g>
   <g id="line2d_23">
    <path d="M 102.836754 41.862894 
L 107.626011 41.973754 
L 108.130143 42.257852 
L 108.886341 42.999275 
L 109.64254 44.102894 
L 110.650804 46.106425 
L 111.659069 48.678552 
L 112.919399 52.627742 
L 114.17973 57.314077 
L 115.692126 63.792371 
L 117.456589 72.345257 
L 119.725184 84.561116 
L 122.749978 102.191959 
L 128.799564 137.70126 
L 131.068159 149.604624 
L 132.832622 157.828041 
L 134.345019 163.963749 
L 135.60535 168.322158 
L 136.86568 171.904842 
L 137.873945 174.155987 
L 138.882209 175.813844 
L 139.638407 176.642005 
L 140.394606 177.094082 
L 141.150804 177.177662 
L 277.770639 177.284801 
L 279.535102 177.629734 
L 281.551631 178.28094 
L 283.568159 179.166873 
L 286.088821 180.541739 
L 289.113614 182.477835 
L 294.154936 186.038865 
L 298.692126 189.143242 
L 301.464854 190.784264 
L 303.733449 191.890866 
L 305.749978 192.645197 
L 307.51444 193.094464 
L 309.278903 193.318154 
L 312.051631 193.338304 
L 319.86568 193.253128 
L 321.630143 192.930989 
L 323.394606 192.394884 
L 325.411135 191.555527 
L 327.67973 190.371398 
L 330.452457 188.661687 
L 334.485515 185.867639 
L 340.787168 181.486422 
L 343.559895 179.828291 
L 345.82849 178.702596 
L 347.845019 177.927445 
L 349.609482 177.456989 
L 351.373945 177.209335 
L 353.64254 177.177662 
L 360.700391 177.177662 
L 360.700391 177.177662 
" clip-path="url(#pb9b696a4f1)" style="fill: none; stroke: #b486f4; stroke-opacity: 0.75; stroke-width: 3; stroke-linecap: round"/>
   </g>
   <g id="line2d_24">
    <path d="M 102.836754 57.010435 
L 107.878077 56.932711 
L 108.886341 56.628806 
L 109.894606 56.10866 
L 111.154936 55.176403 
L 112.415267 53.957076 
L 113.927664 52.154691 
L 115.692126 49.645881 
L 117.708655 46.338087 
L 120.229316 41.711826 
L 124.010308 34.214164 
L 128.547498 25.293928 
L 131.068159 20.827638 
L 133.084688 17.701393 
L 134.849151 15.390501 
L 136.361548 13.786779 
L 137.621878 12.753464 
L 138.882209 12.025822 
L 139.890474 11.68276 
L 140.898738 11.567812 
L 149.721052 11.644685 
L 150.225184 11.974546 
L 150.729316 12.556996 
L 151.485515 13.886891 
L 152.241713 15.740403 
L 153.249978 18.979903 
L 154.258242 23.039001 
L 155.518573 29.168561 
L 157.030969 37.908441 
L 158.795432 49.74253 
L 160.811961 65.009338 
L 163.332622 85.960886 
L 172.659069 165.69091 
L 174.675597 180.108476 
L 176.187994 189.553939 
L 177.700391 197.588626 
L 178.960721 203.051693 
L 179.968986 206.525996 
L 180.97725 209.134836 
L 181.733449 210.485254 
L 182.237581 211.081956 
L 182.741713 211.426525 
L 183.245845 211.515353 
L 192.068159 211.406006 
L 192.572292 211.038378 
L 193.076424 210.419333 
L 193.832622 209.036745 
L 194.588821 207.133179 
L 195.597085 203.831044 
L 196.60535 199.714003 
L 197.86568 193.518609 
L 199.378077 184.709406 
L 201.14254 172.807777 
L 203.159069 157.481372 
L 205.67973 136.481714 
L 215.006176 56.828601 
L 217.022705 42.480436 
L 218.535102 33.099338 
L 220.047498 25.139571 
L 221.307829 19.746999 
L 222.316093 16.334369 
L 223.072292 14.342458 
L 223.82849 12.866834 
L 224.584688 11.934325 
L 225.088821 11.627629 
L 225.845019 11.567812 
L 276.510308 11.627606 
L 277.01444 11.914085 
L 277.518573 12.430606 
L 278.274771 13.620909 
L 279.030969 15.28816 
L 280.039234 18.210932 
L 281.047498 21.880451 
L 282.307829 27.429398 
L 283.820226 35.350106 
L 285.332622 44.463253 
L 287.349151 58.131815 
L 289.869812 77.006352 
L 294.154936 111.236202 
L 297.683862 138.773226 
L 299.952457 154.918042 
L 301.71692 166.126578 
L 303.229316 174.536406 
L 304.489647 180.551182 
L 305.749978 185.542423 
L 306.758242 188.7226 
L 307.766507 191.117649 
L 308.522705 192.363923 
L 309.278903 193.111659 
L 309.783035 193.321141 
L 311.547498 193.338304 
L 319.109482 193.228965 
L 319.86568 192.859285 
L 320.621878 192.240137 
L 321.630143 191.047618 
L 322.638407 189.462181 
L 323.898738 186.971875 
L 325.159069 183.969246 
L 326.671465 179.769309 
L 328.435928 174.169838 
L 330.704523 166.101999 
L 333.729316 154.356066 
L 340.283035 128.524965 
L 342.551631 120.576129 
L 344.316093 115.100726 
L 345.82849 111.029077 
L 347.088821 108.148828 
L 348.349151 105.794969 
L 349.357416 104.328817 
L 350.36568 103.264586 
L 351.121878 102.747562 
L 351.878077 102.48507 
L 352.886341 102.453058 
L 360.700391 102.453058 
L 360.700391 102.453058 
" clip-path="url(#pb9b696a4f1)" style="fill: none; stroke: #639df4; stroke-opacity: 0.75; stroke-width: 3; stroke-linecap: round"/>
   </g>
   <g id="line2d_25">
    <path d="M 102.836754 72.157976 
L 107.878077 72.054343 
L 108.886341 71.649137 
L 109.894606 70.955609 
L 110.90287 69.993027 
L 112.163201 68.440799 
L 113.423531 66.535917 
L 114.935928 63.837545 
L 116.700391 60.202869 
L 118.71692 55.533769 
L 121.489647 48.48915 
L 130.059895 26.211434 
L 132.076424 21.752653 
L 133.840887 18.35409 
L 135.353283 15.896791 
L 136.613614 14.220085 
L 137.873945 12.920834 
L 138.882209 12.178492 
L 139.890474 11.721076 
L 140.646672 11.576589 
L 143.923531 11.567812 
L 360.700391 11.567812 
L 360.700391 11.567812 
" clip-path="url(#pb9b696a4f1)" style="fill: none; stroke: #39a8cc; stroke-opacity: 0.75; stroke-width: 3; stroke-linecap: round"/>
   </g>
   <g id="line2d_26">
    <path d="M 102.836754 87.305517 
L 107.626011 87.407279 
L 108.382209 87.85695 
L 109.138407 88.650203 
L 109.894606 89.770371 
L 110.90287 91.743664 
L 111.911135 94.229014 
L 113.171465 97.995606 
L 114.683862 103.381537 
L 116.448325 110.690685 
L 118.464854 120.137159 
L 120.985515 133.12209 
L 130.564027 183.882823 
L 132.580556 192.735485 
L 134.092953 198.507068 
L 135.60535 203.386597 
L 136.86568 206.675259 
L 137.873945 208.741659 
L 138.882209 210.26346 
L 139.638407 211.023656 
L 140.394606 211.438632 
L 141.150804 211.515353 
L 150.729316 211.425428 
L 152.493779 211.069703 
L 154.258242 210.472518 
L 156.274771 209.534096 
L 158.543366 208.207346 
L 161.316093 206.288782 
L 165.097085 203.351581 
L 171.650804 198.21755 
L 174.423531 196.347687 
L 176.692126 195.076107 
L 178.708655 194.198306 
L 180.473118 193.663102 
L 182.237581 193.377704 
L 184.25411 193.338304 
L 193.076424 193.437943 
L 194.840887 193.804471 
L 196.60535 194.411154 
L 198.621878 195.358832 
L 200.890474 196.693957 
L 203.663201 198.619823 
L 207.444193 201.561786 
L 213.997912 206.689864 
L 216.770639 208.551785 
L 219.039234 209.814467 
L 221.055763 210.682549 
L 222.820226 211.207847 
L 224.584688 211.482034 
L 226.601217 211.515353 
L 235.423531 211.405521 
L 237.187994 211.028244 
L 238.952457 210.412117 
L 240.968986 209.455246 
L 243.237581 208.111819 
L 246.010308 206.178736 
L 249.7913 203.232129 
L 256.092953 198.292491 
L 258.86568 196.411741 
L 261.134275 195.127921 
L 263.150804 194.236723 
L 264.915267 193.687854 
L 266.67973 193.386976 
L 268.444193 193.338304 
L 277.518573 193.424584 
L 279.283035 193.776091 
L 281.047498 194.369568 
L 283.064027 195.304373 
L 285.332622 196.627848 
L 287.853283 198.358703 
L 291.382209 201.075351 
L 298.692126 206.796861 
L 301.464854 208.642638 
L 303.733449 209.887315 
L 305.749978 210.735765 
L 307.51444 211.241088 
L 309.026837 211.473454 
L 310.7913 211.515353 
L 360.700391 211.515353 
L 360.700391 211.515353 
" clip-path="url(#pb9b696a4f1)" style="fill: none; stroke: #36abb0; stroke-opacity: 0.75; stroke-width: 3; stroke-linecap: round"/>
   </g>
   <g id="line2d_27">
    <path d="M 102.836754 102.453058 
L 107.626011 102.383442 
L 108.382209 102.075819 
L 109.138407 101.533149 
L 110.146672 100.463666 
L 111.154936 99.023612 
L 112.415267 96.743599 
L 113.675597 93.979573 
L 115.187994 90.098159 
L 116.952457 84.90667 
L 118.968986 78.276369 
L 121.741713 68.327866 
L 129.555763 39.690357 
L 131.572292 33.253869 
L 133.336754 28.282842 
L 134.849151 24.628189 
L 136.109482 22.079779 
L 137.369812 20.03961 
L 138.378077 18.808874 
L 139.386341 17.964214 
L 140.14254 17.600336 
L 140.898738 17.480166 
L 151.989647 17.376725 
L 155.01444 17.036176 
L 158.543366 16.404188 
L 163.080556 15.344364 
L 174.927664 12.447322 
L 178.456589 11.878455 
L 181.481383 11.609817 
L 184.758242 11.567812 
L 276.762374 11.642046 
L 277.518573 11.936271 
L 278.274771 12.444592 
L 279.283035 13.437393 
L 280.2913 14.767609 
L 281.551631 16.867261 
L 282.811961 19.407335 
L 284.324358 22.968894 
L 286.088821 27.726711 
L 288.357416 34.593905 
L 291.382209 44.609055 
L 298.187994 67.482726 
L 300.456589 74.21197 
L 302.221052 78.826727 
L 303.733449 82.240755 
L 304.993779 84.640324 
L 306.25411 86.583504 
L 307.262374 87.777047 
L 308.270639 88.622956 
L 309.026837 89.014403 
L 309.783035 89.186005 
L 313.816093 89.193334 
L 318.857416 89.252092 
L 319.613614 89.634077 
L 320.369812 90.35729 
L 321.126011 91.40532 
L 322.134275 93.279602 
L 323.14254 95.66326 
L 324.40287 99.299882 
L 325.663201 103.595645 
L 327.175597 109.51365 
L 328.94006 117.304192 
L 331.208655 128.402012 
L 334.485515 145.739782 
L 340.030969 175.168858 
L 342.299564 185.996386 
L 344.064027 193.500253 
L 345.576424 199.119298 
L 347.088821 203.849444 
L 348.349151 207.017492 
L 349.357416 208.990779 
L 350.36568 210.423122 
L 351.121878 211.118983 
L 351.878077 211.47227 
L 352.886341 211.515353 
L 360.700391 211.515353 
L 360.700391 211.515353 
" clip-path="url(#pb9b696a4f1)" style="fill: none; stroke: #35ae97; stroke-opacity: 0.75; stroke-width: 3; stroke-linecap: round"/>
   </g>
   <g id="line2d_28">
    <path d="M 102.836754 117.600599 
L 107.878077 117.522875 
L 108.886341 117.21897 
L 109.894606 116.698824 
L 111.154936 115.766567 
L 112.415267 114.54724 
L 113.927664 112.744855 
L 115.692126 110.236045 
L 117.708655 106.928251 
L 120.229316 102.30199 
L 124.010308 94.804328 
L 128.547498 85.884092 
L 131.068159 81.417802 
L 133.084688 78.291557 
L 134.849151 75.980665 
L 136.361548 74.376942 
L 137.621878 73.343628 
L 138.882209 72.615986 
L 139.890474 72.272924 
L 140.898738 72.157976 
L 149.721052 72.211554 
L 150.225184 72.441457 
L 150.981383 73.114669 
L 151.737581 74.165292 
L 152.493779 75.574627 
L 153.502044 77.979424 
L 154.510308 80.944376 
L 155.770639 85.370768 
L 157.283035 91.624477 
L 159.047498 100.030295 
L 161.064027 110.80961 
L 163.836754 127.04641 
L 172.154936 176.87492 
L 174.171465 187.23866 
L 175.935928 195.175956 
L 177.448325 200.950154 
L 178.708655 204.922011 
L 179.71692 207.487371 
L 180.725184 209.460608 
L 181.481383 210.525296 
L 182.237581 211.213289 
L 182.741713 211.453442 
L 183.497912 211.515353 
L 234.415267 211.412573 
L 234.919399 211.130145 
L 235.675597 210.381211 
L 236.431796 209.258545 
L 237.187994 207.780844 
L 238.196259 205.290614 
L 239.456589 201.404497 
L 240.71692 196.739914 
L 242.229316 190.236714 
L 243.993779 181.589925 
L 246.262374 169.161328 
L 249.287168 151.109445 
L 255.840887 111.552138 
L 258.109482 99.426062 
L 259.873945 91.094666 
L 261.386341 84.917588 
L 262.646672 80.564108 
L 263.907002 77.024853 
L 264.915267 74.837859 
L 265.671465 73.602603 
L 266.427664 72.735256 
L 267.183862 72.254514 
L 267.687994 72.158033 
L 318.857416 72.224917 
L 319.361548 72.470921 
L 320.117746 73.167347 
L 320.873945 74.24006 
L 321.630143 75.670361 
L 322.638407 78.101365 
L 323.646672 81.090526 
L 324.907002 85.54437 
L 326.419399 91.826899 
L 328.183862 100.26066 
L 330.200391 111.064417 
L 332.973118 127.321777 
L 341.039234 175.748393 
L 343.055763 186.234884 
L 344.820226 194.309386 
L 346.332622 200.223326 
L 347.592953 204.327243 
L 348.601217 207.008468 
L 349.609482 209.106653 
L 350.36568 210.27101 
L 351.121878 211.063782 
L 351.878077 211.466269 
L 352.634275 211.515353 
L 360.700391 211.515353 
L 360.700391 211.515353 
" clip-path="url(#pb9b696a4f1)" style="fill: none; stroke: #33b16f; stroke-opacity: 0.75; stroke-width: 3; stroke-linecap: round"/>
   </g>
   <g id="line2d_29">
    <path d="M 102.836754 132.74814 
L 107.626011 132.678644 
L 108.382209 132.371552 
L 109.138407 131.829819 
L 110.146672 130.762181 
L 111.154936 129.324614 
L 112.415267 127.048536 
L 113.675597 124.289281 
L 115.187994 120.414565 
L 116.952457 115.232037 
L 118.968986 108.61318 
L 121.741713 98.681848 
L 129.555763 70.093768 
L 131.824358 62.917973 
L 133.588821 58.056281 
L 135.101217 54.510734 
L 136.361548 52.063981 
L 137.621878 50.135127 
L 138.630143 49.000339 
L 139.386341 48.405123 
L 140.14254 48.041874 
L 140.898738 47.921911 
L 149.721052 47.984806 
L 150.225184 48.254692 
L 150.729316 48.731243 
L 151.485515 49.819339 
L 152.241713 51.335849 
L 153.249978 53.986349 
L 154.258242 57.307429 
L 155.518573 62.322524 
L 157.030969 69.473334 
L 158.795432 79.155771 
L 160.811961 91.646796 
L 163.332622 108.788971 
L 172.659069 174.022627 
L 174.675597 185.818818 
L 176.187994 193.546924 
L 177.700391 200.120758 
L 178.960721 204.59054 
L 179.968986 207.433152 
L 180.97725 209.567658 
L 181.733449 210.672545 
L 182.489647 211.327908 
L 182.993779 211.504244 
L 185.766507 211.515353 
L 234.163201 211.477915 
L 234.667333 211.225988 
L 235.171465 210.742954 
L 235.927664 209.600881 
L 236.683862 207.979461 
L 237.692126 205.114067 
L 238.700391 201.497661 
L 239.960721 196.009109 
L 241.221052 189.550327 
L 242.733449 180.678053 
L 244.497912 169.027014 
L 246.766507 152.466785 
L 250.043366 126.656318 
L 255.336754 84.865575 
L 257.60535 68.666354 
L 259.369812 57.400579 
L 260.882209 48.931294 
L 262.394606 41.763722 
L 263.654936 36.925863 
L 264.663201 33.879853 
L 265.419399 32.114109 
L 266.175597 30.820117 
L 266.931796 30.022263 
L 267.435928 29.778036 
L 268.444193 29.744862 
L 276.510308 29.804656 
L 277.01444 30.091135 
L 277.518573 30.607655 
L 278.274771 31.797958 
L 279.030969 33.46521 
L 280.039234 36.387981 
L 281.047498 40.0575 
L 282.307829 45.606447 
L 283.820226 53.527155 
L 285.332622 62.640302 
L 287.349151 76.308864 
L 289.869812 95.183401 
L 294.154936 129.413251 
L 297.683862 156.950276 
L 299.952457 173.095092 
L 301.71692 184.303627 
L 303.229316 192.713456 
L 304.489647 198.728231 
L 305.749978 203.719472 
L 306.758242 206.899649 
L 307.766507 209.294698 
L 308.522705 210.540972 
L 309.278903 211.288708 
L 309.783035 211.49819 
L 311.547498 211.515353 
L 318.857416 211.43386 
L 319.361548 211.134378 
L 319.86568 210.621185 
L 320.621878 209.465441 
L 321.378077 207.866783 
L 322.386341 205.085605 
L 323.394606 201.611442 
L 324.654936 196.376424 
L 326.167333 188.92477 
L 327.931796 178.848643 
L 329.948325 165.864016 
L 332.468986 148.061912 
L 341.795432 80.451752 
L 343.811961 68.254581 
L 345.324358 60.273571 
L 346.836754 53.495056 
L 348.097085 48.896236 
L 349.10535 45.980286 
L 350.113614 43.801101 
L 350.869812 42.68267 
L 351.626011 42.03178 
L 352.130143 41.868838 
L 356.919399 41.862894 
L 360.700391 41.862894 
L 360.700391 41.862894 
" clip-path="url(#pb9b696a4f1)" style="fill: none; stroke: #71ac31; stroke-opacity: 0.75; stroke-width: 3; stroke-linecap: round"/>
   </g>
   <g id="line2d_30">
    <path d="M 102.836754 147.895681 
L 107.373945 147.861544 
L 107.878077 147.662507 
L 108.634275 147.041233 
L 109.390474 146.048954 
L 110.146672 144.703962 
L 111.154936 142.393585 
L 112.163201 139.532032 
L 113.423531 135.246047 
L 114.935928 129.17471 
L 116.700391 120.996691 
L 118.71692 110.491215 
L 121.237581 96.128686 
L 130.311961 43.197562 
L 132.32849 33.320556 
L 134.092953 25.845199 
L 135.60535 20.489619 
L 136.86568 16.880111 
L 137.873945 14.612112 
L 138.882209 12.941842 
L 139.638407 12.10748 
L 140.394606 11.652019 
L 141.150804 11.567812 
L 149.721052 11.644685 
L 150.225184 11.974546 
L 150.729316 12.556996 
L 151.485515 13.886891 
L 152.241713 15.740403 
L 153.249978 18.979903 
L 154.258242 23.039001 
L 155.518573 29.168561 
L 157.030969 37.908441 
L 158.795432 49.74253 
L 160.811961 65.009338 
L 163.332622 85.960886 
L 172.659069 165.69091 
L 174.675597 180.108476 
L 176.187994 189.553939 
L 177.700391 197.588626 
L 178.960721 203.051693 
L 179.968986 206.525996 
L 180.97725 209.134836 
L 181.733449 210.485254 
L 182.237581 211.081956 
L 182.741713 211.426525 
L 183.245845 211.515353 
L 192.068159 211.406006 
L 192.572292 211.038378 
L 193.076424 210.419333 
L 193.832622 209.036745 
L 194.588821 207.133179 
L 195.597085 203.831044 
L 196.60535 199.714003 
L 197.86568 193.518609 
L 199.378077 184.709406 
L 201.14254 172.807777 
L 203.159069 157.481372 
L 205.67973 136.481714 
L 215.006176 56.828601 
L 217.022705 42.480436 
L 218.535102 33.099338 
L 220.047498 25.139571 
L 221.307829 19.746999 
L 222.316093 16.334369 
L 223.072292 14.342458 
L 223.82849 12.866834 
L 224.584688 11.934325 
L 225.088821 11.627629 
L 225.845019 11.567812 
L 234.163201 11.608995 
L 234.667333 11.886114 
L 235.171465 12.417452 
L 235.927664 13.673732 
L 236.683862 15.457294 
L 237.692126 18.609227 
L 238.700391 22.587274 
L 239.960721 28.624682 
L 241.221052 35.729342 
L 242.733449 45.488843 
L 244.497912 58.304985 
L 246.766507 76.521238 
L 250.043366 104.912752 
L 255.336754 150.882569 
L 257.60535 168.701711 
L 259.369812 181.094064 
L 260.882209 190.410278 
L 262.394606 198.294607 
L 263.654936 203.616252 
L 264.663201 206.966863 
L 265.419399 208.909181 
L 266.175597 210.332573 
L 266.931796 211.210212 
L 267.435928 211.478862 
L 268.444193 211.515353 
L 360.700391 211.515353 
L 360.700391 211.515353 
" clip-path="url(#pb9b696a4f1)" style="fill: none; stroke: #a0a131; stroke-opacity: 0.75; stroke-width: 3; stroke-linecap: round"/>
   </g>
   <g id="line2d_31">
    <path d="M 102.836754 163.043222 
L 107.373945 163.005291 
L 107.878077 162.784139 
L 108.382209 162.370743 
L 109.138407 161.403362 
L 109.894606 160.037303 
L 110.90287 157.630849 
L 111.911135 154.599934 
L 113.171465 150.006529 
L 114.683862 143.43832 
L 116.196259 135.871527 
L 118.212788 124.510118 
L 120.733449 108.805447 
L 125.018573 80.290406 
L 128.799564 55.758881 
L 131.068159 42.433898 
L 132.832622 33.228359 
L 134.345019 26.359864 
L 135.60535 21.48093 
L 136.86568 17.470366 
L 137.873945 14.950367 
L 138.882209 13.094512 
L 139.638407 12.167443 
L 140.394606 11.661375 
L 140.898738 11.567812 
L 149.721052 11.644685 
L 150.225184 11.974546 
L 150.729316 12.556996 
L 151.485515 13.886891 
L 152.241713 15.740403 
L 153.249978 18.979903 
L 154.258242 23.039001 
L 155.518573 29.168561 
L 157.030969 37.908441 
L 158.795432 49.74253 
L 160.811961 65.009338 
L 163.332622 85.960886 
L 172.659069 165.69091 
L 174.675597 180.108476 
L 176.187994 189.553939 
L 177.700391 197.588626 
L 178.960721 203.051693 
L 179.968986 206.525996 
L 180.97725 209.134836 
L 181.733449 210.485254 
L 182.237581 211.081956 
L 182.741713 211.426525 
L 183.245845 211.515353 
L 193.076424 211.415715 
L 194.840887 211.049187 
L 196.60535 210.442503 
L 198.621878 209.494826 
L 200.890474 208.159701 
L 203.663201 206.233835 
L 207.444193 203.291872 
L 213.997912 198.163794 
L 216.770639 196.301873 
L 219.039234 195.03919 
L 221.055763 194.171109 
L 222.820226 193.645811 
L 224.584688 193.371624 
L 226.601217 193.338304 
L 234.163201 193.300866 
L 234.667333 193.048939 
L 235.171465 192.565905 
L 235.927664 191.423832 
L 236.683862 189.802412 
L 237.692126 186.937018 
L 238.700391 183.320612 
L 239.960721 177.83206 
L 241.221052 171.373277 
L 242.733449 162.501004 
L 244.497912 150.849965 
L 246.766507 134.289735 
L 250.043366 108.479268 
L 255.336754 66.688525 
L 257.60535 50.489305 
L 259.369812 39.22353 
L 260.882209 30.754244 
L 262.394606 23.586673 
L 263.654936 18.748814 
L 264.663201 15.702804 
L 265.419399 13.93706 
L 266.175597 12.643068 
L 266.931796 11.845214 
L 267.435928 11.600987 
L 268.444193 11.567812 
L 276.510308 11.633586 
L 277.01444 11.948713 
L 277.518573 12.516885 
L 278.274771 13.826219 
L 279.030969 15.660195 
L 280.039234 18.875244 
L 281.047498 22.911715 
L 282.307829 29.015556 
L 283.820226 37.728336 
L 285.332622 47.752797 
L 287.349151 62.788215 
L 289.869812 83.550205 
L 294.154936 121.203041 
L 297.683862 151.493768 
L 299.952457 169.253065 
L 301.71692 181.582454 
L 303.229316 190.833266 
L 304.489647 197.449519 
L 305.749978 202.939884 
L 306.758242 206.438078 
L 307.766507 209.072633 
L 308.522705 210.443534 
L 309.026837 211.054462 
L 309.530969 211.413712 
L 310.035102 211.515353 
L 360.700391 211.515353 
L 360.700391 211.515353 
" clip-path="url(#pb9b696a4f1)" style="fill: none; stroke: #c19632; stroke-opacity: 0.75; stroke-width: 3; stroke-linecap: round"/>
   </g>
   <g id="line2d_32">
    <path d="M 102.836754 178.190763 
L 108.130143 178.288031 
L 109.390474 178.642185 
L 110.650804 179.235837 
L 112.163201 180.235211 
L 113.675597 181.513887 
L 115.44006 183.310964 
L 117.456589 185.697795 
L 119.97725 189.056684 
L 123.758242 194.535466 
L 128.799564 201.793318 
L 131.320226 205.029439 
L 133.336754 207.27877 
L 135.101217 208.926887 
L 136.613614 210.056604 
L 138.126011 210.887375 
L 139.386341 211.32552 
L 140.646672 211.510526 
L 146.696259 211.515353 
L 149.721052 211.464688 
L 150.225184 211.247279 
L 150.981383 210.610655 
L 151.737581 209.617131 
L 152.493779 208.28439 
L 153.502044 206.010289 
L 154.510308 203.206475 
L 155.770639 199.020648 
L 157.283035 193.106815 
L 159.047498 185.157835 
L 161.064027 174.964352 
L 163.836754 159.609987 
L 172.154936 112.489548 
L 174.171465 102.689055 
L 175.935928 95.183133 
L 177.448325 89.72275 
L 178.708655 85.966756 
L 179.71692 83.540818 
L 180.725184 81.674821 
L 181.481383 80.667997 
L 182.237581 80.017395 
L 182.741713 79.790293 
L 183.497912 79.731747 
L 192.068159 79.803817 
L 192.572292 80.046117 
L 193.32849 80.71863 
L 194.084688 81.746303 
L 194.840887 83.111455 
L 195.849151 85.426066 
L 196.857416 88.267296 
L 198.117746 92.495547 
L 199.630143 98.453912 
L 201.394606 106.446054 
L 203.411135 116.677271 
L 206.183862 132.063328 
L 214.249978 177.841999 
L 216.266507 187.742533 
L 218.030969 195.360224 
L 219.543366 200.934413 
L 220.803697 204.797939 
L 221.811961 207.318212 
L 222.820226 209.285929 
L 223.576424 210.37389 
L 224.332622 211.109784 
L 225.088821 211.475929 
L 226.097085 211.515353 
L 360.700391 211.515353 
L 360.700391 211.515353 
" clip-path="url(#pb9b696a4f1)" style="fill: none; stroke: #eb8032; stroke-opacity: 0.75; stroke-width: 3; stroke-linecap: round"/>
   </g>
   <g id="line2d_33">
    <path d="M 102.836754 193.338304 
L 108.382209 193.419002 
L 109.894606 193.699015 
L 111.659069 194.253862 
L 113.675597 195.150917 
L 115.944193 196.440078 
L 118.464854 198.142935 
L 121.741713 200.638224 
L 130.059895 207.122267 
L 132.580556 208.76708 
L 134.849151 209.986278 
L 136.86568 210.807047 
L 138.630143 211.284262 
L 140.14254 211.489647 
L 142.411135 211.515353 
L 149.973118 211.408685 
L 150.729316 211.012263 
L 151.485515 210.335889 
L 152.241713 209.393208 
L 153.249978 207.745626 
L 154.258242 205.681202 
L 155.518573 202.563759 
L 157.030969 198.118729 
L 158.795432 192.100009 
L 160.811961 184.335437 
L 163.332622 173.679654 
L 172.659069 133.129626 
L 174.675597 125.796971 
L 176.44006 120.25925 
L 177.952457 116.303072 
L 179.212788 113.646994 
L 180.221052 111.987002 
L 181.229316 110.775263 
L 181.985515 110.180079 
L 182.741713 109.868872 
L 183.749978 109.823694 
L 198.873945 109.716078 
L 210.721052 109.28188 
L 222.064027 108.941486 
L 231.64254 108.916343 
L 234.415267 108.992013 
L 235.171465 109.352318 
L 235.927664 109.996952 
L 236.683862 110.912151 
L 237.692126 112.529501 
L 238.700391 114.570755 
L 239.960721 117.668728 
L 241.473118 122.103571 
L 243.237581 128.127344 
L 245.25411 135.918133 
L 247.774771 146.633969 
L 253.068159 170.514673 
L 256.092953 183.551813 
L 258.361548 192.364528 
L 260.126011 198.380461 
L 261.638407 202.807281 
L 262.898738 205.897648 
L 264.159069 208.375813 
L 265.167333 209.874735 
L 265.923531 210.695408 
L 266.67973 211.240627 
L 267.435928 211.496628 
L 268.948325 211.515353 
L 360.700391 211.515353 
L 360.700391 211.515353 
" clip-path="url(#pb9b696a4f1)" style="fill: none; stroke: #f77189; stroke-opacity: 0.75; stroke-width: 3; stroke-linecap: round"/>
   </g>
  </g>
  <g id="axes_2">
   <g id="matplotlib.axis_3">
    <g id="ytick_14">
     <g id="line2d_34">
      <path d="M 98.609482 213.333058 
L 377.609482 213.333058 
" clip-path="url(#pb9b696a4f1)" style="fill: none; stroke: #ffffff; stroke-linecap: round"/>
     </g>
     <g id="line2d_35">
      <defs>
       <path id="m274784f18a" d="M 0 0 
L 6 0 
" style="stroke: #262626; stroke-width: 1.25"/>
      </defs>
      <g>
       <use xlink:href="#m274784f18a" x="377.609482" y="213.333058" style="fill: #262626; stroke: #262626; stroke-width: 1.25"/>
      </g>
     </g>
     <g id="text_21">
      <!-- N/A -->
      <g transform="translate(395.698857 229.042746) rotate(-90) scale(0.12 -0.12)">
       <defs>
        <path id="ArialMT-2f" d="M 0 -78 
L 1328 4659 
L 1778 4659 
L 453 -78 
L 0 -78 
z
" transform="scale(0.015625)"/>
       </defs>
       <use xlink:href="#ArialMT-4e"/>
       <use xlink:href="#ArialMT-2f" x="72.216797"/>
       <use xlink:href="#ArialMT-41" x="100"/>
      </g>
     </g>
    </g>
    <g id="ytick_15">
     <g id="line2d_36">
      <path d="M 98.609482 164.860927 
L 377.609482 164.860927 
" clip-path="url(#pb9b696a4f1)" style="fill: none; stroke: #ffffff; stroke-linecap: round"/>
     </g>
     <g id="line2d_37">
      <g>
       <use xlink:href="#m274784f18a" x="377.609482" y="164.860927" style="fill: #262626; stroke: #262626; stroke-width: 1.25"/>
      </g>
     </g>
     <g id="text_22">
      <!-- Low -->
      <g transform="translate(395.698857 182.57874) rotate(-90) scale(0.12 -0.12)">
       <defs>
        <path id="ArialMT-77" d="M 1034 0 
L 19 3319 
L 600 3319 
L 1128 1403 
L 1325 691 
Q 1338 744 1497 1375 
L 2025 3319 
L 2603 3319 
L 3100 1394 
L 3266 759 
L 3456 1400 
L 4025 3319 
L 4572 3319 
L 3534 0 
L 2950 0 
L 2422 1988 
L 2294 2553 
L 1622 0 
L 1034 0 
z
" transform="scale(0.015625)"/>
       </defs>
       <use xlink:href="#ArialMT-4c"/>
       <use xlink:href="#ArialMT-6f" x="55.615234"/>
       <use xlink:href="#ArialMT-77" x="111.230469"/>
      </g>
     </g>
    </g>
    <g id="ytick_16">
     <g id="line2d_38">
      <path d="M 98.609482 102.453058 
L 377.609482 102.453058 
" clip-path="url(#pb9b696a4f1)" style="fill: none; stroke: #ffffff; stroke-linecap: round"/>
     </g>
     <g id="line2d_39">
      <g>
       <use xlink:href="#m274784f18a" x="377.609482" y="102.453058" style="fill: #262626; stroke: #262626; stroke-width: 1.25"/>
      </g>
     </g>
     <g id="text_23">
      <!-- Med -->
      <g transform="translate(395.698857 121.500246) rotate(-90) scale(0.12 -0.12)">
       <defs>
        <path id="ArialMT-4d" d="M 475 0 
L 475 4581 
L 1388 4581 
L 2472 1338 
Q 2622 884 2691 659 
Q 2769 909 2934 1394 
L 4031 4581 
L 4847 4581 
L 4847 0 
L 4263 0 
L 4263 3834 
L 2931 0 
L 2384 0 
L 1059 3900 
L 1059 0 
L 475 0 
z
" transform="scale(0.015625)"/>
       </defs>
       <use xlink:href="#ArialMT-4d"/>
       <use xlink:href="#ArialMT-65" x="83.300781"/>
       <use xlink:href="#ArialMT-64" x="138.916016"/>
      </g>
     </g>
    </g>
    <g id="ytick_17">
     <g id="line2d_40">
      <path d="M 98.609482 40.04519 
L 377.609482 40.04519 
" clip-path="url(#pb9b696a4f1)" style="fill: none; stroke: #ffffff; stroke-linecap: round"/>
     </g>
     <g id="line2d_41">
      <g>
       <use xlink:href="#m274784f18a" x="377.609482" y="40.04519" style="fill: #262626; stroke: #262626; stroke-width: 1.25"/>
      </g>
     </g>
     <g id="text_24">
      <!-- High -->
      <g transform="translate(395.698857 60.429252) rotate(-90) scale(0.12 -0.12)">
       <use xlink:href="#ArialMT-48"/>
       <use xlink:href="#ArialMT-69" x="72.216797"/>
       <use xlink:href="#ArialMT-67" x="94.433594"/>
       <use xlink:href="#ArialMT-68" x="150.048828"/>
      </g>
     </g>
    </g>
    <g id="text_25">
     <!-- Relative Feature Value -->
     <g transform="translate(412.961201 194.547168) rotate(-90) scale(0.15 -0.15)">
      <defs>
       <path id="ArialMT-76" d="M 1344 0 
L 81 3319 
L 675 3319 
L 1388 1331 
Q 1503 1009 1600 663 
Q 1675 925 1809 1294 
L 2547 3319 
L 3125 3319 
L 1869 0 
L 1344 0 
z
" transform="scale(0.015625)"/>
       <path id="ArialMT-20" transform="scale(0.015625)"/>
       <path id="ArialMT-56" d="M 1803 0 
L 28 4581 
L 684 4581 
L 1875 1253 
Q 2019 853 2116 503 
Q 2222 878 2363 1253 
L 3600 4581 
L 4219 4581 
L 2425 0 
L 1803 0 
z
" transform="scale(0.015625)"/>
      </defs>
      <use xlink:href="#ArialMT-52"/>
      <use xlink:href="#ArialMT-65" x="72.216797"/>
      <use xlink:href="#ArialMT-6c" x="127.832031"/>
      <use xlink:href="#ArialMT-61" x="150.048828"/>
      <use xlink:href="#ArialMT-74" x="205.664062"/>
      <use xlink:href="#ArialMT-69" x="233.447266"/>
      <use xlink:href="#ArialMT-76" x="255.664062"/>
      <use xlink:href="#ArialMT-65" x="305.664062"/>
      <use xlink:href="#ArialMT-20" x="361.279297"/>
      <use xlink:href="#ArialMT-46" x="389.0625"/>
      <use xlink:href="#ArialMT-65" x="450.146484"/>
      <use xlink:href="#ArialMT-61" x="505.761719"/>
      <use xlink:href="#ArialMT-74" x="561.376953"/>
      <use xlink:href="#ArialMT-75" x="589.160156"/>
      <use xlink:href="#ArialMT-72" x="644.775391"/>
      <use xlink:href="#ArialMT-65" x="678.076172"/>
      <use xlink:href="#ArialMT-20" x="733.691406"/>
      <use xlink:href="#ArialMT-56" x="761.474609"/>
      <use xlink:href="#ArialMT-61" x="820.798828"/>
      <use xlink:href="#ArialMT-6c" x="876.414062"/>
      <use xlink:href="#ArialMT-75" x="898.630859"/>
      <use xlink:href="#ArialMT-65" x="954.246094"/>
     </g>
    </g>
   </g>
   <g id="patch_3">
    <path d="M 98.609482 229.692403 
L 98.609482 196.973714 
L 377.609482 196.973714 
L 377.609482 229.692403 
z
" clip-path="url(#pb9b696a4f1)" style="fill: #f08080; opacity: 0.25; stroke: #ffffff; stroke-linejoin: miter"/>
   </g>
   <g id="patch_4">
    <path d="M 98.609482 196.973714 
L 98.609482 132.74814 
L 377.609482 132.74814 
L 377.609482 196.973714 
z
" clip-path="url(#pb9b696a4f1)" style="fill: #ebf3ed; opacity: 0.25; stroke: #ffffff; stroke-linejoin: miter"/>
   </g>
   <g id="patch_5">
    <path d="M 98.609482 132.74814 
L 98.609482 72.157976 
L 377.609482 72.157976 
L 377.609482 132.74814 
z
" clip-path="url(#pb9b696a4f1)" style="fill: #acd0bb; opacity: 0.25; stroke: #ffffff; stroke-linejoin: miter"/>
   </g>
   <g id="patch_6">
    <path d="M 98.609482 72.157976 
L 98.609482 7.932403 
L 377.609482 7.932403 
L 377.609482 72.157976 
z
" clip-path="url(#pb9b696a4f1)" style="fill: #6dae89; opacity: 0.25; stroke: #ffffff; stroke-linejoin: miter"/>
   </g>
   <g id="patch_7">
    <path d="M 98.609482 229.692403 
L 98.609482 7.932403 
" style="fill: none; stroke: #ffffff; stroke-width: 1.25; stroke-linejoin: miter; stroke-linecap: square"/>
   </g>
   <g id="patch_8">
    <path d="M 377.609482 229.692403 
L 377.609482 7.932403 
" style="fill: none; stroke: #ffffff; stroke-width: 1.25; stroke-linejoin: miter; stroke-linecap: square"/>
   </g>
   <g id="patch_9">
    <path d="M 98.609482 229.692403 
L 377.609482 229.692403 
" style="fill: none; stroke: #ffffff; stroke-width: 1.25; stroke-linejoin: miter; stroke-linecap: square"/>
   </g>
   <g id="patch_10">
    <path d="M 98.609482 7.932403 
L 377.609482 7.932403 
" style="fill: none; stroke: #ffffff; stroke-width: 1.25; stroke-linejoin: miter; stroke-linecap: square"/>
   </g>
  </g>
 </g>
 <defs>
  <clipPath id="pb9b696a4f1">
   <rect x="98.609482" y="7.932403" width="279" height="221.76"/>
  </clipPath>
 </defs>
</svg>
