<?xml version="1.0" encoding="utf-8" standalone="no"?>
<!DOCTYPE svg PUBLIC "-//W3C//DTD SVG 1.1//EN"
  "http://www.w3.org/Graphics/SVG/1.1/DTD/svg11.dtd">
<svg xmlns:xlink="http://www.w3.org/1999/xlink" width="199.2275pt" height="186.095pt" viewBox="0 0 199.2275 186.095" xmlns="http://www.w3.org/2000/svg" version="1.1">
 <metadata>
  <rdf:RDF xmlns:dc="http://purl.org/dc/elements/1.1/" xmlns:cc="http://creativecommons.org/ns#" xmlns:rdf="http://www.w3.org/1999/02/22-rdf-syntax-ns#">
   <cc:Work>
    <dc:type rdf:resource="http://purl.org/dc/dcmitype/StillImage"/>
    <dc:date>2024-08-11T22:35:15.784229</dc:date>
    <dc:format>image/svg+xml</dc:format>
    <dc:creator>
     <cc:Agent>
      <dc:title>Matplotlib v3.6.3, https://matplotlib.org/</dc:title>
     </cc:Agent>
    </dc:creator>
   </cc:Work>
  </rdf:RDF>
 </metadata>
 <defs>
  <style type="text/css">*{stroke-linejoin: round; stroke-linecap: butt}</style>
 </defs>
 <g id="figure_1">
  <g id="patch_1">
   <path d="M 0 186.095 
L 199.2275 186.095 
L 199.2275 0 
L 0 0 
L 0 186.095 
z
" style="fill: none"/>
  </g>
  <g id="axes_1">
   <g id="patch_2">
    <path d="M 52.5275 145.8 
L 192.0275 145.8 
L 192.0275 7.2 
L 52.5275 7.2 
L 52.5275 145.8 
z
" style="fill: none"/>
   </g>
   <g id="PathCollection_1">
    <defs>
     <path id="m557755053a" d="M 0 1.5 
C 0.397805 1.5 0.77937 1.341951 1.06066 1.06066 
C 1.341951 0.77937 1.5 0.397805 1.5 0 
C 1.5 -0.397805 1.341951 -0.77937 1.06066 -1.06066 
C 0.77937 -1.341951 0.397805 -1.5 0 -1.5 
C -0.397805 -1.5 -0.77937 -1.341951 -1.06066 -1.06066 
C -1.341951 -0.77937 -1.5 -0.397805 -1.5 0 
C -1.5 0.397805 -1.341951 0.77937 -1.06066 1.06066 
C -0.77937 1.341951 -0.397805 1.5 0 1.5 
z
" style="stroke: #db5f57; stroke-opacity: 0.6"/>
    </defs>
    <g clip-path="url(#p7a3dcd6072)">
     <use xlink:href="#m557755053a" x="58.34" y="135.434708" style="fill: #db5f57; fill-opacity: 0.6; stroke: #db5f57; stroke-opacity: 0.6"/>
     <use xlink:href="#m557755053a" x="59.735051" y="139.470898" style="fill: #db5f57; fill-opacity: 0.6; stroke: #db5f57; stroke-opacity: 0.6"/>
     <use xlink:href="#m557755053a" x="58.34" y="106.416287" style="fill: #db5f57; fill-opacity: 0.6; stroke: #db5f57; stroke-opacity: 0.6"/>
     <use xlink:href="#m557755053a" x="62.077201" y="139.416727" style="fill: #db5f57; fill-opacity: 0.6; stroke: #db5f57; stroke-opacity: 0.6"/>
     <use xlink:href="#m557755053a" x="104.799044" y="76.353352" style="fill: #db5f57; fill-opacity: 0.6; stroke: #db5f57; stroke-opacity: 0.6"/>
     <use xlink:href="#m557755053a" x="58.34" y="133.719836" style="fill: #db5f57; fill-opacity: 0.6; stroke: #db5f57; stroke-opacity: 0.6"/>
     <use xlink:href="#m557755053a" x="58.34" y="138.992694" style="fill: #db5f57; fill-opacity: 0.6; stroke: #db5f57; stroke-opacity: 0.6"/>
     <use xlink:href="#m557755053a" x="59.735051" y="137.221537" style="fill: #db5f57; fill-opacity: 0.6; stroke: #db5f57; stroke-opacity: 0.6"/>
     <use xlink:href="#m557755053a" x="157.542218" y="67.594782" style="fill: #db5f57; fill-opacity: 0.6; stroke: #db5f57; stroke-opacity: 0.6"/>
     <use xlink:href="#m557755053a" x="59.735051" y="139.086459" style="fill: #db5f57; fill-opacity: 0.6; stroke: #db5f57; stroke-opacity: 0.6"/>
     <use xlink:href="#m557755053a" x="58.34" y="139.067798" style="fill: #db5f57; fill-opacity: 0.6; stroke: #db5f57; stroke-opacity: 0.6"/>
     <use xlink:href="#m557755053a" x="58.34" y="136.948396" style="fill: #db5f57; fill-opacity: 0.6; stroke: #db5f57; stroke-opacity: 0.6"/>
     <use xlink:href="#m557755053a" x="60.96372" y="138.823936" style="fill: #db5f57; fill-opacity: 0.6; stroke: #db5f57; stroke-opacity: 0.6"/>
     <use xlink:href="#m557755053a" x="58.34" y="137.766913" style="fill: #db5f57; fill-opacity: 0.6; stroke: #db5f57; stroke-opacity: 0.6"/>
     <use xlink:href="#m557755053a" x="58.34" y="137.489973" style="fill: #db5f57; fill-opacity: 0.6; stroke: #db5f57; stroke-opacity: 0.6"/>
     <use xlink:href="#m557755053a" x="101.637782" y="79.041798" style="fill: #db5f57; fill-opacity: 0.6; stroke: #db5f57; stroke-opacity: 0.6"/>
     <use xlink:href="#m557755053a" x="58.34" y="134.834192" style="fill: #db5f57; fill-opacity: 0.6; stroke: #db5f57; stroke-opacity: 0.6"/>
     <use xlink:href="#m557755053a" x="73.800751" y="87.437022" style="fill: #db5f57; fill-opacity: 0.6; stroke: #db5f57; stroke-opacity: 0.6"/>
     <use xlink:href="#m557755053a" x="59.735051" y="139.120061" style="fill: #db5f57; fill-opacity: 0.6; stroke: #db5f57; stroke-opacity: 0.6"/>
     <use xlink:href="#m557755053a" x="58.34" y="138.413716" style="fill: #db5f57; fill-opacity: 0.6; stroke: #db5f57; stroke-opacity: 0.6"/>
     <use xlink:href="#m557755053a" x="62.077201" y="136.136714" style="fill: #db5f57; fill-opacity: 0.6; stroke: #db5f57; stroke-opacity: 0.6"/>
     <use xlink:href="#m557755053a" x="58.34" y="135.054672" style="fill: #db5f57; fill-opacity: 0.6; stroke: #db5f57; stroke-opacity: 0.6"/>
     <use xlink:href="#m557755053a" x="58.34" y="138.511963" style="fill: #db5f57; fill-opacity: 0.6; stroke: #db5f57; stroke-opacity: 0.6"/>
     <use xlink:href="#m557755053a" x="58.34" y="112.939468" style="fill: #db5f57; fill-opacity: 0.6; stroke: #db5f57; stroke-opacity: 0.6"/>
     <use xlink:href="#m557755053a" x="59.735051" y="127.112617" style="fill: #db5f57; fill-opacity: 0.6; stroke: #db5f57; stroke-opacity: 0.6"/>
     <use xlink:href="#m557755053a" x="58.34" y="139.892085" style="fill: #db5f57; fill-opacity: 0.6; stroke: #db5f57; stroke-opacity: 0.6"/>
     <use xlink:href="#m557755053a" x="59.735051" y="140.015018" style="fill: #db5f57; fill-opacity: 0.6; stroke: #db5f57; stroke-opacity: 0.6"/>
     <use xlink:href="#m557755053a" x="58.34" y="135.068581" style="fill: #db5f57; fill-opacity: 0.6; stroke: #db5f57; stroke-opacity: 0.6"/>
     <use xlink:href="#m557755053a" x="59.735051" y="138.505144" style="fill: #db5f57; fill-opacity: 0.6; stroke: #db5f57; stroke-opacity: 0.6"/>
     <use xlink:href="#m557755053a" x="108.958601" y="138.610131" style="fill: #db5f57; fill-opacity: 0.6; stroke: #db5f57; stroke-opacity: 0.6"/>
     <use xlink:href="#m557755053a" x="64.048191" y="129.141973" style="fill: #db5f57; fill-opacity: 0.6; stroke: #db5f57; stroke-opacity: 0.6"/>
     <use xlink:href="#m557755053a" x="151.834027" y="80.732907" style="fill: #db5f57; fill-opacity: 0.6; stroke: #db5f57; stroke-opacity: 0.6"/>
     <use xlink:href="#m557755053a" x="62.077201" y="134.88388" style="fill: #db5f57; fill-opacity: 0.6; stroke: #db5f57; stroke-opacity: 0.6"/>
     <use xlink:href="#m557755053a" x="65.75041" y="137.261323" style="fill: #db5f57; fill-opacity: 0.6; stroke: #db5f57; stroke-opacity: 0.6"/>
     <use xlink:href="#m557755053a" x="58.34" y="138.582124" style="fill: #db5f57; fill-opacity: 0.6; stroke: #db5f57; stroke-opacity: 0.6"/>
     <use xlink:href="#m557755053a" x="58.34" y="139.716175" style="fill: #db5f57; fill-opacity: 0.6; stroke: #db5f57; stroke-opacity: 0.6"/>
     <use xlink:href="#m557755053a" x="58.34" y="139.212491" style="fill: #db5f57; fill-opacity: 0.6; stroke: #db5f57; stroke-opacity: 0.6"/>
     <use xlink:href="#m557755053a" x="58.34" y="135.198253" style="fill: #db5f57; fill-opacity: 0.6; stroke: #db5f57; stroke-opacity: 0.6"/>
     <use xlink:href="#m557755053a" x="58.391195" y="138.256974" style="fill: #db5f57; fill-opacity: 0.6; stroke: #db5f57; stroke-opacity: 0.6"/>
     <use xlink:href="#m557755053a" x="132.802457" y="73.550573" style="fill: #db5f57; fill-opacity: 0.6; stroke: #db5f57; stroke-opacity: 0.6"/>
     <use xlink:href="#m557755053a" x="59.735051" y="139.692602" style="fill: #db5f57; fill-opacity: 0.6; stroke: #db5f57; stroke-opacity: 0.6"/>
     <use xlink:href="#m557755053a" x="65.75041" y="132.757993" style="fill: #db5f57; fill-opacity: 0.6; stroke: #db5f57; stroke-opacity: 0.6"/>
     <use xlink:href="#m557755053a" x="64.048191" y="139.9584" style="fill: #db5f57; fill-opacity: 0.6; stroke: #db5f57; stroke-opacity: 0.6"/>
     <use xlink:href="#m557755053a" x="62.077201" y="135.865878" style="fill: #db5f57; fill-opacity: 0.6; stroke: #db5f57; stroke-opacity: 0.6"/>
     <use xlink:href="#m557755053a" x="58.34" y="137.815441" style="fill: #db5f57; fill-opacity: 0.6; stroke: #db5f57; stroke-opacity: 0.6"/>
     <use xlink:href="#m557755053a" x="58.34" y="138.699033" style="fill: #db5f57; fill-opacity: 0.6; stroke: #db5f57; stroke-opacity: 0.6"/>
     <use xlink:href="#m557755053a" x="59.735051" y="139.53815" style="fill: #db5f57; fill-opacity: 0.6; stroke: #db5f57; stroke-opacity: 0.6"/>
     <use xlink:href="#m557755053a" x="58.34" y="139.082915" style="fill: #db5f57; fill-opacity: 0.6; stroke: #db5f57; stroke-opacity: 0.6"/>
     <use xlink:href="#m557755053a" x="58.34" y="139.814724" style="fill: #db5f57; fill-opacity: 0.6; stroke: #db5f57; stroke-opacity: 0.6"/>
     <use xlink:href="#m557755053a" x="68.617304" y="139.046229" style="fill: #db5f57; fill-opacity: 0.6; stroke: #db5f57; stroke-opacity: 0.6"/>
     <use xlink:href="#m557755053a" x="78.113891" y="106.237499" style="fill: #db5f57; fill-opacity: 0.6; stroke: #db5f57; stroke-opacity: 0.6"/>
     <use xlink:href="#m557755053a" x="62.077201" y="133.829512" style="fill: #db5f57; fill-opacity: 0.6; stroke: #db5f57; stroke-opacity: 0.6"/>
     <use xlink:href="#m557755053a" x="100.5243" y="83.534828" style="fill: #db5f57; fill-opacity: 0.6; stroke: #db5f57; stroke-opacity: 0.6"/>
     <use xlink:href="#m557755053a" x="70.946655" y="113.430944" style="fill: #db5f57; fill-opacity: 0.6; stroke: #db5f57; stroke-opacity: 0.6"/>
     <use xlink:href="#m557755053a" x="77.486758" y="83.003169" style="fill: #db5f57; fill-opacity: 0.6; stroke: #db5f57; stroke-opacity: 0.6"/>
     <use xlink:href="#m557755053a" x="85.357918" y="124.296438" style="fill: #db5f57; fill-opacity: 0.6; stroke: #db5f57; stroke-opacity: 0.6"/>
     <use xlink:href="#m557755053a" x="64.048191" y="137.879514" style="fill: #db5f57; fill-opacity: 0.6; stroke: #db5f57; stroke-opacity: 0.6"/>
     <use xlink:href="#m557755053a" x="58.34" y="139.745151" style="fill: #db5f57; fill-opacity: 0.6; stroke: #db5f57; stroke-opacity: 0.6"/>
     <use xlink:href="#m557755053a" x="58.34" y="118.16542" style="fill: #db5f57; fill-opacity: 0.6; stroke: #db5f57; stroke-opacity: 0.6"/>
     <use xlink:href="#m557755053a" x="133.263208" y="56.129614" style="fill: #db5f57; fill-opacity: 0.6; stroke: #db5f57; stroke-opacity: 0.6"/>
     <use xlink:href="#m557755053a" x="59.735051" y="138.978404" style="fill: #db5f57; fill-opacity: 0.6; stroke: #db5f57; stroke-opacity: 0.6"/>
     <use xlink:href="#m557755053a" x="59.735051" y="139.698912" style="fill: #db5f57; fill-opacity: 0.6; stroke: #db5f57; stroke-opacity: 0.6"/>
     <use xlink:href="#m557755053a" x="58.34" y="139.020145" style="fill: #db5f57; fill-opacity: 0.6; stroke: #db5f57; stroke-opacity: 0.6"/>
     <use xlink:href="#m557755053a" x="62.077201" y="138.60878" style="fill: #db5f57; fill-opacity: 0.6; stroke: #db5f57; stroke-opacity: 0.6"/>
     <use xlink:href="#m557755053a" x="135.298191" y="73.375059" style="fill: #db5f57; fill-opacity: 0.6; stroke: #db5f57; stroke-opacity: 0.6"/>
     <use xlink:href="#m557755053a" x="59.735051" y="137.345837" style="fill: #db5f57; fill-opacity: 0.6; stroke: #db5f57; stroke-opacity: 0.6"/>
     <use xlink:href="#m557755053a" x="59.735051" y="139.478289" style="fill: #db5f57; fill-opacity: 0.6; stroke: #db5f57; stroke-opacity: 0.6"/>
     <use xlink:href="#m557755053a" x="69.833174" y="131.924455" style="fill: #db5f57; fill-opacity: 0.6; stroke: #db5f57; stroke-opacity: 0.6"/>
     <use xlink:href="#m557755053a" x="65.75041" y="127.17731" style="fill: #db5f57; fill-opacity: 0.6; stroke: #db5f57; stroke-opacity: 0.6"/>
     <use xlink:href="#m557755053a" x="172.913379" y="56.965409" style="fill: #db5f57; fill-opacity: 0.6; stroke: #db5f57; stroke-opacity: 0.6"/>
     <use xlink:href="#m557755053a" x="58.34" y="139.462934" style="fill: #db5f57; fill-opacity: 0.6; stroke: #db5f57; stroke-opacity: 0.6"/>
     <use xlink:href="#m557755053a" x="65.75041" y="133.070108" style="fill: #db5f57; fill-opacity: 0.6; stroke: #db5f57; stroke-opacity: 0.6"/>
     <use xlink:href="#m557755053a" x="131.93215" y="76.107455" style="fill: #db5f57; fill-opacity: 0.6; stroke: #db5f57; stroke-opacity: 0.6"/>
     <use xlink:href="#m557755053a" x="58.34" y="139.463936" style="fill: #db5f57; fill-opacity: 0.6; stroke: #db5f57; stroke-opacity: 0.6"/>
     <use xlink:href="#m557755053a" x="58.34" y="137.602367" style="fill: #db5f57; fill-opacity: 0.6; stroke: #db5f57; stroke-opacity: 0.6"/>
     <use xlink:href="#m557755053a" x="58.34" y="139.908171" style="fill: #db5f57; fill-opacity: 0.6; stroke: #db5f57; stroke-opacity: 0.6"/>
     <use xlink:href="#m557755053a" x="58.34" y="138.205697" style="fill: #db5f57; fill-opacity: 0.6; stroke: #db5f57; stroke-opacity: 0.6"/>
     <use xlink:href="#m557755053a" x="59.735051" y="133.036872" style="fill: #db5f57; fill-opacity: 0.6; stroke: #db5f57; stroke-opacity: 0.6"/>
     <use xlink:href="#m557755053a" x="65.75041" y="137.527676" style="fill: #db5f57; fill-opacity: 0.6; stroke: #db5f57; stroke-opacity: 0.6"/>
     <use xlink:href="#m557755053a" x="58.34" y="140.024873" style="fill: #db5f57; fill-opacity: 0.6; stroke: #db5f57; stroke-opacity: 0.6"/>
     <use xlink:href="#m557755053a" x="131.138635" y="67.503465" style="fill: #db5f57; fill-opacity: 0.6; stroke: #db5f57; stroke-opacity: 0.6"/>
     <use xlink:href="#m557755053a" x="64.048191" y="139.08204" style="fill: #db5f57; fill-opacity: 0.6; stroke: #db5f57; stroke-opacity: 0.6"/>
     <use xlink:href="#m557755053a" x="58.34" y="137.5701" style="fill: #db5f57; fill-opacity: 0.6; stroke: #db5f57; stroke-opacity: 0.6"/>
     <use xlink:href="#m557755053a" x="123.881809" y="129.819485" style="fill: #db5f57; fill-opacity: 0.6; stroke: #db5f57; stroke-opacity: 0.6"/>
     <use xlink:href="#m557755053a" x="128.310137" y="82.674459" style="fill: #db5f57; fill-opacity: 0.6; stroke: #db5f57; stroke-opacity: 0.6"/>
     <use xlink:href="#m557755053a" x="62.077201" y="136.171731" style="fill: #db5f57; fill-opacity: 0.6; stroke: #db5f57; stroke-opacity: 0.6"/>
     <use xlink:href="#m557755053a" x="58.34" y="139.195817" style="fill: #db5f57; fill-opacity: 0.6; stroke: #db5f57; stroke-opacity: 0.6"/>
     <use xlink:href="#m557755053a" x="58.34" y="136.371755" style="fill: #db5f57; fill-opacity: 0.6; stroke: #db5f57; stroke-opacity: 0.6"/>
     <use xlink:href="#m557755053a" x="58.34" y="139.713711" style="fill: #db5f57; fill-opacity: 0.6; stroke: #db5f57; stroke-opacity: 0.6"/>
     <use xlink:href="#m557755053a" x="58.34" y="132.99599" style="fill: #db5f57; fill-opacity: 0.6; stroke: #db5f57; stroke-opacity: 0.6"/>
     <use xlink:href="#m557755053a" x="125.200068" y="88.071156" style="fill: #db5f57; fill-opacity: 0.6; stroke: #db5f57; stroke-opacity: 0.6"/>
     <use xlink:href="#m557755053a" x="67.260648" y="136.890745" style="fill: #db5f57; fill-opacity: 0.6; stroke: #db5f57; stroke-opacity: 0.6"/>
     <use xlink:href="#m557755053a" x="58.34" y="139.903117" style="fill: #db5f57; fill-opacity: 0.6; stroke: #db5f57; stroke-opacity: 0.6"/>
     <use xlink:href="#m557755053a" x="58.34" y="139.875507" style="fill: #db5f57; fill-opacity: 0.6; stroke: #db5f57; stroke-opacity: 0.6"/>
     <use xlink:href="#m557755053a" x="59.735051" y="137.002869" style="fill: #db5f57; fill-opacity: 0.6; stroke: #db5f57; stroke-opacity: 0.6"/>
     <use xlink:href="#m557755053a" x="58.34" y="138.325832" style="fill: #db5f57; fill-opacity: 0.6; stroke: #db5f57; stroke-opacity: 0.6"/>
     <use xlink:href="#m557755053a" x="69.833174" y="133.613482" style="fill: #db5f57; fill-opacity: 0.6; stroke: #db5f57; stroke-opacity: 0.6"/>
     <use xlink:href="#m557755053a" x="58.391195" y="139.085776" style="fill: #db5f57; fill-opacity: 0.6; stroke: #db5f57; stroke-opacity: 0.6"/>
     <use xlink:href="#m557755053a" x="65.75041" y="131.343601" style="fill: #db5f57; fill-opacity: 0.6; stroke: #db5f57; stroke-opacity: 0.6"/>
     <use xlink:href="#m557755053a" x="58.34" y="139.750238" style="fill: #db5f57; fill-opacity: 0.6; stroke: #db5f57; stroke-opacity: 0.6"/>
     <use xlink:href="#m557755053a" x="59.735051" y="139.413977" style="fill: #db5f57; fill-opacity: 0.6; stroke: #db5f57; stroke-opacity: 0.6"/>
     <use xlink:href="#m557755053a" x="58.34" y="140.011108" style="fill: #db5f57; fill-opacity: 0.6; stroke: #db5f57; stroke-opacity: 0.6"/>
     <use xlink:href="#m557755053a" x="58.34" y="136.123807" style="fill: #db5f57; fill-opacity: 0.6; stroke: #db5f57; stroke-opacity: 0.6"/>
     <use xlink:href="#m557755053a" x="64.048191" y="139.520792" style="fill: #db5f57; fill-opacity: 0.6; stroke: #db5f57; stroke-opacity: 0.6"/>
     <use xlink:href="#m557755053a" x="64.048191" y="136.240461" style="fill: #db5f57; fill-opacity: 0.6; stroke: #db5f57; stroke-opacity: 0.6"/>
     <use xlink:href="#m557755053a" x="58.34" y="139.333866" style="fill: #db5f57; fill-opacity: 0.6; stroke: #db5f57; stroke-opacity: 0.6"/>
     <use xlink:href="#m557755053a" x="62.077201" y="138.601167" style="fill: #db5f57; fill-opacity: 0.6; stroke: #db5f57; stroke-opacity: 0.6"/>
     <use xlink:href="#m557755053a" x="62.077201" y="138.13258" style="fill: #db5f57; fill-opacity: 0.6; stroke: #db5f57; stroke-opacity: 0.6"/>
     <use xlink:href="#m557755053a" x="71.970546" y="117.475081" style="fill: #db5f57; fill-opacity: 0.6; stroke: #db5f57; stroke-opacity: 0.6"/>
     <use xlink:href="#m557755053a" x="88.416792" y="88.777693" style="fill: #db5f57; fill-opacity: 0.6; stroke: #db5f57; stroke-opacity: 0.6"/>
     <use xlink:href="#m557755053a" x="59.735051" y="138.909738" style="fill: #db5f57; fill-opacity: 0.6; stroke: #db5f57; stroke-opacity: 0.6"/>
     <use xlink:href="#m557755053a" x="139.34256" y="107.502064" style="fill: #db5f57; fill-opacity: 0.6; stroke: #db5f57; stroke-opacity: 0.6"/>
     <use xlink:href="#m557755053a" x="58.34" y="139.657935" style="fill: #db5f57; fill-opacity: 0.6; stroke: #db5f57; stroke-opacity: 0.6"/>
     <use xlink:href="#m557755053a" x="117.636075" y="63.712361" style="fill: #db5f57; fill-opacity: 0.6; stroke: #db5f57; stroke-opacity: 0.6"/>
     <use xlink:href="#m557755053a" x="58.34" y="139.203765" style="fill: #db5f57; fill-opacity: 0.6; stroke: #db5f57; stroke-opacity: 0.6"/>
     <use xlink:href="#m557755053a" x="99.423618" y="118.972397" style="fill: #db5f57; fill-opacity: 0.6; stroke: #db5f57; stroke-opacity: 0.6"/>
     <use xlink:href="#m557755053a" x="58.34" y="137.746154" style="fill: #db5f57; fill-opacity: 0.6; stroke: #db5f57; stroke-opacity: 0.6"/>
     <use xlink:href="#m557755053a" x="142.363038" y="63.03539" style="fill: #db5f57; fill-opacity: 0.6; stroke: #db5f57; stroke-opacity: 0.6"/>
     <use xlink:href="#m557755053a" x="58.34" y="139.786733" style="fill: #db5f57; fill-opacity: 0.6; stroke: #db5f57; stroke-opacity: 0.6"/>
     <use xlink:href="#m557755053a" x="59.735051" y="138.85366" style="fill: #db5f57; fill-opacity: 0.6; stroke: #db5f57; stroke-opacity: 0.6"/>
     <use xlink:href="#m557755053a" x="58.34" y="139.275865" style="fill: #db5f57; fill-opacity: 0.6; stroke: #db5f57; stroke-opacity: 0.6"/>
     <use xlink:href="#m557755053a" x="59.735051" y="138.939318" style="fill: #db5f57; fill-opacity: 0.6; stroke: #db5f57; stroke-opacity: 0.6"/>
     <use xlink:href="#m557755053a" x="58.34" y="132.62778" style="fill: #db5f57; fill-opacity: 0.6; stroke: #db5f57; stroke-opacity: 0.6"/>
     <use xlink:href="#m557755053a" x="84.270034" y="122.085623" style="fill: #db5f57; fill-opacity: 0.6; stroke: #db5f57; stroke-opacity: 0.6"/>
     <use xlink:href="#m557755053a" x="58.34" y="139.758169" style="fill: #db5f57; fill-opacity: 0.6; stroke: #db5f57; stroke-opacity: 0.6"/>
     <use xlink:href="#m557755053a" x="62.077201" y="138.797232" style="fill: #db5f57; fill-opacity: 0.6; stroke: #db5f57; stroke-opacity: 0.6"/>
     <use xlink:href="#m557755053a" x="58.34" y="135.907094" style="fill: #db5f57; fill-opacity: 0.6; stroke: #db5f57; stroke-opacity: 0.6"/>
     <use xlink:href="#m557755053a" x="58.34" y="139.411625" style="fill: #db5f57; fill-opacity: 0.6; stroke: #db5f57; stroke-opacity: 0.6"/>
     <use xlink:href="#m557755053a" x="58.34" y="139.698006" style="fill: #db5f57; fill-opacity: 0.6; stroke: #db5f57; stroke-opacity: 0.6"/>
     <use xlink:href="#m557755053a" x="58.34" y="139.638336" style="fill: #db5f57; fill-opacity: 0.6; stroke: #db5f57; stroke-opacity: 0.6"/>
     <use xlink:href="#m557755053a" x="107.93471" y="77.096781" style="fill: #db5f57; fill-opacity: 0.6; stroke: #db5f57; stroke-opacity: 0.6"/>
     <use xlink:href="#m557755053a" x="62.077201" y="137.424676" style="fill: #db5f57; fill-opacity: 0.6; stroke: #db5f57; stroke-opacity: 0.6"/>
     <use xlink:href="#m557755053a" x="74.632662" y="139.669316" style="fill: #db5f57; fill-opacity: 0.6; stroke: #db5f57; stroke-opacity: 0.6"/>
     <use xlink:href="#m557755053a" x="64.048191" y="134.289611" style="fill: #db5f57; fill-opacity: 0.6; stroke: #db5f57; stroke-opacity: 0.6"/>
     <use xlink:href="#m557755053a" x="64.048191" y="139.156795" style="fill: #db5f57; fill-opacity: 0.6; stroke: #db5f57; stroke-opacity: 0.6"/>
     <use xlink:href="#m557755053a" x="74.632662" y="105.069862" style="fill: #db5f57; fill-opacity: 0.6; stroke: #db5f57; stroke-opacity: 0.6"/>
     <use xlink:href="#m557755053a" x="58.34" y="139.873536" style="fill: #db5f57; fill-opacity: 0.6; stroke: #db5f57; stroke-opacity: 0.6"/>
     <use xlink:href="#m557755053a" x="67.260648" y="134.356847" style="fill: #db5f57; fill-opacity: 0.6; stroke: #db5f57; stroke-opacity: 0.6"/>
     <use xlink:href="#m557755053a" x="64.048191" y="131.678542" style="fill: #db5f57; fill-opacity: 0.6; stroke: #db5f57; stroke-opacity: 0.6"/>
     <use xlink:href="#m557755053a" x="58.34" y="138.175385" style="fill: #db5f57; fill-opacity: 0.6; stroke: #db5f57; stroke-opacity: 0.6"/>
     <use xlink:href="#m557755053a" x="65.75041" y="116.662699" style="fill: #db5f57; fill-opacity: 0.6; stroke: #db5f57; stroke-opacity: 0.6"/>
     <use xlink:href="#m557755053a" x="64.048191" y="130.028808" style="fill: #db5f57; fill-opacity: 0.6; stroke: #db5f57; stroke-opacity: 0.6"/>
     <use xlink:href="#m557755053a" x="103.775154" y="130.946891" style="fill: #db5f57; fill-opacity: 0.6; stroke: #db5f57; stroke-opacity: 0.6"/>
     <use xlink:href="#m557755053a" x="87.866451" y="127.243942" style="fill: #db5f57; fill-opacity: 0.6; stroke: #db5f57; stroke-opacity: 0.6"/>
     <use xlink:href="#m557755053a" x="58.34" y="139.90717" style="fill: #db5f57; fill-opacity: 0.6; stroke: #db5f57; stroke-opacity: 0.6"/>
     <use xlink:href="#m557755053a" x="62.077201" y="133.437364" style="fill: #db5f57; fill-opacity: 0.6; stroke: #db5f57; stroke-opacity: 0.6"/>
     <use xlink:href="#m557755053a" x="90.656553" y="133.675933" style="fill: #db5f57; fill-opacity: 0.6; stroke: #db5f57; stroke-opacity: 0.6"/>
     <use xlink:href="#m557755053a" x="58.34" y="139.187345" style="fill: #db5f57; fill-opacity: 0.6; stroke: #db5f57; stroke-opacity: 0.6"/>
     <use xlink:href="#m557755053a" x="58.34" y="139.682413" style="fill: #db5f57; fill-opacity: 0.6; stroke: #db5f57; stroke-opacity: 0.6"/>
     <use xlink:href="#m557755053a" x="58.34" y="139.966061" style="fill: #db5f57; fill-opacity: 0.6; stroke: #db5f57; stroke-opacity: 0.6"/>
     <use xlink:href="#m557755053a" x="79.816109" y="114.782248" style="fill: #db5f57; fill-opacity: 0.6; stroke: #db5f57; stroke-opacity: 0.6"/>
     <use xlink:href="#m557755053a" x="71.970546" y="139.68057" style="fill: #db5f57; fill-opacity: 0.6; stroke: #db5f57; stroke-opacity: 0.6"/>
     <use xlink:href="#m557755053a" x="134.799044" y="110.805061" style="fill: #db5f57; fill-opacity: 0.6; stroke: #db5f57; stroke-opacity: 0.6"/>
     <use xlink:href="#m557755053a" x="65.75041" y="136.193603" style="fill: #db5f57; fill-opacity: 0.6; stroke: #db5f57; stroke-opacity: 0.6"/>
     <use xlink:href="#m557755053a" x="71.970546" y="139.616449" style="fill: #db5f57; fill-opacity: 0.6; stroke: #db5f57; stroke-opacity: 0.6"/>
     <use xlink:href="#m557755053a" x="58.391195" y="139.874505" style="fill: #db5f57; fill-opacity: 0.6; stroke: #db5f57; stroke-opacity: 0.6"/>
     <use xlink:href="#m557755053a" x="58.34" y="139.916643" style="fill: #db5f57; fill-opacity: 0.6; stroke: #db5f57; stroke-opacity: 0.6"/>
     <use xlink:href="#m557755053a" x="58.34" y="140.021408" style="fill: #db5f57; fill-opacity: 0.6; stroke: #db5f57; stroke-opacity: 0.6"/>
     <use xlink:href="#m557755053a" x="71.970546" y="138.600117" style="fill: #db5f57; fill-opacity: 0.6; stroke: #db5f57; stroke-opacity: 0.6"/>
     <use xlink:href="#m557755053a" x="58.34" y="139.187313" style="fill: #db5f57; fill-opacity: 0.6; stroke: #db5f57; stroke-opacity: 0.6"/>
     <use xlink:href="#m557755053a" x="68.617304" y="136.062564" style="fill: #db5f57; fill-opacity: 0.6; stroke: #db5f57; stroke-opacity: 0.6"/>
     <use xlink:href="#m557755053a" x="146.663379" y="68.123087" style="fill: #db5f57; fill-opacity: 0.6; stroke: #db5f57; stroke-opacity: 0.6"/>
    </g>
   </g>
   <g id="PolyCollection_1">
    <path d="M 58.34 136.117527 
L 58.34 138.783547 
L 59.497307 137.919578 
L 60.654614 136.99392 
L 61.811921 136.114033 
L 62.969227 135.281399 
L 64.126534 134.448507 
L 65.283841 133.620958 
L 66.441148 132.827945 
L 67.598455 132.055855 
L 68.755762 131.266616 
L 69.913069 130.538011 
L 71.070375 129.758383 
L 72.227682 128.989541 
L 73.384989 128.223945 
L 74.542296 127.456571 
L 75.699603 126.690159 
L 76.85691 125.92329 
L 78.014217 125.177683 
L 79.171523 124.438383 
L 80.32883 123.668982 
L 81.486137 122.942148 
L 82.643444 122.223471 
L 83.800751 121.481169 
L 84.958058 120.73064 
L 86.115365 119.975971 
L 87.272671 119.228547 
L 88.429978 118.477899 
L 89.587285 117.724555 
L 90.744592 116.976744 
L 91.901899 116.226268 
L 93.059206 115.47486 
L 94.216513 114.722229 
L 95.373819 113.954834 
L 96.531126 113.210418 
L 97.688433 112.471164 
L 98.84574 111.722577 
L 100.003047 110.978935 
L 101.160354 110.234917 
L 102.317661 109.490301 
L 103.474967 108.745684 
L 104.632274 108.001068 
L 105.789581 107.256451 
L 106.946888 106.510765 
L 108.104195 105.75228 
L 109.261502 104.996637 
L 110.418809 104.253555 
L 111.576115 103.510472 
L 112.733422 102.76739 
L 113.890729 102.024307 
L 115.048036 101.281224 
L 116.205343 100.538142 
L 117.36265 99.795037 
L 118.519957 99.051694 
L 119.677263 98.308812 
L 120.83457 97.565812 
L 121.991877 96.822729 
L 123.149184 96.0795 
L 124.306491 95.332872 
L 125.463798 94.579432 
L 126.621105 93.825992 
L 127.778411 93.072552 
L 128.935718 92.319112 
L 130.093025 91.565672 
L 131.250332 90.812109 
L 132.407639 90.058526 
L 133.564946 89.304943 
L 134.722253 88.55136 
L 135.879559 87.797777 
L 137.036866 87.044194 
L 138.194173 86.301476 
L 139.35148 85.580882 
L 140.508787 84.860288 
L 141.666094 84.134196 
L 142.823401 83.386142 
L 143.980707 82.653312 
L 145.138014 81.928915 
L 146.295321 81.204519 
L 147.452628 80.463364 
L 148.609935 79.719142 
L 149.767242 78.974921 
L 150.924549 78.230699 
L 152.081855 77.486478 
L 153.239162 76.742256 
L 154.396469 75.998035 
L 155.553776 75.253813 
L 156.711083 74.509591 
L 157.86839 73.765305 
L 159.025697 73.020989 
L 160.183003 72.276672 
L 161.34031 71.532355 
L 162.497617 70.788038 
L 163.654924 70.043721 
L 164.812231 69.299404 
L 165.969538 68.555087 
L 167.126845 67.810239 
L 168.284151 67.063437 
L 169.441458 66.316636 
L 170.598765 65.569834 
L 171.756072 64.823032 
L 172.913379 64.07623 
L 172.913379 38.284101 
L 172.913379 38.284101 
L 171.756072 39.289967 
L 170.598765 40.295833 
L 169.441458 41.301699 
L 168.284151 42.307565 
L 167.126845 43.313431 
L 165.969538 44.319297 
L 164.812231 45.325163 
L 163.654924 46.331029 
L 162.497617 47.336895 
L 161.34031 48.342761 
L 160.183003 49.348627 
L 159.025697 50.354493 
L 157.86839 51.360359 
L 156.711083 52.366225 
L 155.553776 53.372091 
L 154.396469 54.377957 
L 153.239162 55.383823 
L 152.081855 56.389689 
L 150.924549 57.395555 
L 149.767242 58.401421 
L 148.609935 59.407287 
L 147.452628 60.413153 
L 146.295321 61.419019 
L 145.138014 62.412363 
L 143.980707 63.403878 
L 142.823401 64.395393 
L 141.666094 65.386908 
L 140.508787 66.39103 
L 139.35148 67.398595 
L 138.194173 68.406338 
L 137.036866 69.4145 
L 135.879559 70.422663 
L 134.722253 71.430825 
L 133.564946 72.438987 
L 132.407639 73.447149 
L 131.250332 74.457441 
L 130.093025 75.472276 
L 128.935718 76.482601 
L 127.778411 77.48109 
L 126.621105 78.487007 
L 125.463798 79.49475 
L 124.306491 80.48948 
L 123.149184 81.474028 
L 121.991877 82.482749 
L 120.83457 83.494928 
L 119.677263 84.507107 
L 118.519957 85.519286 
L 117.36265 86.526383 
L 116.205343 87.52365 
L 115.048036 88.520916 
L 113.890729 89.518182 
L 112.733422 90.515448 
L 111.576115 91.512715 
L 110.418809 92.509981 
L 109.261502 93.507651 
L 108.104195 94.505499 
L 106.946888 95.512014 
L 105.789581 96.532919 
L 104.632274 97.524917 
L 103.474967 98.542069 
L 102.317661 99.524371 
L 101.160354 100.506763 
L 100.003047 101.486256 
L 98.84574 102.471327 
L 97.688433 103.478009 
L 96.531126 104.481848 
L 95.373819 105.504474 
L 94.216513 106.515099 
L 93.059206 107.493054 
L 91.901899 108.471009 
L 90.744592 109.464097 
L 89.587285 110.460844 
L 88.429978 111.45804 
L 87.272671 112.455306 
L 86.115365 113.452573 
L 84.958058 114.449839 
L 83.800751 115.429572 
L 82.643444 116.429442 
L 81.486137 117.442021 
L 80.32883 118.438904 
L 79.171523 119.420519 
L 78.014217 120.433651 
L 76.85691 121.414887 
L 75.699603 122.401931 
L 74.542296 123.359359 
L 73.384989 124.300102 
L 72.227682 125.240782 
L 71.070375 126.210302 
L 69.913069 127.132157 
L 68.755762 128.063031 
L 67.598455 129.028383 
L 66.441148 129.99209 
L 65.283841 130.885158 
L 64.126534 131.818266 
L 62.969227 132.710288 
L 61.811921 133.58927 
L 60.654614 134.465212 
L 59.497307 135.31591 
L 58.34 136.117527 
z
" clip-path="url(#p7a3dcd6072)" style="fill-opacity: 0.15"/>
   </g>
   <g id="matplotlib.axis_1">
    <g id="xtick_1">
     <g id="line2d_1">
      <defs>
       <path id="m16416f0258" d="M 0 0 
L 0 3.5 
" style="stroke: #000000; stroke-width: 0.8"/>
      </defs>
      <g>
       <use xlink:href="#m16416f0258" x="58.34" y="145.8" style="stroke: #000000; stroke-width: 0.8"/>
      </g>
     </g>
     <g id="text_1">
      <!-- 0.00 -->
      <g transform="translate(46.663438 161.389375) scale(0.12 -0.12)">
       <defs>
        <path id="ArialMT-30" d="M 266 2259 
Q 266 3072 433 3567 
Q 600 4063 929 4331 
Q 1259 4600 1759 4600 
Q 2128 4600 2406 4451 
Q 2684 4303 2865 4023 
Q 3047 3744 3150 3342 
Q 3253 2941 3253 2259 
Q 3253 1453 3087 958 
Q 2922 463 2592 192 
Q 2263 -78 1759 -78 
Q 1097 -78 719 397 
Q 266 969 266 2259 
z
M 844 2259 
Q 844 1131 1108 757 
Q 1372 384 1759 384 
Q 2147 384 2411 759 
Q 2675 1134 2675 2259 
Q 2675 3391 2411 3762 
Q 2147 4134 1753 4134 
Q 1366 4134 1134 3806 
Q 844 3388 844 2259 
z
" transform="scale(0.015625)"/>
        <path id="ArialMT-2e" d="M 581 0 
L 581 641 
L 1222 641 
L 1222 0 
L 581 0 
z
" transform="scale(0.015625)"/>
       </defs>
       <use xlink:href="#ArialMT-30"/>
       <use xlink:href="#ArialMT-2e" x="55.615234"/>
       <use xlink:href="#ArialMT-30" x="83.398438"/>
       <use xlink:href="#ArialMT-30" x="139.013672"/>
      </g>
     </g>
    </g>
    <g id="xtick_2">
     <g id="line2d_2">
      <g>
       <use xlink:href="#m16416f0258" x="87.4025" y="145.8" style="stroke: #000000; stroke-width: 0.8"/>
      </g>
     </g>
     <g id="text_2">
      <!-- 0.25 -->
      <g transform="translate(75.725938 161.389375) scale(0.12 -0.12)">
       <defs>
        <path id="ArialMT-32" d="M 3222 541 
L 3222 0 
L 194 0 
Q 188 203 259 391 
Q 375 700 629 1000 
Q 884 1300 1366 1694 
Q 2113 2306 2375 2664 
Q 2638 3022 2638 3341 
Q 2638 3675 2398 3904 
Q 2159 4134 1775 4134 
Q 1369 4134 1125 3890 
Q 881 3647 878 3216 
L 300 3275 
Q 359 3922 746 4261 
Q 1134 4600 1788 4600 
Q 2447 4600 2831 4234 
Q 3216 3869 3216 3328 
Q 3216 3053 3103 2787 
Q 2991 2522 2730 2228 
Q 2469 1934 1863 1422 
Q 1356 997 1212 845 
Q 1069 694 975 541 
L 3222 541 
z
" transform="scale(0.015625)"/>
        <path id="ArialMT-35" d="M 266 1200 
L 856 1250 
Q 922 819 1161 601 
Q 1400 384 1738 384 
Q 2144 384 2425 690 
Q 2706 997 2706 1503 
Q 2706 1984 2436 2262 
Q 2166 2541 1728 2541 
Q 1456 2541 1237 2417 
Q 1019 2294 894 2097 
L 366 2166 
L 809 4519 
L 3088 4519 
L 3088 3981 
L 1259 3981 
L 1013 2750 
Q 1425 3038 1878 3038 
Q 2478 3038 2890 2622 
Q 3303 2206 3303 1553 
Q 3303 931 2941 478 
Q 2500 -78 1738 -78 
Q 1113 -78 717 272 
Q 322 622 266 1200 
z
" transform="scale(0.015625)"/>
       </defs>
       <use xlink:href="#ArialMT-30"/>
       <use xlink:href="#ArialMT-2e" x="55.615234"/>
       <use xlink:href="#ArialMT-32" x="83.398438"/>
       <use xlink:href="#ArialMT-35" x="139.013672"/>
      </g>
     </g>
    </g>
    <g id="xtick_3">
     <g id="line2d_3">
      <g>
       <use xlink:href="#m16416f0258" x="116.465" y="145.8" style="stroke: #000000; stroke-width: 0.8"/>
      </g>
     </g>
     <g id="text_3">
      <!-- 0.50 -->
      <g transform="translate(104.788438 161.389375) scale(0.12 -0.12)">
       <use xlink:href="#ArialMT-30"/>
       <use xlink:href="#ArialMT-2e" x="55.615234"/>
       <use xlink:href="#ArialMT-35" x="83.398438"/>
       <use xlink:href="#ArialMT-30" x="139.013672"/>
      </g>
     </g>
    </g>
    <g id="xtick_4">
     <g id="line2d_4">
      <g>
       <use xlink:href="#m16416f0258" x="145.5275" y="145.8" style="stroke: #000000; stroke-width: 0.8"/>
      </g>
     </g>
     <g id="text_4">
      <!-- 0.75 -->
      <g transform="translate(133.850938 161.389375) scale(0.12 -0.12)">
       <defs>
        <path id="ArialMT-37" d="M 303 3981 
L 303 4522 
L 3269 4522 
L 3269 4084 
Q 2831 3619 2401 2847 
Q 1972 2075 1738 1259 
Q 1569 684 1522 0 
L 944 0 
Q 953 541 1156 1306 
Q 1359 2072 1739 2783 
Q 2119 3494 2547 3981 
L 303 3981 
z
" transform="scale(0.015625)"/>
       </defs>
       <use xlink:href="#ArialMT-30"/>
       <use xlink:href="#ArialMT-2e" x="55.615234"/>
       <use xlink:href="#ArialMT-37" x="83.398438"/>
       <use xlink:href="#ArialMT-35" x="139.013672"/>
      </g>
     </g>
    </g>
    <g id="xtick_5">
     <g id="line2d_5">
      <g>
       <use xlink:href="#m16416f0258" x="174.59" y="145.8" style="stroke: #000000; stroke-width: 0.8"/>
      </g>
     </g>
     <g id="text_5">
      <!-- 1.00 -->
      <g transform="translate(162.913438 161.389375) scale(0.12 -0.12)">
       <defs>
        <path id="ArialMT-31" d="M 2384 0 
L 1822 0 
L 1822 3584 
Q 1619 3391 1289 3197 
Q 959 3003 697 2906 
L 697 3450 
Q 1169 3672 1522 3987 
Q 1875 4303 2022 4600 
L 2384 4600 
L 2384 0 
z
" transform="scale(0.015625)"/>
       </defs>
       <use xlink:href="#ArialMT-31"/>
       <use xlink:href="#ArialMT-2e" x="55.615234"/>
       <use xlink:href="#ArialMT-30" x="83.398438"/>
       <use xlink:href="#ArialMT-30" x="139.013672"/>
      </g>
     </g>
    </g>
    <g id="text_6">
     <!-- Experimental Transfection -->
     <g transform="translate(52.914687 176.51) scale(0.12 -0.12)">
      <defs>
       <path id="ArialMT-45" d="M 506 0 
L 506 4581 
L 3819 4581 
L 3819 4041 
L 1113 4041 
L 1113 2638 
L 3647 2638 
L 3647 2100 
L 1113 2100 
L 1113 541 
L 3925 541 
L 3925 0 
L 506 0 
z
" transform="scale(0.015625)"/>
       <path id="ArialMT-78" d="M 47 0 
L 1259 1725 
L 138 3319 
L 841 3319 
L 1350 2541 
Q 1494 2319 1581 2169 
Q 1719 2375 1834 2534 
L 2394 3319 
L 3066 3319 
L 1919 1756 
L 3153 0 
L 2463 0 
L 1781 1031 
L 1600 1309 
L 728 0 
L 47 0 
z
" transform="scale(0.015625)"/>
       <path id="ArialMT-70" d="M 422 -1272 
L 422 3319 
L 934 3319 
L 934 2888 
Q 1116 3141 1344 3267 
Q 1572 3394 1897 3394 
Q 2322 3394 2647 3175 
Q 2972 2956 3137 2557 
Q 3303 2159 3303 1684 
Q 3303 1175 3120 767 
Q 2938 359 2589 142 
Q 2241 -75 1856 -75 
Q 1575 -75 1351 44 
Q 1128 163 984 344 
L 984 -1272 
L 422 -1272 
z
M 931 1641 
Q 931 1000 1190 694 
Q 1450 388 1819 388 
Q 2194 388 2461 705 
Q 2728 1022 2728 1688 
Q 2728 2322 2467 2637 
Q 2206 2953 1844 2953 
Q 1484 2953 1207 2617 
Q 931 2281 931 1641 
z
" transform="scale(0.015625)"/>
       <path id="ArialMT-65" d="M 2694 1069 
L 3275 997 
Q 3138 488 2766 206 
Q 2394 -75 1816 -75 
Q 1088 -75 661 373 
Q 234 822 234 1631 
Q 234 2469 665 2931 
Q 1097 3394 1784 3394 
Q 2450 3394 2872 2941 
Q 3294 2488 3294 1666 
Q 3294 1616 3291 1516 
L 816 1516 
Q 847 969 1125 678 
Q 1403 388 1819 388 
Q 2128 388 2347 550 
Q 2566 713 2694 1069 
z
M 847 1978 
L 2700 1978 
Q 2663 2397 2488 2606 
Q 2219 2931 1791 2931 
Q 1403 2931 1139 2672 
Q 875 2413 847 1978 
z
" transform="scale(0.015625)"/>
       <path id="ArialMT-72" d="M 416 0 
L 416 3319 
L 922 3319 
L 922 2816 
Q 1116 3169 1280 3281 
Q 1444 3394 1641 3394 
Q 1925 3394 2219 3213 
L 2025 2691 
Q 1819 2813 1613 2813 
Q 1428 2813 1281 2702 
Q 1134 2591 1072 2394 
Q 978 2094 978 1738 
L 978 0 
L 416 0 
z
" transform="scale(0.015625)"/>
       <path id="ArialMT-69" d="M 425 3934 
L 425 4581 
L 988 4581 
L 988 3934 
L 425 3934 
z
M 425 0 
L 425 3319 
L 988 3319 
L 988 0 
L 425 0 
z
" transform="scale(0.015625)"/>
       <path id="ArialMT-6d" d="M 422 0 
L 422 3319 
L 925 3319 
L 925 2853 
Q 1081 3097 1340 3245 
Q 1600 3394 1931 3394 
Q 2300 3394 2536 3241 
Q 2772 3088 2869 2813 
Q 3263 3394 3894 3394 
Q 4388 3394 4653 3120 
Q 4919 2847 4919 2278 
L 4919 0 
L 4359 0 
L 4359 2091 
Q 4359 2428 4304 2576 
Q 4250 2725 4106 2815 
Q 3963 2906 3769 2906 
Q 3419 2906 3187 2673 
Q 2956 2441 2956 1928 
L 2956 0 
L 2394 0 
L 2394 2156 
Q 2394 2531 2256 2718 
Q 2119 2906 1806 2906 
Q 1569 2906 1367 2781 
Q 1166 2656 1075 2415 
Q 984 2175 984 1722 
L 984 0 
L 422 0 
z
" transform="scale(0.015625)"/>
       <path id="ArialMT-6e" d="M 422 0 
L 422 3319 
L 928 3319 
L 928 2847 
Q 1294 3394 1984 3394 
Q 2284 3394 2536 3286 
Q 2788 3178 2913 3003 
Q 3038 2828 3088 2588 
Q 3119 2431 3119 2041 
L 3119 0 
L 2556 0 
L 2556 2019 
Q 2556 2363 2490 2533 
Q 2425 2703 2258 2804 
Q 2091 2906 1866 2906 
Q 1506 2906 1245 2678 
Q 984 2450 984 1813 
L 984 0 
L 422 0 
z
" transform="scale(0.015625)"/>
       <path id="ArialMT-74" d="M 1650 503 
L 1731 6 
Q 1494 -44 1306 -44 
Q 1000 -44 831 53 
Q 663 150 594 308 
Q 525 466 525 972 
L 525 2881 
L 113 2881 
L 113 3319 
L 525 3319 
L 525 4141 
L 1084 4478 
L 1084 3319 
L 1650 3319 
L 1650 2881 
L 1084 2881 
L 1084 941 
Q 1084 700 1114 631 
Q 1144 563 1211 522 
Q 1278 481 1403 481 
Q 1497 481 1650 503 
z
" transform="scale(0.015625)"/>
       <path id="ArialMT-61" d="M 2588 409 
Q 2275 144 1986 34 
Q 1697 -75 1366 -75 
Q 819 -75 525 192 
Q 231 459 231 875 
Q 231 1119 342 1320 
Q 453 1522 633 1644 
Q 813 1766 1038 1828 
Q 1203 1872 1538 1913 
Q 2219 1994 2541 2106 
Q 2544 2222 2544 2253 
Q 2544 2597 2384 2738 
Q 2169 2928 1744 2928 
Q 1347 2928 1158 2789 
Q 969 2650 878 2297 
L 328 2372 
Q 403 2725 575 2942 
Q 747 3159 1072 3276 
Q 1397 3394 1825 3394 
Q 2250 3394 2515 3294 
Q 2781 3194 2906 3042 
Q 3031 2891 3081 2659 
Q 3109 2516 3109 2141 
L 3109 1391 
Q 3109 606 3145 398 
Q 3181 191 3288 0 
L 2700 0 
Q 2613 175 2588 409 
z
M 2541 1666 
Q 2234 1541 1622 1453 
Q 1275 1403 1131 1340 
Q 988 1278 909 1158 
Q 831 1038 831 891 
Q 831 666 1001 516 
Q 1172 366 1500 366 
Q 1825 366 2078 508 
Q 2331 650 2450 897 
Q 2541 1088 2541 1459 
L 2541 1666 
z
" transform="scale(0.015625)"/>
       <path id="ArialMT-6c" d="M 409 0 
L 409 4581 
L 972 4581 
L 972 0 
L 409 0 
z
" transform="scale(0.015625)"/>
       <path id="ArialMT-20" transform="scale(0.015625)"/>
       <path id="ArialMT-54" d="M 1659 0 
L 1659 4041 
L 150 4041 
L 150 4581 
L 3781 4581 
L 3781 4041 
L 2266 4041 
L 2266 0 
L 1659 0 
z
" transform="scale(0.015625)"/>
       <path id="ArialMT-73" d="M 197 991 
L 753 1078 
Q 800 744 1014 566 
Q 1228 388 1613 388 
Q 2000 388 2187 545 
Q 2375 703 2375 916 
Q 2375 1106 2209 1216 
Q 2094 1291 1634 1406 
Q 1016 1563 777 1677 
Q 538 1791 414 1992 
Q 291 2194 291 2438 
Q 291 2659 392 2848 
Q 494 3038 669 3163 
Q 800 3259 1026 3326 
Q 1253 3394 1513 3394 
Q 1903 3394 2198 3281 
Q 2494 3169 2634 2976 
Q 2775 2784 2828 2463 
L 2278 2388 
Q 2241 2644 2061 2787 
Q 1881 2931 1553 2931 
Q 1166 2931 1000 2803 
Q 834 2675 834 2503 
Q 834 2394 903 2306 
Q 972 2216 1119 2156 
Q 1203 2125 1616 2013 
Q 2213 1853 2448 1751 
Q 2684 1650 2818 1456 
Q 2953 1263 2953 975 
Q 2953 694 2789 445 
Q 2625 197 2315 61 
Q 2006 -75 1616 -75 
Q 969 -75 630 194 
Q 291 463 197 991 
z
" transform="scale(0.015625)"/>
       <path id="ArialMT-66" d="M 556 0 
L 556 2881 
L 59 2881 
L 59 3319 
L 556 3319 
L 556 3672 
Q 556 4006 616 4169 
Q 697 4388 901 4523 
Q 1106 4659 1475 4659 
Q 1713 4659 2000 4603 
L 1916 4113 
Q 1741 4144 1584 4144 
Q 1328 4144 1222 4034 
Q 1116 3925 1116 3625 
L 1116 3319 
L 1763 3319 
L 1763 2881 
L 1116 2881 
L 1116 0 
L 556 0 
z
" transform="scale(0.015625)"/>
       <path id="ArialMT-63" d="M 2588 1216 
L 3141 1144 
Q 3050 572 2676 248 
Q 2303 -75 1759 -75 
Q 1078 -75 664 370 
Q 250 816 250 1647 
Q 250 2184 428 2587 
Q 606 2991 970 3192 
Q 1334 3394 1763 3394 
Q 2303 3394 2647 3120 
Q 2991 2847 3088 2344 
L 2541 2259 
Q 2463 2594 2264 2762 
Q 2066 2931 1784 2931 
Q 1359 2931 1093 2626 
Q 828 2322 828 1663 
Q 828 994 1084 691 
Q 1341 388 1753 388 
Q 2084 388 2306 591 
Q 2528 794 2588 1216 
z
" transform="scale(0.015625)"/>
       <path id="ArialMT-6f" d="M 213 1659 
Q 213 2581 725 3025 
Q 1153 3394 1769 3394 
Q 2453 3394 2887 2945 
Q 3322 2497 3322 1706 
Q 3322 1066 3130 698 
Q 2938 331 2570 128 
Q 2203 -75 1769 -75 
Q 1072 -75 642 372 
Q 213 819 213 1659 
z
M 791 1659 
Q 791 1022 1069 705 
Q 1347 388 1769 388 
Q 2188 388 2466 706 
Q 2744 1025 2744 1678 
Q 2744 2294 2464 2611 
Q 2184 2928 1769 2928 
Q 1347 2928 1069 2612 
Q 791 2297 791 1659 
z
" transform="scale(0.015625)"/>
      </defs>
      <use xlink:href="#ArialMT-45"/>
      <use xlink:href="#ArialMT-78" x="66.699219"/>
      <use xlink:href="#ArialMT-70" x="116.699219"/>
      <use xlink:href="#ArialMT-65" x="172.314453"/>
      <use xlink:href="#ArialMT-72" x="227.929688"/>
      <use xlink:href="#ArialMT-69" x="261.230469"/>
      <use xlink:href="#ArialMT-6d" x="283.447266"/>
      <use xlink:href="#ArialMT-65" x="366.748047"/>
      <use xlink:href="#ArialMT-6e" x="422.363281"/>
      <use xlink:href="#ArialMT-74" x="477.978516"/>
      <use xlink:href="#ArialMT-61" x="505.761719"/>
      <use xlink:href="#ArialMT-6c" x="561.376953"/>
      <use xlink:href="#ArialMT-20" x="583.59375"/>
      <use xlink:href="#ArialMT-54" x="609.626953"/>
      <use xlink:href="#ArialMT-72" x="666.960938"/>
      <use xlink:href="#ArialMT-61" x="700.261719"/>
      <use xlink:href="#ArialMT-6e" x="755.876953"/>
      <use xlink:href="#ArialMT-73" x="811.492188"/>
      <use xlink:href="#ArialMT-66" x="861.492188"/>
      <use xlink:href="#ArialMT-65" x="889.275391"/>
      <use xlink:href="#ArialMT-63" x="944.890625"/>
      <use xlink:href="#ArialMT-74" x="994.890625"/>
      <use xlink:href="#ArialMT-69" x="1022.673828"/>
      <use xlink:href="#ArialMT-6f" x="1044.890625"/>
      <use xlink:href="#ArialMT-6e" x="1100.505859"/>
     </g>
    </g>
   </g>
   <g id="matplotlib.axis_2">
    <g id="ytick_1">
     <g id="line2d_6">
      <defs>
       <path id="m6683a011f8" d="M 0 0 
L -3.5 0 
" style="stroke: #000000; stroke-width: 0.8"/>
      </defs>
      <g>
       <use xlink:href="#m6683a011f8" x="52.5275" y="140.025" style="stroke: #000000; stroke-width: 0.8"/>
      </g>
     </g>
     <g id="text_7">
      <!-- 0.00 -->
      <g transform="translate(22.174375 144.319687) scale(0.12 -0.12)">
       <use xlink:href="#ArialMT-30"/>
       <use xlink:href="#ArialMT-2e" x="55.615234"/>
       <use xlink:href="#ArialMT-30" x="83.398438"/>
       <use xlink:href="#ArialMT-30" x="139.013672"/>
      </g>
     </g>
    </g>
    <g id="ytick_2">
     <g id="line2d_7">
      <g>
       <use xlink:href="#m6683a011f8" x="52.5275" y="111.15" style="stroke: #000000; stroke-width: 0.8"/>
      </g>
     </g>
     <g id="text_8">
      <!-- 0.25 -->
      <g transform="translate(22.174375 115.444687) scale(0.12 -0.12)">
       <use xlink:href="#ArialMT-30"/>
       <use xlink:href="#ArialMT-2e" x="55.615234"/>
       <use xlink:href="#ArialMT-32" x="83.398438"/>
       <use xlink:href="#ArialMT-35" x="139.013672"/>
      </g>
     </g>
    </g>
    <g id="ytick_3">
     <g id="line2d_8">
      <g>
       <use xlink:href="#m6683a011f8" x="52.5275" y="82.275" style="stroke: #000000; stroke-width: 0.8"/>
      </g>
     </g>
     <g id="text_9">
      <!-- 0.50 -->
      <g transform="translate(22.174375 86.569687) scale(0.12 -0.12)">
       <use xlink:href="#ArialMT-30"/>
       <use xlink:href="#ArialMT-2e" x="55.615234"/>
       <use xlink:href="#ArialMT-35" x="83.398438"/>
       <use xlink:href="#ArialMT-30" x="139.013672"/>
      </g>
     </g>
    </g>
    <g id="ytick_4">
     <g id="line2d_9">
      <g>
       <use xlink:href="#m6683a011f8" x="52.5275" y="53.4" style="stroke: #000000; stroke-width: 0.8"/>
      </g>
     </g>
     <g id="text_10">
      <!-- 0.75 -->
      <g transform="translate(22.174375 57.694687) scale(0.12 -0.12)">
       <use xlink:href="#ArialMT-30"/>
       <use xlink:href="#ArialMT-2e" x="55.615234"/>
       <use xlink:href="#ArialMT-37" x="83.398438"/>
       <use xlink:href="#ArialMT-35" x="139.013672"/>
      </g>
     </g>
    </g>
    <g id="ytick_5">
     <g id="line2d_10">
      <g>
       <use xlink:href="#m6683a011f8" x="52.5275" y="24.525" style="stroke: #000000; stroke-width: 0.8"/>
      </g>
     </g>
     <g id="text_11">
      <!-- 1.00 -->
      <g transform="translate(22.174375 28.819687) scale(0.12 -0.12)">
       <use xlink:href="#ArialMT-31"/>
       <use xlink:href="#ArialMT-2e" x="55.615234"/>
       <use xlink:href="#ArialMT-30" x="83.398438"/>
       <use xlink:href="#ArialMT-30" x="139.013672"/>
      </g>
     </g>
    </g>
    <g id="text_12">
     <!-- Predicted Transfection -->
     <g transform="translate(15.789375 136.195312) rotate(-90) scale(0.12 -0.12)">
      <defs>
       <path id="ArialMT-50" d="M 494 0 
L 494 4581 
L 2222 4581 
Q 2678 4581 2919 4538 
Q 3256 4481 3484 4323 
Q 3713 4166 3852 3881 
Q 3991 3597 3991 3256 
Q 3991 2672 3619 2267 
Q 3247 1863 2275 1863 
L 1100 1863 
L 1100 0 
L 494 0 
z
M 1100 2403 
L 2284 2403 
Q 2872 2403 3119 2622 
Q 3366 2841 3366 3238 
Q 3366 3525 3220 3729 
Q 3075 3934 2838 4000 
Q 2684 4041 2272 4041 
L 1100 4041 
L 1100 2403 
z
" transform="scale(0.015625)"/>
       <path id="ArialMT-64" d="M 2575 0 
L 2575 419 
Q 2259 -75 1647 -75 
Q 1250 -75 917 144 
Q 584 363 401 755 
Q 219 1147 219 1656 
Q 219 2153 384 2558 
Q 550 2963 881 3178 
Q 1213 3394 1622 3394 
Q 1922 3394 2156 3267 
Q 2391 3141 2538 2938 
L 2538 4581 
L 3097 4581 
L 3097 0 
L 2575 0 
z
M 797 1656 
Q 797 1019 1065 703 
Q 1334 388 1700 388 
Q 2069 388 2326 689 
Q 2584 991 2584 1609 
Q 2584 2291 2321 2609 
Q 2059 2928 1675 2928 
Q 1300 2928 1048 2622 
Q 797 2316 797 1656 
z
" transform="scale(0.015625)"/>
      </defs>
      <use xlink:href="#ArialMT-50"/>
      <use xlink:href="#ArialMT-72" x="66.699219"/>
      <use xlink:href="#ArialMT-65" x="100"/>
      <use xlink:href="#ArialMT-64" x="155.615234"/>
      <use xlink:href="#ArialMT-69" x="211.230469"/>
      <use xlink:href="#ArialMT-63" x="233.447266"/>
      <use xlink:href="#ArialMT-74" x="283.447266"/>
      <use xlink:href="#ArialMT-65" x="311.230469"/>
      <use xlink:href="#ArialMT-64" x="366.845703"/>
      <use xlink:href="#ArialMT-20" x="422.460938"/>
      <use xlink:href="#ArialMT-54" x="448.494141"/>
      <use xlink:href="#ArialMT-72" x="505.828125"/>
      <use xlink:href="#ArialMT-61" x="539.128906"/>
      <use xlink:href="#ArialMT-6e" x="594.744141"/>
      <use xlink:href="#ArialMT-73" x="650.359375"/>
      <use xlink:href="#ArialMT-66" x="700.359375"/>
      <use xlink:href="#ArialMT-65" x="728.142578"/>
      <use xlink:href="#ArialMT-63" x="783.757812"/>
      <use xlink:href="#ArialMT-74" x="833.757812"/>
      <use xlink:href="#ArialMT-69" x="861.541016"/>
      <use xlink:href="#ArialMT-6f" x="883.757812"/>
      <use xlink:href="#ArialMT-6e" x="939.373047"/>
     </g>
    </g>
   </g>
   <g id="line2d_11">
    <path d="M 58.34 137.509448 
L 59.497307 136.649157 
L 60.654614 135.788865 
L 61.811921 134.928574 
L 62.969227 134.068282 
L 64.126534 133.207991 
L 65.283841 132.347699 
L 66.441148 131.487408 
L 67.598455 130.627116 
L 68.755762 129.766825 
L 69.913069 128.906533 
L 71.070375 128.046242 
L 72.227682 127.18595 
L 73.384989 126.325659 
L 74.542296 125.465367 
L 75.699603 124.605076 
L 76.85691 123.744784 
L 78.014217 122.884493 
L 79.171523 122.024201 
L 80.32883 121.163909 
L 81.486137 120.303618 
L 82.643444 119.443326 
L 83.800751 118.583035 
L 84.958058 117.722743 
L 86.115365 116.862452 
L 87.272671 116.00216 
L 88.429978 115.141869 
L 89.587285 114.281577 
L 90.744592 113.421286 
L 91.901899 112.560994 
L 93.059206 111.700703 
L 94.216513 110.840411 
L 95.373819 109.98012 
L 96.531126 109.119828 
L 97.688433 108.259537 
L 98.84574 107.399245 
L 100.003047 106.538954 
L 101.160354 105.678662 
L 102.317661 104.818371 
L 103.474967 103.958079 
L 104.632274 103.097788 
L 105.789581 102.237496 
L 106.946888 101.377205 
L 108.104195 100.516913 
L 109.261502 99.656622 
L 110.418809 98.79633 
L 111.576115 97.936039 
L 112.733422 97.075747 
L 113.890729 96.215456 
L 115.048036 95.355164 
L 116.205343 94.494873 
L 117.36265 93.634581 
L 118.519957 92.77429 
L 119.677263 91.913998 
L 120.83457 91.053707 
L 121.991877 90.193415 
L 123.149184 89.333124 
L 124.306491 88.472832 
L 125.463798 87.612541 
L 126.621105 86.752249 
L 127.778411 85.891958 
L 128.935718 85.031666 
L 130.093025 84.171375 
L 131.250332 83.311083 
L 132.407639 82.450792 
L 133.564946 81.5905 
L 134.722253 80.730209 
L 135.879559 79.869917 
L 137.036866 79.009625 
L 138.194173 78.149334 
L 139.35148 77.289042 
L 140.508787 76.428751 
L 141.666094 75.568459 
L 142.823401 74.708168 
L 143.980707 73.847876 
L 145.138014 72.987585 
L 146.295321 72.127293 
L 147.452628 71.267002 
L 148.609935 70.40671 
L 149.767242 69.546419 
L 150.924549 68.686127 
L 152.081855 67.825836 
L 153.239162 66.965544 
L 154.396469 66.105253 
L 155.553776 65.244961 
L 156.711083 64.38467 
L 157.86839 63.524378 
L 159.025697 62.664087 
L 160.183003 61.803795 
L 161.34031 60.943504 
L 162.497617 60.083212 
L 163.654924 59.222921 
L 164.812231 58.362629 
L 165.969538 57.502338 
L 167.126845 56.642046 
L 168.284151 55.781755 
L 169.441458 54.921463 
L 170.598765 54.061172 
L 171.756072 53.20088 
L 172.913379 52.340589 
" clip-path="url(#p7a3dcd6072)" style="fill: none; stroke-dasharray: 8.325,3.6; stroke-dashoffset: 0; stroke: #000000; stroke-width: 2.25"/>
   </g>
   <g id="patch_3">
    <path d="M 52.5275 145.8 
L 52.5275 7.2 
" style="fill: none; stroke: #000000; stroke-width: 0.8; stroke-linejoin: miter; stroke-linecap: square"/>
   </g>
   <g id="patch_4">
    <path d="M 52.5275 145.8 
L 192.0275 145.8 
" style="fill: none; stroke: #000000; stroke-width: 0.8; stroke-linejoin: miter; stroke-linecap: square"/>
   </g>
   <g id="text_13">
    <!-- Pearsons r = 0.85 -->
    <g transform="translate(66.4775 21.06) scale(0.12 -0.12)">
     <defs>
      <path id="ArialMT-3d" d="M 3381 2694 
L 356 2694 
L 356 3219 
L 3381 3219 
L 3381 2694 
z
M 3381 1303 
L 356 1303 
L 356 1828 
L 3381 1828 
L 3381 1303 
z
" transform="scale(0.015625)"/>
      <path id="ArialMT-38" d="M 1131 2484 
Q 781 2613 612 2850 
Q 444 3088 444 3419 
Q 444 3919 803 4259 
Q 1163 4600 1759 4600 
Q 2359 4600 2725 4251 
Q 3091 3903 3091 3403 
Q 3091 3084 2923 2848 
Q 2756 2613 2416 2484 
Q 2838 2347 3058 2040 
Q 3278 1734 3278 1309 
Q 3278 722 2862 322 
Q 2447 -78 1769 -78 
Q 1091 -78 675 323 
Q 259 725 259 1325 
Q 259 1772 486 2073 
Q 713 2375 1131 2484 
z
M 1019 3438 
Q 1019 3113 1228 2906 
Q 1438 2700 1772 2700 
Q 2097 2700 2305 2904 
Q 2513 3109 2513 3406 
Q 2513 3716 2298 3927 
Q 2084 4138 1766 4138 
Q 1444 4138 1231 3931 
Q 1019 3725 1019 3438 
z
M 838 1322 
Q 838 1081 952 856 
Q 1066 631 1291 507 
Q 1516 384 1775 384 
Q 2178 384 2440 643 
Q 2703 903 2703 1303 
Q 2703 1709 2433 1975 
Q 2163 2241 1756 2241 
Q 1359 2241 1098 1978 
Q 838 1716 838 1322 
z
" transform="scale(0.015625)"/>
     </defs>
     <use xlink:href="#ArialMT-50"/>
     <use xlink:href="#ArialMT-65" x="66.699219"/>
     <use xlink:href="#ArialMT-61" x="122.314453"/>
     <use xlink:href="#ArialMT-72" x="177.929688"/>
     <use xlink:href="#ArialMT-73" x="211.230469"/>
     <use xlink:href="#ArialMT-6f" x="261.230469"/>
     <use xlink:href="#ArialMT-6e" x="316.845703"/>
     <use xlink:href="#ArialMT-73" x="372.460938"/>
     <use xlink:href="#ArialMT-20" x="422.460938"/>
     <use xlink:href="#ArialMT-72" x="450.244141"/>
     <use xlink:href="#ArialMT-20" x="483.544922"/>
     <use xlink:href="#ArialMT-3d" x="511.328125"/>
     <use xlink:href="#ArialMT-20" x="569.726562"/>
     <use xlink:href="#ArialMT-30" x="597.509766"/>
     <use xlink:href="#ArialMT-2e" x="653.125"/>
     <use xlink:href="#ArialMT-38" x="680.908203"/>
     <use xlink:href="#ArialMT-35" x="736.523438"/>
    </g>
   </g>
   <g id="text_14">
    <!-- Spearmans r = 0.65 -->
    <g transform="translate(66.4775 34.92) scale(0.12 -0.12)">
     <defs>
      <path id="ArialMT-53" d="M 288 1472 
L 859 1522 
Q 900 1178 1048 958 
Q 1197 738 1509 602 
Q 1822 466 2213 466 
Q 2559 466 2825 569 
Q 3091 672 3220 851 
Q 3350 1031 3350 1244 
Q 3350 1459 3225 1620 
Q 3100 1781 2813 1891 
Q 2628 1963 1997 2114 
Q 1366 2266 1113 2400 
Q 784 2572 623 2826 
Q 463 3081 463 3397 
Q 463 3744 659 4045 
Q 856 4347 1234 4503 
Q 1613 4659 2075 4659 
Q 2584 4659 2973 4495 
Q 3363 4331 3572 4012 
Q 3781 3694 3797 3291 
L 3216 3247 
Q 3169 3681 2898 3903 
Q 2628 4125 2100 4125 
Q 1550 4125 1298 3923 
Q 1047 3722 1047 3438 
Q 1047 3191 1225 3031 
Q 1400 2872 2139 2705 
Q 2878 2538 3153 2413 
Q 3553 2228 3743 1945 
Q 3934 1663 3934 1294 
Q 3934 928 3725 604 
Q 3516 281 3123 101 
Q 2731 -78 2241 -78 
Q 1619 -78 1198 103 
Q 778 284 539 648 
Q 300 1013 288 1472 
z
" transform="scale(0.015625)"/>
      <path id="ArialMT-36" d="M 3184 3459 
L 2625 3416 
Q 2550 3747 2413 3897 
Q 2184 4138 1850 4138 
Q 1581 4138 1378 3988 
Q 1113 3794 959 3422 
Q 806 3050 800 2363 
Q 1003 2672 1297 2822 
Q 1591 2972 1913 2972 
Q 2475 2972 2870 2558 
Q 3266 2144 3266 1488 
Q 3266 1056 3080 686 
Q 2894 316 2569 119 
Q 2244 -78 1831 -78 
Q 1128 -78 684 439 
Q 241 956 241 2144 
Q 241 3472 731 4075 
Q 1159 4600 1884 4600 
Q 2425 4600 2770 4297 
Q 3116 3994 3184 3459 
z
M 888 1484 
Q 888 1194 1011 928 
Q 1134 663 1356 523 
Q 1578 384 1822 384 
Q 2178 384 2434 671 
Q 2691 959 2691 1453 
Q 2691 1928 2437 2201 
Q 2184 2475 1800 2475 
Q 1419 2475 1153 2201 
Q 888 1928 888 1484 
z
" transform="scale(0.015625)"/>
     </defs>
     <use xlink:href="#ArialMT-53"/>
     <use xlink:href="#ArialMT-70" x="66.699219"/>
     <use xlink:href="#ArialMT-65" x="122.314453"/>
     <use xlink:href="#ArialMT-61" x="177.929688"/>
     <use xlink:href="#ArialMT-72" x="233.544922"/>
     <use xlink:href="#ArialMT-6d" x="266.845703"/>
     <use xlink:href="#ArialMT-61" x="350.146484"/>
     <use xlink:href="#ArialMT-6e" x="405.761719"/>
     <use xlink:href="#ArialMT-73" x="461.376953"/>
     <use xlink:href="#ArialMT-20" x="511.376953"/>
     <use xlink:href="#ArialMT-72" x="539.160156"/>
     <use xlink:href="#ArialMT-20" x="572.460938"/>
     <use xlink:href="#ArialMT-3d" x="600.244141"/>
     <use xlink:href="#ArialMT-20" x="658.642578"/>
     <use xlink:href="#ArialMT-30" x="686.425781"/>
     <use xlink:href="#ArialMT-2e" x="742.041016"/>
     <use xlink:href="#ArialMT-36" x="769.824219"/>
     <use xlink:href="#ArialMT-35" x="825.439453"/>
    </g>
   </g>
  </g>
 </g>
 <defs>
  <clipPath id="p7a3dcd6072">
   <rect x="52.5275" y="7.2" width="139.5" height="138.6"/>
  </clipPath>
 </defs>
</svg>
