<?xml version="1.0" encoding="utf-8" standalone="no"?>
<!DOCTYPE svg PUBLIC "-//W3C//DTD SVG 1.1//EN"
  "http://www.w3.org/Graphics/SVG/1.1/DTD/svg11.dtd">
<svg xmlns:xlink="http://www.w3.org/1999/xlink" width="395.284606pt" height="564.101084pt" viewBox="0 0 395.284606 564.101084" xmlns="http://www.w3.org/2000/svg" version="1.1">
 <metadata>
  <rdf:RDF xmlns:dc="http://purl.org/dc/elements/1.1/" xmlns:cc="http://creativecommons.org/ns#" xmlns:rdf="http://www.w3.org/1999/02/22-rdf-syntax-ns#">
   <cc:Work>
    <dc:type rdf:resource="http://purl.org/dc/dcmitype/StillImage"/>
    <dc:date>2024-06-06T15:56:39.183813</dc:date>
    <dc:format>image/svg+xml</dc:format>
    <dc:creator>
     <cc:Agent>
      <dc:title>Matplotlib v3.6.3, https://matplotlib.org/</dc:title>
     </cc:Agent>
    </dc:creator>
   </cc:Work>
  </rdf:RDF>
 </metadata>
 <defs>
  <style type="text/css">*{stroke-linejoin: round; stroke-linecap: butt}</style>
 </defs>
 <g id="figure_1">
  <g id="patch_1">
   <path d="M 0 564.101084 
L 395.284606 564.101084 
L 395.284606 0 
L 0 0 
L 0 564.101084 
z
" style="fill: none"/>
  </g>
  <g id="axes_1">
   <g id="patch_2">
    <path d="M 164.884606 173.52 
L 388.084606 173.52 
L 388.084606 7.2 
L 164.884606 7.2 
L 164.884606 173.52 
z
" style="fill: none"/>
   </g>
   <g id="matplotlib.axis_1">
    <g id="xtick_1">
     <g id="text_1">
      <!-- Control -->
      <g style="fill: #262626" transform="translate(139.547862 244.299862) rotate(-45) scale(0.22 -0.22)">
       <defs>
        <path id="ArialMT-43" d="M 3763 1606 
L 4369 1453 
Q 4178 706 3683 314 
Q 3188 -78 2472 -78 
Q 1731 -78 1267 223 
Q 803 525 561 1097 
Q 319 1669 319 2325 
Q 319 3041 592 3573 
Q 866 4106 1370 4382 
Q 1875 4659 2481 4659 
Q 3169 4659 3637 4309 
Q 4106 3959 4291 3325 
L 3694 3184 
Q 3534 3684 3231 3912 
Q 2928 4141 2469 4141 
Q 1941 4141 1586 3887 
Q 1231 3634 1087 3207 
Q 944 2781 944 2328 
Q 944 1744 1114 1308 
Q 1284 872 1643 656 
Q 2003 441 2422 441 
Q 2931 441 3284 734 
Q 3638 1028 3763 1606 
z
" transform="scale(0.015625)"/>
        <path id="ArialMT-6f" d="M 213 1659 
Q 213 2581 725 3025 
Q 1153 3394 1769 3394 
Q 2453 3394 2887 2945 
Q 3322 2497 3322 1706 
Q 3322 1066 3130 698 
Q 2938 331 2570 128 
Q 2203 -75 1769 -75 
Q 1072 -75 642 372 
Q 213 819 213 1659 
z
M 791 1659 
Q 791 1022 1069 705 
Q 1347 388 1769 388 
Q 2188 388 2466 706 
Q 2744 1025 2744 1678 
Q 2744 2294 2464 2611 
Q 2184 2928 1769 2928 
Q 1347 2928 1069 2612 
Q 791 2297 791 1659 
z
" transform="scale(0.015625)"/>
        <path id="ArialMT-6e" d="M 422 0 
L 422 3319 
L 928 3319 
L 928 2847 
Q 1294 3394 1984 3394 
Q 2284 3394 2536 3286 
Q 2788 3178 2913 3003 
Q 3038 2828 3088 2588 
Q 3119 2431 3119 2041 
L 3119 0 
L 2556 0 
L 2556 2019 
Q 2556 2363 2490 2533 
Q 2425 2703 2258 2804 
Q 2091 2906 1866 2906 
Q 1506 2906 1245 2678 
Q 984 2450 984 1813 
L 984 0 
L 422 0 
z
" transform="scale(0.015625)"/>
        <path id="ArialMT-74" d="M 1650 503 
L 1731 6 
Q 1494 -44 1306 -44 
Q 1000 -44 831 53 
Q 663 150 594 308 
Q 525 466 525 972 
L 525 2881 
L 113 2881 
L 113 3319 
L 525 3319 
L 525 4141 
L 1084 4478 
L 1084 3319 
L 1650 3319 
L 1650 2881 
L 1084 2881 
L 1084 941 
Q 1084 700 1114 631 
Q 1144 563 1211 522 
Q 1278 481 1403 481 
Q 1497 481 1650 503 
z
" transform="scale(0.015625)"/>
        <path id="ArialMT-72" d="M 416 0 
L 416 3319 
L 922 3319 
L 922 2816 
Q 1116 3169 1280 3281 
Q 1444 3394 1641 3394 
Q 1925 3394 2219 3213 
L 2025 2691 
Q 1819 2813 1613 2813 
Q 1428 2813 1281 2702 
Q 1134 2591 1072 2394 
Q 978 2094 978 1738 
L 978 0 
L 416 0 
z
" transform="scale(0.015625)"/>
        <path id="ArialMT-6c" d="M 409 0 
L 409 4581 
L 972 4581 
L 972 0 
L 409 0 
z
" transform="scale(0.015625)"/>
       </defs>
       <use xlink:href="#ArialMT-43"/>
       <use xlink:href="#ArialMT-6f" x="72.216797"/>
       <use xlink:href="#ArialMT-6e" x="127.832031"/>
       <use xlink:href="#ArialMT-74" x="183.447266"/>
       <use xlink:href="#ArialMT-72" x="211.230469"/>
       <use xlink:href="#ArialMT-6f" x="244.53125"/>
       <use xlink:href="#ArialMT-6c" x="300.146484"/>
      </g>
     </g>
    </g>
    <g id="xtick_2">
     <g id="text_2">
      <!-- cLogP -->
      <g style="fill: #262626" transform="translate(201.203369 238.262054) rotate(-45) scale(0.22 -0.22)">
       <defs>
        <path id="ArialMT-63" d="M 2588 1216 
L 3141 1144 
Q 3050 572 2676 248 
Q 2303 -75 1759 -75 
Q 1078 -75 664 370 
Q 250 816 250 1647 
Q 250 2184 428 2587 
Q 606 2991 970 3192 
Q 1334 3394 1763 3394 
Q 2303 3394 2647 3120 
Q 2991 2847 3088 2344 
L 2541 2259 
Q 2463 2594 2264 2762 
Q 2066 2931 1784 2931 
Q 1359 2931 1093 2626 
Q 828 2322 828 1663 
Q 828 994 1084 691 
Q 1341 388 1753 388 
Q 2084 388 2306 591 
Q 2528 794 2588 1216 
z
" transform="scale(0.015625)"/>
        <path id="ArialMT-4c" d="M 469 0 
L 469 4581 
L 1075 4581 
L 1075 541 
L 3331 541 
L 3331 0 
L 469 0 
z
" transform="scale(0.015625)"/>
        <path id="ArialMT-67" d="M 319 -275 
L 866 -356 
Q 900 -609 1056 -725 
Q 1266 -881 1628 -881 
Q 2019 -881 2231 -725 
Q 2444 -569 2519 -288 
Q 2563 -116 2559 434 
Q 2191 0 1641 0 
Q 956 0 581 494 
Q 206 988 206 1678 
Q 206 2153 378 2554 
Q 550 2956 876 3175 
Q 1203 3394 1644 3394 
Q 2231 3394 2613 2919 
L 2613 3319 
L 3131 3319 
L 3131 450 
Q 3131 -325 2973 -648 
Q 2816 -972 2473 -1159 
Q 2131 -1347 1631 -1347 
Q 1038 -1347 672 -1080 
Q 306 -813 319 -275 
z
M 784 1719 
Q 784 1066 1043 766 
Q 1303 466 1694 466 
Q 2081 466 2343 764 
Q 2606 1063 2606 1700 
Q 2606 2309 2336 2618 
Q 2066 2928 1684 2928 
Q 1309 2928 1046 2623 
Q 784 2319 784 1719 
z
" transform="scale(0.015625)"/>
        <path id="ArialMT-50" d="M 494 0 
L 494 4581 
L 2222 4581 
Q 2678 4581 2919 4538 
Q 3256 4481 3484 4323 
Q 3713 4166 3852 3881 
Q 3991 3597 3991 3256 
Q 3991 2672 3619 2267 
Q 3247 1863 2275 1863 
L 1100 1863 
L 1100 0 
L 494 0 
z
M 1100 2403 
L 2284 2403 
Q 2872 2403 3119 2622 
Q 3366 2841 3366 3238 
Q 3366 3525 3220 3729 
Q 3075 3934 2838 4000 
Q 2684 4041 2272 4041 
L 1100 4041 
L 1100 2403 
z
" transform="scale(0.015625)"/>
       </defs>
       <use xlink:href="#ArialMT-63"/>
       <use xlink:href="#ArialMT-4c" x="50"/>
       <use xlink:href="#ArialMT-6f" x="105.615234"/>
       <use xlink:href="#ArialMT-67" x="161.230469"/>
       <use xlink:href="#ArialMT-50" x="216.845703"/>
      </g>
     </g>
    </g>
    <g id="xtick_3">
     <g id="text_3">
      <!-- P_charged_centers, Hbond_D, Hbond_A -->
      <g style="fill: #262626" transform="translate(18.334943 476.93048) rotate(-45) scale(0.22 -0.22)">
       <defs>
        <path id="ArialMT-5f" d="M -97 -1272 
L -97 -866 
L 3631 -866 
L 3631 -1272 
L -97 -1272 
z
" transform="scale(0.015625)"/>
        <path id="ArialMT-68" d="M 422 0 
L 422 4581 
L 984 4581 
L 984 2938 
Q 1378 3394 1978 3394 
Q 2347 3394 2619 3248 
Q 2891 3103 3008 2847 
Q 3125 2591 3125 2103 
L 3125 0 
L 2563 0 
L 2563 2103 
Q 2563 2525 2380 2717 
Q 2197 2909 1863 2909 
Q 1613 2909 1392 2779 
Q 1172 2650 1078 2428 
Q 984 2206 984 1816 
L 984 0 
L 422 0 
z
" transform="scale(0.015625)"/>
        <path id="ArialMT-61" d="M 2588 409 
Q 2275 144 1986 34 
Q 1697 -75 1366 -75 
Q 819 -75 525 192 
Q 231 459 231 875 
Q 231 1119 342 1320 
Q 453 1522 633 1644 
Q 813 1766 1038 1828 
Q 1203 1872 1538 1913 
Q 2219 1994 2541 2106 
Q 2544 2222 2544 2253 
Q 2544 2597 2384 2738 
Q 2169 2928 1744 2928 
Q 1347 2928 1158 2789 
Q 969 2650 878 2297 
L 328 2372 
Q 403 2725 575 2942 
Q 747 3159 1072 3276 
Q 1397 3394 1825 3394 
Q 2250 3394 2515 3294 
Q 2781 3194 2906 3042 
Q 3031 2891 3081 2659 
Q 3109 2516 3109 2141 
L 3109 1391 
Q 3109 606 3145 398 
Q 3181 191 3288 0 
L 2700 0 
Q 2613 175 2588 409 
z
M 2541 1666 
Q 2234 1541 1622 1453 
Q 1275 1403 1131 1340 
Q 988 1278 909 1158 
Q 831 1038 831 891 
Q 831 666 1001 516 
Q 1172 366 1500 366 
Q 1825 366 2078 508 
Q 2331 650 2450 897 
Q 2541 1088 2541 1459 
L 2541 1666 
z
" transform="scale(0.015625)"/>
        <path id="ArialMT-65" d="M 2694 1069 
L 3275 997 
Q 3138 488 2766 206 
Q 2394 -75 1816 -75 
Q 1088 -75 661 373 
Q 234 822 234 1631 
Q 234 2469 665 2931 
Q 1097 3394 1784 3394 
Q 2450 3394 2872 2941 
Q 3294 2488 3294 1666 
Q 3294 1616 3291 1516 
L 816 1516 
Q 847 969 1125 678 
Q 1403 388 1819 388 
Q 2128 388 2347 550 
Q 2566 713 2694 1069 
z
M 847 1978 
L 2700 1978 
Q 2663 2397 2488 2606 
Q 2219 2931 1791 2931 
Q 1403 2931 1139 2672 
Q 875 2413 847 1978 
z
" transform="scale(0.015625)"/>
        <path id="ArialMT-64" d="M 2575 0 
L 2575 419 
Q 2259 -75 1647 -75 
Q 1250 -75 917 144 
Q 584 363 401 755 
Q 219 1147 219 1656 
Q 219 2153 384 2558 
Q 550 2963 881 3178 
Q 1213 3394 1622 3394 
Q 1922 3394 2156 3267 
Q 2391 3141 2538 2938 
L 2538 4581 
L 3097 4581 
L 3097 0 
L 2575 0 
z
M 797 1656 
Q 797 1019 1065 703 
Q 1334 388 1700 388 
Q 2069 388 2326 689 
Q 2584 991 2584 1609 
Q 2584 2291 2321 2609 
Q 2059 2928 1675 2928 
Q 1300 2928 1048 2622 
Q 797 2316 797 1656 
z
" transform="scale(0.015625)"/>
        <path id="ArialMT-73" d="M 197 991 
L 753 1078 
Q 800 744 1014 566 
Q 1228 388 1613 388 
Q 2000 388 2187 545 
Q 2375 703 2375 916 
Q 2375 1106 2209 1216 
Q 2094 1291 1634 1406 
Q 1016 1563 777 1677 
Q 538 1791 414 1992 
Q 291 2194 291 2438 
Q 291 2659 392 2848 
Q 494 3038 669 3163 
Q 800 3259 1026 3326 
Q 1253 3394 1513 3394 
Q 1903 3394 2198 3281 
Q 2494 3169 2634 2976 
Q 2775 2784 2828 2463 
L 2278 2388 
Q 2241 2644 2061 2787 
Q 1881 2931 1553 2931 
Q 1166 2931 1000 2803 
Q 834 2675 834 2503 
Q 834 2394 903 2306 
Q 972 2216 1119 2156 
Q 1203 2125 1616 2013 
Q 2213 1853 2448 1751 
Q 2684 1650 2818 1456 
Q 2953 1263 2953 975 
Q 2953 694 2789 445 
Q 2625 197 2315 61 
Q 2006 -75 1616 -75 
Q 969 -75 630 194 
Q 291 463 197 991 
z
" transform="scale(0.015625)"/>
        <path id="ArialMT-2c" d="M 569 0 
L 569 641 
L 1209 641 
L 1209 0 
Q 1209 -353 1084 -570 
Q 959 -788 688 -906 
L 531 -666 
Q 709 -588 793 -436 
Q 878 -284 888 0 
L 569 0 
z
" transform="scale(0.015625)"/>
        <path id="ArialMT-20" transform="scale(0.015625)"/>
        <path id="ArialMT-48" d="M 513 0 
L 513 4581 
L 1119 4581 
L 1119 2700 
L 3500 2700 
L 3500 4581 
L 4106 4581 
L 4106 0 
L 3500 0 
L 3500 2159 
L 1119 2159 
L 1119 0 
L 513 0 
z
" transform="scale(0.015625)"/>
        <path id="ArialMT-62" d="M 941 0 
L 419 0 
L 419 4581 
L 981 4581 
L 981 2947 
Q 1338 3394 1891 3394 
Q 2197 3394 2470 3270 
Q 2744 3147 2920 2923 
Q 3097 2700 3197 2384 
Q 3297 2069 3297 1709 
Q 3297 856 2875 390 
Q 2453 -75 1863 -75 
Q 1275 -75 941 416 
L 941 0 
z
M 934 1684 
Q 934 1088 1097 822 
Q 1363 388 1816 388 
Q 2184 388 2453 708 
Q 2722 1028 2722 1663 
Q 2722 2313 2464 2622 
Q 2206 2931 1841 2931 
Q 1472 2931 1203 2611 
Q 934 2291 934 1684 
z
" transform="scale(0.015625)"/>
        <path id="ArialMT-44" d="M 494 0 
L 494 4581 
L 2072 4581 
Q 2606 4581 2888 4516 
Q 3281 4425 3559 4188 
Q 3922 3881 4101 3404 
Q 4281 2928 4281 2316 
Q 4281 1794 4159 1391 
Q 4038 988 3847 723 
Q 3656 459 3429 307 
Q 3203 156 2883 78 
Q 2563 0 2147 0 
L 494 0 
z
M 1100 541 
L 2078 541 
Q 2531 541 2789 625 
Q 3047 709 3200 863 
Q 3416 1078 3536 1442 
Q 3656 1806 3656 2325 
Q 3656 3044 3420 3430 
Q 3184 3816 2847 3947 
Q 2603 4041 2063 4041 
L 1100 4041 
L 1100 541 
z
" transform="scale(0.015625)"/>
        <path id="ArialMT-41" d="M -9 0 
L 1750 4581 
L 2403 4581 
L 4278 0 
L 3588 0 
L 3053 1388 
L 1138 1388 
L 634 0 
L -9 0 
z
M 1313 1881 
L 2866 1881 
L 2388 3150 
Q 2169 3728 2063 4100 
Q 1975 3659 1816 3225 
L 1313 1881 
z
" transform="scale(0.015625)"/>
       </defs>
       <use xlink:href="#ArialMT-50"/>
       <use xlink:href="#ArialMT-5f" x="66.699219"/>
       <use xlink:href="#ArialMT-63" x="122.314453"/>
       <use xlink:href="#ArialMT-68" x="172.314453"/>
       <use xlink:href="#ArialMT-61" x="227.929688"/>
       <use xlink:href="#ArialMT-72" x="283.544922"/>
       <use xlink:href="#ArialMT-67" x="316.845703"/>
       <use xlink:href="#ArialMT-65" x="372.460938"/>
       <use xlink:href="#ArialMT-64" x="428.076172"/>
       <use xlink:href="#ArialMT-5f" x="483.691406"/>
       <use xlink:href="#ArialMT-63" x="539.306641"/>
       <use xlink:href="#ArialMT-65" x="589.306641"/>
       <use xlink:href="#ArialMT-6e" x="644.921875"/>
       <use xlink:href="#ArialMT-74" x="700.537109"/>
       <use xlink:href="#ArialMT-65" x="728.320312"/>
       <use xlink:href="#ArialMT-72" x="783.935547"/>
       <use xlink:href="#ArialMT-73" x="817.236328"/>
       <use xlink:href="#ArialMT-2c" x="867.236328"/>
       <use xlink:href="#ArialMT-20" x="895.019531"/>
       <use xlink:href="#ArialMT-48" x="922.802734"/>
       <use xlink:href="#ArialMT-62" x="995.019531"/>
       <use xlink:href="#ArialMT-6f" x="1050.634766"/>
       <use xlink:href="#ArialMT-6e" x="1106.25"/>
       <use xlink:href="#ArialMT-64" x="1161.865234"/>
       <use xlink:href="#ArialMT-5f" x="1217.480469"/>
       <use xlink:href="#ArialMT-44" x="1273.095703"/>
       <use xlink:href="#ArialMT-2c" x="1345.3125"/>
       <use xlink:href="#ArialMT-20" x="1373.095703"/>
       <use xlink:href="#ArialMT-48" x="1400.878906"/>
       <use xlink:href="#ArialMT-62" x="1473.095703"/>
       <use xlink:href="#ArialMT-6f" x="1528.710938"/>
       <use xlink:href="#ArialMT-6e" x="1584.326172"/>
       <use xlink:href="#ArialMT-64" x="1639.941406"/>
       <use xlink:href="#ArialMT-5f" x="1695.556641"/>
       <use xlink:href="#ArialMT-41" x="1751.171875"/>
      </g>
     </g>
    </g>
    <g id="xtick_4">
     <g id="text_4">
      <!-- P_charged_centers, cLogP, Hbond_D, Hbond_A -->
      <g style="fill: #262626" transform="translate(23.387215 527.678208) rotate(-45) scale(0.22 -0.22)">
       <use xlink:href="#ArialMT-50"/>
       <use xlink:href="#ArialMT-5f" x="66.699219"/>
       <use xlink:href="#ArialMT-63" x="122.314453"/>
       <use xlink:href="#ArialMT-68" x="172.314453"/>
       <use xlink:href="#ArialMT-61" x="227.929688"/>
       <use xlink:href="#ArialMT-72" x="283.544922"/>
       <use xlink:href="#ArialMT-67" x="316.845703"/>
       <use xlink:href="#ArialMT-65" x="372.460938"/>
       <use xlink:href="#ArialMT-64" x="428.076172"/>
       <use xlink:href="#ArialMT-5f" x="483.691406"/>
       <use xlink:href="#ArialMT-63" x="539.306641"/>
       <use xlink:href="#ArialMT-65" x="589.306641"/>
       <use xlink:href="#ArialMT-6e" x="644.921875"/>
       <use xlink:href="#ArialMT-74" x="700.537109"/>
       <use xlink:href="#ArialMT-65" x="728.320312"/>
       <use xlink:href="#ArialMT-72" x="783.935547"/>
       <use xlink:href="#ArialMT-73" x="817.236328"/>
       <use xlink:href="#ArialMT-2c" x="867.236328"/>
       <use xlink:href="#ArialMT-20" x="895.019531"/>
       <use xlink:href="#ArialMT-63" x="922.802734"/>
       <use xlink:href="#ArialMT-4c" x="972.802734"/>
       <use xlink:href="#ArialMT-6f" x="1028.417969"/>
       <use xlink:href="#ArialMT-67" x="1084.033203"/>
       <use xlink:href="#ArialMT-50" x="1139.648438"/>
       <use xlink:href="#ArialMT-2c" x="1193.472656"/>
       <use xlink:href="#ArialMT-20" x="1221.255859"/>
       <use xlink:href="#ArialMT-48" x="1249.039062"/>
       <use xlink:href="#ArialMT-62" x="1321.255859"/>
       <use xlink:href="#ArialMT-6f" x="1376.871094"/>
       <use xlink:href="#ArialMT-6e" x="1432.486328"/>
       <use xlink:href="#ArialMT-64" x="1488.101562"/>
       <use xlink:href="#ArialMT-5f" x="1543.716797"/>
       <use xlink:href="#ArialMT-44" x="1599.332031"/>
       <use xlink:href="#ArialMT-2c" x="1671.548828"/>
       <use xlink:href="#ArialMT-20" x="1699.332031"/>
       <use xlink:href="#ArialMT-48" x="1727.115234"/>
       <use xlink:href="#ArialMT-62" x="1799.332031"/>
       <use xlink:href="#ArialMT-6f" x="1854.947266"/>
       <use xlink:href="#ArialMT-6e" x="1910.5625"/>
       <use xlink:href="#ArialMT-64" x="1966.177734"/>
       <use xlink:href="#ArialMT-5f" x="2021.792969"/>
       <use xlink:href="#ArialMT-41" x="2077.408203"/>
      </g>
     </g>
    </g>
    <g id="text_5">
     <!-- Feature -->
     <g style="fill: #262626" transform="translate(235.133356 552.131084) scale(0.24 -0.24)">
      <defs>
       <path id="ArialMT-46" d="M 525 0 
L 525 4581 
L 3616 4581 
L 3616 4041 
L 1131 4041 
L 1131 2622 
L 3281 2622 
L 3281 2081 
L 1131 2081 
L 1131 0 
L 525 0 
z
" transform="scale(0.015625)"/>
       <path id="ArialMT-75" d="M 2597 0 
L 2597 488 
Q 2209 -75 1544 -75 
Q 1250 -75 995 37 
Q 741 150 617 320 
Q 494 491 444 738 
Q 409 903 409 1263 
L 409 3319 
L 972 3319 
L 972 1478 
Q 972 1038 1006 884 
Q 1059 663 1231 536 
Q 1403 409 1656 409 
Q 1909 409 2131 539 
Q 2353 669 2445 892 
Q 2538 1116 2538 1541 
L 2538 3319 
L 3100 3319 
L 3100 0 
L 2597 0 
z
" transform="scale(0.015625)"/>
      </defs>
      <use xlink:href="#ArialMT-46"/>
      <use xlink:href="#ArialMT-65" x="61.083984"/>
      <use xlink:href="#ArialMT-61" x="116.699219"/>
      <use xlink:href="#ArialMT-74" x="172.314453"/>
      <use xlink:href="#ArialMT-75" x="200.097656"/>
      <use xlink:href="#ArialMT-72" x="255.712891"/>
      <use xlink:href="#ArialMT-65" x="289.013672"/>
     </g>
    </g>
   </g>
   <g id="matplotlib.axis_2">
    <g id="ytick_1">
     <g id="line2d_1">
      <path d="M 164.884606 173.52 
L 388.084606 173.52 
" clip-path="url(#p3a8e968dec)" style="fill: none; stroke: #ffffff; stroke-linecap: round"/>
     </g>
     <g id="text_6">
      <!-- 0.0 -->
      <g style="fill: #262626" transform="translate(124.804606 181.393594) scale(0.22 -0.22)">
       <defs>
        <path id="ArialMT-30" d="M 266 2259 
Q 266 3072 433 3567 
Q 600 4063 929 4331 
Q 1259 4600 1759 4600 
Q 2128 4600 2406 4451 
Q 2684 4303 2865 4023 
Q 3047 3744 3150 3342 
Q 3253 2941 3253 2259 
Q 3253 1453 3087 958 
Q 2922 463 2592 192 
Q 2263 -78 1759 -78 
Q 1097 -78 719 397 
Q 266 969 266 2259 
z
M 844 2259 
Q 844 1131 1108 757 
Q 1372 384 1759 384 
Q 2147 384 2411 759 
Q 2675 1134 2675 2259 
Q 2675 3391 2411 3762 
Q 2147 4134 1753 4134 
Q 1366 4134 1134 3806 
Q 844 3388 844 2259 
z
" transform="scale(0.015625)"/>
        <path id="ArialMT-2e" d="M 581 0 
L 581 641 
L 1222 641 
L 1222 0 
L 581 0 
z
" transform="scale(0.015625)"/>
       </defs>
       <use xlink:href="#ArialMT-30"/>
       <use xlink:href="#ArialMT-2e" x="55.615234"/>
       <use xlink:href="#ArialMT-30" x="83.398438"/>
      </g>
     </g>
    </g>
    <g id="ytick_2">
     <g id="line2d_2">
      <path d="M 164.884606 81.12 
L 388.084606 81.12 
" clip-path="url(#p3a8e968dec)" style="fill: none; stroke: #ffffff; stroke-linecap: round"/>
     </g>
     <g id="text_7">
      <!-- 0.1 -->
      <g style="fill: #262626" transform="translate(124.804606 88.993594) scale(0.22 -0.22)">
       <defs>
        <path id="ArialMT-31" d="M 2384 0 
L 1822 0 
L 1822 3584 
Q 1619 3391 1289 3197 
Q 959 3003 697 2906 
L 697 3450 
Q 1169 3672 1522 3987 
Q 1875 4303 2022 4600 
L 2384 4600 
L 2384 0 
z
" transform="scale(0.015625)"/>
       </defs>
       <use xlink:href="#ArialMT-30"/>
       <use xlink:href="#ArialMT-2e" x="55.615234"/>
       <use xlink:href="#ArialMT-31" x="83.398438"/>
      </g>
     </g>
    </g>
    <g id="text_8">
     <!-- KFold Average MAE -->
     <g style="fill: #262626" transform="translate(115.753356 198.200625) rotate(-90) scale(0.24 -0.24)">
      <defs>
       <path id="ArialMT-4b" d="M 469 0 
L 469 4581 
L 1075 4581 
L 1075 2309 
L 3350 4581 
L 4172 4581 
L 2250 2725 
L 4256 0 
L 3456 0 
L 1825 2319 
L 1075 1588 
L 1075 0 
L 469 0 
z
" transform="scale(0.015625)"/>
       <path id="ArialMT-76" d="M 1344 0 
L 81 3319 
L 675 3319 
L 1388 1331 
Q 1503 1009 1600 663 
Q 1675 925 1809 1294 
L 2547 3319 
L 3125 3319 
L 1869 0 
L 1344 0 
z
" transform="scale(0.015625)"/>
       <path id="ArialMT-4d" d="M 475 0 
L 475 4581 
L 1388 4581 
L 2472 1338 
Q 2622 884 2691 659 
Q 2769 909 2934 1394 
L 4031 4581 
L 4847 4581 
L 4847 0 
L 4263 0 
L 4263 3834 
L 2931 0 
L 2384 0 
L 1059 3900 
L 1059 0 
L 475 0 
z
" transform="scale(0.015625)"/>
       <path id="ArialMT-45" d="M 506 0 
L 506 4581 
L 3819 4581 
L 3819 4041 
L 1113 4041 
L 1113 2638 
L 3647 2638 
L 3647 2100 
L 1113 2100 
L 1113 541 
L 3925 541 
L 3925 0 
L 506 0 
z
" transform="scale(0.015625)"/>
      </defs>
      <use xlink:href="#ArialMT-4b"/>
      <use xlink:href="#ArialMT-46" x="66.699219"/>
      <use xlink:href="#ArialMT-6f" x="127.783203"/>
      <use xlink:href="#ArialMT-6c" x="183.398438"/>
      <use xlink:href="#ArialMT-64" x="205.615234"/>
      <use xlink:href="#ArialMT-20" x="261.230469"/>
      <use xlink:href="#ArialMT-41" x="283.513672"/>
      <use xlink:href="#ArialMT-76" x="348.462891"/>
      <use xlink:href="#ArialMT-65" x="398.462891"/>
      <use xlink:href="#ArialMT-72" x="454.078125"/>
      <use xlink:href="#ArialMT-61" x="487.378906"/>
      <use xlink:href="#ArialMT-67" x="542.994141"/>
      <use xlink:href="#ArialMT-65" x="598.609375"/>
      <use xlink:href="#ArialMT-20" x="654.224609"/>
      <use xlink:href="#ArialMT-4d" x="682.007812"/>
      <use xlink:href="#ArialMT-41" x="765.308594"/>
      <use xlink:href="#ArialMT-45" x="832.007812"/>
     </g>
    </g>
   </g>
   <g id="patch_3">
    <path d="M 170.464606 173.52 
L 215.104606 173.52 
L 215.104606 121.436373 
L 170.464606 121.436373 
z
" clip-path="url(#p3a8e968dec)" style="fill: #e68193; stroke: #ffffff; stroke-linejoin: miter"/>
   </g>
   <g id="patch_4">
    <path d="M 226.264606 173.52 
L 270.904606 173.52 
L 270.904606 118.964279 
L 226.264606 118.964279 
z
" clip-path="url(#p3a8e968dec)" style="fill: #8c9540; stroke: #ffffff; stroke-linejoin: miter"/>
   </g>
   <g id="patch_5">
    <path d="M 282.064606 173.52 
L 326.704606 173.52 
L 326.704606 118.632014 
L 282.064606 118.632014 
z
" clip-path="url(#p3a8e968dec)" style="fill: #459e97; stroke: #ffffff; stroke-linejoin: miter"/>
   </g>
   <g id="patch_6">
    <path d="M 337.864606 173.52 
L 382.504606 173.52 
L 382.504606 29.007034 
L 337.864606 29.007034 
z
" clip-path="url(#p3a8e968dec)" style="fill: #ab99e7; stroke: #ffffff; stroke-linejoin: miter"/>
   </g>
   <g id="line2d_3">
    <path d="M 192.784606 122.167615 
L 192.784606 120.705131 
" clip-path="url(#p3a8e968dec)" style="fill: none; stroke: #424242; stroke-width: 2.7; stroke-linecap: round"/>
   </g>
   <g id="line2d_4">
    <path d="M 188.599606 122.167615 
L 196.969606 122.167615 
" clip-path="url(#p3a8e968dec)" style="fill: none; stroke: #424242; stroke-width: 2.7; stroke-linecap: round"/>
   </g>
   <g id="line2d_5">
    <path d="M 188.599606 120.705131 
L 196.969606 120.705131 
" clip-path="url(#p3a8e968dec)" style="fill: none; stroke: #424242; stroke-width: 2.7; stroke-linecap: round"/>
   </g>
   <g id="line2d_6">
    <path d="M 248.584606 119.784321 
L 248.584606 118.144236 
" clip-path="url(#p3a8e968dec)" style="fill: none; stroke: #424242; stroke-width: 2.7; stroke-linecap: round"/>
   </g>
   <g id="line2d_7">
    <path d="M 244.399606 119.784321 
L 252.769606 119.784321 
" clip-path="url(#p3a8e968dec)" style="fill: none; stroke: #424242; stroke-width: 2.7; stroke-linecap: round"/>
   </g>
   <g id="line2d_8">
    <path d="M 244.399606 118.144236 
L 252.769606 118.144236 
" clip-path="url(#p3a8e968dec)" style="fill: none; stroke: #424242; stroke-width: 2.7; stroke-linecap: round"/>
   </g>
   <g id="line2d_9">
    <path d="M 304.384606 119.377857 
L 304.384606 117.886172 
" clip-path="url(#p3a8e968dec)" style="fill: none; stroke: #424242; stroke-width: 2.7; stroke-linecap: round"/>
   </g>
   <g id="line2d_10">
    <path d="M 300.199606 119.377857 
L 308.569606 119.377857 
" clip-path="url(#p3a8e968dec)" style="fill: none; stroke: #424242; stroke-width: 2.7; stroke-linecap: round"/>
   </g>
   <g id="line2d_11">
    <path d="M 300.199606 117.886172 
L 308.569606 117.886172 
" clip-path="url(#p3a8e968dec)" style="fill: none; stroke: #424242; stroke-width: 2.7; stroke-linecap: round"/>
   </g>
   <g id="line2d_12">
    <path d="M 360.184606 31.81034 
L 360.184606 26.203728 
" clip-path="url(#p3a8e968dec)" style="fill: none; stroke: #424242; stroke-width: 2.7; stroke-linecap: round"/>
   </g>
   <g id="line2d_13">
    <path d="M 355.999606 31.81034 
L 364.369606 31.81034 
" clip-path="url(#p3a8e968dec)" style="fill: none; stroke: #424242; stroke-width: 2.7; stroke-linecap: round"/>
   </g>
   <g id="line2d_14">
    <path d="M 355.999606 26.203728 
L 364.369606 26.203728 
" clip-path="url(#p3a8e968dec)" style="fill: none; stroke: #424242; stroke-width: 2.7; stroke-linecap: round"/>
   </g>
   <g id="patch_7">
    <path d="M 164.884606 173.52 
L 164.884606 7.2 
" style="fill: none; stroke: #ffffff; stroke-width: 1.25; stroke-linejoin: miter; stroke-linecap: square"/>
   </g>
   <g id="patch_8">
    <path d="M 388.084606 173.52 
L 388.084606 7.2 
" style="fill: none; stroke: #ffffff; stroke-width: 1.25; stroke-linejoin: miter; stroke-linecap: square"/>
   </g>
   <g id="patch_9">
    <path d="M 164.884606 173.52 
L 388.084606 173.52 
" style="fill: none; stroke: #ffffff; stroke-width: 1.25; stroke-linejoin: miter; stroke-linecap: square"/>
   </g>
   <g id="patch_10">
    <path d="M 164.884606 7.2 
L 388.084606 7.2 
" style="fill: none; stroke: #ffffff; stroke-width: 1.25; stroke-linejoin: miter; stroke-linecap: square"/>
   </g>
   <g id="PathCollection_1">
    <defs>
     <path id="m1fd513f719" d="M 0 3 
C 0.795609 3 1.55874 2.683901 2.12132 2.12132 
C 2.683901 1.55874 3 0.795609 3 0 
C 3 -0.795609 2.683901 -1.55874 2.12132 -2.12132 
C 1.55874 -2.683901 0.795609 -3 0 -3 
C -0.795609 -3 -1.55874 -2.683901 -2.12132 -2.12132 
C -2.683901 -1.55874 -3 -0.795609 -3 0 
C -3 0.795609 -2.683901 1.55874 -2.12132 2.12132 
C -1.55874 2.683901 -0.795609 3 0 3 
z
"/>
    </defs>
    <g clip-path="url(#p3a8e968dec)">
     <use xlink:href="#m1fd513f719" x="196.584281" y="122.3611" style="fill-opacity: 0.6"/>
     <use xlink:href="#m1fd513f719" x="195.728264" y="121.800855" style="fill-opacity: 0.6"/>
     <use xlink:href="#m1fd513f719" x="192.33188" y="120.585985" style="fill-opacity: 0.6"/>
     <use xlink:href="#m1fd513f719" x="191.893595" y="121.695582" style="fill-opacity: 0.6"/>
     <use xlink:href="#m1fd513f719" x="191.588025" y="121.758876" style="fill-opacity: 0.6"/>
     <use xlink:href="#m1fd513f719" x="192.757586" y="121.166626" style="fill-opacity: 0.6"/>
     <use xlink:href="#m1fd513f719" x="190.419604" y="121.401434" style="fill-opacity: 0.6"/>
     <use xlink:href="#m1fd513f719" x="198.122182" y="122.477225" style="fill-opacity: 0.6"/>
     <use xlink:href="#m1fd513f719" x="191.335333" y="121.036224" style="fill-opacity: 0.6"/>
     <use xlink:href="#m1fd513f719" x="190.944413" y="121.489535" style="fill-opacity: 0.6"/>
     <use xlink:href="#m1fd513f719" x="193.956156" y="122.295581" style="fill-opacity: 0.6"/>
     <use xlink:href="#m1fd513f719" x="188.694691" y="121.875724" style="fill-opacity: 0.6"/>
     <use xlink:href="#m1fd513f719" x="191.503044" y="119.633515" style="fill-opacity: 0.6"/>
     <use xlink:href="#m1fd513f719" x="188.066605" y="121.337216" style="fill-opacity: 0.6"/>
     <use xlink:href="#m1fd513f719" x="195.269849" y="121.466939" style="fill-opacity: 0.6"/>
     <use xlink:href="#m1fd513f719" x="187.316779" y="121.082498" style="fill-opacity: 0.6"/>
     <use xlink:href="#m1fd513f719" x="191.961376" y="120.475239" style="fill-opacity: 0.6"/>
     <use xlink:href="#m1fd513f719" x="190.411278" y="121.319483" style="fill-opacity: 0.6"/>
     <use xlink:href="#m1fd513f719" x="187.85501" y="120.860724" style="fill-opacity: 0.6"/>
     <use xlink:href="#m1fd513f719" x="193.139392" y="122.607096" style="fill-opacity: 0.6"/>
    </g>
   </g>
   <g id="PathCollection_2">
    <g clip-path="url(#p3a8e968dec)">
     <use xlink:href="#m1fd513f719" x="249.409894" y="119.731178" style="fill-opacity: 0.6"/>
     <use xlink:href="#m1fd513f719" x="243.121424" y="119.654368" style="fill-opacity: 0.6"/>
     <use xlink:href="#m1fd513f719" x="246.65981" y="119.643672" style="fill-opacity: 0.6"/>
     <use xlink:href="#m1fd513f719" x="253.802737" y="119.607838" style="fill-opacity: 0.6"/>
     <use xlink:href="#m1fd513f719" x="246.909757" y="117.789298" style="fill-opacity: 0.6"/>
     <use xlink:href="#m1fd513f719" x="243.735518" y="118.57386" style="fill-opacity: 0.6"/>
     <use xlink:href="#m1fd513f719" x="250.148746" y="120.077157" style="fill-opacity: 0.6"/>
     <use xlink:href="#m1fd513f719" x="251.398294" y="120.300921" style="fill-opacity: 0.6"/>
     <use xlink:href="#m1fd513f719" x="249.945151" y="118.744372" style="fill-opacity: 0.6"/>
     <use xlink:href="#m1fd513f719" x="251.435567" y="118.52199" style="fill-opacity: 0.6"/>
     <use xlink:href="#m1fd513f719" x="249.897341" y="119.214412" style="fill-opacity: 0.6"/>
     <use xlink:href="#m1fd513f719" x="245.306445" y="119.796078" style="fill-opacity: 0.6"/>
     <use xlink:href="#m1fd513f719" x="246.885323" y="117.604839" style="fill-opacity: 0.6"/>
     <use xlink:href="#m1fd513f719" x="253.312627" y="119.407155" style="fill-opacity: 0.6"/>
     <use xlink:href="#m1fd513f719" x="244.974489" y="118.865847" style="fill-opacity: 0.6"/>
     <use xlink:href="#m1fd513f719" x="253.091155" y="118.545856" style="fill-opacity: 0.6"/>
     <use xlink:href="#m1fd513f719" x="247.571214" y="118.669191" style="fill-opacity: 0.6"/>
     <use xlink:href="#m1fd513f719" x="243.724067" y="117.335533" style="fill-opacity: 0.6"/>
     <use xlink:href="#m1fd513f719" x="249.173255" y="118.446963" style="fill-opacity: 0.6"/>
     <use xlink:href="#m1fd513f719" x="246.804955" y="118.755049" style="fill-opacity: 0.6"/>
    </g>
   </g>
   <g id="PathCollection_3">
    <g clip-path="url(#p3a8e968dec)">
     <use xlink:href="#m1fd513f719" x="309.159723" y="119.58854" style="fill-opacity: 0.6"/>
     <use xlink:href="#m1fd513f719" x="301.954568" y="119.1588" style="fill-opacity: 0.6"/>
     <use xlink:href="#m1fd513f719" x="304.197502" y="119.070157" style="fill-opacity: 0.6"/>
     <use xlink:href="#m1fd513f719" x="300.600479" y="118.548927" style="fill-opacity: 0.6"/>
     <use xlink:href="#m1fd513f719" x="306.909853" y="117.859405" style="fill-opacity: 0.6"/>
     <use xlink:href="#m1fd513f719" x="309.654789" y="117.690002" style="fill-opacity: 0.6"/>
     <use xlink:href="#m1fd513f719" x="301.296546" y="120.371601" style="fill-opacity: 0.6"/>
     <use xlink:href="#m1fd513f719" x="302.647688" y="119.763" style="fill-opacity: 0.6"/>
     <use xlink:href="#m1fd513f719" x="299.522691" y="118.319352" style="fill-opacity: 0.6"/>
     <use xlink:href="#m1fd513f719" x="301.072855" y="118.895921" style="fill-opacity: 0.6"/>
     <use xlink:href="#m1fd513f719" x="301.360753" y="118.654379" style="fill-opacity: 0.6"/>
     <use xlink:href="#m1fd513f719" x="306.273483" y="119.470478" style="fill-opacity: 0.6"/>
     <use xlink:href="#m1fd513f719" x="306.479422" y="118.11323" style="fill-opacity: 0.6"/>
     <use xlink:href="#m1fd513f719" x="303.039713" y="118.494752" style="fill-opacity: 0.6"/>
     <use xlink:href="#m1fd513f719" x="306.521247" y="118.57684" style="fill-opacity: 0.6"/>
     <use xlink:href="#m1fd513f719" x="304.540386" y="118.079253" style="fill-opacity: 0.6"/>
     <use xlink:href="#m1fd513f719" x="309.032307" y="117.897148" style="fill-opacity: 0.6"/>
     <use xlink:href="#m1fd513f719" x="301.941729" y="117.841074" style="fill-opacity: 0.6"/>
     <use xlink:href="#m1fd513f719" x="301.124002" y="118.469095" style="fill-opacity: 0.6"/>
     <use xlink:href="#m1fd513f719" x="300.183737" y="117.778332" style="fill-opacity: 0.6"/>
    </g>
   </g>
   <g id="PathCollection_4">
    <g clip-path="url(#p3a8e968dec)">
     <use xlink:href="#m1fd513f719" x="359.471131" y="28.643378" style="fill-opacity: 0.6"/>
     <use xlink:href="#m1fd513f719" x="356.341903" y="30.101379" style="fill-opacity: 0.6"/>
     <use xlink:href="#m1fd513f719" x="357.409406" y="25.901553" style="fill-opacity: 0.6"/>
     <use xlink:href="#m1fd513f719" x="358.99093" y="34.305101" style="fill-opacity: 0.6"/>
     <use xlink:href="#m1fd513f719" x="357.022308" y="28.745549" style="fill-opacity: 0.6"/>
     <use xlink:href="#m1fd513f719" x="364.584505" y="28.171028" style="fill-opacity: 0.6"/>
     <use xlink:href="#m1fd513f719" x="361.401166" y="30.847708" style="fill-opacity: 0.6"/>
     <use xlink:href="#m1fd513f719" x="357.40078" y="29.172236" style="fill-opacity: 0.6"/>
     <use xlink:href="#m1fd513f719" x="364.881205" y="35.027668" style="fill-opacity: 0.6"/>
     <use xlink:href="#m1fd513f719" x="363.350155" y="28.750686" style="fill-opacity: 0.6"/>
     <use xlink:href="#m1fd513f719" x="357.465625" y="27.130232" style="fill-opacity: 0.6"/>
     <use xlink:href="#m1fd513f719" x="354.912324" y="31.121671" style="fill-opacity: 0.6"/>
     <use xlink:href="#m1fd513f719" x="362.141596" y="31.074268" style="fill-opacity: 0.6"/>
     <use xlink:href="#m1fd513f719" x="359.083716" y="31.444676" style="fill-opacity: 0.6"/>
     <use xlink:href="#m1fd513f719" x="356.501243" y="29.930891" style="fill-opacity: 0.6"/>
     <use xlink:href="#m1fd513f719" x="359.614205" y="27.236492" style="fill-opacity: 0.6"/>
     <use xlink:href="#m1fd513f719" x="360.704572" y="25.857405" style="fill-opacity: 0.6"/>
     <use xlink:href="#m1fd513f719" x="361.97894" y="24.473897" style="fill-opacity: 0.6"/>
     <use xlink:href="#m1fd513f719" x="358.639499" y="26.442507" style="fill-opacity: 0.6"/>
     <use xlink:href="#m1fd513f719" x="356.068065" y="25.762353" style="fill-opacity: 0.6"/>
    </g>
   </g>
  </g>
 </g>
 <defs>
  <clipPath id="p3a8e968dec">
   <rect x="164.884606" y="7.2" width="223.2" height="166.32"/>
  </clipPath>
 </defs>
</svg>
