<?xml version="1.0" encoding="utf-8" standalone="no"?>
<!DOCTYPE svg PUBLIC "-//W3C//DTD SVG 1.1//EN"
  "http://www.w3.org/Graphics/SVG/1.1/DTD/svg11.dtd">
<svg xmlns:xlink="http://www.w3.org/1999/xlink" width="262.354219pt" height="210.607812pt" viewBox="0 0 262.354219 210.607812" xmlns="http://www.w3.org/2000/svg" version="1.1">
 <metadata>
  <rdf:RDF xmlns:dc="http://purl.org/dc/elements/1.1/" xmlns:cc="http://creativecommons.org/ns#" xmlns:rdf="http://www.w3.org/1999/02/22-rdf-syntax-ns#">
   <cc:Work>
    <dc:type rdf:resource="http://purl.org/dc/dcmitype/StillImage"/>
    <dc:date>2023-11-02T21:35:11.549017</dc:date>
    <dc:format>image/svg+xml</dc:format>
    <dc:creator>
     <cc:Agent>
      <dc:title>Matplotlib v3.6.3, https://matplotlib.org/</dc:title>
     </cc:Agent>
    </dc:creator>
   </cc:Work>
  </rdf:RDF>
 </metadata>
 <defs>
  <style type="text/css">*{stroke-linejoin: round; stroke-linecap: butt}</style>
 </defs>
 <g id="figure_1">
  <g id="patch_1">
   <path d="M 0 210.607812 
L 262.354219 210.607812 
L 262.354219 0 
L 0 0 
L 0 210.607812 
z
" style="fill: none"/>
  </g>
  <g id="axes_1">
   <g id="patch_2">
    <path d="M 59.514063 173.52 
L 226.914062 173.52 
L 226.914062 7.2 
L 59.514063 7.2 
L 59.514063 173.52 
z
" style="fill: none"/>
   </g>
   <g id="matplotlib.axis_1">
    <g id="xtick_1">
     <g id="text_1">
      <!-- B16 -->
      <g style="fill: #262626" transform="translate(53.892656 198.767188) scale(0.22 -0.22)">
       <defs>
        <path id="ArialMT-42" d="M 469 0 
L 469 4581 
L 2188 4581 
Q 2713 4581 3030 4442 
Q 3347 4303 3526 4014 
Q 3706 3725 3706 3409 
Q 3706 3116 3547 2856 
Q 3388 2597 3066 2438 
Q 3481 2316 3704 2022 
Q 3928 1728 3928 1328 
Q 3928 1006 3792 729 
Q 3656 453 3456 303 
Q 3256 153 2954 76 
Q 2653 0 2216 0 
L 469 0 
z
M 1075 2656 
L 2066 2656 
Q 2469 2656 2644 2709 
Q 2875 2778 2992 2937 
Q 3109 3097 3109 3338 
Q 3109 3566 3000 3739 
Q 2891 3913 2687 3977 
Q 2484 4041 1991 4041 
L 1075 4041 
L 1075 2656 
z
M 1075 541 
L 2216 541 
Q 2509 541 2628 563 
Q 2838 600 2978 687 
Q 3119 775 3209 942 
Q 3300 1109 3300 1328 
Q 3300 1584 3169 1773 
Q 3038 1963 2805 2039 
Q 2572 2116 2134 2116 
L 1075 2116 
L 1075 541 
z
" transform="scale(0.015625)"/>
        <path id="ArialMT-31" d="M 2384 0 
L 1822 0 
L 1822 3584 
Q 1619 3391 1289 3197 
Q 959 3003 697 2906 
L 697 3450 
Q 1169 3672 1522 3987 
Q 1875 4303 2022 4600 
L 2384 4600 
L 2384 0 
z
" transform="scale(0.015625)"/>
        <path id="ArialMT-36" d="M 3184 3459 
L 2625 3416 
Q 2550 3747 2413 3897 
Q 2184 4138 1850 4138 
Q 1581 4138 1378 3988 
Q 1113 3794 959 3422 
Q 806 3050 800 2363 
Q 1003 2672 1297 2822 
Q 1591 2972 1913 2972 
Q 2475 2972 2870 2558 
Q 3266 2144 3266 1488 
Q 3266 1056 3080 686 
Q 2894 316 2569 119 
Q 2244 -78 1831 -78 
Q 1128 -78 684 439 
Q 241 956 241 2144 
Q 241 3472 731 4075 
Q 1159 4600 1884 4600 
Q 2425 4600 2770 4297 
Q 3116 3994 3184 3459 
z
M 888 1484 
Q 888 1194 1011 928 
Q 1134 663 1356 523 
Q 1578 384 1822 384 
Q 2178 384 2434 671 
Q 2691 959 2691 1453 
Q 2691 1928 2437 2201 
Q 2184 2475 1800 2475 
Q 1419 2475 1153 2201 
Q 888 1928 888 1484 
z
" transform="scale(0.015625)"/>
       </defs>
       <use xlink:href="#ArialMT-42"/>
       <use xlink:href="#ArialMT-31" x="66.699219"/>
       <use xlink:href="#ArialMT-36" x="122.314453"/>
      </g>
     </g>
    </g>
    <g id="xtick_2">
     <g id="text_2">
      <!-- N2a -->
      <g style="fill: #262626" transform="translate(81.185937 198.767188) scale(0.22 -0.22)">
       <defs>
        <path id="ArialMT-4e" d="M 488 0 
L 488 4581 
L 1109 4581 
L 3516 984 
L 3516 4581 
L 4097 4581 
L 4097 0 
L 3475 0 
L 1069 3600 
L 1069 0 
L 488 0 
z
" transform="scale(0.015625)"/>
        <path id="ArialMT-32" d="M 3222 541 
L 3222 0 
L 194 0 
Q 188 203 259 391 
Q 375 700 629 1000 
Q 884 1300 1366 1694 
Q 2113 2306 2375 2664 
Q 2638 3022 2638 3341 
Q 2638 3675 2398 3904 
Q 2159 4134 1775 4134 
Q 1369 4134 1125 3890 
Q 881 3647 878 3216 
L 300 3275 
Q 359 3922 746 4261 
Q 1134 4600 1788 4600 
Q 2447 4600 2831 4234 
Q 3216 3869 3216 3328 
Q 3216 3053 3103 2787 
Q 2991 2522 2730 2228 
Q 2469 1934 1863 1422 
Q 1356 997 1212 845 
Q 1069 694 975 541 
L 3222 541 
z
" transform="scale(0.015625)"/>
        <path id="ArialMT-61" d="M 2588 409 
Q 2275 144 1986 34 
Q 1697 -75 1366 -75 
Q 819 -75 525 192 
Q 231 459 231 875 
Q 231 1119 342 1320 
Q 453 1522 633 1644 
Q 813 1766 1038 1828 
Q 1203 1872 1538 1913 
Q 2219 1994 2541 2106 
Q 2544 2222 2544 2253 
Q 2544 2597 2384 2738 
Q 2169 2928 1744 2928 
Q 1347 2928 1158 2789 
Q 969 2650 878 2297 
L 328 2372 
Q 403 2725 575 2942 
Q 747 3159 1072 3276 
Q 1397 3394 1825 3394 
Q 2250 3394 2515 3294 
Q 2781 3194 2906 3042 
Q 3031 2891 3081 2659 
Q 3109 2516 3109 2141 
L 3109 1391 
Q 3109 606 3145 398 
Q 3181 191 3288 0 
L 2700 0 
Q 2613 175 2588 409 
z
M 2541 1666 
Q 2234 1541 1622 1453 
Q 1275 1403 1131 1340 
Q 988 1278 909 1158 
Q 831 1038 831 891 
Q 831 666 1001 516 
Q 1172 366 1500 366 
Q 1825 366 2078 508 
Q 2331 650 2450 897 
Q 2541 1088 2541 1459 
L 2541 1666 
z
" transform="scale(0.015625)"/>
       </defs>
       <use xlink:href="#ArialMT-4e"/>
       <use xlink:href="#ArialMT-32" x="72.216797"/>
       <use xlink:href="#ArialMT-61" x="127.832031"/>
      </g>
     </g>
    </g>
    <g id="xtick_3">
     <g id="text_3">
      <!-- PC3 -->
      <g style="fill: #262626" transform="translate(107.865625 198.767188) scale(0.22 -0.22)">
       <defs>
        <path id="ArialMT-50" d="M 494 0 
L 494 4581 
L 2222 4581 
Q 2678 4581 2919 4538 
Q 3256 4481 3484 4323 
Q 3713 4166 3852 3881 
Q 3991 3597 3991 3256 
Q 3991 2672 3619 2267 
Q 3247 1863 2275 1863 
L 1100 1863 
L 1100 0 
L 494 0 
z
M 1100 2403 
L 2284 2403 
Q 2872 2403 3119 2622 
Q 3366 2841 3366 3238 
Q 3366 3525 3220 3729 
Q 3075 3934 2838 4000 
Q 2684 4041 2272 4041 
L 1100 4041 
L 1100 2403 
z
" transform="scale(0.015625)"/>
        <path id="ArialMT-43" d="M 3763 1606 
L 4369 1453 
Q 4178 706 3683 314 
Q 3188 -78 2472 -78 
Q 1731 -78 1267 223 
Q 803 525 561 1097 
Q 319 1669 319 2325 
Q 319 3041 592 3573 
Q 866 4106 1370 4382 
Q 1875 4659 2481 4659 
Q 3169 4659 3637 4309 
Q 4106 3959 4291 3325 
L 3694 3184 
Q 3534 3684 3231 3912 
Q 2928 4141 2469 4141 
Q 1941 4141 1586 3887 
Q 1231 3634 1087 3207 
Q 944 2781 944 2328 
Q 944 1744 1114 1308 
Q 1284 872 1643 656 
Q 2003 441 2422 441 
Q 2931 441 3284 734 
Q 3638 1028 3763 1606 
z
" transform="scale(0.015625)"/>
        <path id="ArialMT-33" d="M 269 1209 
L 831 1284 
Q 928 806 1161 595 
Q 1394 384 1728 384 
Q 2125 384 2398 659 
Q 2672 934 2672 1341 
Q 2672 1728 2419 1979 
Q 2166 2231 1775 2231 
Q 1616 2231 1378 2169 
L 1441 2663 
Q 1497 2656 1531 2656 
Q 1891 2656 2178 2843 
Q 2466 3031 2466 3422 
Q 2466 3731 2256 3934 
Q 2047 4138 1716 4138 
Q 1388 4138 1169 3931 
Q 950 3725 888 3313 
L 325 3413 
Q 428 3978 793 4289 
Q 1159 4600 1703 4600 
Q 2078 4600 2393 4439 
Q 2709 4278 2876 4000 
Q 3044 3722 3044 3409 
Q 3044 3113 2884 2869 
Q 2725 2625 2413 2481 
Q 2819 2388 3044 2092 
Q 3269 1797 3269 1353 
Q 3269 753 2831 336 
Q 2394 -81 1725 -81 
Q 1122 -81 723 278 
Q 325 638 269 1209 
z
" transform="scale(0.015625)"/>
       </defs>
       <use xlink:href="#ArialMT-50"/>
       <use xlink:href="#ArialMT-43" x="66.699219"/>
       <use xlink:href="#ArialMT-33" x="138.916016"/>
      </g>
     </g>
    </g>
    <g id="xtick_4">
     <g id="text_4">
      <!-- HepG2 -->
      <g style="fill: #262626" transform="translate(122.312969 199.035313) scale(0.22 -0.22)">
       <defs>
        <path id="ArialMT-48" d="M 513 0 
L 513 4581 
L 1119 4581 
L 1119 2700 
L 3500 2700 
L 3500 4581 
L 4106 4581 
L 4106 0 
L 3500 0 
L 3500 2159 
L 1119 2159 
L 1119 0 
L 513 0 
z
" transform="scale(0.015625)"/>
        <path id="ArialMT-65" d="M 2694 1069 
L 3275 997 
Q 3138 488 2766 206 
Q 2394 -75 1816 -75 
Q 1088 -75 661 373 
Q 234 822 234 1631 
Q 234 2469 665 2931 
Q 1097 3394 1784 3394 
Q 2450 3394 2872 2941 
Q 3294 2488 3294 1666 
Q 3294 1616 3291 1516 
L 816 1516 
Q 847 969 1125 678 
Q 1403 388 1819 388 
Q 2128 388 2347 550 
Q 2566 713 2694 1069 
z
M 847 1978 
L 2700 1978 
Q 2663 2397 2488 2606 
Q 2219 2931 1791 2931 
Q 1403 2931 1139 2672 
Q 875 2413 847 1978 
z
" transform="scale(0.015625)"/>
        <path id="ArialMT-70" d="M 422 -1272 
L 422 3319 
L 934 3319 
L 934 2888 
Q 1116 3141 1344 3267 
Q 1572 3394 1897 3394 
Q 2322 3394 2647 3175 
Q 2972 2956 3137 2557 
Q 3303 2159 3303 1684 
Q 3303 1175 3120 767 
Q 2938 359 2589 142 
Q 2241 -75 1856 -75 
Q 1575 -75 1351 44 
Q 1128 163 984 344 
L 984 -1272 
L 422 -1272 
z
M 931 1641 
Q 931 1000 1190 694 
Q 1450 388 1819 388 
Q 2194 388 2461 705 
Q 2728 1022 2728 1688 
Q 2728 2322 2467 2637 
Q 2206 2953 1844 2953 
Q 1484 2953 1207 2617 
Q 931 2281 931 1641 
z
" transform="scale(0.015625)"/>
        <path id="ArialMT-47" d="M 2638 1797 
L 2638 2334 
L 4578 2338 
L 4578 638 
Q 4131 281 3656 101 
Q 3181 -78 2681 -78 
Q 2006 -78 1454 211 
Q 903 500 622 1047 
Q 341 1594 341 2269 
Q 341 2938 620 3517 
Q 900 4097 1425 4378 
Q 1950 4659 2634 4659 
Q 3131 4659 3532 4498 
Q 3934 4338 4162 4050 
Q 4391 3763 4509 3300 
L 3963 3150 
Q 3859 3500 3706 3700 
Q 3553 3900 3268 4020 
Q 2984 4141 2638 4141 
Q 2222 4141 1919 4014 
Q 1616 3888 1430 3681 
Q 1244 3475 1141 3228 
Q 966 2803 966 2306 
Q 966 1694 1177 1281 
Q 1388 869 1791 669 
Q 2194 469 2647 469 
Q 3041 469 3416 620 
Q 3791 772 3984 944 
L 3984 1797 
L 2638 1797 
z
" transform="scale(0.015625)"/>
       </defs>
       <use xlink:href="#ArialMT-48"/>
       <use xlink:href="#ArialMT-65" x="72.216797"/>
       <use xlink:href="#ArialMT-70" x="127.832031"/>
       <use xlink:href="#ArialMT-47" x="183.447266"/>
       <use xlink:href="#ArialMT-32" x="261.230469"/>
      </g>
     </g>
    </g>
    <g id="xtick_5">
     <g id="text_5">
      <!-- HEK293 -->
      <g style="fill: #262626" transform="translate(144.094219 198.767188) scale(0.22 -0.22)">
       <defs>
        <path id="ArialMT-45" d="M 506 0 
L 506 4581 
L 3819 4581 
L 3819 4041 
L 1113 4041 
L 1113 2638 
L 3647 2638 
L 3647 2100 
L 1113 2100 
L 1113 541 
L 3925 541 
L 3925 0 
L 506 0 
z
" transform="scale(0.015625)"/>
        <path id="ArialMT-4b" d="M 469 0 
L 469 4581 
L 1075 4581 
L 1075 2309 
L 3350 4581 
L 4172 4581 
L 2250 2725 
L 4256 0 
L 3456 0 
L 1825 2319 
L 1075 1588 
L 1075 0 
L 469 0 
z
" transform="scale(0.015625)"/>
        <path id="ArialMT-39" d="M 350 1059 
L 891 1109 
Q 959 728 1153 556 
Q 1347 384 1650 384 
Q 1909 384 2104 503 
Q 2300 622 2425 820 
Q 2550 1019 2634 1356 
Q 2719 1694 2719 2044 
Q 2719 2081 2716 2156 
Q 2547 1888 2255 1720 
Q 1963 1553 1622 1553 
Q 1053 1553 659 1965 
Q 266 2378 266 3053 
Q 266 3750 677 4175 
Q 1088 4600 1706 4600 
Q 2153 4600 2523 4359 
Q 2894 4119 3086 3673 
Q 3278 3228 3278 2384 
Q 3278 1506 3087 986 
Q 2897 466 2520 194 
Q 2144 -78 1638 -78 
Q 1100 -78 759 220 
Q 419 519 350 1059 
z
M 2653 3081 
Q 2653 3566 2395 3850 
Q 2138 4134 1775 4134 
Q 1400 4134 1122 3828 
Q 844 3522 844 3034 
Q 844 2597 1108 2323 
Q 1372 2050 1759 2050 
Q 2150 2050 2401 2323 
Q 2653 2597 2653 3081 
z
" transform="scale(0.015625)"/>
       </defs>
       <use xlink:href="#ArialMT-48"/>
       <use xlink:href="#ArialMT-45" x="72.216797"/>
       <use xlink:href="#ArialMT-4b" x="138.916016"/>
       <use xlink:href="#ArialMT-32" x="205.615234"/>
       <use xlink:href="#ArialMT-39" x="261.230469"/>
       <use xlink:href="#ArialMT-33" x="316.845703"/>
      </g>
     </g>
    </g>
    <g id="xtick_6">
     <g id="text_6">
      <!-- ARPE19 -->
      <g style="fill: #262626" transform="translate(170.773906 198.767188) scale(0.22 -0.22)">
       <defs>
        <path id="ArialMT-41" d="M -9 0 
L 1750 4581 
L 2403 4581 
L 4278 0 
L 3588 0 
L 3053 1388 
L 1138 1388 
L 634 0 
L -9 0 
z
M 1313 1881 
L 2866 1881 
L 2388 3150 
Q 2169 3728 2063 4100 
Q 1975 3659 1816 3225 
L 1313 1881 
z
" transform="scale(0.015625)"/>
        <path id="ArialMT-52" d="M 503 0 
L 503 4581 
L 2534 4581 
Q 3147 4581 3465 4457 
Q 3784 4334 3975 4021 
Q 4166 3709 4166 3331 
Q 4166 2844 3850 2509 
Q 3534 2175 2875 2084 
Q 3116 1969 3241 1856 
Q 3506 1613 3744 1247 
L 4541 0 
L 3778 0 
L 3172 953 
Q 2906 1366 2734 1584 
Q 2563 1803 2427 1890 
Q 2291 1978 2150 2013 
Q 2047 2034 1813 2034 
L 1109 2034 
L 1109 0 
L 503 0 
z
M 1109 2559 
L 2413 2559 
Q 2828 2559 3062 2645 
Q 3297 2731 3419 2920 
Q 3541 3109 3541 3331 
Q 3541 3656 3305 3865 
Q 3069 4075 2559 4075 
L 1109 4075 
L 1109 2559 
z
" transform="scale(0.015625)"/>
       </defs>
       <use xlink:href="#ArialMT-41"/>
       <use xlink:href="#ArialMT-52" x="66.699219"/>
       <use xlink:href="#ArialMT-50" x="138.916016"/>
       <use xlink:href="#ArialMT-45" x="205.615234"/>
       <use xlink:href="#ArialMT-31" x="272.314453"/>
       <use xlink:href="#ArialMT-39" x="327.929688"/>
      </g>
     </g>
    </g>
   </g>
   <g id="matplotlib.axis_2">
    <g id="ytick_1">
     <g id="line2d_1">
      <path d="M 59.514063 155.265235 
L 226.914062 155.265235 
" clip-path="url(#pb94309433d)" style="fill: none; stroke: #ffffff; stroke-linecap: round"/>
     </g>
     <g id="text_7">
      <!-- 0.00 -->
      <g style="fill: #262626" transform="translate(7.2 163.138829) scale(0.22 -0.22)">
       <defs>
        <path id="ArialMT-30" d="M 266 2259 
Q 266 3072 433 3567 
Q 600 4063 929 4331 
Q 1259 4600 1759 4600 
Q 2128 4600 2406 4451 
Q 2684 4303 2865 4023 
Q 3047 3744 3150 3342 
Q 3253 2941 3253 2259 
Q 3253 1453 3087 958 
Q 2922 463 2592 192 
Q 2263 -78 1759 -78 
Q 1097 -78 719 397 
Q 266 969 266 2259 
z
M 844 2259 
Q 844 1131 1108 757 
Q 1372 384 1759 384 
Q 2147 384 2411 759 
Q 2675 1134 2675 2259 
Q 2675 3391 2411 3762 
Q 2147 4134 1753 4134 
Q 1366 4134 1134 3806 
Q 844 3388 844 2259 
z
" transform="scale(0.015625)"/>
        <path id="ArialMT-2e" d="M 581 0 
L 581 641 
L 1222 641 
L 1222 0 
L 581 0 
z
" transform="scale(0.015625)"/>
       </defs>
       <use xlink:href="#ArialMT-30"/>
       <use xlink:href="#ArialMT-2e" x="55.615234"/>
       <use xlink:href="#ArialMT-30" x="83.398438"/>
       <use xlink:href="#ArialMT-30" x="139.013672"/>
      </g>
     </g>
    </g>
    <g id="ytick_2">
     <g id="line2d_2">
      <path d="M 59.514063 98.262547 
L 226.914062 98.262547 
" clip-path="url(#pb94309433d)" style="fill: none; stroke: #ffffff; stroke-linecap: round"/>
     </g>
     <g id="text_8">
      <!-- 0.25 -->
      <g style="fill: #262626" transform="translate(7.2 106.136141) scale(0.22 -0.22)">
       <defs>
        <path id="ArialMT-35" d="M 266 1200 
L 856 1250 
Q 922 819 1161 601 
Q 1400 384 1738 384 
Q 2144 384 2425 690 
Q 2706 997 2706 1503 
Q 2706 1984 2436 2262 
Q 2166 2541 1728 2541 
Q 1456 2541 1237 2417 
Q 1019 2294 894 2097 
L 366 2166 
L 809 4519 
L 3088 4519 
L 3088 3981 
L 1259 3981 
L 1013 2750 
Q 1425 3038 1878 3038 
Q 2478 3038 2890 2622 
Q 3303 2206 3303 1553 
Q 3303 931 2941 478 
Q 2500 -78 1738 -78 
Q 1113 -78 717 272 
Q 322 622 266 1200 
z
" transform="scale(0.015625)"/>
       </defs>
       <use xlink:href="#ArialMT-30"/>
       <use xlink:href="#ArialMT-2e" x="55.615234"/>
       <use xlink:href="#ArialMT-32" x="83.398438"/>
       <use xlink:href="#ArialMT-35" x="139.013672"/>
      </g>
     </g>
    </g>
    <g id="ytick_3">
     <g id="line2d_3">
      <path d="M 59.514063 41.25986 
L 226.914062 41.25986 
" clip-path="url(#pb94309433d)" style="fill: none; stroke: #ffffff; stroke-linecap: round"/>
     </g>
     <g id="text_9">
      <!-- 0.50 -->
      <g style="fill: #262626" transform="translate(7.2 49.133454) scale(0.22 -0.22)">
       <use xlink:href="#ArialMT-30"/>
       <use xlink:href="#ArialMT-2e" x="55.615234"/>
       <use xlink:href="#ArialMT-35" x="83.398438"/>
       <use xlink:href="#ArialMT-30" x="139.013672"/>
      </g>
     </g>
    </g>
   </g>
   <g id="PolyCollection_1">
    <defs>
     <path id="m85569abbf0" d="M 73.796625 -49.352394 
L 73.1315 -49.352394 
L 72.782753 -50.323246 
L 72.191403 -51.294097 
L 71.291103 -52.264948 
L 70.062095 -53.235799 
L 68.560812 -54.206651 
L 66.925196 -55.177502 
L 65.34508 -56.148353 
L 64.006867 -57.119204 
L 63.038744 -58.090056 
L 62.482917 -59.060907 
L 62.304063 -60.031758 
L 62.422151 -61.00261 
L 62.748197 -61.973461 
L 63.207074 -62.944312 
L 63.744103 -63.915163 
L 64.321412 -64.886015 
L 64.911902 -65.856866 
L 65.49538 -66.827717 
L 66.05724 -67.798568 
L 66.587993 -68.76942 
L 67.082388 -69.740271 
L 67.538395 -70.711122 
L 67.95695 -71.681973 
L 68.342499 -72.652825 
L 68.70305 -73.623676 
L 69.048312 -74.594527 
L 69.385953 -75.565378 
L 69.717708 -76.53623 
L 70.037697 -77.507081 
L 70.33428 -78.477932 
L 70.594891 -79.448784 
L 70.81163 -80.419635 
L 70.984864 -81.390486 
L 71.123053 -82.361337 
L 71.239024 -83.332189 
L 71.344996 -84.30304 
L 71.449258 -85.273891 
L 71.555994 -86.244742 
L 71.667379 -87.215594 
L 71.78559 -88.186445 
L 71.912976 -89.157296 
L 72.05036 -90.128147 
L 72.194917 -91.098999 
L 72.33937 -92.06985 
L 72.473443 -93.040701 
L 72.587276 -94.011552 
L 72.675259 -94.982404 
L 72.738255 -95.953255 
L 72.782939 -96.924106 
L 72.818629 -97.894958 
L 72.853489 -98.865809 
L 72.892087 -99.83666 
L 72.935191 -100.807511 
L 72.981215 -101.778363 
L 73.028035 -102.749214 
L 73.074168 -103.720065 
L 73.118995 -104.690916 
L 73.162253 -105.661768 
L 73.203259 -106.632619 
L 73.240363 -107.60347 
L 73.271059 -108.574321 
L 73.292864 -109.545173 
L 73.304568 -110.516024 
L 73.307111 -111.486875 
L 73.303487 -112.457727 
L 73.297737 -113.428578 
L 73.293673 -114.399429 
L 73.294025 -115.37028 
L 73.30025 -116.341132 
L 73.312699 -117.311983 
L 73.330732 -118.282834 
L 73.352692 -119.253685 
L 73.375943 -120.224537 
L 73.397247 -121.195388 
L 73.413495 -122.166239 
L 73.422522 -123.13709 
L 73.423711 -124.107942 
L 73.418189 -125.078793 
L 73.408572 -126.049644 
L 73.398294 -127.020495 
L 73.390681 -127.991347 
L 73.388051 -128.962198 
L 73.391161 -129.933049 
L 73.399183 -130.903901 
L 73.410144 -131.874752 
L 73.421589 -132.845603 
L 73.431258 -133.816454 
L 73.437611 -134.787306 
L 73.440165 -135.758157 
L 73.439567 -136.729008 
L 73.437351 -137.699859 
L 73.435389 -138.670711 
L 73.435216 -139.641562 
L 73.437492 -140.612413 
L 73.441876 -141.583264 
L 73.447335 -142.554116 
L 73.452694 -143.524967 
L 73.457101 -144.495818 
L 73.460224 -145.466669 
L 73.467901 -145.466669 
L 73.467901 -145.466669 
L 73.471024 -144.495818 
L 73.475431 -143.524967 
L 73.48079 -142.554116 
L 73.486249 -141.583264 
L 73.490633 -140.612413 
L 73.492909 -139.641562 
L 73.492736 -138.670711 
L 73.490774 -137.699859 
L 73.488558 -136.729008 
L 73.48796 -135.758157 
L 73.490514 -134.787306 
L 73.496867 -133.816454 
L 73.506536 -132.845603 
L 73.517981 -131.874752 
L 73.528942 -130.903901 
L 73.536964 -129.933049 
L 73.540074 -128.962198 
L 73.537444 -127.991347 
L 73.529831 -127.020495 
L 73.519553 -126.049644 
L 73.509936 -125.078793 
L 73.504414 -124.107942 
L 73.505603 -123.13709 
L 73.51463 -122.166239 
L 73.530878 -121.195388 
L 73.552182 -120.224537 
L 73.575433 -119.253685 
L 73.597393 -118.282834 
L 73.615426 -117.311983 
L 73.627875 -116.341132 
L 73.6341 -115.37028 
L 73.634452 -114.399429 
L 73.630388 -113.428578 
L 73.624638 -112.457727 
L 73.621014 -111.486875 
L 73.623557 -110.516024 
L 73.635261 -109.545173 
L 73.657066 -108.574321 
L 73.687762 -107.60347 
L 73.724866 -106.632619 
L 73.765872 -105.661768 
L 73.80913 -104.690916 
L 73.853957 -103.720065 
L 73.90009 -102.749214 
L 73.94691 -101.778363 
L 73.992934 -100.807511 
L 74.036038 -99.83666 
L 74.074636 -98.865809 
L 74.109496 -97.894958 
L 74.145186 -96.924106 
L 74.18987 -95.953255 
L 74.252866 -94.982404 
L 74.340849 -94.011552 
L 74.454682 -93.040701 
L 74.588755 -92.06985 
L 74.733208 -91.098999 
L 74.877765 -90.128147 
L 75.015149 -89.157296 
L 75.142535 -88.186445 
L 75.260746 -87.215594 
L 75.372131 -86.244742 
L 75.478867 -85.273891 
L 75.583129 -84.30304 
L 75.689101 -83.332189 
L 75.805072 -82.361337 
L 75.943261 -81.390486 
L 76.116495 -80.419635 
L 76.333234 -79.448784 
L 76.593845 -78.477932 
L 76.890428 -77.507081 
L 77.210417 -76.53623 
L 77.542172 -75.565378 
L 77.879813 -74.594527 
L 78.225075 -73.623676 
L 78.585626 -72.652825 
L 78.971175 -71.681973 
L 79.38973 -70.711122 
L 79.845737 -69.740271 
L 80.340132 -68.76942 
L 80.870885 -67.798568 
L 81.432745 -66.827717 
L 82.016223 -65.856866 
L 82.606713 -64.886015 
L 83.184022 -63.915163 
L 83.721051 -62.944312 
L 84.179928 -61.973461 
L 84.505974 -61.00261 
L 84.624062 -60.031758 
L 84.445208 -59.060907 
L 83.889381 -58.090056 
L 82.921258 -57.119204 
L 81.583045 -56.148353 
L 80.002929 -55.177502 
L 78.367313 -54.206651 
L 76.86603 -53.235799 
L 75.637022 -52.264948 
L 74.736722 -51.294097 
L 74.145372 -50.323246 
L 73.796625 -49.352394 
z
" style="stroke: #494949; stroke-width: 1.5"/>
    </defs>
    <g clip-path="url(#pb94309433d)">
     <use xlink:href="#m85569abbf0" x="0" y="210.607812" style="fill: #5875a4; stroke: #494949; stroke-width: 1.5"/>
    </g>
   </g>
   <g id="PolyCollection_2">
    <defs>
     <path id="m57b4b87455" d="M 101.649813 -47.542798 
L 101.078312 -47.542798 
L 100.811918 -48.712643 
L 100.37557 -49.882487 
L 99.721121 -51.052331 
L 98.822738 -52.222175 
L 97.694842 -53.392019 
L 96.401413 -54.561864 
L 95.049755 -55.731708 
L 93.768344 -56.901552 
L 92.676519 -58.071396 
L 91.858189 -59.241241 
L 91.349435 -60.411085 
L 91.142357 -61.580929 
L 91.199792 -62.750773 
L 91.472135 -63.920618 
L 91.909487 -65.090462 
L 92.46707 -66.260306 
L 93.105781 -67.43015 
L 93.790923 -68.599995 
L 94.491223 -69.769839 
L 95.178681 -70.939683 
L 95.829049 -72.109527 
L 96.422771 -73.279372 
L 96.946445 -74.449216 
L 97.394687 -75.61906 
L 97.77157 -76.788904 
L 98.090245 -77.958748 
L 98.369723 -79.128593 
L 98.629263 -80.298437 
L 98.882522 -81.468281 
L 99.134185 -82.638125 
L 99.380575 -83.80797 
L 99.613486 -84.977814 
L 99.82479 -86.147658 
L 100.009392 -87.317502 
L 100.16559 -88.487347 
L 100.293679 -89.657191 
L 100.394457 -90.827035 
L 100.468914 -91.996879 
L 100.519185 -93.166724 
L 100.549866 -94.336568 
L 100.568462 -95.506412 
L 100.584343 -96.676256 
L 100.606456 -97.846101 
L 100.640775 -99.015945 
L 100.688614 -100.185789 
L 100.746479 -101.355633 
L 100.807498 -102.525478 
L 100.863813 -103.695322 
L 100.909074 -104.865166 
L 100.940234 -106.03501 
L 100.958207 -107.204854 
L 100.967324 -108.374699 
L 100.973819 -109.544543 
L 100.983798 -110.714387 
L 101.001254 -111.884231 
L 101.026802 -113.054076 
L 101.057605 -114.22392 
L 101.088552 -115.393764 
L 101.114207 -116.563608 
L 101.130717 -117.733453 
L 101.136962 -118.903297 
L 101.134659 -120.073141 
L 101.127572 -121.242985 
L 101.120243 -122.41283 
L 101.116652 -123.582674 
L 101.119175 -124.752518 
L 101.128104 -125.922362 
L 101.141846 -127.092207 
L 101.157699 -128.262051 
L 101.172873 -129.431895 
L 101.185362 -130.601739 
L 101.194411 -131.771584 
L 101.200532 -132.941428 
L 101.205217 -134.111272 
L 101.210468 -135.281116 
L 101.218245 -136.45096 
L 101.229903 -137.620805 
L 101.245759 -138.790649 
L 101.264957 -139.960493 
L 101.285712 -141.130337 
L 101.30586 -142.300182 
L 101.323476 -143.470026 
L 101.33729 -144.63987 
L 101.346806 -145.809714 
L 101.352138 -146.979559 
L 101.353753 -148.149403 
L 101.352284 -149.319247 
L 101.348498 -150.489091 
L 101.343356 -151.658936 
L 101.338044 -152.82878 
L 101.333837 -153.998624 
L 101.331814 -155.168468 
L 101.332522 -156.338313 
L 101.335801 -157.508157 
L 101.340867 -158.678001 
L 101.346625 -159.847845 
L 101.352055 -161.017689 
L 101.35649 -162.187534 
L 101.359688 -163.357378 
L 101.368437 -163.357378 
L 101.368437 -163.357378 
L 101.371635 -162.187534 
L 101.37607 -161.017689 
L 101.3815 -159.847845 
L 101.387258 -158.678001 
L 101.392324 -157.508157 
L 101.395603 -156.338313 
L 101.396311 -155.168468 
L 101.394288 -153.998624 
L 101.390081 -152.82878 
L 101.384769 -151.658936 
L 101.379627 -150.489091 
L 101.375841 -149.319247 
L 101.374372 -148.149403 
L 101.375987 -146.979559 
L 101.381319 -145.809714 
L 101.390835 -144.63987 
L 101.404649 -143.470026 
L 101.422265 -142.300182 
L 101.442413 -141.130337 
L 101.463168 -139.960493 
L 101.482366 -138.790649 
L 101.498222 -137.620805 
L 101.50988 -136.45096 
L 101.517657 -135.281116 
L 101.522908 -134.111272 
L 101.527593 -132.941428 
L 101.533714 -131.771584 
L 101.542763 -130.601739 
L 101.555252 -129.431895 
L 101.570426 -128.262051 
L 101.586279 -127.092207 
L 101.600021 -125.922362 
L 101.60895 -124.752518 
L 101.611473 -123.582674 
L 101.607882 -122.41283 
L 101.600553 -121.242985 
L 101.593466 -120.073141 
L 101.591163 -118.903297 
L 101.597408 -117.733453 
L 101.613918 -116.563608 
L 101.639573 -115.393764 
L 101.67052 -114.22392 
L 101.701323 -113.054076 
L 101.726871 -111.884231 
L 101.744327 -110.714387 
L 101.754306 -109.544543 
L 101.760801 -108.374699 
L 101.769918 -107.204854 
L 101.787891 -106.03501 
L 101.819051 -104.865166 
L 101.864312 -103.695322 
L 101.920627 -102.525478 
L 101.981646 -101.355633 
L 102.039511 -100.185789 
L 102.08735 -99.015945 
L 102.121669 -97.846101 
L 102.143782 -96.676256 
L 102.159663 -95.506412 
L 102.178259 -94.336568 
L 102.20894 -93.166724 
L 102.259211 -91.996879 
L 102.333668 -90.827035 
L 102.434446 -89.657191 
L 102.562535 -88.487347 
L 102.718733 -87.317502 
L 102.903335 -86.147658 
L 103.114639 -84.977814 
L 103.34755 -83.80797 
L 103.59394 -82.638125 
L 103.845603 -81.468281 
L 104.098862 -80.298437 
L 104.358402 -79.128593 
L 104.63788 -77.958748 
L 104.956555 -76.788904 
L 105.333438 -75.61906 
L 105.78168 -74.449216 
L 106.305354 -73.279372 
L 106.899076 -72.109527 
L 107.549444 -70.939683 
L 108.236902 -69.769839 
L 108.937202 -68.599995 
L 109.622344 -67.43015 
L 110.261055 -66.260306 
L 110.818638 -65.090462 
L 111.25599 -63.920618 
L 111.528333 -62.750773 
L 111.585768 -61.580929 
L 111.37869 -60.411085 
L 110.869936 -59.241241 
L 110.051606 -58.071396 
L 108.959781 -56.901552 
L 107.67837 -55.731708 
L 106.326712 -54.561864 
L 105.033283 -53.392019 
L 103.905387 -52.222175 
L 103.007004 -51.052331 
L 102.352555 -49.882487 
L 101.916207 -48.712643 
L 101.649813 -47.542798 
z
" style="stroke: #494949; stroke-width: 1.5"/>
    </defs>
    <g clip-path="url(#pb94309433d)">
     <use xlink:href="#m57b4b87455" x="0" y="210.607812" style="fill: #cc8963; stroke: #494949; stroke-width: 1.5"/>
    </g>
   </g>
   <g id="PolyCollection_3">
    <defs>
     <path id="me32836d91a" d="M 129.529888 -47.014258 
L 128.998237 -47.014258 
L 128.731838 -48.311103 
L 128.283868 -49.607949 
L 127.599486 -50.904794 
L 126.649808 -52.20164 
L 125.453553 -53.498486 
L 124.087561 -54.795331 
L 122.677937 -56.092177 
L 121.372666 -57.389022 
L 120.306537 -58.685868 
L 119.572891 -59.982714 
L 119.211614 -61.279559 
L 119.213117 -62.576405 
L 119.531093 -63.87325 
L 120.09654 -65.170096 
L 120.829653 -66.466942 
L 121.650027 -67.763787 
L 122.486031 -69.060633 
L 123.282427 -70.357478 
L 124.004079 -71.654324 
L 124.634688 -72.951169 
L 125.171883 -74.248015 
L 125.621624 -75.544861 
L 125.994403 -76.841706 
L 126.303636 -78.138552 
L 126.564881 -79.435397 
L 126.794277 -80.732243 
L 127.005883 -82.029089 
L 127.209013 -83.325934 
L 127.406969 -84.62278 
L 127.597881 -85.919625 
L 127.777142 -87.216471 
L 127.940251 -88.513317 
L 128.084821 -89.810162 
L 128.211018 -91.107008 
L 128.320499 -92.403853 
L 128.414667 -93.700699 
L 128.493357 -94.997545 
L 128.554724 -96.29439 
L 128.596359 -97.591236 
L 128.616883 -98.888081 
L 128.617122 -100.184927 
L 128.600386 -101.481773 
L 128.571978 -102.778618 
L 128.538385 -104.075464 
L 128.506475 -105.372309 
L 128.482732 -106.669155 
L 128.472463 -107.966001 
L 128.479026 -109.262846 
L 128.503297 -110.559692 
L 128.543611 -111.856537 
L 128.596183 -113.153383 
L 128.655871 -114.450229 
L 128.717035 -115.747074 
L 128.774383 -117.04392 
L 128.82379 -118.340765 
L 128.863056 -119.637611 
L 128.892401 -120.934457 
L 128.914395 -122.231302 
L 128.933106 -123.528148 
L 128.95262 -124.824993 
L 128.975525 -126.121839 
L 129.002023 -127.418684 
L 129.030113 -128.71553 
L 129.056737 -130.012376 
L 129.079307 -131.309221 
L 129.096904 -132.606067 
L 129.110542 -133.902912 
L 129.122446 -135.199758 
L 129.134728 -136.496604 
L 129.148233 -137.793449 
L 129.162164 -139.090295 
L 129.174629 -140.38714 
L 129.183753 -141.683986 
L 129.188719 -142.980832 
L 129.190261 -144.277677 
L 129.190423 -145.574523 
L 129.191724 -146.871368 
L 129.196109 -148.168214 
L 129.204172 -149.46506 
L 129.214987 -150.761905 
L 129.226598 -152.058751 
L 129.236844 -153.355596 
L 129.244099 -154.652442 
L 129.247648 -155.949288 
L 129.247672 -157.246133 
L 129.245004 -158.542979 
L 129.240818 -159.839824 
L 129.236339 -161.13667 
L 129.232628 -162.433516 
L 129.230447 -163.730361 
L 129.23021 -165.027207 
L 129.231991 -166.324052 
L 129.235549 -167.620898 
L 129.24037 -168.917744 
L 129.245754 -170.214589 
L 129.250971 -171.511435 
L 129.25544 -172.80828 
L 129.258852 -174.105126 
L 129.261182 -175.401972 
L 129.266943 -175.401972 
L 129.266943 -175.401972 
L 129.269273 -174.105126 
L 129.272685 -172.80828 
L 129.277154 -171.511435 
L 129.282371 -170.214589 
L 129.287755 -168.917744 
L 129.292576 -167.620898 
L 129.296134 -166.324052 
L 129.297915 -165.027207 
L 129.297678 -163.730361 
L 129.295497 -162.433516 
L 129.291786 -161.13667 
L 129.287307 -159.839824 
L 129.283121 -158.542979 
L 129.280453 -157.246133 
L 129.280477 -155.949288 
L 129.284026 -154.652442 
L 129.291281 -153.355596 
L 129.301527 -152.058751 
L 129.313138 -150.761905 
L 129.323953 -149.46506 
L 129.332016 -148.168214 
L 129.336401 -146.871368 
L 129.337702 -145.574523 
L 129.337864 -144.277677 
L 129.339406 -142.980832 
L 129.344372 -141.683986 
L 129.353496 -140.38714 
L 129.365961 -139.090295 
L 129.379892 -137.793449 
L 129.393397 -136.496604 
L 129.405679 -135.199758 
L 129.417583 -133.902912 
L 129.431221 -132.606067 
L 129.448818 -131.309221 
L 129.471388 -130.012376 
L 129.498012 -128.71553 
L 129.526102 -127.418684 
L 129.5526 -126.121839 
L 129.575505 -124.824993 
L 129.595019 -123.528148 
L 129.61373 -122.231302 
L 129.635724 -120.934457 
L 129.665069 -119.637611 
L 129.704335 -118.340765 
L 129.753742 -117.04392 
L 129.81109 -115.747074 
L 129.872254 -114.450229 
L 129.931942 -113.153383 
L 129.984514 -111.856537 
L 130.024828 -110.559692 
L 130.049099 -109.262846 
L 130.055662 -107.966001 
L 130.045393 -106.669155 
L 130.02165 -105.372309 
L 129.98974 -104.075464 
L 129.956147 -102.778618 
L 129.927739 -101.481773 
L 129.911003 -100.184927 
L 129.911242 -98.888081 
L 129.931766 -97.591236 
L 129.973401 -96.29439 
L 130.034768 -94.997545 
L 130.113458 -93.700699 
L 130.207626 -92.403853 
L 130.317107 -91.107008 
L 130.443304 -89.810162 
L 130.587874 -88.513317 
L 130.750983 -87.216471 
L 130.930244 -85.919625 
L 131.121156 -84.62278 
L 131.319112 -83.325934 
L 131.522242 -82.029089 
L 131.733848 -80.732243 
L 131.963244 -79.435397 
L 132.224489 -78.138552 
L 132.533722 -76.841706 
L 132.906501 -75.544861 
L 133.356242 -74.248015 
L 133.893437 -72.951169 
L 134.524046 -71.654324 
L 135.245698 -70.357478 
L 136.042094 -69.060633 
L 136.878098 -67.763787 
L 137.698472 -66.466942 
L 138.431585 -65.170096 
L 138.997032 -63.87325 
L 139.315008 -62.576405 
L 139.316511 -61.279559 
L 138.955234 -59.982714 
L 138.221588 -58.685868 
L 137.155459 -57.389022 
L 135.850188 -56.092177 
L 134.440564 -54.795331 
L 133.074572 -53.498486 
L 131.878317 -52.20164 
L 130.928639 -50.904794 
L 130.244257 -49.607949 
L 129.796287 -48.311103 
L 129.529888 -47.014258 
z
" style="stroke: #494949; stroke-width: 1.5"/>
    </defs>
    <g clip-path="url(#pb94309433d)">
     <use xlink:href="#me32836d91a" x="0" y="210.607812" style="fill: #5f9e6e; stroke: #494949; stroke-width: 1.5"/>
    </g>
   </g>
   <g id="PolyCollection_4">
    <defs>
     <path id="mfc58db286e" d="M 157.475661 -47.190624 
L 156.852464 -47.190624 
L 156.566542 -48.377361 
L 156.100572 -49.564098 
L 155.404489 -50.750835 
L 154.452826 -51.937572 
L 153.265085 -53.124308 
L 151.91763 -54.311045 
L 150.538603 -55.497782 
L 149.283497 -56.684519 
L 148.297884 -57.871256 
L 147.680606 -59.057993 
L 147.461214 -60.24473 
L 147.599394 -61.431466 
L 148.004772 -62.618203 
L 148.567853 -63.80494 
L 149.189949 -64.991677 
L 149.802453 -66.178414 
L 150.371651 -67.365151 
L 150.89152 -68.551888 
L 151.370771 -69.738624 
L 151.820733 -70.925361 
L 152.248036 -72.112098 
L 152.652723 -73.298835 
L 153.0301 -74.485572 
L 153.374156 -75.672309 
L 153.680936 -76.859046 
L 153.950929 -78.045782 
L 154.189767 -79.232519 
L 154.406866 -80.419256 
L 154.612257 -81.605993 
L 154.812838 -82.79273 
L 155.009761 -83.979467 
L 155.198256 -85.166203 
L 155.369981 -86.35294 
L 155.516735 -87.539677 
L 155.633873 -88.726414 
L 155.722129 -89.913151 
L 155.787416 -91.099888 
L 155.839 -92.286625 
L 155.886828 -93.473361 
L 155.938876 -94.660098 
L 155.999229 -95.846835 
L 156.067321 -97.033572 
L 156.138539 -98.220309 
L 156.206001 -99.407046 
L 156.263016 -100.593783 
L 156.305492 -101.780519 
L 156.333506 -102.967256 
L 156.351472 -104.153993 
L 156.366808 -105.34073 
L 156.387557 -106.527467 
L 156.41982 -107.714204 
L 156.465951 -108.900941 
L 156.524134 -110.087677 
L 156.589375 -111.274414 
L 156.655403 -112.461151 
L 156.716664 -113.647888 
L 156.769726 -114.834625 
L 156.813727 -116.021362 
L 156.849936 -117.208098 
L 156.880726 -118.394835 
L 156.908391 -119.581572 
L 156.934203 -120.768309 
L 156.958022 -121.955046 
L 156.978585 -123.141783 
L 156.994319 -124.32852 
L 157.004291 -125.515256 
L 157.008818 -126.701993 
L 157.009457 -127.88873 
L 157.008416 -129.075467 
L 157.007764 -130.262204 
L 157.008842 -131.448941 
L 157.012099 -132.635678 
L 157.017316 -133.822414 
L 157.02395 -135.009151 
L 157.031394 -136.195888 
L 157.039066 -137.382625 
L 157.04639 -138.569362 
L 157.05279 -139.756099 
L 157.057772 -140.942836 
L 157.061062 -142.129572 
L 157.062754 -143.316309 
L 157.063368 -144.503046 
L 157.063783 -145.689783 
L 157.065019 -146.87652 
L 157.06796 -148.063257 
L 157.073076 -149.249993 
L 157.08029 -150.43673 
L 157.089038 -151.623467 
L 157.098507 -152.810204 
L 157.107946 -153.996941 
L 157.116877 -155.183678 
L 157.125136 -156.370415 
L 157.132738 -157.557151 
L 157.139706 -158.743888 
L 157.14596 -159.930625 
L 157.151331 -161.117362 
L 157.155661 -162.304099 
L 157.158894 -163.490836 
L 157.161112 -164.677573 
L 157.167013 -164.677573 
L 157.167013 -164.677573 
L 157.169231 -163.490836 
L 157.172464 -162.304099 
L 157.176794 -161.117362 
L 157.182165 -159.930625 
L 157.188419 -158.743888 
L 157.195387 -157.557151 
L 157.202989 -156.370415 
L 157.211248 -155.183678 
L 157.220179 -153.996941 
L 157.229618 -152.810204 
L 157.239087 -151.623467 
L 157.247835 -150.43673 
L 157.255049 -149.249993 
L 157.260165 -148.063257 
L 157.263106 -146.87652 
L 157.264342 -145.689783 
L 157.264757 -144.503046 
L 157.265371 -143.316309 
L 157.267063 -142.129572 
L 157.270353 -140.942836 
L 157.275335 -139.756099 
L 157.281735 -138.569362 
L 157.289059 -137.382625 
L 157.296731 -136.195888 
L 157.304175 -135.009151 
L 157.310809 -133.822414 
L 157.316026 -132.635678 
L 157.319283 -131.448941 
L 157.320361 -130.262204 
L 157.319709 -129.075467 
L 157.318668 -127.88873 
L 157.319307 -126.701993 
L 157.323834 -125.515256 
L 157.333806 -124.32852 
L 157.34954 -123.141783 
L 157.370103 -121.955046 
L 157.393922 -120.768309 
L 157.419734 -119.581572 
L 157.447399 -118.394835 
L 157.478189 -117.208098 
L 157.514398 -116.021362 
L 157.558399 -114.834625 
L 157.611461 -113.647888 
L 157.672722 -112.461151 
L 157.73875 -111.274414 
L 157.803991 -110.087677 
L 157.862174 -108.900941 
L 157.908305 -107.714204 
L 157.940568 -106.527467 
L 157.961317 -105.34073 
L 157.976653 -104.153993 
L 157.994619 -102.967256 
L 158.022633 -101.780519 
L 158.065109 -100.593783 
L 158.122124 -99.407046 
L 158.189586 -98.220309 
L 158.260804 -97.033572 
L 158.328896 -95.846835 
L 158.389249 -94.660098 
L 158.441297 -93.473361 
L 158.489125 -92.286625 
L 158.540709 -91.099888 
L 158.605996 -89.913151 
L 158.694252 -88.726414 
L 158.81139 -87.539677 
L 158.958144 -86.35294 
L 159.129869 -85.166203 
L 159.318364 -83.979467 
L 159.515287 -82.79273 
L 159.715868 -81.605993 
L 159.921259 -80.419256 
L 160.138358 -79.232519 
L 160.377196 -78.045782 
L 160.647189 -76.859046 
L 160.953969 -75.672309 
L 161.298025 -74.485572 
L 161.675402 -73.298835 
L 162.080089 -72.112098 
L 162.507392 -70.925361 
L 162.957354 -69.738624 
L 163.436605 -68.551888 
L 163.956474 -67.365151 
L 164.525672 -66.178414 
L 165.138176 -64.991677 
L 165.760272 -63.80494 
L 166.323353 -62.618203 
L 166.728731 -61.431466 
L 166.866911 -60.24473 
L 166.647519 -59.057993 
L 166.030241 -57.871256 
L 165.044628 -56.684519 
L 163.789522 -55.497782 
L 162.410495 -54.311045 
L 161.06304 -53.124308 
L 159.875299 -51.937572 
L 158.923636 -50.750835 
L 158.227553 -49.564098 
L 157.761583 -48.377361 
L 157.475661 -47.190624 
z
" style="stroke: #494949; stroke-width: 1.5"/>
    </defs>
    <g clip-path="url(#pb94309433d)">
     <use xlink:href="#mfc58db286e" x="0" y="210.607812" style="fill: #b55d60; stroke: #494949; stroke-width: 1.5"/>
    </g>
   </g>
   <g id="PolyCollection_5">
    <defs>
     <path id="m9c918fe187" d="M 185.25623 -46.410862 
L 184.871895 -46.410862 
L 184.661622 -47.920326 
L 184.300208 -49.429791 
L 183.745559 -50.939255 
L 182.985523 -52.448719 
L 182.055745 -53.958183 
L 181.041066 -55.467647 
L 180.055419 -56.977111 
L 179.208126 -58.486575 
L 178.573047 -59.99604 
L 178.174349 -61.505504 
L 177.991785 -63.014968 
L 177.978447 -64.524432 
L 178.080929 -66.033896 
L 178.254459 -67.54336 
L 178.46977 -69.052824 
L 178.712257 -70.562289 
L 178.976782 -72.071753 
L 179.262525 -73.581217 
L 179.570597 -75.090681 
L 179.903832 -76.600145 
L 180.265998 -78.109609 
L 180.658405 -79.619073 
L 181.074695 -81.128538 
L 181.497255 -82.638002 
L 181.899013 -84.147466 
L 182.251649 -85.65693 
L 182.536871 -87.166394 
L 182.754375 -88.675858 
L 182.921367 -90.185322 
L 183.063798 -91.694787 
L 183.204794 -93.204251 
L 183.356888 -94.713715 
L 183.52098 -96.223179 
L 183.690092 -97.732643 
L 183.854043 -99.242107 
L 184.002726 -100.751571 
L 184.127999 -102.261036 
L 184.225062 -103.7705 
L 184.293546 -105.279964 
L 184.337813 -106.789428 
L 184.366075 -108.298892 
L 184.388446 -109.808356 
L 184.41449 -111.31782 
L 184.45094 -112.827285 
L 184.500193 -114.336749 
L 184.560061 -115.846213 
L 184.624965 -117.355677 
L 184.688257 -118.865141 
L 184.744758 -120.374605 
L 184.792321 -121.884069 
L 184.831631 -123.393534 
L 184.864511 -124.902998 
L 184.891971 -126.412462 
L 184.91334 -127.921926 
L 184.926926 -129.43139 
L 184.931516 -130.940854 
L 184.927554 -132.450318 
L 184.917316 -133.959783 
L 184.904212 -135.469247 
L 184.891801 -136.978711 
L 184.883011 -138.488175 
L 184.879725 -139.997639 
L 184.882663 -141.507103 
L 184.891414 -143.016567 
L 184.904519 -144.526032 
L 184.919671 -146.035496 
L 184.934176 -147.54496 
L 184.94578 -149.054424 
L 184.953566 -150.563888 
L 184.958398 -152.073352 
L 184.962435 -153.582816 
L 184.967869 -155.092281 
L 184.975694 -156.601745 
L 184.98536 -158.111209 
L 184.995489 -159.620673 
L 185.004969 -161.130137 
L 185.013574 -162.639601 
L 185.021745 -164.149065 
L 185.029937 -165.65853 
L 185.038117 -167.167994 
L 185.045751 -168.677458 
L 185.052142 -170.186922 
L 185.056787 -171.696386 
L 185.059485 -173.20585 
L 185.060222 -174.715314 
L 185.058983 -176.224779 
L 185.055702 -177.734243 
L 185.050436 -179.243707 
L 185.043663 -180.753171 
L 185.036496 -182.262635 
L 185.030553 -183.772099 
L 185.027444 -185.281563 
L 185.028092 -186.791028 
L 185.032302 -188.300492 
L 185.038859 -189.809956 
L 185.04609 -191.31942 
L 185.05255 -192.828884 
L 185.05744 -194.338348 
L 185.060642 -195.847812 
L 185.067483 -195.847812 
L 185.067483 -195.847812 
L 185.070685 -194.338348 
L 185.075575 -192.828884 
L 185.082035 -191.31942 
L 185.089266 -189.809956 
L 185.095823 -188.300492 
L 185.100033 -186.791028 
L 185.100681 -185.281563 
L 185.097572 -183.772099 
L 185.091629 -182.262635 
L 185.084462 -180.753171 
L 185.077689 -179.243707 
L 185.072423 -177.734243 
L 185.069142 -176.224779 
L 185.067903 -174.715314 
L 185.06864 -173.20585 
L 185.071338 -171.696386 
L 185.075983 -170.186922 
L 185.082374 -168.677458 
L 185.090008 -167.167994 
L 185.098188 -165.65853 
L 185.10638 -164.149065 
L 185.114551 -162.639601 
L 185.123156 -161.130137 
L 185.132636 -159.620673 
L 185.142765 -158.111209 
L 185.152431 -156.601745 
L 185.160256 -155.092281 
L 185.16569 -153.582816 
L 185.169727 -152.073352 
L 185.174559 -150.563888 
L 185.182345 -149.054424 
L 185.193949 -147.54496 
L 185.208454 -146.035496 
L 185.223606 -144.526032 
L 185.236711 -143.016567 
L 185.245462 -141.507103 
L 185.2484 -139.997639 
L 185.245114 -138.488175 
L 185.236324 -136.978711 
L 185.223913 -135.469247 
L 185.210809 -133.959783 
L 185.200571 -132.450318 
L 185.196609 -130.940854 
L 185.201199 -129.43139 
L 185.214785 -127.921926 
L 185.236154 -126.412462 
L 185.263614 -124.902998 
L 185.296494 -123.393534 
L 185.335804 -121.884069 
L 185.383367 -120.374605 
L 185.439868 -118.865141 
L 185.50316 -117.355677 
L 185.568064 -115.846213 
L 185.627932 -114.336749 
L 185.677185 -112.827285 
L 185.713635 -111.31782 
L 185.739679 -109.808356 
L 185.76205 -108.298892 
L 185.790312 -106.789428 
L 185.834579 -105.279964 
L 185.903063 -103.7705 
L 186.000126 -102.261036 
L 186.125399 -100.751571 
L 186.274082 -99.242107 
L 186.438033 -97.732643 
L 186.607145 -96.223179 
L 186.771237 -94.713715 
L 186.923331 -93.204251 
L 187.064327 -91.694787 
L 187.206758 -90.185322 
L 187.37375 -88.675858 
L 187.591254 -87.166394 
L 187.876476 -85.65693 
L 188.229112 -84.147466 
L 188.63087 -82.638002 
L 189.05343 -81.128538 
L 189.46972 -79.619073 
L 189.862127 -78.109609 
L 190.224293 -76.600145 
L 190.557528 -75.090681 
L 190.8656 -73.581217 
L 191.151343 -72.071753 
L 191.415868 -70.562289 
L 191.658355 -69.052824 
L 191.873666 -67.54336 
L 192.047196 -66.033896 
L 192.149678 -64.524432 
L 192.13634 -63.014968 
L 191.953776 -61.505504 
L 191.555078 -59.99604 
L 190.919999 -58.486575 
L 190.072706 -56.977111 
L 189.087059 -55.467647 
L 188.07238 -53.958183 
L 187.142602 -52.448719 
L 186.382566 -50.939255 
L 185.827917 -49.429791 
L 185.466503 -47.920326 
L 185.25623 -46.410862 
z
" style="stroke: #494949; stroke-width: 1.5"/>
    </defs>
    <g clip-path="url(#pb94309433d)">
     <use xlink:href="#m9c918fe187" x="0" y="210.607812" style="fill: #857aab; stroke: #494949; stroke-width: 1.5"/>
    </g>
   </g>
   <g id="PolyCollection_6">
    <defs>
     <path id="m878808c849" d="M 213.116984 -44.647812 
L 212.811141 -44.647812 
L 212.685724 -46.0744 
L 212.487524 -47.500987 
L 212.1955 -48.927574 
L 211.794409 -50.354162 
L 211.281017 -51.780749 
L 210.668985 -53.207336 
L 209.99015 -54.633924 
L 209.290895 -56.060511 
L 208.624009 -57.487098 
L 208.038323 -58.913686 
L 207.569443 -60.340273 
L 207.23451 -61.76686 
L 207.032376 -63.193448 
L 206.94848 -64.620035 
L 206.962074 -66.046622 
L 207.052945 -67.47321 
L 207.205399 -68.899797 
L 207.408756 -70.326384 
L 207.655111 -71.752972 
L 207.936126 -73.179559 
L 208.240663 -74.606146 
L 208.554395 -76.032734 
L 208.861413 -77.459321 
L 209.146986 -78.885908 
L 209.400226 -80.312496 
L 209.615669 -81.739083 
L 209.793308 -83.16567 
L 209.937333 -84.592257 
L 210.054215 -86.018845 
L 210.150915 -87.445432 
L 210.233769 -88.872019 
L 210.308172 -90.298607 
L 210.37879 -91.725194 
L 210.44988 -93.151781 
L 210.525332 -94.578369 
L 210.60835 -96.004956 
L 210.700934 -97.431543 
L 210.803465 -98.858131 
L 210.914682 -100.284718 
L 211.032121 -101.711305 
L 211.152911 -103.137893 
L 211.274592 -104.56448 
L 211.395639 -105.991067 
L 211.515458 -107.417655 
L 211.633902 -108.844242 
L 211.750573 -110.270829 
L 211.864268 -111.697417 
L 211.972855 -113.124004 
L 212.073615 -114.550591 
L 212.163897 -115.977179 
L 212.241806 -117.403766 
L 212.306668 -118.830353 
L 212.359153 -120.25694 
L 212.401043 -121.683528 
L 212.434758 -123.110115 
L 212.462804 -124.536702 
L 212.487321 -125.96329 
L 212.509847 -127.389877 
L 212.531356 -128.816464 
L 212.55247 -130.243052 
L 212.573698 -131.669639 
L 212.595543 -133.096226 
L 212.618418 -134.522814 
L 212.642427 -135.949401 
L 212.667178 -137.375988 
L 212.691768 -138.802576 
L 212.715005 -140.229163 
L 212.735822 -141.65575 
L 212.753714 -143.082338 
L 212.769026 -144.508925 
L 212.78293 -145.935512 
L 212.797067 -147.3621 
L 212.812954 -148.788687 
L 212.831406 -150.215274 
L 212.852216 -151.641862 
L 212.874221 -153.068449 
L 212.895718 -154.495036 
L 212.915025 -155.921624 
L 212.930943 -157.348211 
L 212.942968 -158.774798 
L 212.951228 -160.201385 
L 212.95625 -161.627973 
L 212.958682 -163.05456 
L 212.959104 -164.481147 
L 212.957954 -165.907735 
L 212.955572 -167.334322 
L 212.952295 -168.760909 
L 212.948562 -170.187497 
L 212.944935 -171.614084 
L 212.942041 -173.040671 
L 212.940437 -174.467259 
L 212.94045 -175.893846 
L 212.942079 -177.320433 
L 212.944997 -178.747021 
L 212.948662 -180.173608 
L 212.952474 -181.600195 
L 212.95594 -183.026783 
L 212.95876 -184.45337 
L 212.960838 -185.879957 
L 212.967287 -185.879957 
L 212.967287 -185.879957 
L 212.969365 -184.45337 
L 212.972185 -183.026783 
L 212.975651 -181.600195 
L 212.979463 -180.173608 
L 212.983128 -178.747021 
L 212.986046 -177.320433 
L 212.987675 -175.893846 
L 212.987688 -174.467259 
L 212.986084 -173.040671 
L 212.98319 -171.614084 
L 212.979563 -170.187497 
L 212.97583 -168.760909 
L 212.972553 -167.334322 
L 212.970171 -165.907735 
L 212.969021 -164.481147 
L 212.969443 -163.05456 
L 212.971875 -161.627973 
L 212.976897 -160.201385 
L 212.985157 -158.774798 
L 212.997182 -157.348211 
L 213.0131 -155.921624 
L 213.032407 -154.495036 
L 213.053904 -153.068449 
L 213.075909 -151.641862 
L 213.096719 -150.215274 
L 213.115171 -148.788687 
L 213.131058 -147.3621 
L 213.145195 -145.935512 
L 213.159099 -144.508925 
L 213.174411 -143.082338 
L 213.192303 -141.65575 
L 213.21312 -140.229163 
L 213.236357 -138.802576 
L 213.260947 -137.375988 
L 213.285698 -135.949401 
L 213.309707 -134.522814 
L 213.332582 -133.096226 
L 213.354427 -131.669639 
L 213.375655 -130.243052 
L 213.396769 -128.816464 
L 213.418278 -127.389877 
L 213.440804 -125.96329 
L 213.465321 -124.536702 
L 213.493367 -123.110115 
L 213.527082 -121.683528 
L 213.568972 -120.25694 
L 213.621457 -118.830353 
L 213.686319 -117.403766 
L 213.764228 -115.977179 
L 213.85451 -114.550591 
L 213.95527 -113.124004 
L 214.063857 -111.697417 
L 214.177552 -110.270829 
L 214.294223 -108.844242 
L 214.412667 -107.417655 
L 214.532486 -105.991067 
L 214.653533 -104.56448 
L 214.775214 -103.137893 
L 214.896004 -101.711305 
L 215.013443 -100.284718 
L 215.12466 -98.858131 
L 215.227191 -97.431543 
L 215.319775 -96.004956 
L 215.402793 -94.578369 
L 215.478245 -93.151781 
L 215.549335 -91.725194 
L 215.619953 -90.298607 
L 215.694356 -88.872019 
L 215.77721 -87.445432 
L 215.87391 -86.018845 
L 215.990792 -84.592257 
L 216.134817 -83.16567 
L 216.312456 -81.739083 
L 216.527899 -80.312496 
L 216.781139 -78.885908 
L 217.066712 -77.459321 
L 217.37373 -76.032734 
L 217.687462 -74.606146 
L 217.991999 -73.179559 
L 218.273014 -71.752972 
L 218.519369 -70.326384 
L 218.722726 -68.899797 
L 218.87518 -67.47321 
L 218.966051 -66.046622 
L 218.979645 -64.620035 
L 218.895749 -63.193448 
L 218.693615 -61.76686 
L 218.358682 -60.340273 
L 217.889802 -58.913686 
L 217.304116 -57.487098 
L 216.63723 -56.060511 
L 215.937975 -54.633924 
L 215.25914 -53.207336 
L 214.647108 -51.780749 
L 214.133716 -50.354162 
L 213.732625 -48.927574 
L 213.440601 -47.500987 
L 213.242401 -46.0744 
L 213.116984 -44.647812 
z
" style="stroke: #494949; stroke-width: 1.5"/>
    </defs>
    <g clip-path="url(#pb94309433d)">
     <use xlink:href="#m878808c849" x="0" y="210.607812" style="fill: #8d7866; stroke: #494949; stroke-width: 1.5"/>
    </g>
   </g>
   <g id="line2d_4">
    <path d="M 73.464062 155.25738 
L 73.464062 115.882851 
" clip-path="url(#pb94309433d)" style="fill: none; stroke: #494949; stroke-width: 1.5; stroke-linecap: round"/>
   </g>
   <g id="line2d_5">
    <path d="M 73.464062 151.158794 
L 73.464062 137.004599 
" clip-path="url(#pb94309433d)" style="fill: none; stroke: #494949; stroke-width: 4.5; stroke-linecap: round"/>
   </g>
   <g id="line2d_6">
    <path d="M 101.364062 155.169911 
L 101.364062 117.823351 
" clip-path="url(#pb94309433d)" style="fill: none; stroke: #494949; stroke-width: 1.5; stroke-linecap: round"/>
   </g>
   <g id="line2d_7">
    <path d="M 101.364062 150.424928 
L 101.364062 136.925598 
" clip-path="url(#pb94309433d)" style="fill: none; stroke: #494949; stroke-width: 4.5; stroke-linecap: round"/>
   </g>
   <g id="line2d_8">
    <path d="M 129.264062 155.262233 
L 129.264062 113.843655 
" clip-path="url(#pb94309433d)" style="fill: none; stroke: #494949; stroke-width: 1.5; stroke-linecap: round"/>
   </g>
   <g id="line2d_9">
    <path d="M 129.264062 150.304451 
L 129.264062 135.674795 
" clip-path="url(#pb94309433d)" style="fill: none; stroke: #494949; stroke-width: 4.5; stroke-linecap: round"/>
   </g>
   <g id="line2d_10">
    <path d="M 157.164062 155.258728 
L 157.164062 108.434708 
" clip-path="url(#pb94309433d)" style="fill: none; stroke: #494949; stroke-width: 1.5; stroke-linecap: round"/>
   </g>
   <g id="line2d_11">
    <path d="M 157.164062 150.882538 
L 157.164062 133.870497 
" clip-path="url(#pb94309433d)" style="fill: none; stroke: #494949; stroke-width: 4.5; stroke-linecap: round"/>
   </g>
   <g id="line2d_12">
    <path d="M 185.064062 155.23486 
L 185.064062 101.658095 
" clip-path="url(#pb94309433d)" style="fill: none; stroke: #494949; stroke-width: 1.5; stroke-linecap: round"/>
   </g>
   <g id="line2d_13">
    <path d="M 185.064062 147.958751 
L 185.064062 129.254093 
" clip-path="url(#pb94309433d)" style="fill: none; stroke: #494949; stroke-width: 4.5; stroke-linecap: round"/>
   </g>
   <g id="line2d_14">
    <path d="M 212.964063 155.250798 
L 212.964063 79.101102 
" clip-path="url(#pb94309433d)" style="fill: none; stroke: #494949; stroke-width: 1.5; stroke-linecap: round"/>
   </g>
   <g id="line2d_15">
    <path d="M 212.964063 146.850745 
L 212.964063 119.736265 
" clip-path="url(#pb94309433d)" style="fill: none; stroke: #494949; stroke-width: 4.5; stroke-linecap: round"/>
   </g>
   <g id="patch_3">
    <path d="M 59.514063 173.52 
L 59.514063 7.2 
" style="fill: none; stroke: #ffffff; stroke-width: 1.25; stroke-linejoin: miter; stroke-linecap: square"/>
   </g>
   <g id="patch_4">
    <path d="M 226.914062 173.52 
L 226.914062 7.2 
" style="fill: none; stroke: #ffffff; stroke-width: 1.25; stroke-linejoin: miter; stroke-linecap: square"/>
   </g>
   <g id="patch_5">
    <path d="M 59.514062 173.52 
L 226.914062 173.52 
" style="fill: none; stroke: #ffffff; stroke-width: 1.25; stroke-linejoin: miter; stroke-linecap: square"/>
   </g>
   <g id="patch_6">
    <path d="M 59.514062 7.2 
L 226.914062 7.2 
" style="fill: none; stroke: #ffffff; stroke-width: 1.25; stroke-linejoin: miter; stroke-linecap: square"/>
   </g>
   <g id="PathCollection_1">
    <defs>
     <path id="m6f365258ca" d="M 0 1.5 
C 0.397805 1.5 0.77937 1.341951 1.06066 1.06066 
C 1.341951 0.77937 1.5 0.397805 1.5 0 
C 1.5 -0.397805 1.341951 -0.77937 1.06066 -1.06066 
C 0.77937 -1.341951 0.397805 -1.5 0 -1.5 
C -0.397805 -1.5 -0.77937 -1.341951 -1.06066 -1.06066 
C -1.341951 -0.77937 -1.5 -0.397805 -1.5 0 
C -1.5 0.397805 -1.341951 0.77937 -1.06066 1.06066 
C -0.77937 1.341951 -0.397805 1.5 0 1.5 
z
" style="stroke: #494949"/>
    </defs>
    <g clip-path="url(#pb94309433d)">
     <use xlink:href="#m6f365258ca" x="73.464062" y="145.820019" style="fill: #ffffff; stroke: #494949"/>
    </g>
   </g>
   <g id="PathCollection_2">
    <g clip-path="url(#pb94309433d)">
     <use xlink:href="#m6f365258ca" x="101.364062" y="145.12534" style="fill: #ffffff; stroke: #494949"/>
    </g>
   </g>
   <g id="PathCollection_3">
    <g clip-path="url(#pb94309433d)">
     <use xlink:href="#m6f365258ca" x="129.264062" y="145.326065" style="fill: #ffffff; stroke: #494949"/>
    </g>
   </g>
   <g id="PathCollection_4">
    <g clip-path="url(#pb94309433d)">
     <use xlink:href="#m6f365258ca" x="157.164062" y="144.916838" style="fill: #ffffff; stroke: #494949"/>
    </g>
   </g>
   <g id="PathCollection_5">
    <g clip-path="url(#pb94309433d)">
     <use xlink:href="#m6f365258ca" x="185.064062" y="139.790773" style="fill: #ffffff; stroke: #494949"/>
    </g>
   </g>
   <g id="PathCollection_6">
    <g clip-path="url(#pb94309433d)">
     <use xlink:href="#m6f365258ca" x="212.964063" y="137.132212" style="fill: #ffffff; stroke: #494949"/>
    </g>
   </g>
  </g>
 </g>
 <defs>
  <clipPath id="pb94309433d">
   <rect x="59.514063" y="7.2" width="167.4" height="166.32"/>
  </clipPath>
 </defs>
</svg>
