<?xml version="1.0" encoding="utf-8" standalone="no"?>
<!DOCTYPE svg PUBLIC "-//W3C//DTD SVG 1.1//EN"
  "http://www.w3.org/Graphics/SVG/1.1/DTD/svg11.dtd">
<svg xmlns:xlink="http://www.w3.org/1999/xlink" width="365.550938pt" height="347.742188pt" viewBox="0 0 365.550938 347.742188" xmlns="http://www.w3.org/2000/svg" version="1.1">
 <metadata>
  <rdf:RDF xmlns:dc="http://purl.org/dc/elements/1.1/" xmlns:cc="http://creativecommons.org/ns#" xmlns:rdf="http://www.w3.org/1999/02/22-rdf-syntax-ns#">
   <cc:Work>
    <dc:type rdf:resource="http://purl.org/dc/dcmitype/StillImage"/>
    <dc:date>2024-08-11T22:34:53.734267</dc:date>
    <dc:format>image/svg+xml</dc:format>
    <dc:creator>
     <cc:Agent>
      <dc:title>Matplotlib v3.6.3, https://matplotlib.org/</dc:title>
     </cc:Agent>
    </dc:creator>
   </cc:Work>
  </rdf:RDF>
 </metadata>
 <defs>
  <style type="text/css">*{stroke-linejoin: round; stroke-linecap: butt}</style>
 </defs>
 <g id="figure_1">
  <g id="patch_1">
   <path d="M 0 347.742188 
L 365.550938 347.742188 
L 365.550938 0 
L 0 0 
L 0 347.742188 
z
" style="fill: none"/>
  </g>
  <g id="axes_1">
   <g id="patch_2">
    <path d="M 79.350938 284.4 
L 358.350937 284.4 
L 358.350937 7.2 
L 79.350938 7.2 
L 79.350938 284.4 
z
" style="fill: none"/>
   </g>
   <g id="matplotlib.axis_1">
    <g id="xtick_1">
     <g id="line2d_1">
      <path d="M 82.49224 284.4 
L 82.49224 7.2 
" clip-path="url(#p98db8d24db)" style="fill: none; stroke: #ffffff; stroke-linecap: round"/>
     </g>
     <g id="line2d_2">
      <defs>
       <path id="m58e9c4bc41" d="M 0 0 
L 0 6 
" style="stroke: #000000; stroke-width: 1.25"/>
      </defs>
      <g>
       <use xlink:href="#m58e9c4bc41" x="82.49224" y="284.4" style="stroke: #000000; stroke-width: 1.25"/>
      </g>
     </g>
     <g id="text_1">
      <!-- 0 -->
      <g transform="translate(76.375209 309.647187) scale(0.22 -0.22)">
       <defs>
        <path id="ArialMT-30" d="M 266 2259 
Q 266 3072 433 3567 
Q 600 4063 929 4331 
Q 1259 4600 1759 4600 
Q 2128 4600 2406 4451 
Q 2684 4303 2865 4023 
Q 3047 3744 3150 3342 
Q 3253 2941 3253 2259 
Q 3253 1453 3087 958 
Q 2922 463 2592 192 
Q 2263 -78 1759 -78 
Q 1097 -78 719 397 
Q 266 969 266 2259 
z
M 844 2259 
Q 844 1131 1108 757 
Q 1372 384 1759 384 
Q 2147 384 2411 759 
Q 2675 1134 2675 2259 
Q 2675 3391 2411 3762 
Q 2147 4134 1753 4134 
Q 1366 4134 1134 3806 
Q 844 3388 844 2259 
z
" transform="scale(0.015625)"/>
       </defs>
       <use xlink:href="#ArialMT-30"/>
      </g>
     </g>
    </g>
    <g id="xtick_2">
     <g id="line2d_3">
      <path d="M 200.276379 284.4 
L 200.276379 7.2 
" clip-path="url(#p98db8d24db)" style="fill: none; stroke: #ffffff; stroke-linecap: round"/>
     </g>
     <g id="line2d_4">
      <g>
       <use xlink:href="#m58e9c4bc41" x="200.276379" y="284.4" style="stroke: #000000; stroke-width: 1.25"/>
      </g>
     </g>
     <g id="text_2">
      <!-- 5 -->
      <g transform="translate(194.159348 309.647187) scale(0.22 -0.22)">
       <defs>
        <path id="ArialMT-35" d="M 266 1200 
L 856 1250 
Q 922 819 1161 601 
Q 1400 384 1738 384 
Q 2144 384 2425 690 
Q 2706 997 2706 1503 
Q 2706 1984 2436 2262 
Q 2166 2541 1728 2541 
Q 1456 2541 1237 2417 
Q 1019 2294 894 2097 
L 366 2166 
L 809 4519 
L 3088 4519 
L 3088 3981 
L 1259 3981 
L 1013 2750 
Q 1425 3038 1878 3038 
Q 2478 3038 2890 2622 
Q 3303 2206 3303 1553 
Q 3303 931 2941 478 
Q 2500 -78 1738 -78 
Q 1113 -78 717 272 
Q 322 622 266 1200 
z
" transform="scale(0.015625)"/>
       </defs>
       <use xlink:href="#ArialMT-35"/>
      </g>
     </g>
    </g>
    <g id="xtick_3">
     <g id="line2d_5">
      <path d="M 318.060517 284.4 
L 318.060517 7.2 
" clip-path="url(#p98db8d24db)" style="fill: none; stroke: #ffffff; stroke-linecap: round"/>
     </g>
     <g id="line2d_6">
      <g>
       <use xlink:href="#m58e9c4bc41" x="318.060517" y="284.4" style="stroke: #000000; stroke-width: 1.25"/>
      </g>
     </g>
     <g id="text_3">
      <!-- 10 -->
      <g transform="translate(305.826455 309.647187) scale(0.22 -0.22)">
       <defs>
        <path id="ArialMT-31" d="M 2384 0 
L 1822 0 
L 1822 3584 
Q 1619 3391 1289 3197 
Q 959 3003 697 2906 
L 697 3450 
Q 1169 3672 1522 3987 
Q 1875 4303 2022 4600 
L 2384 4600 
L 2384 0 
z
" transform="scale(0.015625)"/>
       </defs>
       <use xlink:href="#ArialMT-31"/>
       <use xlink:href="#ArialMT-30" x="55.615234"/>
      </g>
     </g>
    </g>
    <g id="text_4">
     <!-- Transfection_Efficiency -->
     <g style="fill: #262626" transform="translate(95.462813 335.490938) scale(0.24 -0.24)">
      <defs>
       <path id="ArialMT-54" d="M 1659 0 
L 1659 4041 
L 150 4041 
L 150 4581 
L 3781 4581 
L 3781 4041 
L 2266 4041 
L 2266 0 
L 1659 0 
z
" transform="scale(0.015625)"/>
       <path id="ArialMT-72" d="M 416 0 
L 416 3319 
L 922 3319 
L 922 2816 
Q 1116 3169 1280 3281 
Q 1444 3394 1641 3394 
Q 1925 3394 2219 3213 
L 2025 2691 
Q 1819 2813 1613 2813 
Q 1428 2813 1281 2702 
Q 1134 2591 1072 2394 
Q 978 2094 978 1738 
L 978 0 
L 416 0 
z
" transform="scale(0.015625)"/>
       <path id="ArialMT-61" d="M 2588 409 
Q 2275 144 1986 34 
Q 1697 -75 1366 -75 
Q 819 -75 525 192 
Q 231 459 231 875 
Q 231 1119 342 1320 
Q 453 1522 633 1644 
Q 813 1766 1038 1828 
Q 1203 1872 1538 1913 
Q 2219 1994 2541 2106 
Q 2544 2222 2544 2253 
Q 2544 2597 2384 2738 
Q 2169 2928 1744 2928 
Q 1347 2928 1158 2789 
Q 969 2650 878 2297 
L 328 2372 
Q 403 2725 575 2942 
Q 747 3159 1072 3276 
Q 1397 3394 1825 3394 
Q 2250 3394 2515 3294 
Q 2781 3194 2906 3042 
Q 3031 2891 3081 2659 
Q 3109 2516 3109 2141 
L 3109 1391 
Q 3109 606 3145 398 
Q 3181 191 3288 0 
L 2700 0 
Q 2613 175 2588 409 
z
M 2541 1666 
Q 2234 1541 1622 1453 
Q 1275 1403 1131 1340 
Q 988 1278 909 1158 
Q 831 1038 831 891 
Q 831 666 1001 516 
Q 1172 366 1500 366 
Q 1825 366 2078 508 
Q 2331 650 2450 897 
Q 2541 1088 2541 1459 
L 2541 1666 
z
" transform="scale(0.015625)"/>
       <path id="ArialMT-6e" d="M 422 0 
L 422 3319 
L 928 3319 
L 928 2847 
Q 1294 3394 1984 3394 
Q 2284 3394 2536 3286 
Q 2788 3178 2913 3003 
Q 3038 2828 3088 2588 
Q 3119 2431 3119 2041 
L 3119 0 
L 2556 0 
L 2556 2019 
Q 2556 2363 2490 2533 
Q 2425 2703 2258 2804 
Q 2091 2906 1866 2906 
Q 1506 2906 1245 2678 
Q 984 2450 984 1813 
L 984 0 
L 422 0 
z
" transform="scale(0.015625)"/>
       <path id="ArialMT-73" d="M 197 991 
L 753 1078 
Q 800 744 1014 566 
Q 1228 388 1613 388 
Q 2000 388 2187 545 
Q 2375 703 2375 916 
Q 2375 1106 2209 1216 
Q 2094 1291 1634 1406 
Q 1016 1563 777 1677 
Q 538 1791 414 1992 
Q 291 2194 291 2438 
Q 291 2659 392 2848 
Q 494 3038 669 3163 
Q 800 3259 1026 3326 
Q 1253 3394 1513 3394 
Q 1903 3394 2198 3281 
Q 2494 3169 2634 2976 
Q 2775 2784 2828 2463 
L 2278 2388 
Q 2241 2644 2061 2787 
Q 1881 2931 1553 2931 
Q 1166 2931 1000 2803 
Q 834 2675 834 2503 
Q 834 2394 903 2306 
Q 972 2216 1119 2156 
Q 1203 2125 1616 2013 
Q 2213 1853 2448 1751 
Q 2684 1650 2818 1456 
Q 2953 1263 2953 975 
Q 2953 694 2789 445 
Q 2625 197 2315 61 
Q 2006 -75 1616 -75 
Q 969 -75 630 194 
Q 291 463 197 991 
z
" transform="scale(0.015625)"/>
       <path id="ArialMT-66" d="M 556 0 
L 556 2881 
L 59 2881 
L 59 3319 
L 556 3319 
L 556 3672 
Q 556 4006 616 4169 
Q 697 4388 901 4523 
Q 1106 4659 1475 4659 
Q 1713 4659 2000 4603 
L 1916 4113 
Q 1741 4144 1584 4144 
Q 1328 4144 1222 4034 
Q 1116 3925 1116 3625 
L 1116 3319 
L 1763 3319 
L 1763 2881 
L 1116 2881 
L 1116 0 
L 556 0 
z
" transform="scale(0.015625)"/>
       <path id="ArialMT-65" d="M 2694 1069 
L 3275 997 
Q 3138 488 2766 206 
Q 2394 -75 1816 -75 
Q 1088 -75 661 373 
Q 234 822 234 1631 
Q 234 2469 665 2931 
Q 1097 3394 1784 3394 
Q 2450 3394 2872 2941 
Q 3294 2488 3294 1666 
Q 3294 1616 3291 1516 
L 816 1516 
Q 847 969 1125 678 
Q 1403 388 1819 388 
Q 2128 388 2347 550 
Q 2566 713 2694 1069 
z
M 847 1978 
L 2700 1978 
Q 2663 2397 2488 2606 
Q 2219 2931 1791 2931 
Q 1403 2931 1139 2672 
Q 875 2413 847 1978 
z
" transform="scale(0.015625)"/>
       <path id="ArialMT-63" d="M 2588 1216 
L 3141 1144 
Q 3050 572 2676 248 
Q 2303 -75 1759 -75 
Q 1078 -75 664 370 
Q 250 816 250 1647 
Q 250 2184 428 2587 
Q 606 2991 970 3192 
Q 1334 3394 1763 3394 
Q 2303 3394 2647 3120 
Q 2991 2847 3088 2344 
L 2541 2259 
Q 2463 2594 2264 2762 
Q 2066 2931 1784 2931 
Q 1359 2931 1093 2626 
Q 828 2322 828 1663 
Q 828 994 1084 691 
Q 1341 388 1753 388 
Q 2084 388 2306 591 
Q 2528 794 2588 1216 
z
" transform="scale(0.015625)"/>
       <path id="ArialMT-74" d="M 1650 503 
L 1731 6 
Q 1494 -44 1306 -44 
Q 1000 -44 831 53 
Q 663 150 594 308 
Q 525 466 525 972 
L 525 2881 
L 113 2881 
L 113 3319 
L 525 3319 
L 525 4141 
L 1084 4478 
L 1084 3319 
L 1650 3319 
L 1650 2881 
L 1084 2881 
L 1084 941 
Q 1084 700 1114 631 
Q 1144 563 1211 522 
Q 1278 481 1403 481 
Q 1497 481 1650 503 
z
" transform="scale(0.015625)"/>
       <path id="ArialMT-69" d="M 425 3934 
L 425 4581 
L 988 4581 
L 988 3934 
L 425 3934 
z
M 425 0 
L 425 3319 
L 988 3319 
L 988 0 
L 425 0 
z
" transform="scale(0.015625)"/>
       <path id="ArialMT-6f" d="M 213 1659 
Q 213 2581 725 3025 
Q 1153 3394 1769 3394 
Q 2453 3394 2887 2945 
Q 3322 2497 3322 1706 
Q 3322 1066 3130 698 
Q 2938 331 2570 128 
Q 2203 -75 1769 -75 
Q 1072 -75 642 372 
Q 213 819 213 1659 
z
M 791 1659 
Q 791 1022 1069 705 
Q 1347 388 1769 388 
Q 2188 388 2466 706 
Q 2744 1025 2744 1678 
Q 2744 2294 2464 2611 
Q 2184 2928 1769 2928 
Q 1347 2928 1069 2612 
Q 791 2297 791 1659 
z
" transform="scale(0.015625)"/>
       <path id="ArialMT-5f" d="M -97 -1272 
L -97 -866 
L 3631 -866 
L 3631 -1272 
L -97 -1272 
z
" transform="scale(0.015625)"/>
       <path id="ArialMT-45" d="M 506 0 
L 506 4581 
L 3819 4581 
L 3819 4041 
L 1113 4041 
L 1113 2638 
L 3647 2638 
L 3647 2100 
L 1113 2100 
L 1113 541 
L 3925 541 
L 3925 0 
L 506 0 
z
" transform="scale(0.015625)"/>
       <path id="ArialMT-79" d="M 397 -1278 
L 334 -750 
Q 519 -800 656 -800 
Q 844 -800 956 -737 
Q 1069 -675 1141 -563 
Q 1194 -478 1313 -144 
Q 1328 -97 1363 -6 
L 103 3319 
L 709 3319 
L 1400 1397 
Q 1534 1031 1641 628 
Q 1738 1016 1872 1384 
L 2581 3319 
L 3144 3319 
L 1881 -56 
Q 1678 -603 1566 -809 
Q 1416 -1088 1222 -1217 
Q 1028 -1347 759 -1347 
Q 597 -1347 397 -1278 
z
" transform="scale(0.015625)"/>
      </defs>
      <use xlink:href="#ArialMT-54"/>
      <use xlink:href="#ArialMT-72" x="57.333984"/>
      <use xlink:href="#ArialMT-61" x="90.634766"/>
      <use xlink:href="#ArialMT-6e" x="146.25"/>
      <use xlink:href="#ArialMT-73" x="201.865234"/>
      <use xlink:href="#ArialMT-66" x="251.865234"/>
      <use xlink:href="#ArialMT-65" x="279.648438"/>
      <use xlink:href="#ArialMT-63" x="335.263672"/>
      <use xlink:href="#ArialMT-74" x="385.263672"/>
      <use xlink:href="#ArialMT-69" x="413.046875"/>
      <use xlink:href="#ArialMT-6f" x="435.263672"/>
      <use xlink:href="#ArialMT-6e" x="490.878906"/>
      <use xlink:href="#ArialMT-5f" x="546.494141"/>
      <use xlink:href="#ArialMT-45" x="602.109375"/>
      <use xlink:href="#ArialMT-66" x="668.808594"/>
      <use xlink:href="#ArialMT-66" x="694.841797"/>
      <use xlink:href="#ArialMT-69" x="722.625"/>
      <use xlink:href="#ArialMT-63" x="744.841797"/>
      <use xlink:href="#ArialMT-69" x="794.841797"/>
      <use xlink:href="#ArialMT-65" x="817.058594"/>
      <use xlink:href="#ArialMT-6e" x="872.673828"/>
      <use xlink:href="#ArialMT-63" x="928.289062"/>
      <use xlink:href="#ArialMT-79" x="978.289062"/>
     </g>
    </g>
   </g>
   <g id="matplotlib.axis_2">
    <g id="ytick_1">
     <g id="line2d_7">
      <path d="M 79.350938 284.4 
L 358.350937 284.4 
" clip-path="url(#p98db8d24db)" style="fill: none; stroke: #ffffff; stroke-linecap: round"/>
     </g>
     <g id="line2d_8">
      <defs>
       <path id="m0e2109e9dc" d="M 0 0 
L -6 0 
" style="stroke: #000000; stroke-width: 1.25"/>
      </defs>
      <g>
       <use xlink:href="#m0e2109e9dc" x="79.350938" y="284.4" style="stroke: #000000; stroke-width: 1.25"/>
      </g>
     </g>
     <g id="text_5">
      <!-- 0 -->
      <g transform="translate(57.616875 292.273594) scale(0.22 -0.22)">
       <use xlink:href="#ArialMT-30"/>
      </g>
     </g>
    </g>
    <g id="ytick_2">
     <g id="line2d_9">
      <path d="M 79.350938 213.048649 
L 358.350937 213.048649 
" clip-path="url(#p98db8d24db)" style="fill: none; stroke: #ffffff; stroke-linecap: round"/>
     </g>
     <g id="line2d_10">
      <g>
       <use xlink:href="#m0e2109e9dc" x="79.350938" y="213.048649" style="stroke: #000000; stroke-width: 1.25"/>
      </g>
     </g>
     <g id="text_6">
      <!-- 50 -->
      <g transform="translate(45.382813 220.922242) scale(0.22 -0.22)">
       <use xlink:href="#ArialMT-35"/>
       <use xlink:href="#ArialMT-30" x="55.615234"/>
      </g>
     </g>
    </g>
    <g id="ytick_3">
     <g id="line2d_11">
      <path d="M 79.350938 141.697297 
L 358.350937 141.697297 
" clip-path="url(#p98db8d24db)" style="fill: none; stroke: #ffffff; stroke-linecap: round"/>
     </g>
     <g id="line2d_12">
      <g>
       <use xlink:href="#m0e2109e9dc" x="79.350938" y="141.697297" style="stroke: #000000; stroke-width: 1.25"/>
      </g>
     </g>
     <g id="text_7">
      <!-- 100 -->
      <g transform="translate(33.14875 149.570891) scale(0.22 -0.22)">
       <use xlink:href="#ArialMT-31"/>
       <use xlink:href="#ArialMT-30" x="55.615234"/>
       <use xlink:href="#ArialMT-30" x="111.230469"/>
      </g>
     </g>
    </g>
    <g id="ytick_4">
     <g id="line2d_13">
      <path d="M 79.350938 70.345946 
L 358.350937 70.345946 
" clip-path="url(#p98db8d24db)" style="fill: none; stroke: #ffffff; stroke-linecap: round"/>
     </g>
     <g id="line2d_14">
      <g>
       <use xlink:href="#m0e2109e9dc" x="79.350938" y="70.345946" style="stroke: #000000; stroke-width: 1.25"/>
      </g>
     </g>
     <g id="text_8">
      <!-- 150 -->
      <g transform="translate(33.14875 78.21954) scale(0.22 -0.22)">
       <use xlink:href="#ArialMT-31"/>
       <use xlink:href="#ArialMT-35" x="55.615234"/>
       <use xlink:href="#ArialMT-30" x="111.230469"/>
      </g>
     </g>
    </g>
    <g id="text_9">
     <!-- Count -->
     <g style="fill: #262626" transform="translate(24.37875 177.819375) rotate(-90) scale(0.24 -0.24)">
      <defs>
       <path id="ArialMT-43" d="M 3763 1606 
L 4369 1453 
Q 4178 706 3683 314 
Q 3188 -78 2472 -78 
Q 1731 -78 1267 223 
Q 803 525 561 1097 
Q 319 1669 319 2325 
Q 319 3041 592 3573 
Q 866 4106 1370 4382 
Q 1875 4659 2481 4659 
Q 3169 4659 3637 4309 
Q 4106 3959 4291 3325 
L 3694 3184 
Q 3534 3684 3231 3912 
Q 2928 4141 2469 4141 
Q 1941 4141 1586 3887 
Q 1231 3634 1087 3207 
Q 944 2781 944 2328 
Q 944 1744 1114 1308 
Q 1284 872 1643 656 
Q 2003 441 2422 441 
Q 2931 441 3284 734 
Q 3638 1028 3763 1606 
z
" transform="scale(0.015625)"/>
       <path id="ArialMT-75" d="M 2597 0 
L 2597 488 
Q 2209 -75 1544 -75 
Q 1250 -75 995 37 
Q 741 150 617 320 
Q 494 491 444 738 
Q 409 903 409 1263 
L 409 3319 
L 972 3319 
L 972 1478 
Q 972 1038 1006 884 
Q 1059 663 1231 536 
Q 1403 409 1656 409 
Q 1909 409 2131 539 
Q 2353 669 2445 892 
Q 2538 1116 2538 1541 
L 2538 3319 
L 3100 3319 
L 3100 0 
L 2597 0 
z
" transform="scale(0.015625)"/>
      </defs>
      <use xlink:href="#ArialMT-43"/>
      <use xlink:href="#ArialMT-6f" x="72.216797"/>
      <use xlink:href="#ArialMT-75" x="127.832031"/>
      <use xlink:href="#ArialMT-6e" x="183.447266"/>
      <use xlink:href="#ArialMT-74" x="239.0625"/>
     </g>
    </g>
   </g>
   <g id="patch_3">
    <path d="M 92.032756 284.4 
L 105.382038 284.4 
L 105.382038 281.545946 
L 92.032756 281.545946 
z
" clip-path="url(#p98db8d24db)" style="fill: #e866f4; fill-opacity: 0.75; stroke: #ffffff; stroke-linejoin: miter"/>
   </g>
   <g id="patch_4">
    <path d="M 105.382038 284.4 
L 118.73132 284.4 
L 118.73132 272.983784 
L 105.382038 272.983784 
z
" clip-path="url(#p98db8d24db)" style="fill: #e866f4; fill-opacity: 0.75; stroke: #ffffff; stroke-linejoin: miter"/>
   </g>
   <g id="patch_5">
    <path d="M 118.73132 284.4 
L 132.080603 284.4 
L 132.080603 277.264865 
L 118.73132 277.264865 
z
" clip-path="url(#p98db8d24db)" style="fill: #e866f4; fill-opacity: 0.75; stroke: #ffffff; stroke-linejoin: miter"/>
   </g>
   <g id="patch_6">
    <path d="M 132.080603 284.4 
L 145.429885 284.4 
L 145.429885 281.545946 
L 132.080603 281.545946 
z
" clip-path="url(#p98db8d24db)" style="fill: #e866f4; fill-opacity: 0.75; stroke: #ffffff; stroke-linejoin: miter"/>
   </g>
   <g id="patch_7">
    <path d="M 145.429885 284.4 
L 158.779167 284.4 
L 158.779167 262.994595 
L 145.429885 262.994595 
z
" clip-path="url(#p98db8d24db)" style="fill: #e866f4; fill-opacity: 0.75; stroke: #ffffff; stroke-linejoin: miter"/>
   </g>
   <g id="patch_8">
    <path d="M 158.779167 284.4 
L 172.128449 284.4 
L 172.128449 250.151351 
L 158.779167 250.151351 
z
" clip-path="url(#p98db8d24db)" style="fill: #e866f4; fill-opacity: 0.75; stroke: #ffffff; stroke-linejoin: miter"/>
   </g>
   <g id="patch_9">
    <path d="M 172.128449 284.4 
L 185.477732 284.4 
L 185.477732 248.724324 
L 172.128449 248.724324 
z
" clip-path="url(#p98db8d24db)" style="fill: #e866f4; fill-opacity: 0.75; stroke: #ffffff; stroke-linejoin: miter"/>
   </g>
   <g id="patch_10">
    <path d="M 185.477732 284.4 
L 198.827014 284.4 
L 198.827014 230.172973 
L 185.477732 230.172973 
z
" clip-path="url(#p98db8d24db)" style="fill: #e866f4; fill-opacity: 0.75; stroke: #ffffff; stroke-linejoin: miter"/>
   </g>
   <g id="patch_11">
    <path d="M 198.827014 284.4 
L 212.176296 284.4 
L 212.176296 245.87027 
L 198.827014 245.87027 
z
" clip-path="url(#p98db8d24db)" style="fill: #e866f4; fill-opacity: 0.75; stroke: #ffffff; stroke-linejoin: miter"/>
   </g>
   <g id="patch_12">
    <path d="M 212.176296 284.4 
L 225.525579 284.4 
L 225.525579 254.432432 
L 212.176296 254.432432 
z
" clip-path="url(#p98db8d24db)" style="fill: #e866f4; fill-opacity: 0.75; stroke: #ffffff; stroke-linejoin: miter"/>
   </g>
   <g id="patch_13">
    <path d="M 225.525579 284.4 
L 238.874861 284.4 
L 238.874861 270.12973 
L 225.525579 270.12973 
z
" clip-path="url(#p98db8d24db)" style="fill: #e866f4; fill-opacity: 0.75; stroke: #ffffff; stroke-linejoin: miter"/>
   </g>
   <g id="patch_14">
    <path d="M 238.874861 284.4 
L 252.224143 284.4 
L 252.224143 281.545946 
L 238.874861 281.545946 
z
" clip-path="url(#p98db8d24db)" style="fill: #e866f4; fill-opacity: 0.75; stroke: #ffffff; stroke-linejoin: miter"/>
   </g>
   <g id="patch_15">
    <path d="M 252.224143 284.4 
L 265.573426 284.4 
L 265.573426 282.972973 
L 252.224143 282.972973 
z
" clip-path="url(#p98db8d24db)" style="fill: #e866f4; fill-opacity: 0.75; stroke: #ffffff; stroke-linejoin: miter"/>
   </g>
   <g id="patch_16">
    <path d="M 265.573426 284.4 
L 278.922708 284.4 
L 278.922708 284.4 
L 265.573426 284.4 
z
" clip-path="url(#p98db8d24db)" style="fill: #e866f4; fill-opacity: 0.75; stroke: #ffffff; stroke-linejoin: miter"/>
   </g>
   <g id="patch_17">
    <path d="M 278.922708 284.4 
L 292.27199 284.4 
L 292.27199 284.4 
L 278.922708 284.4 
z
" clip-path="url(#p98db8d24db)" style="fill: #e866f4; fill-opacity: 0.75; stroke: #ffffff; stroke-linejoin: miter"/>
   </g>
   <g id="patch_18">
    <path d="M 292.27199 284.4 
L 305.621272 284.4 
L 305.621272 284.4 
L 292.27199 284.4 
z
" clip-path="url(#p98db8d24db)" style="fill: #e866f4; fill-opacity: 0.75; stroke: #ffffff; stroke-linejoin: miter"/>
   </g>
   <g id="patch_19">
    <path d="M 305.621272 284.4 
L 318.970555 284.4 
L 318.970555 284.4 
L 305.621272 284.4 
z
" clip-path="url(#p98db8d24db)" style="fill: #e866f4; fill-opacity: 0.75; stroke: #ffffff; stroke-linejoin: miter"/>
   </g>
   <g id="patch_20">
    <path d="M 318.970555 284.4 
L 332.319837 284.4 
L 332.319837 284.4 
L 318.970555 284.4 
z
" clip-path="url(#p98db8d24db)" style="fill: #e866f4; fill-opacity: 0.75; stroke: #ffffff; stroke-linejoin: miter"/>
   </g>
   <g id="patch_21">
    <path d="M 332.319837 284.4 
L 345.669119 284.4 
L 345.669119 284.4 
L 332.319837 284.4 
z
" clip-path="url(#p98db8d24db)" style="fill: #e866f4; fill-opacity: 0.75; stroke: #ffffff; stroke-linejoin: miter"/>
   </g>
   <g id="patch_22">
    <path d="M 92.032756 281.545946 
L 105.382038 281.545946 
L 105.382038 264.421622 
L 92.032756 264.421622 
z
" clip-path="url(#p98db8d24db)" style="fill: #3ba3ec; fill-opacity: 0.75; stroke: #ffffff; stroke-linejoin: miter"/>
   </g>
   <g id="patch_23">
    <path d="M 105.382038 272.983784 
L 118.73132 272.983784 
L 118.73132 204.486486 
L 105.382038 204.486486 
z
" clip-path="url(#p98db8d24db)" style="fill: #3ba3ec; fill-opacity: 0.75; stroke: #ffffff; stroke-linejoin: miter"/>
   </g>
   <g id="patch_24">
    <path d="M 118.73132 277.264865 
L 132.080603 277.264865 
L 132.080603 217.32973 
L 118.73132 217.32973 
z
" clip-path="url(#p98db8d24db)" style="fill: #3ba3ec; fill-opacity: 0.75; stroke: #ffffff; stroke-linejoin: miter"/>
   </g>
   <g id="patch_25">
    <path d="M 132.080603 281.545946 
L 145.429885 281.545946 
L 145.429885 243.016216 
L 132.080603 243.016216 
z
" clip-path="url(#p98db8d24db)" style="fill: #3ba3ec; fill-opacity: 0.75; stroke: #ffffff; stroke-linejoin: miter"/>
   </g>
   <g id="patch_26">
    <path d="M 145.429885 262.994595 
L 158.779167 262.994595 
L 158.779167 245.87027 
L 145.429885 245.87027 
z
" clip-path="url(#p98db8d24db)" style="fill: #3ba3ec; fill-opacity: 0.75; stroke: #ffffff; stroke-linejoin: miter"/>
   </g>
   <g id="patch_27">
    <path d="M 158.779167 250.151351 
L 172.128449 250.151351 
L 172.128449 224.464865 
L 158.779167 224.464865 
z
" clip-path="url(#p98db8d24db)" style="fill: #3ba3ec; fill-opacity: 0.75; stroke: #ffffff; stroke-linejoin: miter"/>
   </g>
   <g id="patch_28">
    <path d="M 172.128449 248.724324 
L 185.477732 248.724324 
L 185.477732 234.454054 
L 172.128449 234.454054 
z
" clip-path="url(#p98db8d24db)" style="fill: #3ba3ec; fill-opacity: 0.75; stroke: #ffffff; stroke-linejoin: miter"/>
   </g>
   <g id="patch_29">
    <path d="M 185.477732 230.172973 
L 198.827014 230.172973 
L 198.827014 220.183784 
L 185.477732 220.183784 
z
" clip-path="url(#p98db8d24db)" style="fill: #3ba3ec; fill-opacity: 0.75; stroke: #ffffff; stroke-linejoin: miter"/>
   </g>
   <g id="patch_30">
    <path d="M 198.827014 245.87027 
L 212.176296 245.87027 
L 212.176296 241.589189 
L 198.827014 241.589189 
z
" clip-path="url(#p98db8d24db)" style="fill: #3ba3ec; fill-opacity: 0.75; stroke: #ffffff; stroke-linejoin: miter"/>
   </g>
   <g id="patch_31">
    <path d="M 212.176296 254.432432 
L 225.525579 254.432432 
L 225.525579 253.005405 
L 212.176296 253.005405 
z
" clip-path="url(#p98db8d24db)" style="fill: #3ba3ec; fill-opacity: 0.75; stroke: #ffffff; stroke-linejoin: miter"/>
   </g>
   <g id="patch_32">
    <path d="M 225.525579 270.12973 
L 238.874861 270.12973 
L 238.874861 270.12973 
L 225.525579 270.12973 
z
" clip-path="url(#p98db8d24db)" style="fill: #3ba3ec; fill-opacity: 0.75; stroke: #ffffff; stroke-linejoin: miter"/>
   </g>
   <g id="patch_33">
    <path d="M 238.874861 281.545946 
L 252.224143 281.545946 
L 252.224143 281.545946 
L 238.874861 281.545946 
z
" clip-path="url(#p98db8d24db)" style="fill: #3ba3ec; fill-opacity: 0.75; stroke: #ffffff; stroke-linejoin: miter"/>
   </g>
   <g id="patch_34">
    <path d="M 252.224143 282.972973 
L 265.573426 282.972973 
L 265.573426 282.972973 
L 252.224143 282.972973 
z
" clip-path="url(#p98db8d24db)" style="fill: #3ba3ec; fill-opacity: 0.75; stroke: #ffffff; stroke-linejoin: miter"/>
   </g>
   <g id="patch_35">
    <path d="M 265.573426 284.4 
L 278.922708 284.4 
L 278.922708 284.4 
L 265.573426 284.4 
z
" clip-path="url(#p98db8d24db)" style="fill: #3ba3ec; fill-opacity: 0.75; stroke: #ffffff; stroke-linejoin: miter"/>
   </g>
   <g id="patch_36">
    <path d="M 278.922708 284.4 
L 292.27199 284.4 
L 292.27199 284.4 
L 278.922708 284.4 
z
" clip-path="url(#p98db8d24db)" style="fill: #3ba3ec; fill-opacity: 0.75; stroke: #ffffff; stroke-linejoin: miter"/>
   </g>
   <g id="patch_37">
    <path d="M 292.27199 284.4 
L 305.621272 284.4 
L 305.621272 284.4 
L 292.27199 284.4 
z
" clip-path="url(#p98db8d24db)" style="fill: #3ba3ec; fill-opacity: 0.75; stroke: #ffffff; stroke-linejoin: miter"/>
   </g>
   <g id="patch_38">
    <path d="M 305.621272 284.4 
L 318.970555 284.4 
L 318.970555 284.4 
L 305.621272 284.4 
z
" clip-path="url(#p98db8d24db)" style="fill: #3ba3ec; fill-opacity: 0.75; stroke: #ffffff; stroke-linejoin: miter"/>
   </g>
   <g id="patch_39">
    <path d="M 318.970555 284.4 
L 332.319837 284.4 
L 332.319837 284.4 
L 318.970555 284.4 
z
" clip-path="url(#p98db8d24db)" style="fill: #3ba3ec; fill-opacity: 0.75; stroke: #ffffff; stroke-linejoin: miter"/>
   </g>
   <g id="patch_40">
    <path d="M 332.319837 284.4 
L 345.669119 284.4 
L 345.669119 284.4 
L 332.319837 284.4 
z
" clip-path="url(#p98db8d24db)" style="fill: #3ba3ec; fill-opacity: 0.75; stroke: #ffffff; stroke-linejoin: miter"/>
   </g>
   <g id="patch_41">
    <path d="M 92.032756 264.421622 
L 105.382038 264.421622 
L 105.382038 248.724324 
L 92.032756 248.724324 
z
" clip-path="url(#p98db8d24db)" style="fill: #36ada4; fill-opacity: 0.75; stroke: #ffffff; stroke-linejoin: miter"/>
   </g>
   <g id="patch_42">
    <path d="M 105.382038 204.486486 
L 118.73132 204.486486 
L 118.73132 180.227027 
L 105.382038 180.227027 
z
" clip-path="url(#p98db8d24db)" style="fill: #36ada4; fill-opacity: 0.75; stroke: #ffffff; stroke-linejoin: miter"/>
   </g>
   <g id="patch_43">
    <path d="M 118.73132 217.32973 
L 132.080603 217.32973 
L 132.080603 183.081081 
L 118.73132 183.081081 
z
" clip-path="url(#p98db8d24db)" style="fill: #36ada4; fill-opacity: 0.75; stroke: #ffffff; stroke-linejoin: miter"/>
   </g>
   <g id="patch_44">
    <path d="M 132.080603 243.016216 
L 145.429885 243.016216 
L 145.429885 217.32973 
L 132.080603 217.32973 
z
" clip-path="url(#p98db8d24db)" style="fill: #36ada4; fill-opacity: 0.75; stroke: #ffffff; stroke-linejoin: miter"/>
   </g>
   <g id="patch_45">
    <path d="M 145.429885 245.87027 
L 158.779167 245.87027 
L 158.779167 211.621622 
L 145.429885 211.621622 
z
" clip-path="url(#p98db8d24db)" style="fill: #36ada4; fill-opacity: 0.75; stroke: #ffffff; stroke-linejoin: miter"/>
   </g>
   <g id="patch_46">
    <path d="M 158.779167 224.464865 
L 172.128449 224.464865 
L 172.128449 201.632432 
L 158.779167 201.632432 
z
" clip-path="url(#p98db8d24db)" style="fill: #36ada4; fill-opacity: 0.75; stroke: #ffffff; stroke-linejoin: miter"/>
   </g>
   <g id="patch_47">
    <path d="M 172.128449 234.454054 
L 185.477732 234.454054 
L 185.477732 194.497297 
L 172.128449 194.497297 
z
" clip-path="url(#p98db8d24db)" style="fill: #36ada4; fill-opacity: 0.75; stroke: #ffffff; stroke-linejoin: miter"/>
   </g>
   <g id="patch_48">
    <path d="M 185.477732 220.183784 
L 198.827014 220.183784 
L 198.827014 188.789189 
L 185.477732 188.789189 
z
" clip-path="url(#p98db8d24db)" style="fill: #36ada4; fill-opacity: 0.75; stroke: #ffffff; stroke-linejoin: miter"/>
   </g>
   <g id="patch_49">
    <path d="M 198.827014 241.589189 
L 212.176296 241.589189 
L 212.176296 227.318919 
L 198.827014 227.318919 
z
" clip-path="url(#p98db8d24db)" style="fill: #36ada4; fill-opacity: 0.75; stroke: #ffffff; stroke-linejoin: miter"/>
   </g>
   <g id="patch_50">
    <path d="M 212.176296 253.005405 
L 225.525579 253.005405 
L 225.525579 248.724324 
L 212.176296 248.724324 
z
" clip-path="url(#p98db8d24db)" style="fill: #36ada4; fill-opacity: 0.75; stroke: #ffffff; stroke-linejoin: miter"/>
   </g>
   <g id="patch_51">
    <path d="M 225.525579 270.12973 
L 238.874861 270.12973 
L 238.874861 262.994595 
L 225.525579 262.994595 
z
" clip-path="url(#p98db8d24db)" style="fill: #36ada4; fill-opacity: 0.75; stroke: #ffffff; stroke-linejoin: miter"/>
   </g>
   <g id="patch_52">
    <path d="M 238.874861 281.545946 
L 252.224143 281.545946 
L 252.224143 280.118919 
L 238.874861 280.118919 
z
" clip-path="url(#p98db8d24db)" style="fill: #36ada4; fill-opacity: 0.75; stroke: #ffffff; stroke-linejoin: miter"/>
   </g>
   <g id="patch_53">
    <path d="M 252.224143 282.972973 
L 265.573426 282.972973 
L 265.573426 281.545946 
L 252.224143 281.545946 
z
" clip-path="url(#p98db8d24db)" style="fill: #36ada4; fill-opacity: 0.75; stroke: #ffffff; stroke-linejoin: miter"/>
   </g>
   <g id="patch_54">
    <path d="M 265.573426 284.4 
L 278.922708 284.4 
L 278.922708 284.4 
L 265.573426 284.4 
z
" clip-path="url(#p98db8d24db)" style="fill: #36ada4; fill-opacity: 0.75; stroke: #ffffff; stroke-linejoin: miter"/>
   </g>
   <g id="patch_55">
    <path d="M 278.922708 284.4 
L 292.27199 284.4 
L 292.27199 284.4 
L 278.922708 284.4 
z
" clip-path="url(#p98db8d24db)" style="fill: #36ada4; fill-opacity: 0.75; stroke: #ffffff; stroke-linejoin: miter"/>
   </g>
   <g id="patch_56">
    <path d="M 292.27199 284.4 
L 305.621272 284.4 
L 305.621272 284.4 
L 292.27199 284.4 
z
" clip-path="url(#p98db8d24db)" style="fill: #36ada4; fill-opacity: 0.75; stroke: #ffffff; stroke-linejoin: miter"/>
   </g>
   <g id="patch_57">
    <path d="M 305.621272 284.4 
L 318.970555 284.4 
L 318.970555 284.4 
L 305.621272 284.4 
z
" clip-path="url(#p98db8d24db)" style="fill: #36ada4; fill-opacity: 0.75; stroke: #ffffff; stroke-linejoin: miter"/>
   </g>
   <g id="patch_58">
    <path d="M 318.970555 284.4 
L 332.319837 284.4 
L 332.319837 284.4 
L 318.970555 284.4 
z
" clip-path="url(#p98db8d24db)" style="fill: #36ada4; fill-opacity: 0.75; stroke: #ffffff; stroke-linejoin: miter"/>
   </g>
   <g id="patch_59">
    <path d="M 332.319837 284.4 
L 345.669119 284.4 
L 345.669119 284.4 
L 332.319837 284.4 
z
" clip-path="url(#p98db8d24db)" style="fill: #36ada4; fill-opacity: 0.75; stroke: #ffffff; stroke-linejoin: miter"/>
   </g>
   <g id="patch_60">
    <path d="M 92.032756 248.724324 
L 105.382038 248.724324 
L 105.382038 247.297297 
L 92.032756 247.297297 
z
" clip-path="url(#p98db8d24db)" style="fill: #50b131; fill-opacity: 0.75; stroke: #ffffff; stroke-linejoin: miter"/>
   </g>
   <g id="patch_61">
    <path d="M 105.382038 180.227027 
L 118.73132 180.227027 
L 118.73132 173.091892 
L 105.382038 173.091892 
z
" clip-path="url(#p98db8d24db)" style="fill: #50b131; fill-opacity: 0.75; stroke: #ffffff; stroke-linejoin: miter"/>
   </g>
   <g id="patch_62">
    <path d="M 118.73132 183.081081 
L 132.080603 183.081081 
L 132.080603 173.091892 
L 118.73132 173.091892 
z
" clip-path="url(#p98db8d24db)" style="fill: #50b131; fill-opacity: 0.75; stroke: #ffffff; stroke-linejoin: miter"/>
   </g>
   <g id="patch_63">
    <path d="M 132.080603 217.32973 
L 145.429885 217.32973 
L 145.429885 205.913514 
L 132.080603 205.913514 
z
" clip-path="url(#p98db8d24db)" style="fill: #50b131; fill-opacity: 0.75; stroke: #ffffff; stroke-linejoin: miter"/>
   </g>
   <g id="patch_64">
    <path d="M 145.429885 211.621622 
L 158.779167 211.621622 
L 158.779167 191.643243 
L 145.429885 191.643243 
z
" clip-path="url(#p98db8d24db)" style="fill: #50b131; fill-opacity: 0.75; stroke: #ffffff; stroke-linejoin: miter"/>
   </g>
   <g id="patch_65">
    <path d="M 158.779167 201.632432 
L 172.128449 201.632432 
L 172.128449 178.8 
L 158.779167 178.8 
z
" clip-path="url(#p98db8d24db)" style="fill: #50b131; fill-opacity: 0.75; stroke: #ffffff; stroke-linejoin: miter"/>
   </g>
   <g id="patch_66">
    <path d="M 172.128449 194.497297 
L 185.477732 194.497297 
L 185.477732 170.237838 
L 172.128449 170.237838 
z
" clip-path="url(#p98db8d24db)" style="fill: #50b131; fill-opacity: 0.75; stroke: #ffffff; stroke-linejoin: miter"/>
   </g>
   <g id="patch_67">
    <path d="M 185.477732 188.789189 
L 198.827014 188.789189 
L 198.827014 174.518919 
L 185.477732 174.518919 
z
" clip-path="url(#p98db8d24db)" style="fill: #50b131; fill-opacity: 0.75; stroke: #ffffff; stroke-linejoin: miter"/>
   </g>
   <g id="patch_68">
    <path d="M 198.827014 227.318919 
L 212.176296 227.318919 
L 212.176296 203.059459 
L 198.827014 203.059459 
z
" clip-path="url(#p98db8d24db)" style="fill: #50b131; fill-opacity: 0.75; stroke: #ffffff; stroke-linejoin: miter"/>
   </g>
   <g id="patch_69">
    <path d="M 212.176296 248.724324 
L 225.525579 248.724324 
L 225.525579 220.183784 
L 212.176296 220.183784 
z
" clip-path="url(#p98db8d24db)" style="fill: #50b131; fill-opacity: 0.75; stroke: #ffffff; stroke-linejoin: miter"/>
   </g>
   <g id="patch_70">
    <path d="M 225.525579 262.994595 
L 238.874861 262.994595 
L 238.874861 240.162162 
L 225.525579 240.162162 
z
" clip-path="url(#p98db8d24db)" style="fill: #50b131; fill-opacity: 0.75; stroke: #ffffff; stroke-linejoin: miter"/>
   </g>
   <g id="patch_71">
    <path d="M 238.874861 280.118919 
L 252.224143 280.118919 
L 252.224143 260.140541 
L 238.874861 260.140541 
z
" clip-path="url(#p98db8d24db)" style="fill: #50b131; fill-opacity: 0.75; stroke: #ffffff; stroke-linejoin: miter"/>
   </g>
   <g id="patch_72">
    <path d="M 252.224143 281.545946 
L 265.573426 281.545946 
L 265.573426 270.12973 
L 252.224143 270.12973 
z
" clip-path="url(#p98db8d24db)" style="fill: #50b131; fill-opacity: 0.75; stroke: #ffffff; stroke-linejoin: miter"/>
   </g>
   <g id="patch_73">
    <path d="M 265.573426 284.4 
L 278.922708 284.4 
L 278.922708 274.410811 
L 265.573426 274.410811 
z
" clip-path="url(#p98db8d24db)" style="fill: #50b131; fill-opacity: 0.75; stroke: #ffffff; stroke-linejoin: miter"/>
   </g>
   <g id="patch_74">
    <path d="M 278.922708 284.4 
L 292.27199 284.4 
L 292.27199 277.264865 
L 278.922708 277.264865 
z
" clip-path="url(#p98db8d24db)" style="fill: #50b131; fill-opacity: 0.75; stroke: #ffffff; stroke-linejoin: miter"/>
   </g>
   <g id="patch_75">
    <path d="M 292.27199 284.4 
L 305.621272 284.4 
L 305.621272 274.410811 
L 292.27199 274.410811 
z
" clip-path="url(#p98db8d24db)" style="fill: #50b131; fill-opacity: 0.75; stroke: #ffffff; stroke-linejoin: miter"/>
   </g>
   <g id="patch_76">
    <path d="M 305.621272 284.4 
L 318.970555 284.4 
L 318.970555 275.837838 
L 305.621272 275.837838 
z
" clip-path="url(#p98db8d24db)" style="fill: #50b131; fill-opacity: 0.75; stroke: #ffffff; stroke-linejoin: miter"/>
   </g>
   <g id="patch_77">
    <path d="M 318.970555 284.4 
L 332.319837 284.4 
L 332.319837 284.4 
L 318.970555 284.4 
z
" clip-path="url(#p98db8d24db)" style="fill: #50b131; fill-opacity: 0.75; stroke: #ffffff; stroke-linejoin: miter"/>
   </g>
   <g id="patch_78">
    <path d="M 332.319837 284.4 
L 345.669119 284.4 
L 345.669119 281.545946 
L 332.319837 281.545946 
z
" clip-path="url(#p98db8d24db)" style="fill: #50b131; fill-opacity: 0.75; stroke: #ffffff; stroke-linejoin: miter"/>
   </g>
   <g id="patch_79">
    <path d="M 92.032756 247.297297 
L 105.382038 247.297297 
L 105.382038 240.162162 
L 92.032756 240.162162 
z
" clip-path="url(#p98db8d24db)" style="fill: #bb9832; fill-opacity: 0.75; stroke: #ffffff; stroke-linejoin: miter"/>
   </g>
   <g id="patch_80">
    <path d="M 105.382038 173.091892 
L 118.73132 173.091892 
L 118.73132 141.697297 
L 105.382038 141.697297 
z
" clip-path="url(#p98db8d24db)" style="fill: #bb9832; fill-opacity: 0.75; stroke: #ffffff; stroke-linejoin: miter"/>
   </g>
   <g id="patch_81">
    <path d="M 118.73132 173.091892 
L 132.080603 173.091892 
L 132.080603 135.989189 
L 118.73132 135.989189 
z
" clip-path="url(#p98db8d24db)" style="fill: #bb9832; fill-opacity: 0.75; stroke: #ffffff; stroke-linejoin: miter"/>
   </g>
   <g id="patch_82">
    <path d="M 132.080603 205.913514 
L 145.429885 205.913514 
L 145.429885 151.686486 
L 132.080603 151.686486 
z
" clip-path="url(#p98db8d24db)" style="fill: #bb9832; fill-opacity: 0.75; stroke: #ffffff; stroke-linejoin: miter"/>
   </g>
   <g id="patch_83">
    <path d="M 145.429885 191.643243 
L 158.779167 191.643243 
L 158.779167 165.956757 
L 145.429885 165.956757 
z
" clip-path="url(#p98db8d24db)" style="fill: #bb9832; fill-opacity: 0.75; stroke: #ffffff; stroke-linejoin: miter"/>
   </g>
   <g id="patch_84">
    <path d="M 158.779167 178.8 
L 172.128449 178.8 
L 172.128449 138.843243 
L 158.779167 138.843243 
z
" clip-path="url(#p98db8d24db)" style="fill: #bb9832; fill-opacity: 0.75; stroke: #ffffff; stroke-linejoin: miter"/>
   </g>
   <g id="patch_85">
    <path d="M 172.128449 170.237838 
L 185.477732 170.237838 
L 185.477732 151.686486 
L 172.128449 151.686486 
z
" clip-path="url(#p98db8d24db)" style="fill: #bb9832; fill-opacity: 0.75; stroke: #ffffff; stroke-linejoin: miter"/>
   </g>
   <g id="patch_86">
    <path d="M 185.477732 174.518919 
L 198.827014 174.518919 
L 198.827014 158.821622 
L 185.477732 158.821622 
z
" clip-path="url(#p98db8d24db)" style="fill: #bb9832; fill-opacity: 0.75; stroke: #ffffff; stroke-linejoin: miter"/>
   </g>
   <g id="patch_87">
    <path d="M 198.827014 203.059459 
L 212.176296 203.059459 
L 212.176296 197.351351 
L 198.827014 197.351351 
z
" clip-path="url(#p98db8d24db)" style="fill: #bb9832; fill-opacity: 0.75; stroke: #ffffff; stroke-linejoin: miter"/>
   </g>
   <g id="patch_88">
    <path d="M 212.176296 220.183784 
L 225.525579 220.183784 
L 225.525579 208.767568 
L 212.176296 208.767568 
z
" clip-path="url(#p98db8d24db)" style="fill: #bb9832; fill-opacity: 0.75; stroke: #ffffff; stroke-linejoin: miter"/>
   </g>
   <g id="patch_89">
    <path d="M 225.525579 240.162162 
L 238.874861 240.162162 
L 238.874861 233.027027 
L 225.525579 233.027027 
z
" clip-path="url(#p98db8d24db)" style="fill: #bb9832; fill-opacity: 0.75; stroke: #ffffff; stroke-linejoin: miter"/>
   </g>
   <g id="patch_90">
    <path d="M 238.874861 260.140541 
L 252.224143 260.140541 
L 252.224143 257.286486 
L 238.874861 257.286486 
z
" clip-path="url(#p98db8d24db)" style="fill: #bb9832; fill-opacity: 0.75; stroke: #ffffff; stroke-linejoin: miter"/>
   </g>
   <g id="patch_91">
    <path d="M 252.224143 270.12973 
L 265.573426 270.12973 
L 265.573426 270.12973 
L 252.224143 270.12973 
z
" clip-path="url(#p98db8d24db)" style="fill: #bb9832; fill-opacity: 0.75; stroke: #ffffff; stroke-linejoin: miter"/>
   </g>
   <g id="patch_92">
    <path d="M 265.573426 274.410811 
L 278.922708 274.410811 
L 278.922708 274.410811 
L 265.573426 274.410811 
z
" clip-path="url(#p98db8d24db)" style="fill: #bb9832; fill-opacity: 0.75; stroke: #ffffff; stroke-linejoin: miter"/>
   </g>
   <g id="patch_93">
    <path d="M 278.922708 277.264865 
L 292.27199 277.264865 
L 292.27199 277.264865 
L 278.922708 277.264865 
z
" clip-path="url(#p98db8d24db)" style="fill: #bb9832; fill-opacity: 0.75; stroke: #ffffff; stroke-linejoin: miter"/>
   </g>
   <g id="patch_94">
    <path d="M 292.27199 274.410811 
L 305.621272 274.410811 
L 305.621272 274.410811 
L 292.27199 274.410811 
z
" clip-path="url(#p98db8d24db)" style="fill: #bb9832; fill-opacity: 0.75; stroke: #ffffff; stroke-linejoin: miter"/>
   </g>
   <g id="patch_95">
    <path d="M 305.621272 275.837838 
L 318.970555 275.837838 
L 318.970555 275.837838 
L 305.621272 275.837838 
z
" clip-path="url(#p98db8d24db)" style="fill: #bb9832; fill-opacity: 0.75; stroke: #ffffff; stroke-linejoin: miter"/>
   </g>
   <g id="patch_96">
    <path d="M 318.970555 284.4 
L 332.319837 284.4 
L 332.319837 284.4 
L 318.970555 284.4 
z
" clip-path="url(#p98db8d24db)" style="fill: #bb9832; fill-opacity: 0.75; stroke: #ffffff; stroke-linejoin: miter"/>
   </g>
   <g id="patch_97">
    <path d="M 332.319837 281.545946 
L 345.669119 281.545946 
L 345.669119 281.545946 
L 332.319837 281.545946 
z
" clip-path="url(#p98db8d24db)" style="fill: #bb9832; fill-opacity: 0.75; stroke: #ffffff; stroke-linejoin: miter"/>
   </g>
   <g id="patch_98">
    <path d="M 92.032756 240.162162 
L 105.382038 240.162162 
L 105.382038 207.340541 
L 92.032756 207.340541 
z
" clip-path="url(#p98db8d24db)" style="fill: #f77189; fill-opacity: 0.75; stroke: #ffffff; stroke-linejoin: miter"/>
   </g>
   <g id="patch_99">
    <path d="M 105.382038 141.697297 
L 118.73132 141.697297 
L 118.73132 20.4 
L 105.382038 20.4 
z
" clip-path="url(#p98db8d24db)" style="fill: #f77189; fill-opacity: 0.75; stroke: #ffffff; stroke-linejoin: miter"/>
   </g>
   <g id="patch_100">
    <path d="M 118.73132 135.989189 
L 132.080603 135.989189 
L 132.080603 83.189189 
L 118.73132 83.189189 
z
" clip-path="url(#p98db8d24db)" style="fill: #f77189; fill-opacity: 0.75; stroke: #ffffff; stroke-linejoin: miter"/>
   </g>
   <g id="patch_101">
    <path d="M 132.080603 151.686486 
L 145.429885 151.686486 
L 145.429885 126 
L 132.080603 126 
z
" clip-path="url(#p98db8d24db)" style="fill: #f77189; fill-opacity: 0.75; stroke: #ffffff; stroke-linejoin: miter"/>
   </g>
   <g id="patch_102">
    <path d="M 145.429885 165.956757 
L 158.779167 165.956757 
L 158.779167 154.540541 
L 145.429885 154.540541 
z
" clip-path="url(#p98db8d24db)" style="fill: #f77189; fill-opacity: 0.75; stroke: #ffffff; stroke-linejoin: miter"/>
   </g>
   <g id="patch_103">
    <path d="M 158.779167 138.843243 
L 172.128449 138.843243 
L 172.128449 131.708108 
L 158.779167 131.708108 
z
" clip-path="url(#p98db8d24db)" style="fill: #f77189; fill-opacity: 0.75; stroke: #ffffff; stroke-linejoin: miter"/>
   </g>
   <g id="patch_104">
    <path d="M 172.128449 151.686486 
L 185.477732 151.686486 
L 185.477732 147.405405 
L 172.128449 147.405405 
z
" clip-path="url(#p98db8d24db)" style="fill: #f77189; fill-opacity: 0.75; stroke: #ffffff; stroke-linejoin: miter"/>
   </g>
   <g id="patch_105">
    <path d="M 185.477732 158.821622 
L 198.827014 158.821622 
L 198.827014 157.394595 
L 185.477732 157.394595 
z
" clip-path="url(#p98db8d24db)" style="fill: #f77189; fill-opacity: 0.75; stroke: #ffffff; stroke-linejoin: miter"/>
   </g>
   <g id="patch_106">
    <path d="M 198.827014 197.351351 
L 212.176296 197.351351 
L 212.176296 197.351351 
L 198.827014 197.351351 
z
" clip-path="url(#p98db8d24db)" style="fill: #f77189; fill-opacity: 0.75; stroke: #ffffff; stroke-linejoin: miter"/>
   </g>
   <g id="patch_107">
    <path d="M 212.176296 208.767568 
L 225.525579 208.767568 
L 225.525579 208.767568 
L 212.176296 208.767568 
z
" clip-path="url(#p98db8d24db)" style="fill: #f77189; fill-opacity: 0.75; stroke: #ffffff; stroke-linejoin: miter"/>
   </g>
   <g id="patch_108">
    <path d="M 225.525579 233.027027 
L 238.874861 233.027027 
L 238.874861 233.027027 
L 225.525579 233.027027 
z
" clip-path="url(#p98db8d24db)" style="fill: #f77189; fill-opacity: 0.75; stroke: #ffffff; stroke-linejoin: miter"/>
   </g>
   <g id="patch_109">
    <path d="M 238.874861 257.286486 
L 252.224143 257.286486 
L 252.224143 257.286486 
L 238.874861 257.286486 
z
" clip-path="url(#p98db8d24db)" style="fill: #f77189; fill-opacity: 0.75; stroke: #ffffff; stroke-linejoin: miter"/>
   </g>
   <g id="patch_110">
    <path d="M 252.224143 270.12973 
L 265.573426 270.12973 
L 265.573426 270.12973 
L 252.224143 270.12973 
z
" clip-path="url(#p98db8d24db)" style="fill: #f77189; fill-opacity: 0.75; stroke: #ffffff; stroke-linejoin: miter"/>
   </g>
   <g id="patch_111">
    <path d="M 265.573426 274.410811 
L 278.922708 274.410811 
L 278.922708 274.410811 
L 265.573426 274.410811 
z
" clip-path="url(#p98db8d24db)" style="fill: #f77189; fill-opacity: 0.75; stroke: #ffffff; stroke-linejoin: miter"/>
   </g>
   <g id="patch_112">
    <path d="M 278.922708 277.264865 
L 292.27199 277.264865 
L 292.27199 277.264865 
L 278.922708 277.264865 
z
" clip-path="url(#p98db8d24db)" style="fill: #f77189; fill-opacity: 0.75; stroke: #ffffff; stroke-linejoin: miter"/>
   </g>
   <g id="patch_113">
    <path d="M 292.27199 274.410811 
L 305.621272 274.410811 
L 305.621272 274.410811 
L 292.27199 274.410811 
z
" clip-path="url(#p98db8d24db)" style="fill: #f77189; fill-opacity: 0.75; stroke: #ffffff; stroke-linejoin: miter"/>
   </g>
   <g id="patch_114">
    <path d="M 305.621272 275.837838 
L 318.970555 275.837838 
L 318.970555 275.837838 
L 305.621272 275.837838 
z
" clip-path="url(#p98db8d24db)" style="fill: #f77189; fill-opacity: 0.75; stroke: #ffffff; stroke-linejoin: miter"/>
   </g>
   <g id="patch_115">
    <path d="M 318.970555 284.4 
L 332.319837 284.4 
L 332.319837 284.4 
L 318.970555 284.4 
z
" clip-path="url(#p98db8d24db)" style="fill: #f77189; fill-opacity: 0.75; stroke: #ffffff; stroke-linejoin: miter"/>
   </g>
   <g id="patch_116">
    <path d="M 332.319837 281.545946 
L 345.669119 281.545946 
L 345.669119 281.545946 
L 332.319837 281.545946 
z
" clip-path="url(#p98db8d24db)" style="fill: #f77189; fill-opacity: 0.75; stroke: #ffffff; stroke-linejoin: miter"/>
   </g>
   <g id="patch_117">
    <path d="M 79.350938 284.4 
L 79.350938 7.2 
" style="fill: none; stroke: #000000; stroke-width: 1.25; stroke-linejoin: miter; stroke-linecap: square"/>
   </g>
   <g id="patch_118">
    <path d="M 79.350938 284.4 
L 358.350937 284.4 
" style="fill: none; stroke: #000000; stroke-width: 1.25; stroke-linejoin: miter; stroke-linecap: square"/>
   </g>
  </g>
 </g>
 <defs>
  <clipPath id="p98db8d24db">
   <rect x="79.350938" y="7.2" width="279" height="277.2"/>
  </clipPath>
 </defs>
</svg>
