<?xml version="1.0" encoding="utf-8" standalone="no"?>
<!DOCTYPE svg PUBLIC "-//W3C//DTD SVG 1.1//EN"
  "http://www.w3.org/Graphics/SVG/1.1/DTD/svg11.dtd">
<svg xmlns:xlink="http://www.w3.org/1999/xlink" width="280.425469pt" height="266.547969pt" viewBox="0 0 280.425469 266.547969" xmlns="http://www.w3.org/2000/svg" version="1.1">
 <metadata>
  <rdf:RDF xmlns:dc="http://purl.org/dc/elements/1.1/" xmlns:cc="http://creativecommons.org/ns#" xmlns:rdf="http://www.w3.org/1999/02/22-rdf-syntax-ns#">
   <cc:Work>
    <dc:type rdf:resource="http://purl.org/dc/dcmitype/StillImage"/>
    <dc:date>2023-11-28T16:35:35.532186</dc:date>
    <dc:format>image/svg+xml</dc:format>
    <dc:creator>
     <cc:Agent>
      <dc:title>Matplotlib v3.6.3, https://matplotlib.org/</dc:title>
     </cc:Agent>
    </dc:creator>
   </cc:Work>
  </rdf:RDF>
 </metadata>
 <defs>
  <style type="text/css">*{stroke-linejoin: round; stroke-linecap: butt}</style>
 </defs>
 <g id="figure_1">
  <g id="patch_1">
   <path d="M 0 266.547969 
L 280.425469 266.547969 
L 280.425469 0 
L 0 0 
L 0 266.547969 
z
" style="fill: none"/>
  </g>
  <g id="axes_1">
   <g id="patch_2">
    <path d="M 50.025469 224.81375 
L 273.225469 224.81375 
L 273.225469 58.49375 
L 50.025469 58.49375 
L 50.025469 224.81375 
z
" style="fill: none"/>
   </g>
   <g id="matplotlib.axis_1">
    <g id="xtick_1">
     <g id="text_1">
      <!-- 0.2 -->
      <g style="fill: #262626" transform="translate(82.439697 242.187344) scale(0.11 -0.11)">
       <defs>
        <path id="ArialMT-30" d="M 266 2259 
Q 266 3072 433 3567 
Q 600 4063 929 4331 
Q 1259 4600 1759 4600 
Q 2128 4600 2406 4451 
Q 2684 4303 2865 4023 
Q 3047 3744 3150 3342 
Q 3253 2941 3253 2259 
Q 3253 1453 3087 958 
Q 2922 463 2592 192 
Q 2263 -78 1759 -78 
Q 1097 -78 719 397 
Q 266 969 266 2259 
z
M 844 2259 
Q 844 1131 1108 757 
Q 1372 384 1759 384 
Q 2147 384 2411 759 
Q 2675 1134 2675 2259 
Q 2675 3391 2411 3762 
Q 2147 4134 1753 4134 
Q 1366 4134 1134 3806 
Q 844 3388 844 2259 
z
" transform="scale(0.015625)"/>
        <path id="ArialMT-2e" d="M 581 0 
L 581 641 
L 1222 641 
L 1222 0 
L 581 0 
z
" transform="scale(0.015625)"/>
        <path id="ArialMT-32" d="M 3222 541 
L 3222 0 
L 194 0 
Q 188 203 259 391 
Q 375 700 629 1000 
Q 884 1300 1366 1694 
Q 2113 2306 2375 2664 
Q 2638 3022 2638 3341 
Q 2638 3675 2398 3904 
Q 2159 4134 1775 4134 
Q 1369 4134 1125 3890 
Q 881 3647 878 3216 
L 300 3275 
Q 359 3922 746 4261 
Q 1134 4600 1788 4600 
Q 2447 4600 2831 4234 
Q 3216 3869 3216 3328 
Q 3216 3053 3103 2787 
Q 2991 2522 2730 2228 
Q 2469 1934 1863 1422 
Q 1356 997 1212 845 
Q 1069 694 975 541 
L 3222 541 
z
" transform="scale(0.015625)"/>
       </defs>
       <use xlink:href="#ArialMT-30"/>
       <use xlink:href="#ArialMT-2e" x="55.615234"/>
       <use xlink:href="#ArialMT-32" x="83.398438"/>
      </g>
     </g>
    </g>
    <g id="xtick_2">
     <g id="text_2">
      <!-- 0.4 -->
      <g style="fill: #262626" transform="translate(125.688526 242.187344) scale(0.11 -0.11)">
       <defs>
        <path id="ArialMT-34" d="M 2069 0 
L 2069 1097 
L 81 1097 
L 81 1613 
L 2172 4581 
L 2631 4581 
L 2631 1613 
L 3250 1613 
L 3250 1097 
L 2631 1097 
L 2631 0 
L 2069 0 
z
M 2069 1613 
L 2069 3678 
L 634 1613 
L 2069 1613 
z
" transform="scale(0.015625)"/>
       </defs>
       <use xlink:href="#ArialMT-30"/>
       <use xlink:href="#ArialMT-2e" x="55.615234"/>
       <use xlink:href="#ArialMT-34" x="83.398438"/>
      </g>
     </g>
    </g>
    <g id="xtick_3">
     <g id="text_3">
      <!-- 0.6 -->
      <g style="fill: #262626" transform="translate(168.937356 242.187344) scale(0.11 -0.11)">
       <defs>
        <path id="ArialMT-36" d="M 3184 3459 
L 2625 3416 
Q 2550 3747 2413 3897 
Q 2184 4138 1850 4138 
Q 1581 4138 1378 3988 
Q 1113 3794 959 3422 
Q 806 3050 800 2363 
Q 1003 2672 1297 2822 
Q 1591 2972 1913 2972 
Q 2475 2972 2870 2558 
Q 3266 2144 3266 1488 
Q 3266 1056 3080 686 
Q 2894 316 2569 119 
Q 2244 -78 1831 -78 
Q 1128 -78 684 439 
Q 241 956 241 2144 
Q 241 3472 731 4075 
Q 1159 4600 1884 4600 
Q 2425 4600 2770 4297 
Q 3116 3994 3184 3459 
z
M 888 1484 
Q 888 1194 1011 928 
Q 1134 663 1356 523 
Q 1578 384 1822 384 
Q 2178 384 2434 671 
Q 2691 959 2691 1453 
Q 2691 1928 2437 2201 
Q 2184 2475 1800 2475 
Q 1419 2475 1153 2201 
Q 888 1928 888 1484 
z
" transform="scale(0.015625)"/>
       </defs>
       <use xlink:href="#ArialMT-30"/>
       <use xlink:href="#ArialMT-2e" x="55.615234"/>
       <use xlink:href="#ArialMT-36" x="83.398438"/>
      </g>
     </g>
    </g>
    <g id="xtick_4">
     <g id="text_4">
      <!-- 0.8 -->
      <g style="fill: #262626" transform="translate(212.186185 242.187344) scale(0.11 -0.11)">
       <defs>
        <path id="ArialMT-38" d="M 1131 2484 
Q 781 2613 612 2850 
Q 444 3088 444 3419 
Q 444 3919 803 4259 
Q 1163 4600 1759 4600 
Q 2359 4600 2725 4251 
Q 3091 3903 3091 3403 
Q 3091 3084 2923 2848 
Q 2756 2613 2416 2484 
Q 2838 2347 3058 2040 
Q 3278 1734 3278 1309 
Q 3278 722 2862 322 
Q 2447 -78 1769 -78 
Q 1091 -78 675 323 
Q 259 725 259 1325 
Q 259 1772 486 2073 
Q 713 2375 1131 2484 
z
M 1019 3438 
Q 1019 3113 1228 2906 
Q 1438 2700 1772 2700 
Q 2097 2700 2305 2904 
Q 2513 3109 2513 3406 
Q 2513 3716 2298 3927 
Q 2084 4138 1766 4138 
Q 1444 4138 1231 3931 
Q 1019 3725 1019 3438 
z
M 838 1322 
Q 838 1081 952 856 
Q 1066 631 1291 507 
Q 1516 384 1775 384 
Q 2178 384 2440 643 
Q 2703 903 2703 1303 
Q 2703 1709 2433 1975 
Q 2163 2241 1756 2241 
Q 1359 2241 1098 1978 
Q 838 1716 838 1322 
z
" transform="scale(0.015625)"/>
       </defs>
       <use xlink:href="#ArialMT-30"/>
       <use xlink:href="#ArialMT-2e" x="55.615234"/>
       <use xlink:href="#ArialMT-38" x="83.398438"/>
      </g>
     </g>
    </g>
    <g id="xtick_5">
     <g id="text_5">
      <!-- 1.0 -->
      <g style="fill: #262626" transform="translate(255.435014 242.187344) scale(0.11 -0.11)">
       <defs>
        <path id="ArialMT-31" d="M 2384 0 
L 1822 0 
L 1822 3584 
Q 1619 3391 1289 3197 
Q 959 3003 697 2906 
L 697 3450 
Q 1169 3672 1522 3987 
Q 1875 4303 2022 4600 
L 2384 4600 
L 2384 0 
z
" transform="scale(0.015625)"/>
       </defs>
       <use xlink:href="#ArialMT-31"/>
       <use xlink:href="#ArialMT-2e" x="55.615234"/>
       <use xlink:href="#ArialMT-30" x="83.398438"/>
      </g>
     </g>
    </g>
    <g id="text_6">
     <!-- PDI -->
     <g style="fill: #262626" transform="translate(151.623281 256.962969) scale(0.12 -0.12)">
      <defs>
       <path id="ArialMT-50" d="M 494 0 
L 494 4581 
L 2222 4581 
Q 2678 4581 2919 4538 
Q 3256 4481 3484 4323 
Q 3713 4166 3852 3881 
Q 3991 3597 3991 3256 
Q 3991 2672 3619 2267 
Q 3247 1863 2275 1863 
L 1100 1863 
L 1100 0 
L 494 0 
z
M 1100 2403 
L 2284 2403 
Q 2872 2403 3119 2622 
Q 3366 2841 3366 3238 
Q 3366 3525 3220 3729 
Q 3075 3934 2838 4000 
Q 2684 4041 2272 4041 
L 1100 4041 
L 1100 2403 
z
" transform="scale(0.015625)"/>
       <path id="ArialMT-44" d="M 494 0 
L 494 4581 
L 2072 4581 
Q 2606 4581 2888 4516 
Q 3281 4425 3559 4188 
Q 3922 3881 4101 3404 
Q 4281 2928 4281 2316 
Q 4281 1794 4159 1391 
Q 4038 988 3847 723 
Q 3656 459 3429 307 
Q 3203 156 2883 78 
Q 2563 0 2147 0 
L 494 0 
z
M 1100 541 
L 2078 541 
Q 2531 541 2789 625 
Q 3047 709 3200 863 
Q 3416 1078 3536 1442 
Q 3656 1806 3656 2325 
Q 3656 3044 3420 3430 
Q 3184 3816 2847 3947 
Q 2603 4041 2063 4041 
L 1100 4041 
L 1100 541 
z
" transform="scale(0.015625)"/>
       <path id="ArialMT-49" d="M 597 0 
L 597 4581 
L 1203 4581 
L 1203 0 
L 597 0 
z
" transform="scale(0.015625)"/>
      </defs>
      <use xlink:href="#ArialMT-50"/>
      <use xlink:href="#ArialMT-44" x="66.699219"/>
      <use xlink:href="#ArialMT-49" x="138.916016"/>
     </g>
    </g>
   </g>
   <g id="matplotlib.axis_2">
    <g id="ytick_1">
     <g id="text_7">
      <!-- 0 -->
      <g style="fill: #262626" transform="translate(34.408438 228.750547) scale(0.11 -0.11)">
       <use xlink:href="#ArialMT-30"/>
      </g>
     </g>
    </g>
    <g id="ytick_2">
     <g id="text_8">
      <!-- 50 -->
      <g style="fill: #262626" transform="translate(28.291406 184.504737) scale(0.11 -0.11)">
       <defs>
        <path id="ArialMT-35" d="M 266 1200 
L 856 1250 
Q 922 819 1161 601 
Q 1400 384 1738 384 
Q 2144 384 2425 690 
Q 2706 997 2706 1503 
Q 2706 1984 2436 2262 
Q 2166 2541 1728 2541 
Q 1456 2541 1237 2417 
Q 1019 2294 894 2097 
L 366 2166 
L 809 4519 
L 3088 4519 
L 3088 3981 
L 1259 3981 
L 1013 2750 
Q 1425 3038 1878 3038 
Q 2478 3038 2890 2622 
Q 3303 2206 3303 1553 
Q 3303 931 2941 478 
Q 2500 -78 1738 -78 
Q 1113 -78 717 272 
Q 322 622 266 1200 
z
" transform="scale(0.015625)"/>
       </defs>
       <use xlink:href="#ArialMT-35"/>
       <use xlink:href="#ArialMT-30" x="55.615234"/>
      </g>
     </g>
    </g>
    <g id="ytick_3">
     <g id="text_9">
      <!-- 100 -->
      <g style="fill: #262626" transform="translate(22.174375 140.258927) scale(0.11 -0.11)">
       <use xlink:href="#ArialMT-31"/>
       <use xlink:href="#ArialMT-30" x="55.615234"/>
       <use xlink:href="#ArialMT-30" x="111.230469"/>
      </g>
     </g>
    </g>
    <g id="ytick_4">
     <g id="text_10">
      <!-- 150 -->
      <g style="fill: #262626" transform="translate(22.174375 96.013117) scale(0.11 -0.11)">
       <use xlink:href="#ArialMT-31"/>
       <use xlink:href="#ArialMT-35" x="55.615234"/>
       <use xlink:href="#ArialMT-30" x="111.230469"/>
      </g>
     </g>
    </g>
    <g id="text_11">
     <!-- Count -->
     <g style="fill: #262626" transform="translate(15.789375 157.663438) rotate(-90) scale(0.12 -0.12)">
      <defs>
       <path id="ArialMT-43" d="M 3763 1606 
L 4369 1453 
Q 4178 706 3683 314 
Q 3188 -78 2472 -78 
Q 1731 -78 1267 223 
Q 803 525 561 1097 
Q 319 1669 319 2325 
Q 319 3041 592 3573 
Q 866 4106 1370 4382 
Q 1875 4659 2481 4659 
Q 3169 4659 3637 4309 
Q 4106 3959 4291 3325 
L 3694 3184 
Q 3534 3684 3231 3912 
Q 2928 4141 2469 4141 
Q 1941 4141 1586 3887 
Q 1231 3634 1087 3207 
Q 944 2781 944 2328 
Q 944 1744 1114 1308 
Q 1284 872 1643 656 
Q 2003 441 2422 441 
Q 2931 441 3284 734 
Q 3638 1028 3763 1606 
z
" transform="scale(0.015625)"/>
       <path id="ArialMT-6f" d="M 213 1659 
Q 213 2581 725 3025 
Q 1153 3394 1769 3394 
Q 2453 3394 2887 2945 
Q 3322 2497 3322 1706 
Q 3322 1066 3130 698 
Q 2938 331 2570 128 
Q 2203 -75 1769 -75 
Q 1072 -75 642 372 
Q 213 819 213 1659 
z
M 791 1659 
Q 791 1022 1069 705 
Q 1347 388 1769 388 
Q 2188 388 2466 706 
Q 2744 1025 2744 1678 
Q 2744 2294 2464 2611 
Q 2184 2928 1769 2928 
Q 1347 2928 1069 2612 
Q 791 2297 791 1659 
z
" transform="scale(0.015625)"/>
       <path id="ArialMT-75" d="M 2597 0 
L 2597 488 
Q 2209 -75 1544 -75 
Q 1250 -75 995 37 
Q 741 150 617 320 
Q 494 491 444 738 
Q 409 903 409 1263 
L 409 3319 
L 972 3319 
L 972 1478 
Q 972 1038 1006 884 
Q 1059 663 1231 536 
Q 1403 409 1656 409 
Q 1909 409 2131 539 
Q 2353 669 2445 892 
Q 2538 1116 2538 1541 
L 2538 3319 
L 3100 3319 
L 3100 0 
L 2597 0 
z
" transform="scale(0.015625)"/>
       <path id="ArialMT-6e" d="M 422 0 
L 422 3319 
L 928 3319 
L 928 2847 
Q 1294 3394 1984 3394 
Q 2284 3394 2536 3286 
Q 2788 3178 2913 3003 
Q 3038 2828 3088 2588 
Q 3119 2431 3119 2041 
L 3119 0 
L 2556 0 
L 2556 2019 
Q 2556 2363 2490 2533 
Q 2425 2703 2258 2804 
Q 2091 2906 1866 2906 
Q 1506 2906 1245 2678 
Q 984 2450 984 1813 
L 984 0 
L 422 0 
z
" transform="scale(0.015625)"/>
       <path id="ArialMT-74" d="M 1650 503 
L 1731 6 
Q 1494 -44 1306 -44 
Q 1000 -44 831 53 
Q 663 150 594 308 
Q 525 466 525 972 
L 525 2881 
L 113 2881 
L 113 3319 
L 525 3319 
L 525 4141 
L 1084 4478 
L 1084 3319 
L 1650 3319 
L 1650 2881 
L 1084 2881 
L 1084 941 
Q 1084 700 1114 631 
Q 1144 563 1211 522 
Q 1278 481 1403 481 
Q 1497 481 1650 503 
z
" transform="scale(0.015625)"/>
      </defs>
      <use xlink:href="#ArialMT-43"/>
      <use xlink:href="#ArialMT-6f" x="72.216797"/>
      <use xlink:href="#ArialMT-75" x="127.832031"/>
      <use xlink:href="#ArialMT-6e" x="183.447266"/>
      <use xlink:href="#ArialMT-74" x="239.0625"/>
     </g>
    </g>
   </g>
   <g id="patch_3">
    <path d="M 60.170923 224.81375 
L 67.417677 224.81375 
L 67.417677 223.928834 
L 60.170923 223.928834 
z
" clip-path="url(#p4f52435165)" style="fill: #e866f4; fill-opacity: 0.75; stroke: #ffffff; stroke-width: 0.724675; stroke-linejoin: miter"/>
   </g>
   <g id="patch_4">
    <path d="M 67.417677 224.81375 
L 74.66443 224.81375 
L 74.66443 223.928834 
L 67.417677 223.928834 
z
" clip-path="url(#p4f52435165)" style="fill: #e866f4; fill-opacity: 0.75; stroke: #ffffff; stroke-width: 0.724675; stroke-linejoin: miter"/>
   </g>
   <g id="patch_5">
    <path d="M 74.66443 224.81375 
L 81.911183 224.81375 
L 81.911183 222.159001 
L 74.66443 222.159001 
z
" clip-path="url(#p4f52435165)" style="fill: #e866f4; fill-opacity: 0.75; stroke: #ffffff; stroke-width: 0.724675; stroke-linejoin: miter"/>
   </g>
   <g id="patch_6">
    <path d="M 81.911183 224.81375 
L 89.157936 224.81375 
L 89.157936 214.194756 
L 81.911183 214.194756 
z
" clip-path="url(#p4f52435165)" style="fill: #e866f4; fill-opacity: 0.75; stroke: #ffffff; stroke-width: 0.724675; stroke-linejoin: miter"/>
   </g>
   <g id="patch_7">
    <path d="M 89.157936 224.81375 
L 96.40469 224.81375 
L 96.40469 208.885258 
L 89.157936 208.885258 
z
" clip-path="url(#p4f52435165)" style="fill: #e866f4; fill-opacity: 0.75; stroke: #ffffff; stroke-width: 0.724675; stroke-linejoin: miter"/>
   </g>
   <g id="patch_8">
    <path d="M 96.40469 224.81375 
L 103.651443 224.81375 
L 103.651443 206.23051 
L 96.40469 206.23051 
z
" clip-path="url(#p4f52435165)" style="fill: #e866f4; fill-opacity: 0.75; stroke: #ffffff; stroke-width: 0.724675; stroke-linejoin: miter"/>
   </g>
   <g id="patch_9">
    <path d="M 103.651443 224.81375 
L 110.898196 224.81375 
L 110.898196 215.079672 
L 103.651443 215.079672 
z
" clip-path="url(#p4f52435165)" style="fill: #e866f4; fill-opacity: 0.75; stroke: #ffffff; stroke-width: 0.724675; stroke-linejoin: miter"/>
   </g>
   <g id="patch_10">
    <path d="M 110.898196 224.81375 
L 118.144949 224.81375 
L 118.144949 209.770175 
L 110.898196 209.770175 
z
" clip-path="url(#p4f52435165)" style="fill: #e866f4; fill-opacity: 0.75; stroke: #ffffff; stroke-width: 0.724675; stroke-linejoin: miter"/>
   </g>
   <g id="patch_11">
    <path d="M 118.144949 224.81375 
L 125.391703 224.81375 
L 125.391703 213.309839 
L 118.144949 213.309839 
z
" clip-path="url(#p4f52435165)" style="fill: #e866f4; fill-opacity: 0.75; stroke: #ffffff; stroke-width: 0.724675; stroke-linejoin: miter"/>
   </g>
   <g id="patch_12">
    <path d="M 125.391703 224.81375 
L 132.638456 224.81375 
L 132.638456 213.309839 
L 125.391703 213.309839 
z
" clip-path="url(#p4f52435165)" style="fill: #e866f4; fill-opacity: 0.75; stroke: #ffffff; stroke-width: 0.724675; stroke-linejoin: miter"/>
   </g>
   <g id="patch_13">
    <path d="M 132.638456 224.81375 
L 139.885209 224.81375 
L 139.885209 218.619337 
L 132.638456 218.619337 
z
" clip-path="url(#p4f52435165)" style="fill: #e866f4; fill-opacity: 0.75; stroke: #ffffff; stroke-width: 0.724675; stroke-linejoin: miter"/>
   </g>
   <g id="patch_14">
    <path d="M 139.885209 224.81375 
L 147.131962 224.81375 
L 147.131962 218.619337 
L 139.885209 218.619337 
z
" clip-path="url(#p4f52435165)" style="fill: #e866f4; fill-opacity: 0.75; stroke: #ffffff; stroke-width: 0.724675; stroke-linejoin: miter"/>
   </g>
   <g id="patch_15">
    <path d="M 147.131962 224.81375 
L 154.378716 224.81375 
L 154.378716 220.389169 
L 147.131962 220.389169 
z
" clip-path="url(#p4f52435165)" style="fill: #e866f4; fill-opacity: 0.75; stroke: #ffffff; stroke-width: 0.724675; stroke-linejoin: miter"/>
   </g>
   <g id="patch_16">
    <path d="M 154.378716 224.81375 
L 161.625469 224.81375 
L 161.625469 214.194756 
L 154.378716 214.194756 
z
" clip-path="url(#p4f52435165)" style="fill: #e866f4; fill-opacity: 0.75; stroke: #ffffff; stroke-width: 0.724675; stroke-linejoin: miter"/>
   </g>
   <g id="patch_17">
    <path d="M 161.625469 224.81375 
L 168.872222 224.81375 
L 168.872222 218.619337 
L 161.625469 218.619337 
z
" clip-path="url(#p4f52435165)" style="fill: #e866f4; fill-opacity: 0.75; stroke: #ffffff; stroke-width: 0.724675; stroke-linejoin: miter"/>
   </g>
   <g id="patch_18">
    <path d="M 168.872222 224.81375 
L 176.118975 224.81375 
L 176.118975 224.81375 
L 168.872222 224.81375 
z
" clip-path="url(#p4f52435165)" style="fill: #e866f4; fill-opacity: 0.75; stroke: #ffffff; stroke-width: 0.724675; stroke-linejoin: miter"/>
   </g>
   <g id="patch_19">
    <path d="M 176.118975 224.81375 
L 183.365728 224.81375 
L 183.365728 221.274085 
L 176.118975 221.274085 
z
" clip-path="url(#p4f52435165)" style="fill: #e866f4; fill-opacity: 0.75; stroke: #ffffff; stroke-width: 0.724675; stroke-linejoin: miter"/>
   </g>
   <g id="patch_20">
    <path d="M 183.365728 224.81375 
L 190.612482 224.81375 
L 190.612482 220.389169 
L 183.365728 220.389169 
z
" clip-path="url(#p4f52435165)" style="fill: #e866f4; fill-opacity: 0.75; stroke: #ffffff; stroke-width: 0.724675; stroke-linejoin: miter"/>
   </g>
   <g id="patch_21">
    <path d="M 190.612482 224.81375 
L 197.859235 224.81375 
L 197.859235 218.619337 
L 190.612482 218.619337 
z
" clip-path="url(#p4f52435165)" style="fill: #e866f4; fill-opacity: 0.75; stroke: #ffffff; stroke-width: 0.724675; stroke-linejoin: miter"/>
   </g>
   <g id="patch_22">
    <path d="M 197.859235 224.81375 
L 205.105988 224.81375 
L 205.105988 220.389169 
L 197.859235 220.389169 
z
" clip-path="url(#p4f52435165)" style="fill: #e866f4; fill-opacity: 0.75; stroke: #ffffff; stroke-width: 0.724675; stroke-linejoin: miter"/>
   </g>
   <g id="patch_23">
    <path d="M 205.105988 224.81375 
L 212.352741 224.81375 
L 212.352741 222.159001 
L 205.105988 222.159001 
z
" clip-path="url(#p4f52435165)" style="fill: #e866f4; fill-opacity: 0.75; stroke: #ffffff; stroke-width: 0.724675; stroke-linejoin: miter"/>
   </g>
   <g id="patch_24">
    <path d="M 212.352741 224.81375 
L 219.599495 224.81375 
L 219.599495 222.159001 
L 212.352741 222.159001 
z
" clip-path="url(#p4f52435165)" style="fill: #e866f4; fill-opacity: 0.75; stroke: #ffffff; stroke-width: 0.724675; stroke-linejoin: miter"/>
   </g>
   <g id="patch_25">
    <path d="M 219.599495 224.81375 
L 226.846248 224.81375 
L 226.846248 223.043918 
L 219.599495 223.043918 
z
" clip-path="url(#p4f52435165)" style="fill: #e866f4; fill-opacity: 0.75; stroke: #ffffff; stroke-width: 0.724675; stroke-linejoin: miter"/>
   </g>
   <g id="patch_26">
    <path d="M 226.846248 224.81375 
L 234.093001 224.81375 
L 234.093001 223.928834 
L 226.846248 223.928834 
z
" clip-path="url(#p4f52435165)" style="fill: #e866f4; fill-opacity: 0.75; stroke: #ffffff; stroke-width: 0.724675; stroke-linejoin: miter"/>
   </g>
   <g id="patch_27">
    <path d="M 234.093001 224.81375 
L 241.339754 224.81375 
L 241.339754 224.81375 
L 234.093001 224.81375 
z
" clip-path="url(#p4f52435165)" style="fill: #e866f4; fill-opacity: 0.75; stroke: #ffffff; stroke-width: 0.724675; stroke-linejoin: miter"/>
   </g>
   <g id="patch_28">
    <path d="M 241.339754 224.81375 
L 248.586508 224.81375 
L 248.586508 223.928834 
L 241.339754 223.928834 
z
" clip-path="url(#p4f52435165)" style="fill: #e866f4; fill-opacity: 0.75; stroke: #ffffff; stroke-width: 0.724675; stroke-linejoin: miter"/>
   </g>
   <g id="patch_29">
    <path d="M 248.586508 224.81375 
L 255.833261 224.81375 
L 255.833261 224.81375 
L 248.586508 224.81375 
z
" clip-path="url(#p4f52435165)" style="fill: #e866f4; fill-opacity: 0.75; stroke: #ffffff; stroke-width: 0.724675; stroke-linejoin: miter"/>
   </g>
   <g id="patch_30">
    <path d="M 255.833261 224.81375 
L 263.080014 224.81375 
L 263.080014 223.928834 
L 255.833261 223.928834 
z
" clip-path="url(#p4f52435165)" style="fill: #e866f4; fill-opacity: 0.75; stroke: #ffffff; stroke-width: 0.724675; stroke-linejoin: miter"/>
   </g>
   <g id="patch_31">
    <path d="M 60.170923 223.928834 
L 67.417677 223.928834 
L 67.417677 223.928834 
L 60.170923 223.928834 
z
" clip-path="url(#p4f52435165)" style="fill: #3ba3ec; fill-opacity: 0.75; stroke: #ffffff; stroke-width: 0.724675; stroke-linejoin: miter"/>
   </g>
   <g id="patch_32">
    <path d="M 67.417677 223.928834 
L 74.66443 223.928834 
L 74.66443 218.619337 
L 67.417677 218.619337 
z
" clip-path="url(#p4f52435165)" style="fill: #3ba3ec; fill-opacity: 0.75; stroke: #ffffff; stroke-width: 0.724675; stroke-linejoin: miter"/>
   </g>
   <g id="patch_33">
    <path d="M 74.66443 222.159001 
L 81.911183 222.159001 
L 81.911183 213.309839 
L 74.66443 213.309839 
z
" clip-path="url(#p4f52435165)" style="fill: #3ba3ec; fill-opacity: 0.75; stroke: #ffffff; stroke-width: 0.724675; stroke-linejoin: miter"/>
   </g>
   <g id="patch_34">
    <path d="M 81.911183 214.194756 
L 89.157936 214.194756 
L 89.157936 191.186934 
L 81.911183 191.186934 
z
" clip-path="url(#p4f52435165)" style="fill: #3ba3ec; fill-opacity: 0.75; stroke: #ffffff; stroke-width: 0.724675; stroke-linejoin: miter"/>
   </g>
   <g id="patch_35">
    <path d="M 89.157936 208.885258 
L 96.40469 208.885258 
L 96.40469 161.9847 
L 89.157936 161.9847 
z
" clip-path="url(#p4f52435165)" style="fill: #3ba3ec; fill-opacity: 0.75; stroke: #ffffff; stroke-width: 0.724675; stroke-linejoin: miter"/>
   </g>
   <g id="patch_36">
    <path d="M 96.40469 206.23051 
L 103.651443 206.23051 
L 103.651443 174.373527 
L 96.40469 174.373527 
z
" clip-path="url(#p4f52435165)" style="fill: #3ba3ec; fill-opacity: 0.75; stroke: #ffffff; stroke-width: 0.724675; stroke-linejoin: miter"/>
   </g>
   <g id="patch_37">
    <path d="M 103.651443 215.079672 
L 110.898196 215.079672 
L 110.898196 200.921013 
L 103.651443 200.921013 
z
" clip-path="url(#p4f52435165)" style="fill: #3ba3ec; fill-opacity: 0.75; stroke: #ffffff; stroke-width: 0.724675; stroke-linejoin: miter"/>
   </g>
   <g id="patch_38">
    <path d="M 110.898196 209.770175 
L 118.144949 209.770175 
L 118.144949 199.15118 
L 110.898196 199.15118 
z
" clip-path="url(#p4f52435165)" style="fill: #3ba3ec; fill-opacity: 0.75; stroke: #ffffff; stroke-width: 0.724675; stroke-linejoin: miter"/>
   </g>
   <g id="patch_39">
    <path d="M 118.144949 213.309839 
L 125.391703 213.309839 
L 125.391703 208.885258 
L 118.144949 208.885258 
z
" clip-path="url(#p4f52435165)" style="fill: #3ba3ec; fill-opacity: 0.75; stroke: #ffffff; stroke-width: 0.724675; stroke-linejoin: miter"/>
   </g>
   <g id="patch_40">
    <path d="M 125.391703 213.309839 
L 132.638456 213.309839 
L 132.638456 212.424923 
L 125.391703 212.424923 
z
" clip-path="url(#p4f52435165)" style="fill: #3ba3ec; fill-opacity: 0.75; stroke: #ffffff; stroke-width: 0.724675; stroke-linejoin: miter"/>
   </g>
   <g id="patch_41">
    <path d="M 132.638456 218.619337 
L 139.885209 218.619337 
L 139.885209 215.964588 
L 132.638456 215.964588 
z
" clip-path="url(#p4f52435165)" style="fill: #3ba3ec; fill-opacity: 0.75; stroke: #ffffff; stroke-width: 0.724675; stroke-linejoin: miter"/>
   </g>
   <g id="patch_42">
    <path d="M 139.885209 218.619337 
L 147.131962 218.619337 
L 147.131962 216.849504 
L 139.885209 216.849504 
z
" clip-path="url(#p4f52435165)" style="fill: #3ba3ec; fill-opacity: 0.75; stroke: #ffffff; stroke-width: 0.724675; stroke-linejoin: miter"/>
   </g>
   <g id="patch_43">
    <path d="M 147.131962 220.389169 
L 154.378716 220.389169 
L 154.378716 218.619337 
L 147.131962 218.619337 
z
" clip-path="url(#p4f52435165)" style="fill: #3ba3ec; fill-opacity: 0.75; stroke: #ffffff; stroke-width: 0.724675; stroke-linejoin: miter"/>
   </g>
   <g id="patch_44">
    <path d="M 154.378716 214.194756 
L 161.625469 214.194756 
L 161.625469 212.424923 
L 154.378716 212.424923 
z
" clip-path="url(#p4f52435165)" style="fill: #3ba3ec; fill-opacity: 0.75; stroke: #ffffff; stroke-width: 0.724675; stroke-linejoin: miter"/>
   </g>
   <g id="patch_45">
    <path d="M 161.625469 218.619337 
L 168.872222 218.619337 
L 168.872222 215.079672 
L 161.625469 215.079672 
z
" clip-path="url(#p4f52435165)" style="fill: #3ba3ec; fill-opacity: 0.75; stroke: #ffffff; stroke-width: 0.724675; stroke-linejoin: miter"/>
   </g>
   <g id="patch_46">
    <path d="M 168.872222 224.81375 
L 176.118975 224.81375 
L 176.118975 224.81375 
L 168.872222 224.81375 
z
" clip-path="url(#p4f52435165)" style="fill: #3ba3ec; fill-opacity: 0.75; stroke: #ffffff; stroke-width: 0.724675; stroke-linejoin: miter"/>
   </g>
   <g id="patch_47">
    <path d="M 176.118975 221.274085 
L 183.365728 221.274085 
L 183.365728 221.274085 
L 176.118975 221.274085 
z
" clip-path="url(#p4f52435165)" style="fill: #3ba3ec; fill-opacity: 0.75; stroke: #ffffff; stroke-width: 0.724675; stroke-linejoin: miter"/>
   </g>
   <g id="patch_48">
    <path d="M 183.365728 220.389169 
L 190.612482 220.389169 
L 190.612482 219.504253 
L 183.365728 219.504253 
z
" clip-path="url(#p4f52435165)" style="fill: #3ba3ec; fill-opacity: 0.75; stroke: #ffffff; stroke-width: 0.724675; stroke-linejoin: miter"/>
   </g>
   <g id="patch_49">
    <path d="M 190.612482 218.619337 
L 197.859235 218.619337 
L 197.859235 218.619337 
L 190.612482 218.619337 
z
" clip-path="url(#p4f52435165)" style="fill: #3ba3ec; fill-opacity: 0.75; stroke: #ffffff; stroke-width: 0.724675; stroke-linejoin: miter"/>
   </g>
   <g id="patch_50">
    <path d="M 197.859235 220.389169 
L 205.105988 220.389169 
L 205.105988 219.504253 
L 197.859235 219.504253 
z
" clip-path="url(#p4f52435165)" style="fill: #3ba3ec; fill-opacity: 0.75; stroke: #ffffff; stroke-width: 0.724675; stroke-linejoin: miter"/>
   </g>
   <g id="patch_51">
    <path d="M 205.105988 222.159001 
L 212.352741 222.159001 
L 212.352741 222.159001 
L 205.105988 222.159001 
z
" clip-path="url(#p4f52435165)" style="fill: #3ba3ec; fill-opacity: 0.75; stroke: #ffffff; stroke-width: 0.724675; stroke-linejoin: miter"/>
   </g>
   <g id="patch_52">
    <path d="M 212.352741 222.159001 
L 219.599495 222.159001 
L 219.599495 222.159001 
L 212.352741 222.159001 
z
" clip-path="url(#p4f52435165)" style="fill: #3ba3ec; fill-opacity: 0.75; stroke: #ffffff; stroke-width: 0.724675; stroke-linejoin: miter"/>
   </g>
   <g id="patch_53">
    <path d="M 219.599495 223.043918 
L 226.846248 223.043918 
L 226.846248 223.043918 
L 219.599495 223.043918 
z
" clip-path="url(#p4f52435165)" style="fill: #3ba3ec; fill-opacity: 0.75; stroke: #ffffff; stroke-width: 0.724675; stroke-linejoin: miter"/>
   </g>
   <g id="patch_54">
    <path d="M 226.846248 223.928834 
L 234.093001 223.928834 
L 234.093001 223.928834 
L 226.846248 223.928834 
z
" clip-path="url(#p4f52435165)" style="fill: #3ba3ec; fill-opacity: 0.75; stroke: #ffffff; stroke-width: 0.724675; stroke-linejoin: miter"/>
   </g>
   <g id="patch_55">
    <path d="M 234.093001 224.81375 
L 241.339754 224.81375 
L 241.339754 224.81375 
L 234.093001 224.81375 
z
" clip-path="url(#p4f52435165)" style="fill: #3ba3ec; fill-opacity: 0.75; stroke: #ffffff; stroke-width: 0.724675; stroke-linejoin: miter"/>
   </g>
   <g id="patch_56">
    <path d="M 241.339754 223.928834 
L 248.586508 223.928834 
L 248.586508 223.928834 
L 241.339754 223.928834 
z
" clip-path="url(#p4f52435165)" style="fill: #3ba3ec; fill-opacity: 0.75; stroke: #ffffff; stroke-width: 0.724675; stroke-linejoin: miter"/>
   </g>
   <g id="patch_57">
    <path d="M 248.586508 224.81375 
L 255.833261 224.81375 
L 255.833261 224.81375 
L 248.586508 224.81375 
z
" clip-path="url(#p4f52435165)" style="fill: #3ba3ec; fill-opacity: 0.75; stroke: #ffffff; stroke-width: 0.724675; stroke-linejoin: miter"/>
   </g>
   <g id="patch_58">
    <path d="M 255.833261 223.928834 
L 263.080014 223.928834 
L 263.080014 223.928834 
L 255.833261 223.928834 
z
" clip-path="url(#p4f52435165)" style="fill: #3ba3ec; fill-opacity: 0.75; stroke: #ffffff; stroke-width: 0.724675; stroke-linejoin: miter"/>
   </g>
   <g id="patch_59">
    <path d="M 60.170923 223.928834 
L 67.417677 223.928834 
L 67.417677 223.928834 
L 60.170923 223.928834 
z
" clip-path="url(#p4f52435165)" style="fill: #36ada4; fill-opacity: 0.75; stroke: #ffffff; stroke-width: 0.724675; stroke-linejoin: miter"/>
   </g>
   <g id="patch_60">
    <path d="M 67.417677 218.619337 
L 74.66443 218.619337 
L 74.66443 217.73442 
L 67.417677 217.73442 
z
" clip-path="url(#p4f52435165)" style="fill: #36ada4; fill-opacity: 0.75; stroke: #ffffff; stroke-width: 0.724675; stroke-linejoin: miter"/>
   </g>
   <g id="patch_61">
    <path d="M 74.66443 213.309839 
L 81.911183 213.309839 
L 81.911183 208.000342 
L 74.66443 208.000342 
z
" clip-path="url(#p4f52435165)" style="fill: #36ada4; fill-opacity: 0.75; stroke: #ffffff; stroke-width: 0.724675; stroke-linejoin: miter"/>
   </g>
   <g id="patch_62">
    <path d="M 81.911183 191.186934 
L 89.157936 191.186934 
L 89.157936 171.718778 
L 81.911183 171.718778 
z
" clip-path="url(#p4f52435165)" style="fill: #36ada4; fill-opacity: 0.75; stroke: #ffffff; stroke-width: 0.724675; stroke-linejoin: miter"/>
   </g>
   <g id="patch_63">
    <path d="M 89.157936 161.9847 
L 96.40469 161.9847 
L 96.40469 122.163471 
L 89.157936 122.163471 
z
" clip-path="url(#p4f52435165)" style="fill: #36ada4; fill-opacity: 0.75; stroke: #ffffff; stroke-width: 0.724675; stroke-linejoin: miter"/>
   </g>
   <g id="patch_64">
    <path d="M 96.40469 174.373527 
L 103.651443 174.373527 
L 103.651443 141.631627 
L 96.40469 141.631627 
z
" clip-path="url(#p4f52435165)" style="fill: #36ada4; fill-opacity: 0.75; stroke: #ffffff; stroke-width: 0.724675; stroke-linejoin: miter"/>
   </g>
   <g id="patch_65">
    <path d="M 103.651443 200.921013 
L 110.898196 200.921013 
L 110.898196 183.222689 
L 103.651443 183.222689 
z
" clip-path="url(#p4f52435165)" style="fill: #36ada4; fill-opacity: 0.75; stroke: #ffffff; stroke-width: 0.724675; stroke-linejoin: miter"/>
   </g>
   <g id="patch_66">
    <path d="M 110.898196 199.15118 
L 118.144949 199.15118 
L 118.144949 187.64727 
L 110.898196 187.64727 
z
" clip-path="url(#p4f52435165)" style="fill: #36ada4; fill-opacity: 0.75; stroke: #ffffff; stroke-width: 0.724675; stroke-linejoin: miter"/>
   </g>
   <g id="patch_67">
    <path d="M 118.144949 208.885258 
L 125.391703 208.885258 
L 125.391703 200.921013 
L 118.144949 200.921013 
z
" clip-path="url(#p4f52435165)" style="fill: #36ada4; fill-opacity: 0.75; stroke: #ffffff; stroke-width: 0.724675; stroke-linejoin: miter"/>
   </g>
   <g id="patch_68">
    <path d="M 125.391703 212.424923 
L 132.638456 212.424923 
L 132.638456 208.885258 
L 125.391703 208.885258 
z
" clip-path="url(#p4f52435165)" style="fill: #36ada4; fill-opacity: 0.75; stroke: #ffffff; stroke-width: 0.724675; stroke-linejoin: miter"/>
   </g>
   <g id="patch_69">
    <path d="M 132.638456 215.964588 
L 139.885209 215.964588 
L 139.885209 214.194756 
L 132.638456 214.194756 
z
" clip-path="url(#p4f52435165)" style="fill: #36ada4; fill-opacity: 0.75; stroke: #ffffff; stroke-width: 0.724675; stroke-linejoin: miter"/>
   </g>
   <g id="patch_70">
    <path d="M 139.885209 216.849504 
L 147.131962 216.849504 
L 147.131962 211.540007 
L 139.885209 211.540007 
z
" clip-path="url(#p4f52435165)" style="fill: #36ada4; fill-opacity: 0.75; stroke: #ffffff; stroke-width: 0.724675; stroke-linejoin: miter"/>
   </g>
   <g id="patch_71">
    <path d="M 147.131962 218.619337 
L 154.378716 218.619337 
L 154.378716 217.73442 
L 147.131962 217.73442 
z
" clip-path="url(#p4f52435165)" style="fill: #36ada4; fill-opacity: 0.75; stroke: #ffffff; stroke-width: 0.724675; stroke-linejoin: miter"/>
   </g>
   <g id="patch_72">
    <path d="M 154.378716 212.424923 
L 161.625469 212.424923 
L 161.625469 210.655091 
L 154.378716 210.655091 
z
" clip-path="url(#p4f52435165)" style="fill: #36ada4; fill-opacity: 0.75; stroke: #ffffff; stroke-width: 0.724675; stroke-linejoin: miter"/>
   </g>
   <g id="patch_73">
    <path d="M 161.625469 215.079672 
L 168.872222 215.079672 
L 168.872222 212.424923 
L 161.625469 212.424923 
z
" clip-path="url(#p4f52435165)" style="fill: #36ada4; fill-opacity: 0.75; stroke: #ffffff; stroke-width: 0.724675; stroke-linejoin: miter"/>
   </g>
   <g id="patch_74">
    <path d="M 168.872222 224.81375 
L 176.118975 224.81375 
L 176.118975 223.043918 
L 168.872222 223.043918 
z
" clip-path="url(#p4f52435165)" style="fill: #36ada4; fill-opacity: 0.75; stroke: #ffffff; stroke-width: 0.724675; stroke-linejoin: miter"/>
   </g>
   <g id="patch_75">
    <path d="M 176.118975 221.274085 
L 183.365728 221.274085 
L 183.365728 219.504253 
L 176.118975 219.504253 
z
" clip-path="url(#p4f52435165)" style="fill: #36ada4; fill-opacity: 0.75; stroke: #ffffff; stroke-width: 0.724675; stroke-linejoin: miter"/>
   </g>
   <g id="patch_76">
    <path d="M 183.365728 219.504253 
L 190.612482 219.504253 
L 190.612482 218.619337 
L 183.365728 218.619337 
z
" clip-path="url(#p4f52435165)" style="fill: #36ada4; fill-opacity: 0.75; stroke: #ffffff; stroke-width: 0.724675; stroke-linejoin: miter"/>
   </g>
   <g id="patch_77">
    <path d="M 190.612482 218.619337 
L 197.859235 218.619337 
L 197.859235 218.619337 
L 190.612482 218.619337 
z
" clip-path="url(#p4f52435165)" style="fill: #36ada4; fill-opacity: 0.75; stroke: #ffffff; stroke-width: 0.724675; stroke-linejoin: miter"/>
   </g>
   <g id="patch_78">
    <path d="M 197.859235 219.504253 
L 205.105988 219.504253 
L 205.105988 217.73442 
L 197.859235 217.73442 
z
" clip-path="url(#p4f52435165)" style="fill: #36ada4; fill-opacity: 0.75; stroke: #ffffff; stroke-width: 0.724675; stroke-linejoin: miter"/>
   </g>
   <g id="patch_79">
    <path d="M 205.105988 222.159001 
L 212.352741 222.159001 
L 212.352741 221.274085 
L 205.105988 221.274085 
z
" clip-path="url(#p4f52435165)" style="fill: #36ada4; fill-opacity: 0.75; stroke: #ffffff; stroke-width: 0.724675; stroke-linejoin: miter"/>
   </g>
   <g id="patch_80">
    <path d="M 212.352741 222.159001 
L 219.599495 222.159001 
L 219.599495 222.159001 
L 212.352741 222.159001 
z
" clip-path="url(#p4f52435165)" style="fill: #36ada4; fill-opacity: 0.75; stroke: #ffffff; stroke-width: 0.724675; stroke-linejoin: miter"/>
   </g>
   <g id="patch_81">
    <path d="M 219.599495 223.043918 
L 226.846248 223.043918 
L 226.846248 223.043918 
L 219.599495 223.043918 
z
" clip-path="url(#p4f52435165)" style="fill: #36ada4; fill-opacity: 0.75; stroke: #ffffff; stroke-width: 0.724675; stroke-linejoin: miter"/>
   </g>
   <g id="patch_82">
    <path d="M 226.846248 223.928834 
L 234.093001 223.928834 
L 234.093001 223.043918 
L 226.846248 223.043918 
z
" clip-path="url(#p4f52435165)" style="fill: #36ada4; fill-opacity: 0.75; stroke: #ffffff; stroke-width: 0.724675; stroke-linejoin: miter"/>
   </g>
   <g id="patch_83">
    <path d="M 234.093001 224.81375 
L 241.339754 224.81375 
L 241.339754 224.81375 
L 234.093001 224.81375 
z
" clip-path="url(#p4f52435165)" style="fill: #36ada4; fill-opacity: 0.75; stroke: #ffffff; stroke-width: 0.724675; stroke-linejoin: miter"/>
   </g>
   <g id="patch_84">
    <path d="M 241.339754 223.928834 
L 248.586508 223.928834 
L 248.586508 223.928834 
L 241.339754 223.928834 
z
" clip-path="url(#p4f52435165)" style="fill: #36ada4; fill-opacity: 0.75; stroke: #ffffff; stroke-width: 0.724675; stroke-linejoin: miter"/>
   </g>
   <g id="patch_85">
    <path d="M 248.586508 224.81375 
L 255.833261 224.81375 
L 255.833261 224.81375 
L 248.586508 224.81375 
z
" clip-path="url(#p4f52435165)" style="fill: #36ada4; fill-opacity: 0.75; stroke: #ffffff; stroke-width: 0.724675; stroke-linejoin: miter"/>
   </g>
   <g id="patch_86">
    <path d="M 255.833261 223.928834 
L 263.080014 223.928834 
L 263.080014 223.928834 
L 255.833261 223.928834 
z
" clip-path="url(#p4f52435165)" style="fill: #36ada4; fill-opacity: 0.75; stroke: #ffffff; stroke-width: 0.724675; stroke-linejoin: miter"/>
   </g>
   <g id="patch_87">
    <path d="M 60.170923 223.928834 
L 67.417677 223.928834 
L 67.417677 223.928834 
L 60.170923 223.928834 
z
" clip-path="url(#p4f52435165)" style="fill: #50b131; fill-opacity: 0.75; stroke: #ffffff; stroke-width: 0.724675; stroke-linejoin: miter"/>
   </g>
   <g id="patch_88">
    <path d="M 67.417677 217.73442 
L 74.66443 217.73442 
L 74.66443 214.194756 
L 67.417677 214.194756 
z
" clip-path="url(#p4f52435165)" style="fill: #50b131; fill-opacity: 0.75; stroke: #ffffff; stroke-width: 0.724675; stroke-linejoin: miter"/>
   </g>
   <g id="patch_89">
    <path d="M 74.66443 208.000342 
L 81.911183 208.000342 
L 81.911183 200.036096 
L 74.66443 200.036096 
z
" clip-path="url(#p4f52435165)" style="fill: #50b131; fill-opacity: 0.75; stroke: #ffffff; stroke-width: 0.724675; stroke-linejoin: miter"/>
   </g>
   <g id="patch_90">
    <path d="M 81.911183 171.718778 
L 89.157936 171.718778 
L 89.157936 155.790286 
L 81.911183 155.790286 
z
" clip-path="url(#p4f52435165)" style="fill: #50b131; fill-opacity: 0.75; stroke: #ffffff; stroke-width: 0.724675; stroke-linejoin: miter"/>
   </g>
   <g id="patch_91">
    <path d="M 89.157936 122.163471 
L 96.40469 122.163471 
L 96.40469 107.119895 
L 89.157936 107.119895 
z
" clip-path="url(#p4f52435165)" style="fill: #50b131; fill-opacity: 0.75; stroke: #ffffff; stroke-width: 0.724675; stroke-linejoin: miter"/>
   </g>
   <g id="patch_92">
    <path d="M 96.40469 141.631627 
L 103.651443 141.631627 
L 103.651443 108.889728 
L 96.40469 108.889728 
z
" clip-path="url(#p4f52435165)" style="fill: #50b131; fill-opacity: 0.75; stroke: #ffffff; stroke-width: 0.724675; stroke-linejoin: miter"/>
   </g>
   <g id="patch_93">
    <path d="M 103.651443 183.222689 
L 110.898196 183.222689 
L 110.898196 162.869616 
L 103.651443 162.869616 
z
" clip-path="url(#p4f52435165)" style="fill: #50b131; fill-opacity: 0.75; stroke: #ffffff; stroke-width: 0.724675; stroke-linejoin: miter"/>
   </g>
   <g id="patch_94">
    <path d="M 110.898196 187.64727 
L 118.144949 187.64727 
L 118.144949 177.028275 
L 110.898196 177.028275 
z
" clip-path="url(#p4f52435165)" style="fill: #50b131; fill-opacity: 0.75; stroke: #ffffff; stroke-width: 0.724675; stroke-linejoin: miter"/>
   </g>
   <g id="patch_95">
    <path d="M 118.144949 200.921013 
L 125.391703 200.921013 
L 125.391703 190.302018 
L 118.144949 190.302018 
z
" clip-path="url(#p4f52435165)" style="fill: #50b131; fill-opacity: 0.75; stroke: #ffffff; stroke-width: 0.724675; stroke-linejoin: miter"/>
   </g>
   <g id="patch_96">
    <path d="M 125.391703 208.885258 
L 132.638456 208.885258 
L 132.638456 200.921013 
L 125.391703 200.921013 
z
" clip-path="url(#p4f52435165)" style="fill: #50b131; fill-opacity: 0.75; stroke: #ffffff; stroke-width: 0.724675; stroke-linejoin: miter"/>
   </g>
   <g id="patch_97">
    <path d="M 132.638456 214.194756 
L 139.885209 214.194756 
L 139.885209 209.770175 
L 132.638456 209.770175 
z
" clip-path="url(#p4f52435165)" style="fill: #50b131; fill-opacity: 0.75; stroke: #ffffff; stroke-width: 0.724675; stroke-linejoin: miter"/>
   </g>
   <g id="patch_98">
    <path d="M 139.885209 211.540007 
L 147.131962 211.540007 
L 147.131962 208.885258 
L 139.885209 208.885258 
z
" clip-path="url(#p4f52435165)" style="fill: #50b131; fill-opacity: 0.75; stroke: #ffffff; stroke-width: 0.724675; stroke-linejoin: miter"/>
   </g>
   <g id="patch_99">
    <path d="M 147.131962 217.73442 
L 154.378716 217.73442 
L 154.378716 213.309839 
L 147.131962 213.309839 
z
" clip-path="url(#p4f52435165)" style="fill: #50b131; fill-opacity: 0.75; stroke: #ffffff; stroke-width: 0.724675; stroke-linejoin: miter"/>
   </g>
   <g id="patch_100">
    <path d="M 154.378716 210.655091 
L 161.625469 210.655091 
L 161.625469 208.000342 
L 154.378716 208.000342 
z
" clip-path="url(#p4f52435165)" style="fill: #50b131; fill-opacity: 0.75; stroke: #ffffff; stroke-width: 0.724675; stroke-linejoin: miter"/>
   </g>
   <g id="patch_101">
    <path d="M 161.625469 212.424923 
L 168.872222 212.424923 
L 168.872222 207.115426 
L 161.625469 207.115426 
z
" clip-path="url(#p4f52435165)" style="fill: #50b131; fill-opacity: 0.75; stroke: #ffffff; stroke-width: 0.724675; stroke-linejoin: miter"/>
   </g>
   <g id="patch_102">
    <path d="M 168.872222 223.043918 
L 176.118975 223.043918 
L 176.118975 223.043918 
L 168.872222 223.043918 
z
" clip-path="url(#p4f52435165)" style="fill: #50b131; fill-opacity: 0.75; stroke: #ffffff; stroke-width: 0.724675; stroke-linejoin: miter"/>
   </g>
   <g id="patch_103">
    <path d="M 176.118975 219.504253 
L 183.365728 219.504253 
L 183.365728 218.619337 
L 176.118975 218.619337 
z
" clip-path="url(#p4f52435165)" style="fill: #50b131; fill-opacity: 0.75; stroke: #ffffff; stroke-width: 0.724675; stroke-linejoin: miter"/>
   </g>
   <g id="patch_104">
    <path d="M 183.365728 218.619337 
L 190.612482 218.619337 
L 190.612482 214.194756 
L 183.365728 214.194756 
z
" clip-path="url(#p4f52435165)" style="fill: #50b131; fill-opacity: 0.75; stroke: #ffffff; stroke-width: 0.724675; stroke-linejoin: miter"/>
   </g>
   <g id="patch_105">
    <path d="M 190.612482 218.619337 
L 197.859235 218.619337 
L 197.859235 217.73442 
L 190.612482 217.73442 
z
" clip-path="url(#p4f52435165)" style="fill: #50b131; fill-opacity: 0.75; stroke: #ffffff; stroke-width: 0.724675; stroke-linejoin: miter"/>
   </g>
   <g id="patch_106">
    <path d="M 197.859235 217.73442 
L 205.105988 217.73442 
L 205.105988 216.849504 
L 197.859235 216.849504 
z
" clip-path="url(#p4f52435165)" style="fill: #50b131; fill-opacity: 0.75; stroke: #ffffff; stroke-width: 0.724675; stroke-linejoin: miter"/>
   </g>
   <g id="patch_107">
    <path d="M 205.105988 221.274085 
L 212.352741 221.274085 
L 212.352741 219.504253 
L 205.105988 219.504253 
z
" clip-path="url(#p4f52435165)" style="fill: #50b131; fill-opacity: 0.75; stroke: #ffffff; stroke-width: 0.724675; stroke-linejoin: miter"/>
   </g>
   <g id="patch_108">
    <path d="M 212.352741 222.159001 
L 219.599495 222.159001 
L 219.599495 219.504253 
L 212.352741 219.504253 
z
" clip-path="url(#p4f52435165)" style="fill: #50b131; fill-opacity: 0.75; stroke: #ffffff; stroke-width: 0.724675; stroke-linejoin: miter"/>
   </g>
   <g id="patch_109">
    <path d="M 219.599495 223.043918 
L 226.846248 223.043918 
L 226.846248 222.159001 
L 219.599495 222.159001 
z
" clip-path="url(#p4f52435165)" style="fill: #50b131; fill-opacity: 0.75; stroke: #ffffff; stroke-width: 0.724675; stroke-linejoin: miter"/>
   </g>
   <g id="patch_110">
    <path d="M 226.846248 223.043918 
L 234.093001 223.043918 
L 234.093001 223.043918 
L 226.846248 223.043918 
z
" clip-path="url(#p4f52435165)" style="fill: #50b131; fill-opacity: 0.75; stroke: #ffffff; stroke-width: 0.724675; stroke-linejoin: miter"/>
   </g>
   <g id="patch_111">
    <path d="M 234.093001 224.81375 
L 241.339754 224.81375 
L 241.339754 223.928834 
L 234.093001 223.928834 
z
" clip-path="url(#p4f52435165)" style="fill: #50b131; fill-opacity: 0.75; stroke: #ffffff; stroke-width: 0.724675; stroke-linejoin: miter"/>
   </g>
   <g id="patch_112">
    <path d="M 241.339754 223.928834 
L 248.586508 223.928834 
L 248.586508 223.043918 
L 241.339754 223.043918 
z
" clip-path="url(#p4f52435165)" style="fill: #50b131; fill-opacity: 0.75; stroke: #ffffff; stroke-width: 0.724675; stroke-linejoin: miter"/>
   </g>
   <g id="patch_113">
    <path d="M 248.586508 224.81375 
L 255.833261 224.81375 
L 255.833261 224.81375 
L 248.586508 224.81375 
z
" clip-path="url(#p4f52435165)" style="fill: #50b131; fill-opacity: 0.75; stroke: #ffffff; stroke-width: 0.724675; stroke-linejoin: miter"/>
   </g>
   <g id="patch_114">
    <path d="M 255.833261 223.928834 
L 263.080014 223.928834 
L 263.080014 223.043918 
L 255.833261 223.043918 
z
" clip-path="url(#p4f52435165)" style="fill: #50b131; fill-opacity: 0.75; stroke: #ffffff; stroke-width: 0.724675; stroke-linejoin: miter"/>
   </g>
   <g id="patch_115">
    <path d="M 60.170923 223.928834 
L 67.417677 223.928834 
L 67.417677 223.043918 
L 60.170923 223.043918 
z
" clip-path="url(#p4f52435165)" style="fill: #bb9832; fill-opacity: 0.75; stroke: #ffffff; stroke-width: 0.724675; stroke-linejoin: miter"/>
   </g>
   <g id="patch_116">
    <path d="M 67.417677 214.194756 
L 74.66443 214.194756 
L 74.66443 214.194756 
L 67.417677 214.194756 
z
" clip-path="url(#p4f52435165)" style="fill: #bb9832; fill-opacity: 0.75; stroke: #ffffff; stroke-width: 0.724675; stroke-linejoin: miter"/>
   </g>
   <g id="patch_117">
    <path d="M 74.66443 200.036096 
L 81.911183 200.036096 
L 81.911183 193.841683 
L 74.66443 193.841683 
z
" clip-path="url(#p4f52435165)" style="fill: #bb9832; fill-opacity: 0.75; stroke: #ffffff; stroke-width: 0.724675; stroke-linejoin: miter"/>
   </g>
   <g id="patch_118">
    <path d="M 81.911183 155.790286 
L 89.157936 155.790286 
L 89.157936 135.437214 
L 81.911183 135.437214 
z
" clip-path="url(#p4f52435165)" style="fill: #bb9832; fill-opacity: 0.75; stroke: #ffffff; stroke-width: 0.724675; stroke-linejoin: miter"/>
   </g>
   <g id="patch_119">
    <path d="M 89.157936 107.119895 
L 96.40469 107.119895 
L 96.40469 76.147828 
L 89.157936 76.147828 
z
" clip-path="url(#p4f52435165)" style="fill: #bb9832; fill-opacity: 0.75; stroke: #ffffff; stroke-width: 0.724675; stroke-linejoin: miter"/>
   </g>
   <g id="patch_120">
    <path d="M 96.40469 108.889728 
L 103.651443 108.889728 
L 103.651443 80.572409 
L 96.40469 80.572409 
z
" clip-path="url(#p4f52435165)" style="fill: #bb9832; fill-opacity: 0.75; stroke: #ffffff; stroke-width: 0.724675; stroke-linejoin: miter"/>
   </g>
   <g id="patch_121">
    <path d="M 103.651443 162.869616 
L 110.898196 162.869616 
L 110.898196 149.595873 
L 103.651443 149.595873 
z
" clip-path="url(#p4f52435165)" style="fill: #bb9832; fill-opacity: 0.75; stroke: #ffffff; stroke-width: 0.724675; stroke-linejoin: miter"/>
   </g>
   <g id="patch_122">
    <path d="M 110.898196 177.028275 
L 118.144949 177.028275 
L 118.144949 169.064029 
L 110.898196 169.064029 
z
" clip-path="url(#p4f52435165)" style="fill: #bb9832; fill-opacity: 0.75; stroke: #ffffff; stroke-width: 0.724675; stroke-linejoin: miter"/>
   </g>
   <g id="patch_123">
    <path d="M 118.144949 190.302018 
L 125.391703 190.302018 
L 125.391703 183.222689 
L 118.144949 183.222689 
z
" clip-path="url(#p4f52435165)" style="fill: #bb9832; fill-opacity: 0.75; stroke: #ffffff; stroke-width: 0.724675; stroke-linejoin: miter"/>
   </g>
   <g id="patch_124">
    <path d="M 125.391703 200.921013 
L 132.638456 200.921013 
L 132.638456 197.381348 
L 125.391703 197.381348 
z
" clip-path="url(#p4f52435165)" style="fill: #bb9832; fill-opacity: 0.75; stroke: #ffffff; stroke-width: 0.724675; stroke-linejoin: miter"/>
   </g>
   <g id="patch_125">
    <path d="M 132.638456 209.770175 
L 139.885209 209.770175 
L 139.885209 203.575761 
L 132.638456 203.575761 
z
" clip-path="url(#p4f52435165)" style="fill: #bb9832; fill-opacity: 0.75; stroke: #ffffff; stroke-width: 0.724675; stroke-linejoin: miter"/>
   </g>
   <g id="patch_126">
    <path d="M 139.885209 208.885258 
L 147.131962 208.885258 
L 147.131962 207.115426 
L 139.885209 207.115426 
z
" clip-path="url(#p4f52435165)" style="fill: #bb9832; fill-opacity: 0.75; stroke: #ffffff; stroke-width: 0.724675; stroke-linejoin: miter"/>
   </g>
   <g id="patch_127">
    <path d="M 147.131962 213.309839 
L 154.378716 213.309839 
L 154.378716 208.885258 
L 147.131962 208.885258 
z
" clip-path="url(#p4f52435165)" style="fill: #bb9832; fill-opacity: 0.75; stroke: #ffffff; stroke-width: 0.724675; stroke-linejoin: miter"/>
   </g>
   <g id="patch_128">
    <path d="M 154.378716 208.000342 
L 161.625469 208.000342 
L 161.625469 203.575761 
L 154.378716 203.575761 
z
" clip-path="url(#p4f52435165)" style="fill: #bb9832; fill-opacity: 0.75; stroke: #ffffff; stroke-width: 0.724675; stroke-linejoin: miter"/>
   </g>
   <g id="patch_129">
    <path d="M 161.625469 207.115426 
L 168.872222 207.115426 
L 168.872222 206.23051 
L 161.625469 206.23051 
z
" clip-path="url(#p4f52435165)" style="fill: #bb9832; fill-opacity: 0.75; stroke: #ffffff; stroke-width: 0.724675; stroke-linejoin: miter"/>
   </g>
   <g id="patch_130">
    <path d="M 168.872222 223.043918 
L 176.118975 223.043918 
L 176.118975 221.274085 
L 168.872222 221.274085 
z
" clip-path="url(#p4f52435165)" style="fill: #bb9832; fill-opacity: 0.75; stroke: #ffffff; stroke-width: 0.724675; stroke-linejoin: miter"/>
   </g>
   <g id="patch_131">
    <path d="M 176.118975 218.619337 
L 183.365728 218.619337 
L 183.365728 212.424923 
L 176.118975 212.424923 
z
" clip-path="url(#p4f52435165)" style="fill: #bb9832; fill-opacity: 0.75; stroke: #ffffff; stroke-width: 0.724675; stroke-linejoin: miter"/>
   </g>
   <g id="patch_132">
    <path d="M 183.365728 214.194756 
L 190.612482 214.194756 
L 190.612482 212.424923 
L 183.365728 212.424923 
z
" clip-path="url(#p4f52435165)" style="fill: #bb9832; fill-opacity: 0.75; stroke: #ffffff; stroke-width: 0.724675; stroke-linejoin: miter"/>
   </g>
   <g id="patch_133">
    <path d="M 190.612482 217.73442 
L 197.859235 217.73442 
L 197.859235 215.079672 
L 190.612482 215.079672 
z
" clip-path="url(#p4f52435165)" style="fill: #bb9832; fill-opacity: 0.75; stroke: #ffffff; stroke-width: 0.724675; stroke-linejoin: miter"/>
   </g>
   <g id="patch_134">
    <path d="M 197.859235 216.849504 
L 205.105988 216.849504 
L 205.105988 215.964588 
L 197.859235 215.964588 
z
" clip-path="url(#p4f52435165)" style="fill: #bb9832; fill-opacity: 0.75; stroke: #ffffff; stroke-width: 0.724675; stroke-linejoin: miter"/>
   </g>
   <g id="patch_135">
    <path d="M 205.105988 219.504253 
L 212.352741 219.504253 
L 212.352741 217.73442 
L 205.105988 217.73442 
z
" clip-path="url(#p4f52435165)" style="fill: #bb9832; fill-opacity: 0.75; stroke: #ffffff; stroke-width: 0.724675; stroke-linejoin: miter"/>
   </g>
   <g id="patch_136">
    <path d="M 212.352741 219.504253 
L 219.599495 219.504253 
L 219.599495 217.73442 
L 212.352741 217.73442 
z
" clip-path="url(#p4f52435165)" style="fill: #bb9832; fill-opacity: 0.75; stroke: #ffffff; stroke-width: 0.724675; stroke-linejoin: miter"/>
   </g>
   <g id="patch_137">
    <path d="M 219.599495 222.159001 
L 226.846248 222.159001 
L 226.846248 219.504253 
L 219.599495 219.504253 
z
" clip-path="url(#p4f52435165)" style="fill: #bb9832; fill-opacity: 0.75; stroke: #ffffff; stroke-width: 0.724675; stroke-linejoin: miter"/>
   </g>
   <g id="patch_138">
    <path d="M 226.846248 223.043918 
L 234.093001 223.043918 
L 234.093001 222.159001 
L 226.846248 222.159001 
z
" clip-path="url(#p4f52435165)" style="fill: #bb9832; fill-opacity: 0.75; stroke: #ffffff; stroke-width: 0.724675; stroke-linejoin: miter"/>
   </g>
   <g id="patch_139">
    <path d="M 234.093001 223.928834 
L 241.339754 223.928834 
L 241.339754 223.043918 
L 234.093001 223.043918 
z
" clip-path="url(#p4f52435165)" style="fill: #bb9832; fill-opacity: 0.75; stroke: #ffffff; stroke-width: 0.724675; stroke-linejoin: miter"/>
   </g>
   <g id="patch_140">
    <path d="M 241.339754 223.043918 
L 248.586508 223.043918 
L 248.586508 223.043918 
L 241.339754 223.043918 
z
" clip-path="url(#p4f52435165)" style="fill: #bb9832; fill-opacity: 0.75; stroke: #ffffff; stroke-width: 0.724675; stroke-linejoin: miter"/>
   </g>
   <g id="patch_141">
    <path d="M 248.586508 224.81375 
L 255.833261 224.81375 
L 255.833261 223.928834 
L 248.586508 223.928834 
z
" clip-path="url(#p4f52435165)" style="fill: #bb9832; fill-opacity: 0.75; stroke: #ffffff; stroke-width: 0.724675; stroke-linejoin: miter"/>
   </g>
   <g id="patch_142">
    <path d="M 255.833261 223.043918 
L 263.080014 223.043918 
L 263.080014 222.159001 
L 255.833261 222.159001 
z
" clip-path="url(#p4f52435165)" style="fill: #bb9832; fill-opacity: 0.75; stroke: #ffffff; stroke-width: 0.724675; stroke-linejoin: miter"/>
   </g>
   <g id="patch_143">
    <path d="M 60.170923 223.043918 
L 67.417677 223.043918 
L 67.417677 220.389169 
L 60.170923 220.389169 
z
" clip-path="url(#p4f52435165)" style="fill: #f77189; fill-opacity: 0.75; stroke: #ffffff; stroke-width: 0.724675; stroke-linejoin: miter"/>
   </g>
   <g id="patch_144">
    <path d="M 67.417677 214.194756 
L 74.66443 214.194756 
L 74.66443 206.23051 
L 67.417677 206.23051 
z
" clip-path="url(#p4f52435165)" style="fill: #f77189; fill-opacity: 0.75; stroke: #ffffff; stroke-width: 0.724675; stroke-linejoin: miter"/>
   </g>
   <g id="patch_145">
    <path d="M 74.66443 193.841683 
L 81.911183 193.841683 
L 81.911183 182.337772 
L 74.66443 182.337772 
z
" clip-path="url(#p4f52435165)" style="fill: #f77189; fill-opacity: 0.75; stroke: #ffffff; stroke-width: 0.724675; stroke-linejoin: miter"/>
   </g>
   <g id="patch_146">
    <path d="M 81.911183 135.437214 
L 89.157936 135.437214 
L 89.157936 132.782465 
L 81.911183 132.782465 
z
" clip-path="url(#p4f52435165)" style="fill: #f77189; fill-opacity: 0.75; stroke: #ffffff; stroke-width: 0.724675; stroke-linejoin: miter"/>
   </g>
   <g id="patch_147">
    <path d="M 89.157936 76.147828 
L 96.40469 76.147828 
L 96.40469 66.41375 
L 89.157936 66.41375 
z
" clip-path="url(#p4f52435165)" style="fill: #f77189; fill-opacity: 0.75; stroke: #ffffff; stroke-width: 0.724675; stroke-linejoin: miter"/>
   </g>
   <g id="patch_148">
    <path d="M 96.40469 80.572409 
L 103.651443 80.572409 
L 103.651443 68.183582 
L 96.40469 68.183582 
z
" clip-path="url(#p4f52435165)" style="fill: #f77189; fill-opacity: 0.75; stroke: #ffffff; stroke-width: 0.724675; stroke-linejoin: miter"/>
   </g>
   <g id="patch_149">
    <path d="M 103.651443 149.595873 
L 110.898196 149.595873 
L 110.898196 132.782465 
L 103.651443 132.782465 
z
" clip-path="url(#p4f52435165)" style="fill: #f77189; fill-opacity: 0.75; stroke: #ffffff; stroke-width: 0.724675; stroke-linejoin: miter"/>
   </g>
   <g id="patch_150">
    <path d="M 110.898196 169.064029 
L 118.144949 169.064029 
L 118.144949 154.020454 
L 110.898196 154.020454 
z
" clip-path="url(#p4f52435165)" style="fill: #f77189; fill-opacity: 0.75; stroke: #ffffff; stroke-width: 0.724675; stroke-linejoin: miter"/>
   </g>
   <g id="patch_151">
    <path d="M 118.144949 183.222689 
L 125.391703 183.222689 
L 125.391703 170.833862 
L 118.144949 170.833862 
z
" clip-path="url(#p4f52435165)" style="fill: #f77189; fill-opacity: 0.75; stroke: #ffffff; stroke-width: 0.724675; stroke-linejoin: miter"/>
   </g>
   <g id="patch_152">
    <path d="M 125.391703 197.381348 
L 132.638456 197.381348 
L 132.638456 187.64727 
L 125.391703 187.64727 
z
" clip-path="url(#p4f52435165)" style="fill: #f77189; fill-opacity: 0.75; stroke: #ffffff; stroke-width: 0.724675; stroke-linejoin: miter"/>
   </g>
   <g id="patch_153">
    <path d="M 132.638456 203.575761 
L 139.885209 203.575761 
L 139.885209 198.266264 
L 132.638456 198.266264 
z
" clip-path="url(#p4f52435165)" style="fill: #f77189; fill-opacity: 0.75; stroke: #ffffff; stroke-width: 0.724675; stroke-linejoin: miter"/>
   </g>
   <g id="patch_154">
    <path d="M 139.885209 207.115426 
L 147.131962 207.115426 
L 147.131962 196.496432 
L 139.885209 196.496432 
z
" clip-path="url(#p4f52435165)" style="fill: #f77189; fill-opacity: 0.75; stroke: #ffffff; stroke-width: 0.724675; stroke-linejoin: miter"/>
   </g>
   <g id="patch_155">
    <path d="M 147.131962 208.885258 
L 154.378716 208.885258 
L 154.378716 204.460677 
L 147.131962 204.460677 
z
" clip-path="url(#p4f52435165)" style="fill: #f77189; fill-opacity: 0.75; stroke: #ffffff; stroke-width: 0.724675; stroke-linejoin: miter"/>
   </g>
   <g id="patch_156">
    <path d="M 154.378716 203.575761 
L 161.625469 203.575761 
L 161.625469 199.15118 
L 154.378716 199.15118 
z
" clip-path="url(#p4f52435165)" style="fill: #f77189; fill-opacity: 0.75; stroke: #ffffff; stroke-width: 0.724675; stroke-linejoin: miter"/>
   </g>
   <g id="patch_157">
    <path d="M 161.625469 206.23051 
L 168.872222 206.23051 
L 168.872222 202.690845 
L 161.625469 202.690845 
z
" clip-path="url(#p4f52435165)" style="fill: #f77189; fill-opacity: 0.75; stroke: #ffffff; stroke-width: 0.724675; stroke-linejoin: miter"/>
   </g>
   <g id="patch_158">
    <path d="M 168.872222 221.274085 
L 176.118975 221.274085 
L 176.118975 215.964588 
L 168.872222 215.964588 
z
" clip-path="url(#p4f52435165)" style="fill: #f77189; fill-opacity: 0.75; stroke: #ffffff; stroke-width: 0.724675; stroke-linejoin: miter"/>
   </g>
   <g id="patch_159">
    <path d="M 176.118975 212.424923 
L 183.365728 212.424923 
L 183.365728 206.23051 
L 176.118975 206.23051 
z
" clip-path="url(#p4f52435165)" style="fill: #f77189; fill-opacity: 0.75; stroke: #ffffff; stroke-width: 0.724675; stroke-linejoin: miter"/>
   </g>
   <g id="patch_160">
    <path d="M 183.365728 212.424923 
L 190.612482 212.424923 
L 190.612482 211.540007 
L 183.365728 211.540007 
z
" clip-path="url(#p4f52435165)" style="fill: #f77189; fill-opacity: 0.75; stroke: #ffffff; stroke-width: 0.724675; stroke-linejoin: miter"/>
   </g>
   <g id="patch_161">
    <path d="M 190.612482 215.079672 
L 197.859235 215.079672 
L 197.859235 210.655091 
L 190.612482 210.655091 
z
" clip-path="url(#p4f52435165)" style="fill: #f77189; fill-opacity: 0.75; stroke: #ffffff; stroke-width: 0.724675; stroke-linejoin: miter"/>
   </g>
   <g id="patch_162">
    <path d="M 197.859235 215.964588 
L 205.105988 215.964588 
L 205.105988 210.655091 
L 197.859235 210.655091 
z
" clip-path="url(#p4f52435165)" style="fill: #f77189; fill-opacity: 0.75; stroke: #ffffff; stroke-width: 0.724675; stroke-linejoin: miter"/>
   </g>
   <g id="patch_163">
    <path d="M 205.105988 217.73442 
L 212.352741 217.73442 
L 212.352741 216.849504 
L 205.105988 216.849504 
z
" clip-path="url(#p4f52435165)" style="fill: #f77189; fill-opacity: 0.75; stroke: #ffffff; stroke-width: 0.724675; stroke-linejoin: miter"/>
   </g>
   <g id="patch_164">
    <path d="M 212.352741 217.73442 
L 219.599495 217.73442 
L 219.599495 216.849504 
L 212.352741 216.849504 
z
" clip-path="url(#p4f52435165)" style="fill: #f77189; fill-opacity: 0.75; stroke: #ffffff; stroke-width: 0.724675; stroke-linejoin: miter"/>
   </g>
   <g id="patch_165">
    <path d="M 219.599495 219.504253 
L 226.846248 219.504253 
L 226.846248 218.619337 
L 219.599495 218.619337 
z
" clip-path="url(#p4f52435165)" style="fill: #f77189; fill-opacity: 0.75; stroke: #ffffff; stroke-width: 0.724675; stroke-linejoin: miter"/>
   </g>
   <g id="patch_166">
    <path d="M 226.846248 222.159001 
L 234.093001 222.159001 
L 234.093001 222.159001 
L 226.846248 222.159001 
z
" clip-path="url(#p4f52435165)" style="fill: #f77189; fill-opacity: 0.75; stroke: #ffffff; stroke-width: 0.724675; stroke-linejoin: miter"/>
   </g>
   <g id="patch_167">
    <path d="M 234.093001 223.043918 
L 241.339754 223.043918 
L 241.339754 221.274085 
L 234.093001 221.274085 
z
" clip-path="url(#p4f52435165)" style="fill: #f77189; fill-opacity: 0.75; stroke: #ffffff; stroke-width: 0.724675; stroke-linejoin: miter"/>
   </g>
   <g id="patch_168">
    <path d="M 241.339754 223.043918 
L 248.586508 223.043918 
L 248.586508 223.043918 
L 241.339754 223.043918 
z
" clip-path="url(#p4f52435165)" style="fill: #f77189; fill-opacity: 0.75; stroke: #ffffff; stroke-width: 0.724675; stroke-linejoin: miter"/>
   </g>
   <g id="patch_169">
    <path d="M 248.586508 223.928834 
L 255.833261 223.928834 
L 255.833261 222.159001 
L 248.586508 222.159001 
z
" clip-path="url(#p4f52435165)" style="fill: #f77189; fill-opacity: 0.75; stroke: #ffffff; stroke-width: 0.724675; stroke-linejoin: miter"/>
   </g>
   <g id="patch_170">
    <path d="M 255.833261 222.159001 
L 263.080014 222.159001 
L 263.080014 220.389169 
L 255.833261 220.389169 
z
" clip-path="url(#p4f52435165)" style="fill: #f77189; fill-opacity: 0.75; stroke: #ffffff; stroke-width: 0.724675; stroke-linejoin: miter"/>
   </g>
   <g id="patch_171">
    <path d="M 50.025469 224.81375 
L 50.025469 58.49375 
" style="fill: none; stroke: #000000; stroke-width: 1.25; stroke-linejoin: miter; stroke-linecap: square"/>
   </g>
   <g id="patch_172">
    <path d="M 273.225469 224.81375 
L 273.225469 58.49375 
" style="fill: none; stroke: #000000; stroke-width: 1.25; stroke-linejoin: miter; stroke-linecap: square"/>
   </g>
   <g id="patch_173">
    <path d="M 50.025469 224.81375 
L 273.225469 224.81375 
" style="fill: none; stroke: #000000; stroke-width: 1.25; stroke-linejoin: miter; stroke-linecap: square"/>
   </g>
   <g id="patch_174">
    <path d="M 50.025469 58.49375 
L 273.225469 58.49375 
" style="fill: none; stroke: #000000; stroke-width: 1.25; stroke-linejoin: miter; stroke-linecap: square"/>
   </g>
   <g id="legend_1">
    <g id="text_12">
     <!-- Helper Lipid Choice -->
     <g style="fill: #262626" transform="translate(126.719219 17.42375) scale(0.08 -0.08)">
      <defs>
       <path id="ArialMT-48" d="M 513 0 
L 513 4581 
L 1119 4581 
L 1119 2700 
L 3500 2700 
L 3500 4581 
L 4106 4581 
L 4106 0 
L 3500 0 
L 3500 2159 
L 1119 2159 
L 1119 0 
L 513 0 
z
" transform="scale(0.015625)"/>
       <path id="ArialMT-65" d="M 2694 1069 
L 3275 997 
Q 3138 488 2766 206 
Q 2394 -75 1816 -75 
Q 1088 -75 661 373 
Q 234 822 234 1631 
Q 234 2469 665 2931 
Q 1097 3394 1784 3394 
Q 2450 3394 2872 2941 
Q 3294 2488 3294 1666 
Q 3294 1616 3291 1516 
L 816 1516 
Q 847 969 1125 678 
Q 1403 388 1819 388 
Q 2128 388 2347 550 
Q 2566 713 2694 1069 
z
M 847 1978 
L 2700 1978 
Q 2663 2397 2488 2606 
Q 2219 2931 1791 2931 
Q 1403 2931 1139 2672 
Q 875 2413 847 1978 
z
" transform="scale(0.015625)"/>
       <path id="ArialMT-6c" d="M 409 0 
L 409 4581 
L 972 4581 
L 972 0 
L 409 0 
z
" transform="scale(0.015625)"/>
       <path id="ArialMT-70" d="M 422 -1272 
L 422 3319 
L 934 3319 
L 934 2888 
Q 1116 3141 1344 3267 
Q 1572 3394 1897 3394 
Q 2322 3394 2647 3175 
Q 2972 2956 3137 2557 
Q 3303 2159 3303 1684 
Q 3303 1175 3120 767 
Q 2938 359 2589 142 
Q 2241 -75 1856 -75 
Q 1575 -75 1351 44 
Q 1128 163 984 344 
L 984 -1272 
L 422 -1272 
z
M 931 1641 
Q 931 1000 1190 694 
Q 1450 388 1819 388 
Q 2194 388 2461 705 
Q 2728 1022 2728 1688 
Q 2728 2322 2467 2637 
Q 2206 2953 1844 2953 
Q 1484 2953 1207 2617 
Q 931 2281 931 1641 
z
" transform="scale(0.015625)"/>
       <path id="ArialMT-72" d="M 416 0 
L 416 3319 
L 922 3319 
L 922 2816 
Q 1116 3169 1280 3281 
Q 1444 3394 1641 3394 
Q 1925 3394 2219 3213 
L 2025 2691 
Q 1819 2813 1613 2813 
Q 1428 2813 1281 2702 
Q 1134 2591 1072 2394 
Q 978 2094 978 1738 
L 978 0 
L 416 0 
z
" transform="scale(0.015625)"/>
       <path id="ArialMT-20" transform="scale(0.015625)"/>
       <path id="ArialMT-4c" d="M 469 0 
L 469 4581 
L 1075 4581 
L 1075 541 
L 3331 541 
L 3331 0 
L 469 0 
z
" transform="scale(0.015625)"/>
       <path id="ArialMT-69" d="M 425 3934 
L 425 4581 
L 988 4581 
L 988 3934 
L 425 3934 
z
M 425 0 
L 425 3319 
L 988 3319 
L 988 0 
L 425 0 
z
" transform="scale(0.015625)"/>
       <path id="ArialMT-64" d="M 2575 0 
L 2575 419 
Q 2259 -75 1647 -75 
Q 1250 -75 917 144 
Q 584 363 401 755 
Q 219 1147 219 1656 
Q 219 2153 384 2558 
Q 550 2963 881 3178 
Q 1213 3394 1622 3394 
Q 1922 3394 2156 3267 
Q 2391 3141 2538 2938 
L 2538 4581 
L 3097 4581 
L 3097 0 
L 2575 0 
z
M 797 1656 
Q 797 1019 1065 703 
Q 1334 388 1700 388 
Q 2069 388 2326 689 
Q 2584 991 2584 1609 
Q 2584 2291 2321 2609 
Q 2059 2928 1675 2928 
Q 1300 2928 1048 2622 
Q 797 2316 797 1656 
z
" transform="scale(0.015625)"/>
       <path id="ArialMT-68" d="M 422 0 
L 422 4581 
L 984 4581 
L 984 2938 
Q 1378 3394 1978 3394 
Q 2347 3394 2619 3248 
Q 2891 3103 3008 2847 
Q 3125 2591 3125 2103 
L 3125 0 
L 2563 0 
L 2563 2103 
Q 2563 2525 2380 2717 
Q 2197 2909 1863 2909 
Q 1613 2909 1392 2779 
Q 1172 2650 1078 2428 
Q 984 2206 984 1816 
L 984 0 
L 422 0 
z
" transform="scale(0.015625)"/>
       <path id="ArialMT-63" d="M 2588 1216 
L 3141 1144 
Q 3050 572 2676 248 
Q 2303 -75 1759 -75 
Q 1078 -75 664 370 
Q 250 816 250 1647 
Q 250 2184 428 2587 
Q 606 2991 970 3192 
Q 1334 3394 1763 3394 
Q 2303 3394 2647 3120 
Q 2991 2847 3088 2344 
L 2541 2259 
Q 2463 2594 2264 2762 
Q 2066 2931 1784 2931 
Q 1359 2931 1093 2626 
Q 828 2322 828 1663 
Q 828 994 1084 691 
Q 1341 388 1753 388 
Q 2084 388 2306 591 
Q 2528 794 2588 1216 
z
" transform="scale(0.015625)"/>
      </defs>
      <use xlink:href="#ArialMT-48"/>
      <use xlink:href="#ArialMT-65" x="72.216797"/>
      <use xlink:href="#ArialMT-6c" x="127.832031"/>
      <use xlink:href="#ArialMT-70" x="150.048828"/>
      <use xlink:href="#ArialMT-65" x="205.664062"/>
      <use xlink:href="#ArialMT-72" x="261.279297"/>
      <use xlink:href="#ArialMT-20" x="294.580078"/>
      <use xlink:href="#ArialMT-4c" x="322.363281"/>
      <use xlink:href="#ArialMT-69" x="377.978516"/>
      <use xlink:href="#ArialMT-70" x="400.195312"/>
      <use xlink:href="#ArialMT-69" x="455.810547"/>
      <use xlink:href="#ArialMT-64" x="478.027344"/>
      <use xlink:href="#ArialMT-20" x="533.642578"/>
      <use xlink:href="#ArialMT-43" x="561.425781"/>
      <use xlink:href="#ArialMT-68" x="633.642578"/>
      <use xlink:href="#ArialMT-6f" x="689.257812"/>
      <use xlink:href="#ArialMT-69" x="744.873047"/>
      <use xlink:href="#ArialMT-63" x="767.089844"/>
      <use xlink:href="#ArialMT-65" x="817.089844"/>
     </g>
    </g>
    <g id="patch_175">
     <path d="M 57.491094 32.21375 
L 79.491094 32.21375 
L 79.491094 24.51375 
L 57.491094 24.51375 
z
" style="fill: #f77189; fill-opacity: 0.75; stroke: #ffffff; stroke-linejoin: miter"/>
    </g>
    <g id="text_13">
     <!-- 18PG -->
     <g style="fill: #262626" transform="translate(88.291094 32.21375) scale(0.08 -0.08)">
      <defs>
       <path id="ArialMT-47" d="M 2638 1797 
L 2638 2334 
L 4578 2338 
L 4578 638 
Q 4131 281 3656 101 
Q 3181 -78 2681 -78 
Q 2006 -78 1454 211 
Q 903 500 622 1047 
Q 341 1594 341 2269 
Q 341 2938 620 3517 
Q 900 4097 1425 4378 
Q 1950 4659 2634 4659 
Q 3131 4659 3532 4498 
Q 3934 4338 4162 4050 
Q 4391 3763 4509 3300 
L 3963 3150 
Q 3859 3500 3706 3700 
Q 3553 3900 3268 4020 
Q 2984 4141 2638 4141 
Q 2222 4141 1919 4014 
Q 1616 3888 1430 3681 
Q 1244 3475 1141 3228 
Q 966 2803 966 2306 
Q 966 1694 1177 1281 
Q 1388 869 1791 669 
Q 2194 469 2647 469 
Q 3041 469 3416 620 
Q 3791 772 3984 944 
L 3984 1797 
L 2638 1797 
z
" transform="scale(0.015625)"/>
      </defs>
      <use xlink:href="#ArialMT-31"/>
      <use xlink:href="#ArialMT-38" x="55.615234"/>
      <use xlink:href="#ArialMT-50" x="111.230469"/>
      <use xlink:href="#ArialMT-47" x="177.929688"/>
     </g>
    </g>
    <g id="patch_176">
     <path d="M 57.491094 47.00375 
L 79.491094 47.00375 
L 79.491094 39.30375 
L 57.491094 39.30375 
z
" style="fill: #bb9832; fill-opacity: 0.75; stroke: #ffffff; stroke-linejoin: miter"/>
    </g>
    <g id="text_14">
     <!-- DOPE -->
     <g style="fill: #262626" transform="translate(88.291094 47.00375) scale(0.08 -0.08)">
      <defs>
       <path id="ArialMT-4f" d="M 309 2231 
Q 309 3372 921 4017 
Q 1534 4663 2503 4663 
Q 3138 4663 3647 4359 
Q 4156 4056 4423 3514 
Q 4691 2972 4691 2284 
Q 4691 1588 4409 1038 
Q 4128 488 3612 205 
Q 3097 -78 2500 -78 
Q 1853 -78 1343 234 
Q 834 547 571 1087 
Q 309 1628 309 2231 
z
M 934 2222 
Q 934 1394 1379 917 
Q 1825 441 2497 441 
Q 3181 441 3623 922 
Q 4066 1403 4066 2288 
Q 4066 2847 3877 3264 
Q 3688 3681 3323 3911 
Q 2959 4141 2506 4141 
Q 1863 4141 1398 3698 
Q 934 3256 934 2222 
z
" transform="scale(0.015625)"/>
       <path id="ArialMT-45" d="M 506 0 
L 506 4581 
L 3819 4581 
L 3819 4041 
L 1113 4041 
L 1113 2638 
L 3647 2638 
L 3647 2100 
L 1113 2100 
L 1113 541 
L 3925 541 
L 3925 0 
L 506 0 
z
" transform="scale(0.015625)"/>
      </defs>
      <use xlink:href="#ArialMT-44"/>
      <use xlink:href="#ArialMT-4f" x="72.216797"/>
      <use xlink:href="#ArialMT-50" x="150"/>
      <use xlink:href="#ArialMT-45" x="216.699219"/>
     </g>
    </g>
    <g id="patch_177">
     <path d="M 132.963594 32.21375 
L 154.963594 32.21375 
L 154.963594 24.51375 
L 132.963594 24.51375 
z
" style="fill: #50b131; fill-opacity: 0.75; stroke: #ffffff; stroke-linejoin: miter"/>
    </g>
    <g id="text_15">
     <!-- DOTAP -->
     <g style="fill: #262626" transform="translate(163.763594 32.21375) scale(0.08 -0.08)">
      <defs>
       <path id="ArialMT-54" d="M 1659 0 
L 1659 4041 
L 150 4041 
L 150 4581 
L 3781 4581 
L 3781 4041 
L 2266 4041 
L 2266 0 
L 1659 0 
z
" transform="scale(0.015625)"/>
       <path id="ArialMT-41" d="M -9 0 
L 1750 4581 
L 2403 4581 
L 4278 0 
L 3588 0 
L 3053 1388 
L 1138 1388 
L 634 0 
L -9 0 
z
M 1313 1881 
L 2866 1881 
L 2388 3150 
Q 2169 3728 2063 4100 
Q 1975 3659 1816 3225 
L 1313 1881 
z
" transform="scale(0.015625)"/>
      </defs>
      <use xlink:href="#ArialMT-44"/>
      <use xlink:href="#ArialMT-4f" x="72.216797"/>
      <use xlink:href="#ArialMT-54" x="150"/>
      <use xlink:href="#ArialMT-41" x="203.708984"/>
      <use xlink:href="#ArialMT-50" x="270.408203"/>
     </g>
    </g>
    <g id="patch_178">
     <path d="M 132.963594 47.00375 
L 154.963594 47.00375 
L 154.963594 39.30375 
L 132.963594 39.30375 
z
" style="fill: #36ada4; fill-opacity: 0.75; stroke: #ffffff; stroke-linejoin: miter"/>
    </g>
    <g id="text_16">
     <!-- DSPC -->
     <g style="fill: #262626" transform="translate(163.763594 47.00375) scale(0.08 -0.08)">
      <defs>
       <path id="ArialMT-53" d="M 288 1472 
L 859 1522 
Q 900 1178 1048 958 
Q 1197 738 1509 602 
Q 1822 466 2213 466 
Q 2559 466 2825 569 
Q 3091 672 3220 851 
Q 3350 1031 3350 1244 
Q 3350 1459 3225 1620 
Q 3100 1781 2813 1891 
Q 2628 1963 1997 2114 
Q 1366 2266 1113 2400 
Q 784 2572 623 2826 
Q 463 3081 463 3397 
Q 463 3744 659 4045 
Q 856 4347 1234 4503 
Q 1613 4659 2075 4659 
Q 2584 4659 2973 4495 
Q 3363 4331 3572 4012 
Q 3781 3694 3797 3291 
L 3216 3247 
Q 3169 3681 2898 3903 
Q 2628 4125 2100 4125 
Q 1550 4125 1298 3923 
Q 1047 3722 1047 3438 
Q 1047 3191 1225 3031 
Q 1400 2872 2139 2705 
Q 2878 2538 3153 2413 
Q 3553 2228 3743 1945 
Q 3934 1663 3934 1294 
Q 3934 928 3725 604 
Q 3516 281 3123 101 
Q 2731 -78 2241 -78 
Q 1619 -78 1198 103 
Q 778 284 539 648 
Q 300 1013 288 1472 
z
" transform="scale(0.015625)"/>
      </defs>
      <use xlink:href="#ArialMT-44"/>
      <use xlink:href="#ArialMT-53" x="72.216797"/>
      <use xlink:href="#ArialMT-50" x="138.916016"/>
      <use xlink:href="#ArialMT-43" x="205.615234"/>
     </g>
    </g>
    <g id="patch_179">
     <path d="M 212.732344 32.21375 
L 234.732344 32.21375 
L 234.732344 24.51375 
L 212.732344 24.51375 
z
" style="fill: #3ba3ec; fill-opacity: 0.75; stroke: #ffffff; stroke-linejoin: miter"/>
    </g>
    <g id="text_17">
     <!-- 14PA -->
     <g style="fill: #262626" transform="translate(243.532344 32.21375) scale(0.08 -0.08)">
      <use xlink:href="#ArialMT-31"/>
      <use xlink:href="#ArialMT-34" x="55.615234"/>
      <use xlink:href="#ArialMT-50" x="111.230469"/>
      <use xlink:href="#ArialMT-41" x="170.554688"/>
     </g>
    </g>
    <g id="patch_180">
     <path d="M 212.732344 47.00375 
L 234.732344 47.00375 
L 234.732344 39.30375 
L 212.732344 39.30375 
z
" style="fill: #e866f4; fill-opacity: 0.75; stroke: #ffffff; stroke-linejoin: miter"/>
    </g>
    <g id="text_18">
     <!-- DDAB -->
     <g style="fill: #262626" transform="translate(243.532344 47.00375) scale(0.08 -0.08)">
      <defs>
       <path id="ArialMT-42" d="M 469 0 
L 469 4581 
L 2188 4581 
Q 2713 4581 3030 4442 
Q 3347 4303 3526 4014 
Q 3706 3725 3706 3409 
Q 3706 3116 3547 2856 
Q 3388 2597 3066 2438 
Q 3481 2316 3704 2022 
Q 3928 1728 3928 1328 
Q 3928 1006 3792 729 
Q 3656 453 3456 303 
Q 3256 153 2954 76 
Q 2653 0 2216 0 
L 469 0 
z
M 1075 2656 
L 2066 2656 
Q 2469 2656 2644 2709 
Q 2875 2778 2992 2937 
Q 3109 3097 3109 3338 
Q 3109 3566 3000 3739 
Q 2891 3913 2687 3977 
Q 2484 4041 1991 4041 
L 1075 4041 
L 1075 2656 
z
M 1075 541 
L 2216 541 
Q 2509 541 2628 563 
Q 2838 600 2978 687 
Q 3119 775 3209 942 
Q 3300 1109 3300 1328 
Q 3300 1584 3169 1773 
Q 3038 1963 2805 2039 
Q 2572 2116 2134 2116 
L 1075 2116 
L 1075 541 
z
" transform="scale(0.015625)"/>
      </defs>
      <use xlink:href="#ArialMT-44"/>
      <use xlink:href="#ArialMT-44" x="72.216797"/>
      <use xlink:href="#ArialMT-41" x="144.433594"/>
      <use xlink:href="#ArialMT-42" x="211.132812"/>
     </g>
    </g>
   </g>
  </g>
 </g>
 <defs>
  <clipPath id="p4f52435165">
   <rect x="50.025469" y="58.49375" width="223.2" height="166.32"/>
  </clipPath>
 </defs>
</svg>
