<?xml version="1.0" encoding="utf-8" standalone="no"?>
<!DOCTYPE svg PUBLIC "-//W3C//DTD SVG 1.1//EN"
  "http://www.w3.org/Graphics/SVG/1.1/DTD/svg11.dtd">
<svg xmlns:xlink="http://www.w3.org/1999/xlink" width="224.579207pt" height="225.270937pt" viewBox="0 0 224.579207 225.270937" xmlns="http://www.w3.org/2000/svg" version="1.1">
 <metadata>
  <rdf:RDF xmlns:dc="http://purl.org/dc/elements/1.1/" xmlns:cc="http://creativecommons.org/ns#" xmlns:rdf="http://www.w3.org/1999/02/22-rdf-syntax-ns#">
   <cc:Work>
    <dc:type rdf:resource="http://purl.org/dc/dcmitype/StillImage"/>
    <dc:date>2023-10-09T13:55:50.042077</dc:date>
    <dc:format>image/svg+xml</dc:format>
    <dc:creator>
     <cc:Agent>
      <dc:title>Matplotlib v3.6.3, https://matplotlib.org/</dc:title>
     </cc:Agent>
    </dc:creator>
   </cc:Work>
  </rdf:RDF>
 </metadata>
 <defs>
  <style type="text/css">*{stroke-linejoin: round; stroke-linecap: butt}</style>
 </defs>
 <g id="figure_1">
  <g id="patch_1">
   <path d="M 0 225.270937 
L 224.579207 225.270937 
L 224.579207 0 
L 0 0 
L 0 225.270937 
z
" style="fill: none"/>
  </g>
  <g id="axes_1">
   <g id="patch_2">
    <path d="M 45.414062 188.109375 
L 212.814063 188.109375 
L 212.814063 21.789375 
L 45.414062 21.789375 
L 45.414062 188.109375 
z
" style="fill: none"/>
   </g>
   <g id="matplotlib.axis_1">
    <g id="xtick_1">
     <g id="line2d_1">
      <path d="M 48.633293 188.109375 
L 48.633293 21.789375 
" clip-path="url(#p35101e2457)" style="fill: none; stroke: #ffffff; stroke-linecap: round"/>
     </g>
     <g id="line2d_2">
      <defs>
       <path id="m8d430ffa02" d="M 0 0 
L 0 6 
" style="stroke: #000000; stroke-width: 1.25"/>
      </defs>
      <g>
       <use xlink:href="#m8d430ffa02" x="48.633293" y="188.109375" style="stroke: #000000; stroke-width: 1.25"/>
      </g>
     </g>
     <g id="text_1">
      <!-- 0.00 -->
      <g transform="translate(40.848918 203.335625) scale(0.08 -0.08)">
       <defs>
        <path id="ArialMT-30" d="M 266 2259 
Q 266 3072 433 3567 
Q 600 4063 929 4331 
Q 1259 4600 1759 4600 
Q 2128 4600 2406 4451 
Q 2684 4303 2865 4023 
Q 3047 3744 3150 3342 
Q 3253 2941 3253 2259 
Q 3253 1453 3087 958 
Q 2922 463 2592 192 
Q 2263 -78 1759 -78 
Q 1097 -78 719 397 
Q 266 969 266 2259 
z
M 844 2259 
Q 844 1131 1108 757 
Q 1372 384 1759 384 
Q 2147 384 2411 759 
Q 2675 1134 2675 2259 
Q 2675 3391 2411 3762 
Q 2147 4134 1753 4134 
Q 1366 4134 1134 3806 
Q 844 3388 844 2259 
z
" transform="scale(0.015625)"/>
        <path id="ArialMT-2e" d="M 581 0 
L 581 641 
L 1222 641 
L 1222 0 
L 581 0 
z
" transform="scale(0.015625)"/>
       </defs>
       <use xlink:href="#ArialMT-30"/>
       <use xlink:href="#ArialMT-2e" x="55.615234"/>
       <use xlink:href="#ArialMT-30" x="83.398438"/>
       <use xlink:href="#ArialMT-30" x="139.013672"/>
      </g>
     </g>
    </g>
    <g id="xtick_2">
     <g id="line2d_3">
      <path d="M 88.873678 188.109375 
L 88.873678 21.789375 
" clip-path="url(#p35101e2457)" style="fill: none; stroke: #ffffff; stroke-linecap: round"/>
     </g>
     <g id="line2d_4">
      <g>
       <use xlink:href="#m8d430ffa02" x="88.873678" y="188.109375" style="stroke: #000000; stroke-width: 1.25"/>
      </g>
     </g>
     <g id="text_2">
      <!-- 0.25 -->
      <g transform="translate(81.089303 203.335625) scale(0.08 -0.08)">
       <defs>
        <path id="ArialMT-32" d="M 3222 541 
L 3222 0 
L 194 0 
Q 188 203 259 391 
Q 375 700 629 1000 
Q 884 1300 1366 1694 
Q 2113 2306 2375 2664 
Q 2638 3022 2638 3341 
Q 2638 3675 2398 3904 
Q 2159 4134 1775 4134 
Q 1369 4134 1125 3890 
Q 881 3647 878 3216 
L 300 3275 
Q 359 3922 746 4261 
Q 1134 4600 1788 4600 
Q 2447 4600 2831 4234 
Q 3216 3869 3216 3328 
Q 3216 3053 3103 2787 
Q 2991 2522 2730 2228 
Q 2469 1934 1863 1422 
Q 1356 997 1212 845 
Q 1069 694 975 541 
L 3222 541 
z
" transform="scale(0.015625)"/>
        <path id="ArialMT-35" d="M 266 1200 
L 856 1250 
Q 922 819 1161 601 
Q 1400 384 1738 384 
Q 2144 384 2425 690 
Q 2706 997 2706 1503 
Q 2706 1984 2436 2262 
Q 2166 2541 1728 2541 
Q 1456 2541 1237 2417 
Q 1019 2294 894 2097 
L 366 2166 
L 809 4519 
L 3088 4519 
L 3088 3981 
L 1259 3981 
L 1013 2750 
Q 1425 3038 1878 3038 
Q 2478 3038 2890 2622 
Q 3303 2206 3303 1553 
Q 3303 931 2941 478 
Q 2500 -78 1738 -78 
Q 1113 -78 717 272 
Q 322 622 266 1200 
z
" transform="scale(0.015625)"/>
       </defs>
       <use xlink:href="#ArialMT-30"/>
       <use xlink:href="#ArialMT-2e" x="55.615234"/>
       <use xlink:href="#ArialMT-32" x="83.398438"/>
       <use xlink:href="#ArialMT-35" x="139.013672"/>
      </g>
     </g>
    </g>
    <g id="xtick_3">
     <g id="line2d_5">
      <path d="M 129.114062 188.109375 
L 129.114062 21.789375 
" clip-path="url(#p35101e2457)" style="fill: none; stroke: #ffffff; stroke-linecap: round"/>
     </g>
     <g id="line2d_6">
      <g>
       <use xlink:href="#m8d430ffa02" x="129.114062" y="188.109375" style="stroke: #000000; stroke-width: 1.25"/>
      </g>
     </g>
     <g id="text_3">
      <!-- 0.50 -->
      <g transform="translate(121.329687 203.335625) scale(0.08 -0.08)">
       <use xlink:href="#ArialMT-30"/>
       <use xlink:href="#ArialMT-2e" x="55.615234"/>
       <use xlink:href="#ArialMT-35" x="83.398438"/>
       <use xlink:href="#ArialMT-30" x="139.013672"/>
      </g>
     </g>
    </g>
    <g id="xtick_4">
     <g id="line2d_7">
      <path d="M 169.354447 188.109375 
L 169.354447 21.789375 
" clip-path="url(#p35101e2457)" style="fill: none; stroke: #ffffff; stroke-linecap: round"/>
     </g>
     <g id="line2d_8">
      <g>
       <use xlink:href="#m8d430ffa02" x="169.354447" y="188.109375" style="stroke: #000000; stroke-width: 1.25"/>
      </g>
     </g>
     <g id="text_4">
      <!-- 0.75 -->
      <g transform="translate(161.570072 203.335625) scale(0.08 -0.08)">
       <defs>
        <path id="ArialMT-37" d="M 303 3981 
L 303 4522 
L 3269 4522 
L 3269 4084 
Q 2831 3619 2401 2847 
Q 1972 2075 1738 1259 
Q 1569 684 1522 0 
L 944 0 
Q 953 541 1156 1306 
Q 1359 2072 1739 2783 
Q 2119 3494 2547 3981 
L 303 3981 
z
" transform="scale(0.015625)"/>
       </defs>
       <use xlink:href="#ArialMT-30"/>
       <use xlink:href="#ArialMT-2e" x="55.615234"/>
       <use xlink:href="#ArialMT-37" x="83.398438"/>
       <use xlink:href="#ArialMT-35" x="139.013672"/>
      </g>
     </g>
    </g>
    <g id="xtick_5">
     <g id="line2d_9">
      <path d="M 209.594832 188.109375 
L 209.594832 21.789375 
" clip-path="url(#p35101e2457)" style="fill: none; stroke: #ffffff; stroke-linecap: round"/>
     </g>
     <g id="line2d_10">
      <g>
       <use xlink:href="#m8d430ffa02" x="209.594832" y="188.109375" style="stroke: #000000; stroke-width: 1.25"/>
      </g>
     </g>
     <g id="text_5">
      <!-- 1.00 -->
      <g transform="translate(201.810457 203.335625) scale(0.08 -0.08)">
       <defs>
        <path id="ArialMT-31" d="M 2384 0 
L 1822 0 
L 1822 3584 
Q 1619 3391 1289 3197 
Q 959 3003 697 2906 
L 697 3450 
Q 1169 3672 1522 3987 
Q 1875 4303 2022 4600 
L 2384 4600 
L 2384 0 
z
" transform="scale(0.015625)"/>
       </defs>
       <use xlink:href="#ArialMT-31"/>
       <use xlink:href="#ArialMT-2e" x="55.615234"/>
       <use xlink:href="#ArialMT-30" x="83.398438"/>
       <use xlink:href="#ArialMT-30" x="139.013672"/>
      </g>
     </g>
    </g>
    <g id="text_6">
     <!-- Normalized Experimental RLU -->
     <g transform="translate(61.871094 216.083437) scale(0.1 -0.1)">
      <defs>
       <path id="ArialMT-4e" d="M 488 0 
L 488 4581 
L 1109 4581 
L 3516 984 
L 3516 4581 
L 4097 4581 
L 4097 0 
L 3475 0 
L 1069 3600 
L 1069 0 
L 488 0 
z
" transform="scale(0.015625)"/>
       <path id="ArialMT-6f" d="M 213 1659 
Q 213 2581 725 3025 
Q 1153 3394 1769 3394 
Q 2453 3394 2887 2945 
Q 3322 2497 3322 1706 
Q 3322 1066 3130 698 
Q 2938 331 2570 128 
Q 2203 -75 1769 -75 
Q 1072 -75 642 372 
Q 213 819 213 1659 
z
M 791 1659 
Q 791 1022 1069 705 
Q 1347 388 1769 388 
Q 2188 388 2466 706 
Q 2744 1025 2744 1678 
Q 2744 2294 2464 2611 
Q 2184 2928 1769 2928 
Q 1347 2928 1069 2612 
Q 791 2297 791 1659 
z
" transform="scale(0.015625)"/>
       <path id="ArialMT-72" d="M 416 0 
L 416 3319 
L 922 3319 
L 922 2816 
Q 1116 3169 1280 3281 
Q 1444 3394 1641 3394 
Q 1925 3394 2219 3213 
L 2025 2691 
Q 1819 2813 1613 2813 
Q 1428 2813 1281 2702 
Q 1134 2591 1072 2394 
Q 978 2094 978 1738 
L 978 0 
L 416 0 
z
" transform="scale(0.015625)"/>
       <path id="ArialMT-6d" d="M 422 0 
L 422 3319 
L 925 3319 
L 925 2853 
Q 1081 3097 1340 3245 
Q 1600 3394 1931 3394 
Q 2300 3394 2536 3241 
Q 2772 3088 2869 2813 
Q 3263 3394 3894 3394 
Q 4388 3394 4653 3120 
Q 4919 2847 4919 2278 
L 4919 0 
L 4359 0 
L 4359 2091 
Q 4359 2428 4304 2576 
Q 4250 2725 4106 2815 
Q 3963 2906 3769 2906 
Q 3419 2906 3187 2673 
Q 2956 2441 2956 1928 
L 2956 0 
L 2394 0 
L 2394 2156 
Q 2394 2531 2256 2718 
Q 2119 2906 1806 2906 
Q 1569 2906 1367 2781 
Q 1166 2656 1075 2415 
Q 984 2175 984 1722 
L 984 0 
L 422 0 
z
" transform="scale(0.015625)"/>
       <path id="ArialMT-61" d="M 2588 409 
Q 2275 144 1986 34 
Q 1697 -75 1366 -75 
Q 819 -75 525 192 
Q 231 459 231 875 
Q 231 1119 342 1320 
Q 453 1522 633 1644 
Q 813 1766 1038 1828 
Q 1203 1872 1538 1913 
Q 2219 1994 2541 2106 
Q 2544 2222 2544 2253 
Q 2544 2597 2384 2738 
Q 2169 2928 1744 2928 
Q 1347 2928 1158 2789 
Q 969 2650 878 2297 
L 328 2372 
Q 403 2725 575 2942 
Q 747 3159 1072 3276 
Q 1397 3394 1825 3394 
Q 2250 3394 2515 3294 
Q 2781 3194 2906 3042 
Q 3031 2891 3081 2659 
Q 3109 2516 3109 2141 
L 3109 1391 
Q 3109 606 3145 398 
Q 3181 191 3288 0 
L 2700 0 
Q 2613 175 2588 409 
z
M 2541 1666 
Q 2234 1541 1622 1453 
Q 1275 1403 1131 1340 
Q 988 1278 909 1158 
Q 831 1038 831 891 
Q 831 666 1001 516 
Q 1172 366 1500 366 
Q 1825 366 2078 508 
Q 2331 650 2450 897 
Q 2541 1088 2541 1459 
L 2541 1666 
z
" transform="scale(0.015625)"/>
       <path id="ArialMT-6c" d="M 409 0 
L 409 4581 
L 972 4581 
L 972 0 
L 409 0 
z
" transform="scale(0.015625)"/>
       <path id="ArialMT-69" d="M 425 3934 
L 425 4581 
L 988 4581 
L 988 3934 
L 425 3934 
z
M 425 0 
L 425 3319 
L 988 3319 
L 988 0 
L 425 0 
z
" transform="scale(0.015625)"/>
       <path id="ArialMT-7a" d="M 125 0 
L 125 456 
L 2238 2881 
Q 1878 2863 1603 2863 
L 250 2863 
L 250 3319 
L 2963 3319 
L 2963 2947 
L 1166 841 
L 819 456 
Q 1197 484 1528 484 
L 3063 484 
L 3063 0 
L 125 0 
z
" transform="scale(0.015625)"/>
       <path id="ArialMT-65" d="M 2694 1069 
L 3275 997 
Q 3138 488 2766 206 
Q 2394 -75 1816 -75 
Q 1088 -75 661 373 
Q 234 822 234 1631 
Q 234 2469 665 2931 
Q 1097 3394 1784 3394 
Q 2450 3394 2872 2941 
Q 3294 2488 3294 1666 
Q 3294 1616 3291 1516 
L 816 1516 
Q 847 969 1125 678 
Q 1403 388 1819 388 
Q 2128 388 2347 550 
Q 2566 713 2694 1069 
z
M 847 1978 
L 2700 1978 
Q 2663 2397 2488 2606 
Q 2219 2931 1791 2931 
Q 1403 2931 1139 2672 
Q 875 2413 847 1978 
z
" transform="scale(0.015625)"/>
       <path id="ArialMT-64" d="M 2575 0 
L 2575 419 
Q 2259 -75 1647 -75 
Q 1250 -75 917 144 
Q 584 363 401 755 
Q 219 1147 219 1656 
Q 219 2153 384 2558 
Q 550 2963 881 3178 
Q 1213 3394 1622 3394 
Q 1922 3394 2156 3267 
Q 2391 3141 2538 2938 
L 2538 4581 
L 3097 4581 
L 3097 0 
L 2575 0 
z
M 797 1656 
Q 797 1019 1065 703 
Q 1334 388 1700 388 
Q 2069 388 2326 689 
Q 2584 991 2584 1609 
Q 2584 2291 2321 2609 
Q 2059 2928 1675 2928 
Q 1300 2928 1048 2622 
Q 797 2316 797 1656 
z
" transform="scale(0.015625)"/>
       <path id="ArialMT-20" transform="scale(0.015625)"/>
       <path id="ArialMT-45" d="M 506 0 
L 506 4581 
L 3819 4581 
L 3819 4041 
L 1113 4041 
L 1113 2638 
L 3647 2638 
L 3647 2100 
L 1113 2100 
L 1113 541 
L 3925 541 
L 3925 0 
L 506 0 
z
" transform="scale(0.015625)"/>
       <path id="ArialMT-78" d="M 47 0 
L 1259 1725 
L 138 3319 
L 841 3319 
L 1350 2541 
Q 1494 2319 1581 2169 
Q 1719 2375 1834 2534 
L 2394 3319 
L 3066 3319 
L 1919 1756 
L 3153 0 
L 2463 0 
L 1781 1031 
L 1600 1309 
L 728 0 
L 47 0 
z
" transform="scale(0.015625)"/>
       <path id="ArialMT-70" d="M 422 -1272 
L 422 3319 
L 934 3319 
L 934 2888 
Q 1116 3141 1344 3267 
Q 1572 3394 1897 3394 
Q 2322 3394 2647 3175 
Q 2972 2956 3137 2557 
Q 3303 2159 3303 1684 
Q 3303 1175 3120 767 
Q 2938 359 2589 142 
Q 2241 -75 1856 -75 
Q 1575 -75 1351 44 
Q 1128 163 984 344 
L 984 -1272 
L 422 -1272 
z
M 931 1641 
Q 931 1000 1190 694 
Q 1450 388 1819 388 
Q 2194 388 2461 705 
Q 2728 1022 2728 1688 
Q 2728 2322 2467 2637 
Q 2206 2953 1844 2953 
Q 1484 2953 1207 2617 
Q 931 2281 931 1641 
z
" transform="scale(0.015625)"/>
       <path id="ArialMT-6e" d="M 422 0 
L 422 3319 
L 928 3319 
L 928 2847 
Q 1294 3394 1984 3394 
Q 2284 3394 2536 3286 
Q 2788 3178 2913 3003 
Q 3038 2828 3088 2588 
Q 3119 2431 3119 2041 
L 3119 0 
L 2556 0 
L 2556 2019 
Q 2556 2363 2490 2533 
Q 2425 2703 2258 2804 
Q 2091 2906 1866 2906 
Q 1506 2906 1245 2678 
Q 984 2450 984 1813 
L 984 0 
L 422 0 
z
" transform="scale(0.015625)"/>
       <path id="ArialMT-74" d="M 1650 503 
L 1731 6 
Q 1494 -44 1306 -44 
Q 1000 -44 831 53 
Q 663 150 594 308 
Q 525 466 525 972 
L 525 2881 
L 113 2881 
L 113 3319 
L 525 3319 
L 525 4141 
L 1084 4478 
L 1084 3319 
L 1650 3319 
L 1650 2881 
L 1084 2881 
L 1084 941 
Q 1084 700 1114 631 
Q 1144 563 1211 522 
Q 1278 481 1403 481 
Q 1497 481 1650 503 
z
" transform="scale(0.015625)"/>
       <path id="ArialMT-52" d="M 503 0 
L 503 4581 
L 2534 4581 
Q 3147 4581 3465 4457 
Q 3784 4334 3975 4021 
Q 4166 3709 4166 3331 
Q 4166 2844 3850 2509 
Q 3534 2175 2875 2084 
Q 3116 1969 3241 1856 
Q 3506 1613 3744 1247 
L 4541 0 
L 3778 0 
L 3172 953 
Q 2906 1366 2734 1584 
Q 2563 1803 2427 1890 
Q 2291 1978 2150 2013 
Q 2047 2034 1813 2034 
L 1109 2034 
L 1109 0 
L 503 0 
z
M 1109 2559 
L 2413 2559 
Q 2828 2559 3062 2645 
Q 3297 2731 3419 2920 
Q 3541 3109 3541 3331 
Q 3541 3656 3305 3865 
Q 3069 4075 2559 4075 
L 1109 4075 
L 1109 2559 
z
" transform="scale(0.015625)"/>
       <path id="ArialMT-4c" d="M 469 0 
L 469 4581 
L 1075 4581 
L 1075 541 
L 3331 541 
L 3331 0 
L 469 0 
z
" transform="scale(0.015625)"/>
       <path id="ArialMT-55" d="M 3500 4581 
L 4106 4581 
L 4106 1934 
Q 4106 1244 3950 837 
Q 3794 431 3386 176 
Q 2978 -78 2316 -78 
Q 1672 -78 1262 144 
Q 853 366 678 786 
Q 503 1206 503 1934 
L 503 4581 
L 1109 4581 
L 1109 1938 
Q 1109 1341 1220 1058 
Q 1331 775 1601 622 
Q 1872 469 2263 469 
Q 2931 469 3215 772 
Q 3500 1075 3500 1938 
L 3500 4581 
z
" transform="scale(0.015625)"/>
      </defs>
      <use xlink:href="#ArialMT-4e"/>
      <use xlink:href="#ArialMT-6f" x="72.216797"/>
      <use xlink:href="#ArialMT-72" x="127.832031"/>
      <use xlink:href="#ArialMT-6d" x="161.132812"/>
      <use xlink:href="#ArialMT-61" x="244.433594"/>
      <use xlink:href="#ArialMT-6c" x="300.048828"/>
      <use xlink:href="#ArialMT-69" x="322.265625"/>
      <use xlink:href="#ArialMT-7a" x="344.482422"/>
      <use xlink:href="#ArialMT-65" x="394.482422"/>
      <use xlink:href="#ArialMT-64" x="450.097656"/>
      <use xlink:href="#ArialMT-20" x="505.712891"/>
      <use xlink:href="#ArialMT-45" x="533.496094"/>
      <use xlink:href="#ArialMT-78" x="600.195312"/>
      <use xlink:href="#ArialMT-70" x="650.195312"/>
      <use xlink:href="#ArialMT-65" x="705.810547"/>
      <use xlink:href="#ArialMT-72" x="761.425781"/>
      <use xlink:href="#ArialMT-69" x="794.726562"/>
      <use xlink:href="#ArialMT-6d" x="816.943359"/>
      <use xlink:href="#ArialMT-65" x="900.244141"/>
      <use xlink:href="#ArialMT-6e" x="955.859375"/>
      <use xlink:href="#ArialMT-74" x="1011.474609"/>
      <use xlink:href="#ArialMT-61" x="1039.257812"/>
      <use xlink:href="#ArialMT-6c" x="1094.873047"/>
      <use xlink:href="#ArialMT-20" x="1117.089844"/>
      <use xlink:href="#ArialMT-52" x="1144.873047"/>
      <use xlink:href="#ArialMT-4c" x="1217.089844"/>
      <use xlink:href="#ArialMT-55" x="1272.705078"/>
     </g>
    </g>
   </g>
   <g id="matplotlib.axis_2">
    <g id="ytick_1">
     <g id="line2d_11">
      <path d="M 45.414062 184.910913 
L 212.814063 184.910913 
" clip-path="url(#p35101e2457)" style="fill: none; stroke: #ffffff; stroke-linecap: round"/>
     </g>
     <g id="line2d_12">
      <defs>
       <path id="mb783e628c9" d="M 0 0 
L -6 0 
" style="stroke: #000000; stroke-width: 1.25"/>
      </defs>
      <g>
       <use xlink:href="#mb783e628c9" x="45.414062" y="184.910913" style="stroke: #000000; stroke-width: 1.25"/>
      </g>
     </g>
     <g id="text_7">
      <!-- 0.00 -->
      <g transform="translate(20.345312 187.774038) scale(0.08 -0.08)">
       <use xlink:href="#ArialMT-30"/>
       <use xlink:href="#ArialMT-2e" x="55.615234"/>
       <use xlink:href="#ArialMT-30" x="83.398438"/>
       <use xlink:href="#ArialMT-30" x="139.013672"/>
      </g>
     </g>
    </g>
    <g id="ytick_2">
     <g id="line2d_13">
      <path d="M 45.414062 144.930144 
L 212.814063 144.930144 
" clip-path="url(#p35101e2457)" style="fill: none; stroke: #ffffff; stroke-linecap: round"/>
     </g>
     <g id="line2d_14">
      <g>
       <use xlink:href="#mb783e628c9" x="45.414062" y="144.930144" style="stroke: #000000; stroke-width: 1.25"/>
      </g>
     </g>
     <g id="text_8">
      <!-- 0.25 -->
      <g transform="translate(20.345312 147.793269) scale(0.08 -0.08)">
       <use xlink:href="#ArialMT-30"/>
       <use xlink:href="#ArialMT-2e" x="55.615234"/>
       <use xlink:href="#ArialMT-32" x="83.398438"/>
       <use xlink:href="#ArialMT-35" x="139.013672"/>
      </g>
     </g>
    </g>
    <g id="ytick_3">
     <g id="line2d_15">
      <path d="M 45.414062 104.949375 
L 212.814063 104.949375 
" clip-path="url(#p35101e2457)" style="fill: none; stroke: #ffffff; stroke-linecap: round"/>
     </g>
     <g id="line2d_16">
      <g>
       <use xlink:href="#mb783e628c9" x="45.414062" y="104.949375" style="stroke: #000000; stroke-width: 1.25"/>
      </g>
     </g>
     <g id="text_9">
      <!-- 0.50 -->
      <g transform="translate(20.345312 107.8125) scale(0.08 -0.08)">
       <use xlink:href="#ArialMT-30"/>
       <use xlink:href="#ArialMT-2e" x="55.615234"/>
       <use xlink:href="#ArialMT-35" x="83.398438"/>
       <use xlink:href="#ArialMT-30" x="139.013672"/>
      </g>
     </g>
    </g>
    <g id="ytick_4">
     <g id="line2d_17">
      <path d="M 45.414062 64.968606 
L 212.814063 64.968606 
" clip-path="url(#p35101e2457)" style="fill: none; stroke: #ffffff; stroke-linecap: round"/>
     </g>
     <g id="line2d_18">
      <g>
       <use xlink:href="#mb783e628c9" x="45.414062" y="64.968606" style="stroke: #000000; stroke-width: 1.25"/>
      </g>
     </g>
     <g id="text_10">
      <!-- 0.75 -->
      <g transform="translate(20.345312 67.831731) scale(0.08 -0.08)">
       <use xlink:href="#ArialMT-30"/>
       <use xlink:href="#ArialMT-2e" x="55.615234"/>
       <use xlink:href="#ArialMT-37" x="83.398438"/>
       <use xlink:href="#ArialMT-35" x="139.013672"/>
      </g>
     </g>
    </g>
    <g id="ytick_5">
     <g id="line2d_19">
      <path d="M 45.414062 24.987837 
L 212.814063 24.987837 
" clip-path="url(#p35101e2457)" style="fill: none; stroke: #ffffff; stroke-linecap: round"/>
     </g>
     <g id="line2d_20">
      <g>
       <use xlink:href="#mb783e628c9" x="45.414062" y="24.987837" style="stroke: #000000; stroke-width: 1.25"/>
      </g>
     </g>
     <g id="text_11">
      <!-- 1.00 -->
      <g transform="translate(20.345312 27.850962) scale(0.08 -0.08)">
       <use xlink:href="#ArialMT-31"/>
       <use xlink:href="#ArialMT-2e" x="55.615234"/>
       <use xlink:href="#ArialMT-30" x="83.398438"/>
       <use xlink:href="#ArialMT-30" x="139.013672"/>
      </g>
     </g>
    </g>
    <g id="text_12">
     <!-- Normalized Predicted RLU -->
     <g transform="translate(14.357812 164.136094) rotate(-90) scale(0.1 -0.1)">
      <defs>
       <path id="ArialMT-50" d="M 494 0 
L 494 4581 
L 2222 4581 
Q 2678 4581 2919 4538 
Q 3256 4481 3484 4323 
Q 3713 4166 3852 3881 
Q 3991 3597 3991 3256 
Q 3991 2672 3619 2267 
Q 3247 1863 2275 1863 
L 1100 1863 
L 1100 0 
L 494 0 
z
M 1100 2403 
L 2284 2403 
Q 2872 2403 3119 2622 
Q 3366 2841 3366 3238 
Q 3366 3525 3220 3729 
Q 3075 3934 2838 4000 
Q 2684 4041 2272 4041 
L 1100 4041 
L 1100 2403 
z
" transform="scale(0.015625)"/>
       <path id="ArialMT-63" d="M 2588 1216 
L 3141 1144 
Q 3050 572 2676 248 
Q 2303 -75 1759 -75 
Q 1078 -75 664 370 
Q 250 816 250 1647 
Q 250 2184 428 2587 
Q 606 2991 970 3192 
Q 1334 3394 1763 3394 
Q 2303 3394 2647 3120 
Q 2991 2847 3088 2344 
L 2541 2259 
Q 2463 2594 2264 2762 
Q 2066 2931 1784 2931 
Q 1359 2931 1093 2626 
Q 828 2322 828 1663 
Q 828 994 1084 691 
Q 1341 388 1753 388 
Q 2084 388 2306 591 
Q 2528 794 2588 1216 
z
" transform="scale(0.015625)"/>
      </defs>
      <use xlink:href="#ArialMT-4e"/>
      <use xlink:href="#ArialMT-6f" x="72.216797"/>
      <use xlink:href="#ArialMT-72" x="127.832031"/>
      <use xlink:href="#ArialMT-6d" x="161.132812"/>
      <use xlink:href="#ArialMT-61" x="244.433594"/>
      <use xlink:href="#ArialMT-6c" x="300.048828"/>
      <use xlink:href="#ArialMT-69" x="322.265625"/>
      <use xlink:href="#ArialMT-7a" x="344.482422"/>
      <use xlink:href="#ArialMT-65" x="394.482422"/>
      <use xlink:href="#ArialMT-64" x="450.097656"/>
      <use xlink:href="#ArialMT-20" x="505.712891"/>
      <use xlink:href="#ArialMT-50" x="533.496094"/>
      <use xlink:href="#ArialMT-72" x="600.195312"/>
      <use xlink:href="#ArialMT-65" x="633.496094"/>
      <use xlink:href="#ArialMT-64" x="689.111328"/>
      <use xlink:href="#ArialMT-69" x="744.726562"/>
      <use xlink:href="#ArialMT-63" x="766.943359"/>
      <use xlink:href="#ArialMT-74" x="816.943359"/>
      <use xlink:href="#ArialMT-65" x="844.726562"/>
      <use xlink:href="#ArialMT-64" x="900.341797"/>
      <use xlink:href="#ArialMT-20" x="955.957031"/>
      <use xlink:href="#ArialMT-52" x="983.740234"/>
      <use xlink:href="#ArialMT-4c" x="1055.957031"/>
      <use xlink:href="#ArialMT-55" x="1111.572266"/>
     </g>
    </g>
   </g>
   <g id="PathCollection_1">
    <defs>
     <path id="mdcdf631368" d="M 0 3 
C 0.795609 3 1.55874 2.683901 2.12132 2.12132 
C 2.683901 1.55874 3 0.795609 3 0 
C 3 -0.795609 2.683901 -1.55874 2.12132 -2.12132 
C 1.55874 -2.683901 0.795609 -3 0 -3 
C -0.795609 -3 -1.55874 -2.683901 -2.12132 -2.12132 
C -2.683901 -1.55874 -3 -0.795609 -3 0 
C -3 0.795609 -2.683901 1.55874 -2.12132 2.12132 
C -1.55874 2.683901 -0.795609 3 0 3 
z
" style="stroke: #1a1a1a; stroke-opacity: 0.8"/>
    </defs>
    <g clip-path="url(#p35101e2457)">
     <use xlink:href="#mdcdf631368" x="48.633293" y="183.934304" style="fill: #1a1a1a; fill-opacity: 0.8; stroke: #1a1a1a; stroke-opacity: 0.8"/>
     <use xlink:href="#mdcdf631368" x="48.633293" y="184.910913" style="fill: #1a1a1a; fill-opacity: 0.8; stroke: #1a1a1a; stroke-opacity: 0.8"/>
     <use xlink:href="#mdcdf631368" x="48.633293" y="184.595583" style="fill: #1a1a1a; fill-opacity: 0.8; stroke: #1a1a1a; stroke-opacity: 0.8"/>
     <use xlink:href="#mdcdf631368" x="48.633293" y="184.759962" style="fill: #1a1a1a; fill-opacity: 0.8; stroke: #1a1a1a; stroke-opacity: 0.8"/>
     <use xlink:href="#mdcdf631368" x="48.633293" y="177.022179" style="fill: #1a1a1a; fill-opacity: 0.8; stroke: #1a1a1a; stroke-opacity: 0.8"/>
     <use xlink:href="#mdcdf631368" x="48.633293" y="184.845401" style="fill: #1a1a1a; fill-opacity: 0.8; stroke: #1a1a1a; stroke-opacity: 0.8"/>
     <use xlink:href="#mdcdf631368" x="53.772287" y="184.000843" style="fill: #1a1a1a; fill-opacity: 0.8; stroke: #1a1a1a; stroke-opacity: 0.8"/>
     <use xlink:href="#mdcdf631368" x="48.633293" y="182.420684" style="fill: #1a1a1a; fill-opacity: 0.8; stroke: #1a1a1a; stroke-opacity: 0.8"/>
     <use xlink:href="#mdcdf631368" x="48.633293" y="184.205418" style="fill: #1a1a1a; fill-opacity: 0.8; stroke: #1a1a1a; stroke-opacity: 0.8"/>
     <use xlink:href="#mdcdf631368" x="70.299703" y="184.675292" style="fill: #1a1a1a; fill-opacity: 0.8; stroke: #1a1a1a; stroke-opacity: 0.8"/>
     <use xlink:href="#mdcdf631368" x="55.295908" y="184.191307" style="fill: #1a1a1a; fill-opacity: 0.8; stroke: #1a1a1a; stroke-opacity: 0.8"/>
     <use xlink:href="#mdcdf631368" x="48.633293" y="184.68718" style="fill: #1a1a1a; fill-opacity: 0.8; stroke: #1a1a1a; stroke-opacity: 0.8"/>
     <use xlink:href="#mdcdf631368" x="48.633293" y="183.333235" style="fill: #1a1a1a; fill-opacity: 0.8; stroke: #1a1a1a; stroke-opacity: 0.8"/>
     <use xlink:href="#mdcdf631368" x="48.633293" y="184.521689" style="fill: #1a1a1a; fill-opacity: 0.8; stroke: #1a1a1a; stroke-opacity: 0.8"/>
     <use xlink:href="#mdcdf631368" x="48.633293" y="183.358037" style="fill: #1a1a1a; fill-opacity: 0.8; stroke: #1a1a1a; stroke-opacity: 0.8"/>
     <use xlink:href="#mdcdf631368" x="48.633293" y="184.588142" style="fill: #1a1a1a; fill-opacity: 0.8; stroke: #1a1a1a; stroke-opacity: 0.8"/>
     <use xlink:href="#mdcdf631368" x="48.633293" y="183.731183" style="fill: #1a1a1a; fill-opacity: 0.8; stroke: #1a1a1a; stroke-opacity: 0.8"/>
     <use xlink:href="#mdcdf631368" x="48.633293" y="183.958593" style="fill: #1a1a1a; fill-opacity: 0.8; stroke: #1a1a1a; stroke-opacity: 0.8"/>
     <use xlink:href="#mdcdf631368" x="48.633293" y="183.762741" style="fill: #1a1a1a; fill-opacity: 0.8; stroke: #1a1a1a; stroke-opacity: 0.8"/>
     <use xlink:href="#mdcdf631368" x="48.633293" y="184.757482" style="fill: #1a1a1a; fill-opacity: 0.8; stroke: #1a1a1a; stroke-opacity: 0.8"/>
     <use xlink:href="#mdcdf631368" x="48.633293" y="184.033257" style="fill: #1a1a1a; fill-opacity: 0.8; stroke: #1a1a1a; stroke-opacity: 0.8"/>
     <use xlink:href="#mdcdf631368" x="48.633293" y="184.289917" style="fill: #1a1a1a; fill-opacity: 0.8; stroke: #1a1a1a; stroke-opacity: 0.8"/>
     <use xlink:href="#mdcdf631368" x="48.633293" y="173.452112" style="fill: #1a1a1a; fill-opacity: 0.8; stroke: #1a1a1a; stroke-opacity: 0.8"/>
     <use xlink:href="#mdcdf631368" x="48.633293" y="179.978177" style="fill: #1a1a1a; fill-opacity: 0.8; stroke: #1a1a1a; stroke-opacity: 0.8"/>
     <use xlink:href="#mdcdf631368" x="48.633293" y="184.860967" style="fill: #1a1a1a; fill-opacity: 0.8; stroke: #1a1a1a; stroke-opacity: 0.8"/>
     <use xlink:href="#mdcdf631368" x="48.633293" y="184.611491" style="fill: #1a1a1a; fill-opacity: 0.8; stroke: #1a1a1a; stroke-opacity: 0.8"/>
     <use xlink:href="#mdcdf631368" x="48.633293" y="184.072598" style="fill: #1a1a1a; fill-opacity: 0.8; stroke: #1a1a1a; stroke-opacity: 0.8"/>
     <use xlink:href="#mdcdf631368" x="48.633293" y="184.761074" style="fill: #1a1a1a; fill-opacity: 0.8; stroke: #1a1a1a; stroke-opacity: 0.8"/>
     <use xlink:href="#mdcdf631368" x="48.633293" y="184.320278" style="fill: #1a1a1a; fill-opacity: 0.8; stroke: #1a1a1a; stroke-opacity: 0.8"/>
     <use xlink:href="#mdcdf631368" x="48.633293" y="184.616366" style="fill: #1a1a1a; fill-opacity: 0.8; stroke: #1a1a1a; stroke-opacity: 0.8"/>
     <use xlink:href="#mdcdf631368" x="48.633293" y="184.177281" style="fill: #1a1a1a; fill-opacity: 0.8; stroke: #1a1a1a; stroke-opacity: 0.8"/>
     <use xlink:href="#mdcdf631368" x="48.633293" y="184.910913" style="fill: #1a1a1a; fill-opacity: 0.8; stroke: #1a1a1a; stroke-opacity: 0.8"/>
     <use xlink:href="#mdcdf631368" x="48.633293" y="184.75714" style="fill: #1a1a1a; fill-opacity: 0.8; stroke: #1a1a1a; stroke-opacity: 0.8"/>
     <use xlink:href="#mdcdf631368" x="48.633293" y="183.605119" style="fill: #1a1a1a; fill-opacity: 0.8; stroke: #1a1a1a; stroke-opacity: 0.8"/>
     <use xlink:href="#mdcdf631368" x="48.633293" y="184.35235" style="fill: #1a1a1a; fill-opacity: 0.8; stroke: #1a1a1a; stroke-opacity: 0.8"/>
     <use xlink:href="#mdcdf631368" x="48.633293" y="184.600543" style="fill: #1a1a1a; fill-opacity: 0.8; stroke: #1a1a1a; stroke-opacity: 0.8"/>
     <use xlink:href="#mdcdf631368" x="48.633293" y="184.910913" style="fill: #1a1a1a; fill-opacity: 0.8; stroke: #1a1a1a; stroke-opacity: 0.8"/>
     <use xlink:href="#mdcdf631368" x="48.633293" y="184.569669" style="fill: #1a1a1a; fill-opacity: 0.8; stroke: #1a1a1a; stroke-opacity: 0.8"/>
     <use xlink:href="#mdcdf631368" x="48.633293" y="184.858658" style="fill: #1a1a1a; fill-opacity: 0.8; stroke: #1a1a1a; stroke-opacity: 0.8"/>
     <use xlink:href="#mdcdf631368" x="48.633293" y="180.681278" style="fill: #1a1a1a; fill-opacity: 0.8; stroke: #1a1a1a; stroke-opacity: 0.8"/>
     <use xlink:href="#mdcdf631368" x="48.633293" y="182.288462" style="fill: #1a1a1a; fill-opacity: 0.8; stroke: #1a1a1a; stroke-opacity: 0.8"/>
     <use xlink:href="#mdcdf631368" x="48.633293" y="184.629707" style="fill: #1a1a1a; fill-opacity: 0.8; stroke: #1a1a1a; stroke-opacity: 0.8"/>
     <use xlink:href="#mdcdf631368" x="48.633293" y="175.509414" style="fill: #1a1a1a; fill-opacity: 0.8; stroke: #1a1a1a; stroke-opacity: 0.8"/>
     <use xlink:href="#mdcdf631368" x="48.633293" y="181.305439" style="fill: #1a1a1a; fill-opacity: 0.8; stroke: #1a1a1a; stroke-opacity: 0.8"/>
     <use xlink:href="#mdcdf631368" x="48.633293" y="109.867572" style="fill: #1a1a1a; fill-opacity: 0.8; stroke: #1a1a1a; stroke-opacity: 0.8"/>
     <use xlink:href="#mdcdf631368" x="63.71456" y="127.62691" style="fill: #1a1a1a; fill-opacity: 0.8; stroke: #1a1a1a; stroke-opacity: 0.8"/>
     <use xlink:href="#mdcdf631368" x="78.950772" y="133.247353" style="fill: #1a1a1a; fill-opacity: 0.8; stroke: #1a1a1a; stroke-opacity: 0.8"/>
     <use xlink:href="#mdcdf631368" x="78.563411" y="113.212623" style="fill: #1a1a1a; fill-opacity: 0.8; stroke: #1a1a1a; stroke-opacity: 0.8"/>
     <use xlink:href="#mdcdf631368" x="48.633293" y="182.462506" style="fill: #1a1a1a; fill-opacity: 0.8; stroke: #1a1a1a; stroke-opacity: 0.8"/>
     <use xlink:href="#mdcdf631368" x="48.633293" y="183.924383" style="fill: #1a1a1a; fill-opacity: 0.8; stroke: #1a1a1a; stroke-opacity: 0.8"/>
     <use xlink:href="#mdcdf631368" x="48.633293" y="184.119124" style="fill: #1a1a1a; fill-opacity: 0.8; stroke: #1a1a1a; stroke-opacity: 0.8"/>
     <use xlink:href="#mdcdf631368" x="48.633293" y="183.68517" style="fill: #1a1a1a; fill-opacity: 0.8; stroke: #1a1a1a; stroke-opacity: 0.8"/>
     <use xlink:href="#mdcdf631368" x="82.307904" y="178.442834" style="fill: #1a1a1a; fill-opacity: 0.8; stroke: #1a1a1a; stroke-opacity: 0.8"/>
     <use xlink:href="#mdcdf631368" x="48.633293" y="181.834838" style="fill: #1a1a1a; fill-opacity: 0.8; stroke: #1a1a1a; stroke-opacity: 0.8"/>
     <use xlink:href="#mdcdf631368" x="135.712117" y="108.53937" style="fill: #1a1a1a; fill-opacity: 0.8; stroke: #1a1a1a; stroke-opacity: 0.8"/>
     <use xlink:href="#mdcdf631368" x="48.633293" y="183.510785" style="fill: #1a1a1a; fill-opacity: 0.8; stroke: #1a1a1a; stroke-opacity: 0.8"/>
     <use xlink:href="#mdcdf631368" x="48.633293" y="184.414014" style="fill: #1a1a1a; fill-opacity: 0.8; stroke: #1a1a1a; stroke-opacity: 0.8"/>
     <use xlink:href="#mdcdf631368" x="48.633293" y="184.690174" style="fill: #1a1a1a; fill-opacity: 0.8; stroke: #1a1a1a; stroke-opacity: 0.8"/>
     <use xlink:href="#mdcdf631368" x="48.633293" y="184.678884" style="fill: #1a1a1a; fill-opacity: 0.8; stroke: #1a1a1a; stroke-opacity: 0.8"/>
     <use xlink:href="#mdcdf631368" x="48.633293" y="176.11074" style="fill: #1a1a1a; fill-opacity: 0.8; stroke: #1a1a1a; stroke-opacity: 0.8"/>
     <use xlink:href="#mdcdf631368" x="48.633293" y="184.20328" style="fill: #1a1a1a; fill-opacity: 0.8; stroke: #1a1a1a; stroke-opacity: 0.8"/>
     <use xlink:href="#mdcdf631368" x="48.633293" y="184.656049" style="fill: #1a1a1a; fill-opacity: 0.8; stroke: #1a1a1a; stroke-opacity: 0.8"/>
     <use xlink:href="#mdcdf631368" x="48.633293" y="181.074265" style="fill: #1a1a1a; fill-opacity: 0.8; stroke: #1a1a1a; stroke-opacity: 0.8"/>
     <use xlink:href="#mdcdf631368" x="48.633293" y="182.102788" style="fill: #1a1a1a; fill-opacity: 0.8; stroke: #1a1a1a; stroke-opacity: 0.8"/>
     <use xlink:href="#mdcdf631368" x="48.633293" y="182.278456" style="fill: #1a1a1a; fill-opacity: 0.8; stroke: #1a1a1a; stroke-opacity: 0.8"/>
     <use xlink:href="#mdcdf631368" x="48.633293" y="175.962953" style="fill: #1a1a1a; fill-opacity: 0.8; stroke: #1a1a1a; stroke-opacity: 0.8"/>
     <use xlink:href="#mdcdf631368" x="48.633293" y="176.947858" style="fill: #1a1a1a; fill-opacity: 0.8; stroke: #1a1a1a; stroke-opacity: 0.8"/>
     <use xlink:href="#mdcdf631368" x="48.633293" y="141.611178" style="fill: #1a1a1a; fill-opacity: 0.8; stroke: #1a1a1a; stroke-opacity: 0.8"/>
     <use xlink:href="#mdcdf631368" x="71.126074" y="129.061933" style="fill: #1a1a1a; fill-opacity: 0.8; stroke: #1a1a1a; stroke-opacity: 0.8"/>
     <use xlink:href="#mdcdf631368" x="48.633293" y="181.956198" style="fill: #1a1a1a; fill-opacity: 0.8; stroke: #1a1a1a; stroke-opacity: 0.8"/>
     <use xlink:href="#mdcdf631368" x="48.633293" y="178.556838" style="fill: #1a1a1a; fill-opacity: 0.8; stroke: #1a1a1a; stroke-opacity: 0.8"/>
     <use xlink:href="#mdcdf631368" x="48.633293" y="178.05455" style="fill: #1a1a1a; fill-opacity: 0.8; stroke: #1a1a1a; stroke-opacity: 0.8"/>
     <use xlink:href="#mdcdf631368" x="48.633293" y="176.535371" style="fill: #1a1a1a; fill-opacity: 0.8; stroke: #1a1a1a; stroke-opacity: 0.8"/>
     <use xlink:href="#mdcdf631368" x="48.633293" y="184.273411" style="fill: #1a1a1a; fill-opacity: 0.8; stroke: #1a1a1a; stroke-opacity: 0.8"/>
     <use xlink:href="#mdcdf631368" x="48.633293" y="180.885169" style="fill: #1a1a1a; fill-opacity: 0.8; stroke: #1a1a1a; stroke-opacity: 0.8"/>
     <use xlink:href="#mdcdf631368" x="51.577239" y="184.179333" style="fill: #1a1a1a; fill-opacity: 0.8; stroke: #1a1a1a; stroke-opacity: 0.8"/>
     <use xlink:href="#mdcdf631368" x="48.633293" y="184.451816" style="fill: #1a1a1a; fill-opacity: 0.8; stroke: #1a1a1a; stroke-opacity: 0.8"/>
     <use xlink:href="#mdcdf631368" x="48.633293" y="180.987286" style="fill: #1a1a1a; fill-opacity: 0.8; stroke: #1a1a1a; stroke-opacity: 0.8"/>
     <use xlink:href="#mdcdf631368" x="48.633293" y="178.538108" style="fill: #1a1a1a; fill-opacity: 0.8; stroke: #1a1a1a; stroke-opacity: 0.8"/>
     <use xlink:href="#mdcdf631368" x="54.288768" y="181.579033" style="fill: #1a1a1a; fill-opacity: 0.8; stroke: #1a1a1a; stroke-opacity: 0.8"/>
     <use xlink:href="#mdcdf631368" x="48.633293" y="148.82016" style="fill: #1a1a1a; fill-opacity: 0.8; stroke: #1a1a1a; stroke-opacity: 0.8"/>
     <use xlink:href="#mdcdf631368" x="168.405412" y="113.073047" style="fill: #1a1a1a; fill-opacity: 0.8; stroke: #1a1a1a; stroke-opacity: 0.8"/>
     <use xlink:href="#mdcdf631368" x="48.633293" y="184.910913" style="fill: #1a1a1a; fill-opacity: 0.8; stroke: #1a1a1a; stroke-opacity: 0.8"/>
     <use xlink:href="#mdcdf631368" x="48.633293" y="184.534689" style="fill: #1a1a1a; fill-opacity: 0.8; stroke: #1a1a1a; stroke-opacity: 0.8"/>
     <use xlink:href="#mdcdf631368" x="48.633293" y="184.720535" style="fill: #1a1a1a; fill-opacity: 0.8; stroke: #1a1a1a; stroke-opacity: 0.8"/>
     <use xlink:href="#mdcdf631368" x="48.633293" y="184.624063" style="fill: #1a1a1a; fill-opacity: 0.8; stroke: #1a1a1a; stroke-opacity: 0.8"/>
     <use xlink:href="#mdcdf631368" x="48.633293" y="184.741232" style="fill: #1a1a1a; fill-opacity: 0.8; stroke: #1a1a1a; stroke-opacity: 0.8"/>
     <use xlink:href="#mdcdf631368" x="48.633293" y="184.910913" style="fill: #1a1a1a; fill-opacity: 0.8; stroke: #1a1a1a; stroke-opacity: 0.8"/>
     <use xlink:href="#mdcdf631368" x="48.633293" y="183.826372" style="fill: #1a1a1a; fill-opacity: 0.8; stroke: #1a1a1a; stroke-opacity: 0.8"/>
     <use xlink:href="#mdcdf631368" x="168.534532" y="86.08189" style="fill: #1a1a1a; fill-opacity: 0.8; stroke: #1a1a1a; stroke-opacity: 0.8"/>
     <use xlink:href="#mdcdf631368" x="202.906393" y="104.565026" style="fill: #1a1a1a; fill-opacity: 0.8; stroke: #1a1a1a; stroke-opacity: 0.8"/>
     <use xlink:href="#mdcdf631368" x="48.633293" y="184.810935" style="fill: #1a1a1a; fill-opacity: 0.8; stroke: #1a1a1a; stroke-opacity: 0.8"/>
     <use xlink:href="#mdcdf631368" x="48.633293" y="184.399987" style="fill: #1a1a1a; fill-opacity: 0.8; stroke: #1a1a1a; stroke-opacity: 0.8"/>
     <use xlink:href="#mdcdf631368" x="48.633293" y="184.028211" style="fill: #1a1a1a; fill-opacity: 0.8; stroke: #1a1a1a; stroke-opacity: 0.8"/>
     <use xlink:href="#mdcdf631368" x="48.633293" y="184.589169" style="fill: #1a1a1a; fill-opacity: 0.8; stroke: #1a1a1a; stroke-opacity: 0.8"/>
     <use xlink:href="#mdcdf631368" x="48.633293" y="184.816066" style="fill: #1a1a1a; fill-opacity: 0.8; stroke: #1a1a1a; stroke-opacity: 0.8"/>
     <use xlink:href="#mdcdf631368" x="48.633293" y="184.718482" style="fill: #1a1a1a; fill-opacity: 0.8; stroke: #1a1a1a; stroke-opacity: 0.8"/>
     <use xlink:href="#mdcdf631368" x="83.831525" y="150.15358" style="fill: #1a1a1a; fill-opacity: 0.8; stroke: #1a1a1a; stroke-opacity: 0.8"/>
     <use xlink:href="#mdcdf631368" x="85.897452" y="153.070151" style="fill: #1a1a1a; fill-opacity: 0.8; stroke: #1a1a1a; stroke-opacity: 0.8"/>
     <use xlink:href="#mdcdf631368" x="113.270985" y="133.30226" style="fill: #1a1a1a; fill-opacity: 0.8; stroke: #1a1a1a; stroke-opacity: 0.8"/>
     <use xlink:href="#mdcdf631368" x="137.700572" y="132.079595" style="fill: #1a1a1a; fill-opacity: 0.8; stroke: #1a1a1a; stroke-opacity: 0.8"/>
     <use xlink:href="#mdcdf631368" x="48.633293" y="184.794856" style="fill: #1a1a1a; fill-opacity: 0.8; stroke: #1a1a1a; stroke-opacity: 0.8"/>
     <use xlink:href="#mdcdf631368" x="48.633293" y="184.910913" style="fill: #1a1a1a; fill-opacity: 0.8; stroke: #1a1a1a; stroke-opacity: 0.8"/>
     <use xlink:href="#mdcdf631368" x="48.633293" y="184.818375" style="fill: #1a1a1a; fill-opacity: 0.8; stroke: #1a1a1a; stroke-opacity: 0.8"/>
     <use xlink:href="#mdcdf631368" x="48.633293" y="184.865927" style="fill: #1a1a1a; fill-opacity: 0.8; stroke: #1a1a1a; stroke-opacity: 0.8"/>
     <use xlink:href="#mdcdf631368" x="48.633293" y="184.706338" style="fill: #1a1a1a; fill-opacity: 0.8; stroke: #1a1a1a; stroke-opacity: 0.8"/>
     <use xlink:href="#mdcdf631368" x="48.633293" y="184.910913" style="fill: #1a1a1a; fill-opacity: 0.8; stroke: #1a1a1a; stroke-opacity: 0.8"/>
     <use xlink:href="#mdcdf631368" x="48.633293" y="184.50869" style="fill: #1a1a1a; fill-opacity: 0.8; stroke: #1a1a1a; stroke-opacity: 0.8"/>
     <use xlink:href="#mdcdf631368" x="48.633293" y="184.643306" style="fill: #1a1a1a; fill-opacity: 0.8; stroke: #1a1a1a; stroke-opacity: 0.8"/>
     <use xlink:href="#mdcdf631368" x="48.633293" y="184.895348" style="fill: #1a1a1a; fill-opacity: 0.8; stroke: #1a1a1a; stroke-opacity: 0.8"/>
     <use xlink:href="#mdcdf631368" x="48.633293" y="165.982791" style="fill: #1a1a1a; fill-opacity: 0.8; stroke: #1a1a1a; stroke-opacity: 0.8"/>
     <use xlink:href="#mdcdf631368" x="48.633293" y="175.098381" style="fill: #1a1a1a; fill-opacity: 0.8; stroke: #1a1a1a; stroke-opacity: 0.8"/>
     <use xlink:href="#mdcdf631368" x="48.633293" y="182.83223" style="fill: #1a1a1a; fill-opacity: 0.8; stroke: #1a1a1a; stroke-opacity: 0.8"/>
     <use xlink:href="#mdcdf631368" x="48.633293" y="184.833855" style="fill: #1a1a1a; fill-opacity: 0.8; stroke: #1a1a1a; stroke-opacity: 0.8"/>
     <use xlink:href="#mdcdf631368" x="48.633293" y="184.385106" style="fill: #1a1a1a; fill-opacity: 0.8; stroke: #1a1a1a; stroke-opacity: 0.8"/>
     <use xlink:href="#mdcdf631368" x="48.633293" y="184.615938" style="fill: #1a1a1a; fill-opacity: 0.8; stroke: #1a1a1a; stroke-opacity: 0.8"/>
     <use xlink:href="#mdcdf631368" x="48.633293" y="184.665115" style="fill: #1a1a1a; fill-opacity: 0.8; stroke: #1a1a1a; stroke-opacity: 0.8"/>
     <use xlink:href="#mdcdf631368" x="48.633293" y="184.795626" style="fill: #1a1a1a; fill-opacity: 0.8; stroke: #1a1a1a; stroke-opacity: 0.8"/>
     <use xlink:href="#mdcdf631368" x="48.633293" y="184.872427" style="fill: #1a1a1a; fill-opacity: 0.8; stroke: #1a1a1a; stroke-opacity: 0.8"/>
     <use xlink:href="#mdcdf631368" x="48.633293" y="184.910913" style="fill: #1a1a1a; fill-opacity: 0.8; stroke: #1a1a1a; stroke-opacity: 0.8"/>
     <use xlink:href="#mdcdf631368" x="48.633293" y="184.214227" style="fill: #1a1a1a; fill-opacity: 0.8; stroke: #1a1a1a; stroke-opacity: 0.8"/>
     <use xlink:href="#mdcdf631368" x="48.633293" y="161.241888" style="fill: #1a1a1a; fill-opacity: 0.8; stroke: #1a1a1a; stroke-opacity: 0.8"/>
     <use xlink:href="#mdcdf631368" x="48.633293" y="184.463276" style="fill: #1a1a1a; fill-opacity: 0.8; stroke: #1a1a1a; stroke-opacity: 0.8"/>
     <use xlink:href="#mdcdf631368" x="48.633293" y="184.677003" style="fill: #1a1a1a; fill-opacity: 0.8; stroke: #1a1a1a; stroke-opacity: 0.8"/>
     <use xlink:href="#mdcdf631368" x="48.633293" y="184.910913" style="fill: #1a1a1a; fill-opacity: 0.8; stroke: #1a1a1a; stroke-opacity: 0.8"/>
     <use xlink:href="#mdcdf631368" x="48.633293" y="184.910913" style="fill: #1a1a1a; fill-opacity: 0.8; stroke: #1a1a1a; stroke-opacity: 0.8"/>
     <use xlink:href="#mdcdf631368" x="48.633293" y="184.910913" style="fill: #1a1a1a; fill-opacity: 0.8; stroke: #1a1a1a; stroke-opacity: 0.8"/>
     <use xlink:href="#mdcdf631368" x="48.633293" y="184.664345" style="fill: #1a1a1a; fill-opacity: 0.8; stroke: #1a1a1a; stroke-opacity: 0.8"/>
     <use xlink:href="#mdcdf631368" x="48.633293" y="184.910913" style="fill: #1a1a1a; fill-opacity: 0.8; stroke: #1a1a1a; stroke-opacity: 0.8"/>
     <use xlink:href="#mdcdf631368" x="48.633293" y="184.910913" style="fill: #1a1a1a; fill-opacity: 0.8; stroke: #1a1a1a; stroke-opacity: 0.8"/>
     <use xlink:href="#mdcdf631368" x="48.633293" y="181.129514" style="fill: #1a1a1a; fill-opacity: 0.8; stroke: #1a1a1a; stroke-opacity: 0.8"/>
     <use xlink:href="#mdcdf631368" x="48.633293" y="170.880206" style="fill: #1a1a1a; fill-opacity: 0.8; stroke: #1a1a1a; stroke-opacity: 0.8"/>
     <use xlink:href="#mdcdf631368" x="48.633293" y="181.332208" style="fill: #1a1a1a; fill-opacity: 0.8; stroke: #1a1a1a; stroke-opacity: 0.8"/>
     <use xlink:href="#mdcdf631368" x="48.633293" y="180.967957" style="fill: #1a1a1a; fill-opacity: 0.8; stroke: #1a1a1a; stroke-opacity: 0.8"/>
     <use xlink:href="#mdcdf631368" x="48.633293" y="184.402126" style="fill: #1a1a1a; fill-opacity: 0.8; stroke: #1a1a1a; stroke-opacity: 0.8"/>
     <use xlink:href="#mdcdf631368" x="48.633293" y="183.935416" style="fill: #1a1a1a; fill-opacity: 0.8; stroke: #1a1a1a; stroke-opacity: 0.8"/>
     <use xlink:href="#mdcdf631368" x="48.633293" y="184.081322" style="fill: #1a1a1a; fill-opacity: 0.8; stroke: #1a1a1a; stroke-opacity: 0.8"/>
     <use xlink:href="#mdcdf631368" x="48.633293" y="183.329386" style="fill: #1a1a1a; fill-opacity: 0.8; stroke: #1a1a1a; stroke-opacity: 0.8"/>
     <use xlink:href="#mdcdf631368" x="48.633293" y="184.910913" style="fill: #1a1a1a; fill-opacity: 0.8; stroke: #1a1a1a; stroke-opacity: 0.8"/>
     <use xlink:href="#mdcdf631368" x="48.633293" y="184.910913" style="fill: #1a1a1a; fill-opacity: 0.8; stroke: #1a1a1a; stroke-opacity: 0.8"/>
     <use xlink:href="#mdcdf631368" x="48.633293" y="184.910913" style="fill: #1a1a1a; fill-opacity: 0.8; stroke: #1a1a1a; stroke-opacity: 0.8"/>
     <use xlink:href="#mdcdf631368" x="48.633293" y="184.69291" style="fill: #1a1a1a; fill-opacity: 0.8; stroke: #1a1a1a; stroke-opacity: 0.8"/>
     <use xlink:href="#mdcdf631368" x="48.633293" y="184.68299" style="fill: #1a1a1a; fill-opacity: 0.8; stroke: #1a1a1a; stroke-opacity: 0.8"/>
     <use xlink:href="#mdcdf631368" x="48.633293" y="184.83377" style="fill: #1a1a1a; fill-opacity: 0.8; stroke: #1a1a1a; stroke-opacity: 0.8"/>
     <use xlink:href="#mdcdf631368" x="48.633293" y="184.811876" style="fill: #1a1a1a; fill-opacity: 0.8; stroke: #1a1a1a; stroke-opacity: 0.8"/>
     <use xlink:href="#mdcdf631368" x="48.633293" y="184.899368" style="fill: #1a1a1a; fill-opacity: 0.8; stroke: #1a1a1a; stroke-opacity: 0.8"/>
     <use xlink:href="#mdcdf631368" x="48.633293" y="184.899368" style="fill: #1a1a1a; fill-opacity: 0.8; stroke: #1a1a1a; stroke-opacity: 0.8"/>
     <use xlink:href="#mdcdf631368" x="48.633293" y="184.910913" style="fill: #1a1a1a; fill-opacity: 0.8; stroke: #1a1a1a; stroke-opacity: 0.8"/>
     <use xlink:href="#mdcdf631368" x="48.633293" y="184.910913" style="fill: #1a1a1a; fill-opacity: 0.8; stroke: #1a1a1a; stroke-opacity: 0.8"/>
     <use xlink:href="#mdcdf631368" x="48.633293" y="184.860112" style="fill: #1a1a1a; fill-opacity: 0.8; stroke: #1a1a1a; stroke-opacity: 0.8"/>
     <use xlink:href="#mdcdf631368" x="48.633293" y="184.910913" style="fill: #1a1a1a; fill-opacity: 0.8; stroke: #1a1a1a; stroke-opacity: 0.8"/>
     <use xlink:href="#mdcdf631368" x="48.633293" y="184.910913" style="fill: #1a1a1a; fill-opacity: 0.8; stroke: #1a1a1a; stroke-opacity: 0.8"/>
     <use xlink:href="#mdcdf631368" x="48.633293" y="184.69291" style="fill: #1a1a1a; fill-opacity: 0.8; stroke: #1a1a1a; stroke-opacity: 0.8"/>
     <use xlink:href="#mdcdf631368" x="48.633293" y="178.733447" style="fill: #1a1a1a; fill-opacity: 0.8; stroke: #1a1a1a; stroke-opacity: 0.8"/>
     <use xlink:href="#mdcdf631368" x="48.633293" y="184.509117" style="fill: #1a1a1a; fill-opacity: 0.8; stroke: #1a1a1a; stroke-opacity: 0.8"/>
     <use xlink:href="#mdcdf631368" x="48.633293" y="184.876276" style="fill: #1a1a1a; fill-opacity: 0.8; stroke: #1a1a1a; stroke-opacity: 0.8"/>
     <use xlink:href="#mdcdf631368" x="48.633293" y="184.56411" style="fill: #1a1a1a; fill-opacity: 0.8; stroke: #1a1a1a; stroke-opacity: 0.8"/>
     <use xlink:href="#mdcdf631368" x="48.633293" y="184.905098" style="fill: #1a1a1a; fill-opacity: 0.8; stroke: #1a1a1a; stroke-opacity: 0.8"/>
     <use xlink:href="#mdcdf631368" x="48.633293" y="184.843862" style="fill: #1a1a1a; fill-opacity: 0.8; stroke: #1a1a1a; stroke-opacity: 0.8"/>
     <use xlink:href="#mdcdf631368" x="48.633293" y="184.893466" style="fill: #1a1a1a; fill-opacity: 0.8; stroke: #1a1a1a; stroke-opacity: 0.8"/>
     <use xlink:href="#mdcdf631368" x="48.633293" y="184.862164" style="fill: #1a1a1a; fill-opacity: 0.8; stroke: #1a1a1a; stroke-opacity: 0.8"/>
     <use xlink:href="#mdcdf631368" x="48.633293" y="184.910913" style="fill: #1a1a1a; fill-opacity: 0.8; stroke: #1a1a1a; stroke-opacity: 0.8"/>
     <use xlink:href="#mdcdf631368" x="48.633293" y="184.910913" style="fill: #1a1a1a; fill-opacity: 0.8; stroke: #1a1a1a; stroke-opacity: 0.8"/>
     <use xlink:href="#mdcdf631368" x="48.633293" y="179.659853" style="fill: #1a1a1a; fill-opacity: 0.8; stroke: #1a1a1a; stroke-opacity: 0.8"/>
     <use xlink:href="#mdcdf631368" x="48.633293" y="179.479652" style="fill: #1a1a1a; fill-opacity: 0.8; stroke: #1a1a1a; stroke-opacity: 0.8"/>
     <use xlink:href="#mdcdf631368" x="48.633293" y="177.101118" style="fill: #1a1a1a; fill-opacity: 0.8; stroke: #1a1a1a; stroke-opacity: 0.8"/>
     <use xlink:href="#mdcdf631368" x="48.633293" y="184.876276" style="fill: #1a1a1a; fill-opacity: 0.8; stroke: #1a1a1a; stroke-opacity: 0.8"/>
     <use xlink:href="#mdcdf631368" x="48.633293" y="180.008966" style="fill: #1a1a1a; fill-opacity: 0.8; stroke: #1a1a1a; stroke-opacity: 0.8"/>
     <use xlink:href="#mdcdf631368" x="52.119545" y="168.129211" style="fill: #1a1a1a; fill-opacity: 0.8; stroke: #1a1a1a; stroke-opacity: 0.8"/>
     <use xlink:href="#mdcdf631368" x="48.633293" y="181.114462" style="fill: #1a1a1a; fill-opacity: 0.8; stroke: #1a1a1a; stroke-opacity: 0.8"/>
     <use xlink:href="#mdcdf631368" x="67.071692" y="177.218801" style="fill: #1a1a1a; fill-opacity: 0.8; stroke: #1a1a1a; stroke-opacity: 0.8"/>
     <use xlink:href="#mdcdf631368" x="48.633293" y="182.531781" style="fill: #1a1a1a; fill-opacity: 0.8; stroke: #1a1a1a; stroke-opacity: 0.8"/>
     <use xlink:href="#mdcdf631368" x="48.633293" y="131.358876" style="fill: #1a1a1a; fill-opacity: 0.8; stroke: #1a1a1a; stroke-opacity: 0.8"/>
     <use xlink:href="#mdcdf631368" x="48.633293" y="163.391642" style="fill: #1a1a1a; fill-opacity: 0.8; stroke: #1a1a1a; stroke-opacity: 0.8"/>
     <use xlink:href="#mdcdf631368" x="97.26005" y="139.527106" style="fill: #1a1a1a; fill-opacity: 0.8; stroke: #1a1a1a; stroke-opacity: 0.8"/>
     <use xlink:href="#mdcdf631368" x="48.633293" y="181.569625" style="fill: #1a1a1a; fill-opacity: 0.8; stroke: #1a1a1a; stroke-opacity: 0.8"/>
     <use xlink:href="#mdcdf631368" x="48.633293" y="182.947518" style="fill: #1a1a1a; fill-opacity: 0.8; stroke: #1a1a1a; stroke-opacity: 0.8"/>
     <use xlink:href="#mdcdf631368" x="48.633293" y="171.741527" style="fill: #1a1a1a; fill-opacity: 0.8; stroke: #1a1a1a; stroke-opacity: 0.8"/>
     <use xlink:href="#mdcdf631368" x="48.633293" y="179.103599" style="fill: #1a1a1a; fill-opacity: 0.8; stroke: #1a1a1a; stroke-opacity: 0.8"/>
     <use xlink:href="#mdcdf631368" x="99.145209" y="161.12506" style="fill: #1a1a1a; fill-opacity: 0.8; stroke: #1a1a1a; stroke-opacity: 0.8"/>
     <use xlink:href="#mdcdf631368" x="48.633293" y="135.486481" style="fill: #1a1a1a; fill-opacity: 0.8; stroke: #1a1a1a; stroke-opacity: 0.8"/>
     <use xlink:href="#mdcdf631368" x="48.633293" y="182.858229" style="fill: #1a1a1a; fill-opacity: 0.8; stroke: #1a1a1a; stroke-opacity: 0.8"/>
     <use xlink:href="#mdcdf631368" x="89.822713" y="164.301371" style="fill: #1a1a1a; fill-opacity: 0.8; stroke: #1a1a1a; stroke-opacity: 0.8"/>
     <use xlink:href="#mdcdf631368" x="96.046318" y="136.781756" style="fill: #1a1a1a; fill-opacity: 0.8; stroke: #1a1a1a; stroke-opacity: 0.8"/>
     <use xlink:href="#mdcdf631368" x="68.285424" y="183.914633" style="fill: #1a1a1a; fill-opacity: 0.8; stroke: #1a1a1a; stroke-opacity: 0.8"/>
     <use xlink:href="#mdcdf631368" x="48.633293" y="170.414522" style="fill: #1a1a1a; fill-opacity: 0.8; stroke: #1a1a1a; stroke-opacity: 0.8"/>
     <use xlink:href="#mdcdf631368" x="48.633293" y="183.22898" style="fill: #1a1a1a; fill-opacity: 0.8; stroke: #1a1a1a; stroke-opacity: 0.8"/>
     <use xlink:href="#mdcdf631368" x="54.288768" y="158.151786" style="fill: #1a1a1a; fill-opacity: 0.8; stroke: #1a1a1a; stroke-opacity: 0.8"/>
     <use xlink:href="#mdcdf631368" x="49.795377" y="160.051295" style="fill: #1a1a1a; fill-opacity: 0.8; stroke: #1a1a1a; stroke-opacity: 0.8"/>
     <use xlink:href="#mdcdf631368" x="48.633293" y="183.736485" style="fill: #1a1a1a; fill-opacity: 0.8; stroke: #1a1a1a; stroke-opacity: 0.8"/>
     <use xlink:href="#mdcdf631368" x="118.616571" y="176.646382" style="fill: #1a1a1a; fill-opacity: 0.8; stroke: #1a1a1a; stroke-opacity: 0.8"/>
     <use xlink:href="#mdcdf631368" x="53.772287" y="146.894395" style="fill: #1a1a1a; fill-opacity: 0.8; stroke: #1a1a1a; stroke-opacity: 0.8"/>
     <use xlink:href="#mdcdf631368" x="52.119545" y="162.211313" style="fill: #1a1a1a; fill-opacity: 0.8; stroke: #1a1a1a; stroke-opacity: 0.8"/>
     <use xlink:href="#mdcdf631368" x="64.050274" y="162.805283" style="fill: #1a1a1a; fill-opacity: 0.8; stroke: #1a1a1a; stroke-opacity: 0.8"/>
     <use xlink:href="#mdcdf631368" x="79.544726" y="154.682296" style="fill: #1a1a1a; fill-opacity: 0.8; stroke: #1a1a1a; stroke-opacity: 0.8"/>
     <use xlink:href="#mdcdf631368" x="73.192001" y="167.552944" style="fill: #1a1a1a; fill-opacity: 0.8; stroke: #1a1a1a; stroke-opacity: 0.8"/>
     <use xlink:href="#mdcdf631368" x="112.367142" y="139.748103" style="fill: #1a1a1a; fill-opacity: 0.8; stroke: #1a1a1a; stroke-opacity: 0.8"/>
     <use xlink:href="#mdcdf631368" x="84.967785" y="156.341822" style="fill: #1a1a1a; fill-opacity: 0.8; stroke: #1a1a1a; stroke-opacity: 0.8"/>
     <use xlink:href="#mdcdf631368" x="123.807212" y="147.851762" style="fill: #1a1a1a; fill-opacity: 0.8; stroke: #1a1a1a; stroke-opacity: 0.8"/>
     <use xlink:href="#mdcdf631368" x="89.022166" y="137.253512" style="fill: #1a1a1a; fill-opacity: 0.8; stroke: #1a1a1a; stroke-opacity: 0.8"/>
     <use xlink:href="#mdcdf631368" x="98.96444" y="139.869035" style="fill: #1a1a1a; fill-opacity: 0.8; stroke: #1a1a1a; stroke-opacity: 0.8"/>
     <use xlink:href="#mdcdf631368" x="100.643006" y="132.703243" style="fill: #1a1a1a; fill-opacity: 0.8; stroke: #1a1a1a; stroke-opacity: 0.8"/>
     <use xlink:href="#mdcdf631368" x="100.565534" y="131.399159" style="fill: #1a1a1a; fill-opacity: 0.8; stroke: #1a1a1a; stroke-opacity: 0.8"/>
     <use xlink:href="#mdcdf631368" x="48.633293" y="181.879653" style="fill: #1a1a1a; fill-opacity: 0.8; stroke: #1a1a1a; stroke-opacity: 0.8"/>
     <use xlink:href="#mdcdf631368" x="48.633293" y="184.427355" style="fill: #1a1a1a; fill-opacity: 0.8; stroke: #1a1a1a; stroke-opacity: 0.8"/>
     <use xlink:href="#mdcdf631368" x="99.868283" y="157.370858" style="fill: #1a1a1a; fill-opacity: 0.8; stroke: #1a1a1a; stroke-opacity: 0.8"/>
     <use xlink:href="#mdcdf631368" x="48.633293" y="184.573261" style="fill: #1a1a1a; fill-opacity: 0.8; stroke: #1a1a1a; stroke-opacity: 0.8"/>
     <use xlink:href="#mdcdf631368" x="48.633293" y="183.983481" style="fill: #1a1a1a; fill-opacity: 0.8; stroke: #1a1a1a; stroke-opacity: 0.8"/>
     <use xlink:href="#mdcdf631368" x="48.633293" y="181.567487" style="fill: #1a1a1a; fill-opacity: 0.8; stroke: #1a1a1a; stroke-opacity: 0.8"/>
     <use xlink:href="#mdcdf631368" x="48.633293" y="174.946232" style="fill: #1a1a1a; fill-opacity: 0.8; stroke: #1a1a1a; stroke-opacity: 0.8"/>
     <use xlink:href="#mdcdf631368" x="48.633293" y="176.658698" style="fill: #1a1a1a; fill-opacity: 0.8; stroke: #1a1a1a; stroke-opacity: 0.8"/>
     <use xlink:href="#mdcdf631368" x="48.633293" y="182.975826" style="fill: #1a1a1a; fill-opacity: 0.8; stroke: #1a1a1a; stroke-opacity: 0.8"/>
     <use xlink:href="#mdcdf631368" x="48.633293" y="175.762568" style="fill: #1a1a1a; fill-opacity: 0.8; stroke: #1a1a1a; stroke-opacity: 0.8"/>
     <use xlink:href="#mdcdf631368" x="66.735979" y="176.199515" style="fill: #1a1a1a; fill-opacity: 0.8; stroke: #1a1a1a; stroke-opacity: 0.8"/>
     <use xlink:href="#mdcdf631368" x="85.122729" y="173.225128" style="fill: #1a1a1a; fill-opacity: 0.8; stroke: #1a1a1a; stroke-opacity: 0.8"/>
     <use xlink:href="#mdcdf631368" x="48.633293" y="162.984544" style="fill: #1a1a1a; fill-opacity: 0.8; stroke: #1a1a1a; stroke-opacity: 0.8"/>
    </g>
   </g>
   <g id="PolyCollection_1">
    <defs>
     <path id="m351f328a4d" d="M 48.633293 -46.623176 
L 48.633293 -43.695315 
L 50.191607 -44.724411 
L 51.749922 -45.697368 
L 53.308236 -46.642597 
L 54.86655 -47.587114 
L 56.424864 -48.507994 
L 57.983178 -49.489133 
L 59.541492 -50.452117 
L 61.099806 -51.40511 
L 62.658121 -52.297908 
L 64.216435 -53.176731 
L 65.774749 -54.046182 
L 67.333063 -54.952527 
L 68.891377 -55.900143 
L 70.449691 -56.785628 
L 72.008005 -57.678836 
L 73.566319 -58.530438 
L 75.124634 -59.403226 
L 76.682948 -60.276556 
L 78.241262 -61.129036 
L 79.799576 -61.956087 
L 81.35789 -62.805755 
L 82.916204 -63.655454 
L 84.474518 -64.479141 
L 86.032833 -65.324094 
L 87.591147 -66.153603 
L 89.149461 -66.983112 
L 90.707775 -67.813024 
L 92.266089 -68.650735 
L 93.824403 -69.513589 
L 95.382717 -70.376443 
L 96.941032 -71.239296 
L 98.499346 -72.10215 
L 100.05766 -72.955687 
L 101.615974 -73.781371 
L 103.174288 -74.607056 
L 104.732602 -75.432741 
L 106.290916 -76.258425 
L 107.849231 -77.08411 
L 109.407545 -77.912391 
L 110.965859 -78.764256 
L 112.524173 -79.61612 
L 114.082487 -80.467985 
L 115.640801 -81.320532 
L 117.199115 -82.173438 
L 118.75743 -83.026343 
L 120.315744 -83.879249 
L 121.874058 -84.732155 
L 123.432372 -85.585061 
L 124.990686 -86.437966 
L 126.549 -87.303214 
L 128.107314 -88.169508 
L 129.665628 -89.030398 
L 131.223943 -89.858523 
L 132.782257 -90.700365 
L 134.340571 -91.546037 
L 135.898885 -92.384276 
L 137.457199 -93.222514 
L 139.015513 -94.060752 
L 140.573827 -94.89899 
L 142.132142 -95.737229 
L 143.690456 -96.575467 
L 145.24877 -97.413705 
L 146.807084 -98.251943 
L 148.365398 -99.090182 
L 149.923712 -99.92842 
L 151.482026 -100.766658 
L 153.040341 -101.604896 
L 154.598655 -102.443135 
L 156.156969 -103.281373 
L 157.715283 -104.119611 
L 159.273597 -104.957849 
L 160.831911 -105.796087 
L 162.390225 -106.634326 
L 163.94854 -107.472564 
L 165.506854 -108.311434 
L 167.065168 -109.150308 
L 168.623482 -109.989182 
L 170.181796 -110.828056 
L 171.74011 -111.66693 
L 173.298424 -112.505804 
L 174.856739 -113.344678 
L 176.415053 -114.183552 
L 177.973367 -115.022426 
L 179.531681 -115.8613 
L 181.089995 -116.700174 
L 182.648309 -117.539048 
L 184.206623 -118.377922 
L 185.764937 -119.216796 
L 187.323252 -120.05567 
L 188.881566 -120.894544 
L 190.43988 -121.733418 
L 191.998194 -122.572292 
L 193.556508 -123.411166 
L 195.114822 -124.25004 
L 196.673136 -125.090158 
L 198.231451 -125.941394 
L 199.789765 -126.792629 
L 201.348079 -127.643865 
L 202.906393 -128.4951 
L 202.906393 -160.406884 
L 202.906393 -160.406884 
L 201.348079 -159.239096 
L 199.789765 -158.071307 
L 198.231451 -156.903518 
L 196.673136 -155.73573 
L 195.114822 -154.567941 
L 193.556508 -153.400152 
L 191.998194 -152.232364 
L 190.43988 -151.064575 
L 188.881566 -149.896786 
L 187.323252 -148.728998 
L 185.764937 -147.561209 
L 184.206623 -146.39342 
L 182.648309 -145.225631 
L 181.089995 -144.057843 
L 179.531681 -142.890054 
L 177.973367 -141.722265 
L 176.415053 -140.554477 
L 174.856739 -139.386688 
L 173.298424 -138.218899 
L 171.74011 -137.051111 
L 170.181796 -135.883322 
L 168.623482 -134.715533 
L 167.065168 -133.547745 
L 165.506854 -132.379956 
L 163.94854 -131.212167 
L 162.390225 -130.044378 
L 160.831911 -128.87659 
L 159.273597 -127.708801 
L 157.715283 -126.541012 
L 156.156969 -125.373224 
L 154.598655 -124.205435 
L 153.040341 -123.037646 
L 151.482026 -121.869858 
L 149.923712 -120.702069 
L 148.365398 -119.53428 
L 146.807084 -118.366491 
L 145.24877 -117.198703 
L 143.690456 -116.030914 
L 142.132142 -114.863125 
L 140.573827 -113.695337 
L 139.015513 -112.527548 
L 137.457199 -111.359759 
L 135.898885 -110.191971 
L 134.340571 -109.024182 
L 132.782257 -107.856393 
L 131.223943 -106.688605 
L 129.665628 -105.520816 
L 128.107314 -104.353027 
L 126.549 -103.185238 
L 124.990686 -102.048352 
L 123.432372 -100.911648 
L 121.874058 -99.745093 
L 120.315744 -98.577915 
L 118.75743 -97.410737 
L 117.199115 -96.243559 
L 115.640801 -95.072419 
L 114.082487 -93.909843 
L 112.524173 -92.74356 
L 110.965859 -91.58114 
L 109.407545 -90.439902 
L 107.849231 -89.298665 
L 106.290916 -88.157428 
L 104.732602 -87.016191 
L 103.174288 -85.874954 
L 101.615974 -84.733717 
L 100.05766 -83.592479 
L 98.499346 -82.485254 
L 96.941032 -81.376864 
L 95.382717 -80.168538 
L 93.824403 -79.026381 
L 92.266089 -77.884225 
L 90.707775 -76.713937 
L 89.149461 -75.495745 
L 87.591147 -74.277489 
L 86.032833 -73.168104 
L 84.474518 -72.048387 
L 82.916204 -70.874482 
L 81.35789 -69.654423 
L 79.799576 -68.474212 
L 78.241262 -67.351469 
L 76.682948 -66.186738 
L 75.124634 -65.051598 
L 73.566319 -63.914803 
L 72.008005 -62.709285 
L 70.449691 -61.53424 
L 68.891377 -60.398049 
L 67.333063 -59.270616 
L 65.774749 -58.173785 
L 64.216435 -57.037999 
L 62.658121 -55.892594 
L 61.099806 -54.790527 
L 59.541492 -53.695307 
L 57.983178 -52.623755 
L 56.424864 -51.582984 
L 54.86655 -50.558689 
L 53.308236 -49.567316 
L 51.749922 -48.590201 
L 50.191607 -47.572338 
L 48.633293 -46.623176 
z
" style="stroke: #ffffff; stroke-opacity: 0.15"/>
    </defs>
    <g clip-path="url(#p35101e2457)">
     <use xlink:href="#m351f328a4d" x="0" y="225.270937" style="fill: #1a1a1a; fill-opacity: 0.15; stroke: #ffffff; stroke-opacity: 0.15"/>
    </g>
   </g>
   <g id="line2d_21">
    <path d="M 48.633293 180.163837 
L 50.191607 179.184428 
L 51.749922 178.205019 
L 53.308236 177.22561 
L 54.86655 176.246202 
L 56.424864 175.266793 
L 57.983178 174.287384 
L 59.541492 173.307975 
L 61.099806 172.328566 
L 62.658121 171.349158 
L 64.216435 170.369749 
L 65.774749 169.39034 
L 67.333063 168.410931 
L 68.891377 167.431523 
L 70.449691 166.452114 
L 72.008005 165.472705 
L 73.566319 164.493296 
L 75.124634 163.513887 
L 76.682948 162.534479 
L 78.241262 161.55507 
L 79.799576 160.575661 
L 81.35789 159.596252 
L 82.916204 158.616844 
L 84.474518 157.637435 
L 86.032833 156.658026 
L 87.591147 155.678617 
L 89.149461 154.699208 
L 90.707775 153.7198 
L 92.266089 152.740391 
L 93.824403 151.760982 
L 95.382717 150.781573 
L 96.941032 149.802165 
L 98.499346 148.822756 
L 100.05766 147.843347 
L 101.615974 146.863938 
L 103.174288 145.884529 
L 104.732602 144.905121 
L 106.290916 143.925712 
L 107.849231 142.946303 
L 109.407545 141.966894 
L 110.965859 140.987486 
L 112.524173 140.008077 
L 114.082487 139.028668 
L 115.640801 138.049259 
L 117.199115 137.069851 
L 118.75743 136.090442 
L 120.315744 135.111033 
L 121.874058 134.131624 
L 123.432372 133.152215 
L 124.990686 132.172807 
L 126.549 131.193398 
L 128.107314 130.213989 
L 129.665628 129.23458 
L 131.223943 128.255172 
L 132.782257 127.275763 
L 134.340571 126.296354 
L 135.898885 125.316945 
L 137.457199 124.337536 
L 139.015513 123.358128 
L 140.573827 122.378719 
L 142.132142 121.39931 
L 143.690456 120.419901 
L 145.24877 119.440493 
L 146.807084 118.461084 
L 148.365398 117.481675 
L 149.923712 116.502266 
L 151.482026 115.522857 
L 153.040341 114.543449 
L 154.598655 113.56404 
L 156.156969 112.584631 
L 157.715283 111.605222 
L 159.273597 110.625814 
L 160.831911 109.646405 
L 162.390225 108.666996 
L 163.94854 107.687587 
L 165.506854 106.708178 
L 167.065168 105.72877 
L 168.623482 104.749361 
L 170.181796 103.769952 
L 171.74011 102.790543 
L 173.298424 101.811135 
L 174.856739 100.831726 
L 176.415053 99.852317 
L 177.973367 98.872908 
L 179.531681 97.893499 
L 181.089995 96.914091 
L 182.648309 95.934682 
L 184.206623 94.955273 
L 185.764937 93.975864 
L 187.323252 92.996456 
L 188.881566 92.017047 
L 190.43988 91.037638 
L 191.998194 90.058229 
L 193.556508 89.07882 
L 195.114822 88.099412 
L 196.673136 87.120003 
L 198.231451 86.140594 
L 199.789765 85.161185 
L 201.348079 84.181777 
L 202.906393 83.202368 
" clip-path="url(#p35101e2457)" style="fill: none; stroke: #1a1a1a; stroke-width: 2.25; stroke-linecap: round"/>
   </g>
   <g id="patch_3">
    <path d="M 45.414062 188.109375 
L 45.414062 21.789375 
" style="fill: none; stroke: #000000; stroke-width: 1.25; stroke-linejoin: miter; stroke-linecap: square"/>
   </g>
   <g id="patch_4">
    <path d="M 212.814063 188.109375 
L 212.814063 21.789375 
" style="fill: none; stroke: #ffffff; stroke-width: 1.25; stroke-linejoin: miter; stroke-linecap: square"/>
   </g>
   <g id="patch_5">
    <path d="M 45.414062 188.109375 
L 212.814062 188.109375 
" style="fill: none; stroke: #000000; stroke-width: 1.25; stroke-linejoin: miter; stroke-linecap: square"/>
   </g>
   <g id="patch_6">
    <path d="M 45.414062 21.789375 
L 212.814062 21.789375 
" style="fill: none; stroke: #ffffff; stroke-width: 1.25; stroke-linejoin: miter; stroke-linecap: square"/>
   </g>
   <g id="text_13">
    <!-- Pearsons r = 0.76 -->
    <g style="fill: #262626" transform="translate(78.894063 38.421375) scale(0.12 -0.12)">
     <defs>
      <path id="ArialMT-73" d="M 197 991 
L 753 1078 
Q 800 744 1014 566 
Q 1228 388 1613 388 
Q 2000 388 2187 545 
Q 2375 703 2375 916 
Q 2375 1106 2209 1216 
Q 2094 1291 1634 1406 
Q 1016 1563 777 1677 
Q 538 1791 414 1992 
Q 291 2194 291 2438 
Q 291 2659 392 2848 
Q 494 3038 669 3163 
Q 800 3259 1026 3326 
Q 1253 3394 1513 3394 
Q 1903 3394 2198 3281 
Q 2494 3169 2634 2976 
Q 2775 2784 2828 2463 
L 2278 2388 
Q 2241 2644 2061 2787 
Q 1881 2931 1553 2931 
Q 1166 2931 1000 2803 
Q 834 2675 834 2503 
Q 834 2394 903 2306 
Q 972 2216 1119 2156 
Q 1203 2125 1616 2013 
Q 2213 1853 2448 1751 
Q 2684 1650 2818 1456 
Q 2953 1263 2953 975 
Q 2953 694 2789 445 
Q 2625 197 2315 61 
Q 2006 -75 1616 -75 
Q 969 -75 630 194 
Q 291 463 197 991 
z
" transform="scale(0.015625)"/>
      <path id="ArialMT-3d" d="M 3381 2694 
L 356 2694 
L 356 3219 
L 3381 3219 
L 3381 2694 
z
M 3381 1303 
L 356 1303 
L 356 1828 
L 3381 1828 
L 3381 1303 
z
" transform="scale(0.015625)"/>
      <path id="ArialMT-36" d="M 3184 3459 
L 2625 3416 
Q 2550 3747 2413 3897 
Q 2184 4138 1850 4138 
Q 1581 4138 1378 3988 
Q 1113 3794 959 3422 
Q 806 3050 800 2363 
Q 1003 2672 1297 2822 
Q 1591 2972 1913 2972 
Q 2475 2972 2870 2558 
Q 3266 2144 3266 1488 
Q 3266 1056 3080 686 
Q 2894 316 2569 119 
Q 2244 -78 1831 -78 
Q 1128 -78 684 439 
Q 241 956 241 2144 
Q 241 3472 731 4075 
Q 1159 4600 1884 4600 
Q 2425 4600 2770 4297 
Q 3116 3994 3184 3459 
z
M 888 1484 
Q 888 1194 1011 928 
Q 1134 663 1356 523 
Q 1578 384 1822 384 
Q 2178 384 2434 671 
Q 2691 959 2691 1453 
Q 2691 1928 2437 2201 
Q 2184 2475 1800 2475 
Q 1419 2475 1153 2201 
Q 888 1928 888 1484 
z
" transform="scale(0.015625)"/>
     </defs>
     <use xlink:href="#ArialMT-50"/>
     <use xlink:href="#ArialMT-65" x="66.699219"/>
     <use xlink:href="#ArialMT-61" x="122.314453"/>
     <use xlink:href="#ArialMT-72" x="177.929688"/>
     <use xlink:href="#ArialMT-73" x="211.230469"/>
     <use xlink:href="#ArialMT-6f" x="261.230469"/>
     <use xlink:href="#ArialMT-6e" x="316.845703"/>
     <use xlink:href="#ArialMT-73" x="372.460938"/>
     <use xlink:href="#ArialMT-20" x="422.460938"/>
     <use xlink:href="#ArialMT-72" x="450.244141"/>
     <use xlink:href="#ArialMT-20" x="483.544922"/>
     <use xlink:href="#ArialMT-3d" x="511.328125"/>
     <use xlink:href="#ArialMT-20" x="569.726562"/>
     <use xlink:href="#ArialMT-30" x="597.509766"/>
     <use xlink:href="#ArialMT-2e" x="653.125"/>
     <use xlink:href="#ArialMT-37" x="680.908203"/>
     <use xlink:href="#ArialMT-36" x="736.523438"/>
    </g>
   </g>
   <g id="text_14">
    <!-- Spearmans r = 0.58 -->
    <g style="fill: #262626" transform="translate(78.894063 55.053375) scale(0.12 -0.12)">
     <defs>
      <path id="ArialMT-53" d="M 288 1472 
L 859 1522 
Q 900 1178 1048 958 
Q 1197 738 1509 602 
Q 1822 466 2213 466 
Q 2559 466 2825 569 
Q 3091 672 3220 851 
Q 3350 1031 3350 1244 
Q 3350 1459 3225 1620 
Q 3100 1781 2813 1891 
Q 2628 1963 1997 2114 
Q 1366 2266 1113 2400 
Q 784 2572 623 2826 
Q 463 3081 463 3397 
Q 463 3744 659 4045 
Q 856 4347 1234 4503 
Q 1613 4659 2075 4659 
Q 2584 4659 2973 4495 
Q 3363 4331 3572 4012 
Q 3781 3694 3797 3291 
L 3216 3247 
Q 3169 3681 2898 3903 
Q 2628 4125 2100 4125 
Q 1550 4125 1298 3923 
Q 1047 3722 1047 3438 
Q 1047 3191 1225 3031 
Q 1400 2872 2139 2705 
Q 2878 2538 3153 2413 
Q 3553 2228 3743 1945 
Q 3934 1663 3934 1294 
Q 3934 928 3725 604 
Q 3516 281 3123 101 
Q 2731 -78 2241 -78 
Q 1619 -78 1198 103 
Q 778 284 539 648 
Q 300 1013 288 1472 
z
" transform="scale(0.015625)"/>
      <path id="ArialMT-38" d="M 1131 2484 
Q 781 2613 612 2850 
Q 444 3088 444 3419 
Q 444 3919 803 4259 
Q 1163 4600 1759 4600 
Q 2359 4600 2725 4251 
Q 3091 3903 3091 3403 
Q 3091 3084 2923 2848 
Q 2756 2613 2416 2484 
Q 2838 2347 3058 2040 
Q 3278 1734 3278 1309 
Q 3278 722 2862 322 
Q 2447 -78 1769 -78 
Q 1091 -78 675 323 
Q 259 725 259 1325 
Q 259 1772 486 2073 
Q 713 2375 1131 2484 
z
M 1019 3438 
Q 1019 3113 1228 2906 
Q 1438 2700 1772 2700 
Q 2097 2700 2305 2904 
Q 2513 3109 2513 3406 
Q 2513 3716 2298 3927 
Q 2084 4138 1766 4138 
Q 1444 4138 1231 3931 
Q 1019 3725 1019 3438 
z
M 838 1322 
Q 838 1081 952 856 
Q 1066 631 1291 507 
Q 1516 384 1775 384 
Q 2178 384 2440 643 
Q 2703 903 2703 1303 
Q 2703 1709 2433 1975 
Q 2163 2241 1756 2241 
Q 1359 2241 1098 1978 
Q 838 1716 838 1322 
z
" transform="scale(0.015625)"/>
     </defs>
     <use xlink:href="#ArialMT-53"/>
     <use xlink:href="#ArialMT-70" x="66.699219"/>
     <use xlink:href="#ArialMT-65" x="122.314453"/>
     <use xlink:href="#ArialMT-61" x="177.929688"/>
     <use xlink:href="#ArialMT-72" x="233.544922"/>
     <use xlink:href="#ArialMT-6d" x="266.845703"/>
     <use xlink:href="#ArialMT-61" x="350.146484"/>
     <use xlink:href="#ArialMT-6e" x="405.761719"/>
     <use xlink:href="#ArialMT-73" x="461.376953"/>
     <use xlink:href="#ArialMT-20" x="511.376953"/>
     <use xlink:href="#ArialMT-72" x="539.160156"/>
     <use xlink:href="#ArialMT-20" x="572.460938"/>
     <use xlink:href="#ArialMT-3d" x="600.244141"/>
     <use xlink:href="#ArialMT-20" x="658.642578"/>
     <use xlink:href="#ArialMT-30" x="686.425781"/>
     <use xlink:href="#ArialMT-2e" x="742.041016"/>
     <use xlink:href="#ArialMT-35" x="769.824219"/>
     <use xlink:href="#ArialMT-38" x="825.439453"/>
    </g>
   </g>
   <g id="text_15">
    <!-- Hold-out Set Performance -->
    <g style="fill: #262626" transform="translate(55.107812 15.789375) scale(0.12 -0.12)">
     <defs>
      <path id="Arial-BoldMT-48" d="M 469 0 
L 469 4581 
L 1394 4581 
L 1394 2778 
L 3206 2778 
L 3206 4581 
L 4131 4581 
L 4131 0 
L 3206 0 
L 3206 2003 
L 1394 2003 
L 1394 0 
L 469 0 
z
" transform="scale(0.015625)"/>
      <path id="Arial-BoldMT-6f" d="M 256 1706 
Q 256 2144 472 2553 
Q 688 2963 1083 3178 
Q 1478 3394 1966 3394 
Q 2719 3394 3200 2905 
Q 3681 2416 3681 1669 
Q 3681 916 3195 420 
Q 2709 -75 1972 -75 
Q 1516 -75 1102 131 
Q 688 338 472 736 
Q 256 1134 256 1706 
z
M 1156 1659 
Q 1156 1166 1390 903 
Q 1625 641 1969 641 
Q 2313 641 2545 903 
Q 2778 1166 2778 1666 
Q 2778 2153 2545 2415 
Q 2313 2678 1969 2678 
Q 1625 2678 1390 2415 
Q 1156 2153 1156 1659 
z
" transform="scale(0.015625)"/>
      <path id="Arial-BoldMT-6c" d="M 459 0 
L 459 4581 
L 1338 4581 
L 1338 0 
L 459 0 
z
" transform="scale(0.015625)"/>
      <path id="Arial-BoldMT-64" d="M 3503 0 
L 2688 0 
L 2688 488 
Q 2484 203 2207 64 
Q 1931 -75 1650 -75 
Q 1078 -75 670 386 
Q 263 847 263 1672 
Q 263 2516 659 2955 
Q 1056 3394 1663 3394 
Q 2219 3394 2625 2931 
L 2625 4581 
L 3503 4581 
L 3503 0 
z
M 1159 1731 
Q 1159 1200 1306 963 
Q 1519 619 1900 619 
Q 2203 619 2415 876 
Q 2628 1134 2628 1647 
Q 2628 2219 2422 2470 
Q 2216 2722 1894 2722 
Q 1581 2722 1370 2473 
Q 1159 2225 1159 1731 
z
" transform="scale(0.015625)"/>
      <path id="Arial-BoldMT-2d" d="M 359 1222 
L 359 2100 
L 2084 2100 
L 2084 1222 
L 359 1222 
z
" transform="scale(0.015625)"/>
      <path id="Arial-BoldMT-75" d="M 2644 0 
L 2644 497 
Q 2463 231 2167 78 
Q 1872 -75 1544 -75 
Q 1209 -75 943 72 
Q 678 219 559 484 
Q 441 750 441 1219 
L 441 3319 
L 1319 3319 
L 1319 1794 
Q 1319 1094 1367 936 
Q 1416 778 1544 686 
Q 1672 594 1869 594 
Q 2094 594 2272 717 
Q 2450 841 2515 1023 
Q 2581 1206 2581 1919 
L 2581 3319 
L 3459 3319 
L 3459 0 
L 2644 0 
z
" transform="scale(0.015625)"/>
      <path id="Arial-BoldMT-74" d="M 1981 3319 
L 1981 2619 
L 1381 2619 
L 1381 1281 
Q 1381 875 1398 808 
Q 1416 741 1477 697 
Q 1538 653 1625 653 
Q 1747 653 1978 738 
L 2053 56 
Q 1747 -75 1359 -75 
Q 1122 -75 931 4 
Q 741 84 652 211 
Q 563 338 528 553 
Q 500 706 500 1172 
L 500 2619 
L 97 2619 
L 97 3319 
L 500 3319 
L 500 3978 
L 1381 4491 
L 1381 3319 
L 1981 3319 
z
" transform="scale(0.015625)"/>
      <path id="Arial-BoldMT-20" transform="scale(0.015625)"/>
      <path id="Arial-BoldMT-53" d="M 231 1491 
L 1131 1578 
Q 1213 1125 1461 912 
Q 1709 700 2131 700 
Q 2578 700 2804 889 
Q 3031 1078 3031 1331 
Q 3031 1494 2936 1608 
Q 2841 1722 2603 1806 
Q 2441 1863 1863 2006 
Q 1119 2191 819 2459 
Q 397 2838 397 3381 
Q 397 3731 595 4036 
Q 794 4341 1167 4500 
Q 1541 4659 2069 4659 
Q 2931 4659 3367 4281 
Q 3803 3903 3825 3272 
L 2900 3231 
Q 2841 3584 2645 3739 
Q 2450 3894 2059 3894 
Q 1656 3894 1428 3728 
Q 1281 3622 1281 3444 
Q 1281 3281 1419 3166 
Q 1594 3019 2269 2859 
Q 2944 2700 3267 2529 
Q 3591 2359 3773 2064 
Q 3956 1769 3956 1334 
Q 3956 941 3737 597 
Q 3519 253 3119 86 
Q 2719 -81 2122 -81 
Q 1253 -81 787 320 
Q 322 722 231 1491 
z
" transform="scale(0.015625)"/>
      <path id="Arial-BoldMT-65" d="M 2381 1056 
L 3256 909 
Q 3088 428 2723 176 
Q 2359 -75 1813 -75 
Q 947 -75 531 491 
Q 203 944 203 1634 
Q 203 2459 634 2926 
Q 1066 3394 1725 3394 
Q 2466 3394 2894 2905 
Q 3322 2416 3303 1406 
L 1103 1406 
Q 1113 1016 1316 798 
Q 1519 581 1822 581 
Q 2028 581 2168 693 
Q 2309 806 2381 1056 
z
M 2431 1944 
Q 2422 2325 2234 2523 
Q 2047 2722 1778 2722 
Q 1491 2722 1303 2513 
Q 1116 2303 1119 1944 
L 2431 1944 
z
" transform="scale(0.015625)"/>
      <path id="Arial-BoldMT-50" d="M 466 0 
L 466 4581 
L 1950 4581 
Q 2794 4581 3050 4513 
Q 3444 4409 3709 4064 
Q 3975 3719 3975 3172 
Q 3975 2750 3822 2462 
Q 3669 2175 3433 2011 
Q 3197 1847 2953 1794 
Q 2622 1728 1994 1728 
L 1391 1728 
L 1391 0 
L 466 0 
z
M 1391 3806 
L 1391 2506 
L 1897 2506 
Q 2444 2506 2628 2578 
Q 2813 2650 2917 2803 
Q 3022 2956 3022 3159 
Q 3022 3409 2875 3571 
Q 2728 3734 2503 3775 
Q 2338 3806 1838 3806 
L 1391 3806 
z
" transform="scale(0.015625)"/>
      <path id="Arial-BoldMT-72" d="M 1300 0 
L 422 0 
L 422 3319 
L 1238 3319 
L 1238 2847 
Q 1447 3181 1614 3287 
Q 1781 3394 1994 3394 
Q 2294 3394 2572 3228 
L 2300 2463 
Q 2078 2606 1888 2606 
Q 1703 2606 1575 2504 
Q 1447 2403 1373 2137 
Q 1300 1872 1300 1025 
L 1300 0 
z
" transform="scale(0.015625)"/>
      <path id="Arial-BoldMT-66" d="M 75 3319 
L 563 3319 
L 563 3569 
Q 563 3988 652 4194 
Q 741 4400 980 4529 
Q 1219 4659 1584 4659 
Q 1959 4659 2319 4547 
L 2200 3934 
Q 1991 3984 1797 3984 
Q 1606 3984 1523 3895 
Q 1441 3806 1441 3553 
L 1441 3319 
L 2097 3319 
L 2097 2628 
L 1441 2628 
L 1441 0 
L 563 0 
L 563 2628 
L 75 2628 
L 75 3319 
z
" transform="scale(0.015625)"/>
      <path id="Arial-BoldMT-6d" d="M 394 3319 
L 1203 3319 
L 1203 2866 
Q 1638 3394 2238 3394 
Q 2556 3394 2790 3262 
Q 3025 3131 3175 2866 
Q 3394 3131 3647 3262 
Q 3900 3394 4188 3394 
Q 4553 3394 4806 3245 
Q 5059 3097 5184 2809 
Q 5275 2597 5275 2122 
L 5275 0 
L 4397 0 
L 4397 1897 
Q 4397 2391 4306 2534 
Q 4184 2722 3931 2722 
Q 3747 2722 3584 2609 
Q 3422 2497 3350 2280 
Q 3278 2063 3278 1594 
L 3278 0 
L 2400 0 
L 2400 1819 
Q 2400 2303 2353 2443 
Q 2306 2584 2207 2653 
Q 2109 2722 1941 2722 
Q 1738 2722 1575 2612 
Q 1413 2503 1342 2297 
Q 1272 2091 1272 1613 
L 1272 0 
L 394 0 
L 394 3319 
z
" transform="scale(0.015625)"/>
      <path id="Arial-BoldMT-61" d="M 1116 2306 
L 319 2450 
Q 453 2931 781 3162 
Q 1109 3394 1756 3394 
Q 2344 3394 2631 3255 
Q 2919 3116 3036 2902 
Q 3153 2688 3153 2116 
L 3144 1091 
Q 3144 653 3186 445 
Q 3228 238 3344 0 
L 2475 0 
Q 2441 88 2391 259 
Q 2369 338 2359 363 
Q 2134 144 1878 34 
Q 1622 -75 1331 -75 
Q 819 -75 523 203 
Q 228 481 228 906 
Q 228 1188 362 1408 
Q 497 1628 739 1745 
Q 981 1863 1438 1950 
Q 2053 2066 2291 2166 
L 2291 2253 
Q 2291 2506 2166 2614 
Q 2041 2722 1694 2722 
Q 1459 2722 1328 2630 
Q 1197 2538 1116 2306 
z
M 2291 1594 
Q 2122 1538 1756 1459 
Q 1391 1381 1278 1306 
Q 1106 1184 1106 997 
Q 1106 813 1243 678 
Q 1381 544 1594 544 
Q 1831 544 2047 700 
Q 2206 819 2256 991 
Q 2291 1103 2291 1419 
L 2291 1594 
z
" transform="scale(0.015625)"/>
      <path id="Arial-BoldMT-6e" d="M 3478 0 
L 2600 0 
L 2600 1694 
Q 2600 2231 2544 2389 
Q 2488 2547 2361 2634 
Q 2234 2722 2056 2722 
Q 1828 2722 1647 2597 
Q 1466 2472 1398 2265 
Q 1331 2059 1331 1503 
L 1331 0 
L 453 0 
L 453 3319 
L 1269 3319 
L 1269 2831 
Q 1703 3394 2363 3394 
Q 2653 3394 2893 3289 
Q 3134 3184 3257 3021 
Q 3381 2859 3429 2653 
Q 3478 2447 3478 2063 
L 3478 0 
z
" transform="scale(0.015625)"/>
      <path id="Arial-BoldMT-63" d="M 3353 2338 
L 2488 2181 
Q 2444 2441 2289 2572 
Q 2134 2703 1888 2703 
Q 1559 2703 1364 2476 
Q 1169 2250 1169 1719 
Q 1169 1128 1367 884 
Q 1566 641 1900 641 
Q 2150 641 2309 783 
Q 2469 925 2534 1272 
L 3397 1125 
Q 3263 531 2881 228 
Q 2500 -75 1859 -75 
Q 1131 -75 698 384 
Q 266 844 266 1656 
Q 266 2478 700 2936 
Q 1134 3394 1875 3394 
Q 2481 3394 2839 3133 
Q 3197 2872 3353 2338 
z
" transform="scale(0.015625)"/>
     </defs>
     <use xlink:href="#Arial-BoldMT-48"/>
     <use xlink:href="#Arial-BoldMT-6f" x="72.216797"/>
     <use xlink:href="#Arial-BoldMT-6c" x="133.300781"/>
     <use xlink:href="#Arial-BoldMT-64" x="161.083984"/>
     <use xlink:href="#Arial-BoldMT-2d" x="222.167969"/>
     <use xlink:href="#Arial-BoldMT-6f" x="255.46875"/>
     <use xlink:href="#Arial-BoldMT-75" x="316.552734"/>
     <use xlink:href="#Arial-BoldMT-74" x="377.636719"/>
     <use xlink:href="#Arial-BoldMT-20" x="410.9375"/>
     <use xlink:href="#Arial-BoldMT-53" x="438.720703"/>
     <use xlink:href="#Arial-BoldMT-65" x="505.419922"/>
     <use xlink:href="#Arial-BoldMT-74" x="561.035156"/>
     <use xlink:href="#Arial-BoldMT-20" x="594.335938"/>
     <use xlink:href="#Arial-BoldMT-50" x="622.119141"/>
     <use xlink:href="#Arial-BoldMT-65" x="688.818359"/>
     <use xlink:href="#Arial-BoldMT-72" x="744.433594"/>
     <use xlink:href="#Arial-BoldMT-66" x="783.349609"/>
     <use xlink:href="#Arial-BoldMT-6f" x="816.650391"/>
     <use xlink:href="#Arial-BoldMT-72" x="877.734375"/>
     <use xlink:href="#Arial-BoldMT-6d" x="916.650391"/>
     <use xlink:href="#Arial-BoldMT-61" x="1005.566406"/>
     <use xlink:href="#Arial-BoldMT-6e" x="1061.181641"/>
     <use xlink:href="#Arial-BoldMT-63" x="1122.265625"/>
     <use xlink:href="#Arial-BoldMT-65" x="1177.880859"/>
    </g>
   </g>
  </g>
 </g>
 <defs>
  <clipPath id="p35101e2457">
   <rect x="45.414062" y="21.789375" width="167.4" height="166.32"/>
  </clipPath>
 </defs>
</svg>
