<?xml version="1.0" encoding="utf-8" standalone="no"?>
<!DOCTYPE svg PUBLIC "-//W3C//DTD SVG 1.1//EN"
  "http://www.w3.org/Graphics/SVG/1.1/DTD/svg11.dtd">
<svg xmlns:xlink="http://www.w3.org/1999/xlink" width="198.02956pt" height="187.534219pt" viewBox="0 0 198.02956 187.534219" xmlns="http://www.w3.org/2000/svg" version="1.1">
 <metadata>
  <rdf:RDF xmlns:dc="http://purl.org/dc/elements/1.1/" xmlns:cc="http://creativecommons.org/ns#" xmlns:rdf="http://www.w3.org/1999/02/22-rdf-syntax-ns#">
   <cc:Work>
    <dc:type rdf:resource="http://purl.org/dc/dcmitype/StillImage"/>
    <dc:date>2023-11-28T16:12:26.970216</dc:date>
    <dc:format>image/svg+xml</dc:format>
    <dc:creator>
     <cc:Agent>
      <dc:title>Matplotlib v3.6.3, https://matplotlib.org/</dc:title>
     </cc:Agent>
    </dc:creator>
   </cc:Work>
  </rdf:RDF>
 </metadata>
 <defs>
  <style type="text/css">*{stroke-linejoin: round; stroke-linecap: butt}</style>
 </defs>
 <g id="figure_1">
  <g id="patch_1">
   <path d="M 0 187.534219 
L 198.02956 187.534219 
L 198.02956 0 
L 0 0 
L 0 187.534219 
z
" style="fill: none"/>
  </g>
  <g id="axes_1">
   <g id="patch_2">
    <path d="M 50.025469 145.8 
L 189.525469 145.8 
L 189.525469 7.2 
L 50.025469 7.2 
L 50.025469 145.8 
z
" style="fill: none"/>
   </g>
   <g id="matplotlib.axis_1">
    <g id="xtick_1">
     <g id="text_1">
      <!-- 0.5 -->
      <g style="fill: #262626" transform="translate(107.963264 163.173594) scale(0.11 -0.11)">
       <defs>
        <path id="ArialMT-30" d="M 266 2259 
Q 266 3072 433 3567 
Q 600 4063 929 4331 
Q 1259 4600 1759 4600 
Q 2128 4600 2406 4451 
Q 2684 4303 2865 4023 
Q 3047 3744 3150 3342 
Q 3253 2941 3253 2259 
Q 3253 1453 3087 958 
Q 2922 463 2592 192 
Q 2263 -78 1759 -78 
Q 1097 -78 719 397 
Q 266 969 266 2259 
z
M 844 2259 
Q 844 1131 1108 757 
Q 1372 384 1759 384 
Q 2147 384 2411 759 
Q 2675 1134 2675 2259 
Q 2675 3391 2411 3762 
Q 2147 4134 1753 4134 
Q 1366 4134 1134 3806 
Q 844 3388 844 2259 
z
" transform="scale(0.015625)"/>
        <path id="ArialMT-2e" d="M 581 0 
L 581 641 
L 1222 641 
L 1222 0 
L 581 0 
z
" transform="scale(0.015625)"/>
        <path id="ArialMT-35" d="M 266 1200 
L 856 1250 
Q 922 819 1161 601 
Q 1400 384 1738 384 
Q 2144 384 2425 690 
Q 2706 997 2706 1503 
Q 2706 1984 2436 2262 
Q 2166 2541 1728 2541 
Q 1456 2541 1237 2417 
Q 1019 2294 894 2097 
L 366 2166 
L 809 4519 
L 3088 4519 
L 3088 3981 
L 1259 3981 
L 1013 2750 
Q 1425 3038 1878 3038 
Q 2478 3038 2890 2622 
Q 3303 2206 3303 1553 
Q 3303 931 2941 478 
Q 2500 -78 1738 -78 
Q 1113 -78 717 272 
Q 322 622 266 1200 
z
" transform="scale(0.015625)"/>
       </defs>
       <use xlink:href="#ArialMT-30"/>
       <use xlink:href="#ArialMT-2e" x="55.615234"/>
       <use xlink:href="#ArialMT-35" x="83.398438"/>
      </g>
     </g>
    </g>
    <g id="xtick_2">
     <g id="text_2">
      <!-- 1.0 -->
      <g style="fill: #262626" transform="translate(175.53956 163.173594) scale(0.11 -0.11)">
       <defs>
        <path id="ArialMT-31" d="M 2384 0 
L 1822 0 
L 1822 3584 
Q 1619 3391 1289 3197 
Q 959 3003 697 2906 
L 697 3450 
Q 1169 3672 1522 3987 
Q 1875 4303 2022 4600 
L 2384 4600 
L 2384 0 
z
" transform="scale(0.015625)"/>
       </defs>
       <use xlink:href="#ArialMT-31"/>
       <use xlink:href="#ArialMT-2e" x="55.615234"/>
       <use xlink:href="#ArialMT-30" x="83.398438"/>
      </g>
     </g>
    </g>
    <g id="text_3">
     <!-- PDI -->
     <g transform="translate(109.773281 177.949219) scale(0.12 -0.12)">
      <defs>
       <path id="ArialMT-50" d="M 494 0 
L 494 4581 
L 2222 4581 
Q 2678 4581 2919 4538 
Q 3256 4481 3484 4323 
Q 3713 4166 3852 3881 
Q 3991 3597 3991 3256 
Q 3991 2672 3619 2267 
Q 3247 1863 2275 1863 
L 1100 1863 
L 1100 0 
L 494 0 
z
M 1100 2403 
L 2284 2403 
Q 2872 2403 3119 2622 
Q 3366 2841 3366 3238 
Q 3366 3525 3220 3729 
Q 3075 3934 2838 4000 
Q 2684 4041 2272 4041 
L 1100 4041 
L 1100 2403 
z
" transform="scale(0.015625)"/>
       <path id="ArialMT-44" d="M 494 0 
L 494 4581 
L 2072 4581 
Q 2606 4581 2888 4516 
Q 3281 4425 3559 4188 
Q 3922 3881 4101 3404 
Q 4281 2928 4281 2316 
Q 4281 1794 4159 1391 
Q 4038 988 3847 723 
Q 3656 459 3429 307 
Q 3203 156 2883 78 
Q 2563 0 2147 0 
L 494 0 
z
M 1100 541 
L 2078 541 
Q 2531 541 2789 625 
Q 3047 709 3200 863 
Q 3416 1078 3536 1442 
Q 3656 1806 3656 2325 
Q 3656 3044 3420 3430 
Q 3184 3816 2847 3947 
Q 2603 4041 2063 4041 
L 1100 4041 
L 1100 541 
z
" transform="scale(0.015625)"/>
       <path id="ArialMT-49" d="M 597 0 
L 597 4581 
L 1203 4581 
L 1203 0 
L 597 0 
z
" transform="scale(0.015625)"/>
      </defs>
      <use xlink:href="#ArialMT-50"/>
      <use xlink:href="#ArialMT-44" x="66.699219"/>
      <use xlink:href="#ArialMT-49" x="138.916016"/>
     </g>
    </g>
   </g>
   <g id="matplotlib.axis_2">
    <g id="ytick_1">
     <g id="text_4">
      <!-- 0 -->
      <g style="fill: #262626" transform="translate(34.408438 149.736797) scale(0.11 -0.11)">
       <use xlink:href="#ArialMT-30"/>
      </g>
     </g>
    </g>
    <g id="ytick_2">
     <g id="text_5">
      <!-- 50 -->
      <g style="fill: #262626" transform="translate(28.291406 112.865288) scale(0.11 -0.11)">
       <use xlink:href="#ArialMT-35"/>
       <use xlink:href="#ArialMT-30" x="55.615234"/>
      </g>
     </g>
    </g>
    <g id="ytick_3">
     <g id="text_6">
      <!-- 100 -->
      <g style="fill: #262626" transform="translate(22.174375 75.99378) scale(0.11 -0.11)">
       <use xlink:href="#ArialMT-31"/>
       <use xlink:href="#ArialMT-30" x="55.615234"/>
       <use xlink:href="#ArialMT-30" x="111.230469"/>
      </g>
     </g>
    </g>
    <g id="ytick_4">
     <g id="text_7">
      <!-- 150 -->
      <g style="fill: #262626" transform="translate(22.174375 39.122272) scale(0.11 -0.11)">
       <use xlink:href="#ArialMT-31"/>
       <use xlink:href="#ArialMT-35" x="55.615234"/>
       <use xlink:href="#ArialMT-30" x="111.230469"/>
      </g>
     </g>
    </g>
    <g id="text_8">
     <!-- Count -->
     <g transform="translate(15.789375 92.509688) rotate(-90) scale(0.12 -0.12)">
      <defs>
       <path id="ArialMT-43" d="M 3763 1606 
L 4369 1453 
Q 4178 706 3683 314 
Q 3188 -78 2472 -78 
Q 1731 -78 1267 223 
Q 803 525 561 1097 
Q 319 1669 319 2325 
Q 319 3041 592 3573 
Q 866 4106 1370 4382 
Q 1875 4659 2481 4659 
Q 3169 4659 3637 4309 
Q 4106 3959 4291 3325 
L 3694 3184 
Q 3534 3684 3231 3912 
Q 2928 4141 2469 4141 
Q 1941 4141 1586 3887 
Q 1231 3634 1087 3207 
Q 944 2781 944 2328 
Q 944 1744 1114 1308 
Q 1284 872 1643 656 
Q 2003 441 2422 441 
Q 2931 441 3284 734 
Q 3638 1028 3763 1606 
z
" transform="scale(0.015625)"/>
       <path id="ArialMT-6f" d="M 213 1659 
Q 213 2581 725 3025 
Q 1153 3394 1769 3394 
Q 2453 3394 2887 2945 
Q 3322 2497 3322 1706 
Q 3322 1066 3130 698 
Q 2938 331 2570 128 
Q 2203 -75 1769 -75 
Q 1072 -75 642 372 
Q 213 819 213 1659 
z
M 791 1659 
Q 791 1022 1069 705 
Q 1347 388 1769 388 
Q 2188 388 2466 706 
Q 2744 1025 2744 1678 
Q 2744 2294 2464 2611 
Q 2184 2928 1769 2928 
Q 1347 2928 1069 2612 
Q 791 2297 791 1659 
z
" transform="scale(0.015625)"/>
       <path id="ArialMT-75" d="M 2597 0 
L 2597 488 
Q 2209 -75 1544 -75 
Q 1250 -75 995 37 
Q 741 150 617 320 
Q 494 491 444 738 
Q 409 903 409 1263 
L 409 3319 
L 972 3319 
L 972 1478 
Q 972 1038 1006 884 
Q 1059 663 1231 536 
Q 1403 409 1656 409 
Q 1909 409 2131 539 
Q 2353 669 2445 892 
Q 2538 1116 2538 1541 
L 2538 3319 
L 3100 3319 
L 3100 0 
L 2597 0 
z
" transform="scale(0.015625)"/>
       <path id="ArialMT-6e" d="M 422 0 
L 422 3319 
L 928 3319 
L 928 2847 
Q 1294 3394 1984 3394 
Q 2284 3394 2536 3286 
Q 2788 3178 2913 3003 
Q 3038 2828 3088 2588 
Q 3119 2431 3119 2041 
L 3119 0 
L 2556 0 
L 2556 2019 
Q 2556 2363 2490 2533 
Q 2425 2703 2258 2804 
Q 2091 2906 1866 2906 
Q 1506 2906 1245 2678 
Q 984 2450 984 1813 
L 984 0 
L 422 0 
z
" transform="scale(0.015625)"/>
       <path id="ArialMT-74" d="M 1650 503 
L 1731 6 
Q 1494 -44 1306 -44 
Q 1000 -44 831 53 
Q 663 150 594 308 
Q 525 466 525 972 
L 525 2881 
L 113 2881 
L 113 3319 
L 525 3319 
L 525 4141 
L 1084 4478 
L 1084 3319 
L 1650 3319 
L 1650 2881 
L 1084 2881 
L 1084 941 
Q 1084 700 1114 631 
Q 1144 563 1211 522 
Q 1278 481 1403 481 
Q 1497 481 1650 503 
z
" transform="scale(0.015625)"/>
      </defs>
      <use xlink:href="#ArialMT-43"/>
      <use xlink:href="#ArialMT-6f" x="72.216797"/>
      <use xlink:href="#ArialMT-75" x="127.832031"/>
      <use xlink:href="#ArialMT-6e" x="183.447266"/>
      <use xlink:href="#ArialMT-74" x="239.0625"/>
     </g>
    </g>
   </g>
   <g id="patch_3">
    <path d="M 56.366378 145.8 
L 60.895599 145.8 
L 60.895599 142.112849 
L 56.366378 142.112849 
z
" clip-path="url(#p03088c453f)" style="fill: #f77189; fill-opacity: 0.75; stroke: #ffffff; stroke-width: 0.452922; stroke-linejoin: miter"/>
   </g>
   <g id="patch_4">
    <path d="M 60.895599 145.8 
L 65.424819 145.8 
L 65.424819 130.313966 
L 60.895599 130.313966 
z
" clip-path="url(#p03088c453f)" style="fill: #f77189; fill-opacity: 0.75; stroke: #ffffff; stroke-width: 0.452922; stroke-linejoin: miter"/>
   </g>
   <g id="patch_5">
    <path d="M 65.424819 145.8 
L 69.95404 145.8 
L 69.95404 110.403352 
L 65.424819 110.403352 
z
" clip-path="url(#p03088c453f)" style="fill: #f77189; fill-opacity: 0.75; stroke: #ffffff; stroke-width: 0.452922; stroke-linejoin: miter"/>
   </g>
   <g id="patch_6">
    <path d="M 69.95404 145.8 
L 74.483261 145.8 
L 74.483261 69.107263 
L 69.95404 69.107263 
z
" clip-path="url(#p03088c453f)" style="fill: #f77189; fill-opacity: 0.75; stroke: #ffffff; stroke-width: 0.452922; stroke-linejoin: miter"/>
   </g>
   <g id="patch_7">
    <path d="M 74.483261 145.8 
L 79.012482 145.8 
L 79.012482 13.8 
L 74.483261 13.8 
z
" clip-path="url(#p03088c453f)" style="fill: #f77189; fill-opacity: 0.75; stroke: #ffffff; stroke-width: 0.452922; stroke-linejoin: miter"/>
   </g>
   <g id="patch_8">
    <path d="M 79.012482 145.8 
L 83.541703 145.8 
L 83.541703 15.27486 
L 79.012482 15.27486 
z
" clip-path="url(#p03088c453f)" style="fill: #f77189; fill-opacity: 0.75; stroke: #ffffff; stroke-width: 0.452922; stroke-linejoin: miter"/>
   </g>
   <g id="patch_9">
    <path d="M 83.541703 145.8 
L 88.070923 145.8 
L 88.070923 69.107263 
L 83.541703 69.107263 
z
" clip-path="url(#p03088c453f)" style="fill: #f77189; fill-opacity: 0.75; stroke: #ffffff; stroke-width: 0.452922; stroke-linejoin: miter"/>
   </g>
   <g id="patch_10">
    <path d="M 88.070923 145.8 
L 92.600144 145.8 
L 92.600144 86.805587 
L 88.070923 86.805587 
z
" clip-path="url(#p03088c453f)" style="fill: #f77189; fill-opacity: 0.75; stroke: #ffffff; stroke-width: 0.452922; stroke-linejoin: miter"/>
   </g>
   <g id="patch_11">
    <path d="M 92.600144 145.8 
L 97.129365 145.8 
L 97.129365 100.81676 
L 92.600144 100.81676 
z
" clip-path="url(#p03088c453f)" style="fill: #f77189; fill-opacity: 0.75; stroke: #ffffff; stroke-width: 0.452922; stroke-linejoin: miter"/>
   </g>
   <g id="patch_12">
    <path d="M 97.129365 145.8 
L 101.658586 145.8 
L 101.658586 114.827933 
L 97.129365 114.827933 
z
" clip-path="url(#p03088c453f)" style="fill: #f77189; fill-opacity: 0.75; stroke: #ffffff; stroke-width: 0.452922; stroke-linejoin: miter"/>
   </g>
   <g id="patch_13">
    <path d="M 101.658586 145.8 
L 106.187806 145.8 
L 106.187806 123.677095 
L 101.658586 123.677095 
z
" clip-path="url(#p03088c453f)" style="fill: #f77189; fill-opacity: 0.75; stroke: #ffffff; stroke-width: 0.452922; stroke-linejoin: miter"/>
   </g>
   <g id="patch_14">
    <path d="M 106.187806 145.8 
L 110.717027 145.8 
L 110.717027 122.202235 
L 106.187806 122.202235 
z
" clip-path="url(#p03088c453f)" style="fill: #f77189; fill-opacity: 0.75; stroke: #ffffff; stroke-width: 0.452922; stroke-linejoin: miter"/>
   </g>
   <g id="patch_15">
    <path d="M 110.717027 145.8 
L 115.246248 145.8 
L 115.246248 128.839106 
L 110.717027 128.839106 
z
" clip-path="url(#p03088c453f)" style="fill: #f77189; fill-opacity: 0.75; stroke: #ffffff; stroke-width: 0.452922; stroke-linejoin: miter"/>
   </g>
   <g id="patch_16">
    <path d="M 115.246248 145.8 
L 119.775469 145.8 
L 119.775469 124.414525 
L 115.246248 124.414525 
z
" clip-path="url(#p03088c453f)" style="fill: #f77189; fill-opacity: 0.75; stroke: #ffffff; stroke-width: 0.452922; stroke-linejoin: miter"/>
   </g>
   <g id="patch_17">
    <path d="M 119.775469 145.8 
L 124.30469 145.8 
L 124.30469 127.364246 
L 119.775469 127.364246 
z
" clip-path="url(#p03088c453f)" style="fill: #f77189; fill-opacity: 0.75; stroke: #ffffff; stroke-width: 0.452922; stroke-linejoin: miter"/>
   </g>
   <g id="patch_18">
    <path d="M 124.30469 145.8 
L 128.83391 145.8 
L 128.83391 138.425698 
L 124.30469 138.425698 
z
" clip-path="url(#p03088c453f)" style="fill: #f77189; fill-opacity: 0.75; stroke: #ffffff; stroke-width: 0.452922; stroke-linejoin: miter"/>
   </g>
   <g id="patch_19">
    <path d="M 128.83391 145.8 
L 133.363131 145.8 
L 133.363131 130.313966 
L 128.83391 130.313966 
z
" clip-path="url(#p03088c453f)" style="fill: #f77189; fill-opacity: 0.75; stroke: #ffffff; stroke-width: 0.452922; stroke-linejoin: miter"/>
   </g>
   <g id="patch_20">
    <path d="M 133.363131 145.8 
L 137.892352 145.8 
L 137.892352 134.738547 
L 133.363131 134.738547 
z
" clip-path="url(#p03088c453f)" style="fill: #f77189; fill-opacity: 0.75; stroke: #ffffff; stroke-width: 0.452922; stroke-linejoin: miter"/>
   </g>
   <g id="patch_21">
    <path d="M 137.892352 145.8 
L 142.421573 145.8 
L 142.421573 134.001117 
L 137.892352 134.001117 
z
" clip-path="url(#p03088c453f)" style="fill: #f77189; fill-opacity: 0.75; stroke: #ffffff; stroke-width: 0.452922; stroke-linejoin: miter"/>
   </g>
   <g id="patch_22">
    <path d="M 142.421573 145.8 
L 146.950793 145.8 
L 146.950793 134.001117 
L 142.421573 134.001117 
z
" clip-path="url(#p03088c453f)" style="fill: #f77189; fill-opacity: 0.75; stroke: #ffffff; stroke-width: 0.452922; stroke-linejoin: miter"/>
   </g>
   <g id="patch_23">
    <path d="M 146.950793 145.8 
L 151.480014 145.8 
L 151.480014 139.163128 
L 146.950793 139.163128 
z
" clip-path="url(#p03088c453f)" style="fill: #f77189; fill-opacity: 0.75; stroke: #ffffff; stroke-width: 0.452922; stroke-linejoin: miter"/>
   </g>
   <g id="patch_24">
    <path d="M 151.480014 145.8 
L 156.009235 145.8 
L 156.009235 139.163128 
L 151.480014 139.163128 
z
" clip-path="url(#p03088c453f)" style="fill: #f77189; fill-opacity: 0.75; stroke: #ffffff; stroke-width: 0.452922; stroke-linejoin: miter"/>
   </g>
   <g id="patch_25">
    <path d="M 156.009235 145.8 
L 160.538456 145.8 
L 160.538456 140.637989 
L 156.009235 140.637989 
z
" clip-path="url(#p03088c453f)" style="fill: #f77189; fill-opacity: 0.75; stroke: #ffffff; stroke-width: 0.452922; stroke-linejoin: miter"/>
   </g>
   <g id="patch_26">
    <path d="M 160.538456 145.8 
L 165.067677 145.8 
L 165.067677 143.587709 
L 160.538456 143.587709 
z
" clip-path="url(#p03088c453f)" style="fill: #f77189; fill-opacity: 0.75; stroke: #ffffff; stroke-width: 0.452922; stroke-linejoin: miter"/>
   </g>
   <g id="patch_27">
    <path d="M 165.067677 145.8 
L 169.596897 145.8 
L 169.596897 142.850279 
L 165.067677 142.850279 
z
" clip-path="url(#p03088c453f)" style="fill: #f77189; fill-opacity: 0.75; stroke: #ffffff; stroke-width: 0.452922; stroke-linejoin: miter"/>
   </g>
   <g id="patch_28">
    <path d="M 169.596897 145.8 
L 174.126118 145.8 
L 174.126118 144.32514 
L 169.596897 144.32514 
z
" clip-path="url(#p03088c453f)" style="fill: #f77189; fill-opacity: 0.75; stroke: #ffffff; stroke-width: 0.452922; stroke-linejoin: miter"/>
   </g>
   <g id="patch_29">
    <path d="M 174.126118 145.8 
L 178.655339 145.8 
L 178.655339 143.587709 
L 174.126118 143.587709 
z
" clip-path="url(#p03088c453f)" style="fill: #f77189; fill-opacity: 0.75; stroke: #ffffff; stroke-width: 0.452922; stroke-linejoin: miter"/>
   </g>
   <g id="patch_30">
    <path d="M 178.655339 145.8 
L 183.18456 145.8 
L 183.18456 142.112849 
L 178.655339 142.112849 
z
" clip-path="url(#p03088c453f)" style="fill: #f77189; fill-opacity: 0.75; stroke: #ffffff; stroke-width: 0.452922; stroke-linejoin: miter"/>
   </g>
   <g id="patch_31">
    <path d="M 50.025469 145.8 
L 50.025469 7.2 
" style="fill: none; stroke: #000000; stroke-width: 1.25; stroke-linejoin: miter; stroke-linecap: square"/>
   </g>
   <g id="patch_32">
    <path d="M 189.525469 145.8 
L 189.525469 7.2 
" style="fill: none; stroke: #000000; stroke-width: 1.25; stroke-linejoin: miter; stroke-linecap: square"/>
   </g>
   <g id="patch_33">
    <path d="M 50.025469 145.8 
L 189.525469 145.8 
" style="fill: none; stroke: #000000; stroke-width: 1.25; stroke-linejoin: miter; stroke-linecap: square"/>
   </g>
   <g id="patch_34">
    <path d="M 50.025469 7.2 
L 189.525469 7.2 
" style="fill: none; stroke: #000000; stroke-width: 1.25; stroke-linejoin: miter; stroke-linecap: square"/>
   </g>
  </g>
 </g>
 <defs>
  <clipPath id="p03088c453f">
   <rect x="50.025469" y="7.2" width="139.5" height="138.6"/>
  </clipPath>
 </defs>
</svg>
