<?xml version="1.0" encoding="utf-8" standalone="no"?>
<!DOCTYPE svg PUBLIC "-//W3C//DTD SVG 1.1//EN"
  "http://www.w3.org/Graphics/SVG/1.1/DTD/svg11.dtd">
<svg xmlns:xlink="http://www.w3.org/1999/xlink" width="205.631475pt" height="187.534219pt" viewBox="0 0 205.631475 187.534219" xmlns="http://www.w3.org/2000/svg" version="1.1">
 <metadata>
  <rdf:RDF xmlns:dc="http://purl.org/dc/elements/1.1/" xmlns:cc="http://creativecommons.org/ns#" xmlns:rdf="http://www.w3.org/1999/02/22-rdf-syntax-ns#">
   <cc:Work>
    <dc:type rdf:resource="http://purl.org/dc/dcmitype/StillImage"/>
    <dc:date>2023-11-28T16:12:26.843917</dc:date>
    <dc:format>image/svg+xml</dc:format>
    <dc:creator>
     <cc:Agent>
      <dc:title>Matplotlib v3.6.3, https://matplotlib.org/</dc:title>
     </cc:Agent>
    </dc:creator>
   </cc:Work>
  </rdf:RDF>
 </metadata>
 <defs>
  <style type="text/css">*{stroke-linejoin: round; stroke-linecap: butt}</style>
 </defs>
 <g id="figure_1">
  <g id="patch_1">
   <path d="M 0 187.534219 
L 205.631475 187.534219 
L 205.631475 0 
L 0 0 
L 0 187.534219 
z
" style="fill: none"/>
  </g>
  <g id="axes_1">
   <g id="patch_2">
    <path d="M 50.025469 145.8 
L 189.525469 145.8 
L 189.525469 7.2 
L 50.025469 7.2 
L 50.025469 145.8 
z
" style="fill: none"/>
   </g>
   <g id="matplotlib.axis_1">
    <g id="xtick_1">
     <g id="text_1">
      <!-- 0 -->
      <g style="fill: #262626" transform="translate(48.235027 163.173594) scale(0.11 -0.11)">
       <defs>
        <path id="ArialMT-30" d="M 266 2259 
Q 266 3072 433 3567 
Q 600 4063 929 4331 
Q 1259 4600 1759 4600 
Q 2128 4600 2406 4451 
Q 2684 4303 2865 4023 
Q 3047 3744 3150 3342 
Q 3253 2941 3253 2259 
Q 3253 1453 3087 958 
Q 2922 463 2592 192 
Q 2263 -78 1759 -78 
Q 1097 -78 719 397 
Q 266 969 266 2259 
z
M 844 2259 
Q 844 1131 1108 757 
Q 1372 384 1759 384 
Q 2147 384 2411 759 
Q 2675 1134 2675 2259 
Q 2675 3391 2411 3762 
Q 2147 4134 1753 4134 
Q 1366 4134 1134 3806 
Q 844 3388 844 2259 
z
" transform="scale(0.015625)"/>
       </defs>
       <use xlink:href="#ArialMT-30"/>
      </g>
     </g>
    </g>
    <g id="xtick_2">
     <g id="text_2">
      <!-- 1000 -->
      <g style="fill: #262626" transform="translate(106.511415 163.173594) scale(0.11 -0.11)">
       <defs>
        <path id="ArialMT-31" d="M 2384 0 
L 1822 0 
L 1822 3584 
Q 1619 3391 1289 3197 
Q 959 3003 697 2906 
L 697 3450 
Q 1169 3672 1522 3987 
Q 1875 4303 2022 4600 
L 2384 4600 
L 2384 0 
z
" transform="scale(0.015625)"/>
       </defs>
       <use xlink:href="#ArialMT-31"/>
       <use xlink:href="#ArialMT-30" x="55.615234"/>
       <use xlink:href="#ArialMT-30" x="111.230469"/>
       <use xlink:href="#ArialMT-30" x="166.845703"/>
      </g>
     </g>
    </g>
    <g id="xtick_3">
     <g id="text_3">
      <!-- 2000 -->
      <g style="fill: #262626" transform="translate(173.96335 163.173594) scale(0.11 -0.11)">
       <defs>
        <path id="ArialMT-32" d="M 3222 541 
L 3222 0 
L 194 0 
Q 188 203 259 391 
Q 375 700 629 1000 
Q 884 1300 1366 1694 
Q 2113 2306 2375 2664 
Q 2638 3022 2638 3341 
Q 2638 3675 2398 3904 
Q 2159 4134 1775 4134 
Q 1369 4134 1125 3890 
Q 881 3647 878 3216 
L 300 3275 
Q 359 3922 746 4261 
Q 1134 4600 1788 4600 
Q 2447 4600 2831 4234 
Q 3216 3869 3216 3328 
Q 3216 3053 3103 2787 
Q 2991 2522 2730 2228 
Q 2469 1934 1863 1422 
Q 1356 997 1212 845 
Q 1069 694 975 541 
L 3222 541 
z
" transform="scale(0.015625)"/>
       </defs>
       <use xlink:href="#ArialMT-32"/>
       <use xlink:href="#ArialMT-30" x="55.615234"/>
       <use xlink:href="#ArialMT-30" x="111.230469"/>
       <use xlink:href="#ArialMT-30" x="166.845703"/>
      </g>
     </g>
    </g>
    <g id="text_4">
     <!-- Size -->
     <g transform="translate(108.103594 177.949219) scale(0.12 -0.12)">
      <defs>
       <path id="ArialMT-53" d="M 288 1472 
L 859 1522 
Q 900 1178 1048 958 
Q 1197 738 1509 602 
Q 1822 466 2213 466 
Q 2559 466 2825 569 
Q 3091 672 3220 851 
Q 3350 1031 3350 1244 
Q 3350 1459 3225 1620 
Q 3100 1781 2813 1891 
Q 2628 1963 1997 2114 
Q 1366 2266 1113 2400 
Q 784 2572 623 2826 
Q 463 3081 463 3397 
Q 463 3744 659 4045 
Q 856 4347 1234 4503 
Q 1613 4659 2075 4659 
Q 2584 4659 2973 4495 
Q 3363 4331 3572 4012 
Q 3781 3694 3797 3291 
L 3216 3247 
Q 3169 3681 2898 3903 
Q 2628 4125 2100 4125 
Q 1550 4125 1298 3923 
Q 1047 3722 1047 3438 
Q 1047 3191 1225 3031 
Q 1400 2872 2139 2705 
Q 2878 2538 3153 2413 
Q 3553 2228 3743 1945 
Q 3934 1663 3934 1294 
Q 3934 928 3725 604 
Q 3516 281 3123 101 
Q 2731 -78 2241 -78 
Q 1619 -78 1198 103 
Q 778 284 539 648 
Q 300 1013 288 1472 
z
" transform="scale(0.015625)"/>
       <path id="ArialMT-69" d="M 425 3934 
L 425 4581 
L 988 4581 
L 988 3934 
L 425 3934 
z
M 425 0 
L 425 3319 
L 988 3319 
L 988 0 
L 425 0 
z
" transform="scale(0.015625)"/>
       <path id="ArialMT-7a" d="M 125 0 
L 125 456 
L 2238 2881 
Q 1878 2863 1603 2863 
L 250 2863 
L 250 3319 
L 2963 3319 
L 2963 2947 
L 1166 841 
L 819 456 
Q 1197 484 1528 484 
L 3063 484 
L 3063 0 
L 125 0 
z
" transform="scale(0.015625)"/>
       <path id="ArialMT-65" d="M 2694 1069 
L 3275 997 
Q 3138 488 2766 206 
Q 2394 -75 1816 -75 
Q 1088 -75 661 373 
Q 234 822 234 1631 
Q 234 2469 665 2931 
Q 1097 3394 1784 3394 
Q 2450 3394 2872 2941 
Q 3294 2488 3294 1666 
Q 3294 1616 3291 1516 
L 816 1516 
Q 847 969 1125 678 
Q 1403 388 1819 388 
Q 2128 388 2347 550 
Q 2566 713 2694 1069 
z
M 847 1978 
L 2700 1978 
Q 2663 2397 2488 2606 
Q 2219 2931 1791 2931 
Q 1403 2931 1139 2672 
Q 875 2413 847 1978 
z
" transform="scale(0.015625)"/>
      </defs>
      <use xlink:href="#ArialMT-53"/>
      <use xlink:href="#ArialMT-69" x="66.699219"/>
      <use xlink:href="#ArialMT-7a" x="88.916016"/>
      <use xlink:href="#ArialMT-65" x="138.916016"/>
     </g>
    </g>
   </g>
   <g id="matplotlib.axis_2">
    <g id="ytick_1">
     <g id="text_5">
      <!-- 0 -->
      <g style="fill: #262626" transform="translate(34.408438 149.736797) scale(0.11 -0.11)">
       <use xlink:href="#ArialMT-30"/>
      </g>
     </g>
    </g>
    <g id="ytick_2">
     <g id="text_6">
      <!-- 50 -->
      <g style="fill: #262626" transform="translate(28.291406 105.441495) scale(0.11 -0.11)">
       <defs>
        <path id="ArialMT-35" d="M 266 1200 
L 856 1250 
Q 922 819 1161 601 
Q 1400 384 1738 384 
Q 2144 384 2425 690 
Q 2706 997 2706 1503 
Q 2706 1984 2436 2262 
Q 2166 2541 1728 2541 
Q 1456 2541 1237 2417 
Q 1019 2294 894 2097 
L 366 2166 
L 809 4519 
L 3088 4519 
L 3088 3981 
L 1259 3981 
L 1013 2750 
Q 1425 3038 1878 3038 
Q 2478 3038 2890 2622 
Q 3303 2206 3303 1553 
Q 3303 931 2941 478 
Q 2500 -78 1738 -78 
Q 1113 -78 717 272 
Q 322 622 266 1200 
z
" transform="scale(0.015625)"/>
       </defs>
       <use xlink:href="#ArialMT-35"/>
       <use xlink:href="#ArialMT-30" x="55.615234"/>
      </g>
     </g>
    </g>
    <g id="ytick_3">
     <g id="text_7">
      <!-- 100 -->
      <g style="fill: #262626" transform="translate(22.174375 61.146193) scale(0.11 -0.11)">
       <use xlink:href="#ArialMT-31"/>
       <use xlink:href="#ArialMT-30" x="55.615234"/>
       <use xlink:href="#ArialMT-30" x="111.230469"/>
      </g>
     </g>
    </g>
    <g id="ytick_4">
     <g id="text_8">
      <!-- 150 -->
      <g style="fill: #262626" transform="translate(22.174375 16.850891) scale(0.11 -0.11)">
       <use xlink:href="#ArialMT-31"/>
       <use xlink:href="#ArialMT-35" x="55.615234"/>
       <use xlink:href="#ArialMT-30" x="111.230469"/>
      </g>
     </g>
    </g>
    <g id="text_9">
     <!-- Count -->
     <g transform="translate(15.789375 92.509688) rotate(-90) scale(0.12 -0.12)">
      <defs>
       <path id="ArialMT-43" d="M 3763 1606 
L 4369 1453 
Q 4178 706 3683 314 
Q 3188 -78 2472 -78 
Q 1731 -78 1267 223 
Q 803 525 561 1097 
Q 319 1669 319 2325 
Q 319 3041 592 3573 
Q 866 4106 1370 4382 
Q 1875 4659 2481 4659 
Q 3169 4659 3637 4309 
Q 4106 3959 4291 3325 
L 3694 3184 
Q 3534 3684 3231 3912 
Q 2928 4141 2469 4141 
Q 1941 4141 1586 3887 
Q 1231 3634 1087 3207 
Q 944 2781 944 2328 
Q 944 1744 1114 1308 
Q 1284 872 1643 656 
Q 2003 441 2422 441 
Q 2931 441 3284 734 
Q 3638 1028 3763 1606 
z
" transform="scale(0.015625)"/>
       <path id="ArialMT-6f" d="M 213 1659 
Q 213 2581 725 3025 
Q 1153 3394 1769 3394 
Q 2453 3394 2887 2945 
Q 3322 2497 3322 1706 
Q 3322 1066 3130 698 
Q 2938 331 2570 128 
Q 2203 -75 1769 -75 
Q 1072 -75 642 372 
Q 213 819 213 1659 
z
M 791 1659 
Q 791 1022 1069 705 
Q 1347 388 1769 388 
Q 2188 388 2466 706 
Q 2744 1025 2744 1678 
Q 2744 2294 2464 2611 
Q 2184 2928 1769 2928 
Q 1347 2928 1069 2612 
Q 791 2297 791 1659 
z
" transform="scale(0.015625)"/>
       <path id="ArialMT-75" d="M 2597 0 
L 2597 488 
Q 2209 -75 1544 -75 
Q 1250 -75 995 37 
Q 741 150 617 320 
Q 494 491 444 738 
Q 409 903 409 1263 
L 409 3319 
L 972 3319 
L 972 1478 
Q 972 1038 1006 884 
Q 1059 663 1231 536 
Q 1403 409 1656 409 
Q 1909 409 2131 539 
Q 2353 669 2445 892 
Q 2538 1116 2538 1541 
L 2538 3319 
L 3100 3319 
L 3100 0 
L 2597 0 
z
" transform="scale(0.015625)"/>
       <path id="ArialMT-6e" d="M 422 0 
L 422 3319 
L 928 3319 
L 928 2847 
Q 1294 3394 1984 3394 
Q 2284 3394 2536 3286 
Q 2788 3178 2913 3003 
Q 3038 2828 3088 2588 
Q 3119 2431 3119 2041 
L 3119 0 
L 2556 0 
L 2556 2019 
Q 2556 2363 2490 2533 
Q 2425 2703 2258 2804 
Q 2091 2906 1866 2906 
Q 1506 2906 1245 2678 
Q 984 2450 984 1813 
L 984 0 
L 422 0 
z
" transform="scale(0.015625)"/>
       <path id="ArialMT-74" d="M 1650 503 
L 1731 6 
Q 1494 -44 1306 -44 
Q 1000 -44 831 53 
Q 663 150 594 308 
Q 525 466 525 972 
L 525 2881 
L 113 2881 
L 113 3319 
L 525 3319 
L 525 4141 
L 1084 4478 
L 1084 3319 
L 1650 3319 
L 1650 2881 
L 1084 2881 
L 1084 941 
Q 1084 700 1114 631 
Q 1144 563 1211 522 
Q 1278 481 1403 481 
Q 1497 481 1650 503 
z
" transform="scale(0.015625)"/>
      </defs>
      <use xlink:href="#ArialMT-43"/>
      <use xlink:href="#ArialMT-6f" x="72.216797"/>
      <use xlink:href="#ArialMT-75" x="127.832031"/>
      <use xlink:href="#ArialMT-6e" x="183.447266"/>
      <use xlink:href="#ArialMT-74" x="239.0625"/>
     </g>
    </g>
   </g>
   <g id="patch_3">
    <path d="M 56.366378 145.8 
L 57.57417 145.8 
L 57.57417 136.94094 
L 56.366378 136.94094 
z
" clip-path="url(#pbb670f0173)" style="fill: #f77189; fill-opacity: 0.75; stroke: #ffffff; stroke-width: 0.120779; stroke-linejoin: miter"/>
   </g>
   <g id="patch_4">
    <path d="M 57.57417 145.8 
L 58.781962 145.8 
L 58.781962 106.820134 
L 57.57417 106.820134 
z
" clip-path="url(#pbb670f0173)" style="fill: #f77189; fill-opacity: 0.75; stroke: #ffffff; stroke-width: 0.120779; stroke-linejoin: miter"/>
   </g>
   <g id="patch_5">
    <path d="M 58.781962 145.8 
L 59.989754 145.8 
L 59.989754 60.75302 
L 58.781962 60.75302 
z
" clip-path="url(#pbb670f0173)" style="fill: #f77189; fill-opacity: 0.75; stroke: #ffffff; stroke-width: 0.120779; stroke-linejoin: miter"/>
   </g>
   <g id="patch_6">
    <path d="M 59.989754 145.8 
L 61.197547 145.8 
L 61.197547 16.457718 
L 59.989754 16.457718 
z
" clip-path="url(#pbb670f0173)" style="fill: #f77189; fill-opacity: 0.75; stroke: #ffffff; stroke-width: 0.120779; stroke-linejoin: miter"/>
   </g>
   <g id="patch_7">
    <path d="M 61.197547 145.8 
L 62.405339 145.8 
L 62.405339 13.8 
L 61.197547 13.8 
z
" clip-path="url(#pbb670f0173)" style="fill: #f77189; fill-opacity: 0.75; stroke: #ffffff; stroke-width: 0.120779; stroke-linejoin: miter"/>
   </g>
   <g id="patch_8">
    <path d="M 62.405339 145.8 
L 63.613131 145.8 
L 63.613131 28.860403 
L 62.405339 28.860403 
z
" clip-path="url(#pbb670f0173)" style="fill: #f77189; fill-opacity: 0.75; stroke: #ffffff; stroke-width: 0.120779; stroke-linejoin: miter"/>
   </g>
   <g id="patch_9">
    <path d="M 63.613131 145.8 
L 64.820923 145.8 
L 64.820923 56.32349 
L 63.613131 56.32349 
z
" clip-path="url(#pbb670f0173)" style="fill: #f77189; fill-opacity: 0.75; stroke: #ffffff; stroke-width: 0.120779; stroke-linejoin: miter"/>
   </g>
   <g id="patch_10">
    <path d="M 64.820923 145.8 
L 66.028716 145.8 
L 66.028716 74.041611 
L 64.820923 74.041611 
z
" clip-path="url(#pbb670f0173)" style="fill: #f77189; fill-opacity: 0.75; stroke: #ffffff; stroke-width: 0.120779; stroke-linejoin: miter"/>
   </g>
   <g id="patch_11">
    <path d="M 66.028716 145.8 
L 67.236508 145.8 
L 67.236508 97.075168 
L 66.028716 97.075168 
z
" clip-path="url(#pbb670f0173)" style="fill: #f77189; fill-opacity: 0.75; stroke: #ffffff; stroke-width: 0.120779; stroke-linejoin: miter"/>
   </g>
   <g id="patch_12">
    <path d="M 67.236508 145.8 
L 68.4443 145.8 
L 68.4443 104.162416 
L 67.236508 104.162416 
z
" clip-path="url(#pbb670f0173)" style="fill: #f77189; fill-opacity: 0.75; stroke: #ffffff; stroke-width: 0.120779; stroke-linejoin: miter"/>
   </g>
   <g id="patch_13">
    <path d="M 68.4443 145.8 
L 69.652092 145.8 
L 69.652092 115.679195 
L 68.4443 115.679195 
z
" clip-path="url(#pbb670f0173)" style="fill: #f77189; fill-opacity: 0.75; stroke: #ffffff; stroke-width: 0.120779; stroke-linejoin: miter"/>
   </g>
   <g id="patch_14">
    <path d="M 69.652092 145.8 
L 70.859884 145.8 
L 70.859884 124.538255 
L 69.652092 124.538255 
z
" clip-path="url(#pbb670f0173)" style="fill: #f77189; fill-opacity: 0.75; stroke: #ffffff; stroke-width: 0.120779; stroke-linejoin: miter"/>
   </g>
   <g id="patch_15">
    <path d="M 70.859884 145.8 
L 72.067677 145.8 
L 72.067677 128.081879 
L 70.859884 128.081879 
z
" clip-path="url(#pbb670f0173)" style="fill: #f77189; fill-opacity: 0.75; stroke: #ffffff; stroke-width: 0.120779; stroke-linejoin: miter"/>
   </g>
   <g id="patch_16">
    <path d="M 72.067677 145.8 
L 73.275469 145.8 
L 73.275469 136.94094 
L 72.067677 136.94094 
z
" clip-path="url(#pbb670f0173)" style="fill: #f77189; fill-opacity: 0.75; stroke: #ffffff; stroke-width: 0.120779; stroke-linejoin: miter"/>
   </g>
   <g id="patch_17">
    <path d="M 73.275469 145.8 
L 74.483261 145.8 
L 74.483261 142.256376 
L 73.275469 142.256376 
z
" clip-path="url(#pbb670f0173)" style="fill: #f77189; fill-opacity: 0.75; stroke: #ffffff; stroke-width: 0.120779; stroke-linejoin: miter"/>
   </g>
   <g id="patch_18">
    <path d="M 74.483261 145.8 
L 75.691053 145.8 
L 75.691053 140.484564 
L 74.483261 140.484564 
z
" clip-path="url(#pbb670f0173)" style="fill: #f77189; fill-opacity: 0.75; stroke: #ffffff; stroke-width: 0.120779; stroke-linejoin: miter"/>
   </g>
   <g id="patch_19">
    <path d="M 75.691053 145.8 
L 76.898845 145.8 
L 76.898845 139.598658 
L 75.691053 139.598658 
z
" clip-path="url(#pbb670f0173)" style="fill: #f77189; fill-opacity: 0.75; stroke: #ffffff; stroke-width: 0.120779; stroke-linejoin: miter"/>
   </g>
   <g id="patch_20">
    <path d="M 76.898845 145.8 
L 78.106638 145.8 
L 78.106638 135.169128 
L 76.898845 135.169128 
z
" clip-path="url(#pbb670f0173)" style="fill: #f77189; fill-opacity: 0.75; stroke: #ffffff; stroke-width: 0.120779; stroke-linejoin: miter"/>
   </g>
   <g id="patch_21">
    <path d="M 78.106638 145.8 
L 79.31443 145.8 
L 79.31443 135.169128 
L 78.106638 135.169128 
z
" clip-path="url(#pbb670f0173)" style="fill: #f77189; fill-opacity: 0.75; stroke: #ffffff; stroke-width: 0.120779; stroke-linejoin: miter"/>
   </g>
   <g id="patch_22">
    <path d="M 79.31443 145.8 
L 80.522222 145.8 
L 80.522222 135.169128 
L 79.31443 135.169128 
z
" clip-path="url(#pbb670f0173)" style="fill: #f77189; fill-opacity: 0.75; stroke: #ffffff; stroke-width: 0.120779; stroke-linejoin: miter"/>
   </g>
   <g id="patch_23">
    <path d="M 80.522222 145.8 
L 81.730014 145.8 
L 81.730014 144.028188 
L 80.522222 144.028188 
z
" clip-path="url(#pbb670f0173)" style="fill: #f77189; fill-opacity: 0.75; stroke: #ffffff; stroke-width: 0.120779; stroke-linejoin: miter"/>
   </g>
   <g id="patch_24">
    <path d="M 81.730014 145.8 
L 82.937806 145.8 
L 82.937806 136.94094 
L 81.730014 136.94094 
z
" clip-path="url(#pbb670f0173)" style="fill: #f77189; fill-opacity: 0.75; stroke: #ffffff; stroke-width: 0.120779; stroke-linejoin: miter"/>
   </g>
   <g id="patch_25">
    <path d="M 82.937806 145.8 
L 84.145599 145.8 
L 84.145599 136.94094 
L 82.937806 136.94094 
z
" clip-path="url(#pbb670f0173)" style="fill: #f77189; fill-opacity: 0.75; stroke: #ffffff; stroke-width: 0.120779; stroke-linejoin: miter"/>
   </g>
   <g id="patch_26">
    <path d="M 84.145599 145.8 
L 85.353391 145.8 
L 85.353391 138.712752 
L 84.145599 138.712752 
z
" clip-path="url(#pbb670f0173)" style="fill: #f77189; fill-opacity: 0.75; stroke: #ffffff; stroke-width: 0.120779; stroke-linejoin: miter"/>
   </g>
   <g id="patch_27">
    <path d="M 85.353391 145.8 
L 86.561183 145.8 
L 86.561183 144.914094 
L 85.353391 144.914094 
z
" clip-path="url(#pbb670f0173)" style="fill: #f77189; fill-opacity: 0.75; stroke: #ffffff; stroke-width: 0.120779; stroke-linejoin: miter"/>
   </g>
   <g id="patch_28">
    <path d="M 86.561183 145.8 
L 87.768975 145.8 
L 87.768975 144.028188 
L 86.561183 144.028188 
z
" clip-path="url(#pbb670f0173)" style="fill: #f77189; fill-opacity: 0.75; stroke: #ffffff; stroke-width: 0.120779; stroke-linejoin: miter"/>
   </g>
   <g id="patch_29">
    <path d="M 87.768975 145.8 
L 88.976767 145.8 
L 88.976767 144.914094 
L 87.768975 144.914094 
z
" clip-path="url(#pbb670f0173)" style="fill: #f77189; fill-opacity: 0.75; stroke: #ffffff; stroke-width: 0.120779; stroke-linejoin: miter"/>
   </g>
   <g id="patch_30">
    <path d="M 88.976767 145.8 
L 90.18456 145.8 
L 90.18456 143.142282 
L 88.976767 143.142282 
z
" clip-path="url(#pbb670f0173)" style="fill: #f77189; fill-opacity: 0.75; stroke: #ffffff; stroke-width: 0.120779; stroke-linejoin: miter"/>
   </g>
   <g id="patch_31">
    <path d="M 90.18456 145.8 
L 91.392352 145.8 
L 91.392352 144.028188 
L 90.18456 144.028188 
z
" clip-path="url(#pbb670f0173)" style="fill: #f77189; fill-opacity: 0.75; stroke: #ffffff; stroke-width: 0.120779; stroke-linejoin: miter"/>
   </g>
   <g id="patch_32">
    <path d="M 91.392352 145.8 
L 92.600144 145.8 
L 92.600144 143.142282 
L 91.392352 143.142282 
z
" clip-path="url(#pbb670f0173)" style="fill: #f77189; fill-opacity: 0.75; stroke: #ffffff; stroke-width: 0.120779; stroke-linejoin: miter"/>
   </g>
   <g id="patch_33">
    <path d="M 92.600144 145.8 
L 93.807936 145.8 
L 93.807936 144.914094 
L 92.600144 144.914094 
z
" clip-path="url(#pbb670f0173)" style="fill: #f77189; fill-opacity: 0.75; stroke: #ffffff; stroke-width: 0.120779; stroke-linejoin: miter"/>
   </g>
   <g id="patch_34">
    <path d="M 93.807936 145.8 
L 95.015728 145.8 
L 95.015728 144.914094 
L 93.807936 144.914094 
z
" clip-path="url(#pbb670f0173)" style="fill: #f77189; fill-opacity: 0.75; stroke: #ffffff; stroke-width: 0.120779; stroke-linejoin: miter"/>
   </g>
   <g id="patch_35">
    <path d="M 95.015728 145.8 
L 96.223521 145.8 
L 96.223521 143.142282 
L 95.015728 143.142282 
z
" clip-path="url(#pbb670f0173)" style="fill: #f77189; fill-opacity: 0.75; stroke: #ffffff; stroke-width: 0.120779; stroke-linejoin: miter"/>
   </g>
   <g id="patch_36">
    <path d="M 96.223521 145.8 
L 97.431313 145.8 
L 97.431313 144.028188 
L 96.223521 144.028188 
z
" clip-path="url(#pbb670f0173)" style="fill: #f77189; fill-opacity: 0.75; stroke: #ffffff; stroke-width: 0.120779; stroke-linejoin: miter"/>
   </g>
   <g id="patch_37">
    <path d="M 97.431313 145.8 
L 98.639105 145.8 
L 98.639105 144.914094 
L 97.431313 144.914094 
z
" clip-path="url(#pbb670f0173)" style="fill: #f77189; fill-opacity: 0.75; stroke: #ffffff; stroke-width: 0.120779; stroke-linejoin: miter"/>
   </g>
   <g id="patch_38">
    <path d="M 98.639105 145.8 
L 99.846897 145.8 
L 99.846897 145.8 
L 98.639105 145.8 
z
" clip-path="url(#pbb670f0173)" style="fill: #f77189; fill-opacity: 0.75; stroke: #ffffff; stroke-width: 0.120779; stroke-linejoin: miter"/>
   </g>
   <g id="patch_39">
    <path d="M 99.846897 145.8 
L 101.05469 145.8 
L 101.05469 144.028188 
L 99.846897 144.028188 
z
" clip-path="url(#pbb670f0173)" style="fill: #f77189; fill-opacity: 0.75; stroke: #ffffff; stroke-width: 0.120779; stroke-linejoin: miter"/>
   </g>
   <g id="patch_40">
    <path d="M 101.05469 145.8 
L 102.262482 145.8 
L 102.262482 144.028188 
L 101.05469 144.028188 
z
" clip-path="url(#pbb670f0173)" style="fill: #f77189; fill-opacity: 0.75; stroke: #ffffff; stroke-width: 0.120779; stroke-linejoin: miter"/>
   </g>
   <g id="patch_41">
    <path d="M 102.262482 145.8 
L 103.470274 145.8 
L 103.470274 144.028188 
L 102.262482 144.028188 
z
" clip-path="url(#pbb670f0173)" style="fill: #f77189; fill-opacity: 0.75; stroke: #ffffff; stroke-width: 0.120779; stroke-linejoin: miter"/>
   </g>
   <g id="patch_42">
    <path d="M 103.470274 145.8 
L 104.678066 145.8 
L 104.678066 145.8 
L 103.470274 145.8 
z
" clip-path="url(#pbb670f0173)" style="fill: #f77189; fill-opacity: 0.75; stroke: #ffffff; stroke-width: 0.120779; stroke-linejoin: miter"/>
   </g>
   <g id="patch_43">
    <path d="M 104.678066 145.8 
L 105.885858 145.8 
L 105.885858 145.8 
L 104.678066 145.8 
z
" clip-path="url(#pbb670f0173)" style="fill: #f77189; fill-opacity: 0.75; stroke: #ffffff; stroke-width: 0.120779; stroke-linejoin: miter"/>
   </g>
   <g id="patch_44">
    <path d="M 105.885858 145.8 
L 107.093651 145.8 
L 107.093651 144.914094 
L 105.885858 144.914094 
z
" clip-path="url(#pbb670f0173)" style="fill: #f77189; fill-opacity: 0.75; stroke: #ffffff; stroke-width: 0.120779; stroke-linejoin: miter"/>
   </g>
   <g id="patch_45">
    <path d="M 107.093651 145.8 
L 108.301443 145.8 
L 108.301443 144.914094 
L 107.093651 144.914094 
z
" clip-path="url(#pbb670f0173)" style="fill: #f77189; fill-opacity: 0.75; stroke: #ffffff; stroke-width: 0.120779; stroke-linejoin: miter"/>
   </g>
   <g id="patch_46">
    <path d="M 108.301443 145.8 
L 109.509235 145.8 
L 109.509235 145.8 
L 108.301443 145.8 
z
" clip-path="url(#pbb670f0173)" style="fill: #f77189; fill-opacity: 0.75; stroke: #ffffff; stroke-width: 0.120779; stroke-linejoin: miter"/>
   </g>
   <g id="patch_47">
    <path d="M 109.509235 145.8 
L 110.717027 145.8 
L 110.717027 144.914094 
L 109.509235 144.914094 
z
" clip-path="url(#pbb670f0173)" style="fill: #f77189; fill-opacity: 0.75; stroke: #ffffff; stroke-width: 0.120779; stroke-linejoin: miter"/>
   </g>
   <g id="patch_48">
    <path d="M 110.717027 145.8 
L 111.924819 145.8 
L 111.924819 145.8 
L 110.717027 145.8 
z
" clip-path="url(#pbb670f0173)" style="fill: #f77189; fill-opacity: 0.75; stroke: #ffffff; stroke-width: 0.120779; stroke-linejoin: miter"/>
   </g>
   <g id="patch_49">
    <path d="M 111.924819 145.8 
L 113.132612 145.8 
L 113.132612 144.914094 
L 111.924819 144.914094 
z
" clip-path="url(#pbb670f0173)" style="fill: #f77189; fill-opacity: 0.75; stroke: #ffffff; stroke-width: 0.120779; stroke-linejoin: miter"/>
   </g>
   <g id="patch_50">
    <path d="M 113.132612 145.8 
L 114.340404 145.8 
L 114.340404 144.914094 
L 113.132612 144.914094 
z
" clip-path="url(#pbb670f0173)" style="fill: #f77189; fill-opacity: 0.75; stroke: #ffffff; stroke-width: 0.120779; stroke-linejoin: miter"/>
   </g>
   <g id="patch_51">
    <path d="M 114.340404 145.8 
L 115.548196 145.8 
L 115.548196 144.914094 
L 114.340404 144.914094 
z
" clip-path="url(#pbb670f0173)" style="fill: #f77189; fill-opacity: 0.75; stroke: #ffffff; stroke-width: 0.120779; stroke-linejoin: miter"/>
   </g>
   <g id="patch_52">
    <path d="M 115.548196 145.8 
L 116.755988 145.8 
L 116.755988 144.914094 
L 115.548196 144.914094 
z
" clip-path="url(#pbb670f0173)" style="fill: #f77189; fill-opacity: 0.75; stroke: #ffffff; stroke-width: 0.120779; stroke-linejoin: miter"/>
   </g>
   <g id="patch_53">
    <path d="M 116.755988 145.8 
L 117.96378 145.8 
L 117.96378 145.8 
L 116.755988 145.8 
z
" clip-path="url(#pbb670f0173)" style="fill: #f77189; fill-opacity: 0.75; stroke: #ffffff; stroke-width: 0.120779; stroke-linejoin: miter"/>
   </g>
   <g id="patch_54">
    <path d="M 117.96378 145.8 
L 119.171573 145.8 
L 119.171573 145.8 
L 117.96378 145.8 
z
" clip-path="url(#pbb670f0173)" style="fill: #f77189; fill-opacity: 0.75; stroke: #ffffff; stroke-width: 0.120779; stroke-linejoin: miter"/>
   </g>
   <g id="patch_55">
    <path d="M 119.171573 145.8 
L 120.379365 145.8 
L 120.379365 144.914094 
L 119.171573 144.914094 
z
" clip-path="url(#pbb670f0173)" style="fill: #f77189; fill-opacity: 0.75; stroke: #ffffff; stroke-width: 0.120779; stroke-linejoin: miter"/>
   </g>
   <g id="patch_56">
    <path d="M 120.379365 145.8 
L 121.587157 145.8 
L 121.587157 144.914094 
L 120.379365 144.914094 
z
" clip-path="url(#pbb670f0173)" style="fill: #f77189; fill-opacity: 0.75; stroke: #ffffff; stroke-width: 0.120779; stroke-linejoin: miter"/>
   </g>
   <g id="patch_57">
    <path d="M 121.587157 145.8 
L 122.794949 145.8 
L 122.794949 144.914094 
L 121.587157 144.914094 
z
" clip-path="url(#pbb670f0173)" style="fill: #f77189; fill-opacity: 0.75; stroke: #ffffff; stroke-width: 0.120779; stroke-linejoin: miter"/>
   </g>
   <g id="patch_58">
    <path d="M 122.794949 145.8 
L 124.002741 145.8 
L 124.002741 145.8 
L 122.794949 145.8 
z
" clip-path="url(#pbb670f0173)" style="fill: #f77189; fill-opacity: 0.75; stroke: #ffffff; stroke-width: 0.120779; stroke-linejoin: miter"/>
   </g>
   <g id="patch_59">
    <path d="M 124.002741 145.8 
L 125.210534 145.8 
L 125.210534 145.8 
L 124.002741 145.8 
z
" clip-path="url(#pbb670f0173)" style="fill: #f77189; fill-opacity: 0.75; stroke: #ffffff; stroke-width: 0.120779; stroke-linejoin: miter"/>
   </g>
   <g id="patch_60">
    <path d="M 125.210534 145.8 
L 126.418326 145.8 
L 126.418326 145.8 
L 125.210534 145.8 
z
" clip-path="url(#pbb670f0173)" style="fill: #f77189; fill-opacity: 0.75; stroke: #ffffff; stroke-width: 0.120779; stroke-linejoin: miter"/>
   </g>
   <g id="patch_61">
    <path d="M 126.418326 145.8 
L 127.626118 145.8 
L 127.626118 145.8 
L 126.418326 145.8 
z
" clip-path="url(#pbb670f0173)" style="fill: #f77189; fill-opacity: 0.75; stroke: #ffffff; stroke-width: 0.120779; stroke-linejoin: miter"/>
   </g>
   <g id="patch_62">
    <path d="M 127.626118 145.8 
L 128.83391 145.8 
L 128.83391 145.8 
L 127.626118 145.8 
z
" clip-path="url(#pbb670f0173)" style="fill: #f77189; fill-opacity: 0.75; stroke: #ffffff; stroke-width: 0.120779; stroke-linejoin: miter"/>
   </g>
   <g id="patch_63">
    <path d="M 128.83391 145.8 
L 130.041703 145.8 
L 130.041703 144.028188 
L 128.83391 144.028188 
z
" clip-path="url(#pbb670f0173)" style="fill: #f77189; fill-opacity: 0.75; stroke: #ffffff; stroke-width: 0.120779; stroke-linejoin: miter"/>
   </g>
   <g id="patch_64">
    <path d="M 130.041703 145.8 
L 131.249495 145.8 
L 131.249495 145.8 
L 130.041703 145.8 
z
" clip-path="url(#pbb670f0173)" style="fill: #f77189; fill-opacity: 0.75; stroke: #ffffff; stroke-width: 0.120779; stroke-linejoin: miter"/>
   </g>
   <g id="patch_65">
    <path d="M 131.249495 145.8 
L 132.457287 145.8 
L 132.457287 145.8 
L 131.249495 145.8 
z
" clip-path="url(#pbb670f0173)" style="fill: #f77189; fill-opacity: 0.75; stroke: #ffffff; stroke-width: 0.120779; stroke-linejoin: miter"/>
   </g>
   <g id="patch_66">
    <path d="M 132.457287 145.8 
L 133.665079 145.8 
L 133.665079 145.8 
L 132.457287 145.8 
z
" clip-path="url(#pbb670f0173)" style="fill: #f77189; fill-opacity: 0.75; stroke: #ffffff; stroke-width: 0.120779; stroke-linejoin: miter"/>
   </g>
   <g id="patch_67">
    <path d="M 133.665079 145.8 
L 134.872871 145.8 
L 134.872871 145.8 
L 133.665079 145.8 
z
" clip-path="url(#pbb670f0173)" style="fill: #f77189; fill-opacity: 0.75; stroke: #ffffff; stroke-width: 0.120779; stroke-linejoin: miter"/>
   </g>
   <g id="patch_68">
    <path d="M 134.872871 145.8 
L 136.080664 145.8 
L 136.080664 145.8 
L 134.872871 145.8 
z
" clip-path="url(#pbb670f0173)" style="fill: #f77189; fill-opacity: 0.75; stroke: #ffffff; stroke-width: 0.120779; stroke-linejoin: miter"/>
   </g>
   <g id="patch_69">
    <path d="M 136.080664 145.8 
L 137.288456 145.8 
L 137.288456 145.8 
L 136.080664 145.8 
z
" clip-path="url(#pbb670f0173)" style="fill: #f77189; fill-opacity: 0.75; stroke: #ffffff; stroke-width: 0.120779; stroke-linejoin: miter"/>
   </g>
   <g id="patch_70">
    <path d="M 137.288456 145.8 
L 138.496248 145.8 
L 138.496248 144.914094 
L 137.288456 144.914094 
z
" clip-path="url(#pbb670f0173)" style="fill: #f77189; fill-opacity: 0.75; stroke: #ffffff; stroke-width: 0.120779; stroke-linejoin: miter"/>
   </g>
   <g id="patch_71">
    <path d="M 138.496248 145.8 
L 139.70404 145.8 
L 139.70404 145.8 
L 138.496248 145.8 
z
" clip-path="url(#pbb670f0173)" style="fill: #f77189; fill-opacity: 0.75; stroke: #ffffff; stroke-width: 0.120779; stroke-linejoin: miter"/>
   </g>
   <g id="patch_72">
    <path d="M 139.70404 145.8 
L 140.911832 145.8 
L 140.911832 145.8 
L 139.70404 145.8 
z
" clip-path="url(#pbb670f0173)" style="fill: #f77189; fill-opacity: 0.75; stroke: #ffffff; stroke-width: 0.120779; stroke-linejoin: miter"/>
   </g>
   <g id="patch_73">
    <path d="M 140.911832 145.8 
L 142.119625 145.8 
L 142.119625 144.914094 
L 140.911832 144.914094 
z
" clip-path="url(#pbb670f0173)" style="fill: #f77189; fill-opacity: 0.75; stroke: #ffffff; stroke-width: 0.120779; stroke-linejoin: miter"/>
   </g>
   <g id="patch_74">
    <path d="M 142.119625 145.8 
L 143.327417 145.8 
L 143.327417 144.914094 
L 142.119625 144.914094 
z
" clip-path="url(#pbb670f0173)" style="fill: #f77189; fill-opacity: 0.75; stroke: #ffffff; stroke-width: 0.120779; stroke-linejoin: miter"/>
   </g>
   <g id="patch_75">
    <path d="M 143.327417 145.8 
L 144.535209 145.8 
L 144.535209 145.8 
L 143.327417 145.8 
z
" clip-path="url(#pbb670f0173)" style="fill: #f77189; fill-opacity: 0.75; stroke: #ffffff; stroke-width: 0.120779; stroke-linejoin: miter"/>
   </g>
   <g id="patch_76">
    <path d="M 144.535209 145.8 
L 145.743001 145.8 
L 145.743001 145.8 
L 144.535209 145.8 
z
" clip-path="url(#pbb670f0173)" style="fill: #f77189; fill-opacity: 0.75; stroke: #ffffff; stroke-width: 0.120779; stroke-linejoin: miter"/>
   </g>
   <g id="patch_77">
    <path d="M 145.743001 145.8 
L 146.950793 145.8 
L 146.950793 145.8 
L 145.743001 145.8 
z
" clip-path="url(#pbb670f0173)" style="fill: #f77189; fill-opacity: 0.75; stroke: #ffffff; stroke-width: 0.120779; stroke-linejoin: miter"/>
   </g>
   <g id="patch_78">
    <path d="M 146.950793 145.8 
L 148.158586 145.8 
L 148.158586 145.8 
L 146.950793 145.8 
z
" clip-path="url(#pbb670f0173)" style="fill: #f77189; fill-opacity: 0.75; stroke: #ffffff; stroke-width: 0.120779; stroke-linejoin: miter"/>
   </g>
   <g id="patch_79">
    <path d="M 148.158586 145.8 
L 149.366378 145.8 
L 149.366378 145.8 
L 148.158586 145.8 
z
" clip-path="url(#pbb670f0173)" style="fill: #f77189; fill-opacity: 0.75; stroke: #ffffff; stroke-width: 0.120779; stroke-linejoin: miter"/>
   </g>
   <g id="patch_80">
    <path d="M 149.366378 145.8 
L 150.57417 145.8 
L 150.57417 145.8 
L 149.366378 145.8 
z
" clip-path="url(#pbb670f0173)" style="fill: #f77189; fill-opacity: 0.75; stroke: #ffffff; stroke-width: 0.120779; stroke-linejoin: miter"/>
   </g>
   <g id="patch_81">
    <path d="M 150.57417 145.8 
L 151.781962 145.8 
L 151.781962 145.8 
L 150.57417 145.8 
z
" clip-path="url(#pbb670f0173)" style="fill: #f77189; fill-opacity: 0.75; stroke: #ffffff; stroke-width: 0.120779; stroke-linejoin: miter"/>
   </g>
   <g id="patch_82">
    <path d="M 151.781962 145.8 
L 152.989754 145.8 
L 152.989754 145.8 
L 151.781962 145.8 
z
" clip-path="url(#pbb670f0173)" style="fill: #f77189; fill-opacity: 0.75; stroke: #ffffff; stroke-width: 0.120779; stroke-linejoin: miter"/>
   </g>
   <g id="patch_83">
    <path d="M 152.989754 145.8 
L 154.197547 145.8 
L 154.197547 144.914094 
L 152.989754 144.914094 
z
" clip-path="url(#pbb670f0173)" style="fill: #f77189; fill-opacity: 0.75; stroke: #ffffff; stroke-width: 0.120779; stroke-linejoin: miter"/>
   </g>
   <g id="patch_84">
    <path d="M 154.197547 145.8 
L 155.405339 145.8 
L 155.405339 145.8 
L 154.197547 145.8 
z
" clip-path="url(#pbb670f0173)" style="fill: #f77189; fill-opacity: 0.75; stroke: #ffffff; stroke-width: 0.120779; stroke-linejoin: miter"/>
   </g>
   <g id="patch_85">
    <path d="M 155.405339 145.8 
L 156.613131 145.8 
L 156.613131 145.8 
L 155.405339 145.8 
z
" clip-path="url(#pbb670f0173)" style="fill: #f77189; fill-opacity: 0.75; stroke: #ffffff; stroke-width: 0.120779; stroke-linejoin: miter"/>
   </g>
   <g id="patch_86">
    <path d="M 156.613131 145.8 
L 157.820923 145.8 
L 157.820923 145.8 
L 156.613131 145.8 
z
" clip-path="url(#pbb670f0173)" style="fill: #f77189; fill-opacity: 0.75; stroke: #ffffff; stroke-width: 0.120779; stroke-linejoin: miter"/>
   </g>
   <g id="patch_87">
    <path d="M 157.820923 145.8 
L 159.028716 145.8 
L 159.028716 145.8 
L 157.820923 145.8 
z
" clip-path="url(#pbb670f0173)" style="fill: #f77189; fill-opacity: 0.75; stroke: #ffffff; stroke-width: 0.120779; stroke-linejoin: miter"/>
   </g>
   <g id="patch_88">
    <path d="M 159.028716 145.8 
L 160.236508 145.8 
L 160.236508 144.914094 
L 159.028716 144.914094 
z
" clip-path="url(#pbb670f0173)" style="fill: #f77189; fill-opacity: 0.75; stroke: #ffffff; stroke-width: 0.120779; stroke-linejoin: miter"/>
   </g>
   <g id="patch_89">
    <path d="M 160.236508 145.8 
L 161.4443 145.8 
L 161.4443 145.8 
L 160.236508 145.8 
z
" clip-path="url(#pbb670f0173)" style="fill: #f77189; fill-opacity: 0.75; stroke: #ffffff; stroke-width: 0.120779; stroke-linejoin: miter"/>
   </g>
   <g id="patch_90">
    <path d="M 161.4443 145.8 
L 162.652092 145.8 
L 162.652092 145.8 
L 161.4443 145.8 
z
" clip-path="url(#pbb670f0173)" style="fill: #f77189; fill-opacity: 0.75; stroke: #ffffff; stroke-width: 0.120779; stroke-linejoin: miter"/>
   </g>
   <g id="patch_91">
    <path d="M 162.652092 145.8 
L 163.859884 145.8 
L 163.859884 145.8 
L 162.652092 145.8 
z
" clip-path="url(#pbb670f0173)" style="fill: #f77189; fill-opacity: 0.75; stroke: #ffffff; stroke-width: 0.120779; stroke-linejoin: miter"/>
   </g>
   <g id="patch_92">
    <path d="M 163.859884 145.8 
L 165.067677 145.8 
L 165.067677 145.8 
L 163.859884 145.8 
z
" clip-path="url(#pbb670f0173)" style="fill: #f77189; fill-opacity: 0.75; stroke: #ffffff; stroke-width: 0.120779; stroke-linejoin: miter"/>
   </g>
   <g id="patch_93">
    <path d="M 165.067677 145.8 
L 166.275469 145.8 
L 166.275469 145.8 
L 165.067677 145.8 
z
" clip-path="url(#pbb670f0173)" style="fill: #f77189; fill-opacity: 0.75; stroke: #ffffff; stroke-width: 0.120779; stroke-linejoin: miter"/>
   </g>
   <g id="patch_94">
    <path d="M 166.275469 145.8 
L 167.483261 145.8 
L 167.483261 144.028188 
L 166.275469 144.028188 
z
" clip-path="url(#pbb670f0173)" style="fill: #f77189; fill-opacity: 0.75; stroke: #ffffff; stroke-width: 0.120779; stroke-linejoin: miter"/>
   </g>
   <g id="patch_95">
    <path d="M 167.483261 145.8 
L 168.691053 145.8 
L 168.691053 145.8 
L 167.483261 145.8 
z
" clip-path="url(#pbb670f0173)" style="fill: #f77189; fill-opacity: 0.75; stroke: #ffffff; stroke-width: 0.120779; stroke-linejoin: miter"/>
   </g>
   <g id="patch_96">
    <path d="M 168.691053 145.8 
L 169.898845 145.8 
L 169.898845 145.8 
L 168.691053 145.8 
z
" clip-path="url(#pbb670f0173)" style="fill: #f77189; fill-opacity: 0.75; stroke: #ffffff; stroke-width: 0.120779; stroke-linejoin: miter"/>
   </g>
   <g id="patch_97">
    <path d="M 169.898845 145.8 
L 171.106638 145.8 
L 171.106638 144.914094 
L 169.898845 144.914094 
z
" clip-path="url(#pbb670f0173)" style="fill: #f77189; fill-opacity: 0.75; stroke: #ffffff; stroke-width: 0.120779; stroke-linejoin: miter"/>
   </g>
   <g id="patch_98">
    <path d="M 171.106638 145.8 
L 172.31443 145.8 
L 172.31443 145.8 
L 171.106638 145.8 
z
" clip-path="url(#pbb670f0173)" style="fill: #f77189; fill-opacity: 0.75; stroke: #ffffff; stroke-width: 0.120779; stroke-linejoin: miter"/>
   </g>
   <g id="patch_99">
    <path d="M 172.31443 145.8 
L 173.522222 145.8 
L 173.522222 145.8 
L 172.31443 145.8 
z
" clip-path="url(#pbb670f0173)" style="fill: #f77189; fill-opacity: 0.75; stroke: #ffffff; stroke-width: 0.120779; stroke-linejoin: miter"/>
   </g>
   <g id="patch_100">
    <path d="M 173.522222 145.8 
L 174.730014 145.8 
L 174.730014 145.8 
L 173.522222 145.8 
z
" clip-path="url(#pbb670f0173)" style="fill: #f77189; fill-opacity: 0.75; stroke: #ffffff; stroke-width: 0.120779; stroke-linejoin: miter"/>
   </g>
   <g id="patch_101">
    <path d="M 174.730014 145.8 
L 175.937806 145.8 
L 175.937806 145.8 
L 174.730014 145.8 
z
" clip-path="url(#pbb670f0173)" style="fill: #f77189; fill-opacity: 0.75; stroke: #ffffff; stroke-width: 0.120779; stroke-linejoin: miter"/>
   </g>
   <g id="patch_102">
    <path d="M 175.937806 145.8 
L 177.145599 145.8 
L 177.145599 144.914094 
L 175.937806 144.914094 
z
" clip-path="url(#pbb670f0173)" style="fill: #f77189; fill-opacity: 0.75; stroke: #ffffff; stroke-width: 0.120779; stroke-linejoin: miter"/>
   </g>
   <g id="patch_103">
    <path d="M 177.145599 145.8 
L 178.353391 145.8 
L 178.353391 145.8 
L 177.145599 145.8 
z
" clip-path="url(#pbb670f0173)" style="fill: #f77189; fill-opacity: 0.75; stroke: #ffffff; stroke-width: 0.120779; stroke-linejoin: miter"/>
   </g>
   <g id="patch_104">
    <path d="M 178.353391 145.8 
L 179.561183 145.8 
L 179.561183 145.8 
L 178.353391 145.8 
z
" clip-path="url(#pbb670f0173)" style="fill: #f77189; fill-opacity: 0.75; stroke: #ffffff; stroke-width: 0.120779; stroke-linejoin: miter"/>
   </g>
   <g id="patch_105">
    <path d="M 179.561183 145.8 
L 180.768975 145.8 
L 180.768975 145.8 
L 179.561183 145.8 
z
" clip-path="url(#pbb670f0173)" style="fill: #f77189; fill-opacity: 0.75; stroke: #ffffff; stroke-width: 0.120779; stroke-linejoin: miter"/>
   </g>
   <g id="patch_106">
    <path d="M 180.768975 145.8 
L 181.976767 145.8 
L 181.976767 145.8 
L 180.768975 145.8 
z
" clip-path="url(#pbb670f0173)" style="fill: #f77189; fill-opacity: 0.75; stroke: #ffffff; stroke-width: 0.120779; stroke-linejoin: miter"/>
   </g>
   <g id="patch_107">
    <path d="M 181.976767 145.8 
L 183.18456 145.8 
L 183.18456 144.914094 
L 181.976767 144.914094 
z
" clip-path="url(#pbb670f0173)" style="fill: #f77189; fill-opacity: 0.75; stroke: #ffffff; stroke-width: 0.120779; stroke-linejoin: miter"/>
   </g>
   <g id="patch_108">
    <path d="M 50.025469 145.8 
L 50.025469 7.2 
" style="fill: none; stroke: #000000; stroke-width: 1.25; stroke-linejoin: miter; stroke-linecap: square"/>
   </g>
   <g id="patch_109">
    <path d="M 189.525469 145.8 
L 189.525469 7.2 
" style="fill: none; stroke: #000000; stroke-width: 1.25; stroke-linejoin: miter; stroke-linecap: square"/>
   </g>
   <g id="patch_110">
    <path d="M 50.025469 145.8 
L 189.525469 145.8 
" style="fill: none; stroke: #000000; stroke-width: 1.25; stroke-linejoin: miter; stroke-linecap: square"/>
   </g>
   <g id="patch_111">
    <path d="M 50.025469 7.2 
L 189.525469 7.2 
" style="fill: none; stroke: #000000; stroke-width: 1.25; stroke-linejoin: miter; stroke-linecap: square"/>
   </g>
  </g>
 </g>
 <defs>
  <clipPath id="pbb670f0173">
   <rect x="50.025469" y="7.2" width="139.5" height="138.6"/>
  </clipPath>
 </defs>
</svg>
