<?xml version="1.0" encoding="utf-8" standalone="no"?>
<!DOCTYPE svg PUBLIC "-//W3C//DTD SVG 1.1//EN"
  "http://www.w3.org/Graphics/SVG/1.1/DTD/svg11.dtd">
<svg xmlns:xlink="http://www.w3.org/1999/xlink" width="196.725469pt" height="187.534219pt" viewBox="0 0 196.725469 187.534219" xmlns="http://www.w3.org/2000/svg" version="1.1">
 <metadata>
  <rdf:RDF xmlns:dc="http://purl.org/dc/elements/1.1/" xmlns:cc="http://creativecommons.org/ns#" xmlns:rdf="http://www.w3.org/1999/02/22-rdf-syntax-ns#">
   <cc:Work>
    <dc:type rdf:resource="http://purl.org/dc/dcmitype/StillImage"/>
    <dc:date>2023-11-28T16:12:29.029707</dc:date>
    <dc:format>image/svg+xml</dc:format>
    <dc:creator>
     <cc:Agent>
      <dc:title>Matplotlib v3.6.3, https://matplotlib.org/</dc:title>
     </cc:Agent>
    </dc:creator>
   </cc:Work>
  </rdf:RDF>
 </metadata>
 <defs>
  <style type="text/css">*{stroke-linejoin: round; stroke-linecap: butt}</style>
 </defs>
 <g id="figure_1">
  <g id="patch_1">
   <path d="M 0 187.534219 
L 196.725469 187.534219 
L 196.725469 0 
L 0 0 
L 0 187.534219 
z
" style="fill: none"/>
  </g>
  <g id="axes_1">
   <g id="patch_2">
    <path d="M 50.025469 145.8 
L 189.525469 145.8 
L 189.525469 7.2 
L 50.025469 7.2 
L 50.025469 145.8 
z
" style="fill: none"/>
   </g>
   <g id="matplotlib.axis_1">
    <g id="xtick_1">
     <g id="text_1">
      <!-- −25 -->
      <g style="fill: #262626" transform="translate(65.36333 163.173594) scale(0.11 -0.11)">
       <defs>
        <path id="ArialMT-2212" d="M 3381 1997 
L 356 1997 
L 356 2522 
L 3381 2522 
L 3381 1997 
z
" transform="scale(0.015625)"/>
        <path id="ArialMT-32" d="M 3222 541 
L 3222 0 
L 194 0 
Q 188 203 259 391 
Q 375 700 629 1000 
Q 884 1300 1366 1694 
Q 2113 2306 2375 2664 
Q 2638 3022 2638 3341 
Q 2638 3675 2398 3904 
Q 2159 4134 1775 4134 
Q 1369 4134 1125 3890 
Q 881 3647 878 3216 
L 300 3275 
Q 359 3922 746 4261 
Q 1134 4600 1788 4600 
Q 2447 4600 2831 4234 
Q 3216 3869 3216 3328 
Q 3216 3053 3103 2787 
Q 2991 2522 2730 2228 
Q 2469 1934 1863 1422 
Q 1356 997 1212 845 
Q 1069 694 975 541 
L 3222 541 
z
" transform="scale(0.015625)"/>
        <path id="ArialMT-35" d="M 266 1200 
L 856 1250 
Q 922 819 1161 601 
Q 1400 384 1738 384 
Q 2144 384 2425 690 
Q 2706 997 2706 1503 
Q 2706 1984 2436 2262 
Q 2166 2541 1728 2541 
Q 1456 2541 1237 2417 
Q 1019 2294 894 2097 
L 366 2166 
L 809 4519 
L 3088 4519 
L 3088 3981 
L 1259 3981 
L 1013 2750 
Q 1425 3038 1878 3038 
Q 2478 3038 2890 2622 
Q 3303 2206 3303 1553 
Q 3303 931 2941 478 
Q 2500 -78 1738 -78 
Q 1113 -78 717 272 
Q 322 622 266 1200 
z
" transform="scale(0.015625)"/>
       </defs>
       <use xlink:href="#ArialMT-2212"/>
       <use xlink:href="#ArialMT-32" x="58.398438"/>
       <use xlink:href="#ArialMT-35" x="114.013672"/>
      </g>
     </g>
    </g>
    <g id="xtick_2">
     <g id="text_2">
      <!-- 0 -->
      <g style="fill: #262626" transform="translate(110.904889 163.173594) scale(0.11 -0.11)">
       <defs>
        <path id="ArialMT-30" d="M 266 2259 
Q 266 3072 433 3567 
Q 600 4063 929 4331 
Q 1259 4600 1759 4600 
Q 2128 4600 2406 4451 
Q 2684 4303 2865 4023 
Q 3047 3744 3150 3342 
Q 3253 2941 3253 2259 
Q 3253 1453 3087 958 
Q 2922 463 2592 192 
Q 2263 -78 1759 -78 
Q 1097 -78 719 397 
Q 266 969 266 2259 
z
M 844 2259 
Q 844 1131 1108 757 
Q 1372 384 1759 384 
Q 2147 384 2411 759 
Q 2675 1134 2675 2259 
Q 2675 3391 2411 3762 
Q 2147 4134 1753 4134 
Q 1366 4134 1134 3806 
Q 844 3388 844 2259 
z
" transform="scale(0.015625)"/>
       </defs>
       <use xlink:href="#ArialMT-30"/>
      </g>
     </g>
    </g>
    <g id="xtick_3">
     <g id="text_3">
      <!-- 25 -->
      <g style="fill: #262626" transform="translate(147.117074 163.173594) scale(0.11 -0.11)">
       <use xlink:href="#ArialMT-32"/>
       <use xlink:href="#ArialMT-35" x="55.615234"/>
      </g>
     </g>
    </g>
    <g id="text_4">
     <!-- Zeta -->
     <g transform="translate(107.770781 177.949219) scale(0.12 -0.12)">
      <defs>
       <path id="ArialMT-5a" d="M 128 0 
L 128 563 
L 2475 3497 
Q 2725 3809 2950 4041 
L 394 4041 
L 394 4581 
L 3675 4581 
L 3675 4041 
L 1103 863 
L 825 541 
L 3750 541 
L 3750 0 
L 128 0 
z
" transform="scale(0.015625)"/>
       <path id="ArialMT-65" d="M 2694 1069 
L 3275 997 
Q 3138 488 2766 206 
Q 2394 -75 1816 -75 
Q 1088 -75 661 373 
Q 234 822 234 1631 
Q 234 2469 665 2931 
Q 1097 3394 1784 3394 
Q 2450 3394 2872 2941 
Q 3294 2488 3294 1666 
Q 3294 1616 3291 1516 
L 816 1516 
Q 847 969 1125 678 
Q 1403 388 1819 388 
Q 2128 388 2347 550 
Q 2566 713 2694 1069 
z
M 847 1978 
L 2700 1978 
Q 2663 2397 2488 2606 
Q 2219 2931 1791 2931 
Q 1403 2931 1139 2672 
Q 875 2413 847 1978 
z
" transform="scale(0.015625)"/>
       <path id="ArialMT-74" d="M 1650 503 
L 1731 6 
Q 1494 -44 1306 -44 
Q 1000 -44 831 53 
Q 663 150 594 308 
Q 525 466 525 972 
L 525 2881 
L 113 2881 
L 113 3319 
L 525 3319 
L 525 4141 
L 1084 4478 
L 1084 3319 
L 1650 3319 
L 1650 2881 
L 1084 2881 
L 1084 941 
Q 1084 700 1114 631 
Q 1144 563 1211 522 
Q 1278 481 1403 481 
Q 1497 481 1650 503 
z
" transform="scale(0.015625)"/>
       <path id="ArialMT-61" d="M 2588 409 
Q 2275 144 1986 34 
Q 1697 -75 1366 -75 
Q 819 -75 525 192 
Q 231 459 231 875 
Q 231 1119 342 1320 
Q 453 1522 633 1644 
Q 813 1766 1038 1828 
Q 1203 1872 1538 1913 
Q 2219 1994 2541 2106 
Q 2544 2222 2544 2253 
Q 2544 2597 2384 2738 
Q 2169 2928 1744 2928 
Q 1347 2928 1158 2789 
Q 969 2650 878 2297 
L 328 2372 
Q 403 2725 575 2942 
Q 747 3159 1072 3276 
Q 1397 3394 1825 3394 
Q 2250 3394 2515 3294 
Q 2781 3194 2906 3042 
Q 3031 2891 3081 2659 
Q 3109 2516 3109 2141 
L 3109 1391 
Q 3109 606 3145 398 
Q 3181 191 3288 0 
L 2700 0 
Q 2613 175 2588 409 
z
M 2541 1666 
Q 2234 1541 1622 1453 
Q 1275 1403 1131 1340 
Q 988 1278 909 1158 
Q 831 1038 831 891 
Q 831 666 1001 516 
Q 1172 366 1500 366 
Q 1825 366 2078 508 
Q 2331 650 2450 897 
Q 2541 1088 2541 1459 
L 2541 1666 
z
" transform="scale(0.015625)"/>
      </defs>
      <use xlink:href="#ArialMT-5a"/>
      <use xlink:href="#ArialMT-65" x="61.083984"/>
      <use xlink:href="#ArialMT-74" x="116.699219"/>
      <use xlink:href="#ArialMT-61" x="144.482422"/>
     </g>
    </g>
   </g>
   <g id="matplotlib.axis_2">
    <g id="ytick_1">
     <g id="text_5">
      <!-- 0 -->
      <g style="fill: #262626" transform="translate(34.408438 149.736797) scale(0.11 -0.11)">
       <use xlink:href="#ArialMT-30"/>
      </g>
     </g>
    </g>
    <g id="ytick_2">
     <g id="text_6">
      <!-- 50 -->
      <g style="fill: #262626" transform="translate(28.291406 109.492894) scale(0.11 -0.11)">
       <use xlink:href="#ArialMT-35"/>
       <use xlink:href="#ArialMT-30" x="55.615234"/>
      </g>
     </g>
    </g>
    <g id="ytick_3">
     <g id="text_7">
      <!-- 100 -->
      <g style="fill: #262626" transform="translate(22.174375 69.248992) scale(0.11 -0.11)">
       <defs>
        <path id="ArialMT-31" d="M 2384 0 
L 1822 0 
L 1822 3584 
Q 1619 3391 1289 3197 
Q 959 3003 697 2906 
L 697 3450 
Q 1169 3672 1522 3987 
Q 1875 4303 2022 4600 
L 2384 4600 
L 2384 0 
z
" transform="scale(0.015625)"/>
       </defs>
       <use xlink:href="#ArialMT-31"/>
       <use xlink:href="#ArialMT-30" x="55.615234"/>
       <use xlink:href="#ArialMT-30" x="111.230469"/>
      </g>
     </g>
    </g>
    <g id="ytick_4">
     <g id="text_8">
      <!-- 150 -->
      <g style="fill: #262626" transform="translate(22.174375 29.00509) scale(0.11 -0.11)">
       <use xlink:href="#ArialMT-31"/>
       <use xlink:href="#ArialMT-35" x="55.615234"/>
       <use xlink:href="#ArialMT-30" x="111.230469"/>
      </g>
     </g>
    </g>
    <g id="text_9">
     <!-- Count -->
     <g transform="translate(15.789375 92.509688) rotate(-90) scale(0.12 -0.12)">
      <defs>
       <path id="ArialMT-43" d="M 3763 1606 
L 4369 1453 
Q 4178 706 3683 314 
Q 3188 -78 2472 -78 
Q 1731 -78 1267 223 
Q 803 525 561 1097 
Q 319 1669 319 2325 
Q 319 3041 592 3573 
Q 866 4106 1370 4382 
Q 1875 4659 2481 4659 
Q 3169 4659 3637 4309 
Q 4106 3959 4291 3325 
L 3694 3184 
Q 3534 3684 3231 3912 
Q 2928 4141 2469 4141 
Q 1941 4141 1586 3887 
Q 1231 3634 1087 3207 
Q 944 2781 944 2328 
Q 944 1744 1114 1308 
Q 1284 872 1643 656 
Q 2003 441 2422 441 
Q 2931 441 3284 734 
Q 3638 1028 3763 1606 
z
" transform="scale(0.015625)"/>
       <path id="ArialMT-6f" d="M 213 1659 
Q 213 2581 725 3025 
Q 1153 3394 1769 3394 
Q 2453 3394 2887 2945 
Q 3322 2497 3322 1706 
Q 3322 1066 3130 698 
Q 2938 331 2570 128 
Q 2203 -75 1769 -75 
Q 1072 -75 642 372 
Q 213 819 213 1659 
z
M 791 1659 
Q 791 1022 1069 705 
Q 1347 388 1769 388 
Q 2188 388 2466 706 
Q 2744 1025 2744 1678 
Q 2744 2294 2464 2611 
Q 2184 2928 1769 2928 
Q 1347 2928 1069 2612 
Q 791 2297 791 1659 
z
" transform="scale(0.015625)"/>
       <path id="ArialMT-75" d="M 2597 0 
L 2597 488 
Q 2209 -75 1544 -75 
Q 1250 -75 995 37 
Q 741 150 617 320 
Q 494 491 444 738 
Q 409 903 409 1263 
L 409 3319 
L 972 3319 
L 972 1478 
Q 972 1038 1006 884 
Q 1059 663 1231 536 
Q 1403 409 1656 409 
Q 1909 409 2131 539 
Q 2353 669 2445 892 
Q 2538 1116 2538 1541 
L 2538 3319 
L 3100 3319 
L 3100 0 
L 2597 0 
z
" transform="scale(0.015625)"/>
       <path id="ArialMT-6e" d="M 422 0 
L 422 3319 
L 928 3319 
L 928 2847 
Q 1294 3394 1984 3394 
Q 2284 3394 2536 3286 
Q 2788 3178 2913 3003 
Q 3038 2828 3088 2588 
Q 3119 2431 3119 2041 
L 3119 0 
L 2556 0 
L 2556 2019 
Q 2556 2363 2490 2533 
Q 2425 2703 2258 2804 
Q 2091 2906 1866 2906 
Q 1506 2906 1245 2678 
Q 984 2450 984 1813 
L 984 0 
L 422 0 
z
" transform="scale(0.015625)"/>
      </defs>
      <use xlink:href="#ArialMT-43"/>
      <use xlink:href="#ArialMT-6f" x="72.216797"/>
      <use xlink:href="#ArialMT-75" x="127.832031"/>
      <use xlink:href="#ArialMT-6e" x="183.447266"/>
      <use xlink:href="#ArialMT-74" x="239.0625"/>
     </g>
    </g>
   </g>
   <g id="patch_3">
    <path d="M 56.366378 145.8 
L 57.585783 145.8 
L 57.585783 144.190244 
L 56.366378 144.190244 
z
" clip-path="url(#pd1dd07dde7)" style="fill: #f77189; fill-opacity: 0.75; stroke: #ffffff; stroke-width: 0.121941; stroke-linejoin: miter"/>
   </g>
   <g id="patch_4">
    <path d="M 57.585783 145.8 
L 58.805189 145.8 
L 58.805189 145.8 
L 57.585783 145.8 
z
" clip-path="url(#pd1dd07dde7)" style="fill: #f77189; fill-opacity: 0.75; stroke: #ffffff; stroke-width: 0.121941; stroke-linejoin: miter"/>
   </g>
   <g id="patch_5">
    <path d="M 58.805189 145.8 
L 60.024595 145.8 
L 60.024595 145.8 
L 58.805189 145.8 
z
" clip-path="url(#pd1dd07dde7)" style="fill: #f77189; fill-opacity: 0.75; stroke: #ffffff; stroke-width: 0.121941; stroke-linejoin: miter"/>
   </g>
   <g id="patch_6">
    <path d="M 60.024595 145.8 
L 61.244 145.8 
L 61.244 144.995122 
L 60.024595 144.995122 
z
" clip-path="url(#pd1dd07dde7)" style="fill: #f77189; fill-opacity: 0.75; stroke: #ffffff; stroke-width: 0.121941; stroke-linejoin: miter"/>
   </g>
   <g id="patch_7">
    <path d="M 61.244 145.8 
L 62.463406 145.8 
L 62.463406 145.8 
L 61.244 145.8 
z
" clip-path="url(#pd1dd07dde7)" style="fill: #f77189; fill-opacity: 0.75; stroke: #ffffff; stroke-width: 0.121941; stroke-linejoin: miter"/>
   </g>
   <g id="patch_8">
    <path d="M 62.463406 145.8 
L 63.682811 145.8 
L 63.682811 145.8 
L 62.463406 145.8 
z
" clip-path="url(#pd1dd07dde7)" style="fill: #f77189; fill-opacity: 0.75; stroke: #ffffff; stroke-width: 0.121941; stroke-linejoin: miter"/>
   </g>
   <g id="patch_9">
    <path d="M 63.682811 145.8 
L 64.902217 145.8 
L 64.902217 143.385366 
L 63.682811 143.385366 
z
" clip-path="url(#pd1dd07dde7)" style="fill: #f77189; fill-opacity: 0.75; stroke: #ffffff; stroke-width: 0.121941; stroke-linejoin: miter"/>
   </g>
   <g id="patch_10">
    <path d="M 64.902217 145.8 
L 66.121623 145.8 
L 66.121623 144.190244 
L 64.902217 144.190244 
z
" clip-path="url(#pd1dd07dde7)" style="fill: #f77189; fill-opacity: 0.75; stroke: #ffffff; stroke-width: 0.121941; stroke-linejoin: miter"/>
   </g>
   <g id="patch_11">
    <path d="M 66.121623 145.8 
L 67.341028 145.8 
L 67.341028 144.995122 
L 66.121623 144.995122 
z
" clip-path="url(#pd1dd07dde7)" style="fill: #f77189; fill-opacity: 0.75; stroke: #ffffff; stroke-width: 0.121941; stroke-linejoin: miter"/>
   </g>
   <g id="patch_12">
    <path d="M 67.341028 145.8 
L 68.560434 145.8 
L 68.560434 144.995122 
L 67.341028 144.995122 
z
" clip-path="url(#pd1dd07dde7)" style="fill: #f77189; fill-opacity: 0.75; stroke: #ffffff; stroke-width: 0.121941; stroke-linejoin: miter"/>
   </g>
   <g id="patch_13">
    <path d="M 68.560434 145.8 
L 69.779839 145.8 
L 69.779839 143.385366 
L 68.560434 143.385366 
z
" clip-path="url(#pd1dd07dde7)" style="fill: #f77189; fill-opacity: 0.75; stroke: #ffffff; stroke-width: 0.121941; stroke-linejoin: miter"/>
   </g>
   <g id="patch_14">
    <path d="M 69.779839 145.8 
L 70.999245 145.8 
L 70.999245 144.995122 
L 69.779839 144.995122 
z
" clip-path="url(#pd1dd07dde7)" style="fill: #f77189; fill-opacity: 0.75; stroke: #ffffff; stroke-width: 0.121941; stroke-linejoin: miter"/>
   </g>
   <g id="patch_15">
    <path d="M 70.999245 145.8 
L 72.218651 145.8 
L 72.218651 143.385366 
L 70.999245 143.385366 
z
" clip-path="url(#pd1dd07dde7)" style="fill: #f77189; fill-opacity: 0.75; stroke: #ffffff; stroke-width: 0.121941; stroke-linejoin: miter"/>
   </g>
   <g id="patch_16">
    <path d="M 72.218651 145.8 
L 73.438056 145.8 
L 73.438056 145.8 
L 72.218651 145.8 
z
" clip-path="url(#pd1dd07dde7)" style="fill: #f77189; fill-opacity: 0.75; stroke: #ffffff; stroke-width: 0.121941; stroke-linejoin: miter"/>
   </g>
   <g id="patch_17">
    <path d="M 73.438056 145.8 
L 74.657462 145.8 
L 74.657462 142.580488 
L 73.438056 142.580488 
z
" clip-path="url(#pd1dd07dde7)" style="fill: #f77189; fill-opacity: 0.75; stroke: #ffffff; stroke-width: 0.121941; stroke-linejoin: miter"/>
   </g>
   <g id="patch_18">
    <path d="M 74.657462 145.8 
L 75.876867 145.8 
L 75.876867 144.190244 
L 74.657462 144.190244 
z
" clip-path="url(#pd1dd07dde7)" style="fill: #f77189; fill-opacity: 0.75; stroke: #ffffff; stroke-width: 0.121941; stroke-linejoin: miter"/>
   </g>
   <g id="patch_19">
    <path d="M 75.876867 145.8 
L 77.096273 145.8 
L 77.096273 144.995122 
L 75.876867 144.995122 
z
" clip-path="url(#pd1dd07dde7)" style="fill: #f77189; fill-opacity: 0.75; stroke: #ffffff; stroke-width: 0.121941; stroke-linejoin: miter"/>
   </g>
   <g id="patch_20">
    <path d="M 77.096273 145.8 
L 78.315679 145.8 
L 78.315679 145.8 
L 77.096273 145.8 
z
" clip-path="url(#pd1dd07dde7)" style="fill: #f77189; fill-opacity: 0.75; stroke: #ffffff; stroke-width: 0.121941; stroke-linejoin: miter"/>
   </g>
   <g id="patch_21">
    <path d="M 78.315679 145.8 
L 79.535084 145.8 
L 79.535084 144.190244 
L 78.315679 144.190244 
z
" clip-path="url(#pd1dd07dde7)" style="fill: #f77189; fill-opacity: 0.75; stroke: #ffffff; stroke-width: 0.121941; stroke-linejoin: miter"/>
   </g>
   <g id="patch_22">
    <path d="M 79.535084 145.8 
L 80.75449 145.8 
L 80.75449 144.995122 
L 79.535084 144.995122 
z
" clip-path="url(#pd1dd07dde7)" style="fill: #f77189; fill-opacity: 0.75; stroke: #ffffff; stroke-width: 0.121941; stroke-linejoin: miter"/>
   </g>
   <g id="patch_23">
    <path d="M 80.75449 145.8 
L 81.973895 145.8 
L 81.973895 143.385366 
L 80.75449 143.385366 
z
" clip-path="url(#pd1dd07dde7)" style="fill: #f77189; fill-opacity: 0.75; stroke: #ffffff; stroke-width: 0.121941; stroke-linejoin: miter"/>
   </g>
   <g id="patch_24">
    <path d="M 81.973895 145.8 
L 83.193301 145.8 
L 83.193301 142.580488 
L 81.973895 142.580488 
z
" clip-path="url(#pd1dd07dde7)" style="fill: #f77189; fill-opacity: 0.75; stroke: #ffffff; stroke-width: 0.121941; stroke-linejoin: miter"/>
   </g>
   <g id="patch_25">
    <path d="M 83.193301 145.8 
L 84.412707 145.8 
L 84.412707 144.995122 
L 83.193301 144.995122 
z
" clip-path="url(#pd1dd07dde7)" style="fill: #f77189; fill-opacity: 0.75; stroke: #ffffff; stroke-width: 0.121941; stroke-linejoin: miter"/>
   </g>
   <g id="patch_26">
    <path d="M 84.412707 145.8 
L 85.632112 145.8 
L 85.632112 145.8 
L 84.412707 145.8 
z
" clip-path="url(#pd1dd07dde7)" style="fill: #f77189; fill-opacity: 0.75; stroke: #ffffff; stroke-width: 0.121941; stroke-linejoin: miter"/>
   </g>
   <g id="patch_27">
    <path d="M 85.632112 145.8 
L 86.851518 145.8 
L 86.851518 143.385366 
L 85.632112 143.385366 
z
" clip-path="url(#pd1dd07dde7)" style="fill: #f77189; fill-opacity: 0.75; stroke: #ffffff; stroke-width: 0.121941; stroke-linejoin: miter"/>
   </g>
   <g id="patch_28">
    <path d="M 86.851518 145.8 
L 88.070923 145.8 
L 88.070923 144.190244 
L 86.851518 144.190244 
z
" clip-path="url(#pd1dd07dde7)" style="fill: #f77189; fill-opacity: 0.75; stroke: #ffffff; stroke-width: 0.121941; stroke-linejoin: miter"/>
   </g>
   <g id="patch_29">
    <path d="M 88.070923 145.8 
L 89.290329 145.8 
L 89.290329 143.385366 
L 88.070923 143.385366 
z
" clip-path="url(#pd1dd07dde7)" style="fill: #f77189; fill-opacity: 0.75; stroke: #ffffff; stroke-width: 0.121941; stroke-linejoin: miter"/>
   </g>
   <g id="patch_30">
    <path d="M 89.290329 145.8 
L 90.509734 145.8 
L 90.509734 141.77561 
L 89.290329 141.77561 
z
" clip-path="url(#pd1dd07dde7)" style="fill: #f77189; fill-opacity: 0.75; stroke: #ffffff; stroke-width: 0.121941; stroke-linejoin: miter"/>
   </g>
   <g id="patch_31">
    <path d="M 90.509734 145.8 
L 91.72914 145.8 
L 91.72914 144.190244 
L 90.509734 144.190244 
z
" clip-path="url(#pd1dd07dde7)" style="fill: #f77189; fill-opacity: 0.75; stroke: #ffffff; stroke-width: 0.121941; stroke-linejoin: miter"/>
   </g>
   <g id="patch_32">
    <path d="M 91.72914 145.8 
L 92.948546 145.8 
L 92.948546 141.77561 
L 91.72914 141.77561 
z
" clip-path="url(#pd1dd07dde7)" style="fill: #f77189; fill-opacity: 0.75; stroke: #ffffff; stroke-width: 0.121941; stroke-linejoin: miter"/>
   </g>
   <g id="patch_33">
    <path d="M 92.948546 145.8 
L 94.167951 145.8 
L 94.167951 144.190244 
L 92.948546 144.190244 
z
" clip-path="url(#pd1dd07dde7)" style="fill: #f77189; fill-opacity: 0.75; stroke: #ffffff; stroke-width: 0.121941; stroke-linejoin: miter"/>
   </g>
   <g id="patch_34">
    <path d="M 94.167951 145.8 
L 95.387357 145.8 
L 95.387357 140.970732 
L 94.167951 140.970732 
z
" clip-path="url(#pd1dd07dde7)" style="fill: #f77189; fill-opacity: 0.75; stroke: #ffffff; stroke-width: 0.121941; stroke-linejoin: miter"/>
   </g>
   <g id="patch_35">
    <path d="M 95.387357 145.8 
L 96.606762 145.8 
L 96.606762 143.385366 
L 95.387357 143.385366 
z
" clip-path="url(#pd1dd07dde7)" style="fill: #f77189; fill-opacity: 0.75; stroke: #ffffff; stroke-width: 0.121941; stroke-linejoin: miter"/>
   </g>
   <g id="patch_36">
    <path d="M 96.606762 145.8 
L 97.826168 145.8 
L 97.826168 142.580488 
L 96.606762 142.580488 
z
" clip-path="url(#pd1dd07dde7)" style="fill: #f77189; fill-opacity: 0.75; stroke: #ffffff; stroke-width: 0.121941; stroke-linejoin: miter"/>
   </g>
   <g id="patch_37">
    <path d="M 97.826168 145.8 
L 99.045574 145.8 
L 99.045574 138.556098 
L 97.826168 138.556098 
z
" clip-path="url(#pd1dd07dde7)" style="fill: #f77189; fill-opacity: 0.75; stroke: #ffffff; stroke-width: 0.121941; stroke-linejoin: miter"/>
   </g>
   <g id="patch_38">
    <path d="M 99.045574 145.8 
L 100.264979 145.8 
L 100.264979 140.970732 
L 99.045574 140.970732 
z
" clip-path="url(#pd1dd07dde7)" style="fill: #f77189; fill-opacity: 0.75; stroke: #ffffff; stroke-width: 0.121941; stroke-linejoin: miter"/>
   </g>
   <g id="patch_39">
    <path d="M 100.264979 145.8 
L 101.484385 145.8 
L 101.484385 135.336585 
L 100.264979 135.336585 
z
" clip-path="url(#pd1dd07dde7)" style="fill: #f77189; fill-opacity: 0.75; stroke: #ffffff; stroke-width: 0.121941; stroke-linejoin: miter"/>
   </g>
   <g id="patch_40">
    <path d="M 101.484385 145.8 
L 102.70379 145.8 
L 102.70379 136.141463 
L 101.484385 136.141463 
z
" clip-path="url(#pd1dd07dde7)" style="fill: #f77189; fill-opacity: 0.75; stroke: #ffffff; stroke-width: 0.121941; stroke-linejoin: miter"/>
   </g>
   <g id="patch_41">
    <path d="M 102.70379 145.8 
L 103.923196 145.8 
L 103.923196 128.897561 
L 102.70379 128.897561 
z
" clip-path="url(#pd1dd07dde7)" style="fill: #f77189; fill-opacity: 0.75; stroke: #ffffff; stroke-width: 0.121941; stroke-linejoin: miter"/>
   </g>
   <g id="patch_42">
    <path d="M 103.923196 145.8 
L 105.142602 145.8 
L 105.142602 128.092683 
L 103.923196 128.092683 
z
" clip-path="url(#pd1dd07dde7)" style="fill: #f77189; fill-opacity: 0.75; stroke: #ffffff; stroke-width: 0.121941; stroke-linejoin: miter"/>
   </g>
   <g id="patch_43">
    <path d="M 105.142602 145.8 
L 106.362007 145.8 
L 106.362007 116.82439 
L 105.142602 116.82439 
z
" clip-path="url(#pd1dd07dde7)" style="fill: #f77189; fill-opacity: 0.75; stroke: #ffffff; stroke-width: 0.121941; stroke-linejoin: miter"/>
   </g>
   <g id="patch_44">
    <path d="M 106.362007 145.8 
L 107.581413 145.8 
L 107.581413 113.604878 
L 106.362007 113.604878 
z
" clip-path="url(#pd1dd07dde7)" style="fill: #f77189; fill-opacity: 0.75; stroke: #ffffff; stroke-width: 0.121941; stroke-linejoin: miter"/>
   </g>
   <g id="patch_45">
    <path d="M 107.581413 145.8 
L 108.800818 145.8 
L 108.800818 95.092683 
L 107.581413 95.092683 
z
" clip-path="url(#pd1dd07dde7)" style="fill: #f77189; fill-opacity: 0.75; stroke: #ffffff; stroke-width: 0.121941; stroke-linejoin: miter"/>
   </g>
   <g id="patch_46">
    <path d="M 108.800818 145.8 
L 110.020224 145.8 
L 110.020224 74.970732 
L 108.800818 74.970732 
z
" clip-path="url(#pd1dd07dde7)" style="fill: #f77189; fill-opacity: 0.75; stroke: #ffffff; stroke-width: 0.121941; stroke-linejoin: miter"/>
   </g>
   <g id="patch_47">
    <path d="M 110.020224 145.8 
L 111.23963 145.8 
L 111.23963 49.214634 
L 110.020224 49.214634 
z
" clip-path="url(#pd1dd07dde7)" style="fill: #f77189; fill-opacity: 0.75; stroke: #ffffff; stroke-width: 0.121941; stroke-linejoin: miter"/>
   </g>
   <g id="patch_48">
    <path d="M 111.23963 145.8 
L 112.459035 145.8 
L 112.459035 13.8 
L 111.23963 13.8 
z
" clip-path="url(#pd1dd07dde7)" style="fill: #f77189; fill-opacity: 0.75; stroke: #ffffff; stroke-width: 0.121941; stroke-linejoin: miter"/>
   </g>
   <g id="patch_49">
    <path d="M 112.459035 145.8 
L 113.678441 145.8 
L 113.678441 66.921951 
L 112.459035 66.921951 
z
" clip-path="url(#pd1dd07dde7)" style="fill: #f77189; fill-opacity: 0.75; stroke: #ffffff; stroke-width: 0.121941; stroke-linejoin: miter"/>
   </g>
   <g id="patch_50">
    <path d="M 113.678441 145.8 
L 114.897846 145.8 
L 114.897846 102.336585 
L 113.678441 102.336585 
z
" clip-path="url(#pd1dd07dde7)" style="fill: #f77189; fill-opacity: 0.75; stroke: #ffffff; stroke-width: 0.121941; stroke-linejoin: miter"/>
   </g>
   <g id="patch_51">
    <path d="M 114.897846 145.8 
L 116.117252 145.8 
L 116.117252 115.214634 
L 114.897846 115.214634 
z
" clip-path="url(#pd1dd07dde7)" style="fill: #f77189; fill-opacity: 0.75; stroke: #ffffff; stroke-width: 0.121941; stroke-linejoin: miter"/>
   </g>
   <g id="patch_52">
    <path d="M 116.117252 145.8 
L 117.336658 145.8 
L 117.336658 121.653659 
L 116.117252 121.653659 
z
" clip-path="url(#pd1dd07dde7)" style="fill: #f77189; fill-opacity: 0.75; stroke: #ffffff; stroke-width: 0.121941; stroke-linejoin: miter"/>
   </g>
   <g id="patch_53">
    <path d="M 117.336658 145.8 
L 118.556063 145.8 
L 118.556063 124.873171 
L 117.336658 124.873171 
z
" clip-path="url(#pd1dd07dde7)" style="fill: #f77189; fill-opacity: 0.75; stroke: #ffffff; stroke-width: 0.121941; stroke-linejoin: miter"/>
   </g>
   <g id="patch_54">
    <path d="M 118.556063 145.8 
L 119.775469 145.8 
L 119.775469 135.336585 
L 118.556063 135.336585 
z
" clip-path="url(#pd1dd07dde7)" style="fill: #f77189; fill-opacity: 0.75; stroke: #ffffff; stroke-width: 0.121941; stroke-linejoin: miter"/>
   </g>
   <g id="patch_55">
    <path d="M 119.775469 145.8 
L 120.994874 145.8 
L 120.994874 132.921951 
L 119.775469 132.921951 
z
" clip-path="url(#pd1dd07dde7)" style="fill: #f77189; fill-opacity: 0.75; stroke: #ffffff; stroke-width: 0.121941; stroke-linejoin: miter"/>
   </g>
   <g id="patch_56">
    <path d="M 120.994874 145.8 
L 122.21428 145.8 
L 122.21428 136.946341 
L 120.994874 136.946341 
z
" clip-path="url(#pd1dd07dde7)" style="fill: #f77189; fill-opacity: 0.75; stroke: #ffffff; stroke-width: 0.121941; stroke-linejoin: miter"/>
   </g>
   <g id="patch_57">
    <path d="M 122.21428 145.8 
L 123.433686 145.8 
L 123.433686 134.531707 
L 122.21428 134.531707 
z
" clip-path="url(#pd1dd07dde7)" style="fill: #f77189; fill-opacity: 0.75; stroke: #ffffff; stroke-width: 0.121941; stroke-linejoin: miter"/>
   </g>
   <g id="patch_58">
    <path d="M 123.433686 145.8 
L 124.653091 145.8 
L 124.653091 133.726829 
L 123.433686 133.726829 
z
" clip-path="url(#pd1dd07dde7)" style="fill: #f77189; fill-opacity: 0.75; stroke: #ffffff; stroke-width: 0.121941; stroke-linejoin: miter"/>
   </g>
   <g id="patch_59">
    <path d="M 124.653091 145.8 
L 125.872497 145.8 
L 125.872497 139.360976 
L 124.653091 139.360976 
z
" clip-path="url(#pd1dd07dde7)" style="fill: #f77189; fill-opacity: 0.75; stroke: #ffffff; stroke-width: 0.121941; stroke-linejoin: miter"/>
   </g>
   <g id="patch_60">
    <path d="M 125.872497 145.8 
L 127.091902 145.8 
L 127.091902 138.556098 
L 125.872497 138.556098 
z
" clip-path="url(#pd1dd07dde7)" style="fill: #f77189; fill-opacity: 0.75; stroke: #ffffff; stroke-width: 0.121941; stroke-linejoin: miter"/>
   </g>
   <g id="patch_61">
    <path d="M 127.091902 145.8 
L 128.311308 145.8 
L 128.311308 136.141463 
L 127.091902 136.141463 
z
" clip-path="url(#pd1dd07dde7)" style="fill: #f77189; fill-opacity: 0.75; stroke: #ffffff; stroke-width: 0.121941; stroke-linejoin: miter"/>
   </g>
   <g id="patch_62">
    <path d="M 128.311308 145.8 
L 129.530714 145.8 
L 129.530714 140.970732 
L 128.311308 140.970732 
z
" clip-path="url(#pd1dd07dde7)" style="fill: #f77189; fill-opacity: 0.75; stroke: #ffffff; stroke-width: 0.121941; stroke-linejoin: miter"/>
   </g>
   <g id="patch_63">
    <path d="M 129.530714 145.8 
L 130.750119 145.8 
L 130.750119 142.580488 
L 129.530714 142.580488 
z
" clip-path="url(#pd1dd07dde7)" style="fill: #f77189; fill-opacity: 0.75; stroke: #ffffff; stroke-width: 0.121941; stroke-linejoin: miter"/>
   </g>
   <g id="patch_64">
    <path d="M 130.750119 145.8 
L 131.969525 145.8 
L 131.969525 140.970732 
L 130.750119 140.970732 
z
" clip-path="url(#pd1dd07dde7)" style="fill: #f77189; fill-opacity: 0.75; stroke: #ffffff; stroke-width: 0.121941; stroke-linejoin: miter"/>
   </g>
   <g id="patch_65">
    <path d="M 131.969525 145.8 
L 133.18893 145.8 
L 133.18893 140.970732 
L 131.969525 140.970732 
z
" clip-path="url(#pd1dd07dde7)" style="fill: #f77189; fill-opacity: 0.75; stroke: #ffffff; stroke-width: 0.121941; stroke-linejoin: miter"/>
   </g>
   <g id="patch_66">
    <path d="M 133.18893 145.8 
L 134.408336 145.8 
L 134.408336 142.580488 
L 133.18893 142.580488 
z
" clip-path="url(#pd1dd07dde7)" style="fill: #f77189; fill-opacity: 0.75; stroke: #ffffff; stroke-width: 0.121941; stroke-linejoin: miter"/>
   </g>
   <g id="patch_67">
    <path d="M 134.408336 145.8 
L 135.627741 145.8 
L 135.627741 144.190244 
L 134.408336 144.190244 
z
" clip-path="url(#pd1dd07dde7)" style="fill: #f77189; fill-opacity: 0.75; stroke: #ffffff; stroke-width: 0.121941; stroke-linejoin: miter"/>
   </g>
   <g id="patch_68">
    <path d="M 135.627741 145.8 
L 136.847147 145.8 
L 136.847147 141.77561 
L 135.627741 141.77561 
z
" clip-path="url(#pd1dd07dde7)" style="fill: #f77189; fill-opacity: 0.75; stroke: #ffffff; stroke-width: 0.121941; stroke-linejoin: miter"/>
   </g>
   <g id="patch_69">
    <path d="M 136.847147 145.8 
L 138.066553 145.8 
L 138.066553 144.190244 
L 136.847147 144.190244 
z
" clip-path="url(#pd1dd07dde7)" style="fill: #f77189; fill-opacity: 0.75; stroke: #ffffff; stroke-width: 0.121941; stroke-linejoin: miter"/>
   </g>
   <g id="patch_70">
    <path d="M 138.066553 145.8 
L 139.285958 145.8 
L 139.285958 141.77561 
L 138.066553 141.77561 
z
" clip-path="url(#pd1dd07dde7)" style="fill: #f77189; fill-opacity: 0.75; stroke: #ffffff; stroke-width: 0.121941; stroke-linejoin: miter"/>
   </g>
   <g id="patch_71">
    <path d="M 139.285958 145.8 
L 140.505364 145.8 
L 140.505364 144.190244 
L 139.285958 144.190244 
z
" clip-path="url(#pd1dd07dde7)" style="fill: #f77189; fill-opacity: 0.75; stroke: #ffffff; stroke-width: 0.121941; stroke-linejoin: miter"/>
   </g>
   <g id="patch_72">
    <path d="M 140.505364 145.8 
L 141.724769 145.8 
L 141.724769 144.995122 
L 140.505364 144.995122 
z
" clip-path="url(#pd1dd07dde7)" style="fill: #f77189; fill-opacity: 0.75; stroke: #ffffff; stroke-width: 0.121941; stroke-linejoin: miter"/>
   </g>
   <g id="patch_73">
    <path d="M 141.724769 145.8 
L 142.944175 145.8 
L 142.944175 143.385366 
L 141.724769 143.385366 
z
" clip-path="url(#pd1dd07dde7)" style="fill: #f77189; fill-opacity: 0.75; stroke: #ffffff; stroke-width: 0.121941; stroke-linejoin: miter"/>
   </g>
   <g id="patch_74">
    <path d="M 142.944175 145.8 
L 144.163581 145.8 
L 144.163581 143.385366 
L 142.944175 143.385366 
z
" clip-path="url(#pd1dd07dde7)" style="fill: #f77189; fill-opacity: 0.75; stroke: #ffffff; stroke-width: 0.121941; stroke-linejoin: miter"/>
   </g>
   <g id="patch_75">
    <path d="M 144.163581 145.8 
L 145.382986 145.8 
L 145.382986 143.385366 
L 144.163581 143.385366 
z
" clip-path="url(#pd1dd07dde7)" style="fill: #f77189; fill-opacity: 0.75; stroke: #ffffff; stroke-width: 0.121941; stroke-linejoin: miter"/>
   </g>
   <g id="patch_76">
    <path d="M 145.382986 145.8 
L 146.602392 145.8 
L 146.602392 145.8 
L 145.382986 145.8 
z
" clip-path="url(#pd1dd07dde7)" style="fill: #f77189; fill-opacity: 0.75; stroke: #ffffff; stroke-width: 0.121941; stroke-linejoin: miter"/>
   </g>
   <g id="patch_77">
    <path d="M 146.602392 145.8 
L 147.821797 145.8 
L 147.821797 142.580488 
L 146.602392 142.580488 
z
" clip-path="url(#pd1dd07dde7)" style="fill: #f77189; fill-opacity: 0.75; stroke: #ffffff; stroke-width: 0.121941; stroke-linejoin: miter"/>
   </g>
   <g id="patch_78">
    <path d="M 147.821797 145.8 
L 149.041203 145.8 
L 149.041203 144.995122 
L 147.821797 144.995122 
z
" clip-path="url(#pd1dd07dde7)" style="fill: #f77189; fill-opacity: 0.75; stroke: #ffffff; stroke-width: 0.121941; stroke-linejoin: miter"/>
   </g>
   <g id="patch_79">
    <path d="M 149.041203 145.8 
L 150.260609 145.8 
L 150.260609 142.580488 
L 149.041203 142.580488 
z
" clip-path="url(#pd1dd07dde7)" style="fill: #f77189; fill-opacity: 0.75; stroke: #ffffff; stroke-width: 0.121941; stroke-linejoin: miter"/>
   </g>
   <g id="patch_80">
    <path d="M 150.260609 145.8 
L 151.480014 145.8 
L 151.480014 144.995122 
L 150.260609 144.995122 
z
" clip-path="url(#pd1dd07dde7)" style="fill: #f77189; fill-opacity: 0.75; stroke: #ffffff; stroke-width: 0.121941; stroke-linejoin: miter"/>
   </g>
   <g id="patch_81">
    <path d="M 151.480014 145.8 
L 152.69942 145.8 
L 152.69942 144.995122 
L 151.480014 144.995122 
z
" clip-path="url(#pd1dd07dde7)" style="fill: #f77189; fill-opacity: 0.75; stroke: #ffffff; stroke-width: 0.121941; stroke-linejoin: miter"/>
   </g>
   <g id="patch_82">
    <path d="M 152.69942 145.8 
L 153.918825 145.8 
L 153.918825 144.995122 
L 152.69942 144.995122 
z
" clip-path="url(#pd1dd07dde7)" style="fill: #f77189; fill-opacity: 0.75; stroke: #ffffff; stroke-width: 0.121941; stroke-linejoin: miter"/>
   </g>
   <g id="patch_83">
    <path d="M 153.918825 145.8 
L 155.138231 145.8 
L 155.138231 144.190244 
L 153.918825 144.190244 
z
" clip-path="url(#pd1dd07dde7)" style="fill: #f77189; fill-opacity: 0.75; stroke: #ffffff; stroke-width: 0.121941; stroke-linejoin: miter"/>
   </g>
   <g id="patch_84">
    <path d="M 155.138231 145.8 
L 156.357637 145.8 
L 156.357637 145.8 
L 155.138231 145.8 
z
" clip-path="url(#pd1dd07dde7)" style="fill: #f77189; fill-opacity: 0.75; stroke: #ffffff; stroke-width: 0.121941; stroke-linejoin: miter"/>
   </g>
   <g id="patch_85">
    <path d="M 156.357637 145.8 
L 157.577042 145.8 
L 157.577042 144.995122 
L 156.357637 144.995122 
z
" clip-path="url(#pd1dd07dde7)" style="fill: #f77189; fill-opacity: 0.75; stroke: #ffffff; stroke-width: 0.121941; stroke-linejoin: miter"/>
   </g>
   <g id="patch_86">
    <path d="M 157.577042 145.8 
L 158.796448 145.8 
L 158.796448 145.8 
L 157.577042 145.8 
z
" clip-path="url(#pd1dd07dde7)" style="fill: #f77189; fill-opacity: 0.75; stroke: #ffffff; stroke-width: 0.121941; stroke-linejoin: miter"/>
   </g>
   <g id="patch_87">
    <path d="M 158.796448 145.8 
L 160.015853 145.8 
L 160.015853 145.8 
L 158.796448 145.8 
z
" clip-path="url(#pd1dd07dde7)" style="fill: #f77189; fill-opacity: 0.75; stroke: #ffffff; stroke-width: 0.121941; stroke-linejoin: miter"/>
   </g>
   <g id="patch_88">
    <path d="M 160.015853 145.8 
L 161.235259 145.8 
L 161.235259 145.8 
L 160.015853 145.8 
z
" clip-path="url(#pd1dd07dde7)" style="fill: #f77189; fill-opacity: 0.75; stroke: #ffffff; stroke-width: 0.121941; stroke-linejoin: miter"/>
   </g>
   <g id="patch_89">
    <path d="M 161.235259 145.8 
L 162.454665 145.8 
L 162.454665 144.995122 
L 161.235259 144.995122 
z
" clip-path="url(#pd1dd07dde7)" style="fill: #f77189; fill-opacity: 0.75; stroke: #ffffff; stroke-width: 0.121941; stroke-linejoin: miter"/>
   </g>
   <g id="patch_90">
    <path d="M 162.454665 145.8 
L 163.67407 145.8 
L 163.67407 144.995122 
L 162.454665 144.995122 
z
" clip-path="url(#pd1dd07dde7)" style="fill: #f77189; fill-opacity: 0.75; stroke: #ffffff; stroke-width: 0.121941; stroke-linejoin: miter"/>
   </g>
   <g id="patch_91">
    <path d="M 163.67407 145.8 
L 164.893476 145.8 
L 164.893476 145.8 
L 163.67407 145.8 
z
" clip-path="url(#pd1dd07dde7)" style="fill: #f77189; fill-opacity: 0.75; stroke: #ffffff; stroke-width: 0.121941; stroke-linejoin: miter"/>
   </g>
   <g id="patch_92">
    <path d="M 164.893476 145.8 
L 166.112881 145.8 
L 166.112881 144.995122 
L 164.893476 144.995122 
z
" clip-path="url(#pd1dd07dde7)" style="fill: #f77189; fill-opacity: 0.75; stroke: #ffffff; stroke-width: 0.121941; stroke-linejoin: miter"/>
   </g>
   <g id="patch_93">
    <path d="M 166.112881 145.8 
L 167.332287 145.8 
L 167.332287 145.8 
L 166.112881 145.8 
z
" clip-path="url(#pd1dd07dde7)" style="fill: #f77189; fill-opacity: 0.75; stroke: #ffffff; stroke-width: 0.121941; stroke-linejoin: miter"/>
   </g>
   <g id="patch_94">
    <path d="M 167.332287 145.8 
L 168.551693 145.8 
L 168.551693 145.8 
L 167.332287 145.8 
z
" clip-path="url(#pd1dd07dde7)" style="fill: #f77189; fill-opacity: 0.75; stroke: #ffffff; stroke-width: 0.121941; stroke-linejoin: miter"/>
   </g>
   <g id="patch_95">
    <path d="M 168.551693 145.8 
L 169.771098 145.8 
L 169.771098 145.8 
L 168.551693 145.8 
z
" clip-path="url(#pd1dd07dde7)" style="fill: #f77189; fill-opacity: 0.75; stroke: #ffffff; stroke-width: 0.121941; stroke-linejoin: miter"/>
   </g>
   <g id="patch_96">
    <path d="M 169.771098 145.8 
L 170.990504 145.8 
L 170.990504 145.8 
L 169.771098 145.8 
z
" clip-path="url(#pd1dd07dde7)" style="fill: #f77189; fill-opacity: 0.75; stroke: #ffffff; stroke-width: 0.121941; stroke-linejoin: miter"/>
   </g>
   <g id="patch_97">
    <path d="M 170.990504 145.8 
L 172.209909 145.8 
L 172.209909 145.8 
L 170.990504 145.8 
z
" clip-path="url(#pd1dd07dde7)" style="fill: #f77189; fill-opacity: 0.75; stroke: #ffffff; stroke-width: 0.121941; stroke-linejoin: miter"/>
   </g>
   <g id="patch_98">
    <path d="M 172.209909 145.8 
L 173.429315 145.8 
L 173.429315 145.8 
L 172.209909 145.8 
z
" clip-path="url(#pd1dd07dde7)" style="fill: #f77189; fill-opacity: 0.75; stroke: #ffffff; stroke-width: 0.121941; stroke-linejoin: miter"/>
   </g>
   <g id="patch_99">
    <path d="M 173.429315 145.8 
L 174.64872 145.8 
L 174.64872 144.995122 
L 173.429315 144.995122 
z
" clip-path="url(#pd1dd07dde7)" style="fill: #f77189; fill-opacity: 0.75; stroke: #ffffff; stroke-width: 0.121941; stroke-linejoin: miter"/>
   </g>
   <g id="patch_100">
    <path d="M 174.64872 145.8 
L 175.868126 145.8 
L 175.868126 145.8 
L 174.64872 145.8 
z
" clip-path="url(#pd1dd07dde7)" style="fill: #f77189; fill-opacity: 0.75; stroke: #ffffff; stroke-width: 0.121941; stroke-linejoin: miter"/>
   </g>
   <g id="patch_101">
    <path d="M 175.868126 145.8 
L 177.087532 145.8 
L 177.087532 145.8 
L 175.868126 145.8 
z
" clip-path="url(#pd1dd07dde7)" style="fill: #f77189; fill-opacity: 0.75; stroke: #ffffff; stroke-width: 0.121941; stroke-linejoin: miter"/>
   </g>
   <g id="patch_102">
    <path d="M 177.087532 145.8 
L 178.306937 145.8 
L 178.306937 145.8 
L 177.087532 145.8 
z
" clip-path="url(#pd1dd07dde7)" style="fill: #f77189; fill-opacity: 0.75; stroke: #ffffff; stroke-width: 0.121941; stroke-linejoin: miter"/>
   </g>
   <g id="patch_103">
    <path d="M 178.306937 145.8 
L 179.526343 145.8 
L 179.526343 145.8 
L 178.306937 145.8 
z
" clip-path="url(#pd1dd07dde7)" style="fill: #f77189; fill-opacity: 0.75; stroke: #ffffff; stroke-width: 0.121941; stroke-linejoin: miter"/>
   </g>
   <g id="patch_104">
    <path d="M 179.526343 145.8 
L 180.745748 145.8 
L 180.745748 145.8 
L 179.526343 145.8 
z
" clip-path="url(#pd1dd07dde7)" style="fill: #f77189; fill-opacity: 0.75; stroke: #ffffff; stroke-width: 0.121941; stroke-linejoin: miter"/>
   </g>
   <g id="patch_105">
    <path d="M 180.745748 145.8 
L 181.965154 145.8 
L 181.965154 145.8 
L 180.745748 145.8 
z
" clip-path="url(#pd1dd07dde7)" style="fill: #f77189; fill-opacity: 0.75; stroke: #ffffff; stroke-width: 0.121941; stroke-linejoin: miter"/>
   </g>
   <g id="patch_106">
    <path d="M 181.965154 145.8 
L 183.18456 145.8 
L 183.18456 144.995122 
L 181.965154 144.995122 
z
" clip-path="url(#pd1dd07dde7)" style="fill: #f77189; fill-opacity: 0.75; stroke: #ffffff; stroke-width: 0.121941; stroke-linejoin: miter"/>
   </g>
   <g id="patch_107">
    <path d="M 50.025469 145.8 
L 50.025469 7.2 
" style="fill: none; stroke: #000000; stroke-width: 1.25; stroke-linejoin: miter; stroke-linecap: square"/>
   </g>
   <g id="patch_108">
    <path d="M 189.525469 145.8 
L 189.525469 7.2 
" style="fill: none; stroke: #000000; stroke-width: 1.25; stroke-linejoin: miter; stroke-linecap: square"/>
   </g>
   <g id="patch_109">
    <path d="M 50.025469 145.8 
L 189.525469 145.8 
" style="fill: none; stroke: #000000; stroke-width: 1.25; stroke-linejoin: miter; stroke-linecap: square"/>
   </g>
   <g id="patch_110">
    <path d="M 50.025469 7.2 
L 189.525469 7.2 
" style="fill: none; stroke: #000000; stroke-width: 1.25; stroke-linejoin: miter; stroke-linecap: square"/>
   </g>
  </g>
 </g>
 <defs>
  <clipPath id="pd1dd07dde7">
   <rect x="50.025469" y="7.2" width="139.5" height="138.6"/>
  </clipPath>
 </defs>
</svg>
