<?xml version="1.0" encoding="utf-8" standalone="no"?>
<!DOCTYPE svg PUBLIC "-//W3C//DTD SVG 1.1//EN"
  "http://www.w3.org/Graphics/SVG/1.1/DTD/svg11.dtd">
<svg xmlns:xlink="http://www.w3.org/1999/xlink" width="423.142451pt" height="257.513028pt" viewBox="0 0 423.142451 257.513028" xmlns="http://www.w3.org/2000/svg" version="1.1">
 <metadata>
  <rdf:RDF xmlns:dc="http://purl.org/dc/elements/1.1/" xmlns:cc="http://creativecommons.org/ns#" xmlns:rdf="http://www.w3.org/1999/02/22-rdf-syntax-ns#">
   <cc:Work>
    <dc:type rdf:resource="http://purl.org/dc/dcmitype/StillImage"/>
    <dc:date>2024-04-15T12:16:26.091849</dc:date>
    <dc:format>image/svg+xml</dc:format>
    <dc:creator>
     <cc:Agent>
      <dc:title>Matplotlib v3.6.3, https://matplotlib.org/</dc:title>
     </cc:Agent>
    </dc:creator>
   </cc:Work>
  </rdf:RDF>
 </metadata>
 <defs>
  <style type="text/css">*{stroke-linejoin: round; stroke-linecap: butt}</style>
 </defs>
 <g id="figure_1">
  <g id="patch_1">
   <path d="M -0 257.513028 
L 423.142451 257.513028 
L 423.142451 0 
L -0 0 
L -0 257.513028 
z
" style="fill: none"/>
  </g>
  <g id="axes_1">
   <g id="patch_2">
    <path d="M 98.609482 229.692403 
L 377.609482 229.692403 
L 377.609482 7.932403 
L 98.609482 7.932403 
L 98.609482 229.692403 
z
" style="fill: none"/>
   </g>
   <g id="matplotlib.axis_1">
    <g id="xtick_1">
     <g id="line2d_1">
      <path d="M 102.836754 229.692403 
L 102.836754 7.932403 
" clip-path="url(#p7e9db121a2)" style="fill: none; stroke: #000000; stroke-opacity: 0.8; stroke-linecap: round"/>
     </g>
     <g id="text_1">
      <!-- Feature -->
      <g style="fill: #262626" transform="translate(82.161129 247.781778) scale(0.12 -0.12)">
       <defs>
        <path id="ArialMT-46" d="M 525 0 
L 525 4581 
L 3616 4581 
L 3616 4041 
L 1131 4041 
L 1131 2622 
L 3281 2622 
L 3281 2081 
L 1131 2081 
L 1131 0 
L 525 0 
z
" transform="scale(0.015625)"/>
        <path id="ArialMT-65" d="M 2694 1069 
L 3275 997 
Q 3138 488 2766 206 
Q 2394 -75 1816 -75 
Q 1088 -75 661 373 
Q 234 822 234 1631 
Q 234 2469 665 2931 
Q 1097 3394 1784 3394 
Q 2450 3394 2872 2941 
Q 3294 2488 3294 1666 
Q 3294 1616 3291 1516 
L 816 1516 
Q 847 969 1125 678 
Q 1403 388 1819 388 
Q 2128 388 2347 550 
Q 2566 713 2694 1069 
z
M 847 1978 
L 2700 1978 
Q 2663 2397 2488 2606 
Q 2219 2931 1791 2931 
Q 1403 2931 1139 2672 
Q 875 2413 847 1978 
z
" transform="scale(0.015625)"/>
        <path id="ArialMT-61" d="M 2588 409 
Q 2275 144 1986 34 
Q 1697 -75 1366 -75 
Q 819 -75 525 192 
Q 231 459 231 875 
Q 231 1119 342 1320 
Q 453 1522 633 1644 
Q 813 1766 1038 1828 
Q 1203 1872 1538 1913 
Q 2219 1994 2541 2106 
Q 2544 2222 2544 2253 
Q 2544 2597 2384 2738 
Q 2169 2928 1744 2928 
Q 1347 2928 1158 2789 
Q 969 2650 878 2297 
L 328 2372 
Q 403 2725 575 2942 
Q 747 3159 1072 3276 
Q 1397 3394 1825 3394 
Q 2250 3394 2515 3294 
Q 2781 3194 2906 3042 
Q 3031 2891 3081 2659 
Q 3109 2516 3109 2141 
L 3109 1391 
Q 3109 606 3145 398 
Q 3181 191 3288 0 
L 2700 0 
Q 2613 175 2588 409 
z
M 2541 1666 
Q 2234 1541 1622 1453 
Q 1275 1403 1131 1340 
Q 988 1278 909 1158 
Q 831 1038 831 891 
Q 831 666 1001 516 
Q 1172 366 1500 366 
Q 1825 366 2078 508 
Q 2331 650 2450 897 
Q 2541 1088 2541 1459 
L 2541 1666 
z
" transform="scale(0.015625)"/>
        <path id="ArialMT-74" d="M 1650 503 
L 1731 6 
Q 1494 -44 1306 -44 
Q 1000 -44 831 53 
Q 663 150 594 308 
Q 525 466 525 972 
L 525 2881 
L 113 2881 
L 113 3319 
L 525 3319 
L 525 4141 
L 1084 4478 
L 1084 3319 
L 1650 3319 
L 1650 2881 
L 1084 2881 
L 1084 941 
Q 1084 700 1114 631 
Q 1144 563 1211 522 
Q 1278 481 1403 481 
Q 1497 481 1650 503 
z
" transform="scale(0.015625)"/>
        <path id="ArialMT-75" d="M 2597 0 
L 2597 488 
Q 2209 -75 1544 -75 
Q 1250 -75 995 37 
Q 741 150 617 320 
Q 494 491 444 738 
Q 409 903 409 1263 
L 409 3319 
L 972 3319 
L 972 1478 
Q 972 1038 1006 884 
Q 1059 663 1231 536 
Q 1403 409 1656 409 
Q 1909 409 2131 539 
Q 2353 669 2445 892 
Q 2538 1116 2538 1541 
L 2538 3319 
L 3100 3319 
L 3100 0 
L 2597 0 
z
" transform="scale(0.015625)"/>
        <path id="ArialMT-72" d="M 416 0 
L 416 3319 
L 922 3319 
L 922 2816 
Q 1116 3169 1280 3281 
Q 1444 3394 1641 3394 
Q 1925 3394 2219 3213 
L 2025 2691 
Q 1819 2813 1613 2813 
Q 1428 2813 1281 2702 
Q 1134 2591 1072 2394 
Q 978 2094 978 1738 
L 978 0 
L 416 0 
z
" transform="scale(0.015625)"/>
       </defs>
       <use xlink:href="#ArialMT-46"/>
       <use xlink:href="#ArialMT-65" x="61.083984"/>
       <use xlink:href="#ArialMT-61" x="116.699219"/>
       <use xlink:href="#ArialMT-74" x="172.314453"/>
       <use xlink:href="#ArialMT-75" x="200.097656"/>
       <use xlink:href="#ArialMT-72" x="255.712891"/>
       <use xlink:href="#ArialMT-65" x="289.013672"/>
      </g>
     </g>
    </g>
    <g id="xtick_2">
     <g id="line2d_2">
      <path d="M 145.109482 229.692403 
L 145.109482 7.932403 
" clip-path="url(#p7e9db121a2)" style="fill: none; stroke: #000000; stroke-opacity: 0.8; stroke-linecap: round"/>
     </g>
     <g id="text_2">
      <!-- HepG2 -->
      <g style="fill: #262626" transform="translate(126.099794 247.928028) scale(0.12 -0.12)">
       <defs>
        <path id="ArialMT-48" d="M 513 0 
L 513 4581 
L 1119 4581 
L 1119 2700 
L 3500 2700 
L 3500 4581 
L 4106 4581 
L 4106 0 
L 3500 0 
L 3500 2159 
L 1119 2159 
L 1119 0 
L 513 0 
z
" transform="scale(0.015625)"/>
        <path id="ArialMT-70" d="M 422 -1272 
L 422 3319 
L 934 3319 
L 934 2888 
Q 1116 3141 1344 3267 
Q 1572 3394 1897 3394 
Q 2322 3394 2647 3175 
Q 2972 2956 3137 2557 
Q 3303 2159 3303 1684 
Q 3303 1175 3120 767 
Q 2938 359 2589 142 
Q 2241 -75 1856 -75 
Q 1575 -75 1351 44 
Q 1128 163 984 344 
L 984 -1272 
L 422 -1272 
z
M 931 1641 
Q 931 1000 1190 694 
Q 1450 388 1819 388 
Q 2194 388 2461 705 
Q 2728 1022 2728 1688 
Q 2728 2322 2467 2637 
Q 2206 2953 1844 2953 
Q 1484 2953 1207 2617 
Q 931 2281 931 1641 
z
" transform="scale(0.015625)"/>
        <path id="ArialMT-47" d="M 2638 1797 
L 2638 2334 
L 4578 2338 
L 4578 638 
Q 4131 281 3656 101 
Q 3181 -78 2681 -78 
Q 2006 -78 1454 211 
Q 903 500 622 1047 
Q 341 1594 341 2269 
Q 341 2938 620 3517 
Q 900 4097 1425 4378 
Q 1950 4659 2634 4659 
Q 3131 4659 3532 4498 
Q 3934 4338 4162 4050 
Q 4391 3763 4509 3300 
L 3963 3150 
Q 3859 3500 3706 3700 
Q 3553 3900 3268 4020 
Q 2984 4141 2638 4141 
Q 2222 4141 1919 4014 
Q 1616 3888 1430 3681 
Q 1244 3475 1141 3228 
Q 966 2803 966 2306 
Q 966 1694 1177 1281 
Q 1388 869 1791 669 
Q 2194 469 2647 469 
Q 3041 469 3416 620 
Q 3791 772 3984 944 
L 3984 1797 
L 2638 1797 
z
" transform="scale(0.015625)"/>
        <path id="ArialMT-32" d="M 3222 541 
L 3222 0 
L 194 0 
Q 188 203 259 391 
Q 375 700 629 1000 
Q 884 1300 1366 1694 
Q 2113 2306 2375 2664 
Q 2638 3022 2638 3341 
Q 2638 3675 2398 3904 
Q 2159 4134 1775 4134 
Q 1369 4134 1125 3890 
Q 881 3647 878 3216 
L 300 3275 
Q 359 3922 746 4261 
Q 1134 4600 1788 4600 
Q 2447 4600 2831 4234 
Q 3216 3869 3216 3328 
Q 3216 3053 3103 2787 
Q 2991 2522 2730 2228 
Q 2469 1934 1863 1422 
Q 1356 997 1212 845 
Q 1069 694 975 541 
L 3222 541 
z
" transform="scale(0.015625)"/>
       </defs>
       <use xlink:href="#ArialMT-48"/>
       <use xlink:href="#ArialMT-65" x="72.216797"/>
       <use xlink:href="#ArialMT-70" x="127.832031"/>
       <use xlink:href="#ArialMT-47" x="183.447266"/>
       <use xlink:href="#ArialMT-32" x="261.230469"/>
      </g>
     </g>
    </g>
    <g id="xtick_3">
     <g id="line2d_3">
      <path d="M 187.382209 229.692403 
L 187.382209 7.932403 
" clip-path="url(#p7e9db121a2)" style="fill: none; stroke: #000000; stroke-opacity: 0.8; stroke-linecap: round"/>
     </g>
     <g id="text_3">
      <!-- B16 -->
      <g style="fill: #262626" transform="translate(176.706897 247.781778) scale(0.12 -0.12)">
       <defs>
        <path id="ArialMT-42" d="M 469 0 
L 469 4581 
L 2188 4581 
Q 2713 4581 3030 4442 
Q 3347 4303 3526 4014 
Q 3706 3725 3706 3409 
Q 3706 3116 3547 2856 
Q 3388 2597 3066 2438 
Q 3481 2316 3704 2022 
Q 3928 1728 3928 1328 
Q 3928 1006 3792 729 
Q 3656 453 3456 303 
Q 3256 153 2954 76 
Q 2653 0 2216 0 
L 469 0 
z
M 1075 2656 
L 2066 2656 
Q 2469 2656 2644 2709 
Q 2875 2778 2992 2937 
Q 3109 3097 3109 3338 
Q 3109 3566 3000 3739 
Q 2891 3913 2687 3977 
Q 2484 4041 1991 4041 
L 1075 4041 
L 1075 2656 
z
M 1075 541 
L 2216 541 
Q 2509 541 2628 563 
Q 2838 600 2978 687 
Q 3119 775 3209 942 
Q 3300 1109 3300 1328 
Q 3300 1584 3169 1773 
Q 3038 1963 2805 2039 
Q 2572 2116 2134 2116 
L 1075 2116 
L 1075 541 
z
" transform="scale(0.015625)"/>
        <path id="ArialMT-31" d="M 2384 0 
L 1822 0 
L 1822 3584 
Q 1619 3391 1289 3197 
Q 959 3003 697 2906 
L 697 3450 
Q 1169 3672 1522 3987 
Q 1875 4303 2022 4600 
L 2384 4600 
L 2384 0 
z
" transform="scale(0.015625)"/>
        <path id="ArialMT-36" d="M 3184 3459 
L 2625 3416 
Q 2550 3747 2413 3897 
Q 2184 4138 1850 4138 
Q 1581 4138 1378 3988 
Q 1113 3794 959 3422 
Q 806 3050 800 2363 
Q 1003 2672 1297 2822 
Q 1591 2972 1913 2972 
Q 2475 2972 2870 2558 
Q 3266 2144 3266 1488 
Q 3266 1056 3080 686 
Q 2894 316 2569 119 
Q 2244 -78 1831 -78 
Q 1128 -78 684 439 
Q 241 956 241 2144 
Q 241 3472 731 4075 
Q 1159 4600 1884 4600 
Q 2425 4600 2770 4297 
Q 3116 3994 3184 3459 
z
M 888 1484 
Q 888 1194 1011 928 
Q 1134 663 1356 523 
Q 1578 384 1822 384 
Q 2178 384 2434 671 
Q 2691 959 2691 1453 
Q 2691 1928 2437 2201 
Q 2184 2475 1800 2475 
Q 1419 2475 1153 2201 
Q 888 1928 888 1484 
z
" transform="scale(0.015625)"/>
       </defs>
       <use xlink:href="#ArialMT-42"/>
       <use xlink:href="#ArialMT-31" x="66.699219"/>
       <use xlink:href="#ArialMT-36" x="122.314453"/>
      </g>
     </g>
    </g>
    <g id="xtick_4">
     <g id="line2d_4">
      <path d="M 229.654936 229.692403 
L 229.654936 7.932403 
" clip-path="url(#p7e9db121a2)" style="fill: none; stroke: #000000; stroke-opacity: 0.8; stroke-linecap: round"/>
     </g>
     <g id="text_4">
      <!-- PC3 -->
      <g style="fill: #262626" transform="translate(217.983061 247.781778) scale(0.12 -0.12)">
       <defs>
        <path id="ArialMT-50" d="M 494 0 
L 494 4581 
L 2222 4581 
Q 2678 4581 2919 4538 
Q 3256 4481 3484 4323 
Q 3713 4166 3852 3881 
Q 3991 3597 3991 3256 
Q 3991 2672 3619 2267 
Q 3247 1863 2275 1863 
L 1100 1863 
L 1100 0 
L 494 0 
z
M 1100 2403 
L 2284 2403 
Q 2872 2403 3119 2622 
Q 3366 2841 3366 3238 
Q 3366 3525 3220 3729 
Q 3075 3934 2838 4000 
Q 2684 4041 2272 4041 
L 1100 4041 
L 1100 2403 
z
" transform="scale(0.015625)"/>
        <path id="ArialMT-43" d="M 3763 1606 
L 4369 1453 
Q 4178 706 3683 314 
Q 3188 -78 2472 -78 
Q 1731 -78 1267 223 
Q 803 525 561 1097 
Q 319 1669 319 2325 
Q 319 3041 592 3573 
Q 866 4106 1370 4382 
Q 1875 4659 2481 4659 
Q 3169 4659 3637 4309 
Q 4106 3959 4291 3325 
L 3694 3184 
Q 3534 3684 3231 3912 
Q 2928 4141 2469 4141 
Q 1941 4141 1586 3887 
Q 1231 3634 1087 3207 
Q 944 2781 944 2328 
Q 944 1744 1114 1308 
Q 1284 872 1643 656 
Q 2003 441 2422 441 
Q 2931 441 3284 734 
Q 3638 1028 3763 1606 
z
" transform="scale(0.015625)"/>
        <path id="ArialMT-33" d="M 269 1209 
L 831 1284 
Q 928 806 1161 595 
Q 1394 384 1728 384 
Q 2125 384 2398 659 
Q 2672 934 2672 1341 
Q 2672 1728 2419 1979 
Q 2166 2231 1775 2231 
Q 1616 2231 1378 2169 
L 1441 2663 
Q 1497 2656 1531 2656 
Q 1891 2656 2178 2843 
Q 2466 3031 2466 3422 
Q 2466 3731 2256 3934 
Q 2047 4138 1716 4138 
Q 1388 4138 1169 3931 
Q 950 3725 888 3313 
L 325 3413 
Q 428 3978 793 4289 
Q 1159 4600 1703 4600 
Q 2078 4600 2393 4439 
Q 2709 4278 2876 4000 
Q 3044 3722 3044 3409 
Q 3044 3113 2884 2869 
Q 2725 2625 2413 2481 
Q 2819 2388 3044 2092 
Q 3269 1797 3269 1353 
Q 3269 753 2831 336 
Q 2394 -81 1725 -81 
Q 1122 -81 723 278 
Q 325 638 269 1209 
z
" transform="scale(0.015625)"/>
       </defs>
       <use xlink:href="#ArialMT-50"/>
       <use xlink:href="#ArialMT-43" x="66.699219"/>
       <use xlink:href="#ArialMT-33" x="138.916016"/>
      </g>
     </g>
    </g>
    <g id="xtick_5">
     <g id="line2d_5">
      <path d="M 271.927664 229.692403 
L 271.927664 7.932403 
" clip-path="url(#p7e9db121a2)" style="fill: none; stroke: #000000; stroke-opacity: 0.8; stroke-linecap: round"/>
     </g>
     <g id="text_5">
      <!-- HEK293 -->
      <g style="fill: #262626" transform="translate(249.580476 247.781778) scale(0.12 -0.12)">
       <defs>
        <path id="ArialMT-45" d="M 506 0 
L 506 4581 
L 3819 4581 
L 3819 4041 
L 1113 4041 
L 1113 2638 
L 3647 2638 
L 3647 2100 
L 1113 2100 
L 1113 541 
L 3925 541 
L 3925 0 
L 506 0 
z
" transform="scale(0.015625)"/>
        <path id="ArialMT-4b" d="M 469 0 
L 469 4581 
L 1075 4581 
L 1075 2309 
L 3350 4581 
L 4172 4581 
L 2250 2725 
L 4256 0 
L 3456 0 
L 1825 2319 
L 1075 1588 
L 1075 0 
L 469 0 
z
" transform="scale(0.015625)"/>
        <path id="ArialMT-39" d="M 350 1059 
L 891 1109 
Q 959 728 1153 556 
Q 1347 384 1650 384 
Q 1909 384 2104 503 
Q 2300 622 2425 820 
Q 2550 1019 2634 1356 
Q 2719 1694 2719 2044 
Q 2719 2081 2716 2156 
Q 2547 1888 2255 1720 
Q 1963 1553 1622 1553 
Q 1053 1553 659 1965 
Q 266 2378 266 3053 
Q 266 3750 677 4175 
Q 1088 4600 1706 4600 
Q 2153 4600 2523 4359 
Q 2894 4119 3086 3673 
Q 3278 3228 3278 2384 
Q 3278 1506 3087 986 
Q 2897 466 2520 194 
Q 2144 -78 1638 -78 
Q 1100 -78 759 220 
Q 419 519 350 1059 
z
M 2653 3081 
Q 2653 3566 2395 3850 
Q 2138 4134 1775 4134 
Q 1400 4134 1122 3828 
Q 844 3522 844 3034 
Q 844 2597 1108 2323 
Q 1372 2050 1759 2050 
Q 2150 2050 2401 2323 
Q 2653 2597 2653 3081 
z
" transform="scale(0.015625)"/>
       </defs>
       <use xlink:href="#ArialMT-48"/>
       <use xlink:href="#ArialMT-45" x="72.216797"/>
       <use xlink:href="#ArialMT-4b" x="138.916016"/>
       <use xlink:href="#ArialMT-32" x="205.615234"/>
       <use xlink:href="#ArialMT-39" x="261.230469"/>
       <use xlink:href="#ArialMT-33" x="316.845703"/>
      </g>
     </g>
    </g>
    <g id="xtick_6">
     <g id="line2d_6">
      <path d="M 314.200391 229.692403 
L 314.200391 7.932403 
" clip-path="url(#p7e9db121a2)" style="fill: none; stroke: #000000; stroke-opacity: 0.8; stroke-linecap: round"/>
     </g>
     <g id="text_6">
      <!-- N2a -->
      <g style="fill: #262626" transform="translate(303.194141 247.781778) scale(0.12 -0.12)">
       <defs>
        <path id="ArialMT-4e" d="M 488 0 
L 488 4581 
L 1109 4581 
L 3516 984 
L 3516 4581 
L 4097 4581 
L 4097 0 
L 3475 0 
L 1069 3600 
L 1069 0 
L 488 0 
z
" transform="scale(0.015625)"/>
       </defs>
       <use xlink:href="#ArialMT-4e"/>
       <use xlink:href="#ArialMT-32" x="72.216797"/>
       <use xlink:href="#ArialMT-61" x="127.832031"/>
      </g>
     </g>
    </g>
    <g id="xtick_7">
     <g id="line2d_7">
      <path d="M 356.473118 229.692403 
L 356.473118 7.932403 
" clip-path="url(#p7e9db121a2)" style="fill: none; stroke: #000000; stroke-opacity: 0.8; stroke-linecap: round"/>
     </g>
     <g id="text_7">
      <!-- ARPE19 -->
      <g style="fill: #262626" transform="translate(333.460306 247.781778) scale(0.12 -0.12)">
       <defs>
        <path id="ArialMT-41" d="M -9 0 
L 1750 4581 
L 2403 4581 
L 4278 0 
L 3588 0 
L 3053 1388 
L 1138 1388 
L 634 0 
L -9 0 
z
M 1313 1881 
L 2866 1881 
L 2388 3150 
Q 2169 3728 2063 4100 
Q 1975 3659 1816 3225 
L 1313 1881 
z
" transform="scale(0.015625)"/>
        <path id="ArialMT-52" d="M 503 0 
L 503 4581 
L 2534 4581 
Q 3147 4581 3465 4457 
Q 3784 4334 3975 4021 
Q 4166 3709 4166 3331 
Q 4166 2844 3850 2509 
Q 3534 2175 2875 2084 
Q 3116 1969 3241 1856 
Q 3506 1613 3744 1247 
L 4541 0 
L 3778 0 
L 3172 953 
Q 2906 1366 2734 1584 
Q 2563 1803 2427 1890 
Q 2291 1978 2150 2013 
Q 2047 2034 1813 2034 
L 1109 2034 
L 1109 0 
L 503 0 
z
M 1109 2559 
L 2413 2559 
Q 2828 2559 3062 2645 
Q 3297 2731 3419 2920 
Q 3541 3109 3541 3331 
Q 3541 3656 3305 3865 
Q 3069 4075 2559 4075 
L 1109 4075 
L 1109 2559 
z
" transform="scale(0.015625)"/>
       </defs>
       <use xlink:href="#ArialMT-41"/>
       <use xlink:href="#ArialMT-52" x="66.699219"/>
       <use xlink:href="#ArialMT-50" x="138.916016"/>
       <use xlink:href="#ArialMT-45" x="205.615234"/>
       <use xlink:href="#ArialMT-31" x="272.314453"/>
       <use xlink:href="#ArialMT-39" x="327.929688"/>
      </g>
     </g>
    </g>
   </g>
   <g id="matplotlib.axis_2">
    <g id="ytick_1">
     <g id="line2d_8">
      <defs>
       <path id="mcd1823a60a" d="M 0 0 
L -6 0 
" style="stroke: #262626; stroke-width: 1.25"/>
      </defs>
      <g>
       <use xlink:href="#mcd1823a60a" x="98.609482" y="193.338304" style="fill: #262626; stroke: #262626; stroke-width: 1.25"/>
      </g>
     </g>
     <g id="text_8">
      <!-- Zeta -->
      <g style="fill: #262626" transform="translate(70.44584 212.094414) rotate(-45) scale(0.12 -0.12)">
       <defs>
        <path id="ArialMT-5a" d="M 128 0 
L 128 563 
L 2475 3497 
Q 2725 3809 2950 4041 
L 394 4041 
L 394 4581 
L 3675 4581 
L 3675 4041 
L 1103 863 
L 825 541 
L 3750 541 
L 3750 0 
L 128 0 
z
" transform="scale(0.015625)"/>
       </defs>
       <use xlink:href="#ArialMT-5a"/>
       <use xlink:href="#ArialMT-65" x="61.083984"/>
       <use xlink:href="#ArialMT-74" x="116.699219"/>
       <use xlink:href="#ArialMT-61" x="144.482422"/>
      </g>
     </g>
    </g>
    <g id="ytick_2">
     <g id="line2d_9">
      <g>
       <use xlink:href="#mcd1823a60a" x="98.609482" y="176.813714" style="fill: #262626; stroke: #262626; stroke-width: 1.25"/>
      </g>
     </g>
     <g id="text_9">
      <!-- Double_bonds -->
      <g style="fill: #262626" transform="translate(32.699596 233.316068) rotate(-45) scale(0.12 -0.12)">
       <defs>
        <path id="ArialMT-44" d="M 494 0 
L 494 4581 
L 2072 4581 
Q 2606 4581 2888 4516 
Q 3281 4425 3559 4188 
Q 3922 3881 4101 3404 
Q 4281 2928 4281 2316 
Q 4281 1794 4159 1391 
Q 4038 988 3847 723 
Q 3656 459 3429 307 
Q 3203 156 2883 78 
Q 2563 0 2147 0 
L 494 0 
z
M 1100 541 
L 2078 541 
Q 2531 541 2789 625 
Q 3047 709 3200 863 
Q 3416 1078 3536 1442 
Q 3656 1806 3656 2325 
Q 3656 3044 3420 3430 
Q 3184 3816 2847 3947 
Q 2603 4041 2063 4041 
L 1100 4041 
L 1100 541 
z
" transform="scale(0.015625)"/>
        <path id="ArialMT-6f" d="M 213 1659 
Q 213 2581 725 3025 
Q 1153 3394 1769 3394 
Q 2453 3394 2887 2945 
Q 3322 2497 3322 1706 
Q 3322 1066 3130 698 
Q 2938 331 2570 128 
Q 2203 -75 1769 -75 
Q 1072 -75 642 372 
Q 213 819 213 1659 
z
M 791 1659 
Q 791 1022 1069 705 
Q 1347 388 1769 388 
Q 2188 388 2466 706 
Q 2744 1025 2744 1678 
Q 2744 2294 2464 2611 
Q 2184 2928 1769 2928 
Q 1347 2928 1069 2612 
Q 791 2297 791 1659 
z
" transform="scale(0.015625)"/>
        <path id="ArialMT-62" d="M 941 0 
L 419 0 
L 419 4581 
L 981 4581 
L 981 2947 
Q 1338 3394 1891 3394 
Q 2197 3394 2470 3270 
Q 2744 3147 2920 2923 
Q 3097 2700 3197 2384 
Q 3297 2069 3297 1709 
Q 3297 856 2875 390 
Q 2453 -75 1863 -75 
Q 1275 -75 941 416 
L 941 0 
z
M 934 1684 
Q 934 1088 1097 822 
Q 1363 388 1816 388 
Q 2184 388 2453 708 
Q 2722 1028 2722 1663 
Q 2722 2313 2464 2622 
Q 2206 2931 1841 2931 
Q 1472 2931 1203 2611 
Q 934 2291 934 1684 
z
" transform="scale(0.015625)"/>
        <path id="ArialMT-6c" d="M 409 0 
L 409 4581 
L 972 4581 
L 972 0 
L 409 0 
z
" transform="scale(0.015625)"/>
        <path id="ArialMT-5f" d="M -97 -1272 
L -97 -866 
L 3631 -866 
L 3631 -1272 
L -97 -1272 
z
" transform="scale(0.015625)"/>
        <path id="ArialMT-6e" d="M 422 0 
L 422 3319 
L 928 3319 
L 928 2847 
Q 1294 3394 1984 3394 
Q 2284 3394 2536 3286 
Q 2788 3178 2913 3003 
Q 3038 2828 3088 2588 
Q 3119 2431 3119 2041 
L 3119 0 
L 2556 0 
L 2556 2019 
Q 2556 2363 2490 2533 
Q 2425 2703 2258 2804 
Q 2091 2906 1866 2906 
Q 1506 2906 1245 2678 
Q 984 2450 984 1813 
L 984 0 
L 422 0 
z
" transform="scale(0.015625)"/>
        <path id="ArialMT-64" d="M 2575 0 
L 2575 419 
Q 2259 -75 1647 -75 
Q 1250 -75 917 144 
Q 584 363 401 755 
Q 219 1147 219 1656 
Q 219 2153 384 2558 
Q 550 2963 881 3178 
Q 1213 3394 1622 3394 
Q 1922 3394 2156 3267 
Q 2391 3141 2538 2938 
L 2538 4581 
L 3097 4581 
L 3097 0 
L 2575 0 
z
M 797 1656 
Q 797 1019 1065 703 
Q 1334 388 1700 388 
Q 2069 388 2326 689 
Q 2584 991 2584 1609 
Q 2584 2291 2321 2609 
Q 2059 2928 1675 2928 
Q 1300 2928 1048 2622 
Q 797 2316 797 1656 
z
" transform="scale(0.015625)"/>
        <path id="ArialMT-73" d="M 197 991 
L 753 1078 
Q 800 744 1014 566 
Q 1228 388 1613 388 
Q 2000 388 2187 545 
Q 2375 703 2375 916 
Q 2375 1106 2209 1216 
Q 2094 1291 1634 1406 
Q 1016 1563 777 1677 
Q 538 1791 414 1992 
Q 291 2194 291 2438 
Q 291 2659 392 2848 
Q 494 3038 669 3163 
Q 800 3259 1026 3326 
Q 1253 3394 1513 3394 
Q 1903 3394 2198 3281 
Q 2494 3169 2634 2976 
Q 2775 2784 2828 2463 
L 2278 2388 
Q 2241 2644 2061 2787 
Q 1881 2931 1553 2931 
Q 1166 2931 1000 2803 
Q 834 2675 834 2503 
Q 834 2394 903 2306 
Q 972 2216 1119 2156 
Q 1203 2125 1616 2013 
Q 2213 1853 2448 1751 
Q 2684 1650 2818 1456 
Q 2953 1263 2953 975 
Q 2953 694 2789 445 
Q 2625 197 2315 61 
Q 2006 -75 1616 -75 
Q 969 -75 630 194 
Q 291 463 197 991 
z
" transform="scale(0.015625)"/>
       </defs>
       <use xlink:href="#ArialMT-44"/>
       <use xlink:href="#ArialMT-6f" x="72.216797"/>
       <use xlink:href="#ArialMT-75" x="127.832031"/>
       <use xlink:href="#ArialMT-62" x="183.447266"/>
       <use xlink:href="#ArialMT-6c" x="239.0625"/>
       <use xlink:href="#ArialMT-65" x="261.279297"/>
       <use xlink:href="#ArialMT-5f" x="316.894531"/>
       <use xlink:href="#ArialMT-62" x="372.509766"/>
       <use xlink:href="#ArialMT-6f" x="428.125"/>
       <use xlink:href="#ArialMT-6e" x="483.740234"/>
       <use xlink:href="#ArialMT-64" x="539.355469"/>
       <use xlink:href="#ArialMT-73" x="594.970703"/>
      </g>
     </g>
    </g>
    <g id="ytick_3">
     <g id="line2d_10">
      <g>
       <use xlink:href="#mcd1823a60a" x="98.609482" y="160.289124" style="fill: #262626; stroke: #262626; stroke-width: 1.25"/>
      </g>
     </g>
     <g id="text_10">
      <!-- Total_Carbon_Tails -->
      <g style="fill: #262626" transform="translate(15.268972 234.252391) rotate(-45) scale(0.12 -0.12)">
       <defs>
        <path id="ArialMT-54" d="M 1659 0 
L 1659 4041 
L 150 4041 
L 150 4581 
L 3781 4581 
L 3781 4041 
L 2266 4041 
L 2266 0 
L 1659 0 
z
" transform="scale(0.015625)"/>
        <path id="ArialMT-69" d="M 425 3934 
L 425 4581 
L 988 4581 
L 988 3934 
L 425 3934 
z
M 425 0 
L 425 3319 
L 988 3319 
L 988 0 
L 425 0 
z
" transform="scale(0.015625)"/>
       </defs>
       <use xlink:href="#ArialMT-54"/>
       <use xlink:href="#ArialMT-6f" x="49.958984"/>
       <use xlink:href="#ArialMT-74" x="105.574219"/>
       <use xlink:href="#ArialMT-61" x="133.357422"/>
       <use xlink:href="#ArialMT-6c" x="188.972656"/>
       <use xlink:href="#ArialMT-5f" x="211.189453"/>
       <use xlink:href="#ArialMT-43" x="266.804688"/>
       <use xlink:href="#ArialMT-61" x="339.021484"/>
       <use xlink:href="#ArialMT-72" x="394.636719"/>
       <use xlink:href="#ArialMT-62" x="427.9375"/>
       <use xlink:href="#ArialMT-6f" x="483.552734"/>
       <use xlink:href="#ArialMT-6e" x="539.167969"/>
       <use xlink:href="#ArialMT-5f" x="594.783203"/>
       <use xlink:href="#ArialMT-54" x="650.398438"/>
       <use xlink:href="#ArialMT-61" x="700.357422"/>
       <use xlink:href="#ArialMT-69" x="755.972656"/>
       <use xlink:href="#ArialMT-6c" x="778.189453"/>
       <use xlink:href="#ArialMT-73" x="800.40625"/>
      </g>
     </g>
    </g>
    <g id="ytick_4">
     <g id="line2d_11">
      <g>
       <use xlink:href="#mcd1823a60a" x="98.609482" y="143.764534" style="fill: #262626; stroke: #262626; stroke-width: 1.25"/>
      </g>
     </g>
     <g id="text_11">
      <!-- Hbond_A -->
      <g style="fill: #262626" transform="translate(52.04206 180.924423) rotate(-45) scale(0.12 -0.12)">
       <use xlink:href="#ArialMT-48"/>
       <use xlink:href="#ArialMT-62" x="72.216797"/>
       <use xlink:href="#ArialMT-6f" x="127.832031"/>
       <use xlink:href="#ArialMT-6e" x="183.447266"/>
       <use xlink:href="#ArialMT-64" x="239.0625"/>
       <use xlink:href="#ArialMT-5f" x="294.677734"/>
       <use xlink:href="#ArialMT-41" x="350.292969"/>
      </g>
     </g>
    </g>
    <g id="ytick_5">
     <g id="line2d_12">
      <g>
       <use xlink:href="#mcd1823a60a" x="98.609482" y="127.239944" style="fill: #262626; stroke: #262626; stroke-width: 1.25"/>
      </g>
     </g>
     <g id="text_12">
      <!-- Hbond_D -->
      <g style="fill: #262626" transform="translate(51.574044 164.867849) rotate(-45) scale(0.12 -0.12)">
       <use xlink:href="#ArialMT-48"/>
       <use xlink:href="#ArialMT-62" x="72.216797"/>
       <use xlink:href="#ArialMT-6f" x="127.832031"/>
       <use xlink:href="#ArialMT-6e" x="183.447266"/>
       <use xlink:href="#ArialMT-64" x="239.0625"/>
       <use xlink:href="#ArialMT-5f" x="294.677734"/>
       <use xlink:href="#ArialMT-44" x="350.292969"/>
      </g>
     </g>
    </g>
    <g id="ytick_6">
     <g id="line2d_13">
      <g>
       <use xlink:href="#mcd1823a60a" x="98.609482" y="110.715353" style="fill: #262626; stroke: #262626; stroke-width: 1.25"/>
      </g>
     </g>
     <g id="text_13">
      <!-- cLogP -->
      <g style="fill: #262626" transform="translate(63.265171 136.552696) rotate(-45) scale(0.12 -0.12)">
       <defs>
        <path id="ArialMT-63" d="M 2588 1216 
L 3141 1144 
Q 3050 572 2676 248 
Q 2303 -75 1759 -75 
Q 1078 -75 664 370 
Q 250 816 250 1647 
Q 250 2184 428 2587 
Q 606 2991 970 3192 
Q 1334 3394 1763 3394 
Q 2303 3394 2647 3120 
Q 2991 2847 3088 2344 
L 2541 2259 
Q 2463 2594 2264 2762 
Q 2066 2931 1784 2931 
Q 1359 2931 1093 2626 
Q 828 2322 828 1663 
Q 828 994 1084 691 
Q 1341 388 1753 388 
Q 2084 388 2306 591 
Q 2528 794 2588 1216 
z
" transform="scale(0.015625)"/>
        <path id="ArialMT-4c" d="M 469 0 
L 469 4581 
L 1075 4581 
L 1075 541 
L 3331 541 
L 3331 0 
L 469 0 
z
" transform="scale(0.015625)"/>
        <path id="ArialMT-67" d="M 319 -275 
L 866 -356 
Q 900 -609 1056 -725 
Q 1266 -881 1628 -881 
Q 2019 -881 2231 -725 
Q 2444 -569 2519 -288 
Q 2563 -116 2559 434 
Q 2191 0 1641 0 
Q 956 0 581 494 
Q 206 988 206 1678 
Q 206 2153 378 2554 
Q 550 2956 876 3175 
Q 1203 3394 1644 3394 
Q 2231 3394 2613 2919 
L 2613 3319 
L 3131 3319 
L 3131 450 
Q 3131 -325 2973 -648 
Q 2816 -972 2473 -1159 
Q 2131 -1347 1631 -1347 
Q 1038 -1347 672 -1080 
Q 306 -813 319 -275 
z
M 784 1719 
Q 784 1066 1043 766 
Q 1303 466 1694 466 
Q 2081 466 2343 764 
Q 2606 1063 2606 1700 
Q 2606 2309 2336 2618 
Q 2066 2928 1684 2928 
Q 1309 2928 1046 2623 
Q 784 2319 784 1719 
z
" transform="scale(0.015625)"/>
       </defs>
       <use xlink:href="#ArialMT-63"/>
       <use xlink:href="#ArialMT-4c" x="50"/>
       <use xlink:href="#ArialMT-6f" x="105.615234"/>
       <use xlink:href="#ArialMT-67" x="161.230469"/>
       <use xlink:href="#ArialMT-50" x="216.845703"/>
      </g>
     </g>
    </g>
    <g id="ytick_7">
     <g id="line2d_14">
      <g>
       <use xlink:href="#mcd1823a60a" x="98.609482" y="94.190763" style="fill: #262626; stroke: #262626; stroke-width: 1.25"/>
      </g>
     </g>
     <g id="text_14">
      <!-- N_charged_centers -->
      <g style="fill: #262626" transform="translate(13.273605 170.019671) rotate(-45) scale(0.12 -0.12)">
       <defs>
        <path id="ArialMT-68" d="M 422 0 
L 422 4581 
L 984 4581 
L 984 2938 
Q 1378 3394 1978 3394 
Q 2347 3394 2619 3248 
Q 2891 3103 3008 2847 
Q 3125 2591 3125 2103 
L 3125 0 
L 2563 0 
L 2563 2103 
Q 2563 2525 2380 2717 
Q 2197 2909 1863 2909 
Q 1613 2909 1392 2779 
Q 1172 2650 1078 2428 
Q 984 2206 984 1816 
L 984 0 
L 422 0 
z
" transform="scale(0.015625)"/>
       </defs>
       <use xlink:href="#ArialMT-4e"/>
       <use xlink:href="#ArialMT-5f" x="72.216797"/>
       <use xlink:href="#ArialMT-63" x="127.832031"/>
       <use xlink:href="#ArialMT-68" x="177.832031"/>
       <use xlink:href="#ArialMT-61" x="233.447266"/>
       <use xlink:href="#ArialMT-72" x="289.0625"/>
       <use xlink:href="#ArialMT-67" x="322.363281"/>
       <use xlink:href="#ArialMT-65" x="377.978516"/>
       <use xlink:href="#ArialMT-64" x="433.59375"/>
       <use xlink:href="#ArialMT-5f" x="489.208984"/>
       <use xlink:href="#ArialMT-63" x="544.824219"/>
       <use xlink:href="#ArialMT-65" x="594.824219"/>
       <use xlink:href="#ArialMT-6e" x="650.439453"/>
       <use xlink:href="#ArialMT-74" x="706.054688"/>
       <use xlink:href="#ArialMT-65" x="733.837891"/>
       <use xlink:href="#ArialMT-72" x="789.453125"/>
       <use xlink:href="#ArialMT-73" x="822.753906"/>
      </g>
     </g>
    </g>
    <g id="ytick_8">
     <g id="line2d_15">
      <g>
       <use xlink:href="#mcd1823a60a" x="98.609482" y="77.666173" style="fill: #262626; stroke: #262626; stroke-width: 1.25"/>
      </g>
     </g>
     <g id="text_15">
      <!-- P_charged_centers -->
      <g style="fill: #262626" transform="translate(13.741622 153.027065) rotate(-45) scale(0.12 -0.12)">
       <use xlink:href="#ArialMT-50"/>
       <use xlink:href="#ArialMT-5f" x="66.699219"/>
       <use xlink:href="#ArialMT-63" x="122.314453"/>
       <use xlink:href="#ArialMT-68" x="172.314453"/>
       <use xlink:href="#ArialMT-61" x="227.929688"/>
       <use xlink:href="#ArialMT-72" x="283.544922"/>
       <use xlink:href="#ArialMT-67" x="316.845703"/>
       <use xlink:href="#ArialMT-65" x="372.460938"/>
       <use xlink:href="#ArialMT-64" x="428.076172"/>
       <use xlink:href="#ArialMT-5f" x="483.691406"/>
       <use xlink:href="#ArialMT-63" x="539.306641"/>
       <use xlink:href="#ArialMT-65" x="589.306641"/>
       <use xlink:href="#ArialMT-6e" x="644.921875"/>
       <use xlink:href="#ArialMT-74" x="700.537109"/>
       <use xlink:href="#ArialMT-65" x="728.320312"/>
       <use xlink:href="#ArialMT-72" x="783.935547"/>
       <use xlink:href="#ArialMT-73" x="817.236328"/>
      </g>
     </g>
    </g>
    <g id="ytick_9">
     <g id="line2d_16">
      <g>
       <use xlink:href="#mcd1823a60a" x="98.609482" y="61.141583" style="fill: #262626; stroke: #262626; stroke-width: 1.25"/>
      </g>
     </g>
     <g id="text_16">
      <!-- NP_ratio -->
      <g style="fill: #262626" transform="translate(54.41131 95.932223) rotate(-45) scale(0.12 -0.12)">
       <use xlink:href="#ArialMT-4e"/>
       <use xlink:href="#ArialMT-50" x="72.216797"/>
       <use xlink:href="#ArialMT-5f" x="138.916016"/>
       <use xlink:href="#ArialMT-72" x="194.53125"/>
       <use xlink:href="#ArialMT-61" x="227.832031"/>
       <use xlink:href="#ArialMT-74" x="283.447266"/>
       <use xlink:href="#ArialMT-69" x="311.230469"/>
       <use xlink:href="#ArialMT-6f" x="333.447266"/>
      </g>
     </g>
    </g>
    <g id="ytick_10">
     <g id="line2d_17">
      <g>
       <use xlink:href="#mcd1823a60a" x="98.609482" y="44.616993" style="fill: #262626; stroke: #262626; stroke-width: 1.25"/>
      </g>
     </g>
     <g id="text_17">
      <!-- PEG_(Chol+PEG) -->
      <g style="fill: #262626" transform="translate(18.708163 115.041632) rotate(-45) scale(0.12 -0.12)">
       <defs>
        <path id="ArialMT-28" d="M 1497 -1347 
Q 1031 -759 709 28 
Q 388 816 388 1659 
Q 388 2403 628 3084 
Q 909 3875 1497 4659 
L 1900 4659 
Q 1522 4009 1400 3731 
Q 1209 3300 1100 2831 
Q 966 2247 966 1656 
Q 966 153 1900 -1347 
L 1497 -1347 
z
" transform="scale(0.015625)"/>
        <path id="ArialMT-2b" d="M 1603 741 
L 1603 1997 
L 356 1997 
L 356 2522 
L 1603 2522 
L 1603 3769 
L 2134 3769 
L 2134 2522 
L 3381 2522 
L 3381 1997 
L 2134 1997 
L 2134 741 
L 1603 741 
z
" transform="scale(0.015625)"/>
        <path id="ArialMT-29" d="M 791 -1347 
L 388 -1347 
Q 1322 153 1322 1656 
Q 1322 2244 1188 2822 
Q 1081 3291 891 3722 
Q 769 4003 388 4659 
L 791 4659 
Q 1378 3875 1659 3084 
Q 1900 2403 1900 1659 
Q 1900 816 1576 28 
Q 1253 -759 791 -1347 
z
" transform="scale(0.015625)"/>
       </defs>
       <use xlink:href="#ArialMT-50"/>
       <use xlink:href="#ArialMT-45" x="66.699219"/>
       <use xlink:href="#ArialMT-47" x="133.398438"/>
       <use xlink:href="#ArialMT-5f" x="211.181641"/>
       <use xlink:href="#ArialMT-28" x="266.796875"/>
       <use xlink:href="#ArialMT-43" x="300.097656"/>
       <use xlink:href="#ArialMT-68" x="372.314453"/>
       <use xlink:href="#ArialMT-6f" x="427.929688"/>
       <use xlink:href="#ArialMT-6c" x="483.544922"/>
       <use xlink:href="#ArialMT-2b" x="505.761719"/>
       <use xlink:href="#ArialMT-50" x="564.160156"/>
       <use xlink:href="#ArialMT-45" x="630.859375"/>
       <use xlink:href="#ArialMT-47" x="697.558594"/>
       <use xlink:href="#ArialMT-29" x="775.341797"/>
      </g>
     </g>
    </g>
    <g id="ytick_11">
     <g id="line2d_18">
      <g>
       <use xlink:href="#mcd1823a60a" x="98.609482" y="28.092403" style="fill: #262626; stroke: #262626; stroke-width: 1.25"/>
      </g>
     </g>
     <g id="text_18">
      <!-- (IL+HL) -->
      <g style="fill: #262626" transform="translate(58.794488 58.430717) rotate(-45) scale(0.12 -0.12)">
       <defs>
        <path id="ArialMT-49" d="M 597 0 
L 597 4581 
L 1203 4581 
L 1203 0 
L 597 0 
z
" transform="scale(0.015625)"/>
       </defs>
       <use xlink:href="#ArialMT-28"/>
       <use xlink:href="#ArialMT-49" x="33.300781"/>
       <use xlink:href="#ArialMT-4c" x="61.083984"/>
       <use xlink:href="#ArialMT-2b" x="116.699219"/>
       <use xlink:href="#ArialMT-48" x="175.097656"/>
       <use xlink:href="#ArialMT-4c" x="247.314453"/>
       <use xlink:href="#ArialMT-29" x="302.929688"/>
      </g>
     </g>
    </g>
    <g id="ytick_12">
     <g id="line2d_19">
      <g>
       <use xlink:href="#mcd1823a60a" x="98.609482" y="11.567812" style="fill: #262626; stroke: #262626; stroke-width: 1.25"/>
      </g>
     </g>
     <g id="text_19">
      <!-- HL_(IL+HL) -->
      <g style="fill: #262626" transform="translate(43.2293 57.471315) rotate(-45) scale(0.12 -0.12)">
       <use xlink:href="#ArialMT-48"/>
       <use xlink:href="#ArialMT-4c" x="72.216797"/>
       <use xlink:href="#ArialMT-5f" x="127.832031"/>
       <use xlink:href="#ArialMT-28" x="183.447266"/>
       <use xlink:href="#ArialMT-49" x="216.748047"/>
       <use xlink:href="#ArialMT-4c" x="244.53125"/>
       <use xlink:href="#ArialMT-2b" x="300.146484"/>
       <use xlink:href="#ArialMT-48" x="358.544922"/>
       <use xlink:href="#ArialMT-4c" x="430.761719"/>
       <use xlink:href="#ArialMT-29" x="486.376953"/>
      </g>
     </g>
    </g>
   </g>
   <g id="line2d_20">
    <path d="M 102.836754 11.567812 
L 149.721052 11.625565 
L 150.225184 11.873382 
L 150.981383 12.59905 
L 151.737581 13.731536 
L 152.493779 15.250686 
L 153.502044 17.842863 
L 154.510308 21.038842 
L 155.770639 25.810135 
L 157.283035 32.551128 
L 159.047498 41.611921 
L 161.064027 53.231152 
L 163.836754 70.733112 
L 172.154936 124.444221 
L 174.171465 135.615495 
L 175.935928 144.17126 
L 177.448325 150.395379 
L 178.708655 154.676719 
L 179.71692 157.44197 
L 180.725184 159.568961 
L 181.481383 160.716608 
L 182.237581 161.458209 
L 182.741713 161.717075 
L 183.497912 161.783811 
L 192.068159 161.701661 
L 192.572292 161.42547 
L 193.32849 160.658893 
L 194.084688 159.487481 
L 194.840887 157.931387 
L 195.849151 155.293035 
L 196.857416 152.054406 
L 198.117746 147.234755 
L 199.630143 140.443002 
L 201.394606 131.33301 
L 203.411135 119.670767 
L 206.183862 102.132683 
L 214.249978 49.951012 
L 216.266507 38.665705 
L 218.030969 29.982537 
L 219.543366 23.628695 
L 220.803697 19.224782 
L 221.811961 16.352002 
L 222.820226 14.109063 
L 223.576424 12.86893 
L 224.332622 12.030109 
L 224.836754 11.703797 
L 225.340887 11.570775 
L 233.911135 11.568142 
L 234.415267 11.678602 
L 234.919399 11.983036 
L 235.675597 12.790326 
L 236.431796 14.00047 
L 237.187994 15.593313 
L 238.196259 18.277579 
L 239.204523 21.558599 
L 240.464854 26.426283 
L 241.97725 33.268407 
L 243.741713 42.427142 
L 245.758242 54.131877 
L 248.530969 71.70537 
L 256.345019 122.348567 
L 258.361548 133.74494 
L 260.126011 142.552914 
L 261.638407 149.034254 
L 262.898738 153.558885 
L 263.907002 156.537711 
L 264.915267 158.895114 
L 265.671465 160.226619 
L 266.427664 161.16155 
L 267.183862 161.679751 
L 267.687994 161.78375 
L 276.510308 161.734397 
L 277.01444 161.497649 
L 277.518573 161.070794 
L 278.274771 160.087122 
L 279.030969 158.709297 
L 280.039234 156.293905 
L 281.047498 153.261397 
L 282.307829 148.675721 
L 283.820226 142.13001 
L 285.584688 133.259185 
L 287.601217 121.807136 
L 290.121878 106.08095 
L 299.700391 44.72932 
L 301.71692 34.055713 
L 303.229316 27.10579 
L 304.741713 21.23954 
L 306.002044 17.295122 
L 307.010308 14.824739 
L 307.766507 13.402972 
L 308.522705 12.373046 
L 309.278903 11.755114 
L 309.783035 11.581996 
L 311.799564 11.567812 
L 360.700391 11.567812 
L 360.700391 11.567812 
" clip-path="url(#p7e9db121a2)" style="fill: none; stroke: #f668c2; stroke-opacity: 0.75; stroke-width: 3; stroke-linecap: round"/>
   </g>
   <g id="line2d_21">
    <path d="M 102.836754 28.092403 
L 108.634275 27.988833 
L 110.398738 27.642067 
L 112.163201 27.078627 
L 114.17973 26.20551 
L 116.448325 24.981294 
L 119.221052 23.221416 
L 123.25411 20.356784 
L 129.303697 16.052513 
L 132.076424 14.345496 
L 134.345019 13.181491 
L 136.361548 12.374709 
L 138.126011 11.879207 
L 139.890474 11.609612 
L 141.907002 11.567812 
L 149.721052 11.614402 
L 150.47725 11.971983 
L 151.233449 12.668586 
L 151.989647 13.687952 
L 152.997912 15.521082 
L 154.006176 17.860573 
L 155.266507 21.438295 
L 156.526837 25.671722 
L 158.039234 31.511384 
L 159.803697 39.207195 
L 162.072292 50.180944 
L 165.349151 67.342822 
L 170.894606 96.515217 
L 173.163201 107.264195 
L 174.927664 114.721613 
L 176.44006 120.312666 
L 177.952457 125.027025 
L 179.212788 128.192125 
L 180.221052 130.170246 
L 181.229316 131.614208 
L 181.985515 132.323456 
L 182.741713 132.694305 
L 183.497912 132.74814 
L 192.320226 132.668978 
L 193.32849 132.294401 
L 194.336754 131.629528 
L 195.345019 130.693627 
L 196.60535 129.171974 
L 197.86568 127.294582 
L 199.378077 124.625126 
L 201.14254 121.018572 
L 203.159069 116.374206 
L 205.931796 109.350703 
L 214.75411 86.45489 
L 216.770639 82.036539 
L 218.535102 78.682681 
L 220.047498 76.270631 
L 221.307829 74.636518 
L 222.568159 73.384303 
L 223.576424 72.682787 
L 224.584688 72.269041 
L 225.592953 72.157976 
L 318.857416 72.216186 
L 319.613614 72.594605 
L 320.369812 73.311068 
L 321.126011 74.349317 
L 322.134275 76.206104 
L 323.14254 78.567515 
L 324.40287 82.170194 
L 325.663201 86.425863 
L 327.175597 92.288633 
L 328.94006 100.006461 
L 331.208655 111.000701 
L 334.485515 128.176649 
L 340.030969 157.331048 
L 342.299564 168.057517 
L 344.064027 175.491348 
L 345.576424 181.057947 
L 347.088821 185.743944 
L 348.349151 188.882424 
L 349.357416 190.837293 
L 350.36568 192.256267 
L 351.121878 192.945633 
L 351.878077 193.295623 
L 352.886341 193.338304 
L 360.700391 193.338304 
L 360.700391 193.338304 
" clip-path="url(#p7e9db121a2)" style="fill: none; stroke: #e866f4; stroke-opacity: 0.75; stroke-width: 3; stroke-linecap: round"/>
   </g>
   <g id="line2d_22">
    <path d="M 102.836754 44.616993 
L 107.626011 44.725596 
L 108.130143 45.003911 
L 108.886341 45.730244 
L 109.64254 46.811401 
L 110.650804 48.774153 
L 111.659069 51.293929 
L 112.919399 55.16274 
L 114.17973 59.753693 
L 115.692126 66.100132 
L 117.456589 74.478939 
L 119.725184 86.446165 
L 122.749978 103.718163 
L 128.799564 138.504734 
L 131.068159 150.165826 
L 132.832622 158.221869 
L 134.345019 164.232695 
L 135.60535 168.502396 
L 136.86568 172.012161 
L 137.873945 174.217488 
L 138.882209 175.841602 
L 139.638407 176.652908 
L 140.394606 177.095783 
L 141.150804 177.177662 
L 277.770639 177.284801 
L 279.535102 177.629734 
L 281.551631 178.28094 
L 283.568159 179.166873 
L 286.088821 180.541739 
L 289.113614 182.477835 
L 294.154936 186.038865 
L 298.692126 189.143242 
L 301.464854 190.784264 
L 303.733449 191.890866 
L 305.749978 192.645197 
L 307.51444 193.094464 
L 309.278903 193.318154 
L 312.051631 193.338304 
L 319.86568 193.253128 
L 321.630143 192.930989 
L 323.394606 192.394884 
L 325.411135 191.555527 
L 327.67973 190.371398 
L 330.452457 188.661687 
L 334.485515 185.867639 
L 340.787168 181.486422 
L 343.559895 179.828291 
L 345.82849 178.702596 
L 347.845019 177.927445 
L 349.609482 177.456989 
L 351.373945 177.209335 
L 353.64254 177.177662 
L 360.700391 177.177662 
L 360.700391 177.177662 
" clip-path="url(#p7e9db121a2)" style="fill: none; stroke: #a48cf4; stroke-opacity: 0.75; stroke-width: 3; stroke-linecap: round"/>
   </g>
   <g id="line2d_23">
    <path d="M 102.836754 61.141583 
L 107.878077 61.056792 
L 108.886341 60.72526 
L 109.894606 60.157828 
L 111.154936 59.140821 
L 112.415267 57.810645 
L 113.927664 55.844408 
L 115.692126 53.107524 
L 117.708655 49.499022 
L 120.229316 44.452191 
L 124.010308 36.272923 
L 128.547498 26.541757 
L 131.068159 21.669441 
L 133.084688 18.258991 
L 134.849151 15.738018 
L 136.361548 13.988503 
L 137.621878 12.861251 
L 138.630143 12.198063 
L 139.638407 11.764055 
L 140.646672 11.574993 
L 144.67973 11.567812 
L 276.510308 11.627606 
L 277.01444 11.914085 
L 277.518573 12.430606 
L 278.274771 13.620909 
L 279.030969 15.28816 
L 280.039234 18.210932 
L 281.047498 21.880451 
L 282.307829 27.429398 
L 283.820226 35.350106 
L 285.332622 44.463253 
L 287.349151 58.131815 
L 289.869812 77.006352 
L 294.154936 111.236202 
L 297.683862 138.773226 
L 299.952457 154.918042 
L 301.71692 166.126578 
L 303.229316 174.536406 
L 304.489647 180.551182 
L 305.749978 185.542423 
L 306.758242 188.7226 
L 307.766507 191.117649 
L 308.522705 192.363923 
L 309.278903 193.111659 
L 309.783035 193.321141 
L 311.547498 193.338304 
L 319.109482 193.228965 
L 319.86568 192.859285 
L 320.621878 192.240137 
L 321.630143 191.047618 
L 322.638407 189.462181 
L 323.898738 186.971875 
L 325.159069 183.969246 
L 326.671465 179.769309 
L 328.435928 174.169838 
L 330.704523 166.101999 
L 333.729316 154.356066 
L 340.283035 128.524965 
L 342.551631 120.576129 
L 344.316093 115.100726 
L 345.82849 111.029077 
L 347.088821 108.148828 
L 348.349151 105.794969 
L 349.357416 104.328817 
L 350.36568 103.264586 
L 351.121878 102.747562 
L 351.878077 102.48507 
L 352.886341 102.453058 
L 360.700391 102.453058 
L 360.700391 102.453058 
" clip-path="url(#p7e9db121a2)" style="fill: none; stroke: #3ba3ec; stroke-opacity: 0.75; stroke-width: 3; stroke-linecap: round"/>
   </g>
   <g id="line2d_24">
    <path d="M 102.836754 77.666173 
L 107.626011 77.61202 
L 108.382209 77.372728 
L 109.390474 76.77079 
L 110.398738 75.86483 
L 111.407002 74.675867 
L 112.667333 72.823715 
L 114.17973 70.118602 
L 115.692126 66.954095 
L 117.456589 62.776193 
L 119.725184 56.809008 
L 123.002044 47.460841 
L 128.547498 31.533072 
L 130.816093 25.650109 
L 132.832622 21.019687 
L 134.345019 18.022526 
L 135.857416 15.511896 
L 137.117746 13.842543 
L 138.126011 12.813389 
L 139.134275 12.079297 
L 140.14254 11.66129 
L 140.898738 11.567812 
L 360.700391 11.567812 
L 360.700391 11.567812 
" clip-path="url(#p7e9db121a2)" style="fill: none; stroke: #38aabf; stroke-opacity: 0.75; stroke-width: 3; stroke-linecap: round"/>
   </g>
   <g id="line2d_25">
    <path d="M 102.836754 94.190763 
L 107.626011 94.286884 
L 108.382209 94.711629 
L 109.138407 95.460909 
L 109.894606 96.518984 
L 110.90287 98.382893 
L 111.911135 100.730474 
L 113.171465 104.288275 
L 114.683862 109.375651 
L 116.448325 116.279635 
L 118.464854 125.202469 
L 120.985515 137.467614 
L 130.564027 185.41456 
L 132.580556 193.776497 
L 134.092953 199.228148 
L 135.60535 203.837193 
L 136.86568 206.943557 
L 137.873945 208.895411 
L 138.882209 210.332856 
L 139.638407 211.050912 
L 140.394606 211.442885 
L 141.150804 211.515353 
L 277.518573 211.429074 
L 279.283035 211.077566 
L 281.047498 210.48409 
L 283.064027 209.549284 
L 285.332622 208.225809 
L 287.853283 206.494955 
L 291.382209 203.778307 
L 298.692126 198.056796 
L 301.464854 196.21102 
L 303.733449 194.966343 
L 305.749978 194.117892 
L 307.51444 193.612569 
L 309.026837 193.380204 
L 310.7913 193.338304 
L 319.86568 193.434108 
L 321.630143 193.796441 
L 323.394606 194.399438 
L 325.411135 195.343523 
L 327.67973 196.6754 
L 330.452457 198.598436 
L 334.233449 201.538562 
L 340.787168 206.668979 
L 343.559895 208.533999 
L 345.82849 209.80015 
L 347.845019 210.672019 
L 349.609482 211.201175 
L 351.373945 211.479729 
L 353.390474 211.515353 
L 360.700391 211.515353 
L 360.700391 211.515353 
" clip-path="url(#p7e9db121a2)" style="fill: none; stroke: #36ada4; stroke-opacity: 0.75; stroke-width: 3; stroke-linecap: round"/>
   </g>
   <g id="line2d_26">
    <path d="M 102.836754 110.715353 
L 107.626011 110.634124 
L 108.382209 110.275185 
L 109.138407 109.641991 
L 109.894606 108.747843 
L 110.90287 107.172709 
L 111.911135 105.188837 
L 113.171465 102.182245 
L 114.683862 97.883054 
L 116.448325 92.048701 
L 118.464854 84.508278 
L 120.985515 74.143367 
L 130.564027 33.624821 
L 132.580556 26.558395 
L 134.092953 21.951366 
L 135.60535 18.056399 
L 136.86568 15.431302 
L 137.873945 13.781848 
L 138.882209 12.567106 
L 139.638407 11.960298 
L 140.394606 11.629053 
L 141.150804 11.567812 
L 151.989647 11.671253 
L 155.01444 12.011802 
L 158.543366 12.643791 
L 163.080556 13.703615 
L 174.927664 16.600657 
L 178.456589 17.169524 
L 181.481383 17.438162 
L 184.758242 17.480166 
L 194.336754 17.371012 
L 197.361548 17.025219 
L 200.890474 16.38869 
L 205.427664 15.325526 
L 217.022705 12.481884 
L 220.551631 11.901104 
L 223.576424 11.619023 
L 226.601217 11.567812 
L 276.510308 11.633586 
L 277.01444 11.948713 
L 277.518573 12.516885 
L 278.274771 13.826219 
L 279.030969 15.660195 
L 280.039234 18.875244 
L 281.047498 22.911715 
L 282.307829 29.015556 
L 283.820226 37.728336 
L 285.332622 47.752797 
L 287.349151 62.788215 
L 289.869812 83.550205 
L 294.154936 121.203041 
L 297.683862 151.493768 
L 299.952457 169.253065 
L 301.71692 181.582454 
L 303.229316 190.833266 
L 304.489647 197.449519 
L 305.749978 202.939884 
L 306.758242 206.438078 
L 307.766507 209.072633 
L 308.522705 210.443534 
L 309.026837 211.054462 
L 309.530969 211.413712 
L 310.035102 211.515353 
L 318.857416 211.419308 
L 319.361548 211.066346 
L 319.86568 210.461512 
L 320.621878 209.099385 
L 321.378077 207.215253 
L 322.386341 203.937435 
L 323.394606 199.842886 
L 324.654936 193.673043 
L 326.167333 184.890737 
L 327.931796 173.015302 
L 329.948325 157.711991 
L 332.468986 136.73094 
L 341.795432 57.047537 
L 343.811961 42.672301 
L 345.324358 33.26611 
L 346.836754 25.277146 
L 348.097085 19.857108 
L 349.10535 16.420452 
L 350.113614 13.852127 
L 350.869812 12.533977 
L 351.373945 11.959682 
L 351.878077 11.638237 
L 352.382209 11.567812 
L 360.700391 11.567812 
L 360.700391 11.567812 
" clip-path="url(#p7e9db121a2)" style="fill: none; stroke: #34af84; stroke-opacity: 0.75; stroke-width: 3; stroke-linecap: round"/>
   </g>
   <g id="line2d_27">
    <path d="M 102.836754 127.239944 
L 107.626011 127.145176 
L 108.382209 126.726414 
L 109.138407 125.987687 
L 109.894606 124.944514 
L 110.90287 123.106858 
L 111.911135 120.792341 
L 113.171465 117.28465 
L 114.683862 112.268927 
L 116.448325 105.462182 
L 118.464854 96.665023 
L 120.985515 84.572626 
L 130.564027 37.300989 
L 132.580556 29.056826 
L 134.092953 23.681959 
L 135.60535 19.13783 
L 136.86568 16.075217 
L 137.873945 14.150854 
L 138.882209 12.733655 
L 139.638407 12.025712 
L 140.394606 11.63926 
L 141.150804 11.567812 
L 149.973118 11.631368 
L 150.981383 11.983766 
L 151.989647 12.627882 
L 152.997912 13.544447 
L 154.258242 15.04393 
L 155.518573 16.901373 
L 157.030969 19.549821 
L 158.795432 23.135909 
L 160.811961 27.762214 
L 163.584688 34.770169 
L 172.407002 57.688029 
L 174.423531 62.1267 
L 176.187994 65.503002 
L 177.700391 67.937756 
L 178.960721 69.593231 
L 180.221052 70.869029 
L 181.229316 71.59101 
L 182.237581 72.026644 
L 182.993779 72.153862 
L 190.051631 72.157976 
L 192.068159 72.234188 
L 192.572292 72.490414 
L 193.32849 73.201577 
L 194.084688 74.288312 
L 194.840887 75.731921 
L 195.849151 78.179555 
L 196.857416 81.184074 
L 198.117746 85.655329 
L 199.630143 91.956128 
L 201.394606 100.407589 
L 203.411135 111.226806 
L 206.183862 127.49712 
L 214.249978 175.906749 
L 216.266507 186.376279 
L 218.030969 194.431768 
L 219.543366 200.326313 
L 220.803697 204.411881 
L 221.811961 207.076997 
L 222.820226 209.157801 
L 223.576424 210.308289 
L 224.332622 211.086475 
L 225.088821 211.473663 
L 225.845019 211.515353 
L 234.415267 211.412573 
L 234.919399 211.130145 
L 235.675597 210.381211 
L 236.431796 209.258545 
L 237.187994 207.780844 
L 238.196259 205.290614 
L 239.456589 201.404497 
L 240.71692 196.739914 
L 242.229316 190.236714 
L 243.993779 181.589925 
L 246.262374 169.161328 
L 249.287168 151.109445 
L 255.840887 111.552138 
L 258.109482 99.426062 
L 259.873945 91.094666 
L 261.386341 84.917588 
L 262.646672 80.564108 
L 263.907002 77.024853 
L 264.915267 74.837859 
L 265.671465 73.602603 
L 266.427664 72.735256 
L 267.183862 72.254514 
L 267.687994 72.158033 
L 360.700391 72.157976 
L 360.700391 72.157976 
" clip-path="url(#p7e9db121a2)" style="fill: none; stroke: #50b131; stroke-opacity: 0.75; stroke-width: 3; stroke-linecap: round"/>
   </g>
   <g id="line2d_28">
    <path d="M 102.836754 143.764534 
L 107.626011 143.67112 
L 108.382209 143.25834 
L 109.138407 142.530167 
L 109.894606 141.501896 
L 110.90287 139.690493 
L 111.911135 137.40904 
L 113.171465 133.951459 
L 114.683862 129.007389 
L 116.448325 122.297883 
L 118.464854 113.626398 
L 120.985515 101.706749 
L 130.564027 55.110422 
L 132.580556 46.984032 
L 134.092953 41.685949 
L 135.60535 37.206736 
L 136.86568 34.187875 
L 137.873945 32.291003 
L 138.882209 30.89405 
L 139.638407 30.19622 
L 140.394606 29.815289 
L 141.150804 29.744862 
L 149.721052 29.814746 
L 150.225184 30.114619 
L 150.729316 30.64412 
L 151.485515 31.853115 
L 152.241713 33.538126 
L 153.249978 36.483126 
L 154.258242 40.173215 
L 155.518573 45.745543 
L 157.030969 53.690887 
L 158.795432 64.449151 
L 160.811961 78.328067 
L 163.332622 97.374928 
L 172.659069 169.856768 
L 174.675597 182.963647 
L 176.187994 191.550432 
L 177.700391 198.854692 
L 178.960721 203.821116 
L 179.968986 206.979574 
L 180.97725 209.351247 
L 181.733449 210.578899 
L 182.489647 211.307081 
L 182.993779 211.503009 
L 185.51444 211.515353 
L 234.163201 211.477915 
L 234.667333 211.225988 
L 235.171465 210.742954 
L 235.927664 209.600881 
L 236.683862 207.979461 
L 237.692126 205.114067 
L 238.700391 201.497661 
L 239.960721 196.009109 
L 241.221052 189.550327 
L 242.733449 180.678053 
L 244.497912 169.027014 
L 246.766507 152.466785 
L 250.043366 126.656318 
L 255.336754 84.865575 
L 257.60535 68.666354 
L 259.369812 57.400579 
L 260.882209 48.931294 
L 262.394606 41.763722 
L 263.654936 36.925863 
L 264.663201 33.879853 
L 265.419399 32.114109 
L 266.175597 30.820117 
L 266.931796 30.022263 
L 267.435928 29.778036 
L 268.444193 29.744862 
L 276.510308 29.804656 
L 277.01444 30.091135 
L 277.518573 30.607655 
L 278.274771 31.797958 
L 279.030969 33.46521 
L 280.039234 36.387981 
L 281.047498 40.0575 
L 282.307829 45.606447 
L 283.820226 53.527155 
L 285.332622 62.640302 
L 287.349151 76.308864 
L 289.869812 95.183401 
L 294.154936 129.413251 
L 297.683862 156.950276 
L 299.952457 173.095092 
L 301.71692 184.303627 
L 303.229316 192.713456 
L 304.489647 198.728231 
L 305.749978 203.719472 
L 306.758242 206.899649 
L 307.766507 209.294698 
L 308.522705 210.540972 
L 309.278903 211.288708 
L 309.783035 211.49819 
L 311.547498 211.515353 
L 360.700391 211.515353 
L 360.700391 211.515353 
" clip-path="url(#p7e9db121a2)" style="fill: none; stroke: #97a431; stroke-opacity: 0.75; stroke-width: 3; stroke-linecap: round"/>
   </g>
   <g id="line2d_29">
    <path d="M 102.836754 160.289124 
L 107.878077 160.376741 
L 108.886341 160.719325 
L 109.894606 161.305671 
L 111.154936 162.356578 
L 112.415267 163.731093 
L 113.927664 165.762872 
L 115.692126 168.590985 
L 117.708655 172.319771 
L 120.229316 177.534829 
L 124.010308 185.986739 
L 128.547498 196.042278 
L 131.068159 201.077004 
L 133.084688 204.601135 
L 134.849151 207.206141 
L 136.361548 209.013974 
L 137.621878 210.178801 
L 138.630143 210.864095 
L 139.638407 211.312569 
L 140.646672 211.507933 
L 144.427664 211.515353 
L 150.729316 211.425428 
L 152.493779 211.069703 
L 154.258242 210.472518 
L 156.274771 209.534096 
L 158.543366 208.207346 
L 161.316093 206.288782 
L 165.097085 203.351581 
L 171.650804 198.21755 
L 174.423531 196.347687 
L 176.692126 195.076107 
L 178.708655 194.198306 
L 180.473118 193.663102 
L 182.237581 193.377704 
L 184.25411 193.338304 
L 193.076424 193.437943 
L 194.840887 193.804471 
L 196.60535 194.411154 
L 198.621878 195.358832 
L 200.890474 196.693957 
L 203.663201 198.619823 
L 207.444193 201.561786 
L 213.997912 206.689864 
L 216.770639 208.551785 
L 219.039234 209.814467 
L 221.055763 210.682549 
L 222.820226 211.207847 
L 224.584688 211.482034 
L 226.601217 211.515353 
L 360.700391 211.515353 
L 360.700391 211.515353 
" clip-path="url(#p7e9db121a2)" style="fill: none; stroke: #bb9832; stroke-opacity: 0.75; stroke-width: 3; stroke-linecap: round"/>
   </g>
   <g id="line2d_30">
    <path d="M 102.836754 176.813714 
L 107.373945 176.772335 
L 107.878077 176.531078 
L 108.382209 176.0801 
L 109.138407 175.024776 
L 109.894606 173.534529 
L 110.90287 170.909307 
L 111.911135 167.602854 
L 113.171465 162.591866 
L 114.683862 155.426548 
L 116.196259 147.171864 
L 118.212788 134.777601 
L 120.733449 117.645232 
L 125.018573 86.537915 
L 128.799564 59.776251 
L 131.068159 45.239906 
L 132.832622 35.197499 
L 134.345019 27.704596 
L 135.60535 22.382123 
L 136.86568 18.006962 
L 137.873945 15.257872 
L 138.630143 13.668647 
L 139.386341 12.509135 
L 140.14254 11.801507 
L 140.646672 11.591748 
L 141.907002 11.567812 
L 192.068159 11.667219 
L 192.572292 12.001426 
L 193.076424 12.564195 
L 193.832622 13.821093 
L 194.588821 15.551608 
L 195.597085 18.553548 
L 196.60535 22.296313 
L 197.86568 27.928489 
L 199.378077 35.936856 
L 201.14254 46.756519 
L 203.159069 60.689614 
L 205.67973 79.780212 
L 215.006176 152.192133 
L 217.022705 165.235919 
L 218.535102 173.76419 
L 220.047498 181.000342 
L 221.307829 185.90268 
L 222.316093 189.005071 
L 223.324358 191.316413 
L 224.080556 192.496018 
L 224.584688 193.005111 
L 225.088821 193.283925 
L 225.845019 193.338304 
L 234.163201 193.300866 
L 234.667333 193.048939 
L 235.171465 192.565905 
L 235.927664 191.423832 
L 236.683862 189.802412 
L 237.692126 186.937018 
L 238.700391 183.320612 
L 239.960721 177.83206 
L 241.221052 171.373277 
L 242.733449 162.501004 
L 244.497912 150.849965 
L 246.766507 134.289735 
L 250.043366 108.479268 
L 255.336754 66.688525 
L 257.60535 50.489305 
L 259.369812 39.22353 
L 260.882209 30.754244 
L 262.394606 23.586673 
L 263.654936 18.748814 
L 264.663201 15.702804 
L 265.419399 13.93706 
L 266.175597 12.643068 
L 266.931796 11.845214 
L 267.435928 11.600987 
L 268.444193 11.567812 
L 276.510308 11.633586 
L 277.01444 11.948713 
L 277.518573 12.516885 
L 278.274771 13.826219 
L 279.030969 15.660195 
L 280.039234 18.875244 
L 281.047498 22.911715 
L 282.307829 29.015556 
L 283.820226 37.728336 
L 285.332622 47.752797 
L 287.349151 62.788215 
L 289.869812 83.550205 
L 294.154936 121.203041 
L 297.683862 151.493768 
L 299.952457 169.253065 
L 301.71692 181.582454 
L 303.229316 190.833266 
L 304.489647 197.449519 
L 305.749978 202.939884 
L 306.758242 206.438078 
L 307.766507 209.072633 
L 308.522705 210.443534 
L 309.026837 211.054462 
L 309.530969 211.413712 
L 310.035102 211.515353 
L 360.700391 211.515353 
L 360.700391 211.515353 
" clip-path="url(#p7e9db121a2)" style="fill: none; stroke: #e68332; stroke-opacity: 0.75; stroke-width: 3; stroke-linecap: round"/>
   </g>
   <g id="line2d_31">
    <path d="M 102.836754 193.338304 
L 108.382209 193.419002 
L 109.894606 193.699015 
L 111.659069 194.253862 
L 113.675597 195.150917 
L 115.944193 196.440078 
L 118.464854 198.142935 
L 121.741713 200.638224 
L 130.059895 207.122267 
L 132.580556 208.76708 
L 134.849151 209.986278 
L 136.86568 210.807047 
L 138.630143 211.284262 
L 140.14254 211.489647 
L 142.411135 211.515353 
L 192.068159 211.459244 
L 192.824358 211.127649 
L 193.580556 210.510372 
L 194.336754 209.621176 
L 195.345019 208.036389 
L 196.353283 206.025292 
L 197.613614 202.96163 
L 199.126011 198.562996 
L 200.890474 192.574622 
L 202.907002 184.815263 
L 205.427664 174.125173 
L 210.21692 152.513063 
L 213.493779 138.228229 
L 215.762374 129.267637 
L 217.526837 123.099715 
L 219.039234 118.516868 
L 220.299564 115.278321 
L 221.559895 112.63547 
L 222.568159 110.992915 
L 223.576424 109.805019 
L 224.332622 109.232096 
L 225.088821 108.947037 
L 226.097085 108.916343 
L 234.415267 108.992013 
L 235.171465 109.352318 
L 235.927664 109.996952 
L 236.683862 110.912151 
L 237.692126 112.529501 
L 238.700391 114.570755 
L 239.960721 117.668728 
L 241.473118 122.103571 
L 243.237581 128.127344 
L 245.25411 135.918133 
L 247.774771 146.633969 
L 253.068159 170.514673 
L 256.092953 183.551813 
L 258.361548 192.364528 
L 260.126011 198.380461 
L 261.638407 202.807281 
L 262.898738 205.897648 
L 264.159069 208.375813 
L 265.167333 209.874735 
L 265.923531 210.695408 
L 266.67973 211.240627 
L 267.435928 211.496628 
L 268.948325 211.515353 
L 360.700391 211.515353 
L 360.700391 211.515353 
" clip-path="url(#p7e9db121a2)" style="fill: none; stroke: #f77189; stroke-opacity: 0.75; stroke-width: 3; stroke-linecap: round"/>
   </g>
  </g>
  <g id="axes_2">
   <g id="matplotlib.axis_3">
    <g id="ytick_13">
     <g id="line2d_32">
      <path d="M 98.609482 213.333058 
L 377.609482 213.333058 
" clip-path="url(#p7e9db121a2)" style="fill: none; stroke: #ffffff; stroke-linecap: round"/>
     </g>
     <g id="line2d_33">
      <defs>
       <path id="m3685e5dd6c" d="M 0 0 
L 6 0 
" style="stroke: #262626; stroke-width: 1.25"/>
      </defs>
      <g>
       <use xlink:href="#m3685e5dd6c" x="377.609482" y="213.333058" style="fill: #262626; stroke: #262626; stroke-width: 1.25"/>
      </g>
     </g>
     <g id="text_20">
      <!-- N/A -->
      <g transform="translate(395.698857 229.042746) rotate(-90) scale(0.12 -0.12)">
       <defs>
        <path id="ArialMT-2f" d="M 0 -78 
L 1328 4659 
L 1778 4659 
L 453 -78 
L 0 -78 
z
" transform="scale(0.015625)"/>
       </defs>
       <use xlink:href="#ArialMT-4e"/>
       <use xlink:href="#ArialMT-2f" x="72.216797"/>
       <use xlink:href="#ArialMT-41" x="100"/>
      </g>
     </g>
    </g>
    <g id="ytick_14">
     <g id="line2d_34">
      <path d="M 98.609482 164.860927 
L 377.609482 164.860927 
" clip-path="url(#p7e9db121a2)" style="fill: none; stroke: #ffffff; stroke-linecap: round"/>
     </g>
     <g id="line2d_35">
      <g>
       <use xlink:href="#m3685e5dd6c" x="377.609482" y="164.860927" style="fill: #262626; stroke: #262626; stroke-width: 1.25"/>
      </g>
     </g>
     <g id="text_21">
      <!-- Low -->
      <g transform="translate(395.698857 182.57874) rotate(-90) scale(0.12 -0.12)">
       <defs>
        <path id="ArialMT-77" d="M 1034 0 
L 19 3319 
L 600 3319 
L 1128 1403 
L 1325 691 
Q 1338 744 1497 1375 
L 2025 3319 
L 2603 3319 
L 3100 1394 
L 3266 759 
L 3456 1400 
L 4025 3319 
L 4572 3319 
L 3534 0 
L 2950 0 
L 2422 1988 
L 2294 2553 
L 1622 0 
L 1034 0 
z
" transform="scale(0.015625)"/>
       </defs>
       <use xlink:href="#ArialMT-4c"/>
       <use xlink:href="#ArialMT-6f" x="55.615234"/>
       <use xlink:href="#ArialMT-77" x="111.230469"/>
      </g>
     </g>
    </g>
    <g id="ytick_15">
     <g id="line2d_36">
      <path d="M 98.609482 102.453058 
L 377.609482 102.453058 
" clip-path="url(#p7e9db121a2)" style="fill: none; stroke: #ffffff; stroke-linecap: round"/>
     </g>
     <g id="line2d_37">
      <g>
       <use xlink:href="#m3685e5dd6c" x="377.609482" y="102.453058" style="fill: #262626; stroke: #262626; stroke-width: 1.25"/>
      </g>
     </g>
     <g id="text_22">
      <!-- Med -->
      <g transform="translate(395.698857 121.500246) rotate(-90) scale(0.12 -0.12)">
       <defs>
        <path id="ArialMT-4d" d="M 475 0 
L 475 4581 
L 1388 4581 
L 2472 1338 
Q 2622 884 2691 659 
Q 2769 909 2934 1394 
L 4031 4581 
L 4847 4581 
L 4847 0 
L 4263 0 
L 4263 3834 
L 2931 0 
L 2384 0 
L 1059 3900 
L 1059 0 
L 475 0 
z
" transform="scale(0.015625)"/>
       </defs>
       <use xlink:href="#ArialMT-4d"/>
       <use xlink:href="#ArialMT-65" x="83.300781"/>
       <use xlink:href="#ArialMT-64" x="138.916016"/>
      </g>
     </g>
    </g>
    <g id="ytick_16">
     <g id="line2d_38">
      <path d="M 98.609482 40.04519 
L 377.609482 40.04519 
" clip-path="url(#p7e9db121a2)" style="fill: none; stroke: #ffffff; stroke-linecap: round"/>
     </g>
     <g id="line2d_39">
      <g>
       <use xlink:href="#m3685e5dd6c" x="377.609482" y="40.04519" style="fill: #262626; stroke: #262626; stroke-width: 1.25"/>
      </g>
     </g>
     <g id="text_23">
      <!-- High -->
      <g transform="translate(395.698857 60.429252) rotate(-90) scale(0.12 -0.12)">
       <use xlink:href="#ArialMT-48"/>
       <use xlink:href="#ArialMT-69" x="72.216797"/>
       <use xlink:href="#ArialMT-67" x="94.433594"/>
       <use xlink:href="#ArialMT-68" x="150.048828"/>
      </g>
     </g>
    </g>
    <g id="text_24">
     <!-- Relative Feature Value -->
     <g transform="translate(412.961201 194.547168) rotate(-90) scale(0.15 -0.15)">
      <defs>
       <path id="ArialMT-76" d="M 1344 0 
L 81 3319 
L 675 3319 
L 1388 1331 
Q 1503 1009 1600 663 
Q 1675 925 1809 1294 
L 2547 3319 
L 3125 3319 
L 1869 0 
L 1344 0 
z
" transform="scale(0.015625)"/>
       <path id="ArialMT-20" transform="scale(0.015625)"/>
       <path id="ArialMT-56" d="M 1803 0 
L 28 4581 
L 684 4581 
L 1875 1253 
Q 2019 853 2116 503 
Q 2222 878 2363 1253 
L 3600 4581 
L 4219 4581 
L 2425 0 
L 1803 0 
z
" transform="scale(0.015625)"/>
      </defs>
      <use xlink:href="#ArialMT-52"/>
      <use xlink:href="#ArialMT-65" x="72.216797"/>
      <use xlink:href="#ArialMT-6c" x="127.832031"/>
      <use xlink:href="#ArialMT-61" x="150.048828"/>
      <use xlink:href="#ArialMT-74" x="205.664062"/>
      <use xlink:href="#ArialMT-69" x="233.447266"/>
      <use xlink:href="#ArialMT-76" x="255.664062"/>
      <use xlink:href="#ArialMT-65" x="305.664062"/>
      <use xlink:href="#ArialMT-20" x="361.279297"/>
      <use xlink:href="#ArialMT-46" x="389.0625"/>
      <use xlink:href="#ArialMT-65" x="450.146484"/>
      <use xlink:href="#ArialMT-61" x="505.761719"/>
      <use xlink:href="#ArialMT-74" x="561.376953"/>
      <use xlink:href="#ArialMT-75" x="589.160156"/>
      <use xlink:href="#ArialMT-72" x="644.775391"/>
      <use xlink:href="#ArialMT-65" x="678.076172"/>
      <use xlink:href="#ArialMT-20" x="733.691406"/>
      <use xlink:href="#ArialMT-56" x="761.474609"/>
      <use xlink:href="#ArialMT-61" x="820.798828"/>
      <use xlink:href="#ArialMT-6c" x="876.414062"/>
      <use xlink:href="#ArialMT-75" x="898.630859"/>
      <use xlink:href="#ArialMT-65" x="954.246094"/>
     </g>
    </g>
   </g>
   <g id="patch_3">
    <path d="M 98.609482 229.692403 
L 98.609482 196.973714 
L 377.609482 196.973714 
L 377.609482 229.692403 
z
" clip-path="url(#p7e9db121a2)" style="fill: #f08080; opacity: 0.25; stroke: #ffffff; stroke-linejoin: miter"/>
   </g>
   <g id="patch_4">
    <path d="M 98.609482 196.973714 
L 98.609482 132.74814 
L 377.609482 132.74814 
L 377.609482 196.973714 
z
" clip-path="url(#p7e9db121a2)" style="fill: #ebf3ed; opacity: 0.25; stroke: #ffffff; stroke-linejoin: miter"/>
   </g>
   <g id="patch_5">
    <path d="M 98.609482 132.74814 
L 98.609482 72.157976 
L 377.609482 72.157976 
L 377.609482 132.74814 
z
" clip-path="url(#p7e9db121a2)" style="fill: #acd0bb; opacity: 0.25; stroke: #ffffff; stroke-linejoin: miter"/>
   </g>
   <g id="patch_6">
    <path d="M 98.609482 72.157976 
L 98.609482 7.932403 
L 377.609482 7.932403 
L 377.609482 72.157976 
z
" clip-path="url(#p7e9db121a2)" style="fill: #6dae89; opacity: 0.25; stroke: #ffffff; stroke-linejoin: miter"/>
   </g>
   <g id="patch_7">
    <path d="M 98.609482 229.692403 
L 98.609482 7.932403 
" style="fill: none; stroke: #ffffff; stroke-width: 1.25; stroke-linejoin: miter; stroke-linecap: square"/>
   </g>
   <g id="patch_8">
    <path d="M 377.609482 229.692403 
L 377.609482 7.932403 
" style="fill: none; stroke: #ffffff; stroke-width: 1.25; stroke-linejoin: miter; stroke-linecap: square"/>
   </g>
   <g id="patch_9">
    <path d="M 98.609482 229.692403 
L 377.609482 229.692403 
" style="fill: none; stroke: #ffffff; stroke-width: 1.25; stroke-linejoin: miter; stroke-linecap: square"/>
   </g>
   <g id="patch_10">
    <path d="M 98.609482 7.932403 
L 377.609482 7.932403 
" style="fill: none; stroke: #ffffff; stroke-width: 1.25; stroke-linejoin: miter; stroke-linecap: square"/>
   </g>
  </g>
 </g>
 <defs>
  <clipPath id="p7e9db121a2">
   <rect x="98.609482" y="7.932403" width="279" height="221.76"/>
  </clipPath>
 </defs>
</svg>
