<svg class="main-svg" xmlns="http://www.w3.org/2000/svg" xmlns:xlink="http://www.w3.org/1999/xlink" width="800" height="400" style="" viewBox="0 0 800 400"><rect x="0" y="0" width="800" height="400" style="fill: rgb(0, 0, 0); fill-opacity: 0;"/><defs id="defs-fde02d"><g class="clips"><clipPath id="clipfde02dpolar-for-traces"><path d="M130,0A130,130 0,1,0 -130,-1.592040838891559e-14A130,130 0,1,0 130,3.184081677783118e-14Z" transform="translate(130,130)"/></clipPath></g><g class="gradients"/><g class="patterns"/></defs><g class="bglayer"/><g class="layer-below"><g class="imagelayer"/><g class="shapelayer"/></g><g class="cartesianlayer"/><g class="polarlayer"><g class="polar"><g class="polarsublayer draglayer"/><g class="polarsublayer plotbg"><path d="M130,0A130,130 0,1,0 -130,-1.592040838891559e-14A130,130 0,1,0 130,3.184081677783118e-14Z" transform="translate(400,190)" style="fill: rgb(229, 236, 246); fill-opacity: 1;"/></g><g class="polarsublayer backplot"><g class="maplayer"/></g><g class="polarsublayer angular-grid" style="fill: none;"><path class="angularaxisgrid" d="M400,190L530,190" style="stroke: rgb(255, 255, 255); stroke-opacity: 1; stroke-width: 1px;"/><path class="angularaxisgrid" d="M400,190L499.5857776054671,273.5623892592501" style="stroke: rgb(255, 255, 255); stroke-opacity: 1; stroke-width: 1px;"/><path class="angularaxisgrid" d="M400,190L422.574263096701,318.02500789158705" style="stroke: rgb(255, 255, 255); stroke-opacity: 1; stroke-width: 1px;"/><path class="angularaxisgrid" d="M400,190L335,302.58330249197707" style="stroke: rgb(255, 255, 255); stroke-opacity: 1; stroke-width: 1px;"/><path class="angularaxisgrid" d="M400,190L277.8399592978319,234.46261863233696" style="stroke: rgb(255, 255, 255); stroke-opacity: 1; stroke-width: 1px;"/><path class="angularaxisgrid" d="M400,190L277.8399592978319,145.53738136766307" style="stroke: rgb(255, 255, 255); stroke-opacity: 1; stroke-width: 1px;"/><path class="angularaxisgrid" d="M400,190L334.99999999999994,77.41669750802299" style="stroke: rgb(255, 255, 255); stroke-opacity: 1; stroke-width: 1px;"/><path class="angularaxisgrid" d="M400,190L422.5742630967009,61.97499210841295" style="stroke: rgb(255, 255, 255); stroke-opacity: 1; stroke-width: 1px;"/><path class="angularaxisgrid" d="M400,190L499.5857776054671,106.43761074074986" style="stroke: rgb(255, 255, 255); stroke-opacity: 1; stroke-width: 1px;"/></g><g class="polarsublayer radial-grid" transform="translate(400,190)" style="fill: none;"><path class="xgrid" d="M26,0A26,26 0,1,0 -26,-3.184081677783118e-15A26,26 0,1,0 26,6.368163355566236e-15Z" style="stroke: rgb(255, 255, 255); stroke-opacity: 1; stroke-width: 1px;"/><path class="xgrid" d="M52,0A52,52 0,1,0 -52,-6.368163355566236e-15A52,52 0,1,0 52,1.2736326711132473e-14Z" style="stroke: rgb(255, 255, 255); stroke-opacity: 1; stroke-width: 1px;"/><path class="xgrid" d="M78,0A78,78 0,1,0 -78,-9.552245033349356e-15A78,78 0,1,0 78,1.910449006669871e-14Z" style="stroke: rgb(255, 255, 255); stroke-opacity: 1; stroke-width: 1px;"/><path class="xgrid" d="M104,0A104,104 0,1,0 -104,-1.2736326711132473e-14A104,104 0,1,0 104,2.5472653422264946e-14Z" style="stroke: rgb(255, 255, 255); stroke-opacity: 1; stroke-width: 1px;"/></g><g class="polarsublayer frontplot" transform="translate(270,60)" clip-path="url(#clipfde02dpolar-for-traces)"><g class="barlayer"/><g class="scatterlayer"><g class="trace scatter trace2d80bb" style="stroke-miterlimit: 2; opacity: 1;"><g class="fills"><g><path class="js-fill" d="M260,130L130,130L130,130L130,130L7.84,174.46L124.48,127.99L108.33,92.47L134.15,106.49L229.59,46.44L260,130Z" style="fill: rgb(99, 110, 250); fill-opacity: 0.5; stroke-width: 0;"/></g></g><g class="errorbars"/><g class="lines"><path class="js-line" d="M260,130L130,130L130,130L130,130L7.84,174.46L124.48,127.99L108.33,92.47L134.15,106.49L229.59,46.44L260,130" style="vector-effect: none; fill: none; stroke: rgb(99, 110, 250); stroke-opacity: 1; stroke-width: 2px; opacity: 1;"/></g><g class="points"/><g class="text"/></g></g></g><g class="polarsublayer angular-line"><path d="M130,0A130,130 0,1,0 -130,-1.592040838891559e-14A130,130 0,1,0 130,3.184081677783118e-14Z" transform="translate(400,190)" stroke-width="1" style="fill: none; stroke: rgb(255, 255, 255); stroke-opacity: 1;"/></g><g class="polarsublayer radial-line"><line x1="0" y1="0" x2="130" y2="0" transform="translate(400,190)" stroke-width="1" style="fill: none; stroke: rgb(255, 255, 255); stroke-opacity: 1;"/></g><g class="polarsublayer angular-axis"><g class="angularaxistick"><text text-anchor="start" x="4.5" y="7" transform="translate(530,190)" style="font-family: Arial; font-size: 20px; fill: rgb(0, 0, 0); fill-opacity: 1; white-space: pre; opacity: 1;">P_charged_centers</text></g><g class="angularaxistick"><text text-anchor="start" x="3.447199994035401" y="21.110607539153058" transform="translate(499.5857776054671,273.5623892592501)" style="font-family: Arial; font-size: 20px; fill: rgb(0, 0, 0); fill-opacity: 1; white-space: pre; opacity: 1;">N_charged_centers</text></g><g class="angularaxistick"><text text-anchor="start" x="0.7814167995011869" y="25.343327192467612" transform="translate(422.574263096701,318.02500789158705)" style="font-family: Arial; font-size: 20px; fill: rgb(0, 0, 0); fill-opacity: 1; white-space: pre; opacity: 1;">Hbond_D</text></g><g class="angularaxistick"><text text-anchor="end" x="-2.249999999999999" y="24.717622392718745" transform="translate(335,302.58330249197707)" style="font-family: Arial; font-size: 20px; fill: rgb(0, 0, 0); fill-opacity: 1; white-space: pre; opacity: 1;">Total_Carbon_Tails</text></g><g class="angularaxistick"><text text-anchor="end" x="-4.228616793536587" y="14.957341856980246" transform="translate(277.8399592978319,234.46261863233696)" style="font-family: Arial; font-size: 20px; fill: rgb(0, 0, 0); fill-opacity: 1; white-space: pre; opacity: 1;">Double_bonds</text></g><g class="angularaxistick"><text text-anchor="end" x="-4.228616793536588" y="3.670677127233175" transform="translate(277.8399592978319,145.53738136766307)" style="font-family: Arial; font-size: 20px; fill: rgb(0, 0, 0); fill-opacity: 1; white-space: pre; opacity: 1;">Dlin-MC3_Helper lipid_ratio</text></g><g class="angularaxistick"><text text-anchor="end" x="-2.2500000000000018" y="-3.8612159321677244" transform="translate(334.99999999999994,77.41669750802299)" style="font-family: Arial; font-size: 20px; fill: rgb(0, 0, 0); fill-opacity: 1; white-space: pre; opacity: 1;">Dlin-MC3+Helper lipid percentage</text></g><g class="angularaxistick"><text text-anchor="start" x="0.7814167995011849" y="-7.15532865693526" transform="translate(422.5742630967009,61.97499210841295)" style="font-family: Arial; font-size: 20px; fill: rgb(0, 0, 0); fill-opacity: 1; white-space: pre; opacity: 1;">Chol_DMG-PEG_ratio</text></g><g class="angularaxistick"><text text-anchor="start" x="3.4471999940354" y="-0.1013835805027421" transform="translate(499.5857776054671,106.43761074074986)" style="font-family: Arial; font-size: 20px; fill: rgb(0, 0, 0); fill-opacity: 1; white-space: pre; opacity: 1;">NP_ratio</text></g></g><g class="polarsublayer radial-axis" display="none"/></g></g><g class="smithlayer"/><g class="ternarylayer"/><g class="geolayer"/><g class="funnelarealayer"/><g class="pielayer"/><g class="iciclelayer"/><g class="treemaplayer"/><g class="sunburstlayer"/><g class="glimages"/><defs id="topdefs-fde02d"><g class="clips"/></defs><g class="layer-above"><g class="imagelayer"/><g class="shapelayer"/></g><g class="infolayer"><g class="g-gtitle"/><g class="g-polartitle"/></g></svg>