<?xml version="1.0" encoding="utf-8" standalone="no"?>
<!DOCTYPE svg PUBLIC "-//W3C//DTD SVG 1.1//EN"
  "http://www.w3.org/Graphics/SVG/1.1/DTD/svg11.dtd">
<svg xmlns:xlink="http://www.w3.org/1999/xlink" width="527.793119pt" height="523.744219pt" viewBox="0 0 527.793119 523.744219" xmlns="http://www.w3.org/2000/svg" version="1.1">
 <metadata>
  <rdf:RDF xmlns:dc="http://purl.org/dc/elements/1.1/" xmlns:cc="http://creativecommons.org/ns#" xmlns:rdf="http://www.w3.org/1999/02/22-rdf-syntax-ns#">
   <cc:Work>
    <dc:type rdf:resource="http://purl.org/dc/dcmitype/StillImage"/>
    <dc:date>2023-09-24T22:23:52.050323</dc:date>
    <dc:format>image/svg+xml</dc:format>
    <dc:creator>
     <cc:Agent>
      <dc:title>Matplotlib v3.6.3, https://matplotlib.org/</dc:title>
     </cc:Agent>
    </dc:creator>
   </cc:Work>
  </rdf:RDF>
 </metadata>
 <defs>
  <style type="text/css">*{stroke-linejoin: round; stroke-linecap: butt}</style>
 </defs>
 <g id="figure_1">
  <g id="patch_1">
   <path d="M 0 523.744219 
L 527.793119 523.744219 
L 527.793119 0 
L 0 0 
L 0 523.744219 
z
" style="fill: none"/>
  </g>
  <g id="axes_1">
   <g id="patch_2">
    <path d="M 68.182031 471.035625 
L 514.582031 471.035625 
L 514.582031 27.515625 
L 68.182031 27.515625 
L 68.182031 471.035625 
z
" style="fill: none"/>
   </g>
   <g id="matplotlib.axis_1">
    <g id="xtick_1">
     <g id="line2d_1">
      <path d="M 76.766647 471.035625 
L 76.766647 27.515625 
" clip-path="url(#p4dc30a0bf0)" style="fill: none; stroke: #ffffff; stroke-linecap: round"/>
     </g>
     <g id="line2d_2">
      <defs>
       <path id="m5e7a79da8c" d="M 0 0 
L 0 6 
" style="stroke: #000000; stroke-width: 1.25"/>
      </defs>
      <g>
       <use xlink:href="#m5e7a79da8c" x="76.766647" y="471.035625" style="stroke: #000000; stroke-width: 1.25"/>
      </g>
     </g>
     <g id="text_1">
      <!-- 0.00 -->
      <g transform="translate(62.170944 491.272344) scale(0.15 -0.15)">
       <defs>
        <path id="ArialMT-30" d="M 266 2259 
Q 266 3072 433 3567 
Q 600 4063 929 4331 
Q 1259 4600 1759 4600 
Q 2128 4600 2406 4451 
Q 2684 4303 2865 4023 
Q 3047 3744 3150 3342 
Q 3253 2941 3253 2259 
Q 3253 1453 3087 958 
Q 2922 463 2592 192 
Q 2263 -78 1759 -78 
Q 1097 -78 719 397 
Q 266 969 266 2259 
z
M 844 2259 
Q 844 1131 1108 757 
Q 1372 384 1759 384 
Q 2147 384 2411 759 
Q 2675 1134 2675 2259 
Q 2675 3391 2411 3762 
Q 2147 4134 1753 4134 
Q 1366 4134 1134 3806 
Q 844 3388 844 2259 
z
" transform="scale(0.015625)"/>
        <path id="ArialMT-2e" d="M 581 0 
L 581 641 
L 1222 641 
L 1222 0 
L 581 0 
z
" transform="scale(0.015625)"/>
       </defs>
       <use xlink:href="#ArialMT-30"/>
       <use xlink:href="#ArialMT-2e" x="55.615234"/>
       <use xlink:href="#ArialMT-30" x="83.398438"/>
       <use xlink:href="#ArialMT-30" x="139.013672"/>
      </g>
     </g>
    </g>
    <g id="xtick_2">
     <g id="line2d_3">
      <path d="M 184.074339 471.035625 
L 184.074339 27.515625 
" clip-path="url(#p4dc30a0bf0)" style="fill: none; stroke: #ffffff; stroke-linecap: round"/>
     </g>
     <g id="line2d_4">
      <g>
       <use xlink:href="#m5e7a79da8c" x="184.074339" y="471.035625" style="stroke: #000000; stroke-width: 1.25"/>
      </g>
     </g>
     <g id="text_2">
      <!-- 0.25 -->
      <g transform="translate(169.478636 491.272344) scale(0.15 -0.15)">
       <defs>
        <path id="ArialMT-32" d="M 3222 541 
L 3222 0 
L 194 0 
Q 188 203 259 391 
Q 375 700 629 1000 
Q 884 1300 1366 1694 
Q 2113 2306 2375 2664 
Q 2638 3022 2638 3341 
Q 2638 3675 2398 3904 
Q 2159 4134 1775 4134 
Q 1369 4134 1125 3890 
Q 881 3647 878 3216 
L 300 3275 
Q 359 3922 746 4261 
Q 1134 4600 1788 4600 
Q 2447 4600 2831 4234 
Q 3216 3869 3216 3328 
Q 3216 3053 3103 2787 
Q 2991 2522 2730 2228 
Q 2469 1934 1863 1422 
Q 1356 997 1212 845 
Q 1069 694 975 541 
L 3222 541 
z
" transform="scale(0.015625)"/>
        <path id="ArialMT-35" d="M 266 1200 
L 856 1250 
Q 922 819 1161 601 
Q 1400 384 1738 384 
Q 2144 384 2425 690 
Q 2706 997 2706 1503 
Q 2706 1984 2436 2262 
Q 2166 2541 1728 2541 
Q 1456 2541 1237 2417 
Q 1019 2294 894 2097 
L 366 2166 
L 809 4519 
L 3088 4519 
L 3088 3981 
L 1259 3981 
L 1013 2750 
Q 1425 3038 1878 3038 
Q 2478 3038 2890 2622 
Q 3303 2206 3303 1553 
Q 3303 931 2941 478 
Q 2500 -78 1738 -78 
Q 1113 -78 717 272 
Q 322 622 266 1200 
z
" transform="scale(0.015625)"/>
       </defs>
       <use xlink:href="#ArialMT-30"/>
       <use xlink:href="#ArialMT-2e" x="55.615234"/>
       <use xlink:href="#ArialMT-32" x="83.398438"/>
       <use xlink:href="#ArialMT-35" x="139.013672"/>
      </g>
     </g>
    </g>
    <g id="xtick_3">
     <g id="line2d_5">
      <path d="M 291.382031 471.035625 
L 291.382031 27.515625 
" clip-path="url(#p4dc30a0bf0)" style="fill: none; stroke: #ffffff; stroke-linecap: round"/>
     </g>
     <g id="line2d_6">
      <g>
       <use xlink:href="#m5e7a79da8c" x="291.382031" y="471.035625" style="stroke: #000000; stroke-width: 1.25"/>
      </g>
     </g>
     <g id="text_3">
      <!-- 0.50 -->
      <g transform="translate(276.786328 491.272344) scale(0.15 -0.15)">
       <use xlink:href="#ArialMT-30"/>
       <use xlink:href="#ArialMT-2e" x="55.615234"/>
       <use xlink:href="#ArialMT-35" x="83.398438"/>
       <use xlink:href="#ArialMT-30" x="139.013672"/>
      </g>
     </g>
    </g>
    <g id="xtick_4">
     <g id="line2d_7">
      <path d="M 398.689724 471.035625 
L 398.689724 27.515625 
" clip-path="url(#p4dc30a0bf0)" style="fill: none; stroke: #ffffff; stroke-linecap: round"/>
     </g>
     <g id="line2d_8">
      <g>
       <use xlink:href="#m5e7a79da8c" x="398.689724" y="471.035625" style="stroke: #000000; stroke-width: 1.25"/>
      </g>
     </g>
     <g id="text_4">
      <!-- 0.75 -->
      <g transform="translate(384.09402 491.272344) scale(0.15 -0.15)">
       <defs>
        <path id="ArialMT-37" d="M 303 3981 
L 303 4522 
L 3269 4522 
L 3269 4084 
Q 2831 3619 2401 2847 
Q 1972 2075 1738 1259 
Q 1569 684 1522 0 
L 944 0 
Q 953 541 1156 1306 
Q 1359 2072 1739 2783 
Q 2119 3494 2547 3981 
L 303 3981 
z
" transform="scale(0.015625)"/>
       </defs>
       <use xlink:href="#ArialMT-30"/>
       <use xlink:href="#ArialMT-2e" x="55.615234"/>
       <use xlink:href="#ArialMT-37" x="83.398438"/>
       <use xlink:href="#ArialMT-35" x="139.013672"/>
      </g>
     </g>
    </g>
    <g id="xtick_5">
     <g id="line2d_9">
      <path d="M 505.997416 471.035625 
L 505.997416 27.515625 
" clip-path="url(#p4dc30a0bf0)" style="fill: none; stroke: #ffffff; stroke-linecap: round"/>
     </g>
     <g id="line2d_10">
      <g>
       <use xlink:href="#m5e7a79da8c" x="505.997416" y="471.035625" style="stroke: #000000; stroke-width: 1.25"/>
      </g>
     </g>
     <g id="text_5">
      <!-- 1.00 -->
      <g transform="translate(491.401713 491.272344) scale(0.15 -0.15)">
       <defs>
        <path id="ArialMT-31" d="M 2384 0 
L 1822 0 
L 1822 3584 
Q 1619 3391 1289 3197 
Q 959 3003 697 2906 
L 697 3450 
Q 1169 3672 1522 3987 
Q 1875 4303 2022 4600 
L 2384 4600 
L 2384 0 
z
" transform="scale(0.015625)"/>
       </defs>
       <use xlink:href="#ArialMT-31"/>
       <use xlink:href="#ArialMT-2e" x="55.615234"/>
       <use xlink:href="#ArialMT-30" x="83.398438"/>
       <use xlink:href="#ArialMT-30" x="139.013672"/>
      </g>
     </g>
    </g>
    <g id="text_6">
     <!-- Normalized Experimental RLU -->
     <g transform="translate(156.896094 512.569219) scale(0.2 -0.2)">
      <defs>
       <path id="ArialMT-4e" d="M 488 0 
L 488 4581 
L 1109 4581 
L 3516 984 
L 3516 4581 
L 4097 4581 
L 4097 0 
L 3475 0 
L 1069 3600 
L 1069 0 
L 488 0 
z
" transform="scale(0.015625)"/>
       <path id="ArialMT-6f" d="M 213 1659 
Q 213 2581 725 3025 
Q 1153 3394 1769 3394 
Q 2453 3394 2887 2945 
Q 3322 2497 3322 1706 
Q 3322 1066 3130 698 
Q 2938 331 2570 128 
Q 2203 -75 1769 -75 
Q 1072 -75 642 372 
Q 213 819 213 1659 
z
M 791 1659 
Q 791 1022 1069 705 
Q 1347 388 1769 388 
Q 2188 388 2466 706 
Q 2744 1025 2744 1678 
Q 2744 2294 2464 2611 
Q 2184 2928 1769 2928 
Q 1347 2928 1069 2612 
Q 791 2297 791 1659 
z
" transform="scale(0.015625)"/>
       <path id="ArialMT-72" d="M 416 0 
L 416 3319 
L 922 3319 
L 922 2816 
Q 1116 3169 1280 3281 
Q 1444 3394 1641 3394 
Q 1925 3394 2219 3213 
L 2025 2691 
Q 1819 2813 1613 2813 
Q 1428 2813 1281 2702 
Q 1134 2591 1072 2394 
Q 978 2094 978 1738 
L 978 0 
L 416 0 
z
" transform="scale(0.015625)"/>
       <path id="ArialMT-6d" d="M 422 0 
L 422 3319 
L 925 3319 
L 925 2853 
Q 1081 3097 1340 3245 
Q 1600 3394 1931 3394 
Q 2300 3394 2536 3241 
Q 2772 3088 2869 2813 
Q 3263 3394 3894 3394 
Q 4388 3394 4653 3120 
Q 4919 2847 4919 2278 
L 4919 0 
L 4359 0 
L 4359 2091 
Q 4359 2428 4304 2576 
Q 4250 2725 4106 2815 
Q 3963 2906 3769 2906 
Q 3419 2906 3187 2673 
Q 2956 2441 2956 1928 
L 2956 0 
L 2394 0 
L 2394 2156 
Q 2394 2531 2256 2718 
Q 2119 2906 1806 2906 
Q 1569 2906 1367 2781 
Q 1166 2656 1075 2415 
Q 984 2175 984 1722 
L 984 0 
L 422 0 
z
" transform="scale(0.015625)"/>
       <path id="ArialMT-61" d="M 2588 409 
Q 2275 144 1986 34 
Q 1697 -75 1366 -75 
Q 819 -75 525 192 
Q 231 459 231 875 
Q 231 1119 342 1320 
Q 453 1522 633 1644 
Q 813 1766 1038 1828 
Q 1203 1872 1538 1913 
Q 2219 1994 2541 2106 
Q 2544 2222 2544 2253 
Q 2544 2597 2384 2738 
Q 2169 2928 1744 2928 
Q 1347 2928 1158 2789 
Q 969 2650 878 2297 
L 328 2372 
Q 403 2725 575 2942 
Q 747 3159 1072 3276 
Q 1397 3394 1825 3394 
Q 2250 3394 2515 3294 
Q 2781 3194 2906 3042 
Q 3031 2891 3081 2659 
Q 3109 2516 3109 2141 
L 3109 1391 
Q 3109 606 3145 398 
Q 3181 191 3288 0 
L 2700 0 
Q 2613 175 2588 409 
z
M 2541 1666 
Q 2234 1541 1622 1453 
Q 1275 1403 1131 1340 
Q 988 1278 909 1158 
Q 831 1038 831 891 
Q 831 666 1001 516 
Q 1172 366 1500 366 
Q 1825 366 2078 508 
Q 2331 650 2450 897 
Q 2541 1088 2541 1459 
L 2541 1666 
z
" transform="scale(0.015625)"/>
       <path id="ArialMT-6c" d="M 409 0 
L 409 4581 
L 972 4581 
L 972 0 
L 409 0 
z
" transform="scale(0.015625)"/>
       <path id="ArialMT-69" d="M 425 3934 
L 425 4581 
L 988 4581 
L 988 3934 
L 425 3934 
z
M 425 0 
L 425 3319 
L 988 3319 
L 988 0 
L 425 0 
z
" transform="scale(0.015625)"/>
       <path id="ArialMT-7a" d="M 125 0 
L 125 456 
L 2238 2881 
Q 1878 2863 1603 2863 
L 250 2863 
L 250 3319 
L 2963 3319 
L 2963 2947 
L 1166 841 
L 819 456 
Q 1197 484 1528 484 
L 3063 484 
L 3063 0 
L 125 0 
z
" transform="scale(0.015625)"/>
       <path id="ArialMT-65" d="M 2694 1069 
L 3275 997 
Q 3138 488 2766 206 
Q 2394 -75 1816 -75 
Q 1088 -75 661 373 
Q 234 822 234 1631 
Q 234 2469 665 2931 
Q 1097 3394 1784 3394 
Q 2450 3394 2872 2941 
Q 3294 2488 3294 1666 
Q 3294 1616 3291 1516 
L 816 1516 
Q 847 969 1125 678 
Q 1403 388 1819 388 
Q 2128 388 2347 550 
Q 2566 713 2694 1069 
z
M 847 1978 
L 2700 1978 
Q 2663 2397 2488 2606 
Q 2219 2931 1791 2931 
Q 1403 2931 1139 2672 
Q 875 2413 847 1978 
z
" transform="scale(0.015625)"/>
       <path id="ArialMT-64" d="M 2575 0 
L 2575 419 
Q 2259 -75 1647 -75 
Q 1250 -75 917 144 
Q 584 363 401 755 
Q 219 1147 219 1656 
Q 219 2153 384 2558 
Q 550 2963 881 3178 
Q 1213 3394 1622 3394 
Q 1922 3394 2156 3267 
Q 2391 3141 2538 2938 
L 2538 4581 
L 3097 4581 
L 3097 0 
L 2575 0 
z
M 797 1656 
Q 797 1019 1065 703 
Q 1334 388 1700 388 
Q 2069 388 2326 689 
Q 2584 991 2584 1609 
Q 2584 2291 2321 2609 
Q 2059 2928 1675 2928 
Q 1300 2928 1048 2622 
Q 797 2316 797 1656 
z
" transform="scale(0.015625)"/>
       <path id="ArialMT-20" transform="scale(0.015625)"/>
       <path id="ArialMT-45" d="M 506 0 
L 506 4581 
L 3819 4581 
L 3819 4041 
L 1113 4041 
L 1113 2638 
L 3647 2638 
L 3647 2100 
L 1113 2100 
L 1113 541 
L 3925 541 
L 3925 0 
L 506 0 
z
" transform="scale(0.015625)"/>
       <path id="ArialMT-78" d="M 47 0 
L 1259 1725 
L 138 3319 
L 841 3319 
L 1350 2541 
Q 1494 2319 1581 2169 
Q 1719 2375 1834 2534 
L 2394 3319 
L 3066 3319 
L 1919 1756 
L 3153 0 
L 2463 0 
L 1781 1031 
L 1600 1309 
L 728 0 
L 47 0 
z
" transform="scale(0.015625)"/>
       <path id="ArialMT-70" d="M 422 -1272 
L 422 3319 
L 934 3319 
L 934 2888 
Q 1116 3141 1344 3267 
Q 1572 3394 1897 3394 
Q 2322 3394 2647 3175 
Q 2972 2956 3137 2557 
Q 3303 2159 3303 1684 
Q 3303 1175 3120 767 
Q 2938 359 2589 142 
Q 2241 -75 1856 -75 
Q 1575 -75 1351 44 
Q 1128 163 984 344 
L 984 -1272 
L 422 -1272 
z
M 931 1641 
Q 931 1000 1190 694 
Q 1450 388 1819 388 
Q 2194 388 2461 705 
Q 2728 1022 2728 1688 
Q 2728 2322 2467 2637 
Q 2206 2953 1844 2953 
Q 1484 2953 1207 2617 
Q 931 2281 931 1641 
z
" transform="scale(0.015625)"/>
       <path id="ArialMT-6e" d="M 422 0 
L 422 3319 
L 928 3319 
L 928 2847 
Q 1294 3394 1984 3394 
Q 2284 3394 2536 3286 
Q 2788 3178 2913 3003 
Q 3038 2828 3088 2588 
Q 3119 2431 3119 2041 
L 3119 0 
L 2556 0 
L 2556 2019 
Q 2556 2363 2490 2533 
Q 2425 2703 2258 2804 
Q 2091 2906 1866 2906 
Q 1506 2906 1245 2678 
Q 984 2450 984 1813 
L 984 0 
L 422 0 
z
" transform="scale(0.015625)"/>
       <path id="ArialMT-74" d="M 1650 503 
L 1731 6 
Q 1494 -44 1306 -44 
Q 1000 -44 831 53 
Q 663 150 594 308 
Q 525 466 525 972 
L 525 2881 
L 113 2881 
L 113 3319 
L 525 3319 
L 525 4141 
L 1084 4478 
L 1084 3319 
L 1650 3319 
L 1650 2881 
L 1084 2881 
L 1084 941 
Q 1084 700 1114 631 
Q 1144 563 1211 522 
Q 1278 481 1403 481 
Q 1497 481 1650 503 
z
" transform="scale(0.015625)"/>
       <path id="ArialMT-52" d="M 503 0 
L 503 4581 
L 2534 4581 
Q 3147 4581 3465 4457 
Q 3784 4334 3975 4021 
Q 4166 3709 4166 3331 
Q 4166 2844 3850 2509 
Q 3534 2175 2875 2084 
Q 3116 1969 3241 1856 
Q 3506 1613 3744 1247 
L 4541 0 
L 3778 0 
L 3172 953 
Q 2906 1366 2734 1584 
Q 2563 1803 2427 1890 
Q 2291 1978 2150 2013 
Q 2047 2034 1813 2034 
L 1109 2034 
L 1109 0 
L 503 0 
z
M 1109 2559 
L 2413 2559 
Q 2828 2559 3062 2645 
Q 3297 2731 3419 2920 
Q 3541 3109 3541 3331 
Q 3541 3656 3305 3865 
Q 3069 4075 2559 4075 
L 1109 4075 
L 1109 2559 
z
" transform="scale(0.015625)"/>
       <path id="ArialMT-4c" d="M 469 0 
L 469 4581 
L 1075 4581 
L 1075 541 
L 3331 541 
L 3331 0 
L 469 0 
z
" transform="scale(0.015625)"/>
       <path id="ArialMT-55" d="M 3500 4581 
L 4106 4581 
L 4106 1934 
Q 4106 1244 3950 837 
Q 3794 431 3386 176 
Q 2978 -78 2316 -78 
Q 1672 -78 1262 144 
Q 853 366 678 786 
Q 503 1206 503 1934 
L 503 4581 
L 1109 4581 
L 1109 1938 
Q 1109 1341 1220 1058 
Q 1331 775 1601 622 
Q 1872 469 2263 469 
Q 2931 469 3215 772 
Q 3500 1075 3500 1938 
L 3500 4581 
z
" transform="scale(0.015625)"/>
      </defs>
      <use xlink:href="#ArialMT-4e"/>
      <use xlink:href="#ArialMT-6f" x="72.216797"/>
      <use xlink:href="#ArialMT-72" x="127.832031"/>
      <use xlink:href="#ArialMT-6d" x="161.132812"/>
      <use xlink:href="#ArialMT-61" x="244.433594"/>
      <use xlink:href="#ArialMT-6c" x="300.048828"/>
      <use xlink:href="#ArialMT-69" x="322.265625"/>
      <use xlink:href="#ArialMT-7a" x="344.482422"/>
      <use xlink:href="#ArialMT-65" x="394.482422"/>
      <use xlink:href="#ArialMT-64" x="450.097656"/>
      <use xlink:href="#ArialMT-20" x="505.712891"/>
      <use xlink:href="#ArialMT-45" x="533.496094"/>
      <use xlink:href="#ArialMT-78" x="600.195312"/>
      <use xlink:href="#ArialMT-70" x="650.195312"/>
      <use xlink:href="#ArialMT-65" x="705.810547"/>
      <use xlink:href="#ArialMT-72" x="761.425781"/>
      <use xlink:href="#ArialMT-69" x="794.726562"/>
      <use xlink:href="#ArialMT-6d" x="816.943359"/>
      <use xlink:href="#ArialMT-65" x="900.244141"/>
      <use xlink:href="#ArialMT-6e" x="955.859375"/>
      <use xlink:href="#ArialMT-74" x="1011.474609"/>
      <use xlink:href="#ArialMT-61" x="1039.257812"/>
      <use xlink:href="#ArialMT-6c" x="1094.873047"/>
      <use xlink:href="#ArialMT-20" x="1117.089844"/>
      <use xlink:href="#ArialMT-52" x="1144.873047"/>
      <use xlink:href="#ArialMT-4c" x="1217.089844"/>
      <use xlink:href="#ArialMT-55" x="1272.705078"/>
     </g>
    </g>
   </g>
   <g id="matplotlib.axis_2">
    <g id="ytick_1">
     <g id="line2d_11">
      <path d="M 68.182031 462.506394 
L 514.582031 462.506394 
" clip-path="url(#p4dc30a0bf0)" style="fill: none; stroke: #ffffff; stroke-linecap: round"/>
     </g>
     <g id="line2d_12">
      <defs>
       <path id="mbfd35e63ca" d="M 0 0 
L -6 0 
" style="stroke: #000000; stroke-width: 1.25"/>
      </defs>
      <g>
       <use xlink:href="#mbfd35e63ca" x="68.182031" y="462.506394" style="stroke: #000000; stroke-width: 1.25"/>
      </g>
     </g>
     <g id="text_7">
      <!-- 0.00 -->
      <g transform="translate(29.490625 467.874754) scale(0.15 -0.15)">
       <use xlink:href="#ArialMT-30"/>
       <use xlink:href="#ArialMT-2e" x="55.615234"/>
       <use xlink:href="#ArialMT-30" x="83.398438"/>
       <use xlink:href="#ArialMT-30" x="139.013672"/>
      </g>
     </g>
    </g>
    <g id="ytick_2">
     <g id="line2d_13">
      <path d="M 68.182031 355.89101 
L 514.582031 355.89101 
" clip-path="url(#p4dc30a0bf0)" style="fill: none; stroke: #ffffff; stroke-linecap: round"/>
     </g>
     <g id="line2d_14">
      <g>
       <use xlink:href="#mbfd35e63ca" x="68.182031" y="355.89101" style="stroke: #000000; stroke-width: 1.25"/>
      </g>
     </g>
     <g id="text_8">
      <!-- 0.25 -->
      <g transform="translate(29.490625 361.259369) scale(0.15 -0.15)">
       <use xlink:href="#ArialMT-30"/>
       <use xlink:href="#ArialMT-2e" x="55.615234"/>
       <use xlink:href="#ArialMT-32" x="83.398438"/>
       <use xlink:href="#ArialMT-35" x="139.013672"/>
      </g>
     </g>
    </g>
    <g id="ytick_3">
     <g id="line2d_15">
      <path d="M 68.182031 249.275625 
L 514.582031 249.275625 
" clip-path="url(#p4dc30a0bf0)" style="fill: none; stroke: #ffffff; stroke-linecap: round"/>
     </g>
     <g id="line2d_16">
      <g>
       <use xlink:href="#mbfd35e63ca" x="68.182031" y="249.275625" style="stroke: #000000; stroke-width: 1.25"/>
      </g>
     </g>
     <g id="text_9">
      <!-- 0.50 -->
      <g transform="translate(29.490625 254.643984) scale(0.15 -0.15)">
       <use xlink:href="#ArialMT-30"/>
       <use xlink:href="#ArialMT-2e" x="55.615234"/>
       <use xlink:href="#ArialMT-35" x="83.398438"/>
       <use xlink:href="#ArialMT-30" x="139.013672"/>
      </g>
     </g>
    </g>
    <g id="ytick_4">
     <g id="line2d_17">
      <path d="M 68.182031 142.66024 
L 514.582031 142.66024 
" clip-path="url(#p4dc30a0bf0)" style="fill: none; stroke: #ffffff; stroke-linecap: round"/>
     </g>
     <g id="line2d_18">
      <g>
       <use xlink:href="#mbfd35e63ca" x="68.182031" y="142.66024" style="stroke: #000000; stroke-width: 1.25"/>
      </g>
     </g>
     <g id="text_10">
      <!-- 0.75 -->
      <g transform="translate(29.490625 148.0286) scale(0.15 -0.15)">
       <use xlink:href="#ArialMT-30"/>
       <use xlink:href="#ArialMT-2e" x="55.615234"/>
       <use xlink:href="#ArialMT-37" x="83.398438"/>
       <use xlink:href="#ArialMT-35" x="139.013672"/>
      </g>
     </g>
    </g>
    <g id="ytick_5">
     <g id="line2d_19">
      <path d="M 68.182031 36.044856 
L 514.582031 36.044856 
" clip-path="url(#p4dc30a0bf0)" style="fill: none; stroke: #ffffff; stroke-linecap: round"/>
     </g>
     <g id="line2d_20">
      <g>
       <use xlink:href="#mbfd35e63ca" x="68.182031" y="36.044856" style="stroke: #000000; stroke-width: 1.25"/>
      </g>
     </g>
     <g id="text_11">
      <!-- 1.00 -->
      <g transform="translate(29.490625 41.413215) scale(0.15 -0.15)">
       <use xlink:href="#ArialMT-31"/>
       <use xlink:href="#ArialMT-2e" x="55.615234"/>
       <use xlink:href="#ArialMT-30" x="83.398438"/>
       <use xlink:href="#ArialMT-30" x="139.013672"/>
      </g>
     </g>
    </g>
    <g id="text_12">
     <!-- Normalized Predicted RLU -->
     <g transform="translate(21.515625 367.649063) rotate(-90) scale(0.2 -0.2)">
      <defs>
       <path id="ArialMT-50" d="M 494 0 
L 494 4581 
L 2222 4581 
Q 2678 4581 2919 4538 
Q 3256 4481 3484 4323 
Q 3713 4166 3852 3881 
Q 3991 3597 3991 3256 
Q 3991 2672 3619 2267 
Q 3247 1863 2275 1863 
L 1100 1863 
L 1100 0 
L 494 0 
z
M 1100 2403 
L 2284 2403 
Q 2872 2403 3119 2622 
Q 3366 2841 3366 3238 
Q 3366 3525 3220 3729 
Q 3075 3934 2838 4000 
Q 2684 4041 2272 4041 
L 1100 4041 
L 1100 2403 
z
" transform="scale(0.015625)"/>
       <path id="ArialMT-63" d="M 2588 1216 
L 3141 1144 
Q 3050 572 2676 248 
Q 2303 -75 1759 -75 
Q 1078 -75 664 370 
Q 250 816 250 1647 
Q 250 2184 428 2587 
Q 606 2991 970 3192 
Q 1334 3394 1763 3394 
Q 2303 3394 2647 3120 
Q 2991 2847 3088 2344 
L 2541 2259 
Q 2463 2594 2264 2762 
Q 2066 2931 1784 2931 
Q 1359 2931 1093 2626 
Q 828 2322 828 1663 
Q 828 994 1084 691 
Q 1341 388 1753 388 
Q 2084 388 2306 591 
Q 2528 794 2588 1216 
z
" transform="scale(0.015625)"/>
      </defs>
      <use xlink:href="#ArialMT-4e"/>
      <use xlink:href="#ArialMT-6f" x="72.216797"/>
      <use xlink:href="#ArialMT-72" x="127.832031"/>
      <use xlink:href="#ArialMT-6d" x="161.132812"/>
      <use xlink:href="#ArialMT-61" x="244.433594"/>
      <use xlink:href="#ArialMT-6c" x="300.048828"/>
      <use xlink:href="#ArialMT-69" x="322.265625"/>
      <use xlink:href="#ArialMT-7a" x="344.482422"/>
      <use xlink:href="#ArialMT-65" x="394.482422"/>
      <use xlink:href="#ArialMT-64" x="450.097656"/>
      <use xlink:href="#ArialMT-20" x="505.712891"/>
      <use xlink:href="#ArialMT-50" x="533.496094"/>
      <use xlink:href="#ArialMT-72" x="600.195312"/>
      <use xlink:href="#ArialMT-65" x="633.496094"/>
      <use xlink:href="#ArialMT-64" x="689.111328"/>
      <use xlink:href="#ArialMT-69" x="744.726562"/>
      <use xlink:href="#ArialMT-63" x="766.943359"/>
      <use xlink:href="#ArialMT-74" x="816.943359"/>
      <use xlink:href="#ArialMT-65" x="844.726562"/>
      <use xlink:href="#ArialMT-64" x="900.341797"/>
      <use xlink:href="#ArialMT-20" x="955.957031"/>
      <use xlink:href="#ArialMT-52" x="983.740234"/>
      <use xlink:href="#ArialMT-4c" x="1055.957031"/>
      <use xlink:href="#ArialMT-55" x="1111.572266"/>
     </g>
    </g>
   </g>
   <g id="PathCollection_1">
    <defs>
     <path id="me2488e8c31" d="M 0 3 
C 0.795609 3 1.55874 2.683901 2.12132 2.12132 
C 2.683901 1.55874 3 0.795609 3 0 
C 3 -0.795609 2.683901 -1.55874 2.12132 -2.12132 
C 1.55874 -2.683901 0.795609 -3 0 -3 
C -0.795609 -3 -1.55874 -2.683901 -2.12132 -2.12132 
C -2.683901 -1.55874 -3 -0.795609 -3 0 
C -3 0.795609 -2.683901 1.55874 -2.12132 2.12132 
C -1.55874 2.683901 -0.795609 3 0 3 
z
" style="stroke: #1a1a1a; stroke-opacity: 0.8"/>
    </defs>
    <g clip-path="url(#p4dc30a0bf0)">
     <use xlink:href="#me2488e8c31" x="76.766647" y="455.901034" style="fill: #1a1a1a; fill-opacity: 0.8; stroke: #1a1a1a; stroke-opacity: 0.8"/>
     <use xlink:href="#me2488e8c31" x="76.766647" y="447.670523" style="fill: #1a1a1a; fill-opacity: 0.8; stroke: #1a1a1a; stroke-opacity: 0.8"/>
     <use xlink:href="#me2488e8c31" x="76.766647" y="457.12535" style="fill: #1a1a1a; fill-opacity: 0.8; stroke: #1a1a1a; stroke-opacity: 0.8"/>
     <use xlink:href="#me2488e8c31" x="76.766647" y="467.411495" style="fill: #1a1a1a; fill-opacity: 0.8; stroke: #1a1a1a; stroke-opacity: 0.8"/>
     <use xlink:href="#me2488e8c31" x="76.766647" y="462.97966" style="fill: #1a1a1a; fill-opacity: 0.8; stroke: #1a1a1a; stroke-opacity: 0.8"/>
     <use xlink:href="#me2488e8c31" x="76.766647" y="458.026546" style="fill: #1a1a1a; fill-opacity: 0.8; stroke: #1a1a1a; stroke-opacity: 0.8"/>
     <use xlink:href="#me2488e8c31" x="76.766647" y="465.103985" style="fill: #1a1a1a; fill-opacity: 0.8; stroke: #1a1a1a; stroke-opacity: 0.8"/>
     <use xlink:href="#me2488e8c31" x="76.766647" y="461.341127" style="fill: #1a1a1a; fill-opacity: 0.8; stroke: #1a1a1a; stroke-opacity: 0.8"/>
     <use xlink:href="#me2488e8c31" x="76.766647" y="462.416555" style="fill: #1a1a1a; fill-opacity: 0.8; stroke: #1a1a1a; stroke-opacity: 0.8"/>
     <use xlink:href="#me2488e8c31" x="76.766647" y="459.580148" style="fill: #1a1a1a; fill-opacity: 0.8; stroke: #1a1a1a; stroke-opacity: 0.8"/>
     <use xlink:href="#me2488e8c31" x="76.766647" y="440.852629" style="fill: #1a1a1a; fill-opacity: 0.8; stroke: #1a1a1a; stroke-opacity: 0.8"/>
     <use xlink:href="#me2488e8c31" x="76.766647" y="465.673981" style="fill: #1a1a1a; fill-opacity: 0.8; stroke: #1a1a1a; stroke-opacity: 0.8"/>
     <use xlink:href="#me2488e8c31" x="76.766647" y="451.285977" style="fill: #1a1a1a; fill-opacity: 0.8; stroke: #1a1a1a; stroke-opacity: 0.8"/>
     <use xlink:href="#me2488e8c31" x="76.766647" y="457.216894" style="fill: #1a1a1a; fill-opacity: 0.8; stroke: #1a1a1a; stroke-opacity: 0.8"/>
     <use xlink:href="#me2488e8c31" x="76.766647" y="462.587233" style="fill: #1a1a1a; fill-opacity: 0.8; stroke: #1a1a1a; stroke-opacity: 0.8"/>
     <use xlink:href="#me2488e8c31" x="76.766647" y="457.549629" style="fill: #1a1a1a; fill-opacity: 0.8; stroke: #1a1a1a; stroke-opacity: 0.8"/>
     <use xlink:href="#me2488e8c31" x="76.766647" y="460.948203" style="fill: #1a1a1a; fill-opacity: 0.8; stroke: #1a1a1a; stroke-opacity: 0.8"/>
     <use xlink:href="#me2488e8c31" x="76.766647" y="455.621178" style="fill: #1a1a1a; fill-opacity: 0.8; stroke: #1a1a1a; stroke-opacity: 0.8"/>
     <use xlink:href="#me2488e8c31" x="76.766647" y="463.568645" style="fill: #1a1a1a; fill-opacity: 0.8; stroke: #1a1a1a; stroke-opacity: 0.8"/>
     <use xlink:href="#me2488e8c31" x="76.766647" y="458.896602" style="fill: #1a1a1a; fill-opacity: 0.8; stroke: #1a1a1a; stroke-opacity: 0.8"/>
     <use xlink:href="#me2488e8c31" x="76.766647" y="471.411131" style="fill: #1a1a1a; fill-opacity: 0.8; stroke: #1a1a1a; stroke-opacity: 0.8"/>
     <use xlink:href="#me2488e8c31" x="76.766647" y="463.914104" style="fill: #1a1a1a; fill-opacity: 0.8; stroke: #1a1a1a; stroke-opacity: 0.8"/>
     <use xlink:href="#me2488e8c31" x="76.766647" y="460.176279" style="fill: #1a1a1a; fill-opacity: 0.8; stroke: #1a1a1a; stroke-opacity: 0.8"/>
     <use xlink:href="#me2488e8c31" x="76.766647" y="464.99384" style="fill: #1a1a1a; fill-opacity: 0.8; stroke: #1a1a1a; stroke-opacity: 0.8"/>
     <use xlink:href="#me2488e8c31" x="76.766647" y="456.430202" style="fill: #1a1a1a; fill-opacity: 0.8; stroke: #1a1a1a; stroke-opacity: 0.8"/>
     <use xlink:href="#me2488e8c31" x="76.766647" y="461.009884" style="fill: #1a1a1a; fill-opacity: 0.8; stroke: #1a1a1a; stroke-opacity: 0.8"/>
     <use xlink:href="#me2488e8c31" x="76.766647" y="467.815166" style="fill: #1a1a1a; fill-opacity: 0.8; stroke: #1a1a1a; stroke-opacity: 0.8"/>
     <use xlink:href="#me2488e8c31" x="76.766647" y="464.969221" style="fill: #1a1a1a; fill-opacity: 0.8; stroke: #1a1a1a; stroke-opacity: 0.8"/>
     <use xlink:href="#me2488e8c31" x="76.766647" y="446.813744" style="fill: #1a1a1a; fill-opacity: 0.8; stroke: #1a1a1a; stroke-opacity: 0.8"/>
     <use xlink:href="#me2488e8c31" x="76.766647" y="444.757579" style="fill: #1a1a1a; fill-opacity: 0.8; stroke: #1a1a1a; stroke-opacity: 0.8"/>
     <use xlink:href="#me2488e8c31" x="76.766647" y="453.570989" style="fill: #1a1a1a; fill-opacity: 0.8; stroke: #1a1a1a; stroke-opacity: 0.8"/>
     <use xlink:href="#me2488e8c31" x="76.766647" y="470.579822" style="fill: #1a1a1a; fill-opacity: 0.8; stroke: #1a1a1a; stroke-opacity: 0.8"/>
     <use xlink:href="#me2488e8c31" x="76.766647" y="453.658792" style="fill: #1a1a1a; fill-opacity: 0.8; stroke: #1a1a1a; stroke-opacity: 0.8"/>
     <use xlink:href="#me2488e8c31" x="76.766647" y="437.225578" style="fill: #1a1a1a; fill-opacity: 0.8; stroke: #1a1a1a; stroke-opacity: 0.8"/>
     <use xlink:href="#me2488e8c31" x="76.766647" y="445.052927" style="fill: #1a1a1a; fill-opacity: 0.8; stroke: #1a1a1a; stroke-opacity: 0.8"/>
     <use xlink:href="#me2488e8c31" x="76.766647" y="460.155112" style="fill: #1a1a1a; fill-opacity: 0.8; stroke: #1a1a1a; stroke-opacity: 0.8"/>
     <use xlink:href="#me2488e8c31" x="76.766647" y="468.318195" style="fill: #1a1a1a; fill-opacity: 0.8; stroke: #1a1a1a; stroke-opacity: 0.8"/>
     <use xlink:href="#me2488e8c31" x="76.766647" y="442.808215" style="fill: #1a1a1a; fill-opacity: 0.8; stroke: #1a1a1a; stroke-opacity: 0.8"/>
     <use xlink:href="#me2488e8c31" x="102.030964" y="435.999748" style="fill: #1a1a1a; fill-opacity: 0.8; stroke: #1a1a1a; stroke-opacity: 0.8"/>
     <use xlink:href="#me2488e8c31" x="76.766647" y="438.177905" style="fill: #1a1a1a; fill-opacity: 0.8; stroke: #1a1a1a; stroke-opacity: 0.8"/>
     <use xlink:href="#me2488e8c31" x="92.313919" y="461.171238" style="fill: #1a1a1a; fill-opacity: 0.8; stroke: #1a1a1a; stroke-opacity: 0.8"/>
     <use xlink:href="#me2488e8c31" x="218.950652" y="371.54594" style="fill: #1a1a1a; fill-opacity: 0.8; stroke: #1a1a1a; stroke-opacity: 0.8"/>
     <use xlink:href="#me2488e8c31" x="99.562309" y="453.718692" style="fill: #1a1a1a; fill-opacity: 0.8; stroke: #1a1a1a; stroke-opacity: 0.8"/>
     <use xlink:href="#me2488e8c31" x="76.766647" y="456.765186" style="fill: #1a1a1a; fill-opacity: 0.8; stroke: #1a1a1a; stroke-opacity: 0.8"/>
     <use xlink:href="#me2488e8c31" x="76.766647" y="458.518986" style="fill: #1a1a1a; fill-opacity: 0.8; stroke: #1a1a1a; stroke-opacity: 0.8"/>
     <use xlink:href="#me2488e8c31" x="76.766647" y="435.115042" style="fill: #1a1a1a; fill-opacity: 0.8; stroke: #1a1a1a; stroke-opacity: 0.8"/>
     <use xlink:href="#me2488e8c31" x="96.936081" y="397.382098" style="fill: #1a1a1a; fill-opacity: 0.8; stroke: #1a1a1a; stroke-opacity: 0.8"/>
     <use xlink:href="#me2488e8c31" x="117.945908" y="352.44366" style="fill: #1a1a1a; fill-opacity: 0.8; stroke: #1a1a1a; stroke-opacity: 0.8"/>
     <use xlink:href="#me2488e8c31" x="225.726321" y="412.125494" style="fill: #1a1a1a; fill-opacity: 0.8; stroke: #1a1a1a; stroke-opacity: 0.8"/>
     <use xlink:href="#me2488e8c31" x="121.412529" y="352.554246" style="fill: #1a1a1a; fill-opacity: 0.8; stroke: #1a1a1a; stroke-opacity: 0.8"/>
     <use xlink:href="#me2488e8c31" x="209.706328" y="290.341891" style="fill: #1a1a1a; fill-opacity: 0.8; stroke: #1a1a1a; stroke-opacity: 0.8"/>
     <use xlink:href="#me2488e8c31" x="161.593824" y="399.772128" style="fill: #1a1a1a; fill-opacity: 0.8; stroke: #1a1a1a; stroke-opacity: 0.8"/>
     <use xlink:href="#me2488e8c31" x="76.766647" y="371.025408" style="fill: #1a1a1a; fill-opacity: 0.8; stroke: #1a1a1a; stroke-opacity: 0.8"/>
     <use xlink:href="#me2488e8c31" x="76.766647" y="382.217985" style="fill: #1a1a1a; fill-opacity: 0.8; stroke: #1a1a1a; stroke-opacity: 0.8"/>
     <use xlink:href="#me2488e8c31" x="165.375593" y="363.125333" style="fill: #1a1a1a; fill-opacity: 0.8; stroke: #1a1a1a; stroke-opacity: 0.8"/>
     <use xlink:href="#me2488e8c31" x="250.517917" y="353.082378" style="fill: #1a1a1a; fill-opacity: 0.8; stroke: #1a1a1a; stroke-opacity: 0.8"/>
     <use xlink:href="#me2488e8c31" x="235.390842" y="260.517535" style="fill: #1a1a1a; fill-opacity: 0.8; stroke: #1a1a1a; stroke-opacity: 0.8"/>
     <use xlink:href="#me2488e8c31" x="76.766647" y="456.039043" style="fill: #1a1a1a; fill-opacity: 0.8; stroke: #1a1a1a; stroke-opacity: 0.8"/>
     <use xlink:href="#me2488e8c31" x="76.766647" y="467.173786" style="fill: #1a1a1a; fill-opacity: 0.8; stroke: #1a1a1a; stroke-opacity: 0.8"/>
     <use xlink:href="#me2488e8c31" x="76.766647" y="452.773987" style="fill: #1a1a1a; fill-opacity: 0.8; stroke: #1a1a1a; stroke-opacity: 0.8"/>
     <use xlink:href="#me2488e8c31" x="76.766647" y="455.404112" style="fill: #1a1a1a; fill-opacity: 0.8; stroke: #1a1a1a; stroke-opacity: 0.8"/>
     <use xlink:href="#me2488e8c31" x="76.766647" y="468.19504" style="fill: #1a1a1a; fill-opacity: 0.8; stroke: #1a1a1a; stroke-opacity: 0.8"/>
     <use xlink:href="#me2488e8c31" x="76.766647" y="456.639843" style="fill: #1a1a1a; fill-opacity: 0.8; stroke: #1a1a1a; stroke-opacity: 0.8"/>
     <use xlink:href="#me2488e8c31" x="76.766647" y="466.696598" style="fill: #1a1a1a; fill-opacity: 0.8; stroke: #1a1a1a; stroke-opacity: 0.8"/>
     <use xlink:href="#me2488e8c31" x="76.766647" y="468.008366" style="fill: #1a1a1a; fill-opacity: 0.8; stroke: #1a1a1a; stroke-opacity: 0.8"/>
     <use xlink:href="#me2488e8c31" x="76.766647" y="460.918591" style="fill: #1a1a1a; fill-opacity: 0.8; stroke: #1a1a1a; stroke-opacity: 0.8"/>
     <use xlink:href="#me2488e8c31" x="76.766647" y="467.928271" style="fill: #1a1a1a; fill-opacity: 0.8; stroke: #1a1a1a; stroke-opacity: 0.8"/>
     <use xlink:href="#me2488e8c31" x="162.644315" y="372.70737" style="fill: #1a1a1a; fill-opacity: 0.8; stroke: #1a1a1a; stroke-opacity: 0.8"/>
     <use xlink:href="#me2488e8c31" x="156.971662" y="426.949579" style="fill: #1a1a1a; fill-opacity: 0.8; stroke: #1a1a1a; stroke-opacity: 0.8"/>
     <use xlink:href="#me2488e8c31" x="163.642282" y="368.127702" style="fill: #1a1a1a; fill-opacity: 0.8; stroke: #1a1a1a; stroke-opacity: 0.8"/>
     <use xlink:href="#me2488e8c31" x="269.846958" y="320.021015" style="fill: #1a1a1a; fill-opacity: 0.8; stroke: #1a1a1a; stroke-opacity: 0.8"/>
     <use xlink:href="#me2488e8c31" x="203.298331" y="316.319755" style="fill: #1a1a1a; fill-opacity: 0.8; stroke: #1a1a1a; stroke-opacity: 0.8"/>
     <use xlink:href="#me2488e8c31" x="261.70565" y="310.674709" style="fill: #1a1a1a; fill-opacity: 0.8; stroke: #1a1a1a; stroke-opacity: 0.8"/>
     <use xlink:href="#me2488e8c31" x="232.344417" y="312.782447" style="fill: #1a1a1a; fill-opacity: 0.8; stroke: #1a1a1a; stroke-opacity: 0.8"/>
     <use xlink:href="#me2488e8c31" x="130.131608" y="421.543002" style="fill: #1a1a1a; fill-opacity: 0.8; stroke: #1a1a1a; stroke-opacity: 0.8"/>
     <use xlink:href="#me2488e8c31" x="246.263427" y="299.155223" style="fill: #1a1a1a; fill-opacity: 0.8; stroke: #1a1a1a; stroke-opacity: 0.8"/>
     <use xlink:href="#me2488e8c31" x="274.626694" y="275.233509" style="fill: #1a1a1a; fill-opacity: 0.8; stroke: #1a1a1a; stroke-opacity: 0.8"/>
     <use xlink:href="#me2488e8c31" x="421.380337" y="199.709038" style="fill: #1a1a1a; fill-opacity: 0.8; stroke: #1a1a1a; stroke-opacity: 0.8"/>
     <use xlink:href="#me2488e8c31" x="446.382031" y="152.843203" style="fill: #1a1a1a; fill-opacity: 0.8; stroke: #1a1a1a; stroke-opacity: 0.8"/>
     <use xlink:href="#me2488e8c31" x="237.386775" y="332.717634" style="fill: #1a1a1a; fill-opacity: 0.8; stroke: #1a1a1a; stroke-opacity: 0.8"/>
     <use xlink:href="#me2488e8c31" x="185.912699" y="359.474046" style="fill: #1a1a1a; fill-opacity: 0.8; stroke: #1a1a1a; stroke-opacity: 0.8"/>
     <use xlink:href="#me2488e8c31" x="190.902533" y="302.94451" style="fill: #1a1a1a; fill-opacity: 0.8; stroke: #1a1a1a; stroke-opacity: 0.8"/>
     <use xlink:href="#me2488e8c31" x="76.766647" y="461.126644" style="fill: #1a1a1a; fill-opacity: 0.8; stroke: #1a1a1a; stroke-opacity: 0.8"/>
     <use xlink:href="#me2488e8c31" x="171.520967" y="360.383579" style="fill: #1a1a1a; fill-opacity: 0.8; stroke: #1a1a1a; stroke-opacity: 0.8"/>
     <use xlink:href="#me2488e8c31" x="76.766647" y="444.411139" style="fill: #1a1a1a; fill-opacity: 0.8; stroke: #1a1a1a; stroke-opacity: 0.8"/>
     <use xlink:href="#me2488e8c31" x="142.317307" y="394.245542" style="fill: #1a1a1a; fill-opacity: 0.8; stroke: #1a1a1a; stroke-opacity: 0.8"/>
     <use xlink:href="#me2488e8c31" x="209.916426" y="359.994197" style="fill: #1a1a1a; fill-opacity: 0.8; stroke: #1a1a1a; stroke-opacity: 0.8"/>
     <use xlink:href="#me2488e8c31" x="331.353227" y="227.895045" style="fill: #1a1a1a; fill-opacity: 0.8; stroke: #1a1a1a; stroke-opacity: 0.8"/>
     <use xlink:href="#me2488e8c31" x="297.369832" y="223.977074" style="fill: #1a1a1a; fill-opacity: 0.8; stroke: #1a1a1a; stroke-opacity: 0.8"/>
     <use xlink:href="#me2488e8c31" x="343.013682" y="203.387943" style="fill: #1a1a1a; fill-opacity: 0.8; stroke: #1a1a1a; stroke-opacity: 0.8"/>
     <use xlink:href="#me2488e8c31" x="418.964207" y="159.942145" style="fill: #1a1a1a; fill-opacity: 0.8; stroke: #1a1a1a; stroke-opacity: 0.8"/>
     <use xlink:href="#me2488e8c31" x="284.658887" y="188.510811" style="fill: #1a1a1a; fill-opacity: 0.8; stroke: #1a1a1a; stroke-opacity: 0.8"/>
     <use xlink:href="#me2488e8c31" x="391.021137" y="154.626073" style="fill: #1a1a1a; fill-opacity: 0.8; stroke: #1a1a1a; stroke-opacity: 0.8"/>
     <use xlink:href="#me2488e8c31" x="292.379998" y="143.395284" style="fill: #1a1a1a; fill-opacity: 0.8; stroke: #1a1a1a; stroke-opacity: 0.8"/>
     <use xlink:href="#me2488e8c31" x="76.766647" y="418.249906" style="fill: #1a1a1a; fill-opacity: 0.8; stroke: #1a1a1a; stroke-opacity: 0.8"/>
     <use xlink:href="#me2488e8c31" x="210.861869" y="364.704932" style="fill: #1a1a1a; fill-opacity: 0.8; stroke: #1a1a1a; stroke-opacity: 0.8"/>
     <use xlink:href="#me2488e8c31" x="103.659225" y="413.428877" style="fill: #1a1a1a; fill-opacity: 0.8; stroke: #1a1a1a; stroke-opacity: 0.8"/>
     <use xlink:href="#me2488e8c31" x="114.899483" y="427.494599" style="fill: #1a1a1a; fill-opacity: 0.8; stroke: #1a1a1a; stroke-opacity: 0.8"/>
     <use xlink:href="#me2488e8c31" x="167.949297" y="384.5127" style="fill: #1a1a1a; fill-opacity: 0.8; stroke: #1a1a1a; stroke-opacity: 0.8"/>
     <use xlink:href="#me2488e8c31" x="205.399314" y="339.540473" style="fill: #1a1a1a; fill-opacity: 0.8; stroke: #1a1a1a; stroke-opacity: 0.8"/>
     <use xlink:href="#me2488e8c31" x="241.903888" y="391.234962" style="fill: #1a1a1a; fill-opacity: 0.8; stroke: #1a1a1a; stroke-opacity: 0.8"/>
     <use xlink:href="#me2488e8c31" x="261.285454" y="401.736496" style="fill: #1a1a1a; fill-opacity: 0.8; stroke: #1a1a1a; stroke-opacity: 0.8"/>
     <use xlink:href="#me2488e8c31" x="244.10992" y="335.771865" style="fill: #1a1a1a; fill-opacity: 0.8; stroke: #1a1a1a; stroke-opacity: 0.8"/>
     <use xlink:href="#me2488e8c31" x="313.967595" y="348.113874" style="fill: #1a1a1a; fill-opacity: 0.8; stroke: #1a1a1a; stroke-opacity: 0.8"/>
     <use xlink:href="#me2488e8c31" x="76.766647" y="430.290769" style="fill: #1a1a1a; fill-opacity: 0.8; stroke: #1a1a1a; stroke-opacity: 0.8"/>
     <use xlink:href="#me2488e8c31" x="142.317307" y="359.836675" style="fill: #1a1a1a; fill-opacity: 0.8; stroke: #1a1a1a; stroke-opacity: 0.8"/>
     <use xlink:href="#me2488e8c31" x="259.342045" y="272.03303" style="fill: #1a1a1a; fill-opacity: 0.8; stroke: #1a1a1a; stroke-opacity: 0.8"/>
     <use xlink:href="#me2488e8c31" x="149.670747" y="382.253076" style="fill: #1a1a1a; fill-opacity: 0.8; stroke: #1a1a1a; stroke-opacity: 0.8"/>
     <use xlink:href="#me2488e8c31" x="76.766647" y="455.362739" style="fill: #1a1a1a; fill-opacity: 0.8; stroke: #1a1a1a; stroke-opacity: 0.8"/>
     <use xlink:href="#me2488e8c31" x="76.766647" y="440.982438" style="fill: #1a1a1a; fill-opacity: 0.8; stroke: #1a1a1a; stroke-opacity: 0.8"/>
     <use xlink:href="#me2488e8c31" x="76.766647" y="431.658341" style="fill: #1a1a1a; fill-opacity: 0.8; stroke: #1a1a1a; stroke-opacity: 0.8"/>
     <use xlink:href="#me2488e8c31" x="163.642282" y="390.126671" style="fill: #1a1a1a; fill-opacity: 0.8; stroke: #1a1a1a; stroke-opacity: 0.8"/>
     <use xlink:href="#me2488e8c31" x="169.787656" y="425.429702" style="fill: #1a1a1a; fill-opacity: 0.8; stroke: #1a1a1a; stroke-opacity: 0.8"/>
     <use xlink:href="#me2488e8c31" x="122.515545" y="462.38716" style="fill: #1a1a1a; fill-opacity: 0.8; stroke: #1a1a1a; stroke-opacity: 0.8"/>
     <use xlink:href="#me2488e8c31" x="158.127202" y="379.856622" style="fill: #1a1a1a; fill-opacity: 0.8; stroke: #1a1a1a; stroke-opacity: 0.8"/>
     <use xlink:href="#me2488e8c31" x="96.043163" y="433.962353" style="fill: #1a1a1a; fill-opacity: 0.8; stroke: #1a1a1a; stroke-opacity: 0.8"/>
     <use xlink:href="#me2488e8c31" x="147.674813" y="418.170998" style="fill: #1a1a1a; fill-opacity: 0.8; stroke: #1a1a1a; stroke-opacity: 0.8"/>
     <use xlink:href="#me2488e8c31" x="103.659225" y="433.229521" style="fill: #1a1a1a; fill-opacity: 0.8; stroke: #1a1a1a; stroke-opacity: 0.8"/>
     <use xlink:href="#me2488e8c31" x="197.363055" y="354.409267" style="fill: #1a1a1a; fill-opacity: 0.8; stroke: #1a1a1a; stroke-opacity: 0.8"/>
     <use xlink:href="#me2488e8c31" x="127.715478" y="390.329236" style="fill: #1a1a1a; fill-opacity: 0.8; stroke: #1a1a1a; stroke-opacity: 0.8"/>
     <use xlink:href="#me2488e8c31" x="191.060106" y="395.459348" style="fill: #1a1a1a; fill-opacity: 0.8; stroke: #1a1a1a; stroke-opacity: 0.8"/>
     <use xlink:href="#me2488e8c31" x="83.857463" y="423.871312" style="fill: #1a1a1a; fill-opacity: 0.8; stroke: #1a1a1a; stroke-opacity: 0.8"/>
     <use xlink:href="#me2488e8c31" x="185.282404" y="396.904436" style="fill: #1a1a1a; fill-opacity: 0.8; stroke: #1a1a1a; stroke-opacity: 0.8"/>
     <use xlink:href="#me2488e8c31" x="242.061462" y="362.533437" style="fill: #1a1a1a; fill-opacity: 0.8; stroke: #1a1a1a; stroke-opacity: 0.8"/>
     <use xlink:href="#me2488e8c31" x="287.757836" y="343.845374" style="fill: #1a1a1a; fill-opacity: 0.8; stroke: #1a1a1a; stroke-opacity: 0.8"/>
     <use xlink:href="#me2488e8c31" x="251.043163" y="323.548219" style="fill: #1a1a1a; fill-opacity: 0.8; stroke: #1a1a1a; stroke-opacity: 0.8"/>
     <use xlink:href="#me2488e8c31" x="76.766647" y="421.558972" style="fill: #1a1a1a; fill-opacity: 0.8; stroke: #1a1a1a; stroke-opacity: 0.8"/>
     <use xlink:href="#me2488e8c31" x="168.211919" y="385.405418" style="fill: #1a1a1a; fill-opacity: 0.8; stroke: #1a1a1a; stroke-opacity: 0.8"/>
     <use xlink:href="#me2488e8c31" x="76.766647" y="392.081742" style="fill: #1a1a1a; fill-opacity: 0.8; stroke: #1a1a1a; stroke-opacity: 0.8"/>
     <use xlink:href="#me2488e8c31" x="116.737843" y="392.812897" style="fill: #1a1a1a; fill-opacity: 0.8; stroke: #1a1a1a; stroke-opacity: 0.8"/>
     <use xlink:href="#me2488e8c31" x="76.766647" y="438.491219" style="fill: #1a1a1a; fill-opacity: 0.8; stroke: #1a1a1a; stroke-opacity: 0.8"/>
     <use xlink:href="#me2488e8c31" x="76.766647" y="441.809302" style="fill: #1a1a1a; fill-opacity: 0.8; stroke: #1a1a1a; stroke-opacity: 0.8"/>
     <use xlink:href="#me2488e8c31" x="76.766647" y="464.366047" style="fill: #1a1a1a; fill-opacity: 0.8; stroke: #1a1a1a; stroke-opacity: 0.8"/>
     <use xlink:href="#me2488e8c31" x="102.871357" y="432.978402" style="fill: #1a1a1a; fill-opacity: 0.8; stroke: #1a1a1a; stroke-opacity: 0.8"/>
     <use xlink:href="#me2488e8c31" x="161.856447" y="380.979605" style="fill: #1a1a1a; fill-opacity: 0.8; stroke: #1a1a1a; stroke-opacity: 0.8"/>
     <use xlink:href="#me2488e8c31" x="76.766647" y="457.432976" style="fill: #1a1a1a; fill-opacity: 0.8; stroke: #1a1a1a; stroke-opacity: 0.8"/>
     <use xlink:href="#me2488e8c31" x="162.381692" y="394.34624" style="fill: #1a1a1a; fill-opacity: 0.8; stroke: #1a1a1a; stroke-opacity: 0.8"/>
     <use xlink:href="#me2488e8c31" x="79.130252" y="442.2333" style="fill: #1a1a1a; fill-opacity: 0.8; stroke: #1a1a1a; stroke-opacity: 0.8"/>
     <use xlink:href="#me2488e8c31" x="76.766647" y="463.630763" style="fill: #1a1a1a; fill-opacity: 0.8; stroke: #1a1a1a; stroke-opacity: 0.8"/>
     <use xlink:href="#me2488e8c31" x="76.766647" y="459.374911" style="fill: #1a1a1a; fill-opacity: 0.8; stroke: #1a1a1a; stroke-opacity: 0.8"/>
     <use xlink:href="#me2488e8c31" x="208.025542" y="370.660116" style="fill: #1a1a1a; fill-opacity: 0.8; stroke: #1a1a1a; stroke-opacity: 0.8"/>
     <use xlink:href="#me2488e8c31" x="76.766647" y="468.944088" style="fill: #1a1a1a; fill-opacity: 0.8; stroke: #1a1a1a; stroke-opacity: 0.8"/>
     <use xlink:href="#me2488e8c31" x="76.766647" y="450.816105" style="fill: #1a1a1a; fill-opacity: 0.8; stroke: #1a1a1a; stroke-opacity: 0.8"/>
     <use xlink:href="#me2488e8c31" x="76.766647" y="467.815533" style="fill: #1a1a1a; fill-opacity: 0.8; stroke: #1a1a1a; stroke-opacity: 0.8"/>
     <use xlink:href="#me2488e8c31" x="76.766647" y="470.667977" style="fill: #1a1a1a; fill-opacity: 0.8; stroke: #1a1a1a; stroke-opacity: 0.8"/>
     <use xlink:href="#me2488e8c31" x="76.766647" y="468.125331" style="fill: #1a1a1a; fill-opacity: 0.8; stroke: #1a1a1a; stroke-opacity: 0.8"/>
     <use xlink:href="#me2488e8c31" x="81.546382" y="445.848587" style="fill: #1a1a1a; fill-opacity: 0.8; stroke: #1a1a1a; stroke-opacity: 0.8"/>
     <use xlink:href="#me2488e8c31" x="76.766647" y="464.841653" style="fill: #1a1a1a; fill-opacity: 0.8; stroke: #1a1a1a; stroke-opacity: 0.8"/>
     <use xlink:href="#me2488e8c31" x="76.766647" y="465.364963" style="fill: #1a1a1a; fill-opacity: 0.8; stroke: #1a1a1a; stroke-opacity: 0.8"/>
     <use xlink:href="#me2488e8c31" x="76.766647" y="464.93843" style="fill: #1a1a1a; fill-opacity: 0.8; stroke: #1a1a1a; stroke-opacity: 0.8"/>
     <use xlink:href="#me2488e8c31" x="145.941503" y="396.867724" style="fill: #1a1a1a; fill-opacity: 0.8; stroke: #1a1a1a; stroke-opacity: 0.8"/>
     <use xlink:href="#me2488e8c31" x="172.781557" y="425.479526" style="fill: #1a1a1a; fill-opacity: 0.8; stroke: #1a1a1a; stroke-opacity: 0.8"/>
     <use xlink:href="#me2488e8c31" x="116.160073" y="424.888793" style="fill: #1a1a1a; fill-opacity: 0.8; stroke: #1a1a1a; stroke-opacity: 0.8"/>
     <use xlink:href="#me2488e8c31" x="76.766647" y="460.627362" style="fill: #1a1a1a; fill-opacity: 0.8; stroke: #1a1a1a; stroke-opacity: 0.8"/>
     <use xlink:href="#me2488e8c31" x="76.766647" y="456.973422" style="fill: #1a1a1a; fill-opacity: 0.8; stroke: #1a1a1a; stroke-opacity: 0.8"/>
     <use xlink:href="#me2488e8c31" x="76.766647" y="462.455842" style="fill: #1a1a1a; fill-opacity: 0.8; stroke: #1a1a1a; stroke-opacity: 0.8"/>
     <use xlink:href="#me2488e8c31" x="96.043163" y="422.158659" style="fill: #1a1a1a; fill-opacity: 0.8; stroke: #1a1a1a; stroke-opacity: 0.8"/>
     <use xlink:href="#me2488e8c31" x="135.121442" y="419.245581" style="fill: #1a1a1a; fill-opacity: 0.8; stroke: #1a1a1a; stroke-opacity: 0.8"/>
     <use xlink:href="#me2488e8c31" x="76.766647" y="464.020014" style="fill: #1a1a1a; fill-opacity: 0.8; stroke: #1a1a1a; stroke-opacity: 0.8"/>
     <use xlink:href="#me2488e8c31" x="76.766647" y="457.305543" style="fill: #1a1a1a; fill-opacity: 0.8; stroke: #1a1a1a; stroke-opacity: 0.8"/>
     <use xlink:href="#me2488e8c31" x="76.766647" y="454.067969" style="fill: #1a1a1a; fill-opacity: 0.8; stroke: #1a1a1a; stroke-opacity: 0.8"/>
     <use xlink:href="#me2488e8c31" x="76.766647" y="446.013853" style="fill: #1a1a1a; fill-opacity: 0.8; stroke: #1a1a1a; stroke-opacity: 0.8"/>
     <use xlink:href="#me2488e8c31" x="76.766647" y="456.939189" style="fill: #1a1a1a; fill-opacity: 0.8; stroke: #1a1a1a; stroke-opacity: 0.8"/>
     <use xlink:href="#me2488e8c31" x="76.766647" y="462.647606" style="fill: #1a1a1a; fill-opacity: 0.8; stroke: #1a1a1a; stroke-opacity: 0.8"/>
     <use xlink:href="#me2488e8c31" x="102.030964" y="449.957043" style="fill: #1a1a1a; fill-opacity: 0.8; stroke: #1a1a1a; stroke-opacity: 0.8"/>
     <use xlink:href="#me2488e8c31" x="101.243095" y="459.229375" style="fill: #1a1a1a; fill-opacity: 0.8; stroke: #1a1a1a; stroke-opacity: 0.8"/>
     <use xlink:href="#me2488e8c31" x="76.766647" y="453.191516" style="fill: #1a1a1a; fill-opacity: 0.8; stroke: #1a1a1a; stroke-opacity: 0.8"/>
     <use xlink:href="#me2488e8c31" x="76.766647" y="459.466905" style="fill: #1a1a1a; fill-opacity: 0.8; stroke: #1a1a1a; stroke-opacity: 0.8"/>
     <use xlink:href="#me2488e8c31" x="76.766647" y="460.564265" style="fill: #1a1a1a; fill-opacity: 0.8; stroke: #1a1a1a; stroke-opacity: 0.8"/>
     <use xlink:href="#me2488e8c31" x="76.766647" y="464.561303" style="fill: #1a1a1a; fill-opacity: 0.8; stroke: #1a1a1a; stroke-opacity: 0.8"/>
     <use xlink:href="#me2488e8c31" x="76.766647" y="460.367589" style="fill: #1a1a1a; fill-opacity: 0.8; stroke: #1a1a1a; stroke-opacity: 0.8"/>
     <use xlink:href="#me2488e8c31" x="76.766647" y="466.888411" style="fill: #1a1a1a; fill-opacity: 0.8; stroke: #1a1a1a; stroke-opacity: 0.8"/>
     <use xlink:href="#me2488e8c31" x="76.766647" y="470.022745" style="fill: #1a1a1a; fill-opacity: 0.8; stroke: #1a1a1a; stroke-opacity: 0.8"/>
     <use xlink:href="#me2488e8c31" x="118.523678" y="449.505354" style="fill: #1a1a1a; fill-opacity: 0.8; stroke: #1a1a1a; stroke-opacity: 0.8"/>
     <use xlink:href="#me2488e8c31" x="76.766647" y="463.299633" style="fill: #1a1a1a; fill-opacity: 0.8; stroke: #1a1a1a; stroke-opacity: 0.8"/>
     <use xlink:href="#me2488e8c31" x="96.936081" y="460.771081" style="fill: #1a1a1a; fill-opacity: 0.8; stroke: #1a1a1a; stroke-opacity: 0.8"/>
     <use xlink:href="#me2488e8c31" x="76.766647" y="463.485205" style="fill: #1a1a1a; fill-opacity: 0.8; stroke: #1a1a1a; stroke-opacity: 0.8"/>
     <use xlink:href="#me2488e8c31" x="76.766647" y="465.836072" style="fill: #1a1a1a; fill-opacity: 0.8; stroke: #1a1a1a; stroke-opacity: 0.8"/>
     <use xlink:href="#me2488e8c31" x="76.766647" y="463.48249" style="fill: #1a1a1a; fill-opacity: 0.8; stroke: #1a1a1a; stroke-opacity: 0.8"/>
     <use xlink:href="#me2488e8c31" x="76.766647" y="461.54885" style="fill: #1a1a1a; fill-opacity: 0.8; stroke: #1a1a1a; stroke-opacity: 0.8"/>
     <use xlink:href="#me2488e8c31" x="76.766647" y="460.248816" style="fill: #1a1a1a; fill-opacity: 0.8; stroke: #1a1a1a; stroke-opacity: 0.8"/>
     <use xlink:href="#me2488e8c31" x="76.766647" y="460.553449" style="fill: #1a1a1a; fill-opacity: 0.8; stroke: #1a1a1a; stroke-opacity: 0.8"/>
     <use xlink:href="#me2488e8c31" x="118.523678" y="397.615999" style="fill: #1a1a1a; fill-opacity: 0.8; stroke: #1a1a1a; stroke-opacity: 0.8"/>
     <use xlink:href="#me2488e8c31" x="164.115003" y="367.328246" style="fill: #1a1a1a; fill-opacity: 0.8; stroke: #1a1a1a; stroke-opacity: 0.8"/>
     <use xlink:href="#me2488e8c31" x="167.003854" y="435.707974" style="fill: #1a1a1a; fill-opacity: 0.8; stroke: #1a1a1a; stroke-opacity: 0.8"/>
     <use xlink:href="#me2488e8c31" x="180.029947" y="406.52314" style="fill: #1a1a1a; fill-opacity: 0.8; stroke: #1a1a1a; stroke-opacity: 0.8"/>
     <use xlink:href="#me2488e8c31" x="127.715478" y="404.944652" style="fill: #1a1a1a; fill-opacity: 0.8; stroke: #1a1a1a; stroke-opacity: 0.8"/>
     <use xlink:href="#me2488e8c31" x="97.828998" y="404.374724" style="fill: #1a1a1a; fill-opacity: 0.8; stroke: #1a1a1a; stroke-opacity: 0.8"/>
     <use xlink:href="#me2488e8c31" x="123.093316" y="395.253358" style="fill: #1a1a1a; fill-opacity: 0.8; stroke: #1a1a1a; stroke-opacity: 0.8"/>
     <use xlink:href="#me2488e8c31" x="167.003854" y="383.434333" style="fill: #1a1a1a; fill-opacity: 0.8; stroke: #1a1a1a; stroke-opacity: 0.8"/>
     <use xlink:href="#me2488e8c31" x="310.500974" y="296.905239" style="fill: #1a1a1a; fill-opacity: 0.8; stroke: #1a1a1a; stroke-opacity: 0.8"/>
     <use xlink:href="#me2488e8c31" x="229.245467" y="324.069107" style="fill: #1a1a1a; fill-opacity: 0.8; stroke: #1a1a1a; stroke-opacity: 0.8"/>
     <use xlink:href="#me2488e8c31" x="93.259361" y="373.38245" style="fill: #1a1a1a; fill-opacity: 0.8; stroke: #1a1a1a; stroke-opacity: 0.8"/>
     <use xlink:href="#me2488e8c31" x="211.859835" y="318.533948" style="fill: #1a1a1a; fill-opacity: 0.8; stroke: #1a1a1a; stroke-opacity: 0.8"/>
     <use xlink:href="#me2488e8c31" x="141.581963" y="366.50632" style="fill: #1a1a1a; fill-opacity: 0.8; stroke: #1a1a1a; stroke-opacity: 0.8"/>
     <use xlink:href="#me2488e8c31" x="76.766647" y="397.637719" style="fill: #1a1a1a; fill-opacity: 0.8; stroke: #1a1a1a; stroke-opacity: 0.8"/>
     <use xlink:href="#me2488e8c31" x="202.720561" y="380.1957" style="fill: #1a1a1a; fill-opacity: 0.8; stroke: #1a1a1a; stroke-opacity: 0.8"/>
     <use xlink:href="#me2488e8c31" x="201.512495" y="410.631153" style="fill: #1a1a1a; fill-opacity: 0.8; stroke: #1a1a1a; stroke-opacity: 0.8"/>
     <use xlink:href="#me2488e8c31" x="198.413546" y="289.988362" style="fill: #1a1a1a; fill-opacity: 0.8; stroke: #1a1a1a; stroke-opacity: 0.8"/>
     <use xlink:href="#me2488e8c31" x="170.890672" y="397.041394" style="fill: #1a1a1a; fill-opacity: 0.8; stroke: #1a1a1a; stroke-opacity: 0.8"/>
     <use xlink:href="#me2488e8c31" x="241.851364" y="371.295575" style="fill: #1a1a1a; fill-opacity: 0.8; stroke: #1a1a1a; stroke-opacity: 0.8"/>
     <use xlink:href="#me2488e8c31" x="76.766647" y="464.564758" style="fill: #1a1a1a; fill-opacity: 0.8; stroke: #1a1a1a; stroke-opacity: 0.8"/>
     <use xlink:href="#me2488e8c31" x="76.766647" y="409.588939" style="fill: #1a1a1a; fill-opacity: 0.8; stroke: #1a1a1a; stroke-opacity: 0.8"/>
     <use xlink:href="#me2488e8c31" x="81.546382" y="406.265276" style="fill: #1a1a1a; fill-opacity: 0.8; stroke: #1a1a1a; stroke-opacity: 0.8"/>
     <use xlink:href="#me2488e8c31" x="79.130252" y="451.784735" style="fill: #1a1a1a; fill-opacity: 0.8; stroke: #1a1a1a; stroke-opacity: 0.8"/>
     <use xlink:href="#me2488e8c31" x="76.766647" y="412.132592" style="fill: #1a1a1a; fill-opacity: 0.8; stroke: #1a1a1a; stroke-opacity: 0.8"/>
     <use xlink:href="#me2488e8c31" x="76.766647" y="444.946383" style="fill: #1a1a1a; fill-opacity: 0.8; stroke: #1a1a1a; stroke-opacity: 0.8"/>
     <use xlink:href="#me2488e8c31" x="231.819171" y="352.283812" style="fill: #1a1a1a; fill-opacity: 0.8; stroke: #1a1a1a; stroke-opacity: 0.8"/>
     <use xlink:href="#me2488e8c31" x="76.766647" y="475.182719" style="fill: #1a1a1a; fill-opacity: 0.8; stroke: #1a1a1a; stroke-opacity: 0.8"/>
     <use xlink:href="#me2488e8c31" x="76.766647" y="449.450764" style="fill: #1a1a1a; fill-opacity: 0.8; stroke: #1a1a1a; stroke-opacity: 0.8"/>
     <use xlink:href="#me2488e8c31" x="194.106531" y="404.783819" style="fill: #1a1a1a; fill-opacity: 0.8; stroke: #1a1a1a; stroke-opacity: 0.8"/>
     <use xlink:href="#me2488e8c31" x="176.248178" y="414.214479" style="fill: #1a1a1a; fill-opacity: 0.8; stroke: #1a1a1a; stroke-opacity: 0.8"/>
     <use xlink:href="#me2488e8c31" x="163.117036" y="334.624256" style="fill: #1a1a1a; fill-opacity: 0.8; stroke: #1a1a1a; stroke-opacity: 0.8"/>
     <use xlink:href="#me2488e8c31" x="233.079761" y="343.549991" style="fill: #1a1a1a; fill-opacity: 0.8; stroke: #1a1a1a; stroke-opacity: 0.8"/>
     <use xlink:href="#me2488e8c31" x="76.766647" y="405.960831" style="fill: #1a1a1a; fill-opacity: 0.8; stroke: #1a1a1a; stroke-opacity: 0.8"/>
     <use xlink:href="#me2488e8c31" x="138.430489" y="388.856365" style="fill: #1a1a1a; fill-opacity: 0.8; stroke: #1a1a1a; stroke-opacity: 0.8"/>
    </g>
   </g>
   <g id="PolyCollection_1">
    <defs>
     <path id="mfbdc8761a8" d="M 76.766647 -74.870292 
L 76.766647 -67.504309 
L 80.500135 -70.509336 
L 84.233624 -73.606712 
L 87.967113 -76.675048 
L 91.700602 -79.727809 
L 95.43409 -82.732256 
L 99.167579 -85.719652 
L 102.901068 -88.733475 
L 106.634557 -91.617928 
L 110.368045 -94.434431 
L 114.101534 -97.253808 
L 117.835023 -100.139552 
L 121.568511 -102.929581 
L 125.302 -105.760754 
L 129.035489 -108.533161 
L 132.768978 -111.343752 
L 136.502466 -114.107024 
L 140.235955 -116.862344 
L 143.969444 -119.587735 
L 147.702933 -122.351654 
L 151.436421 -125.140765 
L 155.16991 -127.935738 
L 158.903399 -130.693588 
L 162.636888 -133.468563 
L 166.370376 -136.202282 
L 170.103865 -138.885483 
L 173.837354 -141.568684 
L 177.570842 -144.251885 
L 181.304331 -146.943893 
L 185.03782 -149.659111 
L 188.771309 -152.374897 
L 192.504797 -155.090155 
L 196.238286 -157.818926 
L 199.971775 -160.566592 
L 203.705264 -163.313749 
L 207.438752 -166.060906 
L 211.172241 -168.808063 
L 214.90573 -171.55522 
L 218.639219 -174.236932 
L 222.372707 -176.925075 
L 226.106196 -179.651582 
L 229.839685 -182.379729 
L 233.573173 -185.056632 
L 237.306662 -187.724538 
L 241.040151 -190.392444 
L 244.77364 -193.105733 
L 248.507128 -195.820596 
L 252.240617 -198.536239 
L 255.974106 -201.251881 
L 259.707595 -203.955634 
L 263.441083 -206.641775 
L 267.174572 -209.363444 
L 270.908061 -212.086208 
L 274.64155 -214.809037 
L 278.375038 -217.531866 
L 282.108527 -220.233426 
L 285.842016 -222.9758 
L 289.575504 -225.677473 
L 293.308993 -228.378127 
L 297.042482 -231.101628 
L 300.775971 -233.80972 
L 304.509459 -236.477224 
L 308.242948 -239.13513 
L 311.976437 -241.797084 
L 315.709926 -244.450341 
L 319.443414 -247.107184 
L 323.176903 -249.764027 
L 326.910392 -252.420869 
L 330.643881 -255.077712 
L 334.377369 -257.734555 
L 338.110858 -260.392278 
L 341.844347 -263.050572 
L 345.577835 -265.708866 
L 349.311324 -268.36716 
L 353.044813 -271.025454 
L 356.778302 -273.679225 
L 360.51179 -276.324962 
L 364.245279 -278.970699 
L 367.978768 -281.616435 
L 371.712257 -284.287263 
L 375.445745 -286.964155 
L 379.179234 -289.631211 
L 382.912723 -292.288685 
L 386.646212 -294.946159 
L 390.3797 -297.603633 
L 394.113189 -300.261107 
L 397.846678 -302.918581 
L 401.580166 -305.576055 
L 405.313655 -308.233529 
L 409.047144 -310.891003 
L 412.780633 -313.548477 
L 416.514121 -316.205951 
L 420.24761 -318.863425 
L 423.981099 -321.520899 
L 427.714588 -324.17928 
L 431.448076 -326.83769 
L 435.181565 -329.496101 
L 438.915054 -332.154511 
L 442.648543 -334.812921 
L 446.382031 -337.471332 
L 446.382031 -388.437258 
L 446.382031 -388.437258 
L 442.648543 -385.21184 
L 438.915054 -381.986421 
L 435.181565 -378.761003 
L 431.448076 -375.535584 
L 427.714588 -372.310165 
L 423.981099 -369.084747 
L 420.24761 -365.859171 
L 416.514121 -362.63353 
L 412.780633 -359.40789 
L 409.047144 -356.182249 
L 405.313655 -352.956608 
L 401.580166 -349.730967 
L 397.846678 -346.505326 
L 394.113189 -343.279685 
L 390.3797 -340.058883 
L 386.646212 -336.835085 
L 382.912723 -333.604564 
L 379.179234 -330.379724 
L 375.445745 -327.154305 
L 371.712257 -323.928887 
L 367.978768 -320.705103 
L 364.245279 -317.522203 
L 360.51179 -314.324141 
L 356.778302 -311.09717 
L 353.044813 -307.86941 
L 349.311324 -304.641113 
L 345.577835 -301.412816 
L 341.844347 -298.184519 
L 338.110858 -294.956222 
L 334.377369 -291.727925 
L 330.643881 -288.499628 
L 326.910392 -285.271331 
L 323.176903 -282.043034 
L 319.443414 -278.831505 
L 315.709926 -275.610116 
L 311.976437 -272.397804 
L 308.242948 -269.185491 
L 304.509459 -265.973179 
L 300.775971 -262.760867 
L 297.042482 -259.572613 
L 293.308993 -256.402943 
L 289.575504 -253.228409 
L 285.842016 -250.066961 
L 282.108527 -246.899982 
L 278.375038 -243.730776 
L 274.64155 -240.547507 
L 270.908061 -237.325219 
L 267.174572 -234.102897 
L 263.441083 -230.879349 
L 259.707595 -227.702345 
L 255.974106 -224.556365 
L 252.240617 -221.343146 
L 248.507128 -218.132704 
L 244.77364 -214.906451 
L 241.040151 -211.664481 
L 237.306662 -208.422511 
L 233.573173 -205.180541 
L 229.839685 -201.938571 
L 226.106196 -198.696601 
L 222.372707 -195.45463 
L 218.639219 -192.21266 
L 214.90573 -188.973225 
L 211.172241 -185.801964 
L 207.438752 -182.662856 
L 203.705264 -179.428196 
L 199.971775 -176.201443 
L 196.238286 -173.019322 
L 192.504797 -169.837201 
L 188.771309 -166.638085 
L 185.03782 -163.425075 
L 181.304331 -160.294147 
L 177.570842 -157.137052 
L 173.837354 -154.04427 
L 170.103865 -150.883212 
L 166.370376 -147.751497 
L 162.636888 -144.607866 
L 158.903399 -141.376582 
L 155.16991 -138.207624 
L 151.436421 -135.093795 
L 147.702933 -131.942929 
L 143.969444 -128.791511 
L 140.235955 -125.549135 
L 136.502466 -122.487861 
L 132.768978 -119.371025 
L 129.035489 -116.211653 
L 125.302 -113.156304 
L 121.568511 -110.058853 
L 117.835023 -107.031241 
L 114.101534 -103.999615 
L 110.368045 -100.955172 
L 106.634557 -97.91443 
L 102.901068 -94.987341 
L 99.167579 -92.099686 
L 95.43409 -89.229821 
L 91.700602 -86.305109 
L 87.967113 -83.389507 
L 84.233624 -80.504497 
L 80.500135 -77.688609 
L 76.766647 -74.870292 
z
" style="stroke: #ffffff; stroke-opacity: 0.15"/>
    </defs>
    <g clip-path="url(#p4dc30a0bf0)">
     <use xlink:href="#mfbdc8761a8" x="0" y="523.744219" style="fill: #1a1a1a; fill-opacity: 0.15; stroke: #ffffff; stroke-opacity: 0.15"/>
    </g>
   </g>
   <g id="line2d_21">
    <path d="M 76.766647 452.566543 
L 80.500135 449.607896 
L 84.233624 446.649248 
L 87.967113 443.690601 
L 91.700602 440.731954 
L 95.43409 437.773307 
L 99.167579 434.81466 
L 102.901068 431.856013 
L 106.634557 428.897366 
L 110.368045 425.938719 
L 114.101534 422.980071 
L 117.835023 420.021424 
L 121.568511 417.062777 
L 125.302 414.10413 
L 129.035489 411.145483 
L 132.768978 408.186836 
L 136.502466 405.228189 
L 140.235955 402.269542 
L 143.969444 399.310894 
L 147.702933 396.352247 
L 151.436421 393.3936 
L 155.16991 390.434953 
L 158.903399 387.476306 
L 162.636888 384.517659 
L 166.370376 381.559012 
L 170.103865 378.600365 
L 173.837354 375.641717 
L 177.570842 372.68307 
L 181.304331 369.724423 
L 185.03782 366.765776 
L 188.771309 363.807129 
L 192.504797 360.848482 
L 196.238286 357.889835 
L 199.971775 354.931188 
L 203.705264 351.97254 
L 207.438752 349.013893 
L 211.172241 346.055246 
L 214.90573 343.096599 
L 218.639219 340.137952 
L 222.372707 337.179305 
L 226.106196 334.220658 
L 229.839685 331.262011 
L 233.573173 328.303363 
L 237.306662 325.344716 
L 241.040151 322.386069 
L 244.77364 319.427422 
L 248.507128 316.468775 
L 252.240617 313.510128 
L 255.974106 310.551481 
L 259.707595 307.592834 
L 263.441083 304.634186 
L 267.174572 301.675539 
L 270.908061 298.716892 
L 274.64155 295.758245 
L 278.375038 292.799598 
L 282.108527 289.840951 
L 285.842016 286.882304 
L 289.575504 283.923657 
L 293.308993 280.965009 
L 297.042482 278.006362 
L 300.775971 275.047715 
L 304.509459 272.089068 
L 308.242948 269.130421 
L 311.976437 266.171774 
L 315.709926 263.213127 
L 319.443414 260.25448 
L 323.176903 257.295832 
L 326.910392 254.337185 
L 330.643881 251.378538 
L 334.377369 248.419891 
L 338.110858 245.461244 
L 341.844347 242.502597 
L 345.577835 239.54395 
L 349.311324 236.585303 
L 353.044813 233.626655 
L 356.778302 230.668008 
L 360.51179 227.709361 
L 364.245279 224.750714 
L 367.978768 221.792067 
L 371.712257 218.83342 
L 375.445745 215.874773 
L 379.179234 212.916126 
L 382.912723 209.957478 
L 386.646212 206.998831 
L 390.3797 204.040184 
L 394.113189 201.081537 
L 397.846678 198.12289 
L 401.580166 195.164243 
L 405.313655 192.205596 
L 409.047144 189.246949 
L 412.780633 186.288301 
L 416.514121 183.329654 
L 420.24761 180.371007 
L 423.981099 177.41236 
L 427.714588 174.453713 
L 431.448076 171.495066 
L 435.181565 168.536419 
L 438.915054 165.577772 
L 442.648543 162.619124 
L 446.382031 159.660477 
" clip-path="url(#p4dc30a0bf0)" style="fill: none; stroke: #1a1a1a; stroke-width: 2.25; stroke-linecap: round"/>
   </g>
   <g id="patch_3">
    <path d="M 68.182031 471.035625 
L 68.182031 27.515625 
" style="fill: none; stroke: #000000; stroke-width: 1.25; stroke-linejoin: miter; stroke-linecap: square"/>
   </g>
   <g id="patch_4">
    <path d="M 514.582031 471.035625 
L 514.582031 27.515625 
" style="fill: none; stroke: #ffffff; stroke-width: 1.25; stroke-linejoin: miter; stroke-linecap: square"/>
   </g>
   <g id="patch_5">
    <path d="M 68.182031 471.035625 
L 514.582031 471.035625 
" style="fill: none; stroke: #000000; stroke-width: 1.25; stroke-linejoin: miter; stroke-linecap: square"/>
   </g>
   <g id="patch_6">
    <path d="M 68.182031 27.515625 
L 514.582031 27.515625 
" style="fill: none; stroke: #ffffff; stroke-width: 1.25; stroke-linejoin: miter; stroke-linecap: square"/>
   </g>
   <g id="text_13">
    <!-- Pearsons r = 0.88 -->
    <g style="fill: #262626" transform="translate(157.462031 71.867625) scale(0.3 -0.3)">
     <defs>
      <path id="ArialMT-73" d="M 197 991 
L 753 1078 
Q 800 744 1014 566 
Q 1228 388 1613 388 
Q 2000 388 2187 545 
Q 2375 703 2375 916 
Q 2375 1106 2209 1216 
Q 2094 1291 1634 1406 
Q 1016 1563 777 1677 
Q 538 1791 414 1992 
Q 291 2194 291 2438 
Q 291 2659 392 2848 
Q 494 3038 669 3163 
Q 800 3259 1026 3326 
Q 1253 3394 1513 3394 
Q 1903 3394 2198 3281 
Q 2494 3169 2634 2976 
Q 2775 2784 2828 2463 
L 2278 2388 
Q 2241 2644 2061 2787 
Q 1881 2931 1553 2931 
Q 1166 2931 1000 2803 
Q 834 2675 834 2503 
Q 834 2394 903 2306 
Q 972 2216 1119 2156 
Q 1203 2125 1616 2013 
Q 2213 1853 2448 1751 
Q 2684 1650 2818 1456 
Q 2953 1263 2953 975 
Q 2953 694 2789 445 
Q 2625 197 2315 61 
Q 2006 -75 1616 -75 
Q 969 -75 630 194 
Q 291 463 197 991 
z
" transform="scale(0.015625)"/>
      <path id="ArialMT-3d" d="M 3381 2694 
L 356 2694 
L 356 3219 
L 3381 3219 
L 3381 2694 
z
M 3381 1303 
L 356 1303 
L 356 1828 
L 3381 1828 
L 3381 1303 
z
" transform="scale(0.015625)"/>
      <path id="ArialMT-38" d="M 1131 2484 
Q 781 2613 612 2850 
Q 444 3088 444 3419 
Q 444 3919 803 4259 
Q 1163 4600 1759 4600 
Q 2359 4600 2725 4251 
Q 3091 3903 3091 3403 
Q 3091 3084 2923 2848 
Q 2756 2613 2416 2484 
Q 2838 2347 3058 2040 
Q 3278 1734 3278 1309 
Q 3278 722 2862 322 
Q 2447 -78 1769 -78 
Q 1091 -78 675 323 
Q 259 725 259 1325 
Q 259 1772 486 2073 
Q 713 2375 1131 2484 
z
M 1019 3438 
Q 1019 3113 1228 2906 
Q 1438 2700 1772 2700 
Q 2097 2700 2305 2904 
Q 2513 3109 2513 3406 
Q 2513 3716 2298 3927 
Q 2084 4138 1766 4138 
Q 1444 4138 1231 3931 
Q 1019 3725 1019 3438 
z
M 838 1322 
Q 838 1081 952 856 
Q 1066 631 1291 507 
Q 1516 384 1775 384 
Q 2178 384 2440 643 
Q 2703 903 2703 1303 
Q 2703 1709 2433 1975 
Q 2163 2241 1756 2241 
Q 1359 2241 1098 1978 
Q 838 1716 838 1322 
z
" transform="scale(0.015625)"/>
     </defs>
     <use xlink:href="#ArialMT-50"/>
     <use xlink:href="#ArialMT-65" x="66.699219"/>
     <use xlink:href="#ArialMT-61" x="122.314453"/>
     <use xlink:href="#ArialMT-72" x="177.929688"/>
     <use xlink:href="#ArialMT-73" x="211.230469"/>
     <use xlink:href="#ArialMT-6f" x="261.230469"/>
     <use xlink:href="#ArialMT-6e" x="316.845703"/>
     <use xlink:href="#ArialMT-73" x="372.460938"/>
     <use xlink:href="#ArialMT-20" x="422.460938"/>
     <use xlink:href="#ArialMT-72" x="450.244141"/>
     <use xlink:href="#ArialMT-20" x="483.544922"/>
     <use xlink:href="#ArialMT-3d" x="511.328125"/>
     <use xlink:href="#ArialMT-20" x="569.726562"/>
     <use xlink:href="#ArialMT-30" x="597.509766"/>
     <use xlink:href="#ArialMT-2e" x="653.125"/>
     <use xlink:href="#ArialMT-38" x="680.908203"/>
     <use xlink:href="#ArialMT-38" x="736.523438"/>
    </g>
   </g>
   <g id="text_14">
    <!-- Spearmans r = 0.81 -->
    <g style="fill: #262626" transform="translate(157.462031 116.219625) scale(0.3 -0.3)">
     <defs>
      <path id="ArialMT-53" d="M 288 1472 
L 859 1522 
Q 900 1178 1048 958 
Q 1197 738 1509 602 
Q 1822 466 2213 466 
Q 2559 466 2825 569 
Q 3091 672 3220 851 
Q 3350 1031 3350 1244 
Q 3350 1459 3225 1620 
Q 3100 1781 2813 1891 
Q 2628 1963 1997 2114 
Q 1366 2266 1113 2400 
Q 784 2572 623 2826 
Q 463 3081 463 3397 
Q 463 3744 659 4045 
Q 856 4347 1234 4503 
Q 1613 4659 2075 4659 
Q 2584 4659 2973 4495 
Q 3363 4331 3572 4012 
Q 3781 3694 3797 3291 
L 3216 3247 
Q 3169 3681 2898 3903 
Q 2628 4125 2100 4125 
Q 1550 4125 1298 3923 
Q 1047 3722 1047 3438 
Q 1047 3191 1225 3031 
Q 1400 2872 2139 2705 
Q 2878 2538 3153 2413 
Q 3553 2228 3743 1945 
Q 3934 1663 3934 1294 
Q 3934 928 3725 604 
Q 3516 281 3123 101 
Q 2731 -78 2241 -78 
Q 1619 -78 1198 103 
Q 778 284 539 648 
Q 300 1013 288 1472 
z
" transform="scale(0.015625)"/>
     </defs>
     <use xlink:href="#ArialMT-53"/>
     <use xlink:href="#ArialMT-70" x="66.699219"/>
     <use xlink:href="#ArialMT-65" x="122.314453"/>
     <use xlink:href="#ArialMT-61" x="177.929688"/>
     <use xlink:href="#ArialMT-72" x="233.544922"/>
     <use xlink:href="#ArialMT-6d" x="266.845703"/>
     <use xlink:href="#ArialMT-61" x="350.146484"/>
     <use xlink:href="#ArialMT-6e" x="405.761719"/>
     <use xlink:href="#ArialMT-73" x="461.376953"/>
     <use xlink:href="#ArialMT-20" x="511.376953"/>
     <use xlink:href="#ArialMT-72" x="539.160156"/>
     <use xlink:href="#ArialMT-20" x="572.460938"/>
     <use xlink:href="#ArialMT-3d" x="600.244141"/>
     <use xlink:href="#ArialMT-20" x="658.642578"/>
     <use xlink:href="#ArialMT-30" x="686.425781"/>
     <use xlink:href="#ArialMT-2e" x="742.041016"/>
     <use xlink:href="#ArialMT-38" x="769.824219"/>
     <use xlink:href="#ArialMT-31" x="825.439453"/>
    </g>
   </g>
   <g id="text_15">
    <!-- B16 -->
    <g style="fill: #262626" transform="translate(273.589844 21.515625) scale(0.2 -0.2)">
     <defs>
      <path id="ArialMT-42" d="M 469 0 
L 469 4581 
L 2188 4581 
Q 2713 4581 3030 4442 
Q 3347 4303 3526 4014 
Q 3706 3725 3706 3409 
Q 3706 3116 3547 2856 
Q 3388 2597 3066 2438 
Q 3481 2316 3704 2022 
Q 3928 1728 3928 1328 
Q 3928 1006 3792 729 
Q 3656 453 3456 303 
Q 3256 153 2954 76 
Q 2653 0 2216 0 
L 469 0 
z
M 1075 2656 
L 2066 2656 
Q 2469 2656 2644 2709 
Q 2875 2778 2992 2937 
Q 3109 3097 3109 3338 
Q 3109 3566 3000 3739 
Q 2891 3913 2687 3977 
Q 2484 4041 1991 4041 
L 1075 4041 
L 1075 2656 
z
M 1075 541 
L 2216 541 
Q 2509 541 2628 563 
Q 2838 600 2978 687 
Q 3119 775 3209 942 
Q 3300 1109 3300 1328 
Q 3300 1584 3169 1773 
Q 3038 1963 2805 2039 
Q 2572 2116 2134 2116 
L 1075 2116 
L 1075 541 
z
" transform="scale(0.015625)"/>
      <path id="ArialMT-36" d="M 3184 3459 
L 2625 3416 
Q 2550 3747 2413 3897 
Q 2184 4138 1850 4138 
Q 1581 4138 1378 3988 
Q 1113 3794 959 3422 
Q 806 3050 800 2363 
Q 1003 2672 1297 2822 
Q 1591 2972 1913 2972 
Q 2475 2972 2870 2558 
Q 3266 2144 3266 1488 
Q 3266 1056 3080 686 
Q 2894 316 2569 119 
Q 2244 -78 1831 -78 
Q 1128 -78 684 439 
Q 241 956 241 2144 
Q 241 3472 731 4075 
Q 1159 4600 1884 4600 
Q 2425 4600 2770 4297 
Q 3116 3994 3184 3459 
z
M 888 1484 
Q 888 1194 1011 928 
Q 1134 663 1356 523 
Q 1578 384 1822 384 
Q 2178 384 2434 671 
Q 2691 959 2691 1453 
Q 2691 1928 2437 2201 
Q 2184 2475 1800 2475 
Q 1419 2475 1153 2201 
Q 888 1928 888 1484 
z
" transform="scale(0.015625)"/>
     </defs>
     <use xlink:href="#ArialMT-42"/>
     <use xlink:href="#ArialMT-31" x="66.699219"/>
     <use xlink:href="#ArialMT-36" x="122.314453"/>
    </g>
   </g>
  </g>
 </g>
 <defs>
  <clipPath id="p4dc30a0bf0">
   <rect x="68.182031" y="27.515625" width="446.4" height="443.52"/>
  </clipPath>
 </defs>
</svg>
