<?xml version="1.0" encoding="utf-8" standalone="no"?>
<!DOCTYPE svg PUBLIC "-//W3C//DTD SVG 1.1//EN"
  "http://www.w3.org/Graphics/SVG/1.1/DTD/svg11.dtd">
<svg xmlns:xlink="http://www.w3.org/1999/xlink" width="199.2275pt" height="186.095pt" viewBox="0 0 199.2275 186.095" xmlns="http://www.w3.org/2000/svg" version="1.1">
 <metadata>
  <rdf:RDF xmlns:dc="http://purl.org/dc/elements/1.1/" xmlns:cc="http://creativecommons.org/ns#" xmlns:rdf="http://www.w3.org/1999/02/22-rdf-syntax-ns#">
   <cc:Work>
    <dc:type rdf:resource="http://purl.org/dc/dcmitype/StillImage"/>
    <dc:date>2024-08-11T22:25:17.292838</dc:date>
    <dc:format>image/svg+xml</dc:format>
    <dc:creator>
     <cc:Agent>
      <dc:title>Matplotlib v3.6.3, https://matplotlib.org/</dc:title>
     </cc:Agent>
    </dc:creator>
   </cc:Work>
  </rdf:RDF>
 </metadata>
 <defs>
  <style type="text/css">*{stroke-linejoin: round; stroke-linecap: butt}</style>
 </defs>
 <g id="figure_1">
  <g id="patch_1">
   <path d="M 0 186.095 
L 199.2275 186.095 
L 199.2275 0 
L 0 0 
L 0 186.095 
z
" style="fill: none"/>
  </g>
  <g id="axes_1">
   <g id="patch_2">
    <path d="M 52.5275 145.8 
L 192.0275 145.8 
L 192.0275 7.2 
L 52.5275 7.2 
L 52.5275 145.8 
z
" style="fill: none"/>
   </g>
   <g id="PathCollection_1">
    <defs>
     <path id="m452996575d" d="M 0 1.5 
C 0.397805 1.5 0.77937 1.341951 1.06066 1.06066 
C 1.341951 0.77937 1.5 0.397805 1.5 0 
C 1.5 -0.397805 1.341951 -0.77937 1.06066 -1.06066 
C 0.77937 -1.341951 0.397805 -1.5 0 -1.5 
C -0.397805 -1.5 -0.77937 -1.341951 -1.06066 -1.06066 
C -1.341951 -0.77937 -1.5 -0.397805 -1.5 0 
C -1.5 0.397805 -1.341951 0.77937 -1.06066 1.06066 
C -0.77937 1.341951 -0.397805 1.5 0 1.5 
z
" style="stroke: #db5f57; stroke-opacity: 0.6"/>
    </defs>
    <g clip-path="url(#p78479b042f)">
     <use xlink:href="#m452996575d" x="159.266136" y="43.610877" style="fill: #db5f57; fill-opacity: 0.6; stroke: #db5f57; stroke-opacity: 0.6"/>
     <use xlink:href="#m452996575d" x="58.34" y="119.903083" style="fill: #db5f57; fill-opacity: 0.6; stroke: #db5f57; stroke-opacity: 0.6"/>
     <use xlink:href="#m452996575d" x="103.131477" y="110.25693" style="fill: #db5f57; fill-opacity: 0.6; stroke: #db5f57; stroke-opacity: 0.6"/>
     <use xlink:href="#m452996575d" x="141.018409" y="50.958315" style="fill: #db5f57; fill-opacity: 0.6; stroke: #db5f57; stroke-opacity: 0.6"/>
     <use xlink:href="#m452996575d" x="126.187727" y="83.705445" style="fill: #db5f57; fill-opacity: 0.6; stroke: #db5f57; stroke-opacity: 0.6"/>
     <use xlink:href="#m452996575d" x="60.259886" y="135.95418" style="fill: #db5f57; fill-opacity: 0.6; stroke: #db5f57; stroke-opacity: 0.6"/>
     <use xlink:href="#m452996575d" x="60.259886" y="133.327718" style="fill: #db5f57; fill-opacity: 0.6; stroke: #db5f57; stroke-opacity: 0.6"/>
     <use xlink:href="#m452996575d" x="82.822955" y="121.253934" style="fill: #db5f57; fill-opacity: 0.6; stroke: #db5f57; stroke-opacity: 0.6"/>
     <use xlink:href="#m452996575d" x="81.818977" y="136.986979" style="fill: #db5f57; fill-opacity: 0.6; stroke: #db5f57; stroke-opacity: 0.6"/>
     <use xlink:href="#m452996575d" x="139.644545" y="62.786036" style="fill: #db5f57; fill-opacity: 0.6; stroke: #db5f57; stroke-opacity: 0.6"/>
     <use xlink:href="#m452996575d" x="133.303636" y="84.330257" style="fill: #db5f57; fill-opacity: 0.6; stroke: #db5f57; stroke-opacity: 0.6"/>
     <use xlink:href="#m452996575d" x="137.442841" y="70.669936" style="fill: #db5f57; fill-opacity: 0.6; stroke: #db5f57; stroke-opacity: 0.6"/>
     <use xlink:href="#m452996575d" x="111.180909" y="95.761145" style="fill: #db5f57; fill-opacity: 0.6; stroke: #db5f57; stroke-opacity: 0.6"/>
     <use xlink:href="#m452996575d" x="88.617841" y="101.87678" style="fill: #db5f57; fill-opacity: 0.6; stroke: #db5f57; stroke-opacity: 0.6"/>
     <use xlink:href="#m452996575d" x="95.522386" y="65.478461" style="fill: #db5f57; fill-opacity: 0.6; stroke: #db5f57; stroke-opacity: 0.6"/>
     <use xlink:href="#m452996575d" x="58.34" y="132.762931" style="fill: #db5f57; fill-opacity: 0.6; stroke: #db5f57; stroke-opacity: 0.6"/>
     <use xlink:href="#m452996575d" x="66.195682" y="135.959769" style="fill: #db5f57; fill-opacity: 0.6; stroke: #db5f57; stroke-opacity: 0.6"/>
     <use xlink:href="#m452996575d" x="60.259886" y="131.235737" style="fill: #db5f57; fill-opacity: 0.6; stroke: #db5f57; stroke-opacity: 0.6"/>
     <use xlink:href="#m452996575d" x="130.908182" y="86.234091" style="fill: #db5f57; fill-opacity: 0.6; stroke: #db5f57; stroke-opacity: 0.6"/>
     <use xlink:href="#m452996575d" x="115.337727" y="96.973084" style="fill: #db5f57; fill-opacity: 0.6; stroke: #db5f57; stroke-opacity: 0.6"/>
     <use xlink:href="#m452996575d" x="132.035455" y="48.683812" style="fill: #db5f57; fill-opacity: 0.6; stroke: #db5f57; stroke-opacity: 0.6"/>
     <use xlink:href="#m452996575d" x="143.995114" y="60.454119" style="fill: #db5f57; fill-opacity: 0.6; stroke: #db5f57; stroke-opacity: 0.6"/>
     <use xlink:href="#m452996575d" x="112.854205" y="76.359789" style="fill: #db5f57; fill-opacity: 0.6; stroke: #db5f57; stroke-opacity: 0.6"/>
     <use xlink:href="#m452996575d" x="108.662159" y="74.756025" style="fill: #db5f57; fill-opacity: 0.6; stroke: #db5f57; stroke-opacity: 0.6"/>
     <use xlink:href="#m452996575d" x="92.968409" y="111.530722" style="fill: #db5f57; fill-opacity: 0.6; stroke: #db5f57; stroke-opacity: 0.6"/>
     <use xlink:href="#m452996575d" x="131.665568" y="80.031282" style="fill: #db5f57; fill-opacity: 0.6; stroke: #db5f57; stroke-opacity: 0.6"/>
     <use xlink:href="#m452996575d" x="58.34" y="136.259259" style="fill: #db5f57; fill-opacity: 0.6; stroke: #db5f57; stroke-opacity: 0.6"/>
     <use xlink:href="#m452996575d" x="77.098523" y="113.97809" style="fill: #db5f57; fill-opacity: 0.6; stroke: #db5f57; stroke-opacity: 0.6"/>
     <use xlink:href="#m452996575d" x="131.471818" y="72.667039" style="fill: #db5f57; fill-opacity: 0.6; stroke: #db5f57; stroke-opacity: 0.6"/>
     <use xlink:href="#m452996575d" x="68.538295" y="129.44045" style="fill: #db5f57; fill-opacity: 0.6; stroke: #db5f57; stroke-opacity: 0.6"/>
     <use xlink:href="#m452996575d" x="58.34" y="129.944748" style="fill: #db5f57; fill-opacity: 0.6; stroke: #db5f57; stroke-opacity: 0.6"/>
     <use xlink:href="#m452996575d" x="104.029773" y="123.322607" style="fill: #db5f57; fill-opacity: 0.6; stroke: #db5f57; stroke-opacity: 0.6"/>
     <use xlink:href="#m452996575d" x="162.471818" y="58.639854" style="fill: #db5f57; fill-opacity: 0.6; stroke: #db5f57; stroke-opacity: 0.6"/>
     <use xlink:href="#m452996575d" x="144.17125" y="71.563441" style="fill: #db5f57; fill-opacity: 0.6; stroke: #db5f57; stroke-opacity: 0.6"/>
     <use xlink:href="#m452996575d" x="100.824091" y="77.729609" style="fill: #db5f57; fill-opacity: 0.6; stroke: #db5f57; stroke-opacity: 0.6"/>
     <use xlink:href="#m452996575d" x="100.824091" y="101.068472" style="fill: #db5f57; fill-opacity: 0.6; stroke: #db5f57; stroke-opacity: 0.6"/>
     <use xlink:href="#m452996575d" x="115.179205" y="73.378794" style="fill: #db5f57; fill-opacity: 0.6; stroke: #db5f57; stroke-opacity: 0.6"/>
     <use xlink:href="#m452996575d" x="58.34" y="134.007308" style="fill: #db5f57; fill-opacity: 0.6; stroke: #db5f57; stroke-opacity: 0.6"/>
     <use xlink:href="#m452996575d" x="63.483182" y="129.098867" style="fill: #db5f57; fill-opacity: 0.6; stroke: #db5f57; stroke-opacity: 0.6"/>
     <use xlink:href="#m452996575d" x="144.365" y="57.557738" style="fill: #db5f57; fill-opacity: 0.6; stroke: #db5f57; stroke-opacity: 0.6"/>
     <use xlink:href="#m452996575d" x="162.595114" y="75.175427" style="fill: #db5f57; fill-opacity: 0.6; stroke: #db5f57; stroke-opacity: 0.6"/>
     <use xlink:href="#m452996575d" x="125.500795" y="68.76292" style="fill: #db5f57; fill-opacity: 0.6; stroke: #db5f57; stroke-opacity: 0.6"/>
     <use xlink:href="#m452996575d" x="82.822955" y="94.749675" style="fill: #db5f57; fill-opacity: 0.6; stroke: #db5f57; stroke-opacity: 0.6"/>
     <use xlink:href="#m452996575d" x="113.55875" y="90.27637" style="fill: #db5f57; fill-opacity: 0.6; stroke: #db5f57; stroke-opacity: 0.6"/>
     <use xlink:href="#m452996575d" x="98.569545" y="105.646513" style="fill: #db5f57; fill-opacity: 0.6; stroke: #db5f57; stroke-opacity: 0.6"/>
     <use xlink:href="#m452996575d" x="94.025227" y="113.393896" style="fill: #db5f57; fill-opacity: 0.6; stroke: #db5f57; stroke-opacity: 0.6"/>
     <use xlink:href="#m452996575d" x="72.48375" y="126.40907" style="fill: #db5f57; fill-opacity: 0.6; stroke: #db5f57; stroke-opacity: 0.6"/>
     <use xlink:href="#m452996575d" x="149.966136" y="50.202287" style="fill: #db5f57; fill-opacity: 0.6; stroke: #db5f57; stroke-opacity: 0.6"/>
     <use xlink:href="#m452996575d" x="105.720682" y="49.21557" style="fill: #db5f57; fill-opacity: 0.6; stroke: #db5f57; stroke-opacity: 0.6"/>
     <use xlink:href="#m452996575d" x="77.098523" y="110.735484" style="fill: #db5f57; fill-opacity: 0.6; stroke: #db5f57; stroke-opacity: 0.6"/>
     <use xlink:href="#m452996575d" x="58.34" y="132.681037" style="fill: #db5f57; fill-opacity: 0.6; stroke: #db5f57; stroke-opacity: 0.6"/>
     <use xlink:href="#m452996575d" x="91.224659" y="103.861523" style="fill: #db5f57; fill-opacity: 0.6; stroke: #db5f57; stroke-opacity: 0.6"/>
     <use xlink:href="#m452996575d" x="118.314432" y="79.442675" style="fill: #db5f57; fill-opacity: 0.6; stroke: #db5f57; stroke-opacity: 0.6"/>
     <use xlink:href="#m452996575d" x="74.157045" y="135.021683" style="fill: #db5f57; fill-opacity: 0.6; stroke: #db5f57; stroke-opacity: 0.6"/>
     <use xlink:href="#m452996575d" x="128.160455" y="56.90385" style="fill: #db5f57; fill-opacity: 0.6; stroke: #db5f57; stroke-opacity: 0.6"/>
     <use xlink:href="#m452996575d" x="100.824091" y="97.16837" style="fill: #db5f57; fill-opacity: 0.6; stroke: #db5f57; stroke-opacity: 0.6"/>
     <use xlink:href="#m452996575d" x="155.303068" y="39.278125" style="fill: #db5f57; fill-opacity: 0.6; stroke: #db5f57; stroke-opacity: 0.6"/>
     <use xlink:href="#m452996575d" x="58.34" y="137.370407" style="fill: #db5f57; fill-opacity: 0.6; stroke: #db5f57; stroke-opacity: 0.6"/>
     <use xlink:href="#m452996575d" x="60.259886" y="134.030807" style="fill: #db5f57; fill-opacity: 0.6; stroke: #db5f57; stroke-opacity: 0.6"/>
     <use xlink:href="#m452996575d" x="170.52125" y="51.253851" style="fill: #db5f57; fill-opacity: 0.6; stroke: #db5f57; stroke-opacity: 0.6"/>
     <use xlink:href="#m452996575d" x="58.34" y="141.256941" style="fill: #db5f57; fill-opacity: 0.6; stroke: #db5f57; stroke-opacity: 0.6"/>
     <use xlink:href="#m452996575d" x="80.762159" y="108.850875" style="fill: #db5f57; fill-opacity: 0.6; stroke: #db5f57; stroke-opacity: 0.6"/>
     <use xlink:href="#m452996575d" x="58.34" y="132.911402" style="fill: #db5f57; fill-opacity: 0.6; stroke: #db5f57; stroke-opacity: 0.6"/>
     <use xlink:href="#m452996575d" x="75.689432" y="130.410882" style="fill: #db5f57; fill-opacity: 0.6; stroke: #db5f57; stroke-opacity: 0.6"/>
     <use xlink:href="#m452996575d" x="68.538295" y="139.768475" style="fill: #db5f57; fill-opacity: 0.6; stroke: #db5f57; stroke-opacity: 0.6"/>
     <use xlink:href="#m452996575d" x="68.538295" y="111.587048" style="fill: #db5f57; fill-opacity: 0.6; stroke: #db5f57; stroke-opacity: 0.6"/>
     <use xlink:href="#m452996575d" x="115.49625" y="64.514667" style="fill: #db5f57; fill-opacity: 0.6; stroke: #db5f57; stroke-opacity: 0.6"/>
     <use xlink:href="#m452996575d" x="133.074659" y="75.643837" style="fill: #db5f57; fill-opacity: 0.6; stroke: #db5f57; stroke-opacity: 0.6"/>
     <use xlink:href="#m452996575d" x="78.401932" y="97.077823" style="fill: #db5f57; fill-opacity: 0.6; stroke: #db5f57; stroke-opacity: 0.6"/>
     <use xlink:href="#m452996575d" x="122.2775" y="82.709277" style="fill: #db5f57; fill-opacity: 0.6; stroke: #db5f57; stroke-opacity: 0.6"/>
     <use xlink:href="#m452996575d" x="89.974091" y="114.814138" style="fill: #db5f57; fill-opacity: 0.6; stroke: #db5f57; stroke-opacity: 0.6"/>
     <use xlink:href="#m452996575d" x="105.984886" y="116.996928" style="fill: #db5f57; fill-opacity: 0.6; stroke: #db5f57; stroke-opacity: 0.6"/>
     <use xlink:href="#m452996575d" x="74.157045" y="132.269755" style="fill: #db5f57; fill-opacity: 0.6; stroke: #db5f57; stroke-opacity: 0.6"/>
     <use xlink:href="#m452996575d" x="122.682614" y="76.129313" style="fill: #db5f57; fill-opacity: 0.6; stroke: #db5f57; stroke-opacity: 0.6"/>
     <use xlink:href="#m452996575d" x="85.553068" y="105.692832" style="fill: #db5f57; fill-opacity: 0.6; stroke: #db5f57; stroke-opacity: 0.6"/>
     <use xlink:href="#m452996575d" x="63.483182" y="133.080384" style="fill: #db5f57; fill-opacity: 0.6; stroke: #db5f57; stroke-opacity: 0.6"/>
     <use xlink:href="#m452996575d" x="111.180909" y="71.099776" style="fill: #db5f57; fill-opacity: 0.6; stroke: #db5f57; stroke-opacity: 0.6"/>
     <use xlink:href="#m452996575d" x="149.085455" y="63.695269" style="fill: #db5f57; fill-opacity: 0.6; stroke: #db5f57; stroke-opacity: 0.6"/>
     <use xlink:href="#m452996575d" x="138.059318" y="61.409948" style="fill: #db5f57; fill-opacity: 0.6; stroke: #db5f57; stroke-opacity: 0.6"/>
     <use xlink:href="#m452996575d" x="70.616705" y="125.796693" style="fill: #db5f57; fill-opacity: 0.6; stroke: #db5f57; stroke-opacity: 0.6"/>
     <use xlink:href="#m452996575d" x="114.879773" y="117.0259" style="fill: #db5f57; fill-opacity: 0.6; stroke: #db5f57; stroke-opacity: 0.6"/>
     <use xlink:href="#m452996575d" x="171.137727" y="49.264861" style="fill: #db5f57; fill-opacity: 0.6; stroke: #db5f57; stroke-opacity: 0.6"/>
     <use xlink:href="#m452996575d" x="66.195682" y="136.874528" style="fill: #db5f57; fill-opacity: 0.6; stroke: #db5f57; stroke-opacity: 0.6"/>
     <use xlink:href="#m452996575d" x="66.195682" y="125.252661" style="fill: #db5f57; fill-opacity: 0.6; stroke: #db5f57; stroke-opacity: 0.6"/>
     <use xlink:href="#m452996575d" x="101.845682" y="85.003598" style="fill: #db5f57; fill-opacity: 0.6; stroke: #db5f57; stroke-opacity: 0.6"/>
     <use xlink:href="#m452996575d" x="95.997955" y="94.74966" style="fill: #db5f57; fill-opacity: 0.6; stroke: #db5f57; stroke-opacity: 0.6"/>
     <use xlink:href="#m452996575d" x="58.34" y="138.111382" style="fill: #db5f57; fill-opacity: 0.6; stroke: #db5f57; stroke-opacity: 0.6"/>
     <use xlink:href="#m452996575d" x="115.49625" y="82.983762" style="fill: #db5f57; fill-opacity: 0.6; stroke: #db5f57; stroke-opacity: 0.6"/>
     <use xlink:href="#m452996575d" x="117.380909" y="108.086128" style="fill: #db5f57; fill-opacity: 0.6; stroke: #db5f57; stroke-opacity: 0.6"/>
     <use xlink:href="#m452996575d" x="91.224659" y="95.175642" style="fill: #db5f57; fill-opacity: 0.6; stroke: #db5f57; stroke-opacity: 0.6"/>
     <use xlink:href="#m452996575d" x="139.52125" y="84.176593" style="fill: #db5f57; fill-opacity: 0.6; stroke: #db5f57; stroke-opacity: 0.6"/>
     <use xlink:href="#m452996575d" x="110.176932" y="84.074628" style="fill: #db5f57; fill-opacity: 0.6; stroke: #db5f57; stroke-opacity: 0.6"/>
     <use xlink:href="#m452996575d" x="58.34" y="139.559171" style="fill: #db5f57; fill-opacity: 0.6; stroke: #db5f57; stroke-opacity: 0.6"/>
     <use xlink:href="#m452996575d" x="68.538295" y="132.124075" style="fill: #db5f57; fill-opacity: 0.6; stroke: #db5f57; stroke-opacity: 0.6"/>
     <use xlink:href="#m452996575d" x="58.34" y="139.539563" style="fill: #db5f57; fill-opacity: 0.6; stroke: #db5f57; stroke-opacity: 0.6"/>
     <use xlink:href="#m452996575d" x="75.689432" y="127.645286" style="fill: #db5f57; fill-opacity: 0.6; stroke: #db5f57; stroke-opacity: 0.6"/>
     <use xlink:href="#m452996575d" x="104.611023" y="107.962382" style="fill: #db5f57; fill-opacity: 0.6; stroke: #db5f57; stroke-opacity: 0.6"/>
     <use xlink:href="#m452996575d" x="100.471818" y="84.985392" style="fill: #db5f57; fill-opacity: 0.6; stroke: #db5f57; stroke-opacity: 0.6"/>
     <use xlink:href="#m452996575d" x="58.34" y="139.799113" style="fill: #db5f57; fill-opacity: 0.6; stroke: #db5f57; stroke-opacity: 0.6"/>
     <use xlink:href="#m452996575d" x="81.818977" y="128.570511" style="fill: #db5f57; fill-opacity: 0.6; stroke: #db5f57; stroke-opacity: 0.6"/>
     <use xlink:href="#m452996575d" x="74.157045" y="106.427803" style="fill: #db5f57; fill-opacity: 0.6; stroke: #db5f57; stroke-opacity: 0.6"/>
     <use xlink:href="#m452996575d" x="82.822955" y="124.198549" style="fill: #db5f57; fill-opacity: 0.6; stroke: #db5f57; stroke-opacity: 0.6"/>
     <use xlink:href="#m452996575d" x="91.823523" y="77.343551" style="fill: #db5f57; fill-opacity: 0.6; stroke: #db5f57; stroke-opacity: 0.6"/>
     <use xlink:href="#m452996575d" x="128.160455" y="115.858266" style="fill: #db5f57; fill-opacity: 0.6; stroke: #db5f57; stroke-opacity: 0.6"/>
     <use xlink:href="#m452996575d" x="58.34" y="137.754572" style="fill: #db5f57; fill-opacity: 0.6; stroke: #db5f57; stroke-opacity: 0.6"/>
     <use xlink:href="#m452996575d" x="155.232614" y="73.516845" style="fill: #db5f57; fill-opacity: 0.6; stroke: #db5f57; stroke-opacity: 0.6"/>
     <use xlink:href="#m452996575d" x="80.762159" y="81.206468" style="fill: #db5f57; fill-opacity: 0.6; stroke: #db5f57; stroke-opacity: 0.6"/>
     <use xlink:href="#m452996575d" x="58.34" y="126.426894" style="fill: #db5f57; fill-opacity: 0.6; stroke: #db5f57; stroke-opacity: 0.6"/>
    </g>
   </g>
   <g id="PolyCollection_1">
    <path d="M 58.34 129.589219 
L 58.34 135.905041 
L 59.479371 134.954267 
L 60.618742 133.998248 
L 61.758113 133.041394 
L 62.897484 132.084273 
L 64.036855 131.126944 
L 65.176226 130.169615 
L 66.315597 129.212286 
L 67.454968 128.250334 
L 68.594339 127.288852 
L 69.73371 126.34206 
L 70.873081 125.356236 
L 72.012452 124.417618 
L 73.151823 123.484975 
L 74.291194 122.55224 
L 75.430565 121.613987 
L 76.569936 120.68129 
L 77.709307 119.754247 
L 78.848678 118.788204 
L 79.988049 117.849906 
L 81.12742 116.897493 
L 82.266791 115.995747 
L 83.406162 115.091119 
L 84.545533 114.18569 
L 85.684904 113.259836 
L 86.824275 112.35558 
L 87.963646 111.464566 
L 89.103017 110.499923 
L 90.242388 109.641923 
L 91.381758 108.713001 
L 92.521129 107.778215 
L 93.6605 106.849056 
L 94.799871 106.031867 
L 95.939242 105.122665 
L 97.078613 104.21185 
L 98.217984 103.303785 
L 99.357355 102.395897 
L 100.496726 101.538059 
L 101.636097 100.693133 
L 102.775468 99.797135 
L 103.914839 98.948567 
L 105.05421 98.090658 
L 106.193581 97.224748 
L 107.332952 96.354159 
L 108.472323 95.473176 
L 109.611694 94.57907 
L 110.751065 93.722587 
L 111.890436 92.877591 
L 113.029807 92.002779 
L 114.169178 91.113735 
L 115.308549 90.23329 
L 116.44792 89.398016 
L 117.587291 88.56326 
L 118.726662 87.66957 
L 119.866033 86.809491 
L 121.005404 85.93051 
L 122.144775 85.090973 
L 123.284146 84.227203 
L 124.423517 83.363572 
L 125.562888 82.49496 
L 126.702259 81.625679 
L 127.84163 80.784106 
L 128.981001 79.935879 
L 130.120372 79.06694 
L 131.259743 78.217552 
L 132.399114 77.358663 
L 133.538485 76.502592 
L 134.677856 75.667973 
L 135.817227 74.828166 
L 136.956598 73.982941 
L 138.095969 73.136205 
L 139.23534 72.289292 
L 140.374711 71.442378 
L 141.514082 70.595464 
L 142.653453 69.74855 
L 143.792824 68.901106 
L 144.932195 68.05366 
L 146.071566 67.206214 
L 147.210937 66.358768 
L 148.350308 65.511322 
L 149.489679 64.717276 
L 150.62905 63.878963 
L 151.768421 63.027861 
L 152.907792 62.175934 
L 154.047163 61.324007 
L 155.186534 60.47208 
L 156.325904 59.620153 
L 157.465275 58.768226 
L 158.604646 57.916299 
L 159.744017 57.064372 
L 160.883388 56.212445 
L 162.022759 55.360518 
L 163.16213 54.508591 
L 164.301501 53.675926 
L 165.440872 52.857348 
L 166.580243 52.03877 
L 167.719614 51.220191 
L 168.858985 50.401613 
L 169.998356 49.583035 
L 171.137727 48.764456 
L 171.137727 35.432488 
L 171.137727 35.432488 
L 169.998356 36.429586 
L 168.858985 37.426685 
L 167.719614 38.423784 
L 166.580243 39.420882 
L 165.440872 40.414952 
L 164.301501 41.406267 
L 163.16213 42.397582 
L 162.022759 43.388897 
L 160.883388 44.380401 
L 159.744017 45.386993 
L 158.604646 46.394897 
L 157.465275 47.398324 
L 156.325904 48.406133 
L 155.186534 49.392261 
L 154.047163 50.388968 
L 152.907792 51.386067 
L 151.768421 52.383165 
L 150.62905 53.380264 
L 149.489679 54.377363 
L 148.350308 55.374461 
L 147.210937 56.373713 
L 146.071566 57.36831 
L 144.932195 58.364108 
L 143.792824 59.359906 
L 142.653453 60.356539 
L 141.514082 61.35341 
L 140.374711 62.350282 
L 139.23534 63.347153 
L 138.095969 64.344025 
L 136.956598 65.340896 
L 135.817227 66.313267 
L 134.677856 67.276556 
L 133.538485 68.237814 
L 132.399114 69.192498 
L 131.259743 70.174287 
L 130.120372 71.158511 
L 128.981001 72.155631 
L 127.84163 73.158995 
L 126.702259 74.133444 
L 125.562888 75.111497 
L 124.423517 76.095201 
L 123.284146 77.088068 
L 122.144775 78.102714 
L 121.005404 79.068163 
L 119.866033 80.058064 
L 118.726662 81.01376 
L 117.587291 82.028487 
L 116.44792 83.032803 
L 115.308549 84.030822 
L 114.169178 84.973738 
L 113.029807 85.890432 
L 111.890436 86.825482 
L 110.751065 87.769419 
L 109.611694 88.757914 
L 108.472323 89.709158 
L 107.332952 90.628832 
L 106.193581 91.546149 
L 105.05421 92.463146 
L 103.914839 93.380782 
L 102.775468 94.298231 
L 101.636097 95.216178 
L 100.496726 96.134125 
L 99.357355 97.052071 
L 98.217984 97.97008 
L 97.078613 98.888393 
L 95.939242 99.820526 
L 94.799871 100.777452 
L 93.6605 101.73296 
L 92.521129 102.691765 
L 91.381758 103.648322 
L 90.242388 104.560448 
L 89.103017 105.517507 
L 87.963646 106.400121 
L 86.824275 107.340126 
L 85.684904 108.27864 
L 84.545533 109.211598 
L 83.406162 110.11396 
L 82.266791 111.01762 
L 81.12742 111.920798 
L 79.988049 112.823562 
L 78.848678 113.717668 
L 77.709307 114.599212 
L 76.569936 115.48088 
L 75.430565 116.334968 
L 74.291194 117.242947 
L 73.151823 118.160311 
L 72.012452 119.077676 
L 70.873081 119.93847 
L 69.73371 120.854744 
L 68.594339 121.731102 
L 67.454968 122.603757 
L 66.315597 123.477001 
L 65.176226 124.351157 
L 64.036855 125.247273 
L 62.897484 126.100767 
L 61.758113 126.973994 
L 60.618742 127.838006 
L 59.479371 128.697717 
L 58.34 129.589219 
z
" clip-path="url(#p78479b042f)" style="fill-opacity: 0.15"/>
   </g>
   <g id="matplotlib.axis_1">
    <g id="xtick_1">
     <g id="line2d_1">
      <defs>
       <path id="mec7941155a" d="M 0 0 
L 0 3.5 
" style="stroke: #000000; stroke-width: 0.8"/>
      </defs>
      <g>
       <use xlink:href="#mec7941155a" x="58.34" y="145.8" style="stroke: #000000; stroke-width: 0.8"/>
      </g>
     </g>
     <g id="text_1">
      <!-- 0.00 -->
      <g transform="translate(46.663438 161.389375) scale(0.12 -0.12)">
       <defs>
        <path id="ArialMT-30" d="M 266 2259 
Q 266 3072 433 3567 
Q 600 4063 929 4331 
Q 1259 4600 1759 4600 
Q 2128 4600 2406 4451 
Q 2684 4303 2865 4023 
Q 3047 3744 3150 3342 
Q 3253 2941 3253 2259 
Q 3253 1453 3087 958 
Q 2922 463 2592 192 
Q 2263 -78 1759 -78 
Q 1097 -78 719 397 
Q 266 969 266 2259 
z
M 844 2259 
Q 844 1131 1108 757 
Q 1372 384 1759 384 
Q 2147 384 2411 759 
Q 2675 1134 2675 2259 
Q 2675 3391 2411 3762 
Q 2147 4134 1753 4134 
Q 1366 4134 1134 3806 
Q 844 3388 844 2259 
z
" transform="scale(0.015625)"/>
        <path id="ArialMT-2e" d="M 581 0 
L 581 641 
L 1222 641 
L 1222 0 
L 581 0 
z
" transform="scale(0.015625)"/>
       </defs>
       <use xlink:href="#ArialMT-30"/>
       <use xlink:href="#ArialMT-2e" x="55.615234"/>
       <use xlink:href="#ArialMT-30" x="83.398438"/>
       <use xlink:href="#ArialMT-30" x="139.013672"/>
      </g>
     </g>
    </g>
    <g id="xtick_2">
     <g id="line2d_2">
      <g>
       <use xlink:href="#mec7941155a" x="87.4025" y="145.8" style="stroke: #000000; stroke-width: 0.8"/>
      </g>
     </g>
     <g id="text_2">
      <!-- 0.25 -->
      <g transform="translate(75.725938 161.389375) scale(0.12 -0.12)">
       <defs>
        <path id="ArialMT-32" d="M 3222 541 
L 3222 0 
L 194 0 
Q 188 203 259 391 
Q 375 700 629 1000 
Q 884 1300 1366 1694 
Q 2113 2306 2375 2664 
Q 2638 3022 2638 3341 
Q 2638 3675 2398 3904 
Q 2159 4134 1775 4134 
Q 1369 4134 1125 3890 
Q 881 3647 878 3216 
L 300 3275 
Q 359 3922 746 4261 
Q 1134 4600 1788 4600 
Q 2447 4600 2831 4234 
Q 3216 3869 3216 3328 
Q 3216 3053 3103 2787 
Q 2991 2522 2730 2228 
Q 2469 1934 1863 1422 
Q 1356 997 1212 845 
Q 1069 694 975 541 
L 3222 541 
z
" transform="scale(0.015625)"/>
        <path id="ArialMT-35" d="M 266 1200 
L 856 1250 
Q 922 819 1161 601 
Q 1400 384 1738 384 
Q 2144 384 2425 690 
Q 2706 997 2706 1503 
Q 2706 1984 2436 2262 
Q 2166 2541 1728 2541 
Q 1456 2541 1237 2417 
Q 1019 2294 894 2097 
L 366 2166 
L 809 4519 
L 3088 4519 
L 3088 3981 
L 1259 3981 
L 1013 2750 
Q 1425 3038 1878 3038 
Q 2478 3038 2890 2622 
Q 3303 2206 3303 1553 
Q 3303 931 2941 478 
Q 2500 -78 1738 -78 
Q 1113 -78 717 272 
Q 322 622 266 1200 
z
" transform="scale(0.015625)"/>
       </defs>
       <use xlink:href="#ArialMT-30"/>
       <use xlink:href="#ArialMT-2e" x="55.615234"/>
       <use xlink:href="#ArialMT-32" x="83.398438"/>
       <use xlink:href="#ArialMT-35" x="139.013672"/>
      </g>
     </g>
    </g>
    <g id="xtick_3">
     <g id="line2d_3">
      <g>
       <use xlink:href="#mec7941155a" x="116.465" y="145.8" style="stroke: #000000; stroke-width: 0.8"/>
      </g>
     </g>
     <g id="text_3">
      <!-- 0.50 -->
      <g transform="translate(104.788438 161.389375) scale(0.12 -0.12)">
       <use xlink:href="#ArialMT-30"/>
       <use xlink:href="#ArialMT-2e" x="55.615234"/>
       <use xlink:href="#ArialMT-35" x="83.398438"/>
       <use xlink:href="#ArialMT-30" x="139.013672"/>
      </g>
     </g>
    </g>
    <g id="xtick_4">
     <g id="line2d_4">
      <g>
       <use xlink:href="#mec7941155a" x="145.5275" y="145.8" style="stroke: #000000; stroke-width: 0.8"/>
      </g>
     </g>
     <g id="text_4">
      <!-- 0.75 -->
      <g transform="translate(133.850938 161.389375) scale(0.12 -0.12)">
       <defs>
        <path id="ArialMT-37" d="M 303 3981 
L 303 4522 
L 3269 4522 
L 3269 4084 
Q 2831 3619 2401 2847 
Q 1972 2075 1738 1259 
Q 1569 684 1522 0 
L 944 0 
Q 953 541 1156 1306 
Q 1359 2072 1739 2783 
Q 2119 3494 2547 3981 
L 303 3981 
z
" transform="scale(0.015625)"/>
       </defs>
       <use xlink:href="#ArialMT-30"/>
       <use xlink:href="#ArialMT-2e" x="55.615234"/>
       <use xlink:href="#ArialMT-37" x="83.398438"/>
       <use xlink:href="#ArialMT-35" x="139.013672"/>
      </g>
     </g>
    </g>
    <g id="xtick_5">
     <g id="line2d_5">
      <g>
       <use xlink:href="#mec7941155a" x="174.59" y="145.8" style="stroke: #000000; stroke-width: 0.8"/>
      </g>
     </g>
     <g id="text_5">
      <!-- 1.00 -->
      <g transform="translate(162.913438 161.389375) scale(0.12 -0.12)">
       <defs>
        <path id="ArialMT-31" d="M 2384 0 
L 1822 0 
L 1822 3584 
Q 1619 3391 1289 3197 
Q 959 3003 697 2906 
L 697 3450 
Q 1169 3672 1522 3987 
Q 1875 4303 2022 4600 
L 2384 4600 
L 2384 0 
z
" transform="scale(0.015625)"/>
       </defs>
       <use xlink:href="#ArialMT-31"/>
       <use xlink:href="#ArialMT-2e" x="55.615234"/>
       <use xlink:href="#ArialMT-30" x="83.398438"/>
       <use xlink:href="#ArialMT-30" x="139.013672"/>
      </g>
     </g>
    </g>
    <g id="text_6">
     <!-- Experimental Transfection -->
     <g transform="translate(52.914687 176.51) scale(0.12 -0.12)">
      <defs>
       <path id="ArialMT-45" d="M 506 0 
L 506 4581 
L 3819 4581 
L 3819 4041 
L 1113 4041 
L 1113 2638 
L 3647 2638 
L 3647 2100 
L 1113 2100 
L 1113 541 
L 3925 541 
L 3925 0 
L 506 0 
z
" transform="scale(0.015625)"/>
       <path id="ArialMT-78" d="M 47 0 
L 1259 1725 
L 138 3319 
L 841 3319 
L 1350 2541 
Q 1494 2319 1581 2169 
Q 1719 2375 1834 2534 
L 2394 3319 
L 3066 3319 
L 1919 1756 
L 3153 0 
L 2463 0 
L 1781 1031 
L 1600 1309 
L 728 0 
L 47 0 
z
" transform="scale(0.015625)"/>
       <path id="ArialMT-70" d="M 422 -1272 
L 422 3319 
L 934 3319 
L 934 2888 
Q 1116 3141 1344 3267 
Q 1572 3394 1897 3394 
Q 2322 3394 2647 3175 
Q 2972 2956 3137 2557 
Q 3303 2159 3303 1684 
Q 3303 1175 3120 767 
Q 2938 359 2589 142 
Q 2241 -75 1856 -75 
Q 1575 -75 1351 44 
Q 1128 163 984 344 
L 984 -1272 
L 422 -1272 
z
M 931 1641 
Q 931 1000 1190 694 
Q 1450 388 1819 388 
Q 2194 388 2461 705 
Q 2728 1022 2728 1688 
Q 2728 2322 2467 2637 
Q 2206 2953 1844 2953 
Q 1484 2953 1207 2617 
Q 931 2281 931 1641 
z
" transform="scale(0.015625)"/>
       <path id="ArialMT-65" d="M 2694 1069 
L 3275 997 
Q 3138 488 2766 206 
Q 2394 -75 1816 -75 
Q 1088 -75 661 373 
Q 234 822 234 1631 
Q 234 2469 665 2931 
Q 1097 3394 1784 3394 
Q 2450 3394 2872 2941 
Q 3294 2488 3294 1666 
Q 3294 1616 3291 1516 
L 816 1516 
Q 847 969 1125 678 
Q 1403 388 1819 388 
Q 2128 388 2347 550 
Q 2566 713 2694 1069 
z
M 847 1978 
L 2700 1978 
Q 2663 2397 2488 2606 
Q 2219 2931 1791 2931 
Q 1403 2931 1139 2672 
Q 875 2413 847 1978 
z
" transform="scale(0.015625)"/>
       <path id="ArialMT-72" d="M 416 0 
L 416 3319 
L 922 3319 
L 922 2816 
Q 1116 3169 1280 3281 
Q 1444 3394 1641 3394 
Q 1925 3394 2219 3213 
L 2025 2691 
Q 1819 2813 1613 2813 
Q 1428 2813 1281 2702 
Q 1134 2591 1072 2394 
Q 978 2094 978 1738 
L 978 0 
L 416 0 
z
" transform="scale(0.015625)"/>
       <path id="ArialMT-69" d="M 425 3934 
L 425 4581 
L 988 4581 
L 988 3934 
L 425 3934 
z
M 425 0 
L 425 3319 
L 988 3319 
L 988 0 
L 425 0 
z
" transform="scale(0.015625)"/>
       <path id="ArialMT-6d" d="M 422 0 
L 422 3319 
L 925 3319 
L 925 2853 
Q 1081 3097 1340 3245 
Q 1600 3394 1931 3394 
Q 2300 3394 2536 3241 
Q 2772 3088 2869 2813 
Q 3263 3394 3894 3394 
Q 4388 3394 4653 3120 
Q 4919 2847 4919 2278 
L 4919 0 
L 4359 0 
L 4359 2091 
Q 4359 2428 4304 2576 
Q 4250 2725 4106 2815 
Q 3963 2906 3769 2906 
Q 3419 2906 3187 2673 
Q 2956 2441 2956 1928 
L 2956 0 
L 2394 0 
L 2394 2156 
Q 2394 2531 2256 2718 
Q 2119 2906 1806 2906 
Q 1569 2906 1367 2781 
Q 1166 2656 1075 2415 
Q 984 2175 984 1722 
L 984 0 
L 422 0 
z
" transform="scale(0.015625)"/>
       <path id="ArialMT-6e" d="M 422 0 
L 422 3319 
L 928 3319 
L 928 2847 
Q 1294 3394 1984 3394 
Q 2284 3394 2536 3286 
Q 2788 3178 2913 3003 
Q 3038 2828 3088 2588 
Q 3119 2431 3119 2041 
L 3119 0 
L 2556 0 
L 2556 2019 
Q 2556 2363 2490 2533 
Q 2425 2703 2258 2804 
Q 2091 2906 1866 2906 
Q 1506 2906 1245 2678 
Q 984 2450 984 1813 
L 984 0 
L 422 0 
z
" transform="scale(0.015625)"/>
       <path id="ArialMT-74" d="M 1650 503 
L 1731 6 
Q 1494 -44 1306 -44 
Q 1000 -44 831 53 
Q 663 150 594 308 
Q 525 466 525 972 
L 525 2881 
L 113 2881 
L 113 3319 
L 525 3319 
L 525 4141 
L 1084 4478 
L 1084 3319 
L 1650 3319 
L 1650 2881 
L 1084 2881 
L 1084 941 
Q 1084 700 1114 631 
Q 1144 563 1211 522 
Q 1278 481 1403 481 
Q 1497 481 1650 503 
z
" transform="scale(0.015625)"/>
       <path id="ArialMT-61" d="M 2588 409 
Q 2275 144 1986 34 
Q 1697 -75 1366 -75 
Q 819 -75 525 192 
Q 231 459 231 875 
Q 231 1119 342 1320 
Q 453 1522 633 1644 
Q 813 1766 1038 1828 
Q 1203 1872 1538 1913 
Q 2219 1994 2541 2106 
Q 2544 2222 2544 2253 
Q 2544 2597 2384 2738 
Q 2169 2928 1744 2928 
Q 1347 2928 1158 2789 
Q 969 2650 878 2297 
L 328 2372 
Q 403 2725 575 2942 
Q 747 3159 1072 3276 
Q 1397 3394 1825 3394 
Q 2250 3394 2515 3294 
Q 2781 3194 2906 3042 
Q 3031 2891 3081 2659 
Q 3109 2516 3109 2141 
L 3109 1391 
Q 3109 606 3145 398 
Q 3181 191 3288 0 
L 2700 0 
Q 2613 175 2588 409 
z
M 2541 1666 
Q 2234 1541 1622 1453 
Q 1275 1403 1131 1340 
Q 988 1278 909 1158 
Q 831 1038 831 891 
Q 831 666 1001 516 
Q 1172 366 1500 366 
Q 1825 366 2078 508 
Q 2331 650 2450 897 
Q 2541 1088 2541 1459 
L 2541 1666 
z
" transform="scale(0.015625)"/>
       <path id="ArialMT-6c" d="M 409 0 
L 409 4581 
L 972 4581 
L 972 0 
L 409 0 
z
" transform="scale(0.015625)"/>
       <path id="ArialMT-20" transform="scale(0.015625)"/>
       <path id="ArialMT-54" d="M 1659 0 
L 1659 4041 
L 150 4041 
L 150 4581 
L 3781 4581 
L 3781 4041 
L 2266 4041 
L 2266 0 
L 1659 0 
z
" transform="scale(0.015625)"/>
       <path id="ArialMT-73" d="M 197 991 
L 753 1078 
Q 800 744 1014 566 
Q 1228 388 1613 388 
Q 2000 388 2187 545 
Q 2375 703 2375 916 
Q 2375 1106 2209 1216 
Q 2094 1291 1634 1406 
Q 1016 1563 777 1677 
Q 538 1791 414 1992 
Q 291 2194 291 2438 
Q 291 2659 392 2848 
Q 494 3038 669 3163 
Q 800 3259 1026 3326 
Q 1253 3394 1513 3394 
Q 1903 3394 2198 3281 
Q 2494 3169 2634 2976 
Q 2775 2784 2828 2463 
L 2278 2388 
Q 2241 2644 2061 2787 
Q 1881 2931 1553 2931 
Q 1166 2931 1000 2803 
Q 834 2675 834 2503 
Q 834 2394 903 2306 
Q 972 2216 1119 2156 
Q 1203 2125 1616 2013 
Q 2213 1853 2448 1751 
Q 2684 1650 2818 1456 
Q 2953 1263 2953 975 
Q 2953 694 2789 445 
Q 2625 197 2315 61 
Q 2006 -75 1616 -75 
Q 969 -75 630 194 
Q 291 463 197 991 
z
" transform="scale(0.015625)"/>
       <path id="ArialMT-66" d="M 556 0 
L 556 2881 
L 59 2881 
L 59 3319 
L 556 3319 
L 556 3672 
Q 556 4006 616 4169 
Q 697 4388 901 4523 
Q 1106 4659 1475 4659 
Q 1713 4659 2000 4603 
L 1916 4113 
Q 1741 4144 1584 4144 
Q 1328 4144 1222 4034 
Q 1116 3925 1116 3625 
L 1116 3319 
L 1763 3319 
L 1763 2881 
L 1116 2881 
L 1116 0 
L 556 0 
z
" transform="scale(0.015625)"/>
       <path id="ArialMT-63" d="M 2588 1216 
L 3141 1144 
Q 3050 572 2676 248 
Q 2303 -75 1759 -75 
Q 1078 -75 664 370 
Q 250 816 250 1647 
Q 250 2184 428 2587 
Q 606 2991 970 3192 
Q 1334 3394 1763 3394 
Q 2303 3394 2647 3120 
Q 2991 2847 3088 2344 
L 2541 2259 
Q 2463 2594 2264 2762 
Q 2066 2931 1784 2931 
Q 1359 2931 1093 2626 
Q 828 2322 828 1663 
Q 828 994 1084 691 
Q 1341 388 1753 388 
Q 2084 388 2306 591 
Q 2528 794 2588 1216 
z
" transform="scale(0.015625)"/>
       <path id="ArialMT-6f" d="M 213 1659 
Q 213 2581 725 3025 
Q 1153 3394 1769 3394 
Q 2453 3394 2887 2945 
Q 3322 2497 3322 1706 
Q 3322 1066 3130 698 
Q 2938 331 2570 128 
Q 2203 -75 1769 -75 
Q 1072 -75 642 372 
Q 213 819 213 1659 
z
M 791 1659 
Q 791 1022 1069 705 
Q 1347 388 1769 388 
Q 2188 388 2466 706 
Q 2744 1025 2744 1678 
Q 2744 2294 2464 2611 
Q 2184 2928 1769 2928 
Q 1347 2928 1069 2612 
Q 791 2297 791 1659 
z
" transform="scale(0.015625)"/>
      </defs>
      <use xlink:href="#ArialMT-45"/>
      <use xlink:href="#ArialMT-78" x="66.699219"/>
      <use xlink:href="#ArialMT-70" x="116.699219"/>
      <use xlink:href="#ArialMT-65" x="172.314453"/>
      <use xlink:href="#ArialMT-72" x="227.929688"/>
      <use xlink:href="#ArialMT-69" x="261.230469"/>
      <use xlink:href="#ArialMT-6d" x="283.447266"/>
      <use xlink:href="#ArialMT-65" x="366.748047"/>
      <use xlink:href="#ArialMT-6e" x="422.363281"/>
      <use xlink:href="#ArialMT-74" x="477.978516"/>
      <use xlink:href="#ArialMT-61" x="505.761719"/>
      <use xlink:href="#ArialMT-6c" x="561.376953"/>
      <use xlink:href="#ArialMT-20" x="583.59375"/>
      <use xlink:href="#ArialMT-54" x="609.626953"/>
      <use xlink:href="#ArialMT-72" x="666.960938"/>
      <use xlink:href="#ArialMT-61" x="700.261719"/>
      <use xlink:href="#ArialMT-6e" x="755.876953"/>
      <use xlink:href="#ArialMT-73" x="811.492188"/>
      <use xlink:href="#ArialMT-66" x="861.492188"/>
      <use xlink:href="#ArialMT-65" x="889.275391"/>
      <use xlink:href="#ArialMT-63" x="944.890625"/>
      <use xlink:href="#ArialMT-74" x="994.890625"/>
      <use xlink:href="#ArialMT-69" x="1022.673828"/>
      <use xlink:href="#ArialMT-6f" x="1044.890625"/>
      <use xlink:href="#ArialMT-6e" x="1100.505859"/>
     </g>
    </g>
   </g>
   <g id="matplotlib.axis_2">
    <g id="ytick_1">
     <g id="line2d_6">
      <defs>
       <path id="m4f6643d79e" d="M 0 0 
L -3.5 0 
" style="stroke: #000000; stroke-width: 0.8"/>
      </defs>
      <g>
       <use xlink:href="#m4f6643d79e" x="52.5275" y="140.025" style="stroke: #000000; stroke-width: 0.8"/>
      </g>
     </g>
     <g id="text_7">
      <!-- 0.00 -->
      <g transform="translate(22.174375 144.319687) scale(0.12 -0.12)">
       <use xlink:href="#ArialMT-30"/>
       <use xlink:href="#ArialMT-2e" x="55.615234"/>
       <use xlink:href="#ArialMT-30" x="83.398438"/>
       <use xlink:href="#ArialMT-30" x="139.013672"/>
      </g>
     </g>
    </g>
    <g id="ytick_2">
     <g id="line2d_7">
      <g>
       <use xlink:href="#m4f6643d79e" x="52.5275" y="111.15" style="stroke: #000000; stroke-width: 0.8"/>
      </g>
     </g>
     <g id="text_8">
      <!-- 0.25 -->
      <g transform="translate(22.174375 115.444687) scale(0.12 -0.12)">
       <use xlink:href="#ArialMT-30"/>
       <use xlink:href="#ArialMT-2e" x="55.615234"/>
       <use xlink:href="#ArialMT-32" x="83.398438"/>
       <use xlink:href="#ArialMT-35" x="139.013672"/>
      </g>
     </g>
    </g>
    <g id="ytick_3">
     <g id="line2d_8">
      <g>
       <use xlink:href="#m4f6643d79e" x="52.5275" y="82.275" style="stroke: #000000; stroke-width: 0.8"/>
      </g>
     </g>
     <g id="text_9">
      <!-- 0.50 -->
      <g transform="translate(22.174375 86.569687) scale(0.12 -0.12)">
       <use xlink:href="#ArialMT-30"/>
       <use xlink:href="#ArialMT-2e" x="55.615234"/>
       <use xlink:href="#ArialMT-35" x="83.398438"/>
       <use xlink:href="#ArialMT-30" x="139.013672"/>
      </g>
     </g>
    </g>
    <g id="ytick_4">
     <g id="line2d_9">
      <g>
       <use xlink:href="#m4f6643d79e" x="52.5275" y="53.4" style="stroke: #000000; stroke-width: 0.8"/>
      </g>
     </g>
     <g id="text_10">
      <!-- 0.75 -->
      <g transform="translate(22.174375 57.694687) scale(0.12 -0.12)">
       <use xlink:href="#ArialMT-30"/>
       <use xlink:href="#ArialMT-2e" x="55.615234"/>
       <use xlink:href="#ArialMT-37" x="83.398438"/>
       <use xlink:href="#ArialMT-35" x="139.013672"/>
      </g>
     </g>
    </g>
    <g id="ytick_5">
     <g id="line2d_10">
      <g>
       <use xlink:href="#m4f6643d79e" x="52.5275" y="24.525" style="stroke: #000000; stroke-width: 0.8"/>
      </g>
     </g>
     <g id="text_11">
      <!-- 1.00 -->
      <g transform="translate(22.174375 28.819687) scale(0.12 -0.12)">
       <use xlink:href="#ArialMT-31"/>
       <use xlink:href="#ArialMT-2e" x="55.615234"/>
       <use xlink:href="#ArialMT-30" x="83.398438"/>
       <use xlink:href="#ArialMT-30" x="139.013672"/>
      </g>
     </g>
    </g>
    <g id="text_12">
     <!-- Predicted Transfection -->
     <g transform="translate(15.789375 136.195312) rotate(-90) scale(0.12 -0.12)">
      <defs>
       <path id="ArialMT-50" d="M 494 0 
L 494 4581 
L 2222 4581 
Q 2678 4581 2919 4538 
Q 3256 4481 3484 4323 
Q 3713 4166 3852 3881 
Q 3991 3597 3991 3256 
Q 3991 2672 3619 2267 
Q 3247 1863 2275 1863 
L 1100 1863 
L 1100 0 
L 494 0 
z
M 1100 2403 
L 2284 2403 
Q 2872 2403 3119 2622 
Q 3366 2841 3366 3238 
Q 3366 3525 3220 3729 
Q 3075 3934 2838 4000 
Q 2684 4041 2272 4041 
L 1100 4041 
L 1100 2403 
z
" transform="scale(0.015625)"/>
       <path id="ArialMT-64" d="M 2575 0 
L 2575 419 
Q 2259 -75 1647 -75 
Q 1250 -75 917 144 
Q 584 363 401 755 
Q 219 1147 219 1656 
Q 219 2153 384 2558 
Q 550 2963 881 3178 
Q 1213 3394 1622 3394 
Q 1922 3394 2156 3267 
Q 2391 3141 2538 2938 
L 2538 4581 
L 3097 4581 
L 3097 0 
L 2575 0 
z
M 797 1656 
Q 797 1019 1065 703 
Q 1334 388 1700 388 
Q 2069 388 2326 689 
Q 2584 991 2584 1609 
Q 2584 2291 2321 2609 
Q 2059 2928 1675 2928 
Q 1300 2928 1048 2622 
Q 797 2316 797 1656 
z
" transform="scale(0.015625)"/>
      </defs>
      <use xlink:href="#ArialMT-50"/>
      <use xlink:href="#ArialMT-72" x="66.699219"/>
      <use xlink:href="#ArialMT-65" x="100"/>
      <use xlink:href="#ArialMT-64" x="155.615234"/>
      <use xlink:href="#ArialMT-69" x="211.230469"/>
      <use xlink:href="#ArialMT-63" x="233.447266"/>
      <use xlink:href="#ArialMT-74" x="283.447266"/>
      <use xlink:href="#ArialMT-65" x="311.230469"/>
      <use xlink:href="#ArialMT-64" x="366.845703"/>
      <use xlink:href="#ArialMT-20" x="422.460938"/>
      <use xlink:href="#ArialMT-54" x="448.494141"/>
      <use xlink:href="#ArialMT-72" x="505.828125"/>
      <use xlink:href="#ArialMT-61" x="539.128906"/>
      <use xlink:href="#ArialMT-6e" x="594.744141"/>
      <use xlink:href="#ArialMT-73" x="650.359375"/>
      <use xlink:href="#ArialMT-66" x="700.359375"/>
      <use xlink:href="#ArialMT-65" x="728.142578"/>
      <use xlink:href="#ArialMT-63" x="783.757812"/>
      <use xlink:href="#ArialMT-74" x="833.757812"/>
      <use xlink:href="#ArialMT-69" x="861.541016"/>
      <use xlink:href="#ArialMT-6f" x="883.757812"/>
      <use xlink:href="#ArialMT-6e" x="939.373047"/>
     </g>
    </g>
   </g>
   <g id="line2d_11">
    <path d="M 58.34 132.865533 
L 59.479371 131.95112 
L 60.618742 131.036707 
L 61.758113 130.122295 
L 62.897484 129.207882 
L 64.036855 128.293469 
L 65.176226 127.379057 
L 66.315597 126.464644 
L 67.454968 125.550231 
L 68.594339 124.635819 
L 69.73371 123.721406 
L 70.873081 122.806993 
L 72.012452 121.892581 
L 73.151823 120.978168 
L 74.291194 120.063755 
L 75.430565 119.149343 
L 76.569936 118.23493 
L 77.709307 117.320517 
L 78.848678 116.406105 
L 79.988049 115.491692 
L 81.12742 114.57728 
L 82.266791 113.662867 
L 83.406162 112.748454 
L 84.545533 111.834042 
L 85.684904 110.919629 
L 86.824275 110.005216 
L 87.963646 109.090804 
L 89.103017 108.176391 
L 90.242388 107.261978 
L 91.381758 106.347566 
L 92.521129 105.433153 
L 93.6605 104.51874 
L 94.799871 103.604328 
L 95.939242 102.689915 
L 97.078613 101.775502 
L 98.217984 100.86109 
L 99.357355 99.946677 
L 100.496726 99.032264 
L 101.636097 98.117852 
L 102.775468 97.203439 
L 103.914839 96.289026 
L 105.05421 95.374614 
L 106.193581 94.460201 
L 107.332952 93.545788 
L 108.472323 92.631376 
L 109.611694 91.716963 
L 110.751065 90.802551 
L 111.890436 89.888138 
L 113.029807 88.973725 
L 114.169178 88.059313 
L 115.308549 87.1449 
L 116.44792 86.230487 
L 117.587291 85.316075 
L 118.726662 84.401662 
L 119.866033 83.487249 
L 121.005404 82.572837 
L 122.144775 81.658424 
L 123.284146 80.744011 
L 124.423517 79.829599 
L 125.562888 78.915186 
L 126.702259 78.000773 
L 127.84163 77.086361 
L 128.981001 76.171948 
L 130.120372 75.257535 
L 131.259743 74.343123 
L 132.399114 73.42871 
L 133.538485 72.514297 
L 134.677856 71.599885 
L 135.817227 70.685472 
L 136.956598 69.771059 
L 138.095969 68.856647 
L 139.23534 67.942234 
L 140.374711 67.027822 
L 141.514082 66.113409 
L 142.653453 65.198996 
L 143.792824 64.284584 
L 144.932195 63.370171 
L 146.071566 62.455758 
L 147.210937 61.541346 
L 148.350308 60.626933 
L 149.489679 59.71252 
L 150.62905 58.798108 
L 151.768421 57.883695 
L 152.907792 56.969282 
L 154.047163 56.05487 
L 155.186534 55.140457 
L 156.325904 54.226044 
L 157.465275 53.311632 
L 158.604646 52.397219 
L 159.744017 51.482806 
L 160.883388 50.568394 
L 162.022759 49.653981 
L 163.16213 48.739568 
L 164.301501 47.825156 
L 165.440872 46.910743 
L 166.580243 45.99633 
L 167.719614 45.081918 
L 168.858985 44.167505 
L 169.998356 43.253093 
L 171.137727 42.33868 
" clip-path="url(#p78479b042f)" style="fill: none; stroke-dasharray: 8.325,3.6; stroke-dashoffset: 0; stroke: #000000; stroke-width: 2.25"/>
   </g>
   <g id="patch_3">
    <path d="M 52.5275 145.8 
L 52.5275 7.2 
" style="fill: none; stroke: #000000; stroke-width: 0.8; stroke-linejoin: miter; stroke-linecap: square"/>
   </g>
   <g id="patch_4">
    <path d="M 52.5275 145.8 
L 192.0275 145.8 
" style="fill: none; stroke: #000000; stroke-width: 0.8; stroke-linejoin: miter; stroke-linecap: square"/>
   </g>
   <g id="text_13">
    <!-- Pearsons r = 0.88 -->
    <g transform="translate(66.4775 21.06) scale(0.12 -0.12)">
     <defs>
      <path id="ArialMT-3d" d="M 3381 2694 
L 356 2694 
L 356 3219 
L 3381 3219 
L 3381 2694 
z
M 3381 1303 
L 356 1303 
L 356 1828 
L 3381 1828 
L 3381 1303 
z
" transform="scale(0.015625)"/>
      <path id="ArialMT-38" d="M 1131 2484 
Q 781 2613 612 2850 
Q 444 3088 444 3419 
Q 444 3919 803 4259 
Q 1163 4600 1759 4600 
Q 2359 4600 2725 4251 
Q 3091 3903 3091 3403 
Q 3091 3084 2923 2848 
Q 2756 2613 2416 2484 
Q 2838 2347 3058 2040 
Q 3278 1734 3278 1309 
Q 3278 722 2862 322 
Q 2447 -78 1769 -78 
Q 1091 -78 675 323 
Q 259 725 259 1325 
Q 259 1772 486 2073 
Q 713 2375 1131 2484 
z
M 1019 3438 
Q 1019 3113 1228 2906 
Q 1438 2700 1772 2700 
Q 2097 2700 2305 2904 
Q 2513 3109 2513 3406 
Q 2513 3716 2298 3927 
Q 2084 4138 1766 4138 
Q 1444 4138 1231 3931 
Q 1019 3725 1019 3438 
z
M 838 1322 
Q 838 1081 952 856 
Q 1066 631 1291 507 
Q 1516 384 1775 384 
Q 2178 384 2440 643 
Q 2703 903 2703 1303 
Q 2703 1709 2433 1975 
Q 2163 2241 1756 2241 
Q 1359 2241 1098 1978 
Q 838 1716 838 1322 
z
" transform="scale(0.015625)"/>
     </defs>
     <use xlink:href="#ArialMT-50"/>
     <use xlink:href="#ArialMT-65" x="66.699219"/>
     <use xlink:href="#ArialMT-61" x="122.314453"/>
     <use xlink:href="#ArialMT-72" x="177.929688"/>
     <use xlink:href="#ArialMT-73" x="211.230469"/>
     <use xlink:href="#ArialMT-6f" x="261.230469"/>
     <use xlink:href="#ArialMT-6e" x="316.845703"/>
     <use xlink:href="#ArialMT-73" x="372.460938"/>
     <use xlink:href="#ArialMT-20" x="422.460938"/>
     <use xlink:href="#ArialMT-72" x="450.244141"/>
     <use xlink:href="#ArialMT-20" x="483.544922"/>
     <use xlink:href="#ArialMT-3d" x="511.328125"/>
     <use xlink:href="#ArialMT-20" x="569.726562"/>
     <use xlink:href="#ArialMT-30" x="597.509766"/>
     <use xlink:href="#ArialMT-2e" x="653.125"/>
     <use xlink:href="#ArialMT-38" x="680.908203"/>
     <use xlink:href="#ArialMT-38" x="736.523438"/>
    </g>
   </g>
   <g id="text_14">
    <!-- Spearmans r = 0.89 -->
    <g transform="translate(66.4775 34.92) scale(0.12 -0.12)">
     <defs>
      <path id="ArialMT-53" d="M 288 1472 
L 859 1522 
Q 900 1178 1048 958 
Q 1197 738 1509 602 
Q 1822 466 2213 466 
Q 2559 466 2825 569 
Q 3091 672 3220 851 
Q 3350 1031 3350 1244 
Q 3350 1459 3225 1620 
Q 3100 1781 2813 1891 
Q 2628 1963 1997 2114 
Q 1366 2266 1113 2400 
Q 784 2572 623 2826 
Q 463 3081 463 3397 
Q 463 3744 659 4045 
Q 856 4347 1234 4503 
Q 1613 4659 2075 4659 
Q 2584 4659 2973 4495 
Q 3363 4331 3572 4012 
Q 3781 3694 3797 3291 
L 3216 3247 
Q 3169 3681 2898 3903 
Q 2628 4125 2100 4125 
Q 1550 4125 1298 3923 
Q 1047 3722 1047 3438 
Q 1047 3191 1225 3031 
Q 1400 2872 2139 2705 
Q 2878 2538 3153 2413 
Q 3553 2228 3743 1945 
Q 3934 1663 3934 1294 
Q 3934 928 3725 604 
Q 3516 281 3123 101 
Q 2731 -78 2241 -78 
Q 1619 -78 1198 103 
Q 778 284 539 648 
Q 300 1013 288 1472 
z
" transform="scale(0.015625)"/>
      <path id="ArialMT-39" d="M 350 1059 
L 891 1109 
Q 959 728 1153 556 
Q 1347 384 1650 384 
Q 1909 384 2104 503 
Q 2300 622 2425 820 
Q 2550 1019 2634 1356 
Q 2719 1694 2719 2044 
Q 2719 2081 2716 2156 
Q 2547 1888 2255 1720 
Q 1963 1553 1622 1553 
Q 1053 1553 659 1965 
Q 266 2378 266 3053 
Q 266 3750 677 4175 
Q 1088 4600 1706 4600 
Q 2153 4600 2523 4359 
Q 2894 4119 3086 3673 
Q 3278 3228 3278 2384 
Q 3278 1506 3087 986 
Q 2897 466 2520 194 
Q 2144 -78 1638 -78 
Q 1100 -78 759 220 
Q 419 519 350 1059 
z
M 2653 3081 
Q 2653 3566 2395 3850 
Q 2138 4134 1775 4134 
Q 1400 4134 1122 3828 
Q 844 3522 844 3034 
Q 844 2597 1108 2323 
Q 1372 2050 1759 2050 
Q 2150 2050 2401 2323 
Q 2653 2597 2653 3081 
z
" transform="scale(0.015625)"/>
     </defs>
     <use xlink:href="#ArialMT-53"/>
     <use xlink:href="#ArialMT-70" x="66.699219"/>
     <use xlink:href="#ArialMT-65" x="122.314453"/>
     <use xlink:href="#ArialMT-61" x="177.929688"/>
     <use xlink:href="#ArialMT-72" x="233.544922"/>
     <use xlink:href="#ArialMT-6d" x="266.845703"/>
     <use xlink:href="#ArialMT-61" x="350.146484"/>
     <use xlink:href="#ArialMT-6e" x="405.761719"/>
     <use xlink:href="#ArialMT-73" x="461.376953"/>
     <use xlink:href="#ArialMT-20" x="511.376953"/>
     <use xlink:href="#ArialMT-72" x="539.160156"/>
     <use xlink:href="#ArialMT-20" x="572.460938"/>
     <use xlink:href="#ArialMT-3d" x="600.244141"/>
     <use xlink:href="#ArialMT-20" x="658.642578"/>
     <use xlink:href="#ArialMT-30" x="686.425781"/>
     <use xlink:href="#ArialMT-2e" x="742.041016"/>
     <use xlink:href="#ArialMT-38" x="769.824219"/>
     <use xlink:href="#ArialMT-39" x="825.439453"/>
    </g>
   </g>
  </g>
 </g>
 <defs>
  <clipPath id="p78479b042f">
   <rect x="52.5275" y="7.2" width="139.5" height="138.6"/>
  </clipPath>
 </defs>
</svg>
