<?xml version="1.0" encoding="utf-8" standalone="no"?>
<!DOCTYPE svg PUBLIC "-//W3C//DTD SVG 1.1//EN"
  "http://www.w3.org/Graphics/SVG/1.1/DTD/svg11.dtd">
<svg xmlns:xlink="http://www.w3.org/1999/xlink" width="207.063153pt" height="188.595pt" viewBox="0 0 207.063153 188.595" xmlns="http://www.w3.org/2000/svg" version="1.1">
 <metadata>
  <rdf:RDF xmlns:dc="http://purl.org/dc/elements/1.1/" xmlns:cc="http://creativecommons.org/ns#" xmlns:rdf="http://www.w3.org/1999/02/22-rdf-syntax-ns#">
   <cc:Work>
    <dc:type rdf:resource="http://purl.org/dc/dcmitype/StillImage"/>
    <dc:date>2024-04-12T15:56:36.169258</dc:date>
    <dc:format>image/svg+xml</dc:format>
    <dc:creator>
     <cc:Agent>
      <dc:title>Matplotlib v3.6.3, https://matplotlib.org/</dc:title>
     </cc:Agent>
    </dc:creator>
   </cc:Work>
  </rdf:RDF>
 </metadata>
 <defs>
  <style type="text/css">*{stroke-linejoin: round; stroke-linecap: butt}</style>
 </defs>
 <g id="figure_1">
  <g id="patch_1">
   <path d="M 0 188.595 
L 207.063153 188.595 
L 207.063153 0 
L 0 0 
L 0 188.595 
z
" style="fill: none"/>
  </g>
  <g id="axes_1">
   <g id="patch_2">
    <path d="M 55.0275 145.8 
L 194.5275 145.8 
L 194.5275 7.2 
L 55.0275 7.2 
L 55.0275 145.8 
z
" style="fill: none"/>
   </g>
   <g id="matplotlib.axis_1">
    <g id="xtick_1">
     <g id="line2d_1">
      <defs>
       <path id="m4bdf53ceed" d="M 0 0 
L 0 6 
" style="stroke: #000000; stroke-width: 1.25"/>
      </defs>
      <g>
       <use xlink:href="#m4bdf53ceed" x="61.368409" y="145.8" style="stroke: #000000; stroke-width: 1.25"/>
      </g>
     </g>
     <g id="text_1">
      <!-- 0.00 -->
      <g transform="translate(49.691847 163.889375) scale(0.12 -0.12)">
       <defs>
        <path id="ArialMT-30" d="M 266 2259 
Q 266 3072 433 3567 
Q 600 4063 929 4331 
Q 1259 4600 1759 4600 
Q 2128 4600 2406 4451 
Q 2684 4303 2865 4023 
Q 3047 3744 3150 3342 
Q 3253 2941 3253 2259 
Q 3253 1453 3087 958 
Q 2922 463 2592 192 
Q 2263 -78 1759 -78 
Q 1097 -78 719 397 
Q 266 969 266 2259 
z
M 844 2259 
Q 844 1131 1108 757 
Q 1372 384 1759 384 
Q 2147 384 2411 759 
Q 2675 1134 2675 2259 
Q 2675 3391 2411 3762 
Q 2147 4134 1753 4134 
Q 1366 4134 1134 3806 
Q 844 3388 844 2259 
z
" transform="scale(0.015625)"/>
        <path id="ArialMT-2e" d="M 581 0 
L 581 641 
L 1222 641 
L 1222 0 
L 581 0 
z
" transform="scale(0.015625)"/>
       </defs>
       <use xlink:href="#ArialMT-30"/>
       <use xlink:href="#ArialMT-2e" x="55.615234"/>
       <use xlink:href="#ArialMT-30" x="83.398438"/>
       <use xlink:href="#ArialMT-30" x="139.013672"/>
      </g>
     </g>
    </g>
    <g id="xtick_2">
     <g id="line2d_2">
      <g>
       <use xlink:href="#m4bdf53ceed" x="93.072955" y="145.8" style="stroke: #000000; stroke-width: 1.25"/>
      </g>
     </g>
     <g id="text_2">
      <!-- 0.25 -->
      <g transform="translate(81.396392 163.889375) scale(0.12 -0.12)">
       <defs>
        <path id="ArialMT-32" d="M 3222 541 
L 3222 0 
L 194 0 
Q 188 203 259 391 
Q 375 700 629 1000 
Q 884 1300 1366 1694 
Q 2113 2306 2375 2664 
Q 2638 3022 2638 3341 
Q 2638 3675 2398 3904 
Q 2159 4134 1775 4134 
Q 1369 4134 1125 3890 
Q 881 3647 878 3216 
L 300 3275 
Q 359 3922 746 4261 
Q 1134 4600 1788 4600 
Q 2447 4600 2831 4234 
Q 3216 3869 3216 3328 
Q 3216 3053 3103 2787 
Q 2991 2522 2730 2228 
Q 2469 1934 1863 1422 
Q 1356 997 1212 845 
Q 1069 694 975 541 
L 3222 541 
z
" transform="scale(0.015625)"/>
        <path id="ArialMT-35" d="M 266 1200 
L 856 1250 
Q 922 819 1161 601 
Q 1400 384 1738 384 
Q 2144 384 2425 690 
Q 2706 997 2706 1503 
Q 2706 1984 2436 2262 
Q 2166 2541 1728 2541 
Q 1456 2541 1237 2417 
Q 1019 2294 894 2097 
L 366 2166 
L 809 4519 
L 3088 4519 
L 3088 3981 
L 1259 3981 
L 1013 2750 
Q 1425 3038 1878 3038 
Q 2478 3038 2890 2622 
Q 3303 2206 3303 1553 
Q 3303 931 2941 478 
Q 2500 -78 1738 -78 
Q 1113 -78 717 272 
Q 322 622 266 1200 
z
" transform="scale(0.015625)"/>
       </defs>
       <use xlink:href="#ArialMT-30"/>
       <use xlink:href="#ArialMT-2e" x="55.615234"/>
       <use xlink:href="#ArialMT-32" x="83.398438"/>
       <use xlink:href="#ArialMT-35" x="139.013672"/>
      </g>
     </g>
    </g>
    <g id="xtick_3">
     <g id="line2d_3">
      <g>
       <use xlink:href="#m4bdf53ceed" x="124.7775" y="145.8" style="stroke: #000000; stroke-width: 1.25"/>
      </g>
     </g>
     <g id="text_3">
      <!-- 0.50 -->
      <g transform="translate(113.100938 163.889375) scale(0.12 -0.12)">
       <use xlink:href="#ArialMT-30"/>
       <use xlink:href="#ArialMT-2e" x="55.615234"/>
       <use xlink:href="#ArialMT-35" x="83.398438"/>
       <use xlink:href="#ArialMT-30" x="139.013672"/>
      </g>
     </g>
    </g>
    <g id="xtick_4">
     <g id="line2d_4">
      <g>
       <use xlink:href="#m4bdf53ceed" x="156.482045" y="145.8" style="stroke: #000000; stroke-width: 1.25"/>
      </g>
     </g>
     <g id="text_4">
      <!-- 0.75 -->
      <g transform="translate(144.805483 163.889375) scale(0.12 -0.12)">
       <defs>
        <path id="ArialMT-37" d="M 303 3981 
L 303 4522 
L 3269 4522 
L 3269 4084 
Q 2831 3619 2401 2847 
Q 1972 2075 1738 1259 
Q 1569 684 1522 0 
L 944 0 
Q 953 541 1156 1306 
Q 1359 2072 1739 2783 
Q 2119 3494 2547 3981 
L 303 3981 
z
" transform="scale(0.015625)"/>
       </defs>
       <use xlink:href="#ArialMT-30"/>
       <use xlink:href="#ArialMT-2e" x="55.615234"/>
       <use xlink:href="#ArialMT-37" x="83.398438"/>
       <use xlink:href="#ArialMT-35" x="139.013672"/>
      </g>
     </g>
    </g>
    <g id="xtick_5">
     <g id="line2d_5">
      <g>
       <use xlink:href="#m4bdf53ceed" x="188.186591" y="145.8" style="stroke: #000000; stroke-width: 1.25"/>
      </g>
     </g>
     <g id="text_5">
      <!-- 1.00 -->
      <g transform="translate(176.510028 163.889375) scale(0.12 -0.12)">
       <defs>
        <path id="ArialMT-31" d="M 2384 0 
L 1822 0 
L 1822 3584 
Q 1619 3391 1289 3197 
Q 959 3003 697 2906 
L 697 3450 
Q 1169 3672 1522 3987 
Q 1875 4303 2022 4600 
L 2384 4600 
L 2384 0 
z
" transform="scale(0.015625)"/>
       </defs>
       <use xlink:href="#ArialMT-31"/>
       <use xlink:href="#ArialMT-2e" x="55.615234"/>
       <use xlink:href="#ArialMT-30" x="83.398438"/>
       <use xlink:href="#ArialMT-30" x="139.013672"/>
      </g>
     </g>
    </g>
    <g id="text_6">
     <!-- Experimental Transfection -->
     <g transform="translate(55.414687 179.01) scale(0.12 -0.12)">
      <defs>
       <path id="ArialMT-45" d="M 506 0 
L 506 4581 
L 3819 4581 
L 3819 4041 
L 1113 4041 
L 1113 2638 
L 3647 2638 
L 3647 2100 
L 1113 2100 
L 1113 541 
L 3925 541 
L 3925 0 
L 506 0 
z
" transform="scale(0.015625)"/>
       <path id="ArialMT-78" d="M 47 0 
L 1259 1725 
L 138 3319 
L 841 3319 
L 1350 2541 
Q 1494 2319 1581 2169 
Q 1719 2375 1834 2534 
L 2394 3319 
L 3066 3319 
L 1919 1756 
L 3153 0 
L 2463 0 
L 1781 1031 
L 1600 1309 
L 728 0 
L 47 0 
z
" transform="scale(0.015625)"/>
       <path id="ArialMT-70" d="M 422 -1272 
L 422 3319 
L 934 3319 
L 934 2888 
Q 1116 3141 1344 3267 
Q 1572 3394 1897 3394 
Q 2322 3394 2647 3175 
Q 2972 2956 3137 2557 
Q 3303 2159 3303 1684 
Q 3303 1175 3120 767 
Q 2938 359 2589 142 
Q 2241 -75 1856 -75 
Q 1575 -75 1351 44 
Q 1128 163 984 344 
L 984 -1272 
L 422 -1272 
z
M 931 1641 
Q 931 1000 1190 694 
Q 1450 388 1819 388 
Q 2194 388 2461 705 
Q 2728 1022 2728 1688 
Q 2728 2322 2467 2637 
Q 2206 2953 1844 2953 
Q 1484 2953 1207 2617 
Q 931 2281 931 1641 
z
" transform="scale(0.015625)"/>
       <path id="ArialMT-65" d="M 2694 1069 
L 3275 997 
Q 3138 488 2766 206 
Q 2394 -75 1816 -75 
Q 1088 -75 661 373 
Q 234 822 234 1631 
Q 234 2469 665 2931 
Q 1097 3394 1784 3394 
Q 2450 3394 2872 2941 
Q 3294 2488 3294 1666 
Q 3294 1616 3291 1516 
L 816 1516 
Q 847 969 1125 678 
Q 1403 388 1819 388 
Q 2128 388 2347 550 
Q 2566 713 2694 1069 
z
M 847 1978 
L 2700 1978 
Q 2663 2397 2488 2606 
Q 2219 2931 1791 2931 
Q 1403 2931 1139 2672 
Q 875 2413 847 1978 
z
" transform="scale(0.015625)"/>
       <path id="ArialMT-72" d="M 416 0 
L 416 3319 
L 922 3319 
L 922 2816 
Q 1116 3169 1280 3281 
Q 1444 3394 1641 3394 
Q 1925 3394 2219 3213 
L 2025 2691 
Q 1819 2813 1613 2813 
Q 1428 2813 1281 2702 
Q 1134 2591 1072 2394 
Q 978 2094 978 1738 
L 978 0 
L 416 0 
z
" transform="scale(0.015625)"/>
       <path id="ArialMT-69" d="M 425 3934 
L 425 4581 
L 988 4581 
L 988 3934 
L 425 3934 
z
M 425 0 
L 425 3319 
L 988 3319 
L 988 0 
L 425 0 
z
" transform="scale(0.015625)"/>
       <path id="ArialMT-6d" d="M 422 0 
L 422 3319 
L 925 3319 
L 925 2853 
Q 1081 3097 1340 3245 
Q 1600 3394 1931 3394 
Q 2300 3394 2536 3241 
Q 2772 3088 2869 2813 
Q 3263 3394 3894 3394 
Q 4388 3394 4653 3120 
Q 4919 2847 4919 2278 
L 4919 0 
L 4359 0 
L 4359 2091 
Q 4359 2428 4304 2576 
Q 4250 2725 4106 2815 
Q 3963 2906 3769 2906 
Q 3419 2906 3187 2673 
Q 2956 2441 2956 1928 
L 2956 0 
L 2394 0 
L 2394 2156 
Q 2394 2531 2256 2718 
Q 2119 2906 1806 2906 
Q 1569 2906 1367 2781 
Q 1166 2656 1075 2415 
Q 984 2175 984 1722 
L 984 0 
L 422 0 
z
" transform="scale(0.015625)"/>
       <path id="ArialMT-6e" d="M 422 0 
L 422 3319 
L 928 3319 
L 928 2847 
Q 1294 3394 1984 3394 
Q 2284 3394 2536 3286 
Q 2788 3178 2913 3003 
Q 3038 2828 3088 2588 
Q 3119 2431 3119 2041 
L 3119 0 
L 2556 0 
L 2556 2019 
Q 2556 2363 2490 2533 
Q 2425 2703 2258 2804 
Q 2091 2906 1866 2906 
Q 1506 2906 1245 2678 
Q 984 2450 984 1813 
L 984 0 
L 422 0 
z
" transform="scale(0.015625)"/>
       <path id="ArialMT-74" d="M 1650 503 
L 1731 6 
Q 1494 -44 1306 -44 
Q 1000 -44 831 53 
Q 663 150 594 308 
Q 525 466 525 972 
L 525 2881 
L 113 2881 
L 113 3319 
L 525 3319 
L 525 4141 
L 1084 4478 
L 1084 3319 
L 1650 3319 
L 1650 2881 
L 1084 2881 
L 1084 941 
Q 1084 700 1114 631 
Q 1144 563 1211 522 
Q 1278 481 1403 481 
Q 1497 481 1650 503 
z
" transform="scale(0.015625)"/>
       <path id="ArialMT-61" d="M 2588 409 
Q 2275 144 1986 34 
Q 1697 -75 1366 -75 
Q 819 -75 525 192 
Q 231 459 231 875 
Q 231 1119 342 1320 
Q 453 1522 633 1644 
Q 813 1766 1038 1828 
Q 1203 1872 1538 1913 
Q 2219 1994 2541 2106 
Q 2544 2222 2544 2253 
Q 2544 2597 2384 2738 
Q 2169 2928 1744 2928 
Q 1347 2928 1158 2789 
Q 969 2650 878 2297 
L 328 2372 
Q 403 2725 575 2942 
Q 747 3159 1072 3276 
Q 1397 3394 1825 3394 
Q 2250 3394 2515 3294 
Q 2781 3194 2906 3042 
Q 3031 2891 3081 2659 
Q 3109 2516 3109 2141 
L 3109 1391 
Q 3109 606 3145 398 
Q 3181 191 3288 0 
L 2700 0 
Q 2613 175 2588 409 
z
M 2541 1666 
Q 2234 1541 1622 1453 
Q 1275 1403 1131 1340 
Q 988 1278 909 1158 
Q 831 1038 831 891 
Q 831 666 1001 516 
Q 1172 366 1500 366 
Q 1825 366 2078 508 
Q 2331 650 2450 897 
Q 2541 1088 2541 1459 
L 2541 1666 
z
" transform="scale(0.015625)"/>
       <path id="ArialMT-6c" d="M 409 0 
L 409 4581 
L 972 4581 
L 972 0 
L 409 0 
z
" transform="scale(0.015625)"/>
       <path id="ArialMT-20" transform="scale(0.015625)"/>
       <path id="ArialMT-54" d="M 1659 0 
L 1659 4041 
L 150 4041 
L 150 4581 
L 3781 4581 
L 3781 4041 
L 2266 4041 
L 2266 0 
L 1659 0 
z
" transform="scale(0.015625)"/>
       <path id="ArialMT-73" d="M 197 991 
L 753 1078 
Q 800 744 1014 566 
Q 1228 388 1613 388 
Q 2000 388 2187 545 
Q 2375 703 2375 916 
Q 2375 1106 2209 1216 
Q 2094 1291 1634 1406 
Q 1016 1563 777 1677 
Q 538 1791 414 1992 
Q 291 2194 291 2438 
Q 291 2659 392 2848 
Q 494 3038 669 3163 
Q 800 3259 1026 3326 
Q 1253 3394 1513 3394 
Q 1903 3394 2198 3281 
Q 2494 3169 2634 2976 
Q 2775 2784 2828 2463 
L 2278 2388 
Q 2241 2644 2061 2787 
Q 1881 2931 1553 2931 
Q 1166 2931 1000 2803 
Q 834 2675 834 2503 
Q 834 2394 903 2306 
Q 972 2216 1119 2156 
Q 1203 2125 1616 2013 
Q 2213 1853 2448 1751 
Q 2684 1650 2818 1456 
Q 2953 1263 2953 975 
Q 2953 694 2789 445 
Q 2625 197 2315 61 
Q 2006 -75 1616 -75 
Q 969 -75 630 194 
Q 291 463 197 991 
z
" transform="scale(0.015625)"/>
       <path id="ArialMT-66" d="M 556 0 
L 556 2881 
L 59 2881 
L 59 3319 
L 556 3319 
L 556 3672 
Q 556 4006 616 4169 
Q 697 4388 901 4523 
Q 1106 4659 1475 4659 
Q 1713 4659 2000 4603 
L 1916 4113 
Q 1741 4144 1584 4144 
Q 1328 4144 1222 4034 
Q 1116 3925 1116 3625 
L 1116 3319 
L 1763 3319 
L 1763 2881 
L 1116 2881 
L 1116 0 
L 556 0 
z
" transform="scale(0.015625)"/>
       <path id="ArialMT-63" d="M 2588 1216 
L 3141 1144 
Q 3050 572 2676 248 
Q 2303 -75 1759 -75 
Q 1078 -75 664 370 
Q 250 816 250 1647 
Q 250 2184 428 2587 
Q 606 2991 970 3192 
Q 1334 3394 1763 3394 
Q 2303 3394 2647 3120 
Q 2991 2847 3088 2344 
L 2541 2259 
Q 2463 2594 2264 2762 
Q 2066 2931 1784 2931 
Q 1359 2931 1093 2626 
Q 828 2322 828 1663 
Q 828 994 1084 691 
Q 1341 388 1753 388 
Q 2084 388 2306 591 
Q 2528 794 2588 1216 
z
" transform="scale(0.015625)"/>
       <path id="ArialMT-6f" d="M 213 1659 
Q 213 2581 725 3025 
Q 1153 3394 1769 3394 
Q 2453 3394 2887 2945 
Q 3322 2497 3322 1706 
Q 3322 1066 3130 698 
Q 2938 331 2570 128 
Q 2203 -75 1769 -75 
Q 1072 -75 642 372 
Q 213 819 213 1659 
z
M 791 1659 
Q 791 1022 1069 705 
Q 1347 388 1769 388 
Q 2188 388 2466 706 
Q 2744 1025 2744 1678 
Q 2744 2294 2464 2611 
Q 2184 2928 1769 2928 
Q 1347 2928 1069 2612 
Q 791 2297 791 1659 
z
" transform="scale(0.015625)"/>
      </defs>
      <use xlink:href="#ArialMT-45"/>
      <use xlink:href="#ArialMT-78" x="66.699219"/>
      <use xlink:href="#ArialMT-70" x="116.699219"/>
      <use xlink:href="#ArialMT-65" x="172.314453"/>
      <use xlink:href="#ArialMT-72" x="227.929688"/>
      <use xlink:href="#ArialMT-69" x="261.230469"/>
      <use xlink:href="#ArialMT-6d" x="283.447266"/>
      <use xlink:href="#ArialMT-65" x="366.748047"/>
      <use xlink:href="#ArialMT-6e" x="422.363281"/>
      <use xlink:href="#ArialMT-74" x="477.978516"/>
      <use xlink:href="#ArialMT-61" x="505.761719"/>
      <use xlink:href="#ArialMT-6c" x="561.376953"/>
      <use xlink:href="#ArialMT-20" x="583.59375"/>
      <use xlink:href="#ArialMT-54" x="609.626953"/>
      <use xlink:href="#ArialMT-72" x="666.960938"/>
      <use xlink:href="#ArialMT-61" x="700.261719"/>
      <use xlink:href="#ArialMT-6e" x="755.876953"/>
      <use xlink:href="#ArialMT-73" x="811.492188"/>
      <use xlink:href="#ArialMT-66" x="861.492188"/>
      <use xlink:href="#ArialMT-65" x="889.275391"/>
      <use xlink:href="#ArialMT-63" x="944.890625"/>
      <use xlink:href="#ArialMT-74" x="994.890625"/>
      <use xlink:href="#ArialMT-69" x="1022.673828"/>
      <use xlink:href="#ArialMT-6f" x="1044.890625"/>
      <use xlink:href="#ArialMT-6e" x="1100.505859"/>
     </g>
    </g>
   </g>
   <g id="matplotlib.axis_2">
    <g id="ytick_1">
     <g id="line2d_6">
      <defs>
       <path id="m1587582aa8" d="M 0 0 
L -6 0 
" style="stroke: #000000; stroke-width: 1.25"/>
      </defs>
      <g>
       <use xlink:href="#m1587582aa8" x="55.0275" y="139.5" style="stroke: #000000; stroke-width: 1.25"/>
      </g>
     </g>
     <g id="text_7">
      <!-- 0.00 -->
      <g transform="translate(22.174375 143.794688) scale(0.12 -0.12)">
       <use xlink:href="#ArialMT-30"/>
       <use xlink:href="#ArialMT-2e" x="55.615234"/>
       <use xlink:href="#ArialMT-30" x="83.398438"/>
       <use xlink:href="#ArialMT-30" x="139.013672"/>
      </g>
     </g>
    </g>
    <g id="ytick_2">
     <g id="line2d_7">
      <g>
       <use xlink:href="#m1587582aa8" x="55.0275" y="108" style="stroke: #000000; stroke-width: 1.25"/>
      </g>
     </g>
     <g id="text_8">
      <!-- 0.25 -->
      <g transform="translate(22.174375 112.294688) scale(0.12 -0.12)">
       <use xlink:href="#ArialMT-30"/>
       <use xlink:href="#ArialMT-2e" x="55.615234"/>
       <use xlink:href="#ArialMT-32" x="83.398438"/>
       <use xlink:href="#ArialMT-35" x="139.013672"/>
      </g>
     </g>
    </g>
    <g id="ytick_3">
     <g id="line2d_8">
      <g>
       <use xlink:href="#m1587582aa8" x="55.0275" y="76.5" style="stroke: #000000; stroke-width: 1.25"/>
      </g>
     </g>
     <g id="text_9">
      <!-- 0.50 -->
      <g transform="translate(22.174375 80.794688) scale(0.12 -0.12)">
       <use xlink:href="#ArialMT-30"/>
       <use xlink:href="#ArialMT-2e" x="55.615234"/>
       <use xlink:href="#ArialMT-35" x="83.398438"/>
       <use xlink:href="#ArialMT-30" x="139.013672"/>
      </g>
     </g>
    </g>
    <g id="ytick_4">
     <g id="line2d_9">
      <g>
       <use xlink:href="#m1587582aa8" x="55.0275" y="45" style="stroke: #000000; stroke-width: 1.25"/>
      </g>
     </g>
     <g id="text_10">
      <!-- 0.75 -->
      <g transform="translate(22.174375 49.294688) scale(0.12 -0.12)">
       <use xlink:href="#ArialMT-30"/>
       <use xlink:href="#ArialMT-2e" x="55.615234"/>
       <use xlink:href="#ArialMT-37" x="83.398438"/>
       <use xlink:href="#ArialMT-35" x="139.013672"/>
      </g>
     </g>
    </g>
    <g id="ytick_5">
     <g id="line2d_10">
      <g>
       <use xlink:href="#m1587582aa8" x="55.0275" y="13.5" style="stroke: #000000; stroke-width: 1.25"/>
      </g>
     </g>
     <g id="text_11">
      <!-- 1.00 -->
      <g transform="translate(22.174375 17.794688) scale(0.12 -0.12)">
       <use xlink:href="#ArialMT-31"/>
       <use xlink:href="#ArialMT-2e" x="55.615234"/>
       <use xlink:href="#ArialMT-30" x="83.398438"/>
       <use xlink:href="#ArialMT-30" x="139.013672"/>
      </g>
     </g>
    </g>
    <g id="text_12">
     <!-- Predicted Transfection -->
     <g transform="translate(15.789375 136.195312) rotate(-90) scale(0.12 -0.12)">
      <defs>
       <path id="ArialMT-50" d="M 494 0 
L 494 4581 
L 2222 4581 
Q 2678 4581 2919 4538 
Q 3256 4481 3484 4323 
Q 3713 4166 3852 3881 
Q 3991 3597 3991 3256 
Q 3991 2672 3619 2267 
Q 3247 1863 2275 1863 
L 1100 1863 
L 1100 0 
L 494 0 
z
M 1100 2403 
L 2284 2403 
Q 2872 2403 3119 2622 
Q 3366 2841 3366 3238 
Q 3366 3525 3220 3729 
Q 3075 3934 2838 4000 
Q 2684 4041 2272 4041 
L 1100 4041 
L 1100 2403 
z
" transform="scale(0.015625)"/>
       <path id="ArialMT-64" d="M 2575 0 
L 2575 419 
Q 2259 -75 1647 -75 
Q 1250 -75 917 144 
Q 584 363 401 755 
Q 219 1147 219 1656 
Q 219 2153 384 2558 
Q 550 2963 881 3178 
Q 1213 3394 1622 3394 
Q 1922 3394 2156 3267 
Q 2391 3141 2538 2938 
L 2538 4581 
L 3097 4581 
L 3097 0 
L 2575 0 
z
M 797 1656 
Q 797 1019 1065 703 
Q 1334 388 1700 388 
Q 2069 388 2326 689 
Q 2584 991 2584 1609 
Q 2584 2291 2321 2609 
Q 2059 2928 1675 2928 
Q 1300 2928 1048 2622 
Q 797 2316 797 1656 
z
" transform="scale(0.015625)"/>
      </defs>
      <use xlink:href="#ArialMT-50"/>
      <use xlink:href="#ArialMT-72" x="66.699219"/>
      <use xlink:href="#ArialMT-65" x="100"/>
      <use xlink:href="#ArialMT-64" x="155.615234"/>
      <use xlink:href="#ArialMT-69" x="211.230469"/>
      <use xlink:href="#ArialMT-63" x="233.447266"/>
      <use xlink:href="#ArialMT-74" x="283.447266"/>
      <use xlink:href="#ArialMT-65" x="311.230469"/>
      <use xlink:href="#ArialMT-64" x="366.845703"/>
      <use xlink:href="#ArialMT-20" x="422.460938"/>
      <use xlink:href="#ArialMT-54" x="448.494141"/>
      <use xlink:href="#ArialMT-72" x="505.828125"/>
      <use xlink:href="#ArialMT-61" x="539.128906"/>
      <use xlink:href="#ArialMT-6e" x="594.744141"/>
      <use xlink:href="#ArialMT-73" x="650.359375"/>
      <use xlink:href="#ArialMT-66" x="700.359375"/>
      <use xlink:href="#ArialMT-65" x="728.142578"/>
      <use xlink:href="#ArialMT-63" x="783.757812"/>
      <use xlink:href="#ArialMT-74" x="833.757812"/>
      <use xlink:href="#ArialMT-69" x="861.541016"/>
      <use xlink:href="#ArialMT-6f" x="883.757812"/>
      <use xlink:href="#ArialMT-6e" x="939.373047"/>
     </g>
    </g>
   </g>
   <g id="PathCollection_1">
    <defs>
     <path id="m9a590d66e8" d="M 0 1.5 
C 0.397805 1.5 0.77937 1.341951 1.06066 1.06066 
C 1.341951 0.77937 1.5 0.397805 1.5 0 
C 1.5 -0.397805 1.341951 -0.77937 1.06066 -1.06066 
C 0.77937 -1.341951 0.397805 -1.5 0 -1.5 
C -0.397805 -1.5 -0.77937 -1.341951 -1.06066 -1.06066 
C -1.341951 -0.77937 -1.5 -0.397805 -1.5 0 
C -1.5 0.397805 -1.341951 0.77937 -1.06066 1.06066 
C -0.77937 1.341951 -0.397805 1.5 0 1.5 
z
" style="stroke: #db5f57; stroke-opacity: 0.6"/>
    </defs>
    <g clip-path="url(#p778279c829)">
     <use xlink:href="#m9a590d66e8" x="84.561114" y="83.175234" style="fill: #db5f57; fill-opacity: 0.6; stroke: #db5f57; stroke-opacity: 0.6"/>
     <use xlink:href="#m9a590d66e8" x="71.175274" y="120.623398" style="fill: #db5f57; fill-opacity: 0.6; stroke: #db5f57; stroke-opacity: 0.6"/>
     <use xlink:href="#m9a590d66e8" x="99.147795" y="115.490311" style="fill: #db5f57; fill-opacity: 0.6; stroke: #db5f57; stroke-opacity: 0.6"/>
     <use xlink:href="#m9a590d66e8" x="114.464399" y="83.321093" style="fill: #db5f57; fill-opacity: 0.6; stroke: #db5f57; stroke-opacity: 0.6"/>
     <use xlink:href="#m9a590d66e8" x="138.233978" y="31.72533" style="fill: #db5f57; fill-opacity: 0.6; stroke: #db5f57; stroke-opacity: 0.6"/>
     <use xlink:href="#m9a590d66e8" x="96.616612" y="107.934998" style="fill: #db5f57; fill-opacity: 0.6; stroke: #db5f57; stroke-opacity: 0.6"/>
     <use xlink:href="#m9a590d66e8" x="118.749751" y="80.123088" style="fill: #db5f57; fill-opacity: 0.6; stroke: #db5f57; stroke-opacity: 0.6"/>
     <use xlink:href="#m9a590d66e8" x="144.991649" y="42.688003" style="fill: #db5f57; fill-opacity: 0.6; stroke: #db5f57; stroke-opacity: 0.6"/>
     <use xlink:href="#m9a590d66e8" x="179.99262" y="27.845893" style="fill: #db5f57; fill-opacity: 0.6; stroke: #db5f57; stroke-opacity: 0.6"/>
     <use xlink:href="#m9a590d66e8" x="63.016622" y="114.361032" style="fill: #db5f57; fill-opacity: 0.6; stroke: #db5f57; stroke-opacity: 0.6"/>
     <use xlink:href="#m9a590d66e8" x="140.635659" y="68.73851" style="fill: #db5f57; fill-opacity: 0.6; stroke: #db5f57; stroke-opacity: 0.6"/>
     <use xlink:href="#m9a590d66e8" x="91.307013" y="113.005374" style="fill: #db5f57; fill-opacity: 0.6; stroke: #db5f57; stroke-opacity: 0.6"/>
     <use xlink:href="#m9a590d66e8" x="70.092163" y="100.970237" style="fill: #db5f57; fill-opacity: 0.6; stroke: #db5f57; stroke-opacity: 0.6"/>
     <use xlink:href="#m9a590d66e8" x="103.645061" y="99.55962" style="fill: #db5f57; fill-opacity: 0.6; stroke: #db5f57; stroke-opacity: 0.6"/>
     <use xlink:href="#m9a590d66e8" x="86.786201" y="123.109947" style="fill: #db5f57; fill-opacity: 0.6; stroke: #db5f57; stroke-opacity: 0.6"/>
     <use xlink:href="#m9a590d66e8" x="119.326626" y="79.932312" style="fill: #db5f57; fill-opacity: 0.6; stroke: #db5f57; stroke-opacity: 0.6"/>
     <use xlink:href="#m9a590d66e8" x="117.077993" y="71.245212" style="fill: #db5f57; fill-opacity: 0.6; stroke: #db5f57; stroke-opacity: 0.6"/>
     <use xlink:href="#m9a590d66e8" x="123.199925" y="84.649077" style="fill: #db5f57; fill-opacity: 0.6; stroke: #db5f57; stroke-opacity: 0.6"/>
     <use xlink:href="#m9a590d66e8" x="128.403568" y="76.401079" style="fill: #db5f57; fill-opacity: 0.6; stroke: #db5f57; stroke-opacity: 0.6"/>
     <use xlink:href="#m9a590d66e8" x="77.462027" y="98.291289" style="fill: #db5f57; fill-opacity: 0.6; stroke: #db5f57; stroke-opacity: 0.6"/>
     <use xlink:href="#m9a590d66e8" x="165.088069" y="44.536291" style="fill: #db5f57; fill-opacity: 0.6; stroke: #db5f57; stroke-opacity: 0.6"/>
     <use xlink:href="#m9a590d66e8" x="132.241548" y="65.477677" style="fill: #db5f57; fill-opacity: 0.6; stroke: #db5f57; stroke-opacity: 0.6"/>
     <use xlink:href="#m9a590d66e8" x="94.285568" y="93.112104" style="fill: #db5f57; fill-opacity: 0.6; stroke: #db5f57; stroke-opacity: 0.6"/>
     <use xlink:href="#m9a590d66e8" x="132.147365" y="53.893582" style="fill: #db5f57; fill-opacity: 0.6; stroke: #db5f57; stroke-opacity: 0.6"/>
     <use xlink:href="#m9a590d66e8" x="106.39993" y="92.433211" style="fill: #db5f57; fill-opacity: 0.6; stroke: #db5f57; stroke-opacity: 0.6"/>
     <use xlink:href="#m9a590d66e8" x="88.175409" y="92.991386" style="fill: #db5f57; fill-opacity: 0.6; stroke: #db5f57; stroke-opacity: 0.6"/>
     <use xlink:href="#m9a590d66e8" x="140.741616" y="67.089837" style="fill: #db5f57; fill-opacity: 0.6; stroke: #db5f57; stroke-opacity: 0.6"/>
     <use xlink:href="#m9a590d66e8" x="162.085968" y="37.269142" style="fill: #db5f57; fill-opacity: 0.6; stroke: #db5f57; stroke-opacity: 0.6"/>
     <use xlink:href="#m9a590d66e8" x="138.88149" y="71.083264" style="fill: #db5f57; fill-opacity: 0.6; stroke: #db5f57; stroke-opacity: 0.6"/>
     <use xlink:href="#m9a590d66e8" x="119.350172" y="82.848151" style="fill: #db5f57; fill-opacity: 0.6; stroke: #db5f57; stroke-opacity: 0.6"/>
     <use xlink:href="#m9a590d66e8" x="119.456128" y="82.378345" style="fill: #db5f57; fill-opacity: 0.6; stroke: #db5f57; stroke-opacity: 0.6"/>
     <use xlink:href="#m9a590d66e8" x="173.811823" y="45.36042" style="fill: #db5f57; fill-opacity: 0.6; stroke: #db5f57; stroke-opacity: 0.6"/>
     <use xlink:href="#m9a590d66e8" x="168.00776" y="55.095436" style="fill: #db5f57; fill-opacity: 0.6; stroke: #db5f57; stroke-opacity: 0.6"/>
     <use xlink:href="#m9a590d66e8" x="116.089065" y="85.936208" style="fill: #db5f57; fill-opacity: 0.6; stroke: #db5f57; stroke-opacity: 0.6"/>
     <use xlink:href="#m9a590d66e8" x="121.469302" y="79.9289" style="fill: #db5f57; fill-opacity: 0.6; stroke: #db5f57; stroke-opacity: 0.6"/>
     <use xlink:href="#m9a590d66e8" x="123.953394" y="76.409935" style="fill: #db5f57; fill-opacity: 0.6; stroke: #db5f57; stroke-opacity: 0.6"/>
     <use xlink:href="#m9a590d66e8" x="98.253051" y="109.662617" style="fill: #db5f57; fill-opacity: 0.6; stroke: #db5f57; stroke-opacity: 0.6"/>
     <use xlink:href="#m9a590d66e8" x="170.291712" y="27.562125" style="fill: #db5f57; fill-opacity: 0.6; stroke: #db5f57; stroke-opacity: 0.6"/>
     <use xlink:href="#m9a590d66e8" x="167.242519" y="46.830363" style="fill: #db5f57; fill-opacity: 0.6; stroke: #db5f57; stroke-opacity: 0.6"/>
     <use xlink:href="#m9a590d66e8" x="154.198094" y="48.56845" style="fill: #db5f57; fill-opacity: 0.6; stroke: #db5f57; stroke-opacity: 0.6"/>
     <use xlink:href="#m9a590d66e8" x="109.849404" y="83.903219" style="fill: #db5f57; fill-opacity: 0.6; stroke: #db5f57; stroke-opacity: 0.6"/>
     <use xlink:href="#m9a590d66e8" x="107.883321" y="118.038889" style="fill: #db5f57; fill-opacity: 0.6; stroke: #db5f57; stroke-opacity: 0.6"/>
     <use xlink:href="#m9a590d66e8" x="100.077858" y="83.387979" style="fill: #db5f57; fill-opacity: 0.6; stroke: #db5f57; stroke-opacity: 0.6"/>
     <use xlink:href="#m9a590d66e8" x="100.913737" y="100.386365" style="fill: #db5f57; fill-opacity: 0.6; stroke: #db5f57; stroke-opacity: 0.6"/>
     <use xlink:href="#m9a590d66e8" x="87.833993" y="118.140559" style="fill: #db5f57; fill-opacity: 0.6; stroke: #db5f57; stroke-opacity: 0.6"/>
     <use xlink:href="#m9a590d66e8" x="139.587867" y="59.182621" style="fill: #db5f57; fill-opacity: 0.6; stroke: #db5f57; stroke-opacity: 0.6"/>
     <use xlink:href="#m9a590d66e8" x="75.23694" y="66.925815" style="fill: #db5f57; fill-opacity: 0.6; stroke: #db5f57; stroke-opacity: 0.6"/>
     <use xlink:href="#m9a590d66e8" x="142.719471" y="59.490891" style="fill: #db5f57; fill-opacity: 0.6; stroke: #db5f57; stroke-opacity: 0.6"/>
     <use xlink:href="#m9a590d66e8" x="68.891322" y="109.934031" style="fill: #db5f57; fill-opacity: 0.6; stroke: #db5f57; stroke-opacity: 0.6"/>
     <use xlink:href="#m9a590d66e8" x="143.932084" y="55.5279" style="fill: #db5f57; fill-opacity: 0.6; stroke: #db5f57; stroke-opacity: 0.6"/>
     <use xlink:href="#m9a590d66e8" x="108.625017" y="87.001504" style="fill: #db5f57; fill-opacity: 0.6; stroke: #db5f57; stroke-opacity: 0.6"/>
     <use xlink:href="#m9a590d66e8" x="111.956761" y="76.694689" style="fill: #db5f57; fill-opacity: 0.6; stroke: #db5f57; stroke-opacity: 0.6"/>
     <use xlink:href="#m9a590d66e8" x="151.06649" y="35.799343" style="fill: #db5f57; fill-opacity: 0.6; stroke: #db5f57; stroke-opacity: 0.6"/>
     <use xlink:href="#m9a590d66e8" x="118.38479" y="94.485714" style="fill: #db5f57; fill-opacity: 0.6; stroke: #db5f57; stroke-opacity: 0.6"/>
     <use xlink:href="#m9a590d66e8" x="131.782403" y="62.530281" style="fill: #db5f57; fill-opacity: 0.6; stroke: #db5f57; stroke-opacity: 0.6"/>
     <use xlink:href="#m9a590d66e8" x="130.805249" y="83.667111" style="fill: #db5f57; fill-opacity: 0.6; stroke: #db5f57; stroke-opacity: 0.6"/>
     <use xlink:href="#m9a590d66e8" x="127.379321" y="62.563899" style="fill: #db5f57; fill-opacity: 0.6; stroke: #db5f57; stroke-opacity: 0.6"/>
     <use xlink:href="#m9a590d66e8" x="121.763626" y="89.863515" style="fill: #db5f57; fill-opacity: 0.6; stroke: #db5f57; stroke-opacity: 0.6"/>
     <use xlink:href="#m9a590d66e8" x="121.445756" y="47.672448" style="fill: #db5f57; fill-opacity: 0.6; stroke: #db5f57; stroke-opacity: 0.6"/>
     <use xlink:href="#m9a590d66e8" x="144.932785" y="47.691835" style="fill: #db5f57; fill-opacity: 0.6; stroke: #db5f57; stroke-opacity: 0.6"/>
     <use xlink:href="#m9a590d66e8" x="121.869582" y="84.960315" style="fill: #db5f57; fill-opacity: 0.6; stroke: #db5f57; stroke-opacity: 0.6"/>
     <use xlink:href="#m9a590d66e8" x="155.481345" y="65.939868" style="fill: #db5f57; fill-opacity: 0.6; stroke: #db5f57; stroke-opacity: 0.6"/>
     <use xlink:href="#m9a590d66e8" x="154.492417" y="60.412004" style="fill: #db5f57; fill-opacity: 0.6; stroke: #db5f57; stroke-opacity: 0.6"/>
     <use xlink:href="#m9a590d66e8" x="105.493413" y="85.194904" style="fill: #db5f57; fill-opacity: 0.6; stroke: #db5f57; stroke-opacity: 0.6"/>
     <use xlink:href="#m9a590d66e8" x="153.009026" y="61.310154" style="fill: #db5f57; fill-opacity: 0.6; stroke: #db5f57; stroke-opacity: 0.6"/>
     <use xlink:href="#m9a590d66e8" x="145.109379" y="61.606319" style="fill: #db5f57; fill-opacity: 0.6; stroke: #db5f57; stroke-opacity: 0.6"/>
     <use xlink:href="#m9a590d66e8" x="95.615911" y="84.851953" style="fill: #db5f57; fill-opacity: 0.6; stroke: #db5f57; stroke-opacity: 0.6"/>
     <use xlink:href="#m9a590d66e8" x="83.878283" y="134.450747" style="fill: #db5f57; fill-opacity: 0.6; stroke: #db5f57; stroke-opacity: 0.6"/>
     <use xlink:href="#m9a590d66e8" x="132.100273" y="67.151896" style="fill: #db5f57; fill-opacity: 0.6; stroke: #db5f57; stroke-opacity: 0.6"/>
     <use xlink:href="#m9a590d66e8" x="163.734181" y="61.937694" style="fill: #db5f57; fill-opacity: 0.6; stroke: #db5f57; stroke-opacity: 0.6"/>
     <use xlink:href="#m9a590d66e8" x="61.368409" y="86.502125" style="fill: #db5f57; fill-opacity: 0.6; stroke: #db5f57; stroke-opacity: 0.6"/>
     <use xlink:href="#m9a590d66e8" x="116.324524" y="90.821632" style="fill: #db5f57; fill-opacity: 0.6; stroke: #db5f57; stroke-opacity: 0.6"/>
     <use xlink:href="#m9a590d66e8" x="144.285273" y="48.595576" style="fill: #db5f57; fill-opacity: 0.6; stroke: #db5f57; stroke-opacity: 0.6"/>
     <use xlink:href="#m9a590d66e8" x="126.649399" y="83.920546" style="fill: #db5f57; fill-opacity: 0.6; stroke: #db5f57; stroke-opacity: 0.6"/>
     <use xlink:href="#m9a590d66e8" x="116.418708" y="89.058201" style="fill: #db5f57; fill-opacity: 0.6; stroke: #db5f57; stroke-opacity: 0.6"/>
     <use xlink:href="#m9a590d66e8" x="157.129558" y="46.059921" style="fill: #db5f57; fill-opacity: 0.6; stroke: #db5f57; stroke-opacity: 0.6"/>
     <use xlink:href="#m9a590d66e8" x="108.825157" y="75.38842" style="fill: #db5f57; fill-opacity: 0.6; stroke: #db5f57; stroke-opacity: 0.6"/>
     <use xlink:href="#m9a590d66e8" x="145.238881" y="82.640631" style="fill: #db5f57; fill-opacity: 0.6; stroke: #db5f57; stroke-opacity: 0.6"/>
     <use xlink:href="#m9a590d66e8" x="113.145829" y="83.212816" style="fill: #db5f57; fill-opacity: 0.6; stroke: #db5f57; stroke-opacity: 0.6"/>
     <use xlink:href="#m9a590d66e8" x="105.881921" y="80.108886" style="fill: #db5f57; fill-opacity: 0.6; stroke: #db5f57; stroke-opacity: 0.6"/>
     <use xlink:href="#m9a590d66e8" x="157.05892" y="55.614457" style="fill: #db5f57; fill-opacity: 0.6; stroke: #db5f57; stroke-opacity: 0.6"/>
     <use xlink:href="#m9a590d66e8" x="137.245051" y="59.364281" style="fill: #db5f57; fill-opacity: 0.6; stroke: #db5f57; stroke-opacity: 0.6"/>
     <use xlink:href="#m9a590d66e8" x="127.520597" y="91.889471" style="fill: #db5f57; fill-opacity: 0.6; stroke: #db5f57; stroke-opacity: 0.6"/>
     <use xlink:href="#m9a590d66e8" x="173.140765" y="29.275069" style="fill: #db5f57; fill-opacity: 0.6; stroke: #db5f57; stroke-opacity: 0.6"/>
     <use xlink:href="#m9a590d66e8" x="130.934751" y="61.755328" style="fill: #db5f57; fill-opacity: 0.6; stroke: #db5f57; stroke-opacity: 0.6"/>
     <use xlink:href="#m9a590d66e8" x="133.336432" y="66.375718" style="fill: #db5f57; fill-opacity: 0.6; stroke: #db5f57; stroke-opacity: 0.6"/>
     <use xlink:href="#m9a590d66e8" x="107.942186" y="95.564617" style="fill: #db5f57; fill-opacity: 0.6; stroke: #db5f57; stroke-opacity: 0.6"/>
     <use xlink:href="#m9a590d66e8" x="101.102104" y="107.506863" style="fill: #db5f57; fill-opacity: 0.6; stroke: #db5f57; stroke-opacity: 0.6"/>
     <use xlink:href="#m9a590d66e8" x="70.468897" y="114.863659" style="fill: #db5f57; fill-opacity: 0.6; stroke: #db5f57; stroke-opacity: 0.6"/>
     <use xlink:href="#m9a590d66e8" x="142.589968" y="62.912276" style="fill: #db5f57; fill-opacity: 0.6; stroke: #db5f57; stroke-opacity: 0.6"/>
     <use xlink:href="#m9a590d66e8" x="151.949461" y="48.443022" style="fill: #db5f57; fill-opacity: 0.6; stroke: #db5f57; stroke-opacity: 0.6"/>
     <use xlink:href="#m9a590d66e8" x="137.68065" y="62.027444" style="fill: #db5f57; fill-opacity: 0.6; stroke: #db5f57; stroke-opacity: 0.6"/>
     <use xlink:href="#m9a590d66e8" x="141.589268" y="64.06791" style="fill: #db5f57; fill-opacity: 0.6; stroke: #db5f57; stroke-opacity: 0.6"/>
     <use xlink:href="#m9a590d66e8" x="162.038876" y="36.500635" style="fill: #db5f57; fill-opacity: 0.6; stroke: #db5f57; stroke-opacity: 0.6"/>
     <use xlink:href="#m9a590d66e8" x="135.973572" y="59.048889" style="fill: #db5f57; fill-opacity: 0.6; stroke: #db5f57; stroke-opacity: 0.6"/>
     <use xlink:href="#m9a590d66e8" x="125.107143" y="74.48982" style="fill: #db5f57; fill-opacity: 0.6; stroke: #db5f57; stroke-opacity: 0.6"/>
     <use xlink:href="#m9a590d66e8" x="173.80005" y="26.768822" style="fill: #db5f57; fill-opacity: 0.6; stroke: #db5f57; stroke-opacity: 0.6"/>
     <use xlink:href="#m9a590d66e8" x="164.817292" y="47.922605" style="fill: #db5f57; fill-opacity: 0.6; stroke: #db5f57; stroke-opacity: 0.6"/>
     <use xlink:href="#m9a590d66e8" x="116.901399" y="75.311964" style="fill: #db5f57; fill-opacity: 0.6; stroke: #db5f57; stroke-opacity: 0.6"/>
     <use xlink:href="#m9a590d66e8" x="152.491017" y="51.540485" style="fill: #db5f57; fill-opacity: 0.6; stroke: #db5f57; stroke-opacity: 0.6"/>
     <use xlink:href="#m9a590d66e8" x="96.76966" y="106.002916" style="fill: #db5f57; fill-opacity: 0.6; stroke: #db5f57; stroke-opacity: 0.6"/>
     <use xlink:href="#m9a590d66e8" x="157.153103" y="50.496475" style="fill: #db5f57; fill-opacity: 0.6; stroke: #db5f57; stroke-opacity: 0.6"/>
     <use xlink:href="#m9a590d66e8" x="103.951157" y="87.615153" style="fill: #db5f57; fill-opacity: 0.6; stroke: #db5f57; stroke-opacity: 0.6"/>
     <use xlink:href="#m9a590d66e8" x="95.039037" y="104.059599" style="fill: #db5f57; fill-opacity: 0.6; stroke: #db5f57; stroke-opacity: 0.6"/>
     <use xlink:href="#m9a590d66e8" x="123.023331" y="72.693786" style="fill: #db5f57; fill-opacity: 0.6; stroke: #db5f57; stroke-opacity: 0.6"/>
     <use xlink:href="#m9a590d66e8" x="146.098306" y="56.41762" style="fill: #db5f57; fill-opacity: 0.6; stroke: #db5f57; stroke-opacity: 0.6"/>
     <use xlink:href="#m9a590d66e8" x="112.415906" y="71.625623" style="fill: #db5f57; fill-opacity: 0.6; stroke: #db5f57; stroke-opacity: 0.6"/>
     <use xlink:href="#m9a590d66e8" x="107.165172" y="87.993118" style="fill: #db5f57; fill-opacity: 0.6; stroke: #db5f57; stroke-opacity: 0.6"/>
     <use xlink:href="#m9a590d66e8" x="119.997684" y="66.184926" style="fill: #db5f57; fill-opacity: 0.6; stroke: #db5f57; stroke-opacity: 0.6"/>
     <use xlink:href="#m9a590d66e8" x="153.82136" y="56.360684" style="fill: #db5f57; fill-opacity: 0.6; stroke: #db5f57; stroke-opacity: 0.6"/>
     <use xlink:href="#m9a590d66e8" x="110.885423" y="89.499453" style="fill: #db5f57; fill-opacity: 0.6; stroke: #db5f57; stroke-opacity: 0.6"/>
     <use xlink:href="#m9a590d66e8" x="160.21407" y="43.72705" style="fill: #db5f57; fill-opacity: 0.6; stroke: #db5f57; stroke-opacity: 0.6"/>
     <use xlink:href="#m9a590d66e8" x="112.404133" y="82.472952" style="fill: #db5f57; fill-opacity: 0.6; stroke: #db5f57; stroke-opacity: 0.6"/>
     <use xlink:href="#m9a590d66e8" x="156.752823" y="46.679291" style="fill: #db5f57; fill-opacity: 0.6; stroke: #db5f57; stroke-opacity: 0.6"/>
     <use xlink:href="#m9a590d66e8" x="108.660336" y="87.323572" style="fill: #db5f57; fill-opacity: 0.6; stroke: #db5f57; stroke-opacity: 0.6"/>
     <use xlink:href="#m9a590d66e8" x="161.791644" y="52.70454" style="fill: #db5f57; fill-opacity: 0.6; stroke: #db5f57; stroke-opacity: 0.6"/>
     <use xlink:href="#m9a590d66e8" x="96.56952" y="100.760499" style="fill: #db5f57; fill-opacity: 0.6; stroke: #db5f57; stroke-opacity: 0.6"/>
     <use xlink:href="#m9a590d66e8" x="148.335166" y="49.006363" style="fill: #db5f57; fill-opacity: 0.6; stroke: #db5f57; stroke-opacity: 0.6"/>
     <use xlink:href="#m9a590d66e8" x="123.635524" y="93.447742" style="fill: #db5f57; fill-opacity: 0.6; stroke: #db5f57; stroke-opacity: 0.6"/>
     <use xlink:href="#m9a590d66e8" x="128.297611" y="70.631313" style="fill: #db5f57; fill-opacity: 0.6; stroke: #db5f57; stroke-opacity: 0.6"/>
     <use xlink:href="#m9a590d66e8" x="111.27393" y="72.282116" style="fill: #db5f57; fill-opacity: 0.6; stroke: #db5f57; stroke-opacity: 0.6"/>
     <use xlink:href="#m9a590d66e8" x="80.652496" y="69.100195" style="fill: #db5f57; fill-opacity: 0.6; stroke: #db5f57; stroke-opacity: 0.6"/>
     <use xlink:href="#m9a590d66e8" x="101.019694" y="108.05798" style="fill: #db5f57; fill-opacity: 0.6; stroke: #db5f57; stroke-opacity: 0.6"/>
     <use xlink:href="#m9a590d66e8" x="129.639727" y="75.552266" style="fill: #db5f57; fill-opacity: 0.6; stroke: #db5f57; stroke-opacity: 0.6"/>
     <use xlink:href="#m9a590d66e8" x="153.173847" y="52.887934" style="fill: #db5f57; fill-opacity: 0.6; stroke: #db5f57; stroke-opacity: 0.6"/>
     <use xlink:href="#m9a590d66e8" x="132.182683" y="82.0531" style="fill: #db5f57; fill-opacity: 0.6; stroke: #db5f57; stroke-opacity: 0.6"/>
     <use xlink:href="#m9a590d66e8" x="70.468897" y="111.954484" style="fill: #db5f57; fill-opacity: 0.6; stroke: #db5f57; stroke-opacity: 0.6"/>
     <use xlink:href="#m9a590d66e8" x="186.891567" y="22.70148" style="fill: #db5f57; fill-opacity: 0.6; stroke: #db5f57; stroke-opacity: 0.6"/>
     <use xlink:href="#m9a590d66e8" x="85.208626" y="96.342411" style="fill: #db5f57; fill-opacity: 0.6; stroke: #db5f57; stroke-opacity: 0.6"/>
     <use xlink:href="#m9a590d66e8" x="82.241844" y="82.894124" style="fill: #db5f57; fill-opacity: 0.6; stroke: #db5f57; stroke-opacity: 0.6"/>
     <use xlink:href="#m9a590d66e8" x="158.106712" y="50.758142" style="fill: #db5f57; fill-opacity: 0.6; stroke: #db5f57; stroke-opacity: 0.6"/>
     <use xlink:href="#m9a590d66e8" x="126.531669" y="83.001454" style="fill: #db5f57; fill-opacity: 0.6; stroke: #db5f57; stroke-opacity: 0.6"/>
     <use xlink:href="#m9a590d66e8" x="132.947925" y="64.797798" style="fill: #db5f57; fill-opacity: 0.6; stroke: #db5f57; stroke-opacity: 0.6"/>
     <use xlink:href="#m9a590d66e8" x="157.541611" y="47.915856" style="fill: #db5f57; fill-opacity: 0.6; stroke: #db5f57; stroke-opacity: 0.6"/>
     <use xlink:href="#m9a590d66e8" x="163.757727" y="52.085319" style="fill: #db5f57; fill-opacity: 0.6; stroke: #db5f57; stroke-opacity: 0.6"/>
     <use xlink:href="#m9a590d66e8" x="131.841268" y="51.638962" style="fill: #db5f57; fill-opacity: 0.6; stroke: #db5f57; stroke-opacity: 0.6"/>
     <use xlink:href="#m9a590d66e8" x="153.091437" y="78.182252" style="fill: #db5f57; fill-opacity: 0.6; stroke: #db5f57; stroke-opacity: 0.6"/>
     <use xlink:href="#m9a590d66e8" x="145.686253" y="53.707774" style="fill: #db5f57; fill-opacity: 0.6; stroke: #db5f57; stroke-opacity: 0.6"/>
     <use xlink:href="#m9a590d66e8" x="123.435384" y="93.158672" style="fill: #db5f57; fill-opacity: 0.6; stroke: #db5f57; stroke-opacity: 0.6"/>
     <use xlink:href="#m9a590d66e8" x="98.394326" y="121.175975" style="fill: #db5f57; fill-opacity: 0.6; stroke: #db5f57; stroke-opacity: 0.6"/>
     <use xlink:href="#m9a590d66e8" x="111.803713" y="68.23053" style="fill: #db5f57; fill-opacity: 0.6; stroke: #db5f57; stroke-opacity: 0.6"/>
     <use xlink:href="#m9a590d66e8" x="122.446457" y="67.443434" style="fill: #db5f57; fill-opacity: 0.6; stroke: #db5f57; stroke-opacity: 0.6"/>
     <use xlink:href="#m9a590d66e8" x="141.789408" y="64.537106" style="fill: #db5f57; fill-opacity: 0.6; stroke: #db5f57; stroke-opacity: 0.6"/>
     <use xlink:href="#m9a590d66e8" x="164.793746" y="72.240703" style="fill: #db5f57; fill-opacity: 0.6; stroke: #db5f57; stroke-opacity: 0.6"/>
     <use xlink:href="#m9a590d66e8" x="92.448988" y="78.909187" style="fill: #db5f57; fill-opacity: 0.6; stroke: #db5f57; stroke-opacity: 0.6"/>
     <use xlink:href="#m9a590d66e8" x="164.628925" y="33.856402" style="fill: #db5f57; fill-opacity: 0.6; stroke: #db5f57; stroke-opacity: 0.6"/>
     <use xlink:href="#m9a590d66e8" x="101.890892" y="86.632078" style="fill: #db5f57; fill-opacity: 0.6; stroke: #db5f57; stroke-opacity: 0.6"/>
     <use xlink:href="#m9a590d66e8" x="89.34093" y="117.403337" style="fill: #db5f57; fill-opacity: 0.6; stroke: #db5f57; stroke-opacity: 0.6"/>
     <use xlink:href="#m9a590d66e8" x="70.822085" y="108.787394" style="fill: #db5f57; fill-opacity: 0.6; stroke: #db5f57; stroke-opacity: 0.6"/>
     <use xlink:href="#m9a590d66e8" x="155.504891" y="76.82412" style="fill: #db5f57; fill-opacity: 0.6; stroke: #db5f57; stroke-opacity: 0.6"/>
     <use xlink:href="#m9a590d66e8" x="118.58493" y="80.819294" style="fill: #db5f57; fill-opacity: 0.6; stroke: #db5f57; stroke-opacity: 0.6"/>
     <use xlink:href="#m9a590d66e8" x="131.405669" y="70.354644" style="fill: #db5f57; fill-opacity: 0.6; stroke: #db5f57; stroke-opacity: 0.6"/>
     <use xlink:href="#m9a590d66e8" x="142.472239" y="66.417" style="fill: #db5f57; fill-opacity: 0.6; stroke: #db5f57; stroke-opacity: 0.6"/>
     <use xlink:href="#m9a590d66e8" x="160.69676" y="54.06872" style="fill: #db5f57; fill-opacity: 0.6; stroke: #db5f57; stroke-opacity: 0.6"/>
     <use xlink:href="#m9a590d66e8" x="135.432017" y="71.438783" style="fill: #db5f57; fill-opacity: 0.6; stroke: #db5f57; stroke-opacity: 0.6"/>
     <use xlink:href="#m9a590d66e8" x="128.921577" y="96.858847" style="fill: #db5f57; fill-opacity: 0.6; stroke: #db5f57; stroke-opacity: 0.6"/>
     <use xlink:href="#m9a590d66e8" x="127.108543" y="71.825815" style="fill: #db5f57; fill-opacity: 0.6; stroke: #db5f57; stroke-opacity: 0.6"/>
     <use xlink:href="#m9a590d66e8" x="131.594036" y="81.435691" style="fill: #db5f57; fill-opacity: 0.6; stroke: #db5f57; stroke-opacity: 0.6"/>
     <use xlink:href="#m9a590d66e8" x="157.600475" y="86.891373" style="fill: #db5f57; fill-opacity: 0.6; stroke: #db5f57; stroke-opacity: 0.6"/>
     <use xlink:href="#m9a590d66e8" x="116.783669" y="103.60217" style="fill: #db5f57; fill-opacity: 0.6; stroke: #db5f57; stroke-opacity: 0.6"/>
     <use xlink:href="#m9a590d66e8" x="155.187021" y="57.627886" style="fill: #db5f57; fill-opacity: 0.6; stroke: #db5f57; stroke-opacity: 0.6"/>
     <use xlink:href="#m9a590d66e8" x="134.160539" y="61.458999" style="fill: #db5f57; fill-opacity: 0.6; stroke: #db5f57; stroke-opacity: 0.6"/>
    </g>
   </g>
   <g id="PolyCollection_1">
    <defs>
     <path id="mc57db2e3b1" d="M 61.368409 -75.471627 
L 61.368409 -63.160055 
L 62.63632 -64.108409 
L 63.90423 -65.069991 
L 65.172141 -66.064026 
L 66.440052 -67.071656 
L 67.707963 -68.059581 
L 68.975873 -69.006029 
L 70.243784 -69.952476 
L 71.511695 -70.906619 
L 72.779605 -71.878961 
L 74.047516 -72.852214 
L 75.315427 -73.852932 
L 76.583337 -74.857718 
L 77.851248 -75.862504 
L 79.119159 -76.867291 
L 80.387069 -77.872077 
L 81.65498 -78.864804 
L 82.922891 -79.817515 
L 84.190801 -80.770226 
L 85.458712 -81.73689 
L 86.726623 -82.724764 
L 87.994533 -83.713067 
L 89.262444 -84.686988 
L 90.530355 -85.667764 
L 91.798265 -86.632498 
L 93.066176 -87.597231 
L 94.334087 -88.561965 
L 95.601998 -89.526699 
L 96.869908 -90.491432 
L 98.137819 -91.456343 
L 99.40573 -92.389647 
L 100.67364 -93.35696 
L 101.941551 -94.353528 
L 103.209462 -95.343351 
L 104.477372 -96.336333 
L 105.745283 -97.314944 
L 107.013194 -98.262962 
L 108.281104 -99.228254 
L 109.549015 -100.169763 
L 110.816926 -101.119793 
L 112.084836 -102.067651 
L 113.352747 -102.998422 
L 114.620658 -103.93471 
L 115.888568 -104.865494 
L 117.156479 -105.800287 
L 118.42439 -106.728317 
L 119.692301 -107.635965 
L 120.960211 -108.540971 
L 122.228122 -109.482767 
L 123.496033 -110.402121 
L 124.763943 -111.331819 
L 126.031854 -112.251643 
L 127.299765 -113.172834 
L 128.567675 -114.11172 
L 129.835586 -115.029162 
L 131.103497 -115.94775 
L 132.371407 -116.835796 
L 133.639318 -117.729702 
L 134.907229 -118.58321 
L 136.175139 -119.411372 
L 137.44305 -120.284624 
L 138.710961 -121.124399 
L 139.978871 -121.965259 
L 141.246782 -122.861346 
L 142.514693 -123.667197 
L 143.782604 -124.537134 
L 145.050514 -125.394585 
L 146.318425 -126.198275 
L 147.586336 -126.986682 
L 148.854246 -127.850686 
L 150.122157 -128.681309 
L 151.390068 -129.498428 
L 152.657978 -130.314254 
L 153.925889 -131.121307 
L 155.1938 -131.925165 
L 156.46171 -132.729024 
L 157.729621 -133.532882 
L 158.997532 -134.322403 
L 160.265442 -135.099539 
L 161.533353 -135.87338 
L 162.801264 -136.615696 
L 164.069174 -137.382852 
L 165.337085 -138.14719 
L 166.604996 -138.913215 
L 167.872907 -139.706337 
L 169.140817 -140.512403 
L 170.408728 -141.311838 
L 171.676639 -142.088375 
L 172.944549 -142.865687 
L 174.21246 -143.643553 
L 175.480371 -144.42142 
L 176.748281 -145.200999 
L 178.016192 -145.996553 
L 179.284103 -146.834406 
L 180.552013 -147.672259 
L 181.819924 -148.46392 
L 183.087835 -149.239476 
L 184.355745 -150.015537 
L 185.623656 -150.791668 
L 186.891567 -151.567799 
L 186.891567 -161.163712 
L 186.891567 -161.163712 
L 185.623656 -160.192402 
L 184.355745 -159.244758 
L 183.087835 -158.297115 
L 181.819924 -157.349472 
L 180.552013 -156.393826 
L 179.284103 -155.428057 
L 178.016192 -154.412855 
L 176.748281 -153.391834 
L 175.480371 -152.376476 
L 174.21246 -151.448314 
L 172.944549 -150.511957 
L 171.676639 -149.537044 
L 170.408728 -148.573699 
L 169.140817 -147.627479 
L 167.872907 -146.692629 
L 166.604996 -145.728163 
L 165.337085 -144.780317 
L 164.069174 -143.832471 
L 162.801264 -142.884132 
L 161.533353 -141.923017 
L 160.265442 -140.969993 
L 158.997532 -140.032413 
L 157.729621 -139.089962 
L 156.46171 -138.109047 
L 155.1938 -137.157575 
L 153.925889 -136.223341 
L 152.657978 -135.298109 
L 151.390068 -134.360793 
L 150.122157 -133.380221 
L 148.854246 -132.434921 
L 147.586336 -131.504385 
L 146.318425 -130.595946 
L 145.050514 -129.670546 
L 143.782604 -128.741209 
L 142.514693 -127.828003 
L 141.246782 -126.932285 
L 139.978871 -126.028579 
L 138.710961 -125.131045 
L 137.44305 -124.274717 
L 136.175139 -123.355612 
L 134.907229 -122.438311 
L 133.639318 -121.558938 
L 132.371407 -120.67496 
L 131.103497 -119.870303 
L 129.835586 -119.014483 
L 128.567675 -118.15277 
L 127.299765 -117.291694 
L 126.031854 -116.545785 
L 124.763943 -115.728761 
L 123.496033 -114.778027 
L 122.228122 -113.956278 
L 120.960211 -113.147599 
L 119.692301 -112.298823 
L 118.42439 -111.431873 
L 117.156479 -110.623792 
L 115.888568 -109.795034 
L 114.620658 -108.959372 
L 113.352747 -108.179406 
L 112.084836 -107.357716 
L 110.816926 -106.54466 
L 109.549015 -105.732011 
L 108.281104 -104.899525 
L 107.013194 -104.113305 
L 105.745283 -103.288751 
L 104.477372 -102.4523 
L 103.209462 -101.616343 
L 101.941551 -100.793949 
L 100.67364 -100.015687 
L 99.40573 -99.18325 
L 98.137819 -98.376585 
L 96.869908 -97.587414 
L 95.601998 -96.798243 
L 94.334087 -96.009073 
L 93.066176 -95.197252 
L 91.798265 -94.383515 
L 90.530355 -93.569778 
L 89.262444 -92.756041 
L 87.994533 -91.941964 
L 86.726623 -91.185952 
L 85.458712 -90.419318 
L 84.190801 -89.63768 
L 82.922891 -88.872611 
L 81.65498 -88.067407 
L 80.387069 -87.335749 
L 79.119159 -86.547477 
L 77.851248 -85.776474 
L 76.583337 -84.977891 
L 75.315427 -84.182785 
L 74.047516 -83.39376 
L 72.779605 -82.604735 
L 71.511695 -81.81571 
L 70.243784 -81.012302 
L 68.975873 -80.210298 
L 67.707963 -79.429803 
L 66.440052 -78.613929 
L 65.172141 -77.807155 
L 63.90423 -77.027489 
L 62.63632 -76.249662 
L 61.368409 -75.471627 
z
" style="stroke: #ffffff; stroke-opacity: 0.15"/>
    </defs>
    <g clip-path="url(#p778279c829)">
     <use xlink:href="#mc57db2e3b1" x="0" y="188.595" style="fill-opacity: 0.15; stroke: #ffffff; stroke-opacity: 0.15"/>
    </g>
   </g>
   <g id="line2d_11">
    <path d="M 61.368409 118.971282 
L 62.63632 118.094924 
L 63.90423 117.218567 
L 65.172141 116.342209 
L 66.440052 115.465851 
L 67.707963 114.589494 
L 68.975873 113.713136 
L 70.243784 112.836779 
L 71.511695 111.960421 
L 72.779605 111.084063 
L 74.047516 110.207706 
L 75.315427 109.331348 
L 76.583337 108.45499 
L 77.851248 107.578633 
L 79.119159 106.702275 
L 80.387069 105.825918 
L 81.65498 104.94956 
L 82.922891 104.073202 
L 84.190801 103.196845 
L 85.458712 102.320487 
L 86.726623 101.444129 
L 87.994533 100.567772 
L 89.262444 99.691414 
L 90.530355 98.815057 
L 91.798265 97.938699 
L 93.066176 97.062341 
L 94.334087 96.185984 
L 95.601998 95.309626 
L 96.869908 94.433268 
L 98.137819 93.556911 
L 99.40573 92.680553 
L 100.67364 91.804196 
L 101.941551 90.927838 
L 103.209462 90.05148 
L 104.477372 89.175123 
L 105.745283 88.298765 
L 107.013194 87.422407 
L 108.281104 86.54605 
L 109.549015 85.669692 
L 110.816926 84.793335 
L 112.084836 83.916977 
L 113.352747 83.040619 
L 114.620658 82.164262 
L 115.888568 81.287904 
L 117.156479 80.411546 
L 118.42439 79.535189 
L 119.692301 78.658831 
L 120.960211 77.782473 
L 122.228122 76.906116 
L 123.496033 76.029758 
L 124.763943 75.153401 
L 126.031854 74.277043 
L 127.299765 73.400685 
L 128.567675 72.524328 
L 129.835586 71.64797 
L 131.103497 70.771612 
L 132.371407 69.895255 
L 133.639318 69.018897 
L 134.907229 68.14254 
L 136.175139 67.266182 
L 137.44305 66.389824 
L 138.710961 65.513467 
L 139.978871 64.637109 
L 141.246782 63.760751 
L 142.514693 62.884394 
L 143.782604 62.008036 
L 145.050514 61.131679 
L 146.318425 60.255321 
L 147.586336 59.378963 
L 148.854246 58.502606 
L 150.122157 57.626248 
L 151.390068 56.74989 
L 152.657978 55.873533 
L 153.925889 54.997175 
L 155.1938 54.120818 
L 156.46171 53.24446 
L 157.729621 52.368102 
L 158.997532 51.491745 
L 160.265442 50.615387 
L 161.533353 49.739029 
L 162.801264 48.862672 
L 164.069174 47.986314 
L 165.337085 47.109957 
L 166.604996 46.233599 
L 167.872907 45.357241 
L 169.140817 44.480884 
L 170.408728 43.604526 
L 171.676639 42.728168 
L 172.944549 41.851811 
L 174.21246 40.975453 
L 175.480371 40.099095 
L 176.748281 39.222738 
L 178.016192 38.34638 
L 179.284103 37.470023 
L 180.552013 36.593665 
L 181.819924 35.717307 
L 183.087835 34.84095 
L 184.355745 33.964592 
L 185.623656 33.088234 
L 186.891567 32.211877 
" clip-path="url(#p778279c829)" style="fill: none; stroke-dasharray: 8.325,3.6; stroke-dashoffset: 0; stroke: #000000; stroke-width: 2.25"/>
   </g>
   <g id="patch_3">
    <path d="M 55.0275 145.8 
L 55.0275 7.2 
" style="fill: none; stroke: #000000; stroke-width: 1.25; stroke-linejoin: miter; stroke-linecap: square"/>
   </g>
   <g id="patch_4">
    <path d="M 55.0275 145.8 
L 194.5275 145.8 
" style="fill: none; stroke: #000000; stroke-width: 1.25; stroke-linejoin: miter; stroke-linecap: square"/>
   </g>
   <g id="text_13">
    <!-- Pearsons r = 0.83 -->
    <g style="fill: #262626" transform="translate(68.9775 21.06) scale(0.12 -0.12)">
     <defs>
      <path id="ArialMT-3d" d="M 3381 2694 
L 356 2694 
L 356 3219 
L 3381 3219 
L 3381 2694 
z
M 3381 1303 
L 356 1303 
L 356 1828 
L 3381 1828 
L 3381 1303 
z
" transform="scale(0.015625)"/>
      <path id="ArialMT-38" d="M 1131 2484 
Q 781 2613 612 2850 
Q 444 3088 444 3419 
Q 444 3919 803 4259 
Q 1163 4600 1759 4600 
Q 2359 4600 2725 4251 
Q 3091 3903 3091 3403 
Q 3091 3084 2923 2848 
Q 2756 2613 2416 2484 
Q 2838 2347 3058 2040 
Q 3278 1734 3278 1309 
Q 3278 722 2862 322 
Q 2447 -78 1769 -78 
Q 1091 -78 675 323 
Q 259 725 259 1325 
Q 259 1772 486 2073 
Q 713 2375 1131 2484 
z
M 1019 3438 
Q 1019 3113 1228 2906 
Q 1438 2700 1772 2700 
Q 2097 2700 2305 2904 
Q 2513 3109 2513 3406 
Q 2513 3716 2298 3927 
Q 2084 4138 1766 4138 
Q 1444 4138 1231 3931 
Q 1019 3725 1019 3438 
z
M 838 1322 
Q 838 1081 952 856 
Q 1066 631 1291 507 
Q 1516 384 1775 384 
Q 2178 384 2440 643 
Q 2703 903 2703 1303 
Q 2703 1709 2433 1975 
Q 2163 2241 1756 2241 
Q 1359 2241 1098 1978 
Q 838 1716 838 1322 
z
" transform="scale(0.015625)"/>
      <path id="ArialMT-33" d="M 269 1209 
L 831 1284 
Q 928 806 1161 595 
Q 1394 384 1728 384 
Q 2125 384 2398 659 
Q 2672 934 2672 1341 
Q 2672 1728 2419 1979 
Q 2166 2231 1775 2231 
Q 1616 2231 1378 2169 
L 1441 2663 
Q 1497 2656 1531 2656 
Q 1891 2656 2178 2843 
Q 2466 3031 2466 3422 
Q 2466 3731 2256 3934 
Q 2047 4138 1716 4138 
Q 1388 4138 1169 3931 
Q 950 3725 888 3313 
L 325 3413 
Q 428 3978 793 4289 
Q 1159 4600 1703 4600 
Q 2078 4600 2393 4439 
Q 2709 4278 2876 4000 
Q 3044 3722 3044 3409 
Q 3044 3113 2884 2869 
Q 2725 2625 2413 2481 
Q 2819 2388 3044 2092 
Q 3269 1797 3269 1353 
Q 3269 753 2831 336 
Q 2394 -81 1725 -81 
Q 1122 -81 723 278 
Q 325 638 269 1209 
z
" transform="scale(0.015625)"/>
     </defs>
     <use xlink:href="#ArialMT-50"/>
     <use xlink:href="#ArialMT-65" x="66.699219"/>
     <use xlink:href="#ArialMT-61" x="122.314453"/>
     <use xlink:href="#ArialMT-72" x="177.929688"/>
     <use xlink:href="#ArialMT-73" x="211.230469"/>
     <use xlink:href="#ArialMT-6f" x="261.230469"/>
     <use xlink:href="#ArialMT-6e" x="316.845703"/>
     <use xlink:href="#ArialMT-73" x="372.460938"/>
     <use xlink:href="#ArialMT-20" x="422.460938"/>
     <use xlink:href="#ArialMT-72" x="450.244141"/>
     <use xlink:href="#ArialMT-20" x="483.544922"/>
     <use xlink:href="#ArialMT-3d" x="511.328125"/>
     <use xlink:href="#ArialMT-20" x="569.726562"/>
     <use xlink:href="#ArialMT-30" x="597.509766"/>
     <use xlink:href="#ArialMT-2e" x="653.125"/>
     <use xlink:href="#ArialMT-38" x="680.908203"/>
     <use xlink:href="#ArialMT-33" x="736.523438"/>
    </g>
   </g>
   <g id="text_14">
    <!-- Spearmans r = 0.85 -->
    <g style="fill: #262626" transform="translate(68.9775 34.92) scale(0.12 -0.12)">
     <defs>
      <path id="ArialMT-53" d="M 288 1472 
L 859 1522 
Q 900 1178 1048 958 
Q 1197 738 1509 602 
Q 1822 466 2213 466 
Q 2559 466 2825 569 
Q 3091 672 3220 851 
Q 3350 1031 3350 1244 
Q 3350 1459 3225 1620 
Q 3100 1781 2813 1891 
Q 2628 1963 1997 2114 
Q 1366 2266 1113 2400 
Q 784 2572 623 2826 
Q 463 3081 463 3397 
Q 463 3744 659 4045 
Q 856 4347 1234 4503 
Q 1613 4659 2075 4659 
Q 2584 4659 2973 4495 
Q 3363 4331 3572 4012 
Q 3781 3694 3797 3291 
L 3216 3247 
Q 3169 3681 2898 3903 
Q 2628 4125 2100 4125 
Q 1550 4125 1298 3923 
Q 1047 3722 1047 3438 
Q 1047 3191 1225 3031 
Q 1400 2872 2139 2705 
Q 2878 2538 3153 2413 
Q 3553 2228 3743 1945 
Q 3934 1663 3934 1294 
Q 3934 928 3725 604 
Q 3516 281 3123 101 
Q 2731 -78 2241 -78 
Q 1619 -78 1198 103 
Q 778 284 539 648 
Q 300 1013 288 1472 
z
" transform="scale(0.015625)"/>
     </defs>
     <use xlink:href="#ArialMT-53"/>
     <use xlink:href="#ArialMT-70" x="66.699219"/>
     <use xlink:href="#ArialMT-65" x="122.314453"/>
     <use xlink:href="#ArialMT-61" x="177.929688"/>
     <use xlink:href="#ArialMT-72" x="233.544922"/>
     <use xlink:href="#ArialMT-6d" x="266.845703"/>
     <use xlink:href="#ArialMT-61" x="350.146484"/>
     <use xlink:href="#ArialMT-6e" x="405.761719"/>
     <use xlink:href="#ArialMT-73" x="461.376953"/>
     <use xlink:href="#ArialMT-20" x="511.376953"/>
     <use xlink:href="#ArialMT-72" x="539.160156"/>
     <use xlink:href="#ArialMT-20" x="572.460938"/>
     <use xlink:href="#ArialMT-3d" x="600.244141"/>
     <use xlink:href="#ArialMT-20" x="658.642578"/>
     <use xlink:href="#ArialMT-30" x="686.425781"/>
     <use xlink:href="#ArialMT-2e" x="742.041016"/>
     <use xlink:href="#ArialMT-38" x="769.824219"/>
     <use xlink:href="#ArialMT-35" x="825.439453"/>
    </g>
   </g>
  </g>
 </g>
 <defs>
  <clipPath id="p778279c829">
   <rect x="55.0275" y="7.2" width="139.5" height="138.6"/>
  </clipPath>
 </defs>
</svg>
