<?xml version="1.0" encoding="utf-8" standalone="no"?>
<!DOCTYPE svg PUBLIC "-//W3C//DTD SVG 1.1//EN"
  "http://www.w3.org/Graphics/SVG/1.1/DTD/svg11.dtd">
<svg xmlns:xlink="http://www.w3.org/1999/xlink" width="365.550938pt" height="347.168438pt" viewBox="0 0 365.550938 347.168438" xmlns="http://www.w3.org/2000/svg" version="1.1">
 <metadata>
  <rdf:RDF xmlns:dc="http://purl.org/dc/elements/1.1/" xmlns:cc="http://creativecommons.org/ns#" xmlns:rdf="http://www.w3.org/1999/02/22-rdf-syntax-ns#">
   <cc:Work>
    <dc:type rdf:resource="http://purl.org/dc/dcmitype/StillImage"/>
    <dc:date>2024-06-06T23:42:59.079603</dc:date>
    <dc:format>image/svg+xml</dc:format>
    <dc:creator>
     <cc:Agent>
      <dc:title>Matplotlib v3.6.3, https://matplotlib.org/</dc:title>
     </cc:Agent>
    </dc:creator>
   </cc:Work>
  </rdf:RDF>
 </metadata>
 <defs>
  <style type="text/css">*{stroke-linejoin: round; stroke-linecap: butt}</style>
 </defs>
 <g id="figure_1">
  <g id="patch_1">
   <path d="M 0 347.168438 
L 365.550938 347.168438 
L 365.550938 0 
L 0 0 
L 0 347.168438 
z
" style="fill: none"/>
  </g>
  <g id="axes_1">
   <g id="patch_2">
    <path d="M 79.350938 284.4 
L 358.350937 284.4 
L 358.350937 7.2 
L 79.350938 7.2 
L 79.350938 284.4 
z
" style="fill: none"/>
   </g>
   <g id="matplotlib.axis_1">
    <g id="xtick_1">
     <g id="line2d_1">
      <path d="M 92.032756 284.4 
L 92.032756 7.2 
" clip-path="url(#pe82bdbfff6)" style="fill: none; stroke: #ffffff; stroke-linecap: round"/>
     </g>
     <g id="line2d_2">
      <defs>
       <path id="m5ad00b00e1" d="M 0 0 
L 0 6 
" style="stroke: #000000; stroke-width: 1.25"/>
      </defs>
      <g>
       <use xlink:href="#m5ad00b00e1" x="92.032756" y="284.4" style="stroke: #000000; stroke-width: 1.25"/>
      </g>
     </g>
     <g id="text_1">
      <!-- 0 -->
      <g transform="translate(85.915724 309.647188) scale(0.22 -0.22)">
       <defs>
        <path id="ArialMT-30" d="M 266 2259 
Q 266 3072 433 3567 
Q 600 4063 929 4331 
Q 1259 4600 1759 4600 
Q 2128 4600 2406 4451 
Q 2684 4303 2865 4023 
Q 3047 3744 3150 3342 
Q 3253 2941 3253 2259 
Q 3253 1453 3087 958 
Q 2922 463 2592 192 
Q 2263 -78 1759 -78 
Q 1097 -78 719 397 
Q 266 969 266 2259 
z
M 844 2259 
Q 844 1131 1108 757 
Q 1372 384 1759 384 
Q 2147 384 2411 759 
Q 2675 1134 2675 2259 
Q 2675 3391 2411 3762 
Q 2147 4134 1753 4134 
Q 1366 4134 1134 3806 
Q 844 3388 844 2259 
z
" transform="scale(0.015625)"/>
       </defs>
       <use xlink:href="#ArialMT-30"/>
      </g>
     </g>
    </g>
    <g id="xtick_2">
     <g id="line2d_3">
      <path d="M 176.57821 284.4 
L 176.57821 7.2 
" clip-path="url(#pe82bdbfff6)" style="fill: none; stroke: #ffffff; stroke-linecap: round"/>
     </g>
     <g id="line2d_4">
      <g>
       <use xlink:href="#m5ad00b00e1" x="176.57821" y="284.4" style="stroke: #000000; stroke-width: 1.25"/>
      </g>
     </g>
     <g id="text_2">
      <!-- 1 -->
      <g transform="translate(170.461179 309.647188) scale(0.22 -0.22)">
       <defs>
        <path id="ArialMT-31" d="M 2384 0 
L 1822 0 
L 1822 3584 
Q 1619 3391 1289 3197 
Q 959 3003 697 2906 
L 697 3450 
Q 1169 3672 1522 3987 
Q 1875 4303 2022 4600 
L 2384 4600 
L 2384 0 
z
" transform="scale(0.015625)"/>
       </defs>
       <use xlink:href="#ArialMT-31"/>
      </g>
     </g>
    </g>
    <g id="xtick_3">
     <g id="line2d_5">
      <path d="M 261.123665 284.4 
L 261.123665 7.2 
" clip-path="url(#pe82bdbfff6)" style="fill: none; stroke: #ffffff; stroke-linecap: round"/>
     </g>
     <g id="line2d_6">
      <g>
       <use xlink:href="#m5ad00b00e1" x="261.123665" y="284.4" style="stroke: #000000; stroke-width: 1.25"/>
      </g>
     </g>
     <g id="text_3">
      <!-- 2 -->
      <g transform="translate(255.006634 309.647188) scale(0.22 -0.22)">
       <defs>
        <path id="ArialMT-32" d="M 3222 541 
L 3222 0 
L 194 0 
Q 188 203 259 391 
Q 375 700 629 1000 
Q 884 1300 1366 1694 
Q 2113 2306 2375 2664 
Q 2638 3022 2638 3341 
Q 2638 3675 2398 3904 
Q 2159 4134 1775 4134 
Q 1369 4134 1125 3890 
Q 881 3647 878 3216 
L 300 3275 
Q 359 3922 746 4261 
Q 1134 4600 1788 4600 
Q 2447 4600 2831 4234 
Q 3216 3869 3216 3328 
Q 3216 3053 3103 2787 
Q 2991 2522 2730 2228 
Q 2469 1934 1863 1422 
Q 1356 997 1212 845 
Q 1069 694 975 541 
L 3222 541 
z
" transform="scale(0.015625)"/>
       </defs>
       <use xlink:href="#ArialMT-32"/>
      </g>
     </g>
    </g>
    <g id="xtick_4">
     <g id="line2d_7">
      <path d="M 345.669119 284.4 
L 345.669119 7.2 
" clip-path="url(#pe82bdbfff6)" style="fill: none; stroke: #ffffff; stroke-linecap: round"/>
     </g>
     <g id="line2d_8">
      <g>
       <use xlink:href="#m5ad00b00e1" x="345.669119" y="284.4" style="stroke: #000000; stroke-width: 1.25"/>
      </g>
     </g>
     <g id="text_4">
      <!-- 3 -->
      <g transform="translate(339.552088 309.647188) scale(0.22 -0.22)">
       <defs>
        <path id="ArialMT-33" d="M 269 1209 
L 831 1284 
Q 928 806 1161 595 
Q 1394 384 1728 384 
Q 2125 384 2398 659 
Q 2672 934 2672 1341 
Q 2672 1728 2419 1979 
Q 2166 2231 1775 2231 
Q 1616 2231 1378 2169 
L 1441 2663 
Q 1497 2656 1531 2656 
Q 1891 2656 2178 2843 
Q 2466 3031 2466 3422 
Q 2466 3731 2256 3934 
Q 2047 4138 1716 4138 
Q 1388 4138 1169 3931 
Q 950 3725 888 3313 
L 325 3413 
Q 428 3978 793 4289 
Q 1159 4600 1703 4600 
Q 2078 4600 2393 4439 
Q 2709 4278 2876 4000 
Q 3044 3722 3044 3409 
Q 3044 3113 2884 2869 
Q 2725 2625 2413 2481 
Q 2819 2388 3044 2092 
Q 3269 1797 3269 1353 
Q 3269 753 2831 336 
Q 2394 -81 1725 -81 
Q 1122 -81 723 278 
Q 325 638 269 1209 
z
" transform="scale(0.015625)"/>
       </defs>
       <use xlink:href="#ArialMT-33"/>
      </g>
     </g>
    </g>
    <g id="text_5">
     <!-- Hbond_D -->
     <g style="fill: #262626" transform="translate(168.152813 335.198438) scale(0.24 -0.24)">
      <defs>
       <path id="ArialMT-48" d="M 513 0 
L 513 4581 
L 1119 4581 
L 1119 2700 
L 3500 2700 
L 3500 4581 
L 4106 4581 
L 4106 0 
L 3500 0 
L 3500 2159 
L 1119 2159 
L 1119 0 
L 513 0 
z
" transform="scale(0.015625)"/>
       <path id="ArialMT-62" d="M 941 0 
L 419 0 
L 419 4581 
L 981 4581 
L 981 2947 
Q 1338 3394 1891 3394 
Q 2197 3394 2470 3270 
Q 2744 3147 2920 2923 
Q 3097 2700 3197 2384 
Q 3297 2069 3297 1709 
Q 3297 856 2875 390 
Q 2453 -75 1863 -75 
Q 1275 -75 941 416 
L 941 0 
z
M 934 1684 
Q 934 1088 1097 822 
Q 1363 388 1816 388 
Q 2184 388 2453 708 
Q 2722 1028 2722 1663 
Q 2722 2313 2464 2622 
Q 2206 2931 1841 2931 
Q 1472 2931 1203 2611 
Q 934 2291 934 1684 
z
" transform="scale(0.015625)"/>
       <path id="ArialMT-6f" d="M 213 1659 
Q 213 2581 725 3025 
Q 1153 3394 1769 3394 
Q 2453 3394 2887 2945 
Q 3322 2497 3322 1706 
Q 3322 1066 3130 698 
Q 2938 331 2570 128 
Q 2203 -75 1769 -75 
Q 1072 -75 642 372 
Q 213 819 213 1659 
z
M 791 1659 
Q 791 1022 1069 705 
Q 1347 388 1769 388 
Q 2188 388 2466 706 
Q 2744 1025 2744 1678 
Q 2744 2294 2464 2611 
Q 2184 2928 1769 2928 
Q 1347 2928 1069 2612 
Q 791 2297 791 1659 
z
" transform="scale(0.015625)"/>
       <path id="ArialMT-6e" d="M 422 0 
L 422 3319 
L 928 3319 
L 928 2847 
Q 1294 3394 1984 3394 
Q 2284 3394 2536 3286 
Q 2788 3178 2913 3003 
Q 3038 2828 3088 2588 
Q 3119 2431 3119 2041 
L 3119 0 
L 2556 0 
L 2556 2019 
Q 2556 2363 2490 2533 
Q 2425 2703 2258 2804 
Q 2091 2906 1866 2906 
Q 1506 2906 1245 2678 
Q 984 2450 984 1813 
L 984 0 
L 422 0 
z
" transform="scale(0.015625)"/>
       <path id="ArialMT-64" d="M 2575 0 
L 2575 419 
Q 2259 -75 1647 -75 
Q 1250 -75 917 144 
Q 584 363 401 755 
Q 219 1147 219 1656 
Q 219 2153 384 2558 
Q 550 2963 881 3178 
Q 1213 3394 1622 3394 
Q 1922 3394 2156 3267 
Q 2391 3141 2538 2938 
L 2538 4581 
L 3097 4581 
L 3097 0 
L 2575 0 
z
M 797 1656 
Q 797 1019 1065 703 
Q 1334 388 1700 388 
Q 2069 388 2326 689 
Q 2584 991 2584 1609 
Q 2584 2291 2321 2609 
Q 2059 2928 1675 2928 
Q 1300 2928 1048 2622 
Q 797 2316 797 1656 
z
" transform="scale(0.015625)"/>
       <path id="ArialMT-5f" d="M -97 -1272 
L -97 -866 
L 3631 -866 
L 3631 -1272 
L -97 -1272 
z
" transform="scale(0.015625)"/>
       <path id="ArialMT-44" d="M 494 0 
L 494 4581 
L 2072 4581 
Q 2606 4581 2888 4516 
Q 3281 4425 3559 4188 
Q 3922 3881 4101 3404 
Q 4281 2928 4281 2316 
Q 4281 1794 4159 1391 
Q 4038 988 3847 723 
Q 3656 459 3429 307 
Q 3203 156 2883 78 
Q 2563 0 2147 0 
L 494 0 
z
M 1100 541 
L 2078 541 
Q 2531 541 2789 625 
Q 3047 709 3200 863 
Q 3416 1078 3536 1442 
Q 3656 1806 3656 2325 
Q 3656 3044 3420 3430 
Q 3184 3816 2847 3947 
Q 2603 4041 2063 4041 
L 1100 4041 
L 1100 541 
z
" transform="scale(0.015625)"/>
      </defs>
      <use xlink:href="#ArialMT-48"/>
      <use xlink:href="#ArialMT-62" x="72.216797"/>
      <use xlink:href="#ArialMT-6f" x="127.832031"/>
      <use xlink:href="#ArialMT-6e" x="183.447266"/>
      <use xlink:href="#ArialMT-64" x="239.0625"/>
      <use xlink:href="#ArialMT-5f" x="294.677734"/>
      <use xlink:href="#ArialMT-44" x="350.292969"/>
     </g>
    </g>
   </g>
   <g id="matplotlib.axis_2">
    <g id="ytick_1">
     <g id="line2d_9">
      <path d="M 79.350938 284.4 
L 358.350937 284.4 
" clip-path="url(#pe82bdbfff6)" style="fill: none; stroke: #ffffff; stroke-linecap: round"/>
     </g>
     <g id="line2d_10">
      <defs>
       <path id="m615f3ec15c" d="M 0 0 
L -6 0 
" style="stroke: #000000; stroke-width: 1.25"/>
      </defs>
      <g>
       <use xlink:href="#m615f3ec15c" x="79.350938" y="284.4" style="stroke: #000000; stroke-width: 1.25"/>
      </g>
     </g>
     <g id="text_6">
      <!-- 0 -->
      <g transform="translate(57.616875 292.273594) scale(0.22 -0.22)">
       <use xlink:href="#ArialMT-30"/>
      </g>
     </g>
    </g>
    <g id="ytick_2">
     <g id="line2d_11">
      <path d="M 79.350938 235.511111 
L 358.350937 235.511111 
" clip-path="url(#pe82bdbfff6)" style="fill: none; stroke: #ffffff; stroke-linecap: round"/>
     </g>
     <g id="line2d_12">
      <g>
       <use xlink:href="#m615f3ec15c" x="79.350938" y="235.511111" style="stroke: #000000; stroke-width: 1.25"/>
      </g>
     </g>
     <g id="text_7">
      <!-- 100 -->
      <g transform="translate(33.14875 243.384705) scale(0.22 -0.22)">
       <use xlink:href="#ArialMT-31"/>
       <use xlink:href="#ArialMT-30" x="55.615234"/>
       <use xlink:href="#ArialMT-30" x="111.230469"/>
      </g>
     </g>
    </g>
    <g id="ytick_3">
     <g id="line2d_13">
      <path d="M 79.350938 186.622222 
L 358.350937 186.622222 
" clip-path="url(#pe82bdbfff6)" style="fill: none; stroke: #ffffff; stroke-linecap: round"/>
     </g>
     <g id="line2d_14">
      <g>
       <use xlink:href="#m615f3ec15c" x="79.350938" y="186.622222" style="stroke: #000000; stroke-width: 1.25"/>
      </g>
     </g>
     <g id="text_8">
      <!-- 200 -->
      <g transform="translate(33.14875 194.495816) scale(0.22 -0.22)">
       <use xlink:href="#ArialMT-32"/>
       <use xlink:href="#ArialMT-30" x="55.615234"/>
       <use xlink:href="#ArialMT-30" x="111.230469"/>
      </g>
     </g>
    </g>
    <g id="ytick_4">
     <g id="line2d_15">
      <path d="M 79.350938 137.733333 
L 358.350937 137.733333 
" clip-path="url(#pe82bdbfff6)" style="fill: none; stroke: #ffffff; stroke-linecap: round"/>
     </g>
     <g id="line2d_16">
      <g>
       <use xlink:href="#m615f3ec15c" x="79.350938" y="137.733333" style="stroke: #000000; stroke-width: 1.25"/>
      </g>
     </g>
     <g id="text_9">
      <!-- 300 -->
      <g transform="translate(33.14875 145.606927) scale(0.22 -0.22)">
       <use xlink:href="#ArialMT-33"/>
       <use xlink:href="#ArialMT-30" x="55.615234"/>
       <use xlink:href="#ArialMT-30" x="111.230469"/>
      </g>
     </g>
    </g>
    <g id="ytick_5">
     <g id="line2d_17">
      <path d="M 79.350938 88.844444 
L 358.350937 88.844444 
" clip-path="url(#pe82bdbfff6)" style="fill: none; stroke: #ffffff; stroke-linecap: round"/>
     </g>
     <g id="line2d_18">
      <g>
       <use xlink:href="#m615f3ec15c" x="79.350938" y="88.844444" style="stroke: #000000; stroke-width: 1.25"/>
      </g>
     </g>
     <g id="text_10">
      <!-- 400 -->
      <g transform="translate(33.14875 96.718038) scale(0.22 -0.22)">
       <defs>
        <path id="ArialMT-34" d="M 2069 0 
L 2069 1097 
L 81 1097 
L 81 1613 
L 2172 4581 
L 2631 4581 
L 2631 1613 
L 3250 1613 
L 3250 1097 
L 2631 1097 
L 2631 0 
L 2069 0 
z
M 2069 1613 
L 2069 3678 
L 634 1613 
L 2069 1613 
z
" transform="scale(0.015625)"/>
       </defs>
       <use xlink:href="#ArialMT-34"/>
       <use xlink:href="#ArialMT-30" x="55.615234"/>
       <use xlink:href="#ArialMT-30" x="111.230469"/>
      </g>
     </g>
    </g>
    <g id="ytick_6">
     <g id="line2d_19">
      <path d="M 79.350938 39.955556 
L 358.350937 39.955556 
" clip-path="url(#pe82bdbfff6)" style="fill: none; stroke: #ffffff; stroke-linecap: round"/>
     </g>
     <g id="line2d_20">
      <g>
       <use xlink:href="#m615f3ec15c" x="79.350938" y="39.955556" style="stroke: #000000; stroke-width: 1.25"/>
      </g>
     </g>
     <g id="text_11">
      <!-- 500 -->
      <g transform="translate(33.14875 47.829149) scale(0.22 -0.22)">
       <defs>
        <path id="ArialMT-35" d="M 266 1200 
L 856 1250 
Q 922 819 1161 601 
Q 1400 384 1738 384 
Q 2144 384 2425 690 
Q 2706 997 2706 1503 
Q 2706 1984 2436 2262 
Q 2166 2541 1728 2541 
Q 1456 2541 1237 2417 
Q 1019 2294 894 2097 
L 366 2166 
L 809 4519 
L 3088 4519 
L 3088 3981 
L 1259 3981 
L 1013 2750 
Q 1425 3038 1878 3038 
Q 2478 3038 2890 2622 
Q 3303 2206 3303 1553 
Q 3303 931 2941 478 
Q 2500 -78 1738 -78 
Q 1113 -78 717 272 
Q 322 622 266 1200 
z
" transform="scale(0.015625)"/>
       </defs>
       <use xlink:href="#ArialMT-35"/>
       <use xlink:href="#ArialMT-30" x="55.615234"/>
       <use xlink:href="#ArialMT-30" x="111.230469"/>
      </g>
     </g>
    </g>
    <g id="text_12">
     <!-- Count -->
     <g style="fill: #262626" transform="translate(24.37875 177.819375) rotate(-90) scale(0.24 -0.24)">
      <defs>
       <path id="ArialMT-43" d="M 3763 1606 
L 4369 1453 
Q 4178 706 3683 314 
Q 3188 -78 2472 -78 
Q 1731 -78 1267 223 
Q 803 525 561 1097 
Q 319 1669 319 2325 
Q 319 3041 592 3573 
Q 866 4106 1370 4382 
Q 1875 4659 2481 4659 
Q 3169 4659 3637 4309 
Q 4106 3959 4291 3325 
L 3694 3184 
Q 3534 3684 3231 3912 
Q 2928 4141 2469 4141 
Q 1941 4141 1586 3887 
Q 1231 3634 1087 3207 
Q 944 2781 944 2328 
Q 944 1744 1114 1308 
Q 1284 872 1643 656 
Q 2003 441 2422 441 
Q 2931 441 3284 734 
Q 3638 1028 3763 1606 
z
" transform="scale(0.015625)"/>
       <path id="ArialMT-75" d="M 2597 0 
L 2597 488 
Q 2209 -75 1544 -75 
Q 1250 -75 995 37 
Q 741 150 617 320 
Q 494 491 444 738 
Q 409 903 409 1263 
L 409 3319 
L 972 3319 
L 972 1478 
Q 972 1038 1006 884 
Q 1059 663 1231 536 
Q 1403 409 1656 409 
Q 1909 409 2131 539 
Q 2353 669 2445 892 
Q 2538 1116 2538 1541 
L 2538 3319 
L 3100 3319 
L 3100 0 
L 2597 0 
z
" transform="scale(0.015625)"/>
       <path id="ArialMT-74" d="M 1650 503 
L 1731 6 
Q 1494 -44 1306 -44 
Q 1000 -44 831 53 
Q 663 150 594 308 
Q 525 466 525 972 
L 525 2881 
L 113 2881 
L 113 3319 
L 525 3319 
L 525 4141 
L 1084 4478 
L 1084 3319 
L 1650 3319 
L 1650 2881 
L 1084 2881 
L 1084 941 
Q 1084 700 1114 631 
Q 1144 563 1211 522 
Q 1278 481 1403 481 
Q 1497 481 1650 503 
z
" transform="scale(0.015625)"/>
      </defs>
      <use xlink:href="#ArialMT-43"/>
      <use xlink:href="#ArialMT-6f" x="72.216797"/>
      <use xlink:href="#ArialMT-75" x="127.832031"/>
      <use xlink:href="#ArialMT-6e" x="183.447266"/>
      <use xlink:href="#ArialMT-74" x="239.0625"/>
     </g>
    </g>
   </g>
   <g id="patch_3">
    <path d="M 92.032756 284.4 
L 113.169119 284.4 
L 113.169119 196.4 
L 92.032756 196.4 
z
" clip-path="url(#pe82bdbfff6)" style="fill: #e866f4; fill-opacity: 0.75; stroke: #ffffff; stroke-linejoin: miter"/>
   </g>
   <g id="patch_4">
    <path d="M 113.169119 284.4 
L 134.305483 284.4 
L 134.305483 284.4 
L 113.169119 284.4 
z
" clip-path="url(#pe82bdbfff6)" style="fill: #e866f4; fill-opacity: 0.75; stroke: #ffffff; stroke-linejoin: miter"/>
   </g>
   <g id="patch_5">
    <path d="M 134.305483 284.4 
L 155.441847 284.4 
L 155.441847 284.4 
L 134.305483 284.4 
z
" clip-path="url(#pe82bdbfff6)" style="fill: #e866f4; fill-opacity: 0.75; stroke: #ffffff; stroke-linejoin: miter"/>
   </g>
   <g id="patch_6">
    <path d="M 155.441847 284.4 
L 176.57821 284.4 
L 176.57821 284.4 
L 155.441847 284.4 
z
" clip-path="url(#pe82bdbfff6)" style="fill: #e866f4; fill-opacity: 0.75; stroke: #ffffff; stroke-linejoin: miter"/>
   </g>
   <g id="patch_7">
    <path d="M 176.57821 284.4 
L 197.714574 284.4 
L 197.714574 284.4 
L 176.57821 284.4 
z
" clip-path="url(#pe82bdbfff6)" style="fill: #e866f4; fill-opacity: 0.75; stroke: #ffffff; stroke-linejoin: miter"/>
   </g>
   <g id="patch_8">
    <path d="M 197.714574 284.4 
L 218.850938 284.4 
L 218.850938 284.4 
L 197.714574 284.4 
z
" clip-path="url(#pe82bdbfff6)" style="fill: #e866f4; fill-opacity: 0.75; stroke: #ffffff; stroke-linejoin: miter"/>
   </g>
   <g id="patch_9">
    <path d="M 218.850938 284.4 
L 239.987301 284.4 
L 239.987301 284.4 
L 218.850938 284.4 
z
" clip-path="url(#pe82bdbfff6)" style="fill: #e866f4; fill-opacity: 0.75; stroke: #ffffff; stroke-linejoin: miter"/>
   </g>
   <g id="patch_10">
    <path d="M 239.987301 284.4 
L 261.123665 284.4 
L 261.123665 284.4 
L 239.987301 284.4 
z
" clip-path="url(#pe82bdbfff6)" style="fill: #e866f4; fill-opacity: 0.75; stroke: #ffffff; stroke-linejoin: miter"/>
   </g>
   <g id="patch_11">
    <path d="M 261.123665 284.4 
L 282.260028 284.4 
L 282.260028 284.4 
L 261.123665 284.4 
z
" clip-path="url(#pe82bdbfff6)" style="fill: #e866f4; fill-opacity: 0.75; stroke: #ffffff; stroke-linejoin: miter"/>
   </g>
   <g id="patch_12">
    <path d="M 282.260028 284.4 
L 303.396392 284.4 
L 303.396392 284.4 
L 282.260028 284.4 
z
" clip-path="url(#pe82bdbfff6)" style="fill: #e866f4; fill-opacity: 0.75; stroke: #ffffff; stroke-linejoin: miter"/>
   </g>
   <g id="patch_13">
    <path d="M 303.396392 284.4 
L 324.532756 284.4 
L 324.532756 284.4 
L 303.396392 284.4 
z
" clip-path="url(#pe82bdbfff6)" style="fill: #e866f4; fill-opacity: 0.75; stroke: #ffffff; stroke-linejoin: miter"/>
   </g>
   <g id="patch_14">
    <path d="M 324.532756 284.4 
L 345.669119 284.4 
L 345.669119 284.4 
L 324.532756 284.4 
z
" clip-path="url(#pe82bdbfff6)" style="fill: #e866f4; fill-opacity: 0.75; stroke: #ffffff; stroke-linejoin: miter"/>
   </g>
   <g id="patch_15">
    <path d="M 92.032756 196.4 
L 113.169119 196.4 
L 113.169119 196.4 
L 92.032756 196.4 
z
" clip-path="url(#pe82bdbfff6)" style="fill: #3ba3ec; fill-opacity: 0.75; stroke: #ffffff; stroke-linejoin: miter"/>
   </g>
   <g id="patch_16">
    <path d="M 113.169119 284.4 
L 134.305483 284.4 
L 134.305483 284.4 
L 113.169119 284.4 
z
" clip-path="url(#pe82bdbfff6)" style="fill: #3ba3ec; fill-opacity: 0.75; stroke: #ffffff; stroke-linejoin: miter"/>
   </g>
   <g id="patch_17">
    <path d="M 134.305483 284.4 
L 155.441847 284.4 
L 155.441847 284.4 
L 134.305483 284.4 
z
" clip-path="url(#pe82bdbfff6)" style="fill: #3ba3ec; fill-opacity: 0.75; stroke: #ffffff; stroke-linejoin: miter"/>
   </g>
   <g id="patch_18">
    <path d="M 155.441847 284.4 
L 176.57821 284.4 
L 176.57821 284.4 
L 155.441847 284.4 
z
" clip-path="url(#pe82bdbfff6)" style="fill: #3ba3ec; fill-opacity: 0.75; stroke: #ffffff; stroke-linejoin: miter"/>
   </g>
   <g id="patch_19">
    <path d="M 176.57821 284.4 
L 197.714574 284.4 
L 197.714574 284.4 
L 176.57821 284.4 
z
" clip-path="url(#pe82bdbfff6)" style="fill: #3ba3ec; fill-opacity: 0.75; stroke: #ffffff; stroke-linejoin: miter"/>
   </g>
   <g id="patch_20">
    <path d="M 197.714574 284.4 
L 218.850938 284.4 
L 218.850938 284.4 
L 197.714574 284.4 
z
" clip-path="url(#pe82bdbfff6)" style="fill: #3ba3ec; fill-opacity: 0.75; stroke: #ffffff; stroke-linejoin: miter"/>
   </g>
   <g id="patch_21">
    <path d="M 218.850938 284.4 
L 239.987301 284.4 
L 239.987301 284.4 
L 218.850938 284.4 
z
" clip-path="url(#pe82bdbfff6)" style="fill: #3ba3ec; fill-opacity: 0.75; stroke: #ffffff; stroke-linejoin: miter"/>
   </g>
   <g id="patch_22">
    <path d="M 239.987301 284.4 
L 261.123665 284.4 
L 261.123665 284.4 
L 239.987301 284.4 
z
" clip-path="url(#pe82bdbfff6)" style="fill: #3ba3ec; fill-opacity: 0.75; stroke: #ffffff; stroke-linejoin: miter"/>
   </g>
   <g id="patch_23">
    <path d="M 261.123665 284.4 
L 282.260028 284.4 
L 282.260028 196.4 
L 261.123665 196.4 
z
" clip-path="url(#pe82bdbfff6)" style="fill: #3ba3ec; fill-opacity: 0.75; stroke: #ffffff; stroke-linejoin: miter"/>
   </g>
   <g id="patch_24">
    <path d="M 282.260028 284.4 
L 303.396392 284.4 
L 303.396392 284.4 
L 282.260028 284.4 
z
" clip-path="url(#pe82bdbfff6)" style="fill: #3ba3ec; fill-opacity: 0.75; stroke: #ffffff; stroke-linejoin: miter"/>
   </g>
   <g id="patch_25">
    <path d="M 303.396392 284.4 
L 324.532756 284.4 
L 324.532756 284.4 
L 303.396392 284.4 
z
" clip-path="url(#pe82bdbfff6)" style="fill: #3ba3ec; fill-opacity: 0.75; stroke: #ffffff; stroke-linejoin: miter"/>
   </g>
   <g id="patch_26">
    <path d="M 324.532756 284.4 
L 345.669119 284.4 
L 345.669119 284.4 
L 324.532756 284.4 
z
" clip-path="url(#pe82bdbfff6)" style="fill: #3ba3ec; fill-opacity: 0.75; stroke: #ffffff; stroke-linejoin: miter"/>
   </g>
   <g id="patch_27">
    <path d="M 92.032756 196.4 
L 113.169119 196.4 
L 113.169119 108.4 
L 92.032756 108.4 
z
" clip-path="url(#pe82bdbfff6)" style="fill: #36ada4; fill-opacity: 0.75; stroke: #ffffff; stroke-linejoin: miter"/>
   </g>
   <g id="patch_28">
    <path d="M 113.169119 284.4 
L 134.305483 284.4 
L 134.305483 284.4 
L 113.169119 284.4 
z
" clip-path="url(#pe82bdbfff6)" style="fill: #36ada4; fill-opacity: 0.75; stroke: #ffffff; stroke-linejoin: miter"/>
   </g>
   <g id="patch_29">
    <path d="M 134.305483 284.4 
L 155.441847 284.4 
L 155.441847 284.4 
L 134.305483 284.4 
z
" clip-path="url(#pe82bdbfff6)" style="fill: #36ada4; fill-opacity: 0.75; stroke: #ffffff; stroke-linejoin: miter"/>
   </g>
   <g id="patch_30">
    <path d="M 155.441847 284.4 
L 176.57821 284.4 
L 176.57821 284.4 
L 155.441847 284.4 
z
" clip-path="url(#pe82bdbfff6)" style="fill: #36ada4; fill-opacity: 0.75; stroke: #ffffff; stroke-linejoin: miter"/>
   </g>
   <g id="patch_31">
    <path d="M 176.57821 284.4 
L 197.714574 284.4 
L 197.714574 284.4 
L 176.57821 284.4 
z
" clip-path="url(#pe82bdbfff6)" style="fill: #36ada4; fill-opacity: 0.75; stroke: #ffffff; stroke-linejoin: miter"/>
   </g>
   <g id="patch_32">
    <path d="M 197.714574 284.4 
L 218.850938 284.4 
L 218.850938 284.4 
L 197.714574 284.4 
z
" clip-path="url(#pe82bdbfff6)" style="fill: #36ada4; fill-opacity: 0.75; stroke: #ffffff; stroke-linejoin: miter"/>
   </g>
   <g id="patch_33">
    <path d="M 218.850938 284.4 
L 239.987301 284.4 
L 239.987301 284.4 
L 218.850938 284.4 
z
" clip-path="url(#pe82bdbfff6)" style="fill: #36ada4; fill-opacity: 0.75; stroke: #ffffff; stroke-linejoin: miter"/>
   </g>
   <g id="patch_34">
    <path d="M 239.987301 284.4 
L 261.123665 284.4 
L 261.123665 284.4 
L 239.987301 284.4 
z
" clip-path="url(#pe82bdbfff6)" style="fill: #36ada4; fill-opacity: 0.75; stroke: #ffffff; stroke-linejoin: miter"/>
   </g>
   <g id="patch_35">
    <path d="M 261.123665 196.4 
L 282.260028 196.4 
L 282.260028 196.4 
L 261.123665 196.4 
z
" clip-path="url(#pe82bdbfff6)" style="fill: #36ada4; fill-opacity: 0.75; stroke: #ffffff; stroke-linejoin: miter"/>
   </g>
   <g id="patch_36">
    <path d="M 282.260028 284.4 
L 303.396392 284.4 
L 303.396392 284.4 
L 282.260028 284.4 
z
" clip-path="url(#pe82bdbfff6)" style="fill: #36ada4; fill-opacity: 0.75; stroke: #ffffff; stroke-linejoin: miter"/>
   </g>
   <g id="patch_37">
    <path d="M 303.396392 284.4 
L 324.532756 284.4 
L 324.532756 284.4 
L 303.396392 284.4 
z
" clip-path="url(#pe82bdbfff6)" style="fill: #36ada4; fill-opacity: 0.75; stroke: #ffffff; stroke-linejoin: miter"/>
   </g>
   <g id="patch_38">
    <path d="M 324.532756 284.4 
L 345.669119 284.4 
L 345.669119 284.4 
L 324.532756 284.4 
z
" clip-path="url(#pe82bdbfff6)" style="fill: #36ada4; fill-opacity: 0.75; stroke: #ffffff; stroke-linejoin: miter"/>
   </g>
   <g id="patch_39">
    <path d="M 92.032756 108.4 
L 113.169119 108.4 
L 113.169119 20.4 
L 92.032756 20.4 
z
" clip-path="url(#pe82bdbfff6)" style="fill: #50b131; fill-opacity: 0.75; stroke: #ffffff; stroke-linejoin: miter"/>
   </g>
   <g id="patch_40">
    <path d="M 113.169119 284.4 
L 134.305483 284.4 
L 134.305483 284.4 
L 113.169119 284.4 
z
" clip-path="url(#pe82bdbfff6)" style="fill: #50b131; fill-opacity: 0.75; stroke: #ffffff; stroke-linejoin: miter"/>
   </g>
   <g id="patch_41">
    <path d="M 134.305483 284.4 
L 155.441847 284.4 
L 155.441847 284.4 
L 134.305483 284.4 
z
" clip-path="url(#pe82bdbfff6)" style="fill: #50b131; fill-opacity: 0.75; stroke: #ffffff; stroke-linejoin: miter"/>
   </g>
   <g id="patch_42">
    <path d="M 155.441847 284.4 
L 176.57821 284.4 
L 176.57821 284.4 
L 155.441847 284.4 
z
" clip-path="url(#pe82bdbfff6)" style="fill: #50b131; fill-opacity: 0.75; stroke: #ffffff; stroke-linejoin: miter"/>
   </g>
   <g id="patch_43">
    <path d="M 176.57821 284.4 
L 197.714574 284.4 
L 197.714574 284.4 
L 176.57821 284.4 
z
" clip-path="url(#pe82bdbfff6)" style="fill: #50b131; fill-opacity: 0.75; stroke: #ffffff; stroke-linejoin: miter"/>
   </g>
   <g id="patch_44">
    <path d="M 197.714574 284.4 
L 218.850938 284.4 
L 218.850938 284.4 
L 197.714574 284.4 
z
" clip-path="url(#pe82bdbfff6)" style="fill: #50b131; fill-opacity: 0.75; stroke: #ffffff; stroke-linejoin: miter"/>
   </g>
   <g id="patch_45">
    <path d="M 218.850938 284.4 
L 239.987301 284.4 
L 239.987301 284.4 
L 218.850938 284.4 
z
" clip-path="url(#pe82bdbfff6)" style="fill: #50b131; fill-opacity: 0.75; stroke: #ffffff; stroke-linejoin: miter"/>
   </g>
   <g id="patch_46">
    <path d="M 239.987301 284.4 
L 261.123665 284.4 
L 261.123665 284.4 
L 239.987301 284.4 
z
" clip-path="url(#pe82bdbfff6)" style="fill: #50b131; fill-opacity: 0.75; stroke: #ffffff; stroke-linejoin: miter"/>
   </g>
   <g id="patch_47">
    <path d="M 261.123665 196.4 
L 282.260028 196.4 
L 282.260028 196.4 
L 261.123665 196.4 
z
" clip-path="url(#pe82bdbfff6)" style="fill: #50b131; fill-opacity: 0.75; stroke: #ffffff; stroke-linejoin: miter"/>
   </g>
   <g id="patch_48">
    <path d="M 282.260028 284.4 
L 303.396392 284.4 
L 303.396392 284.4 
L 282.260028 284.4 
z
" clip-path="url(#pe82bdbfff6)" style="fill: #50b131; fill-opacity: 0.75; stroke: #ffffff; stroke-linejoin: miter"/>
   </g>
   <g id="patch_49">
    <path d="M 303.396392 284.4 
L 324.532756 284.4 
L 324.532756 284.4 
L 303.396392 284.4 
z
" clip-path="url(#pe82bdbfff6)" style="fill: #50b131; fill-opacity: 0.75; stroke: #ffffff; stroke-linejoin: miter"/>
   </g>
   <g id="patch_50">
    <path d="M 324.532756 284.4 
L 345.669119 284.4 
L 345.669119 284.4 
L 324.532756 284.4 
z
" clip-path="url(#pe82bdbfff6)" style="fill: #50b131; fill-opacity: 0.75; stroke: #ffffff; stroke-linejoin: miter"/>
   </g>
   <g id="patch_51">
    <path d="M 92.032756 20.4 
L 113.169119 20.4 
L 113.169119 20.4 
L 92.032756 20.4 
z
" clip-path="url(#pe82bdbfff6)" style="fill: #bb9832; fill-opacity: 0.75; stroke: #ffffff; stroke-linejoin: miter"/>
   </g>
   <g id="patch_52">
    <path d="M 113.169119 284.4 
L 134.305483 284.4 
L 134.305483 284.4 
L 113.169119 284.4 
z
" clip-path="url(#pe82bdbfff6)" style="fill: #bb9832; fill-opacity: 0.75; stroke: #ffffff; stroke-linejoin: miter"/>
   </g>
   <g id="patch_53">
    <path d="M 134.305483 284.4 
L 155.441847 284.4 
L 155.441847 284.4 
L 134.305483 284.4 
z
" clip-path="url(#pe82bdbfff6)" style="fill: #bb9832; fill-opacity: 0.75; stroke: #ffffff; stroke-linejoin: miter"/>
   </g>
   <g id="patch_54">
    <path d="M 155.441847 284.4 
L 176.57821 284.4 
L 176.57821 284.4 
L 155.441847 284.4 
z
" clip-path="url(#pe82bdbfff6)" style="fill: #bb9832; fill-opacity: 0.75; stroke: #ffffff; stroke-linejoin: miter"/>
   </g>
   <g id="patch_55">
    <path d="M 176.57821 284.4 
L 197.714574 284.4 
L 197.714574 284.4 
L 176.57821 284.4 
z
" clip-path="url(#pe82bdbfff6)" style="fill: #bb9832; fill-opacity: 0.75; stroke: #ffffff; stroke-linejoin: miter"/>
   </g>
   <g id="patch_56">
    <path d="M 197.714574 284.4 
L 218.850938 284.4 
L 218.850938 284.4 
L 197.714574 284.4 
z
" clip-path="url(#pe82bdbfff6)" style="fill: #bb9832; fill-opacity: 0.75; stroke: #ffffff; stroke-linejoin: miter"/>
   </g>
   <g id="patch_57">
    <path d="M 218.850938 284.4 
L 239.987301 284.4 
L 239.987301 284.4 
L 218.850938 284.4 
z
" clip-path="url(#pe82bdbfff6)" style="fill: #bb9832; fill-opacity: 0.75; stroke: #ffffff; stroke-linejoin: miter"/>
   </g>
   <g id="patch_58">
    <path d="M 239.987301 284.4 
L 261.123665 284.4 
L 261.123665 284.4 
L 239.987301 284.4 
z
" clip-path="url(#pe82bdbfff6)" style="fill: #bb9832; fill-opacity: 0.75; stroke: #ffffff; stroke-linejoin: miter"/>
   </g>
   <g id="patch_59">
    <path d="M 261.123665 196.4 
L 282.260028 196.4 
L 282.260028 108.4 
L 261.123665 108.4 
z
" clip-path="url(#pe82bdbfff6)" style="fill: #bb9832; fill-opacity: 0.75; stroke: #ffffff; stroke-linejoin: miter"/>
   </g>
   <g id="patch_60">
    <path d="M 282.260028 284.4 
L 303.396392 284.4 
L 303.396392 284.4 
L 282.260028 284.4 
z
" clip-path="url(#pe82bdbfff6)" style="fill: #bb9832; fill-opacity: 0.75; stroke: #ffffff; stroke-linejoin: miter"/>
   </g>
   <g id="patch_61">
    <path d="M 303.396392 284.4 
L 324.532756 284.4 
L 324.532756 284.4 
L 303.396392 284.4 
z
" clip-path="url(#pe82bdbfff6)" style="fill: #bb9832; fill-opacity: 0.75; stroke: #ffffff; stroke-linejoin: miter"/>
   </g>
   <g id="patch_62">
    <path d="M 324.532756 284.4 
L 345.669119 284.4 
L 345.669119 284.4 
L 324.532756 284.4 
z
" clip-path="url(#pe82bdbfff6)" style="fill: #bb9832; fill-opacity: 0.75; stroke: #ffffff; stroke-linejoin: miter"/>
   </g>
   <g id="patch_63">
    <path d="M 92.032756 20.4 
L 113.169119 20.4 
L 113.169119 20.4 
L 92.032756 20.4 
z
" clip-path="url(#pe82bdbfff6)" style="fill: #f77189; fill-opacity: 0.75; stroke: #ffffff; stroke-linejoin: miter"/>
   </g>
   <g id="patch_64">
    <path d="M 113.169119 284.4 
L 134.305483 284.4 
L 134.305483 284.4 
L 113.169119 284.4 
z
" clip-path="url(#pe82bdbfff6)" style="fill: #f77189; fill-opacity: 0.75; stroke: #ffffff; stroke-linejoin: miter"/>
   </g>
   <g id="patch_65">
    <path d="M 134.305483 284.4 
L 155.441847 284.4 
L 155.441847 284.4 
L 134.305483 284.4 
z
" clip-path="url(#pe82bdbfff6)" style="fill: #f77189; fill-opacity: 0.75; stroke: #ffffff; stroke-linejoin: miter"/>
   </g>
   <g id="patch_66">
    <path d="M 155.441847 284.4 
L 176.57821 284.4 
L 176.57821 284.4 
L 155.441847 284.4 
z
" clip-path="url(#pe82bdbfff6)" style="fill: #f77189; fill-opacity: 0.75; stroke: #ffffff; stroke-linejoin: miter"/>
   </g>
   <g id="patch_67">
    <path d="M 176.57821 284.4 
L 197.714574 284.4 
L 197.714574 284.4 
L 176.57821 284.4 
z
" clip-path="url(#pe82bdbfff6)" style="fill: #f77189; fill-opacity: 0.75; stroke: #ffffff; stroke-linejoin: miter"/>
   </g>
   <g id="patch_68">
    <path d="M 197.714574 284.4 
L 218.850938 284.4 
L 218.850938 284.4 
L 197.714574 284.4 
z
" clip-path="url(#pe82bdbfff6)" style="fill: #f77189; fill-opacity: 0.75; stroke: #ffffff; stroke-linejoin: miter"/>
   </g>
   <g id="patch_69">
    <path d="M 218.850938 284.4 
L 239.987301 284.4 
L 239.987301 284.4 
L 218.850938 284.4 
z
" clip-path="url(#pe82bdbfff6)" style="fill: #f77189; fill-opacity: 0.75; stroke: #ffffff; stroke-linejoin: miter"/>
   </g>
   <g id="patch_70">
    <path d="M 239.987301 284.4 
L 261.123665 284.4 
L 261.123665 284.4 
L 239.987301 284.4 
z
" clip-path="url(#pe82bdbfff6)" style="fill: #f77189; fill-opacity: 0.75; stroke: #ffffff; stroke-linejoin: miter"/>
   </g>
   <g id="patch_71">
    <path d="M 261.123665 108.4 
L 282.260028 108.4 
L 282.260028 108.4 
L 261.123665 108.4 
z
" clip-path="url(#pe82bdbfff6)" style="fill: #f77189; fill-opacity: 0.75; stroke: #ffffff; stroke-linejoin: miter"/>
   </g>
   <g id="patch_72">
    <path d="M 282.260028 284.4 
L 303.396392 284.4 
L 303.396392 284.4 
L 282.260028 284.4 
z
" clip-path="url(#pe82bdbfff6)" style="fill: #f77189; fill-opacity: 0.75; stroke: #ffffff; stroke-linejoin: miter"/>
   </g>
   <g id="patch_73">
    <path d="M 303.396392 284.4 
L 324.532756 284.4 
L 324.532756 284.4 
L 303.396392 284.4 
z
" clip-path="url(#pe82bdbfff6)" style="fill: #f77189; fill-opacity: 0.75; stroke: #ffffff; stroke-linejoin: miter"/>
   </g>
   <g id="patch_74">
    <path d="M 324.532756 284.4 
L 345.669119 284.4 
L 345.669119 196.4 
L 324.532756 196.4 
z
" clip-path="url(#pe82bdbfff6)" style="fill: #f77189; fill-opacity: 0.75; stroke: #ffffff; stroke-linejoin: miter"/>
   </g>
   <g id="patch_75">
    <path d="M 79.350938 284.4 
L 79.350938 7.2 
" style="fill: none; stroke: #000000; stroke-width: 1.25; stroke-linejoin: miter; stroke-linecap: square"/>
   </g>
   <g id="patch_76">
    <path d="M 79.350938 284.4 
L 358.350937 284.4 
" style="fill: none; stroke: #000000; stroke-width: 1.25; stroke-linejoin: miter; stroke-linecap: square"/>
   </g>
  </g>
 </g>
 <defs>
  <clipPath id="pe82bdbfff6">
   <rect x="79.350938" y="7.2" width="279" height="277.2"/>
  </clipPath>
 </defs>
</svg>
