<?xml version="1.0" encoding="utf-8" standalone="no"?>
<!DOCTYPE svg PUBLIC "-//W3C//DTD SVG 1.1//EN"
  "http://www.w3.org/Graphics/SVG/1.1/DTD/svg11.dtd">
<svg xmlns:xlink="http://www.w3.org/1999/xlink" width="368.159119pt" height="347.168438pt" viewBox="0 0 368.159119 347.168438" xmlns="http://www.w3.org/2000/svg" version="1.1">
 <metadata>
  <rdf:RDF xmlns:dc="http://purl.org/dc/elements/1.1/" xmlns:cc="http://creativecommons.org/ns#" xmlns:rdf="http://www.w3.org/1999/02/22-rdf-syntax-ns#">
   <cc:Work>
    <dc:type rdf:resource="http://purl.org/dc/dcmitype/StillImage"/>
    <dc:date>2024-08-11T22:35:03.076612</dc:date>
    <dc:format>image/svg+xml</dc:format>
    <dc:creator>
     <cc:Agent>
      <dc:title>Matplotlib v3.6.3, https://matplotlib.org/</dc:title>
     </cc:Agent>
    </dc:creator>
   </cc:Work>
  </rdf:RDF>
 </metadata>
 <defs>
  <style type="text/css">*{stroke-linejoin: round; stroke-linecap: butt}</style>
 </defs>
 <g id="figure_1">
  <g id="patch_1">
   <path d="M 0 347.168438 
L 368.159119 347.168438 
L 368.159119 0 
L 0 0 
L 0 347.168438 
z
" style="fill: none"/>
  </g>
  <g id="axes_1">
   <g id="patch_2">
    <path d="M 79.350938 284.4 
L 358.350937 284.4 
L 358.350937 7.2 
L 79.350938 7.2 
L 79.350938 284.4 
z
" style="fill: none"/>
   </g>
   <g id="matplotlib.axis_1">
    <g id="xtick_1">
     <g id="line2d_1">
      <path d="M 92.032756 284.4 
L 92.032756 7.2 
" clip-path="url(#p557f66fac7)" style="fill: none; stroke: #ffffff; stroke-linecap: round"/>
     </g>
     <g id="line2d_2">
      <defs>
       <path id="m30910fdfd7" d="M 0 0 
L 0 6 
" style="stroke: #000000; stroke-width: 1.25"/>
      </defs>
      <g>
       <use xlink:href="#m30910fdfd7" x="92.032756" y="284.4" style="stroke: #000000; stroke-width: 1.25"/>
      </g>
     </g>
     <g id="text_1">
      <!-- 0.0 -->
      <g transform="translate(76.742756 309.647188) scale(0.22 -0.22)">
       <defs>
        <path id="ArialMT-30" d="M 266 2259 
Q 266 3072 433 3567 
Q 600 4063 929 4331 
Q 1259 4600 1759 4600 
Q 2128 4600 2406 4451 
Q 2684 4303 2865 4023 
Q 3047 3744 3150 3342 
Q 3253 2941 3253 2259 
Q 3253 1453 3087 958 
Q 2922 463 2592 192 
Q 2263 -78 1759 -78 
Q 1097 -78 719 397 
Q 266 969 266 2259 
z
M 844 2259 
Q 844 1131 1108 757 
Q 1372 384 1759 384 
Q 2147 384 2411 759 
Q 2675 1134 2675 2259 
Q 2675 3391 2411 3762 
Q 2147 4134 1753 4134 
Q 1366 4134 1134 3806 
Q 844 3388 844 2259 
z
" transform="scale(0.015625)"/>
        <path id="ArialMT-2e" d="M 581 0 
L 581 641 
L 1222 641 
L 1222 0 
L 581 0 
z
" transform="scale(0.015625)"/>
       </defs>
       <use xlink:href="#ArialMT-30"/>
       <use xlink:href="#ArialMT-2e" x="55.615234"/>
       <use xlink:href="#ArialMT-30" x="83.398438"/>
      </g>
     </g>
    </g>
    <g id="xtick_2">
     <g id="line2d_3">
      <path d="M 218.850938 284.4 
L 218.850938 7.2 
" clip-path="url(#p557f66fac7)" style="fill: none; stroke: #ffffff; stroke-linecap: round"/>
     </g>
     <g id="line2d_4">
      <g>
       <use xlink:href="#m30910fdfd7" x="218.850938" y="284.4" style="stroke: #000000; stroke-width: 1.25"/>
      </g>
     </g>
     <g id="text_2">
      <!-- 0.5 -->
      <g transform="translate(203.560938 309.647188) scale(0.22 -0.22)">
       <defs>
        <path id="ArialMT-35" d="M 266 1200 
L 856 1250 
Q 922 819 1161 601 
Q 1400 384 1738 384 
Q 2144 384 2425 690 
Q 2706 997 2706 1503 
Q 2706 1984 2436 2262 
Q 2166 2541 1728 2541 
Q 1456 2541 1237 2417 
Q 1019 2294 894 2097 
L 366 2166 
L 809 4519 
L 3088 4519 
L 3088 3981 
L 1259 3981 
L 1013 2750 
Q 1425 3038 1878 3038 
Q 2478 3038 2890 2622 
Q 3303 2206 3303 1553 
Q 3303 931 2941 478 
Q 2500 -78 1738 -78 
Q 1113 -78 717 272 
Q 322 622 266 1200 
z
" transform="scale(0.015625)"/>
       </defs>
       <use xlink:href="#ArialMT-30"/>
       <use xlink:href="#ArialMT-2e" x="55.615234"/>
       <use xlink:href="#ArialMT-35" x="83.398438"/>
      </g>
     </g>
    </g>
    <g id="xtick_3">
     <g id="line2d_5">
      <path d="M 345.669119 284.4 
L 345.669119 7.2 
" clip-path="url(#p557f66fac7)" style="fill: none; stroke: #ffffff; stroke-linecap: round"/>
     </g>
     <g id="line2d_6">
      <g>
       <use xlink:href="#m30910fdfd7" x="345.669119" y="284.4" style="stroke: #000000; stroke-width: 1.25"/>
      </g>
     </g>
     <g id="text_3">
      <!-- 1.0 -->
      <g transform="translate(330.379119 309.647188) scale(0.22 -0.22)">
       <defs>
        <path id="ArialMT-31" d="M 2384 0 
L 1822 0 
L 1822 3584 
Q 1619 3391 1289 3197 
Q 959 3003 697 2906 
L 697 3450 
Q 1169 3672 1522 3987 
Q 1875 4303 2022 4600 
L 2384 4600 
L 2384 0 
z
" transform="scale(0.015625)"/>
       </defs>
       <use xlink:href="#ArialMT-31"/>
       <use xlink:href="#ArialMT-2e" x="55.615234"/>
       <use xlink:href="#ArialMT-30" x="83.398438"/>
      </g>
     </g>
    </g>
    <g id="text_4">
     <!-- DOTAP -->
     <g style="fill: #262626" transform="translate(178.397813 335.198438) scale(0.24 -0.24)">
      <defs>
       <path id="ArialMT-44" d="M 494 0 
L 494 4581 
L 2072 4581 
Q 2606 4581 2888 4516 
Q 3281 4425 3559 4188 
Q 3922 3881 4101 3404 
Q 4281 2928 4281 2316 
Q 4281 1794 4159 1391 
Q 4038 988 3847 723 
Q 3656 459 3429 307 
Q 3203 156 2883 78 
Q 2563 0 2147 0 
L 494 0 
z
M 1100 541 
L 2078 541 
Q 2531 541 2789 625 
Q 3047 709 3200 863 
Q 3416 1078 3536 1442 
Q 3656 1806 3656 2325 
Q 3656 3044 3420 3430 
Q 3184 3816 2847 3947 
Q 2603 4041 2063 4041 
L 1100 4041 
L 1100 541 
z
" transform="scale(0.015625)"/>
       <path id="ArialMT-4f" d="M 309 2231 
Q 309 3372 921 4017 
Q 1534 4663 2503 4663 
Q 3138 4663 3647 4359 
Q 4156 4056 4423 3514 
Q 4691 2972 4691 2284 
Q 4691 1588 4409 1038 
Q 4128 488 3612 205 
Q 3097 -78 2500 -78 
Q 1853 -78 1343 234 
Q 834 547 571 1087 
Q 309 1628 309 2231 
z
M 934 2222 
Q 934 1394 1379 917 
Q 1825 441 2497 441 
Q 3181 441 3623 922 
Q 4066 1403 4066 2288 
Q 4066 2847 3877 3264 
Q 3688 3681 3323 3911 
Q 2959 4141 2506 4141 
Q 1863 4141 1398 3698 
Q 934 3256 934 2222 
z
" transform="scale(0.015625)"/>
       <path id="ArialMT-54" d="M 1659 0 
L 1659 4041 
L 150 4041 
L 150 4581 
L 3781 4581 
L 3781 4041 
L 2266 4041 
L 2266 0 
L 1659 0 
z
" transform="scale(0.015625)"/>
       <path id="ArialMT-41" d="M -9 0 
L 1750 4581 
L 2403 4581 
L 4278 0 
L 3588 0 
L 3053 1388 
L 1138 1388 
L 634 0 
L -9 0 
z
M 1313 1881 
L 2866 1881 
L 2388 3150 
Q 2169 3728 2063 4100 
Q 1975 3659 1816 3225 
L 1313 1881 
z
" transform="scale(0.015625)"/>
       <path id="ArialMT-50" d="M 494 0 
L 494 4581 
L 2222 4581 
Q 2678 4581 2919 4538 
Q 3256 4481 3484 4323 
Q 3713 4166 3852 3881 
Q 3991 3597 3991 3256 
Q 3991 2672 3619 2267 
Q 3247 1863 2275 1863 
L 1100 1863 
L 1100 0 
L 494 0 
z
M 1100 2403 
L 2284 2403 
Q 2872 2403 3119 2622 
Q 3366 2841 3366 3238 
Q 3366 3525 3220 3729 
Q 3075 3934 2838 4000 
Q 2684 4041 2272 4041 
L 1100 4041 
L 1100 2403 
z
" transform="scale(0.015625)"/>
      </defs>
      <use xlink:href="#ArialMT-44"/>
      <use xlink:href="#ArialMT-4f" x="72.216797"/>
      <use xlink:href="#ArialMT-54" x="150"/>
      <use xlink:href="#ArialMT-41" x="203.708984"/>
      <use xlink:href="#ArialMT-50" x="270.408203"/>
     </g>
    </g>
   </g>
   <g id="matplotlib.axis_2">
    <g id="ytick_1">
     <g id="line2d_7">
      <path d="M 79.350938 284.4 
L 358.350937 284.4 
" clip-path="url(#p557f66fac7)" style="fill: none; stroke: #ffffff; stroke-linecap: round"/>
     </g>
     <g id="line2d_8">
      <defs>
       <path id="m1543f3d086" d="M 0 0 
L -6 0 
" style="stroke: #000000; stroke-width: 1.25"/>
      </defs>
      <g>
       <use xlink:href="#m1543f3d086" x="79.350938" y="284.4" style="stroke: #000000; stroke-width: 1.25"/>
      </g>
     </g>
     <g id="text_5">
      <!-- 0 -->
      <g transform="translate(57.616875 292.273594) scale(0.22 -0.22)">
       <use xlink:href="#ArialMT-30"/>
      </g>
     </g>
    </g>
    <g id="ytick_2">
     <g id="line2d_9">
      <path d="M 79.350938 225.733333 
L 358.350937 225.733333 
" clip-path="url(#p557f66fac7)" style="fill: none; stroke: #ffffff; stroke-linecap: round"/>
     </g>
     <g id="line2d_10">
      <g>
       <use xlink:href="#m1543f3d086" x="79.350938" y="225.733333" style="stroke: #000000; stroke-width: 1.25"/>
      </g>
     </g>
     <g id="text_6">
      <!-- 200 -->
      <g transform="translate(33.14875 233.606927) scale(0.22 -0.22)">
       <defs>
        <path id="ArialMT-32" d="M 3222 541 
L 3222 0 
L 194 0 
Q 188 203 259 391 
Q 375 700 629 1000 
Q 884 1300 1366 1694 
Q 2113 2306 2375 2664 
Q 2638 3022 2638 3341 
Q 2638 3675 2398 3904 
Q 2159 4134 1775 4134 
Q 1369 4134 1125 3890 
Q 881 3647 878 3216 
L 300 3275 
Q 359 3922 746 4261 
Q 1134 4600 1788 4600 
Q 2447 4600 2831 4234 
Q 3216 3869 3216 3328 
Q 3216 3053 3103 2787 
Q 2991 2522 2730 2228 
Q 2469 1934 1863 1422 
Q 1356 997 1212 845 
Q 1069 694 975 541 
L 3222 541 
z
" transform="scale(0.015625)"/>
       </defs>
       <use xlink:href="#ArialMT-32"/>
       <use xlink:href="#ArialMT-30" x="55.615234"/>
       <use xlink:href="#ArialMT-30" x="111.230469"/>
      </g>
     </g>
    </g>
    <g id="ytick_3">
     <g id="line2d_11">
      <path d="M 79.350938 167.066667 
L 358.350937 167.066667 
" clip-path="url(#p557f66fac7)" style="fill: none; stroke: #ffffff; stroke-linecap: round"/>
     </g>
     <g id="line2d_12">
      <g>
       <use xlink:href="#m1543f3d086" x="79.350938" y="167.066667" style="stroke: #000000; stroke-width: 1.25"/>
      </g>
     </g>
     <g id="text_7">
      <!-- 400 -->
      <g transform="translate(33.14875 174.94026) scale(0.22 -0.22)">
       <defs>
        <path id="ArialMT-34" d="M 2069 0 
L 2069 1097 
L 81 1097 
L 81 1613 
L 2172 4581 
L 2631 4581 
L 2631 1613 
L 3250 1613 
L 3250 1097 
L 2631 1097 
L 2631 0 
L 2069 0 
z
M 2069 1613 
L 2069 3678 
L 634 1613 
L 2069 1613 
z
" transform="scale(0.015625)"/>
       </defs>
       <use xlink:href="#ArialMT-34"/>
       <use xlink:href="#ArialMT-30" x="55.615234"/>
       <use xlink:href="#ArialMT-30" x="111.230469"/>
      </g>
     </g>
    </g>
    <g id="ytick_4">
     <g id="line2d_13">
      <path d="M 79.350938 108.4 
L 358.350937 108.4 
" clip-path="url(#p557f66fac7)" style="fill: none; stroke: #ffffff; stroke-linecap: round"/>
     </g>
     <g id="line2d_14">
      <g>
       <use xlink:href="#m1543f3d086" x="79.350938" y="108.4" style="stroke: #000000; stroke-width: 1.25"/>
      </g>
     </g>
     <g id="text_8">
      <!-- 600 -->
      <g transform="translate(33.14875 116.273594) scale(0.22 -0.22)">
       <defs>
        <path id="ArialMT-36" d="M 3184 3459 
L 2625 3416 
Q 2550 3747 2413 3897 
Q 2184 4138 1850 4138 
Q 1581 4138 1378 3988 
Q 1113 3794 959 3422 
Q 806 3050 800 2363 
Q 1003 2672 1297 2822 
Q 1591 2972 1913 2972 
Q 2475 2972 2870 2558 
Q 3266 2144 3266 1488 
Q 3266 1056 3080 686 
Q 2894 316 2569 119 
Q 2244 -78 1831 -78 
Q 1128 -78 684 439 
Q 241 956 241 2144 
Q 241 3472 731 4075 
Q 1159 4600 1884 4600 
Q 2425 4600 2770 4297 
Q 3116 3994 3184 3459 
z
M 888 1484 
Q 888 1194 1011 928 
Q 1134 663 1356 523 
Q 1578 384 1822 384 
Q 2178 384 2434 671 
Q 2691 959 2691 1453 
Q 2691 1928 2437 2201 
Q 2184 2475 1800 2475 
Q 1419 2475 1153 2201 
Q 888 1928 888 1484 
z
" transform="scale(0.015625)"/>
       </defs>
       <use xlink:href="#ArialMT-36"/>
       <use xlink:href="#ArialMT-30" x="55.615234"/>
       <use xlink:href="#ArialMT-30" x="111.230469"/>
      </g>
     </g>
    </g>
    <g id="ytick_5">
     <g id="line2d_15">
      <path d="M 79.350938 49.733333 
L 358.350937 49.733333 
" clip-path="url(#p557f66fac7)" style="fill: none; stroke: #ffffff; stroke-linecap: round"/>
     </g>
     <g id="line2d_16">
      <g>
       <use xlink:href="#m1543f3d086" x="79.350938" y="49.733333" style="stroke: #000000; stroke-width: 1.25"/>
      </g>
     </g>
     <g id="text_9">
      <!-- 800 -->
      <g transform="translate(33.14875 57.606927) scale(0.22 -0.22)">
       <defs>
        <path id="ArialMT-38" d="M 1131 2484 
Q 781 2613 612 2850 
Q 444 3088 444 3419 
Q 444 3919 803 4259 
Q 1163 4600 1759 4600 
Q 2359 4600 2725 4251 
Q 3091 3903 3091 3403 
Q 3091 3084 2923 2848 
Q 2756 2613 2416 2484 
Q 2838 2347 3058 2040 
Q 3278 1734 3278 1309 
Q 3278 722 2862 322 
Q 2447 -78 1769 -78 
Q 1091 -78 675 323 
Q 259 725 259 1325 
Q 259 1772 486 2073 
Q 713 2375 1131 2484 
z
M 1019 3438 
Q 1019 3113 1228 2906 
Q 1438 2700 1772 2700 
Q 2097 2700 2305 2904 
Q 2513 3109 2513 3406 
Q 2513 3716 2298 3927 
Q 2084 4138 1766 4138 
Q 1444 4138 1231 3931 
Q 1019 3725 1019 3438 
z
M 838 1322 
Q 838 1081 952 856 
Q 1066 631 1291 507 
Q 1516 384 1775 384 
Q 2178 384 2440 643 
Q 2703 903 2703 1303 
Q 2703 1709 2433 1975 
Q 2163 2241 1756 2241 
Q 1359 2241 1098 1978 
Q 838 1716 838 1322 
z
" transform="scale(0.015625)"/>
       </defs>
       <use xlink:href="#ArialMT-38"/>
       <use xlink:href="#ArialMT-30" x="55.615234"/>
       <use xlink:href="#ArialMT-30" x="111.230469"/>
      </g>
     </g>
    </g>
    <g id="text_10">
     <!-- Count -->
     <g style="fill: #262626" transform="translate(24.37875 177.819375) rotate(-90) scale(0.24 -0.24)">
      <defs>
       <path id="ArialMT-43" d="M 3763 1606 
L 4369 1453 
Q 4178 706 3683 314 
Q 3188 -78 2472 -78 
Q 1731 -78 1267 223 
Q 803 525 561 1097 
Q 319 1669 319 2325 
Q 319 3041 592 3573 
Q 866 4106 1370 4382 
Q 1875 4659 2481 4659 
Q 3169 4659 3637 4309 
Q 4106 3959 4291 3325 
L 3694 3184 
Q 3534 3684 3231 3912 
Q 2928 4141 2469 4141 
Q 1941 4141 1586 3887 
Q 1231 3634 1087 3207 
Q 944 2781 944 2328 
Q 944 1744 1114 1308 
Q 1284 872 1643 656 
Q 2003 441 2422 441 
Q 2931 441 3284 734 
Q 3638 1028 3763 1606 
z
" transform="scale(0.015625)"/>
       <path id="ArialMT-6f" d="M 213 1659 
Q 213 2581 725 3025 
Q 1153 3394 1769 3394 
Q 2453 3394 2887 2945 
Q 3322 2497 3322 1706 
Q 3322 1066 3130 698 
Q 2938 331 2570 128 
Q 2203 -75 1769 -75 
Q 1072 -75 642 372 
Q 213 819 213 1659 
z
M 791 1659 
Q 791 1022 1069 705 
Q 1347 388 1769 388 
Q 2188 388 2466 706 
Q 2744 1025 2744 1678 
Q 2744 2294 2464 2611 
Q 2184 2928 1769 2928 
Q 1347 2928 1069 2612 
Q 791 2297 791 1659 
z
" transform="scale(0.015625)"/>
       <path id="ArialMT-75" d="M 2597 0 
L 2597 488 
Q 2209 -75 1544 -75 
Q 1250 -75 995 37 
Q 741 150 617 320 
Q 494 491 444 738 
Q 409 903 409 1263 
L 409 3319 
L 972 3319 
L 972 1478 
Q 972 1038 1006 884 
Q 1059 663 1231 536 
Q 1403 409 1656 409 
Q 1909 409 2131 539 
Q 2353 669 2445 892 
Q 2538 1116 2538 1541 
L 2538 3319 
L 3100 3319 
L 3100 0 
L 2597 0 
z
" transform="scale(0.015625)"/>
       <path id="ArialMT-6e" d="M 422 0 
L 422 3319 
L 928 3319 
L 928 2847 
Q 1294 3394 1984 3394 
Q 2284 3394 2536 3286 
Q 2788 3178 2913 3003 
Q 3038 2828 3088 2588 
Q 3119 2431 3119 2041 
L 3119 0 
L 2556 0 
L 2556 2019 
Q 2556 2363 2490 2533 
Q 2425 2703 2258 2804 
Q 2091 2906 1866 2906 
Q 1506 2906 1245 2678 
Q 984 2450 984 1813 
L 984 0 
L 422 0 
z
" transform="scale(0.015625)"/>
       <path id="ArialMT-74" d="M 1650 503 
L 1731 6 
Q 1494 -44 1306 -44 
Q 1000 -44 831 53 
Q 663 150 594 308 
Q 525 466 525 972 
L 525 2881 
L 113 2881 
L 113 3319 
L 525 3319 
L 525 4141 
L 1084 4478 
L 1084 3319 
L 1650 3319 
L 1650 2881 
L 1084 2881 
L 1084 941 
Q 1084 700 1114 631 
Q 1144 563 1211 522 
Q 1278 481 1403 481 
Q 1497 481 1650 503 
z
" transform="scale(0.015625)"/>
      </defs>
      <use xlink:href="#ArialMT-43"/>
      <use xlink:href="#ArialMT-6f" x="72.216797"/>
      <use xlink:href="#ArialMT-75" x="127.832031"/>
      <use xlink:href="#ArialMT-6e" x="183.447266"/>
      <use xlink:href="#ArialMT-74" x="239.0625"/>
     </g>
    </g>
   </g>
   <g id="patch_3">
    <path d="M 92.032756 284.4 
L 113.169119 284.4 
L 113.169119 231.6 
L 92.032756 231.6 
z
" clip-path="url(#p557f66fac7)" style="fill: #e866f4; fill-opacity: 0.75; stroke: #ffffff; stroke-linejoin: miter"/>
   </g>
   <g id="patch_4">
    <path d="M 113.169119 284.4 
L 134.305483 284.4 
L 134.305483 284.4 
L 113.169119 284.4 
z
" clip-path="url(#p557f66fac7)" style="fill: #e866f4; fill-opacity: 0.75; stroke: #ffffff; stroke-linejoin: miter"/>
   </g>
   <g id="patch_5">
    <path d="M 134.305483 284.4 
L 155.441847 284.4 
L 155.441847 284.4 
L 134.305483 284.4 
z
" clip-path="url(#p557f66fac7)" style="fill: #e866f4; fill-opacity: 0.75; stroke: #ffffff; stroke-linejoin: miter"/>
   </g>
   <g id="patch_6">
    <path d="M 155.441847 284.4 
L 176.57821 284.4 
L 176.57821 284.4 
L 155.441847 284.4 
z
" clip-path="url(#p557f66fac7)" style="fill: #e866f4; fill-opacity: 0.75; stroke: #ffffff; stroke-linejoin: miter"/>
   </g>
   <g id="patch_7">
    <path d="M 176.57821 284.4 
L 197.714574 284.4 
L 197.714574 284.4 
L 176.57821 284.4 
z
" clip-path="url(#p557f66fac7)" style="fill: #e866f4; fill-opacity: 0.75; stroke: #ffffff; stroke-linejoin: miter"/>
   </g>
   <g id="patch_8">
    <path d="M 197.714574 284.4 
L 218.850938 284.4 
L 218.850938 284.4 
L 197.714574 284.4 
z
" clip-path="url(#p557f66fac7)" style="fill: #e866f4; fill-opacity: 0.75; stroke: #ffffff; stroke-linejoin: miter"/>
   </g>
   <g id="patch_9">
    <path d="M 218.850938 284.4 
L 239.987301 284.4 
L 239.987301 284.4 
L 218.850938 284.4 
z
" clip-path="url(#p557f66fac7)" style="fill: #e866f4; fill-opacity: 0.75; stroke: #ffffff; stroke-linejoin: miter"/>
   </g>
   <g id="patch_10">
    <path d="M 239.987301 284.4 
L 261.123665 284.4 
L 261.123665 284.4 
L 239.987301 284.4 
z
" clip-path="url(#p557f66fac7)" style="fill: #e866f4; fill-opacity: 0.75; stroke: #ffffff; stroke-linejoin: miter"/>
   </g>
   <g id="patch_11">
    <path d="M 261.123665 284.4 
L 282.260028 284.4 
L 282.260028 284.4 
L 261.123665 284.4 
z
" clip-path="url(#p557f66fac7)" style="fill: #e866f4; fill-opacity: 0.75; stroke: #ffffff; stroke-linejoin: miter"/>
   </g>
   <g id="patch_12">
    <path d="M 282.260028 284.4 
L 303.396392 284.4 
L 303.396392 284.4 
L 282.260028 284.4 
z
" clip-path="url(#p557f66fac7)" style="fill: #e866f4; fill-opacity: 0.75; stroke: #ffffff; stroke-linejoin: miter"/>
   </g>
   <g id="patch_13">
    <path d="M 303.396392 284.4 
L 324.532756 284.4 
L 324.532756 284.4 
L 303.396392 284.4 
z
" clip-path="url(#p557f66fac7)" style="fill: #e866f4; fill-opacity: 0.75; stroke: #ffffff; stroke-linejoin: miter"/>
   </g>
   <g id="patch_14">
    <path d="M 324.532756 284.4 
L 345.669119 284.4 
L 345.669119 284.4 
L 324.532756 284.4 
z
" clip-path="url(#p557f66fac7)" style="fill: #e866f4; fill-opacity: 0.75; stroke: #ffffff; stroke-linejoin: miter"/>
   </g>
   <g id="patch_15">
    <path d="M 92.032756 231.6 
L 113.169119 231.6 
L 113.169119 178.8 
L 92.032756 178.8 
z
" clip-path="url(#p557f66fac7)" style="fill: #3ba3ec; fill-opacity: 0.75; stroke: #ffffff; stroke-linejoin: miter"/>
   </g>
   <g id="patch_16">
    <path d="M 113.169119 284.4 
L 134.305483 284.4 
L 134.305483 284.4 
L 113.169119 284.4 
z
" clip-path="url(#p557f66fac7)" style="fill: #3ba3ec; fill-opacity: 0.75; stroke: #ffffff; stroke-linejoin: miter"/>
   </g>
   <g id="patch_17">
    <path d="M 134.305483 284.4 
L 155.441847 284.4 
L 155.441847 284.4 
L 134.305483 284.4 
z
" clip-path="url(#p557f66fac7)" style="fill: #3ba3ec; fill-opacity: 0.75; stroke: #ffffff; stroke-linejoin: miter"/>
   </g>
   <g id="patch_18">
    <path d="M 155.441847 284.4 
L 176.57821 284.4 
L 176.57821 284.4 
L 155.441847 284.4 
z
" clip-path="url(#p557f66fac7)" style="fill: #3ba3ec; fill-opacity: 0.75; stroke: #ffffff; stroke-linejoin: miter"/>
   </g>
   <g id="patch_19">
    <path d="M 176.57821 284.4 
L 197.714574 284.4 
L 197.714574 284.4 
L 176.57821 284.4 
z
" clip-path="url(#p557f66fac7)" style="fill: #3ba3ec; fill-opacity: 0.75; stroke: #ffffff; stroke-linejoin: miter"/>
   </g>
   <g id="patch_20">
    <path d="M 197.714574 284.4 
L 218.850938 284.4 
L 218.850938 284.4 
L 197.714574 284.4 
z
" clip-path="url(#p557f66fac7)" style="fill: #3ba3ec; fill-opacity: 0.75; stroke: #ffffff; stroke-linejoin: miter"/>
   </g>
   <g id="patch_21">
    <path d="M 218.850938 284.4 
L 239.987301 284.4 
L 239.987301 284.4 
L 218.850938 284.4 
z
" clip-path="url(#p557f66fac7)" style="fill: #3ba3ec; fill-opacity: 0.75; stroke: #ffffff; stroke-linejoin: miter"/>
   </g>
   <g id="patch_22">
    <path d="M 239.987301 284.4 
L 261.123665 284.4 
L 261.123665 284.4 
L 239.987301 284.4 
z
" clip-path="url(#p557f66fac7)" style="fill: #3ba3ec; fill-opacity: 0.75; stroke: #ffffff; stroke-linejoin: miter"/>
   </g>
   <g id="patch_23">
    <path d="M 261.123665 284.4 
L 282.260028 284.4 
L 282.260028 284.4 
L 261.123665 284.4 
z
" clip-path="url(#p557f66fac7)" style="fill: #3ba3ec; fill-opacity: 0.75; stroke: #ffffff; stroke-linejoin: miter"/>
   </g>
   <g id="patch_24">
    <path d="M 282.260028 284.4 
L 303.396392 284.4 
L 303.396392 284.4 
L 282.260028 284.4 
z
" clip-path="url(#p557f66fac7)" style="fill: #3ba3ec; fill-opacity: 0.75; stroke: #ffffff; stroke-linejoin: miter"/>
   </g>
   <g id="patch_25">
    <path d="M 303.396392 284.4 
L 324.532756 284.4 
L 324.532756 284.4 
L 303.396392 284.4 
z
" clip-path="url(#p557f66fac7)" style="fill: #3ba3ec; fill-opacity: 0.75; stroke: #ffffff; stroke-linejoin: miter"/>
   </g>
   <g id="patch_26">
    <path d="M 324.532756 284.4 
L 345.669119 284.4 
L 345.669119 284.4 
L 324.532756 284.4 
z
" clip-path="url(#p557f66fac7)" style="fill: #3ba3ec; fill-opacity: 0.75; stroke: #ffffff; stroke-linejoin: miter"/>
   </g>
   <g id="patch_27">
    <path d="M 92.032756 178.8 
L 113.169119 178.8 
L 113.169119 126 
L 92.032756 126 
z
" clip-path="url(#p557f66fac7)" style="fill: #36ada4; fill-opacity: 0.75; stroke: #ffffff; stroke-linejoin: miter"/>
   </g>
   <g id="patch_28">
    <path d="M 113.169119 284.4 
L 134.305483 284.4 
L 134.305483 284.4 
L 113.169119 284.4 
z
" clip-path="url(#p557f66fac7)" style="fill: #36ada4; fill-opacity: 0.75; stroke: #ffffff; stroke-linejoin: miter"/>
   </g>
   <g id="patch_29">
    <path d="M 134.305483 284.4 
L 155.441847 284.4 
L 155.441847 284.4 
L 134.305483 284.4 
z
" clip-path="url(#p557f66fac7)" style="fill: #36ada4; fill-opacity: 0.75; stroke: #ffffff; stroke-linejoin: miter"/>
   </g>
   <g id="patch_30">
    <path d="M 155.441847 284.4 
L 176.57821 284.4 
L 176.57821 284.4 
L 155.441847 284.4 
z
" clip-path="url(#p557f66fac7)" style="fill: #36ada4; fill-opacity: 0.75; stroke: #ffffff; stroke-linejoin: miter"/>
   </g>
   <g id="patch_31">
    <path d="M 176.57821 284.4 
L 197.714574 284.4 
L 197.714574 284.4 
L 176.57821 284.4 
z
" clip-path="url(#p557f66fac7)" style="fill: #36ada4; fill-opacity: 0.75; stroke: #ffffff; stroke-linejoin: miter"/>
   </g>
   <g id="patch_32">
    <path d="M 197.714574 284.4 
L 218.850938 284.4 
L 218.850938 284.4 
L 197.714574 284.4 
z
" clip-path="url(#p557f66fac7)" style="fill: #36ada4; fill-opacity: 0.75; stroke: #ffffff; stroke-linejoin: miter"/>
   </g>
   <g id="patch_33">
    <path d="M 218.850938 284.4 
L 239.987301 284.4 
L 239.987301 284.4 
L 218.850938 284.4 
z
" clip-path="url(#p557f66fac7)" style="fill: #36ada4; fill-opacity: 0.75; stroke: #ffffff; stroke-linejoin: miter"/>
   </g>
   <g id="patch_34">
    <path d="M 239.987301 284.4 
L 261.123665 284.4 
L 261.123665 284.4 
L 239.987301 284.4 
z
" clip-path="url(#p557f66fac7)" style="fill: #36ada4; fill-opacity: 0.75; stroke: #ffffff; stroke-linejoin: miter"/>
   </g>
   <g id="patch_35">
    <path d="M 261.123665 284.4 
L 282.260028 284.4 
L 282.260028 284.4 
L 261.123665 284.4 
z
" clip-path="url(#p557f66fac7)" style="fill: #36ada4; fill-opacity: 0.75; stroke: #ffffff; stroke-linejoin: miter"/>
   </g>
   <g id="patch_36">
    <path d="M 282.260028 284.4 
L 303.396392 284.4 
L 303.396392 284.4 
L 282.260028 284.4 
z
" clip-path="url(#p557f66fac7)" style="fill: #36ada4; fill-opacity: 0.75; stroke: #ffffff; stroke-linejoin: miter"/>
   </g>
   <g id="patch_37">
    <path d="M 303.396392 284.4 
L 324.532756 284.4 
L 324.532756 284.4 
L 303.396392 284.4 
z
" clip-path="url(#p557f66fac7)" style="fill: #36ada4; fill-opacity: 0.75; stroke: #ffffff; stroke-linejoin: miter"/>
   </g>
   <g id="patch_38">
    <path d="M 324.532756 284.4 
L 345.669119 284.4 
L 345.669119 284.4 
L 324.532756 284.4 
z
" clip-path="url(#p557f66fac7)" style="fill: #36ada4; fill-opacity: 0.75; stroke: #ffffff; stroke-linejoin: miter"/>
   </g>
   <g id="patch_39">
    <path d="M 92.032756 126 
L 113.169119 126 
L 113.169119 126 
L 92.032756 126 
z
" clip-path="url(#p557f66fac7)" style="fill: #50b131; fill-opacity: 0.75; stroke: #ffffff; stroke-linejoin: miter"/>
   </g>
   <g id="patch_40">
    <path d="M 113.169119 284.4 
L 134.305483 284.4 
L 134.305483 284.4 
L 113.169119 284.4 
z
" clip-path="url(#p557f66fac7)" style="fill: #50b131; fill-opacity: 0.75; stroke: #ffffff; stroke-linejoin: miter"/>
   </g>
   <g id="patch_41">
    <path d="M 134.305483 284.4 
L 155.441847 284.4 
L 155.441847 284.4 
L 134.305483 284.4 
z
" clip-path="url(#p557f66fac7)" style="fill: #50b131; fill-opacity: 0.75; stroke: #ffffff; stroke-linejoin: miter"/>
   </g>
   <g id="patch_42">
    <path d="M 155.441847 284.4 
L 176.57821 284.4 
L 176.57821 284.4 
L 155.441847 284.4 
z
" clip-path="url(#p557f66fac7)" style="fill: #50b131; fill-opacity: 0.75; stroke: #ffffff; stroke-linejoin: miter"/>
   </g>
   <g id="patch_43">
    <path d="M 176.57821 284.4 
L 197.714574 284.4 
L 197.714574 284.4 
L 176.57821 284.4 
z
" clip-path="url(#p557f66fac7)" style="fill: #50b131; fill-opacity: 0.75; stroke: #ffffff; stroke-linejoin: miter"/>
   </g>
   <g id="patch_44">
    <path d="M 197.714574 284.4 
L 218.850938 284.4 
L 218.850938 284.4 
L 197.714574 284.4 
z
" clip-path="url(#p557f66fac7)" style="fill: #50b131; fill-opacity: 0.75; stroke: #ffffff; stroke-linejoin: miter"/>
   </g>
   <g id="patch_45">
    <path d="M 218.850938 284.4 
L 239.987301 284.4 
L 239.987301 284.4 
L 218.850938 284.4 
z
" clip-path="url(#p557f66fac7)" style="fill: #50b131; fill-opacity: 0.75; stroke: #ffffff; stroke-linejoin: miter"/>
   </g>
   <g id="patch_46">
    <path d="M 239.987301 284.4 
L 261.123665 284.4 
L 261.123665 284.4 
L 239.987301 284.4 
z
" clip-path="url(#p557f66fac7)" style="fill: #50b131; fill-opacity: 0.75; stroke: #ffffff; stroke-linejoin: miter"/>
   </g>
   <g id="patch_47">
    <path d="M 261.123665 284.4 
L 282.260028 284.4 
L 282.260028 284.4 
L 261.123665 284.4 
z
" clip-path="url(#p557f66fac7)" style="fill: #50b131; fill-opacity: 0.75; stroke: #ffffff; stroke-linejoin: miter"/>
   </g>
   <g id="patch_48">
    <path d="M 282.260028 284.4 
L 303.396392 284.4 
L 303.396392 284.4 
L 282.260028 284.4 
z
" clip-path="url(#p557f66fac7)" style="fill: #50b131; fill-opacity: 0.75; stroke: #ffffff; stroke-linejoin: miter"/>
   </g>
   <g id="patch_49">
    <path d="M 303.396392 284.4 
L 324.532756 284.4 
L 324.532756 284.4 
L 303.396392 284.4 
z
" clip-path="url(#p557f66fac7)" style="fill: #50b131; fill-opacity: 0.75; stroke: #ffffff; stroke-linejoin: miter"/>
   </g>
   <g id="patch_50">
    <path d="M 324.532756 284.4 
L 345.669119 284.4 
L 345.669119 231.6 
L 324.532756 231.6 
z
" clip-path="url(#p557f66fac7)" style="fill: #50b131; fill-opacity: 0.75; stroke: #ffffff; stroke-linejoin: miter"/>
   </g>
   <g id="patch_51">
    <path d="M 92.032756 126 
L 113.169119 126 
L 113.169119 73.2 
L 92.032756 73.2 
z
" clip-path="url(#p557f66fac7)" style="fill: #bb9832; fill-opacity: 0.75; stroke: #ffffff; stroke-linejoin: miter"/>
   </g>
   <g id="patch_52">
    <path d="M 113.169119 284.4 
L 134.305483 284.4 
L 134.305483 284.4 
L 113.169119 284.4 
z
" clip-path="url(#p557f66fac7)" style="fill: #bb9832; fill-opacity: 0.75; stroke: #ffffff; stroke-linejoin: miter"/>
   </g>
   <g id="patch_53">
    <path d="M 134.305483 284.4 
L 155.441847 284.4 
L 155.441847 284.4 
L 134.305483 284.4 
z
" clip-path="url(#p557f66fac7)" style="fill: #bb9832; fill-opacity: 0.75; stroke: #ffffff; stroke-linejoin: miter"/>
   </g>
   <g id="patch_54">
    <path d="M 155.441847 284.4 
L 176.57821 284.4 
L 176.57821 284.4 
L 155.441847 284.4 
z
" clip-path="url(#p557f66fac7)" style="fill: #bb9832; fill-opacity: 0.75; stroke: #ffffff; stroke-linejoin: miter"/>
   </g>
   <g id="patch_55">
    <path d="M 176.57821 284.4 
L 197.714574 284.4 
L 197.714574 284.4 
L 176.57821 284.4 
z
" clip-path="url(#p557f66fac7)" style="fill: #bb9832; fill-opacity: 0.75; stroke: #ffffff; stroke-linejoin: miter"/>
   </g>
   <g id="patch_56">
    <path d="M 197.714574 284.4 
L 218.850938 284.4 
L 218.850938 284.4 
L 197.714574 284.4 
z
" clip-path="url(#p557f66fac7)" style="fill: #bb9832; fill-opacity: 0.75; stroke: #ffffff; stroke-linejoin: miter"/>
   </g>
   <g id="patch_57">
    <path d="M 218.850938 284.4 
L 239.987301 284.4 
L 239.987301 284.4 
L 218.850938 284.4 
z
" clip-path="url(#p557f66fac7)" style="fill: #bb9832; fill-opacity: 0.75; stroke: #ffffff; stroke-linejoin: miter"/>
   </g>
   <g id="patch_58">
    <path d="M 239.987301 284.4 
L 261.123665 284.4 
L 261.123665 284.4 
L 239.987301 284.4 
z
" clip-path="url(#p557f66fac7)" style="fill: #bb9832; fill-opacity: 0.75; stroke: #ffffff; stroke-linejoin: miter"/>
   </g>
   <g id="patch_59">
    <path d="M 261.123665 284.4 
L 282.260028 284.4 
L 282.260028 284.4 
L 261.123665 284.4 
z
" clip-path="url(#p557f66fac7)" style="fill: #bb9832; fill-opacity: 0.75; stroke: #ffffff; stroke-linejoin: miter"/>
   </g>
   <g id="patch_60">
    <path d="M 282.260028 284.4 
L 303.396392 284.4 
L 303.396392 284.4 
L 282.260028 284.4 
z
" clip-path="url(#p557f66fac7)" style="fill: #bb9832; fill-opacity: 0.75; stroke: #ffffff; stroke-linejoin: miter"/>
   </g>
   <g id="patch_61">
    <path d="M 303.396392 284.4 
L 324.532756 284.4 
L 324.532756 284.4 
L 303.396392 284.4 
z
" clip-path="url(#p557f66fac7)" style="fill: #bb9832; fill-opacity: 0.75; stroke: #ffffff; stroke-linejoin: miter"/>
   </g>
   <g id="patch_62">
    <path d="M 324.532756 231.6 
L 345.669119 231.6 
L 345.669119 231.6 
L 324.532756 231.6 
z
" clip-path="url(#p557f66fac7)" style="fill: #bb9832; fill-opacity: 0.75; stroke: #ffffff; stroke-linejoin: miter"/>
   </g>
   <g id="patch_63">
    <path d="M 92.032756 73.2 
L 113.169119 73.2 
L 113.169119 20.4 
L 92.032756 20.4 
z
" clip-path="url(#p557f66fac7)" style="fill: #f77189; fill-opacity: 0.75; stroke: #ffffff; stroke-linejoin: miter"/>
   </g>
   <g id="patch_64">
    <path d="M 113.169119 284.4 
L 134.305483 284.4 
L 134.305483 284.4 
L 113.169119 284.4 
z
" clip-path="url(#p557f66fac7)" style="fill: #f77189; fill-opacity: 0.75; stroke: #ffffff; stroke-linejoin: miter"/>
   </g>
   <g id="patch_65">
    <path d="M 134.305483 284.4 
L 155.441847 284.4 
L 155.441847 284.4 
L 134.305483 284.4 
z
" clip-path="url(#p557f66fac7)" style="fill: #f77189; fill-opacity: 0.75; stroke: #ffffff; stroke-linejoin: miter"/>
   </g>
   <g id="patch_66">
    <path d="M 155.441847 284.4 
L 176.57821 284.4 
L 176.57821 284.4 
L 155.441847 284.4 
z
" clip-path="url(#p557f66fac7)" style="fill: #f77189; fill-opacity: 0.75; stroke: #ffffff; stroke-linejoin: miter"/>
   </g>
   <g id="patch_67">
    <path d="M 176.57821 284.4 
L 197.714574 284.4 
L 197.714574 284.4 
L 176.57821 284.4 
z
" clip-path="url(#p557f66fac7)" style="fill: #f77189; fill-opacity: 0.75; stroke: #ffffff; stroke-linejoin: miter"/>
   </g>
   <g id="patch_68">
    <path d="M 197.714574 284.4 
L 218.850938 284.4 
L 218.850938 284.4 
L 197.714574 284.4 
z
" clip-path="url(#p557f66fac7)" style="fill: #f77189; fill-opacity: 0.75; stroke: #ffffff; stroke-linejoin: miter"/>
   </g>
   <g id="patch_69">
    <path d="M 218.850938 284.4 
L 239.987301 284.4 
L 239.987301 284.4 
L 218.850938 284.4 
z
" clip-path="url(#p557f66fac7)" style="fill: #f77189; fill-opacity: 0.75; stroke: #ffffff; stroke-linejoin: miter"/>
   </g>
   <g id="patch_70">
    <path d="M 239.987301 284.4 
L 261.123665 284.4 
L 261.123665 284.4 
L 239.987301 284.4 
z
" clip-path="url(#p557f66fac7)" style="fill: #f77189; fill-opacity: 0.75; stroke: #ffffff; stroke-linejoin: miter"/>
   </g>
   <g id="patch_71">
    <path d="M 261.123665 284.4 
L 282.260028 284.4 
L 282.260028 284.4 
L 261.123665 284.4 
z
" clip-path="url(#p557f66fac7)" style="fill: #f77189; fill-opacity: 0.75; stroke: #ffffff; stroke-linejoin: miter"/>
   </g>
   <g id="patch_72">
    <path d="M 282.260028 284.4 
L 303.396392 284.4 
L 303.396392 284.4 
L 282.260028 284.4 
z
" clip-path="url(#p557f66fac7)" style="fill: #f77189; fill-opacity: 0.75; stroke: #ffffff; stroke-linejoin: miter"/>
   </g>
   <g id="patch_73">
    <path d="M 303.396392 284.4 
L 324.532756 284.4 
L 324.532756 284.4 
L 303.396392 284.4 
z
" clip-path="url(#p557f66fac7)" style="fill: #f77189; fill-opacity: 0.75; stroke: #ffffff; stroke-linejoin: miter"/>
   </g>
   <g id="patch_74">
    <path d="M 324.532756 231.6 
L 345.669119 231.6 
L 345.669119 231.6 
L 324.532756 231.6 
z
" clip-path="url(#p557f66fac7)" style="fill: #f77189; fill-opacity: 0.75; stroke: #ffffff; stroke-linejoin: miter"/>
   </g>
   <g id="patch_75">
    <path d="M 79.350938 284.4 
L 79.350938 7.2 
" style="fill: none; stroke: #000000; stroke-width: 1.25; stroke-linejoin: miter; stroke-linecap: square"/>
   </g>
   <g id="patch_76">
    <path d="M 79.350938 284.4 
L 358.350937 284.4 
" style="fill: none; stroke: #000000; stroke-width: 1.25; stroke-linejoin: miter; stroke-linecap: square"/>
   </g>
  </g>
 </g>
 <defs>
  <clipPath id="p557f66fac7">
   <rect x="79.350938" y="7.2" width="279" height="277.2"/>
  </clipPath>
 </defs>
</svg>
