<svg class="main-svg" xmlns="http://www.w3.org/2000/svg" xmlns:xlink="http://www.w3.org/1999/xlink" width="800" height="400" style="" viewBox="0 0 800 400"><rect x="0" y="0" width="800" height="400" style="fill: rgb(0, 0, 0); fill-opacity: 0;"/><defs id="defs-13c180"><g class="clips"><clipPath id="clip13c180polar-for-traces"><path d="M130,0A130,130 0,1,0 -130,-1.592040838891559e-14A130,130 0,1,0 130,3.184081677783118e-14Z" transform="translate(130,130)"/></clipPath></g><g class="gradients"/><g class="patterns"/></defs><g class="bglayer"/><g class="layer-below"><g class="imagelayer"/><g class="shapelayer"/></g><g class="cartesianlayer"/><g class="polarlayer"><g class="polar"><g class="polarsublayer draglayer"/><g class="polarsublayer plotbg"><path d="M130,0A130,130 0,1,0 -130,-1.592040838891559e-14A130,130 0,1,0 130,3.184081677783118e-14Z" transform="translate(400,190)" style="fill: rgb(229, 236, 246); fill-opacity: 1;"/></g><g class="polarsublayer backplot"><g class="maplayer"/></g><g class="polarsublayer angular-grid" style="fill: none;"><path class="angularaxisgrid" d="M400,190L530,190" style="stroke: rgb(255, 255, 255); stroke-opacity: 1; stroke-width: 1px;"/><path class="angularaxisgrid" d="M400,190L491.9238815542512,281.9238815542512" style="stroke: rgb(255, 255, 255); stroke-opacity: 1; stroke-width: 1px;"/><path class="angularaxisgrid" d="M400,190L400,320" style="stroke: rgb(255, 255, 255); stroke-opacity: 1; stroke-width: 1px;"/><path class="angularaxisgrid" d="M400,190L308.0761184457488,281.9238815542512" style="stroke: rgb(255, 255, 255); stroke-opacity: 1; stroke-width: 1px;"/><path class="angularaxisgrid" d="M400,190L270,190.00000000000003" style="stroke: rgb(255, 255, 255); stroke-opacity: 1; stroke-width: 1px;"/><path class="angularaxisgrid" d="M400,190L308.0761184457488,98.07611844574883" style="stroke: rgb(255, 255, 255); stroke-opacity: 1; stroke-width: 1px;"/><path class="angularaxisgrid" d="M400,190L400,60" style="stroke: rgb(255, 255, 255); stroke-opacity: 1; stroke-width: 1px;"/><path class="angularaxisgrid" d="M400,190L491.9238815542511,98.0761184457488" style="stroke: rgb(255, 255, 255); stroke-opacity: 1; stroke-width: 1px;"/></g><g class="polarsublayer radial-grid" transform="translate(400,190)" style="fill: none;"><path class="xgrid" d="M26,0A26,26 0,1,0 -26,-3.184081677783118e-15A26,26 0,1,0 26,6.368163355566236e-15Z" style="stroke: rgb(255, 255, 255); stroke-opacity: 1; stroke-width: 1px;"/><path class="xgrid" d="M52,0A52,52 0,1,0 -52,-6.368163355566236e-15A52,52 0,1,0 52,1.2736326711132473e-14Z" style="stroke: rgb(255, 255, 255); stroke-opacity: 1; stroke-width: 1px;"/><path class="xgrid" d="M78,0A78,78 0,1,0 -78,-9.552245033349356e-15A78,78 0,1,0 78,1.910449006669871e-14Z" style="stroke: rgb(255, 255, 255); stroke-opacity: 1; stroke-width: 1px;"/><path class="xgrid" d="M104,0A104,104 0,1,0 -104,-1.2736326711132473e-14A104,104 0,1,0 104,2.5472653422264946e-14Z" style="stroke: rgb(255, 255, 255); stroke-opacity: 1; stroke-width: 1px;"/></g><g class="polarsublayer frontplot" transform="translate(270,60)" clip-path="url(#clip13c180polar-for-traces)"><g class="barlayer"/><g class="scatterlayer"><g class="trace scatter tracea3e6b8" style="stroke-miterlimit: 2; opacity: 1;"><g class="fills"><g><path class="js-fill" d="M260,130L134.16,134.16L130,216.67L113.12,146.88L0,130L130,130L130,0L175.96,84.04L260,130Z" style="fill: rgb(99, 110, 250); fill-opacity: 0.5; stroke-width: 0;"/></g></g><g class="errorbars"/><g class="lines"><path class="js-line" d="M260,130L134.16,134.16L130,216.67L113.12,146.88L0,130L130,130L130,0L175.96,84.04L260,130" style="vector-effect: none; fill: none; stroke: rgb(99, 110, 250); stroke-opacity: 1; stroke-width: 2px; opacity: 1;"/></g><g class="points"/><g class="text"/></g></g></g><g class="polarsublayer angular-line"><path d="M130,0A130,130 0,1,0 -130,-1.592040838891559e-14A130,130 0,1,0 130,3.184081677783118e-14Z" transform="translate(400,190)" stroke-width="1" style="fill: none; stroke: rgb(255, 255, 255); stroke-opacity: 1;"/></g><g class="polarsublayer radial-line"><line x1="0" y1="0" x2="130" y2="0" transform="translate(400,190)" stroke-width="1" style="fill: none; stroke: rgb(255, 255, 255); stroke-opacity: 1;"/></g><g class="polarsublayer angular-axis"><g class="angularaxistick"><text text-anchor="start" x="4.5" y="7" transform="translate(530,190)" style="font-family: Arial; font-size: 20px; fill: rgb(0, 0, 0); fill-opacity: 1; white-space: pre; opacity: 1;">NP_ratio</text></g><g class="angularaxistick"><text text-anchor="start" x="3.1819805153394642" y="22.273863607376246" transform="translate(491.9238815542512,281.9238815542512)" style="font-family: Arial; font-size: 20px; fill: rgb(0, 0, 0); fill-opacity: 1; white-space: pre; opacity: 1;">Dlin-MC3_Helper lipid_ratio</text></g><g class="angularaxistick"><text text-anchor="middle" x="2.755455298081545e-16" y="24.5" transform="translate(400,320)" style="font-family: Arial; font-size: 20px; fill: rgb(0, 0, 0); fill-opacity: 1; white-space: pre; opacity: 1;">Dlin-MC3+Helper lipid percentage</text></g><g class="angularaxistick"><text text-anchor="end" x="-3.181980515339464" y="22.27386360737625" transform="translate(308.0761184457488,281.9238815542512)" style="font-family: Arial; font-size: 20px; fill: rgb(0, 0, 0); fill-opacity: 1; white-space: pre; opacity: 1;">Chol_DMG-PEG_ratio</text></g><g class="angularaxistick"><text text-anchor="end" x="-4.5" y="7.000000000000003" transform="translate(270,190.00000000000003)" style="font-family: Arial; font-size: 20px; fill: rgb(0, 0, 0); fill-opacity: 1; white-space: pre; opacity: 1;">P_charged_centers</text></g><g class="angularaxistick"><text text-anchor="end" x="-3.1819805153394647" y="-1.06066017177982" transform="translate(308.0761184457488,98.07611844574883)" style="font-family: Arial; font-size: 20px; fill: rgb(0, 0, 0); fill-opacity: 1; white-space: pre; opacity: 1;">N_charged_centers</text></g><g class="angularaxistick"><text text-anchor="middle" x="-8.266365894244633e-16" y="-8.499999999999998" transform="translate(400,60)" style="font-family: Arial; font-size: 20px; fill: rgb(0, 0, 0); fill-opacity: 1; white-space: pre; opacity: 1;">Double_bonds</text></g><g class="angularaxistick"><text text-anchor="start" x="3.181980515339463" y="-1.0606601717798236" transform="translate(491.9238815542511,98.0761184457488)" style="font-family: Arial; font-size: 20px; fill: rgb(0, 0, 0); fill-opacity: 1; white-space: pre; opacity: 1;">Zeta</text></g></g><g class="polarsublayer radial-axis" display="none"/></g></g><g class="smithlayer"/><g class="ternarylayer"/><g class="geolayer"/><g class="funnelarealayer"/><g class="pielayer"/><g class="iciclelayer"/><g class="treemaplayer"/><g class="sunburstlayer"/><g class="glimages"/><defs id="topdefs-13c180"><g class="clips"/></defs><g class="layer-above"><g class="imagelayer"/><g class="shapelayer"/></g><g class="infolayer"><g class="g-gtitle"/><g class="g-polartitle"/></g></svg>