<?xml version="1.0" encoding="utf-8" standalone="no"?>
<!DOCTYPE svg PUBLIC "-//W3C//DTD SVG 1.1//EN"
  "http://www.w3.org/Graphics/SVG/1.1/DTD/svg11.dtd">
<svg xmlns:xlink="http://www.w3.org/1999/xlink" width="423.142451pt" height="257.513028pt" viewBox="0 0 423.142451 257.513028" xmlns="http://www.w3.org/2000/svg" version="1.1">
 <metadata>
  <rdf:RDF xmlns:dc="http://purl.org/dc/elements/1.1/" xmlns:cc="http://creativecommons.org/ns#" xmlns:rdf="http://www.w3.org/1999/02/22-rdf-syntax-ns#">
   <cc:Work>
    <dc:type rdf:resource="http://purl.org/dc/dcmitype/StillImage"/>
    <dc:date>2024-08-13T14:12:08.982100</dc:date>
    <dc:format>image/svg+xml</dc:format>
    <dc:creator>
     <cc:Agent>
      <dc:title>Matplotlib v3.6.3, https://matplotlib.org/</dc:title>
     </cc:Agent>
    </dc:creator>
   </cc:Work>
  </rdf:RDF>
 </metadata>
 <defs>
  <style type="text/css">*{stroke-linejoin: round; stroke-linecap: butt}</style>
 </defs>
 <g id="figure_1">
  <g id="patch_1">
   <path d="M -0 257.513028 
L 423.142451 257.513028 
L 423.142451 0 
L -0 0 
L -0 257.513028 
z
" style="fill: none"/>
  </g>
  <g id="axes_1">
   <g id="patch_2">
    <path d="M 98.609482 229.692403 
L 377.609482 229.692403 
L 377.609482 7.932403 
L 98.609482 7.932403 
L 98.609482 229.692403 
z
" style="fill: none"/>
   </g>
   <g id="matplotlib.axis_1">
    <g id="xtick_1">
     <g id="line2d_1">
      <path d="M 102.836754 229.692403 
L 102.836754 7.932403 
" clip-path="url(#pd942864488)" style="fill: none; stroke: #000000; stroke-opacity: 0.8; stroke-linecap: round"/>
     </g>
     <g id="text_1">
      <!-- Feature -->
      <g style="fill: #262626" transform="translate(82.161129 247.781778) scale(0.12 -0.12)">
       <defs>
        <path id="ArialMT-46" d="M 525 0 
L 525 4581 
L 3616 4581 
L 3616 4041 
L 1131 4041 
L 1131 2622 
L 3281 2622 
L 3281 2081 
L 1131 2081 
L 1131 0 
L 525 0 
z
" transform="scale(0.015625)"/>
        <path id="ArialMT-65" d="M 2694 1069 
L 3275 997 
Q 3138 488 2766 206 
Q 2394 -75 1816 -75 
Q 1088 -75 661 373 
Q 234 822 234 1631 
Q 234 2469 665 2931 
Q 1097 3394 1784 3394 
Q 2450 3394 2872 2941 
Q 3294 2488 3294 1666 
Q 3294 1616 3291 1516 
L 816 1516 
Q 847 969 1125 678 
Q 1403 388 1819 388 
Q 2128 388 2347 550 
Q 2566 713 2694 1069 
z
M 847 1978 
L 2700 1978 
Q 2663 2397 2488 2606 
Q 2219 2931 1791 2931 
Q 1403 2931 1139 2672 
Q 875 2413 847 1978 
z
" transform="scale(0.015625)"/>
        <path id="ArialMT-61" d="M 2588 409 
Q 2275 144 1986 34 
Q 1697 -75 1366 -75 
Q 819 -75 525 192 
Q 231 459 231 875 
Q 231 1119 342 1320 
Q 453 1522 633 1644 
Q 813 1766 1038 1828 
Q 1203 1872 1538 1913 
Q 2219 1994 2541 2106 
Q 2544 2222 2544 2253 
Q 2544 2597 2384 2738 
Q 2169 2928 1744 2928 
Q 1347 2928 1158 2789 
Q 969 2650 878 2297 
L 328 2372 
Q 403 2725 575 2942 
Q 747 3159 1072 3276 
Q 1397 3394 1825 3394 
Q 2250 3394 2515 3294 
Q 2781 3194 2906 3042 
Q 3031 2891 3081 2659 
Q 3109 2516 3109 2141 
L 3109 1391 
Q 3109 606 3145 398 
Q 3181 191 3288 0 
L 2700 0 
Q 2613 175 2588 409 
z
M 2541 1666 
Q 2234 1541 1622 1453 
Q 1275 1403 1131 1340 
Q 988 1278 909 1158 
Q 831 1038 831 891 
Q 831 666 1001 516 
Q 1172 366 1500 366 
Q 1825 366 2078 508 
Q 2331 650 2450 897 
Q 2541 1088 2541 1459 
L 2541 1666 
z
" transform="scale(0.015625)"/>
        <path id="ArialMT-74" d="M 1650 503 
L 1731 6 
Q 1494 -44 1306 -44 
Q 1000 -44 831 53 
Q 663 150 594 308 
Q 525 466 525 972 
L 525 2881 
L 113 2881 
L 113 3319 
L 525 3319 
L 525 4141 
L 1084 4478 
L 1084 3319 
L 1650 3319 
L 1650 2881 
L 1084 2881 
L 1084 941 
Q 1084 700 1114 631 
Q 1144 563 1211 522 
Q 1278 481 1403 481 
Q 1497 481 1650 503 
z
" transform="scale(0.015625)"/>
        <path id="ArialMT-75" d="M 2597 0 
L 2597 488 
Q 2209 -75 1544 -75 
Q 1250 -75 995 37 
Q 741 150 617 320 
Q 494 491 444 738 
Q 409 903 409 1263 
L 409 3319 
L 972 3319 
L 972 1478 
Q 972 1038 1006 884 
Q 1059 663 1231 536 
Q 1403 409 1656 409 
Q 1909 409 2131 539 
Q 2353 669 2445 892 
Q 2538 1116 2538 1541 
L 2538 3319 
L 3100 3319 
L 3100 0 
L 2597 0 
z
" transform="scale(0.015625)"/>
        <path id="ArialMT-72" d="M 416 0 
L 416 3319 
L 922 3319 
L 922 2816 
Q 1116 3169 1280 3281 
Q 1444 3394 1641 3394 
Q 1925 3394 2219 3213 
L 2025 2691 
Q 1819 2813 1613 2813 
Q 1428 2813 1281 2702 
Q 1134 2591 1072 2394 
Q 978 2094 978 1738 
L 978 0 
L 416 0 
z
" transform="scale(0.015625)"/>
       </defs>
       <use xlink:href="#ArialMT-46"/>
       <use xlink:href="#ArialMT-65" x="61.083984"/>
       <use xlink:href="#ArialMT-61" x="116.699219"/>
       <use xlink:href="#ArialMT-74" x="172.314453"/>
       <use xlink:href="#ArialMT-75" x="200.097656"/>
       <use xlink:href="#ArialMT-72" x="255.712891"/>
       <use xlink:href="#ArialMT-65" x="289.013672"/>
      </g>
     </g>
    </g>
    <g id="xtick_2">
     <g id="line2d_2">
      <path d="M 145.109482 229.692403 
L 145.109482 7.932403 
" clip-path="url(#pd942864488)" style="fill: none; stroke: #000000; stroke-opacity: 0.8; stroke-linecap: round"/>
     </g>
     <g id="text_2">
      <!-- B16 -->
      <g style="fill: #262626" transform="translate(134.434169 247.781778) scale(0.12 -0.12)">
       <defs>
        <path id="ArialMT-42" d="M 469 0 
L 469 4581 
L 2188 4581 
Q 2713 4581 3030 4442 
Q 3347 4303 3526 4014 
Q 3706 3725 3706 3409 
Q 3706 3116 3547 2856 
Q 3388 2597 3066 2438 
Q 3481 2316 3704 2022 
Q 3928 1728 3928 1328 
Q 3928 1006 3792 729 
Q 3656 453 3456 303 
Q 3256 153 2954 76 
Q 2653 0 2216 0 
L 469 0 
z
M 1075 2656 
L 2066 2656 
Q 2469 2656 2644 2709 
Q 2875 2778 2992 2937 
Q 3109 3097 3109 3338 
Q 3109 3566 3000 3739 
Q 2891 3913 2687 3977 
Q 2484 4041 1991 4041 
L 1075 4041 
L 1075 2656 
z
M 1075 541 
L 2216 541 
Q 2509 541 2628 563 
Q 2838 600 2978 687 
Q 3119 775 3209 942 
Q 3300 1109 3300 1328 
Q 3300 1584 3169 1773 
Q 3038 1963 2805 2039 
Q 2572 2116 2134 2116 
L 1075 2116 
L 1075 541 
z
" transform="scale(0.015625)"/>
        <path id="ArialMT-31" d="M 2384 0 
L 1822 0 
L 1822 3584 
Q 1619 3391 1289 3197 
Q 959 3003 697 2906 
L 697 3450 
Q 1169 3672 1522 3987 
Q 1875 4303 2022 4600 
L 2384 4600 
L 2384 0 
z
" transform="scale(0.015625)"/>
        <path id="ArialMT-36" d="M 3184 3459 
L 2625 3416 
Q 2550 3747 2413 3897 
Q 2184 4138 1850 4138 
Q 1581 4138 1378 3988 
Q 1113 3794 959 3422 
Q 806 3050 800 2363 
Q 1003 2672 1297 2822 
Q 1591 2972 1913 2972 
Q 2475 2972 2870 2558 
Q 3266 2144 3266 1488 
Q 3266 1056 3080 686 
Q 2894 316 2569 119 
Q 2244 -78 1831 -78 
Q 1128 -78 684 439 
Q 241 956 241 2144 
Q 241 3472 731 4075 
Q 1159 4600 1884 4600 
Q 2425 4600 2770 4297 
Q 3116 3994 3184 3459 
z
M 888 1484 
Q 888 1194 1011 928 
Q 1134 663 1356 523 
Q 1578 384 1822 384 
Q 2178 384 2434 671 
Q 2691 959 2691 1453 
Q 2691 1928 2437 2201 
Q 2184 2475 1800 2475 
Q 1419 2475 1153 2201 
Q 888 1928 888 1484 
z
" transform="scale(0.015625)"/>
       </defs>
       <use xlink:href="#ArialMT-42"/>
       <use xlink:href="#ArialMT-31" x="66.699219"/>
       <use xlink:href="#ArialMT-36" x="122.314453"/>
      </g>
     </g>
    </g>
    <g id="xtick_3">
     <g id="line2d_3">
      <path d="M 187.382209 229.692403 
L 187.382209 7.932403 
" clip-path="url(#pd942864488)" style="fill: none; stroke: #000000; stroke-opacity: 0.8; stroke-linecap: round"/>
     </g>
     <g id="text_3">
      <!-- HepG2 -->
      <g style="fill: #262626" transform="translate(168.372522 247.928028) scale(0.12 -0.12)">
       <defs>
        <path id="ArialMT-48" d="M 513 0 
L 513 4581 
L 1119 4581 
L 1119 2700 
L 3500 2700 
L 3500 4581 
L 4106 4581 
L 4106 0 
L 3500 0 
L 3500 2159 
L 1119 2159 
L 1119 0 
L 513 0 
z
" transform="scale(0.015625)"/>
        <path id="ArialMT-70" d="M 422 -1272 
L 422 3319 
L 934 3319 
L 934 2888 
Q 1116 3141 1344 3267 
Q 1572 3394 1897 3394 
Q 2322 3394 2647 3175 
Q 2972 2956 3137 2557 
Q 3303 2159 3303 1684 
Q 3303 1175 3120 767 
Q 2938 359 2589 142 
Q 2241 -75 1856 -75 
Q 1575 -75 1351 44 
Q 1128 163 984 344 
L 984 -1272 
L 422 -1272 
z
M 931 1641 
Q 931 1000 1190 694 
Q 1450 388 1819 388 
Q 2194 388 2461 705 
Q 2728 1022 2728 1688 
Q 2728 2322 2467 2637 
Q 2206 2953 1844 2953 
Q 1484 2953 1207 2617 
Q 931 2281 931 1641 
z
" transform="scale(0.015625)"/>
        <path id="ArialMT-47" d="M 2638 1797 
L 2638 2334 
L 4578 2338 
L 4578 638 
Q 4131 281 3656 101 
Q 3181 -78 2681 -78 
Q 2006 -78 1454 211 
Q 903 500 622 1047 
Q 341 1594 341 2269 
Q 341 2938 620 3517 
Q 900 4097 1425 4378 
Q 1950 4659 2634 4659 
Q 3131 4659 3532 4498 
Q 3934 4338 4162 4050 
Q 4391 3763 4509 3300 
L 3963 3150 
Q 3859 3500 3706 3700 
Q 3553 3900 3268 4020 
Q 2984 4141 2638 4141 
Q 2222 4141 1919 4014 
Q 1616 3888 1430 3681 
Q 1244 3475 1141 3228 
Q 966 2803 966 2306 
Q 966 1694 1177 1281 
Q 1388 869 1791 669 
Q 2194 469 2647 469 
Q 3041 469 3416 620 
Q 3791 772 3984 944 
L 3984 1797 
L 2638 1797 
z
" transform="scale(0.015625)"/>
        <path id="ArialMT-32" d="M 3222 541 
L 3222 0 
L 194 0 
Q 188 203 259 391 
Q 375 700 629 1000 
Q 884 1300 1366 1694 
Q 2113 2306 2375 2664 
Q 2638 3022 2638 3341 
Q 2638 3675 2398 3904 
Q 2159 4134 1775 4134 
Q 1369 4134 1125 3890 
Q 881 3647 878 3216 
L 300 3275 
Q 359 3922 746 4261 
Q 1134 4600 1788 4600 
Q 2447 4600 2831 4234 
Q 3216 3869 3216 3328 
Q 3216 3053 3103 2787 
Q 2991 2522 2730 2228 
Q 2469 1934 1863 1422 
Q 1356 997 1212 845 
Q 1069 694 975 541 
L 3222 541 
z
" transform="scale(0.015625)"/>
       </defs>
       <use xlink:href="#ArialMT-48"/>
       <use xlink:href="#ArialMT-65" x="72.216797"/>
       <use xlink:href="#ArialMT-70" x="127.832031"/>
       <use xlink:href="#ArialMT-47" x="183.447266"/>
       <use xlink:href="#ArialMT-32" x="261.230469"/>
      </g>
     </g>
    </g>
    <g id="xtick_4">
     <g id="line2d_4">
      <path d="M 229.654936 229.692403 
L 229.654936 7.932403 
" clip-path="url(#pd942864488)" style="fill: none; stroke: #000000; stroke-opacity: 0.8; stroke-linecap: round"/>
     </g>
     <g id="text_4">
      <!-- PC3 -->
      <g style="fill: #262626" transform="translate(217.983061 247.781778) scale(0.12 -0.12)">
       <defs>
        <path id="ArialMT-50" d="M 494 0 
L 494 4581 
L 2222 4581 
Q 2678 4581 2919 4538 
Q 3256 4481 3484 4323 
Q 3713 4166 3852 3881 
Q 3991 3597 3991 3256 
Q 3991 2672 3619 2267 
Q 3247 1863 2275 1863 
L 1100 1863 
L 1100 0 
L 494 0 
z
M 1100 2403 
L 2284 2403 
Q 2872 2403 3119 2622 
Q 3366 2841 3366 3238 
Q 3366 3525 3220 3729 
Q 3075 3934 2838 4000 
Q 2684 4041 2272 4041 
L 1100 4041 
L 1100 2403 
z
" transform="scale(0.015625)"/>
        <path id="ArialMT-43" d="M 3763 1606 
L 4369 1453 
Q 4178 706 3683 314 
Q 3188 -78 2472 -78 
Q 1731 -78 1267 223 
Q 803 525 561 1097 
Q 319 1669 319 2325 
Q 319 3041 592 3573 
Q 866 4106 1370 4382 
Q 1875 4659 2481 4659 
Q 3169 4659 3637 4309 
Q 4106 3959 4291 3325 
L 3694 3184 
Q 3534 3684 3231 3912 
Q 2928 4141 2469 4141 
Q 1941 4141 1586 3887 
Q 1231 3634 1087 3207 
Q 944 2781 944 2328 
Q 944 1744 1114 1308 
Q 1284 872 1643 656 
Q 2003 441 2422 441 
Q 2931 441 3284 734 
Q 3638 1028 3763 1606 
z
" transform="scale(0.015625)"/>
        <path id="ArialMT-33" d="M 269 1209 
L 831 1284 
Q 928 806 1161 595 
Q 1394 384 1728 384 
Q 2125 384 2398 659 
Q 2672 934 2672 1341 
Q 2672 1728 2419 1979 
Q 2166 2231 1775 2231 
Q 1616 2231 1378 2169 
L 1441 2663 
Q 1497 2656 1531 2656 
Q 1891 2656 2178 2843 
Q 2466 3031 2466 3422 
Q 2466 3731 2256 3934 
Q 2047 4138 1716 4138 
Q 1388 4138 1169 3931 
Q 950 3725 888 3313 
L 325 3413 
Q 428 3978 793 4289 
Q 1159 4600 1703 4600 
Q 2078 4600 2393 4439 
Q 2709 4278 2876 4000 
Q 3044 3722 3044 3409 
Q 3044 3113 2884 2869 
Q 2725 2625 2413 2481 
Q 2819 2388 3044 2092 
Q 3269 1797 3269 1353 
Q 3269 753 2831 336 
Q 2394 -81 1725 -81 
Q 1122 -81 723 278 
Q 325 638 269 1209 
z
" transform="scale(0.015625)"/>
       </defs>
       <use xlink:href="#ArialMT-50"/>
       <use xlink:href="#ArialMT-43" x="66.699219"/>
       <use xlink:href="#ArialMT-33" x="138.916016"/>
      </g>
     </g>
    </g>
    <g id="xtick_5">
     <g id="line2d_5">
      <path d="M 271.927664 229.692403 
L 271.927664 7.932403 
" clip-path="url(#pd942864488)" style="fill: none; stroke: #000000; stroke-opacity: 0.8; stroke-linecap: round"/>
     </g>
     <g id="text_5">
      <!-- HEK293 -->
      <g style="fill: #262626" transform="translate(249.580476 247.781778) scale(0.12 -0.12)">
       <defs>
        <path id="ArialMT-45" d="M 506 0 
L 506 4581 
L 3819 4581 
L 3819 4041 
L 1113 4041 
L 1113 2638 
L 3647 2638 
L 3647 2100 
L 1113 2100 
L 1113 541 
L 3925 541 
L 3925 0 
L 506 0 
z
" transform="scale(0.015625)"/>
        <path id="ArialMT-4b" d="M 469 0 
L 469 4581 
L 1075 4581 
L 1075 2309 
L 3350 4581 
L 4172 4581 
L 2250 2725 
L 4256 0 
L 3456 0 
L 1825 2319 
L 1075 1588 
L 1075 0 
L 469 0 
z
" transform="scale(0.015625)"/>
        <path id="ArialMT-39" d="M 350 1059 
L 891 1109 
Q 959 728 1153 556 
Q 1347 384 1650 384 
Q 1909 384 2104 503 
Q 2300 622 2425 820 
Q 2550 1019 2634 1356 
Q 2719 1694 2719 2044 
Q 2719 2081 2716 2156 
Q 2547 1888 2255 1720 
Q 1963 1553 1622 1553 
Q 1053 1553 659 1965 
Q 266 2378 266 3053 
Q 266 3750 677 4175 
Q 1088 4600 1706 4600 
Q 2153 4600 2523 4359 
Q 2894 4119 3086 3673 
Q 3278 3228 3278 2384 
Q 3278 1506 3087 986 
Q 2897 466 2520 194 
Q 2144 -78 1638 -78 
Q 1100 -78 759 220 
Q 419 519 350 1059 
z
M 2653 3081 
Q 2653 3566 2395 3850 
Q 2138 4134 1775 4134 
Q 1400 4134 1122 3828 
Q 844 3522 844 3034 
Q 844 2597 1108 2323 
Q 1372 2050 1759 2050 
Q 2150 2050 2401 2323 
Q 2653 2597 2653 3081 
z
" transform="scale(0.015625)"/>
       </defs>
       <use xlink:href="#ArialMT-48"/>
       <use xlink:href="#ArialMT-45" x="72.216797"/>
       <use xlink:href="#ArialMT-4b" x="138.916016"/>
       <use xlink:href="#ArialMT-32" x="205.615234"/>
       <use xlink:href="#ArialMT-39" x="261.230469"/>
       <use xlink:href="#ArialMT-33" x="316.845703"/>
      </g>
     </g>
    </g>
    <g id="xtick_6">
     <g id="line2d_6">
      <path d="M 314.200391 229.692403 
L 314.200391 7.932403 
" clip-path="url(#pd942864488)" style="fill: none; stroke: #000000; stroke-opacity: 0.8; stroke-linecap: round"/>
     </g>
     <g id="text_6">
      <!-- N2a -->
      <g style="fill: #262626" transform="translate(303.194141 247.781778) scale(0.12 -0.12)">
       <defs>
        <path id="ArialMT-4e" d="M 488 0 
L 488 4581 
L 1109 4581 
L 3516 984 
L 3516 4581 
L 4097 4581 
L 4097 0 
L 3475 0 
L 1069 3600 
L 1069 0 
L 488 0 
z
" transform="scale(0.015625)"/>
       </defs>
       <use xlink:href="#ArialMT-4e"/>
       <use xlink:href="#ArialMT-32" x="72.216797"/>
       <use xlink:href="#ArialMT-61" x="127.832031"/>
      </g>
     </g>
    </g>
    <g id="xtick_7">
     <g id="line2d_7">
      <path d="M 356.473118 229.692403 
L 356.473118 7.932403 
" clip-path="url(#pd942864488)" style="fill: none; stroke: #000000; stroke-opacity: 0.8; stroke-linecap: round"/>
     </g>
     <g id="text_7">
      <!-- ARPE19 -->
      <g style="fill: #262626" transform="translate(333.460306 247.781778) scale(0.12 -0.12)">
       <defs>
        <path id="ArialMT-41" d="M -9 0 
L 1750 4581 
L 2403 4581 
L 4278 0 
L 3588 0 
L 3053 1388 
L 1138 1388 
L 634 0 
L -9 0 
z
M 1313 1881 
L 2866 1881 
L 2388 3150 
Q 2169 3728 2063 4100 
Q 1975 3659 1816 3225 
L 1313 1881 
z
" transform="scale(0.015625)"/>
        <path id="ArialMT-52" d="M 503 0 
L 503 4581 
L 2534 4581 
Q 3147 4581 3465 4457 
Q 3784 4334 3975 4021 
Q 4166 3709 4166 3331 
Q 4166 2844 3850 2509 
Q 3534 2175 2875 2084 
Q 3116 1969 3241 1856 
Q 3506 1613 3744 1247 
L 4541 0 
L 3778 0 
L 3172 953 
Q 2906 1366 2734 1584 
Q 2563 1803 2427 1890 
Q 2291 1978 2150 2013 
Q 2047 2034 1813 2034 
L 1109 2034 
L 1109 0 
L 503 0 
z
M 1109 2559 
L 2413 2559 
Q 2828 2559 3062 2645 
Q 3297 2731 3419 2920 
Q 3541 3109 3541 3331 
Q 3541 3656 3305 3865 
Q 3069 4075 2559 4075 
L 1109 4075 
L 1109 2559 
z
" transform="scale(0.015625)"/>
       </defs>
       <use xlink:href="#ArialMT-41"/>
       <use xlink:href="#ArialMT-52" x="66.699219"/>
       <use xlink:href="#ArialMT-50" x="138.916016"/>
       <use xlink:href="#ArialMT-45" x="205.615234"/>
       <use xlink:href="#ArialMT-31" x="272.314453"/>
       <use xlink:href="#ArialMT-39" x="327.929688"/>
      </g>
     </g>
    </g>
   </g>
   <g id="matplotlib.axis_2">
    <g id="ytick_1">
     <g id="line2d_8">
      <defs>
       <path id="m259d50797b" d="M 0 0 
L -6 0 
" style="stroke: #262626; stroke-width: 1.25"/>
      </defs>
      <g>
       <use xlink:href="#m259d50797b" x="98.609482" y="193.338304" style="fill: #262626; stroke: #262626; stroke-width: 1.25"/>
      </g>
     </g>
     <g id="text_8">
      <!-- Zeta -->
      <g style="fill: #262626" transform="translate(70.44584 212.094414) rotate(-45) scale(0.12 -0.12)">
       <defs>
        <path id="ArialMT-5a" d="M 128 0 
L 128 563 
L 2475 3497 
Q 2725 3809 2950 4041 
L 394 4041 
L 394 4581 
L 3675 4581 
L 3675 4041 
L 1103 863 
L 825 541 
L 3750 541 
L 3750 0 
L 128 0 
z
" transform="scale(0.015625)"/>
       </defs>
       <use xlink:href="#ArialMT-5a"/>
       <use xlink:href="#ArialMT-65" x="61.083984"/>
       <use xlink:href="#ArialMT-74" x="116.699219"/>
       <use xlink:href="#ArialMT-61" x="144.482422"/>
      </g>
     </g>
    </g>
    <g id="ytick_2">
     <g id="line2d_9">
      <g>
       <use xlink:href="#m259d50797b" x="98.609482" y="181.220272" style="fill: #262626; stroke: #262626; stroke-width: 1.25"/>
      </g>
     </g>
     <g id="text_9">
      <!-- DOTAP -->
      <g style="fill: #262626" transform="translate(58.818353 211.603868) rotate(-45) scale(0.12 -0.12)">
       <defs>
        <path id="ArialMT-44" d="M 494 0 
L 494 4581 
L 2072 4581 
Q 2606 4581 2888 4516 
Q 3281 4425 3559 4188 
Q 3922 3881 4101 3404 
Q 4281 2928 4281 2316 
Q 4281 1794 4159 1391 
Q 4038 988 3847 723 
Q 3656 459 3429 307 
Q 3203 156 2883 78 
Q 2563 0 2147 0 
L 494 0 
z
M 1100 541 
L 2078 541 
Q 2531 541 2789 625 
Q 3047 709 3200 863 
Q 3416 1078 3536 1442 
Q 3656 1806 3656 2325 
Q 3656 3044 3420 3430 
Q 3184 3816 2847 3947 
Q 2603 4041 2063 4041 
L 1100 4041 
L 1100 541 
z
" transform="scale(0.015625)"/>
        <path id="ArialMT-4f" d="M 309 2231 
Q 309 3372 921 4017 
Q 1534 4663 2503 4663 
Q 3138 4663 3647 4359 
Q 4156 4056 4423 3514 
Q 4691 2972 4691 2284 
Q 4691 1588 4409 1038 
Q 4128 488 3612 205 
Q 3097 -78 2500 -78 
Q 1853 -78 1343 234 
Q 834 547 571 1087 
Q 309 1628 309 2231 
z
M 934 2222 
Q 934 1394 1379 917 
Q 1825 441 2497 441 
Q 3181 441 3623 922 
Q 4066 1403 4066 2288 
Q 4066 2847 3877 3264 
Q 3688 3681 3323 3911 
Q 2959 4141 2506 4141 
Q 1863 4141 1398 3698 
Q 934 3256 934 2222 
z
" transform="scale(0.015625)"/>
        <path id="ArialMT-54" d="M 1659 0 
L 1659 4041 
L 150 4041 
L 150 4581 
L 3781 4581 
L 3781 4041 
L 2266 4041 
L 2266 0 
L 1659 0 
z
" transform="scale(0.015625)"/>
       </defs>
       <use xlink:href="#ArialMT-44"/>
       <use xlink:href="#ArialMT-4f" x="72.216797"/>
       <use xlink:href="#ArialMT-54" x="150"/>
       <use xlink:href="#ArialMT-41" x="203.708984"/>
       <use xlink:href="#ArialMT-50" x="270.408203"/>
      </g>
     </g>
    </g>
    <g id="ytick_3">
     <g id="line2d_10">
      <g>
       <use xlink:href="#m259d50797b" x="98.609482" y="169.102239" style="fill: #262626; stroke: #262626; stroke-width: 1.25"/>
      </g>
     </g>
     <g id="text_10">
      <!-- DSPC -->
      <g style="fill: #262626" transform="translate(63.847208 194.456981) rotate(-45) scale(0.12 -0.12)">
       <defs>
        <path id="ArialMT-53" d="M 288 1472 
L 859 1522 
Q 900 1178 1048 958 
Q 1197 738 1509 602 
Q 1822 466 2213 466 
Q 2559 466 2825 569 
Q 3091 672 3220 851 
Q 3350 1031 3350 1244 
Q 3350 1459 3225 1620 
Q 3100 1781 2813 1891 
Q 2628 1963 1997 2114 
Q 1366 2266 1113 2400 
Q 784 2572 623 2826 
Q 463 3081 463 3397 
Q 463 3744 659 4045 
Q 856 4347 1234 4503 
Q 1613 4659 2075 4659 
Q 2584 4659 2973 4495 
Q 3363 4331 3572 4012 
Q 3781 3694 3797 3291 
L 3216 3247 
Q 3169 3681 2898 3903 
Q 2628 4125 2100 4125 
Q 1550 4125 1298 3923 
Q 1047 3722 1047 3438 
Q 1047 3191 1225 3031 
Q 1400 2872 2139 2705 
Q 2878 2538 3153 2413 
Q 3553 2228 3743 1945 
Q 3934 1663 3934 1294 
Q 3934 928 3725 604 
Q 3516 281 3123 101 
Q 2731 -78 2241 -78 
Q 1619 -78 1198 103 
Q 778 284 539 648 
Q 300 1013 288 1472 
z
" transform="scale(0.015625)"/>
       </defs>
       <use xlink:href="#ArialMT-44"/>
       <use xlink:href="#ArialMT-53" x="72.216797"/>
       <use xlink:href="#ArialMT-50" x="138.916016"/>
       <use xlink:href="#ArialMT-43" x="205.615234"/>
      </g>
     </g>
    </g>
    <g id="ytick_4">
     <g id="line2d_11">
      <g>
       <use xlink:href="#m259d50797b" x="98.609482" y="156.984206" style="fill: #262626; stroke: #262626; stroke-width: 1.25"/>
      </g>
     </g>
     <g id="text_11">
      <!-- DOPE -->
      <g style="fill: #262626" transform="translate(63.375214 182.810941) rotate(-45) scale(0.12 -0.12)">
       <use xlink:href="#ArialMT-44"/>
       <use xlink:href="#ArialMT-4f" x="72.216797"/>
       <use xlink:href="#ArialMT-50" x="150"/>
       <use xlink:href="#ArialMT-45" x="216.699219"/>
      </g>
     </g>
    </g>
    <g id="ytick_5">
     <g id="line2d_12">
      <g>
       <use xlink:href="#m259d50797b" x="98.609482" y="144.866173" style="fill: #262626; stroke: #262626; stroke-width: 1.25"/>
      </g>
     </g>
     <g id="text_12">
      <!-- 14PA -->
      <g style="fill: #262626" transform="translate(67.291702 166.776421) rotate(-45) scale(0.12 -0.12)">
       <defs>
        <path id="ArialMT-34" d="M 2069 0 
L 2069 1097 
L 81 1097 
L 81 1613 
L 2172 4581 
L 2631 4581 
L 2631 1613 
L 3250 1613 
L 3250 1097 
L 2631 1097 
L 2631 0 
L 2069 0 
z
M 2069 1613 
L 2069 3678 
L 634 1613 
L 2069 1613 
z
" transform="scale(0.015625)"/>
       </defs>
       <use xlink:href="#ArialMT-31"/>
       <use xlink:href="#ArialMT-34" x="55.615234"/>
       <use xlink:href="#ArialMT-50" x="111.230469"/>
       <use xlink:href="#ArialMT-41" x="170.554688"/>
      </g>
     </g>
    </g>
    <g id="ytick_6">
     <g id="line2d_13">
      <g>
       <use xlink:href="#m259d50797b" x="98.609482" y="132.74814" style="fill: #262626; stroke: #262626; stroke-width: 1.25"/>
      </g>
     </g>
     <g id="text_13">
      <!-- Double_bonds -->
      <g style="fill: #262626" transform="translate(32.699596 189.250494) rotate(-45) scale(0.12 -0.12)">
       <defs>
        <path id="ArialMT-6f" d="M 213 1659 
Q 213 2581 725 3025 
Q 1153 3394 1769 3394 
Q 2453 3394 2887 2945 
Q 3322 2497 3322 1706 
Q 3322 1066 3130 698 
Q 2938 331 2570 128 
Q 2203 -75 1769 -75 
Q 1072 -75 642 372 
Q 213 819 213 1659 
z
M 791 1659 
Q 791 1022 1069 705 
Q 1347 388 1769 388 
Q 2188 388 2466 706 
Q 2744 1025 2744 1678 
Q 2744 2294 2464 2611 
Q 2184 2928 1769 2928 
Q 1347 2928 1069 2612 
Q 791 2297 791 1659 
z
" transform="scale(0.015625)"/>
        <path id="ArialMT-62" d="M 941 0 
L 419 0 
L 419 4581 
L 981 4581 
L 981 2947 
Q 1338 3394 1891 3394 
Q 2197 3394 2470 3270 
Q 2744 3147 2920 2923 
Q 3097 2700 3197 2384 
Q 3297 2069 3297 1709 
Q 3297 856 2875 390 
Q 2453 -75 1863 -75 
Q 1275 -75 941 416 
L 941 0 
z
M 934 1684 
Q 934 1088 1097 822 
Q 1363 388 1816 388 
Q 2184 388 2453 708 
Q 2722 1028 2722 1663 
Q 2722 2313 2464 2622 
Q 2206 2931 1841 2931 
Q 1472 2931 1203 2611 
Q 934 2291 934 1684 
z
" transform="scale(0.015625)"/>
        <path id="ArialMT-6c" d="M 409 0 
L 409 4581 
L 972 4581 
L 972 0 
L 409 0 
z
" transform="scale(0.015625)"/>
        <path id="ArialMT-5f" d="M -97 -1272 
L -97 -866 
L 3631 -866 
L 3631 -1272 
L -97 -1272 
z
" transform="scale(0.015625)"/>
        <path id="ArialMT-6e" d="M 422 0 
L 422 3319 
L 928 3319 
L 928 2847 
Q 1294 3394 1984 3394 
Q 2284 3394 2536 3286 
Q 2788 3178 2913 3003 
Q 3038 2828 3088 2588 
Q 3119 2431 3119 2041 
L 3119 0 
L 2556 0 
L 2556 2019 
Q 2556 2363 2490 2533 
Q 2425 2703 2258 2804 
Q 2091 2906 1866 2906 
Q 1506 2906 1245 2678 
Q 984 2450 984 1813 
L 984 0 
L 422 0 
z
" transform="scale(0.015625)"/>
        <path id="ArialMT-64" d="M 2575 0 
L 2575 419 
Q 2259 -75 1647 -75 
Q 1250 -75 917 144 
Q 584 363 401 755 
Q 219 1147 219 1656 
Q 219 2153 384 2558 
Q 550 2963 881 3178 
Q 1213 3394 1622 3394 
Q 1922 3394 2156 3267 
Q 2391 3141 2538 2938 
L 2538 4581 
L 3097 4581 
L 3097 0 
L 2575 0 
z
M 797 1656 
Q 797 1019 1065 703 
Q 1334 388 1700 388 
Q 2069 388 2326 689 
Q 2584 991 2584 1609 
Q 2584 2291 2321 2609 
Q 2059 2928 1675 2928 
Q 1300 2928 1048 2622 
Q 797 2316 797 1656 
z
" transform="scale(0.015625)"/>
        <path id="ArialMT-73" d="M 197 991 
L 753 1078 
Q 800 744 1014 566 
Q 1228 388 1613 388 
Q 2000 388 2187 545 
Q 2375 703 2375 916 
Q 2375 1106 2209 1216 
Q 2094 1291 1634 1406 
Q 1016 1563 777 1677 
Q 538 1791 414 1992 
Q 291 2194 291 2438 
Q 291 2659 392 2848 
Q 494 3038 669 3163 
Q 800 3259 1026 3326 
Q 1253 3394 1513 3394 
Q 1903 3394 2198 3281 
Q 2494 3169 2634 2976 
Q 2775 2784 2828 2463 
L 2278 2388 
Q 2241 2644 2061 2787 
Q 1881 2931 1553 2931 
Q 1166 2931 1000 2803 
Q 834 2675 834 2503 
Q 834 2394 903 2306 
Q 972 2216 1119 2156 
Q 1203 2125 1616 2013 
Q 2213 1853 2448 1751 
Q 2684 1650 2818 1456 
Q 2953 1263 2953 975 
Q 2953 694 2789 445 
Q 2625 197 2315 61 
Q 2006 -75 1616 -75 
Q 969 -75 630 194 
Q 291 463 197 991 
z
" transform="scale(0.015625)"/>
       </defs>
       <use xlink:href="#ArialMT-44"/>
       <use xlink:href="#ArialMT-6f" x="72.216797"/>
       <use xlink:href="#ArialMT-75" x="127.832031"/>
       <use xlink:href="#ArialMT-62" x="183.447266"/>
       <use xlink:href="#ArialMT-6c" x="239.0625"/>
       <use xlink:href="#ArialMT-65" x="261.279297"/>
       <use xlink:href="#ArialMT-5f" x="316.894531"/>
       <use xlink:href="#ArialMT-62" x="372.509766"/>
       <use xlink:href="#ArialMT-6f" x="428.125"/>
       <use xlink:href="#ArialMT-6e" x="483.740234"/>
       <use xlink:href="#ArialMT-64" x="539.355469"/>
       <use xlink:href="#ArialMT-73" x="594.970703"/>
      </g>
     </g>
    </g>
    <g id="ytick_7">
     <g id="line2d_14">
      <g>
       <use xlink:href="#m259d50797b" x="98.609482" y="120.630108" style="fill: #262626; stroke: #262626; stroke-width: 1.25"/>
      </g>
     </g>
     <g id="text_14">
      <!-- Total_Carbon_Tails -->
      <g style="fill: #262626" transform="translate(15.268972 194.593375) rotate(-45) scale(0.12 -0.12)">
       <defs>
        <path id="ArialMT-69" d="M 425 3934 
L 425 4581 
L 988 4581 
L 988 3934 
L 425 3934 
z
M 425 0 
L 425 3319 
L 988 3319 
L 988 0 
L 425 0 
z
" transform="scale(0.015625)"/>
       </defs>
       <use xlink:href="#ArialMT-54"/>
       <use xlink:href="#ArialMT-6f" x="49.958984"/>
       <use xlink:href="#ArialMT-74" x="105.574219"/>
       <use xlink:href="#ArialMT-61" x="133.357422"/>
       <use xlink:href="#ArialMT-6c" x="188.972656"/>
       <use xlink:href="#ArialMT-5f" x="211.189453"/>
       <use xlink:href="#ArialMT-43" x="266.804688"/>
       <use xlink:href="#ArialMT-61" x="339.021484"/>
       <use xlink:href="#ArialMT-72" x="394.636719"/>
       <use xlink:href="#ArialMT-62" x="427.9375"/>
       <use xlink:href="#ArialMT-6f" x="483.552734"/>
       <use xlink:href="#ArialMT-6e" x="539.167969"/>
       <use xlink:href="#ArialMT-5f" x="594.783203"/>
       <use xlink:href="#ArialMT-54" x="650.398438"/>
       <use xlink:href="#ArialMT-61" x="700.357422"/>
       <use xlink:href="#ArialMT-69" x="755.972656"/>
       <use xlink:href="#ArialMT-6c" x="778.189453"/>
       <use xlink:href="#ArialMT-73" x="800.40625"/>
      </g>
     </g>
    </g>
    <g id="ytick_8">
     <g id="line2d_15">
      <g>
       <use xlink:href="#m259d50797b" x="98.609482" y="108.512075" style="fill: #262626; stroke: #262626; stroke-width: 1.25"/>
      </g>
     </g>
     <g id="text_15">
      <!-- Hbond_A -->
      <g style="fill: #262626" transform="translate(52.04206 145.671964) rotate(-45) scale(0.12 -0.12)">
       <use xlink:href="#ArialMT-48"/>
       <use xlink:href="#ArialMT-62" x="72.216797"/>
       <use xlink:href="#ArialMT-6f" x="127.832031"/>
       <use xlink:href="#ArialMT-6e" x="183.447266"/>
       <use xlink:href="#ArialMT-64" x="239.0625"/>
       <use xlink:href="#ArialMT-5f" x="294.677734"/>
       <use xlink:href="#ArialMT-41" x="350.292969"/>
      </g>
     </g>
    </g>
    <g id="ytick_9">
     <g id="line2d_16">
      <g>
       <use xlink:href="#m259d50797b" x="98.609482" y="96.394042" style="fill: #262626; stroke: #262626; stroke-width: 1.25"/>
      </g>
     </g>
     <g id="text_16">
      <!-- Hbond_D -->
      <g style="fill: #262626" transform="translate(51.574044 134.021948) rotate(-45) scale(0.12 -0.12)">
       <use xlink:href="#ArialMT-48"/>
       <use xlink:href="#ArialMT-62" x="72.216797"/>
       <use xlink:href="#ArialMT-6f" x="127.832031"/>
       <use xlink:href="#ArialMT-6e" x="183.447266"/>
       <use xlink:href="#ArialMT-64" x="239.0625"/>
       <use xlink:href="#ArialMT-5f" x="294.677734"/>
       <use xlink:href="#ArialMT-44" x="350.292969"/>
      </g>
     </g>
    </g>
    <g id="ytick_10">
     <g id="line2d_17">
      <g>
       <use xlink:href="#m259d50797b" x="98.609482" y="84.276009" style="fill: #262626; stroke: #262626; stroke-width: 1.25"/>
      </g>
     </g>
     <g id="text_17">
      <!-- cLogP -->
      <g style="fill: #262626" transform="translate(63.265171 110.113351) rotate(-45) scale(0.12 -0.12)">
       <defs>
        <path id="ArialMT-63" d="M 2588 1216 
L 3141 1144 
Q 3050 572 2676 248 
Q 2303 -75 1759 -75 
Q 1078 -75 664 370 
Q 250 816 250 1647 
Q 250 2184 428 2587 
Q 606 2991 970 3192 
Q 1334 3394 1763 3394 
Q 2303 3394 2647 3120 
Q 2991 2847 3088 2344 
L 2541 2259 
Q 2463 2594 2264 2762 
Q 2066 2931 1784 2931 
Q 1359 2931 1093 2626 
Q 828 2322 828 1663 
Q 828 994 1084 691 
Q 1341 388 1753 388 
Q 2084 388 2306 591 
Q 2528 794 2588 1216 
z
" transform="scale(0.015625)"/>
        <path id="ArialMT-4c" d="M 469 0 
L 469 4581 
L 1075 4581 
L 1075 541 
L 3331 541 
L 3331 0 
L 469 0 
z
" transform="scale(0.015625)"/>
        <path id="ArialMT-67" d="M 319 -275 
L 866 -356 
Q 900 -609 1056 -725 
Q 1266 -881 1628 -881 
Q 2019 -881 2231 -725 
Q 2444 -569 2519 -288 
Q 2563 -116 2559 434 
Q 2191 0 1641 0 
Q 956 0 581 494 
Q 206 988 206 1678 
Q 206 2153 378 2554 
Q 550 2956 876 3175 
Q 1203 3394 1644 3394 
Q 2231 3394 2613 2919 
L 2613 3319 
L 3131 3319 
L 3131 450 
Q 3131 -325 2973 -648 
Q 2816 -972 2473 -1159 
Q 2131 -1347 1631 -1347 
Q 1038 -1347 672 -1080 
Q 306 -813 319 -275 
z
M 784 1719 
Q 784 1066 1043 766 
Q 1303 466 1694 466 
Q 2081 466 2343 764 
Q 2606 1063 2606 1700 
Q 2606 2309 2336 2618 
Q 2066 2928 1684 2928 
Q 1309 2928 1046 2623 
Q 784 2319 784 1719 
z
" transform="scale(0.015625)"/>
       </defs>
       <use xlink:href="#ArialMT-63"/>
       <use xlink:href="#ArialMT-4c" x="50"/>
       <use xlink:href="#ArialMT-6f" x="105.615234"/>
       <use xlink:href="#ArialMT-67" x="161.230469"/>
       <use xlink:href="#ArialMT-50" x="216.845703"/>
      </g>
     </g>
    </g>
    <g id="ytick_11">
     <g id="line2d_18">
      <g>
       <use xlink:href="#m259d50797b" x="98.609482" y="72.157976" style="fill: #262626; stroke: #262626; stroke-width: 1.25"/>
      </g>
     </g>
     <g id="text_18">
      <!-- N_charged_centers -->
      <g style="fill: #262626" transform="translate(13.273605 147.986884) rotate(-45) scale(0.12 -0.12)">
       <defs>
        <path id="ArialMT-68" d="M 422 0 
L 422 4581 
L 984 4581 
L 984 2938 
Q 1378 3394 1978 3394 
Q 2347 3394 2619 3248 
Q 2891 3103 3008 2847 
Q 3125 2591 3125 2103 
L 3125 0 
L 2563 0 
L 2563 2103 
Q 2563 2525 2380 2717 
Q 2197 2909 1863 2909 
Q 1613 2909 1392 2779 
Q 1172 2650 1078 2428 
Q 984 2206 984 1816 
L 984 0 
L 422 0 
z
" transform="scale(0.015625)"/>
       </defs>
       <use xlink:href="#ArialMT-4e"/>
       <use xlink:href="#ArialMT-5f" x="72.216797"/>
       <use xlink:href="#ArialMT-63" x="127.832031"/>
       <use xlink:href="#ArialMT-68" x="177.832031"/>
       <use xlink:href="#ArialMT-61" x="233.447266"/>
       <use xlink:href="#ArialMT-72" x="289.0625"/>
       <use xlink:href="#ArialMT-67" x="322.363281"/>
       <use xlink:href="#ArialMT-65" x="377.978516"/>
       <use xlink:href="#ArialMT-64" x="433.59375"/>
       <use xlink:href="#ArialMT-5f" x="489.208984"/>
       <use xlink:href="#ArialMT-63" x="544.824219"/>
       <use xlink:href="#ArialMT-65" x="594.824219"/>
       <use xlink:href="#ArialMT-6e" x="650.439453"/>
       <use xlink:href="#ArialMT-74" x="706.054688"/>
       <use xlink:href="#ArialMT-65" x="733.837891"/>
       <use xlink:href="#ArialMT-72" x="789.453125"/>
       <use xlink:href="#ArialMT-73" x="822.753906"/>
      </g>
     </g>
    </g>
    <g id="ytick_12">
     <g id="line2d_19">
      <g>
       <use xlink:href="#m259d50797b" x="98.609482" y="60.039944" style="fill: #262626; stroke: #262626; stroke-width: 1.25"/>
      </g>
     </g>
     <g id="text_19">
      <!-- P_charged_centers -->
      <g style="fill: #262626" transform="translate(13.741622 135.400835) rotate(-45) scale(0.12 -0.12)">
       <use xlink:href="#ArialMT-50"/>
       <use xlink:href="#ArialMT-5f" x="66.699219"/>
       <use xlink:href="#ArialMT-63" x="122.314453"/>
       <use xlink:href="#ArialMT-68" x="172.314453"/>
       <use xlink:href="#ArialMT-61" x="227.929688"/>
       <use xlink:href="#ArialMT-72" x="283.544922"/>
       <use xlink:href="#ArialMT-67" x="316.845703"/>
       <use xlink:href="#ArialMT-65" x="372.460938"/>
       <use xlink:href="#ArialMT-64" x="428.076172"/>
       <use xlink:href="#ArialMT-5f" x="483.691406"/>
       <use xlink:href="#ArialMT-63" x="539.306641"/>
       <use xlink:href="#ArialMT-65" x="589.306641"/>
       <use xlink:href="#ArialMT-6e" x="644.921875"/>
       <use xlink:href="#ArialMT-74" x="700.537109"/>
       <use xlink:href="#ArialMT-65" x="728.320312"/>
       <use xlink:href="#ArialMT-72" x="783.935547"/>
       <use xlink:href="#ArialMT-73" x="817.236328"/>
      </g>
     </g>
    </g>
    <g id="ytick_13">
     <g id="line2d_20">
      <g>
       <use xlink:href="#m259d50797b" x="98.609482" y="47.921911" style="fill: #262626; stroke: #262626; stroke-width: 1.25"/>
      </g>
     </g>
     <g id="text_20">
      <!-- NP_ratio -->
      <g style="fill: #262626" transform="translate(54.41131 82.712551) rotate(-45) scale(0.12 -0.12)">
       <use xlink:href="#ArialMT-4e"/>
       <use xlink:href="#ArialMT-50" x="72.216797"/>
       <use xlink:href="#ArialMT-5f" x="138.916016"/>
       <use xlink:href="#ArialMT-72" x="194.53125"/>
       <use xlink:href="#ArialMT-61" x="227.832031"/>
       <use xlink:href="#ArialMT-74" x="283.447266"/>
       <use xlink:href="#ArialMT-69" x="311.230469"/>
       <use xlink:href="#ArialMT-6f" x="333.447266"/>
      </g>
     </g>
    </g>
    <g id="ytick_14">
     <g id="line2d_21">
      <g>
       <use xlink:href="#m259d50797b" x="98.609482" y="35.803878" style="fill: #262626; stroke: #262626; stroke-width: 1.25"/>
      </g>
     </g>
     <g id="text_21">
      <!-- PEG_(Chol+PEG) -->
      <g style="fill: #262626" transform="translate(18.708163 106.228518) rotate(-45) scale(0.12 -0.12)">
       <defs>
        <path id="ArialMT-28" d="M 1497 -1347 
Q 1031 -759 709 28 
Q 388 816 388 1659 
Q 388 2403 628 3084 
Q 909 3875 1497 4659 
L 1900 4659 
Q 1522 4009 1400 3731 
Q 1209 3300 1100 2831 
Q 966 2247 966 1656 
Q 966 153 1900 -1347 
L 1497 -1347 
z
" transform="scale(0.015625)"/>
        <path id="ArialMT-2b" d="M 1603 741 
L 1603 1997 
L 356 1997 
L 356 2522 
L 1603 2522 
L 1603 3769 
L 2134 3769 
L 2134 2522 
L 3381 2522 
L 3381 1997 
L 2134 1997 
L 2134 741 
L 1603 741 
z
" transform="scale(0.015625)"/>
        <path id="ArialMT-29" d="M 791 -1347 
L 388 -1347 
Q 1322 153 1322 1656 
Q 1322 2244 1188 2822 
Q 1081 3291 891 3722 
Q 769 4003 388 4659 
L 791 4659 
Q 1378 3875 1659 3084 
Q 1900 2403 1900 1659 
Q 1900 816 1576 28 
Q 1253 -759 791 -1347 
z
" transform="scale(0.015625)"/>
       </defs>
       <use xlink:href="#ArialMT-50"/>
       <use xlink:href="#ArialMT-45" x="66.699219"/>
       <use xlink:href="#ArialMT-47" x="133.398438"/>
       <use xlink:href="#ArialMT-5f" x="211.181641"/>
       <use xlink:href="#ArialMT-28" x="266.796875"/>
       <use xlink:href="#ArialMT-43" x="300.097656"/>
       <use xlink:href="#ArialMT-68" x="372.314453"/>
       <use xlink:href="#ArialMT-6f" x="427.929688"/>
       <use xlink:href="#ArialMT-6c" x="483.544922"/>
       <use xlink:href="#ArialMT-2b" x="505.761719"/>
       <use xlink:href="#ArialMT-50" x="564.160156"/>
       <use xlink:href="#ArialMT-45" x="630.859375"/>
       <use xlink:href="#ArialMT-47" x="697.558594"/>
       <use xlink:href="#ArialMT-29" x="775.341797"/>
      </g>
     </g>
    </g>
    <g id="ytick_15">
     <g id="line2d_22">
      <g>
       <use xlink:href="#m259d50797b" x="98.609482" y="23.685845" style="fill: #262626; stroke: #262626; stroke-width: 1.25"/>
      </g>
     </g>
     <g id="text_22">
      <!-- (IL+HL) -->
      <g style="fill: #262626" transform="translate(58.794488 54.024159) rotate(-45) scale(0.12 -0.12)">
       <defs>
        <path id="ArialMT-49" d="M 597 0 
L 597 4581 
L 1203 4581 
L 1203 0 
L 597 0 
z
" transform="scale(0.015625)"/>
       </defs>
       <use xlink:href="#ArialMT-28"/>
       <use xlink:href="#ArialMT-49" x="33.300781"/>
       <use xlink:href="#ArialMT-4c" x="61.083984"/>
       <use xlink:href="#ArialMT-2b" x="116.699219"/>
       <use xlink:href="#ArialMT-48" x="175.097656"/>
       <use xlink:href="#ArialMT-4c" x="247.314453"/>
       <use xlink:href="#ArialMT-29" x="302.929688"/>
      </g>
     </g>
    </g>
    <g id="ytick_16">
     <g id="line2d_23">
      <g>
       <use xlink:href="#m259d50797b" x="98.609482" y="11.567812" style="fill: #262626; stroke: #262626; stroke-width: 1.25"/>
      </g>
     </g>
     <g id="text_23">
      <!-- HL_(IL+HL) -->
      <g style="fill: #262626" transform="translate(43.2293 57.471315) rotate(-45) scale(0.12 -0.12)">
       <use xlink:href="#ArialMT-48"/>
       <use xlink:href="#ArialMT-4c" x="72.216797"/>
       <use xlink:href="#ArialMT-5f" x="127.832031"/>
       <use xlink:href="#ArialMT-28" x="183.447266"/>
       <use xlink:href="#ArialMT-49" x="216.748047"/>
       <use xlink:href="#ArialMT-4c" x="244.53125"/>
       <use xlink:href="#ArialMT-2b" x="300.146484"/>
       <use xlink:href="#ArialMT-48" x="358.544922"/>
       <use xlink:href="#ArialMT-4c" x="430.761719"/>
       <use xlink:href="#ArialMT-29" x="486.376953"/>
      </g>
     </g>
    </g>
   </g>
   <g id="line2d_24">
    <path d="M 102.836754 11.567812 
L 107.373945 11.605428 
L 107.878077 11.824741 
L 108.382209 12.234701 
L 109.138407 13.194038 
L 109.894606 14.54874 
L 110.90287 16.935186 
L 111.911135 19.940901 
L 113.171465 24.496115 
L 114.683862 31.009714 
L 116.196259 38.513595 
L 118.212788 49.780541 
L 120.733449 65.354639 
L 125.018573 93.632597 
L 128.799564 117.96016 
L 131.068159 131.174355 
L 132.832622 140.303357 
L 134.345019 147.114745 
L 135.60535 151.953113 
L 136.86568 155.930332 
L 137.873945 158.42938 
L 138.882209 160.269805 
L 139.638407 161.189165 
L 140.394606 161.691026 
L 140.898738 161.783811 
L 149.721052 161.726058 
L 150.225184 161.478241 
L 150.981383 160.752573 
L 151.737581 159.620087 
L 152.493779 158.100937 
L 153.502044 155.50876 
L 154.510308 152.312781 
L 155.770639 147.541488 
L 157.283035 140.800495 
L 159.047498 131.739702 
L 161.064027 120.120471 
L 163.836754 102.618511 
L 172.154936 48.907402 
L 174.171465 37.736128 
L 175.935928 29.180363 
L 177.448325 22.956244 
L 178.708655 18.674904 
L 179.71692 15.909653 
L 180.725184 13.782662 
L 181.481383 12.635015 
L 182.237581 11.893414 
L 182.741713 11.634548 
L 183.497912 11.567812 
L 234.415267 11.678602 
L 234.919399 11.983036 
L 235.675597 12.790326 
L 236.431796 14.00047 
L 237.187994 15.593313 
L 238.196259 18.277579 
L 239.204523 21.558599 
L 240.464854 26.426283 
L 241.97725 33.268407 
L 243.741713 42.427142 
L 245.758242 54.131877 
L 248.530969 71.70537 
L 256.345019 122.348567 
L 258.361548 133.74494 
L 260.126011 142.552914 
L 261.638407 149.034254 
L 262.898738 153.558885 
L 263.907002 156.537711 
L 264.915267 158.895114 
L 265.671465 160.226619 
L 266.427664 161.16155 
L 267.183862 161.679751 
L 267.687994 161.78375 
L 276.510308 161.734397 
L 277.01444 161.497649 
L 277.518573 161.070794 
L 278.274771 160.087122 
L 279.030969 158.709297 
L 280.039234 156.293905 
L 281.047498 153.261397 
L 282.307829 148.675721 
L 283.820226 142.13001 
L 285.584688 133.259185 
L 287.601217 121.807136 
L 290.121878 106.08095 
L 299.700391 44.72932 
L 301.71692 34.055713 
L 303.229316 27.10579 
L 304.741713 21.23954 
L 306.002044 17.295122 
L 307.010308 14.824739 
L 307.766507 13.402972 
L 308.522705 12.373046 
L 309.278903 11.755114 
L 309.783035 11.581996 
L 311.799564 11.567812 
L 360.700391 11.567812 
L 360.700391 11.567812 
" clip-path="url(#pd942864488)" style="fill: none; stroke: #f66ab5; stroke-opacity: 0.75; stroke-width: 3; stroke-linecap: round"/>
   </g>
   <g id="line2d_25">
    <path d="M 102.836754 23.685845 
L 107.626011 23.775197 
L 108.382209 24.17003 
L 109.138407 24.866544 
L 109.894606 25.850107 
L 110.90287 27.582754 
L 111.911135 29.765013 
L 113.171465 33.072265 
L 114.683862 37.801375 
L 116.448325 44.219163 
L 118.464854 52.513628 
L 120.985515 63.915031 
L 130.564027 108.485431 
L 132.580556 116.258499 
L 134.092953 121.326231 
L 135.60535 125.610696 
L 136.86568 128.498302 
L 137.873945 130.312701 
L 138.882209 131.648917 
L 139.638407 132.316406 
L 140.394606 132.680775 
L 141.150804 132.74814 
L 149.721052 132.701551 
L 150.47725 132.34397 
L 151.233449 131.647367 
L 151.989647 130.628001 
L 152.997912 128.794871 
L 154.006176 126.45538 
L 155.266507 122.877657 
L 156.526837 118.644231 
L 158.039234 112.804568 
L 159.803697 105.108758 
L 162.072292 94.135009 
L 165.349151 76.973131 
L 170.894606 47.800736 
L 173.163201 37.051758 
L 174.927664 29.59434 
L 176.44006 24.003287 
L 177.952457 19.288928 
L 179.212788 16.123828 
L 180.221052 14.145707 
L 181.229316 12.701744 
L 181.985515 11.992497 
L 182.741713 11.621648 
L 183.497912 11.567812 
L 234.667333 11.664268 
L 235.675597 12.060918 
L 236.683862 12.746443 
L 237.692126 13.701575 
L 238.952457 15.245267 
L 240.212788 17.142478 
L 241.725184 19.832784 
L 243.489647 23.459621 
L 245.506176 28.121836 
L 248.278903 35.160599 
L 256.849151 57.446644 
L 258.86568 61.913189 
L 260.630143 65.320359 
L 262.14254 67.786383 
L 263.40287 69.47131 
L 264.663201 70.779646 
L 265.671465 71.529878 
L 266.67973 71.995736 
L 267.435928 72.146918 
L 270.208655 72.157976 
L 318.857416 72.216186 
L 319.613614 72.594605 
L 320.369812 73.311068 
L 321.126011 74.349317 
L 322.134275 76.206104 
L 323.14254 78.567515 
L 324.40287 82.170194 
L 325.663201 86.425863 
L 327.175597 92.288633 
L 328.94006 100.006461 
L 331.208655 111.000701 
L 334.485515 128.176649 
L 340.030969 157.331048 
L 342.299564 168.057517 
L 344.064027 175.491348 
L 345.576424 181.057947 
L 347.088821 185.743944 
L 348.349151 188.882424 
L 349.357416 190.837293 
L 350.36568 192.256267 
L 351.121878 192.945633 
L 351.878077 193.295623 
L 352.886341 193.338304 
L 360.700391 193.338304 
L 360.700391 193.338304 
" clip-path="url(#pd942864488)" style="fill: none; stroke: #f561dd; stroke-opacity: 0.75; stroke-width: 3; stroke-linecap: round"/>
   </g>
   <g id="line2d_26">
    <path d="M 102.836754 35.803878 
L 107.373945 35.839279 
L 107.878077 36.045683 
L 108.634275 36.689952 
L 109.390474 37.718958 
L 110.146672 39.113733 
L 111.154936 41.509624 
L 112.163201 44.477092 
L 113.423531 48.921714 
L 114.935928 55.21777 
L 116.700391 63.698484 
L 118.71692 74.592799 
L 121.237581 89.486929 
L 130.311961 144.377198 
L 132.32849 154.619783 
L 134.092953 162.371826 
L 135.60535 167.925633 
L 136.86568 171.66874 
L 137.873945 174.020685 
L 138.882209 175.752776 
L 139.638407 176.61802 
L 140.394606 177.09034 
L 141.150804 177.177662 
L 277.770639 177.284801 
L 279.535102 177.629734 
L 281.551631 178.28094 
L 283.568159 179.166873 
L 286.088821 180.541739 
L 289.113614 182.477835 
L 294.154936 186.038865 
L 298.692126 189.143242 
L 301.464854 190.784264 
L 303.733449 191.890866 
L 305.749978 192.645197 
L 307.51444 193.094464 
L 309.278903 193.318154 
L 312.051631 193.338304 
L 319.86568 193.253128 
L 321.630143 192.930989 
L 323.394606 192.394884 
L 325.411135 191.555527 
L 327.67973 190.371398 
L 330.452457 188.661687 
L 334.485515 185.867639 
L 340.787168 181.486422 
L 343.559895 179.828291 
L 345.82849 178.702596 
L 347.845019 177.927445 
L 349.609482 177.456989 
L 351.373945 177.209335 
L 353.64254 177.177662 
L 360.700391 177.177662 
L 360.700391 177.177662 
" clip-path="url(#pd942864488)" style="fill: none; stroke: #d673f4; stroke-opacity: 0.75; stroke-width: 3; stroke-linecap: round"/>
   </g>
   <g id="line2d_27">
    <path d="M 102.836754 47.921911 
L 108.130143 47.8158 
L 109.390474 47.42945 
L 110.650804 46.78183 
L 111.911135 45.895522 
L 113.423531 44.548675 
L 115.187994 42.636093 
L 117.204523 40.076141 
L 119.473118 36.829717 
L 122.749978 31.713711 
L 129.051631 21.802092 
L 131.572292 18.316303 
L 133.588821 15.911114 
L 135.353283 14.165199 
L 136.86568 12.984425 
L 138.126011 12.252879 
L 139.386341 11.774904 
L 140.646672 11.573078 
L 146.192126 11.567812 
L 276.510308 11.627606 
L 277.01444 11.914085 
L 277.518573 12.430606 
L 278.274771 13.620909 
L 279.030969 15.28816 
L 280.039234 18.210932 
L 281.047498 21.880451 
L 282.307829 27.429398 
L 283.820226 35.350106 
L 285.332622 44.463253 
L 287.349151 58.131815 
L 289.869812 77.006352 
L 294.154936 111.236202 
L 297.683862 138.773226 
L 299.952457 154.918042 
L 301.71692 166.126578 
L 303.229316 174.536406 
L 304.489647 180.551182 
L 305.749978 185.542423 
L 306.758242 188.7226 
L 307.766507 191.117649 
L 308.522705 192.363923 
L 309.278903 193.111659 
L 309.783035 193.321141 
L 311.547498 193.338304 
L 319.109482 193.228965 
L 319.86568 192.859285 
L 320.621878 192.240137 
L 321.630143 191.047618 
L 322.638407 189.462181 
L 323.898738 186.971875 
L 325.159069 183.969246 
L 326.671465 179.769309 
L 328.435928 174.169838 
L 330.704523 166.101999 
L 333.729316 154.356066 
L 340.283035 128.524965 
L 342.551631 120.576129 
L 344.316093 115.100726 
L 345.82849 111.029077 
L 347.088821 108.148828 
L 348.349151 105.794969 
L 349.357416 104.328817 
L 350.36568 103.264586 
L 351.121878 102.747562 
L 351.878077 102.48507 
L 352.886341 102.453058 
L 360.700391 102.453058 
L 360.700391 102.453058 
" clip-path="url(#pd942864488)" style="fill: none; stroke: #a48cf4; stroke-opacity: 0.75; stroke-width: 3; stroke-linecap: round"/>
   </g>
   <g id="line2d_28">
    <path d="M 102.836754 60.039944 
L 107.878077 59.957037 
L 108.886341 59.632872 
L 109.894606 59.078049 
L 111.154936 58.083643 
L 112.415267 56.783027 
L 113.927664 54.860483 
L 115.692126 52.184419 
L 117.708655 48.656106 
L 120.229316 43.721427 
L 124.010308 35.723921 
L 128.547498 26.209003 
L 131.068159 21.44496 
L 133.084688 18.110298 
L 134.849151 15.645347 
L 136.361548 13.93471 
L 137.621878 12.832508 
L 138.882209 12.056356 
L 139.890474 11.690424 
L 140.898738 11.567812 
L 360.700391 11.567812 
L 360.700391 11.567812 
" clip-path="url(#pd942864488)" style="fill: none; stroke: #5a9ef4; stroke-opacity: 0.75; stroke-width: 3; stroke-linecap: round"/>
   </g>
   <g id="line2d_29">
    <path d="M 102.836754 72.157976 
L 107.373945 72.192873 
L 107.878077 72.396333 
L 108.634275 73.031413 
L 109.390474 74.045742 
L 110.146672 75.420623 
L 111.154936 77.782342 
L 112.163201 80.707485 
L 113.423531 85.088714 
L 114.935928 91.294969 
L 116.700391 99.654723 
L 118.71692 110.393653 
L 121.237581 125.075349 
L 130.311961 179.182721 
L 132.32849 189.279216 
L 134.092953 196.920692 
L 135.60535 202.395285 
L 136.86568 206.085004 
L 137.873945 208.403403 
L 138.882209 210.11079 
L 139.638407 210.963693 
L 140.394606 211.429276 
L 141.150804 211.515353 
L 277.518573 211.429074 
L 279.283035 211.077566 
L 281.047498 210.48409 
L 283.064027 209.549284 
L 285.332622 208.225809 
L 287.853283 206.494955 
L 291.382209 203.778307 
L 298.692126 198.056796 
L 301.464854 196.21102 
L 303.733449 194.966343 
L 305.749978 194.117892 
L 307.51444 193.612569 
L 309.026837 193.380204 
L 310.7913 193.338304 
L 319.86568 193.434108 
L 321.630143 193.796441 
L 323.394606 194.399438 
L 325.411135 195.343523 
L 327.67973 196.6754 
L 330.452457 198.598436 
L 334.233449 201.538562 
L 340.787168 206.668979 
L 343.559895 208.533999 
L 345.82849 209.80015 
L 347.845019 210.672019 
L 349.609482 211.201175 
L 351.373945 211.479729 
L 353.390474 211.515353 
L 360.700391 211.515353 
L 360.700391 211.515353 
" clip-path="url(#pd942864488)" style="fill: none; stroke: #39a7d0; stroke-opacity: 0.75; stroke-width: 3; stroke-linecap: round"/>
   </g>
   <g id="line2d_30">
    <path d="M 102.836754 84.276009 
L 107.626011 84.221285 
L 108.382209 83.979467 
L 109.390474 83.371178 
L 110.398738 82.455658 
L 111.407002 81.254149 
L 112.667333 79.382453 
L 114.17973 76.648795 
L 115.692126 73.450895 
L 117.456589 69.228907 
L 119.725184 63.198756 
L 123.002044 53.751945 
L 128.547498 37.656102 
L 130.816093 31.711062 
L 132.832622 27.031779 
L 134.345019 24.002991 
L 135.857416 21.465868 
L 137.117746 19.7789 
L 138.126011 18.738886 
L 139.134275 17.997048 
L 140.14254 17.57463 
L 140.898738 17.480166 
L 151.989647 17.376725 
L 155.01444 17.036176 
L 158.543366 16.404188 
L 163.080556 15.344364 
L 174.927664 12.447322 
L 178.456589 11.878455 
L 181.481383 11.609817 
L 184.758242 11.567812 
L 234.415267 11.627562 
L 235.171465 11.912062 
L 235.927664 12.42107 
L 236.935928 13.430198 
L 237.944193 14.793365 
L 239.204523 16.955944 
L 240.464854 19.581134 
L 241.97725 23.27116 
L 243.741713 28.210558 
L 245.758242 34.523039 
L 248.530969 44.000599 
L 256.597085 72.116524 
L 258.613614 78.177254 
L 260.378077 82.831582 
L 261.890474 86.229132 
L 263.150804 88.576657 
L 264.411135 90.430717 
L 265.419399 91.524857 
L 266.427664 92.245212 
L 267.183862 92.524683 
L 268.192126 92.580803 
L 276.510308 92.619927 
L 277.266507 92.957837 
L 278.022705 93.629096 
L 278.778903 94.617746 
L 279.787168 96.402089 
L 280.795432 98.684492 
L 282.055763 102.180273 
L 283.316093 106.321302 
L 284.82849 112.038249 
L 286.592953 119.577615 
L 288.861548 130.335105 
L 292.138407 147.170012 
L 297.683862 175.812787 
L 299.952457 186.376529 
L 301.71692 193.710404 
L 303.229316 199.213053 
L 304.741713 203.857697 
L 306.002044 206.980717 
L 307.010308 208.93666 
L 308.018573 210.369429 
L 308.774771 211.077921 
L 309.530969 211.454894 
L 310.287168 211.515353 
L 318.857416 211.419308 
L 319.361548 211.066346 
L 319.86568 210.461512 
L 320.621878 209.099385 
L 321.378077 207.215253 
L 322.386341 203.937435 
L 323.394606 199.842886 
L 324.654936 193.673043 
L 326.167333 184.890737 
L 327.931796 173.015302 
L 329.948325 157.711991 
L 332.468986 136.73094 
L 341.795432 57.047537 
L 343.811961 42.672301 
L 345.324358 33.26611 
L 346.836754 25.277146 
L 348.097085 19.857108 
L 349.10535 16.420452 
L 350.113614 13.852127 
L 350.869812 12.533977 
L 351.373945 11.959682 
L 351.878077 11.638237 
L 352.382209 11.567812 
L 360.700391 11.567812 
L 360.700391 11.567812 
" clip-path="url(#pd942864488)" style="fill: none; stroke: #37abb8; stroke-opacity: 0.75; stroke-width: 3; stroke-linecap: round"/>
   </g>
   <g id="line2d_31">
    <path d="M 102.836754 96.394042 
L 107.626011 96.473466 
L 108.382209 96.824429 
L 109.138407 97.443552 
L 109.894606 98.31783 
L 110.90287 99.857961 
L 111.911135 101.797747 
L 113.171465 104.737526 
L 114.683862 108.941179 
L 116.448325 114.64588 
L 118.464854 122.018738 
L 120.985515 132.153318 
L 130.564027 171.771451 
L 132.580556 178.680846 
L 134.092953 183.185496 
L 135.60535 186.993909 
L 136.86568 189.56067 
L 137.873945 191.173469 
L 138.882209 192.361217 
L 139.638407 192.954541 
L 140.394606 193.278424 
L 141.150804 193.338304 
L 149.721052 193.26842 
L 150.225184 192.968547 
L 150.729316 192.439046 
L 151.485515 191.230051 
L 152.241713 189.54504 
L 153.249978 186.60004 
L 154.258242 182.909951 
L 155.518573 177.337623 
L 157.030969 169.392279 
L 158.795432 158.634015 
L 160.811961 144.755099 
L 163.332622 125.708238 
L 172.659069 53.226397 
L 174.675597 40.119519 
L 176.187994 31.532734 
L 177.700391 24.228474 
L 178.960721 19.262049 
L 179.968986 16.103592 
L 180.97725 13.731919 
L 181.733449 12.504267 
L 182.489647 11.776085 
L 182.993779 11.580157 
L 185.51444 11.567812 
L 192.320226 11.646975 
L 193.32849 12.021552 
L 194.336754 12.686425 
L 195.345019 13.622326 
L 196.60535 15.143979 
L 197.86568 17.021371 
L 199.378077 19.690827 
L 201.14254 23.297381 
L 203.159069 27.941746 
L 205.931796 34.965249 
L 214.75411 57.861063 
L 216.770639 62.279414 
L 218.535102 65.633272 
L 220.047498 68.045322 
L 221.307829 69.679435 
L 222.568159 70.93165 
L 223.576424 71.633166 
L 224.584688 72.046912 
L 225.592953 72.157976 
L 234.415267 72.260757 
L 234.919399 72.543185 
L 235.675597 73.292119 
L 236.431796 74.414785 
L 237.187994 75.892486 
L 238.196259 78.382716 
L 239.456589 82.268833 
L 240.71692 86.933416 
L 242.229316 93.436616 
L 243.993779 102.083404 
L 246.262374 114.512002 
L 249.287168 132.563885 
L 255.840887 172.121192 
L 258.109482 184.247268 
L 259.873945 192.578663 
L 261.386341 198.755742 
L 262.646672 203.109222 
L 263.907002 206.648477 
L 264.915267 208.835471 
L 265.671465 210.070727 
L 266.427664 210.938074 
L 267.183862 211.418816 
L 267.687994 211.515297 
L 276.510308 211.469511 
L 277.01444 211.249878 
L 277.770639 210.591473 
L 278.526837 209.554943 
L 279.283035 208.158985 
L 280.2913 205.770912 
L 281.299564 202.821413 
L 282.559895 198.412548 
L 284.072292 192.177251 
L 285.836754 183.789297 
L 287.853283 173.025629 
L 290.373945 158.32425 
L 299.196259 105.594022 
L 301.212788 95.367034 
L 302.97725 87.581578 
L 304.489647 81.961437 
L 305.749978 78.134819 
L 306.758242 75.696683 
L 307.766507 73.860479 
L 308.522705 72.905002 
L 309.278903 72.331738 
L 309.783035 72.171135 
L 312.051631 72.157976 
L 360.700391 72.157976 
L 360.700391 72.157976 
" clip-path="url(#pd942864488)" style="fill: none; stroke: #36ada4; stroke-opacity: 0.75; stroke-width: 3; stroke-linecap: round"/>
   </g>
   <g id="line2d_32">
    <path d="M 102.836754 108.512075 
L 107.626011 108.581571 
L 108.382209 108.888663 
L 109.138407 109.430396 
L 110.146672 110.498034 
L 111.154936 111.935602 
L 112.415267 114.211679 
L 113.675597 116.970935 
L 115.187994 120.84565 
L 116.952457 126.028178 
L 118.968986 132.647036 
L 121.741713 142.578367 
L 129.555763 171.166447 
L 131.824358 178.342242 
L 133.588821 183.203934 
L 135.101217 186.749481 
L 136.361548 189.196234 
L 137.621878 191.125088 
L 138.630143 192.259876 
L 139.386341 192.855092 
L 140.14254 193.218341 
L 140.898738 193.338304 
L 150.729316 193.42823 
L 152.493779 193.783954 
L 154.258242 194.38114 
L 156.274771 195.319561 
L 158.543366 196.646312 
L 161.316093 198.564875 
L 165.097085 201.502077 
L 171.650804 206.636108 
L 174.423531 208.505971 
L 176.692126 209.77755 
L 178.708655 210.655352 
L 180.473118 211.190555 
L 182.237581 211.475954 
L 184.25411 211.515353 
L 192.068159 211.415947 
L 192.572292 211.08174 
L 193.076424 210.518971 
L 193.832622 209.262073 
L 194.588821 207.531558 
L 195.597085 204.529618 
L 196.60535 200.786853 
L 197.86568 195.154677 
L 199.378077 187.14631 
L 201.14254 176.326647 
L 203.159069 162.393552 
L 205.67973 143.302954 
L 215.006176 70.891033 
L 217.022705 57.847247 
L 218.535102 49.318976 
L 220.047498 42.082824 
L 221.307829 37.180486 
L 222.316093 34.078095 
L 223.324358 31.766753 
L 224.080556 30.587148 
L 224.584688 30.078055 
L 225.088821 29.799241 
L 225.845019 29.744862 
L 234.163201 29.7823 
L 234.667333 30.034227 
L 235.171465 30.517261 
L 235.927664 31.659334 
L 236.683862 33.280754 
L 237.692126 36.146148 
L 238.700391 39.762554 
L 239.960721 45.251106 
L 241.221052 51.709888 
L 242.733449 60.582162 
L 244.497912 72.233201 
L 246.766507 88.793431 
L 250.043366 114.603898 
L 255.336754 156.394641 
L 257.60535 172.593861 
L 259.369812 183.859636 
L 260.882209 192.328922 
L 262.394606 199.496493 
L 263.654936 204.334352 
L 264.663201 207.380362 
L 265.419399 209.146106 
L 266.175597 210.440098 
L 266.931796 211.237952 
L 267.435928 211.482179 
L 268.444193 211.515353 
L 360.700391 211.515353 
L 360.700391 211.515353 
" clip-path="url(#pd942864488)" style="fill: none; stroke: #34af8e; stroke-opacity: 0.75; stroke-width: 3; stroke-linecap: round"/>
   </g>
   <g id="line2d_33">
    <path d="M 102.836754 120.630108 
L 107.626011 120.689676 
L 108.382209 120.952898 
L 109.138407 121.41724 
L 110.146672 122.332358 
L 111.154936 123.564559 
L 112.415267 125.515483 
L 113.675597 127.880559 
L 115.187994 131.201744 
L 116.952457 135.64391 
L 118.968986 141.317217 
L 121.741713 149.829787 
L 129.555763 174.333856 
L 131.824358 180.484537 
L 133.588821 184.651702 
L 135.101217 187.690742 
L 136.361548 189.787959 
L 137.621878 191.441261 
L 138.630143 192.413937 
L 139.638407 193.050482 
L 140.394606 193.293394 
L 141.40287 193.338304 
L 149.721052 193.26842 
L 150.225184 192.968547 
L 150.729316 192.439046 
L 151.485515 191.230051 
L 152.241713 189.54504 
L 153.249978 186.60004 
L 154.258242 182.909951 
L 155.518573 177.337623 
L 157.030969 169.392279 
L 158.795432 158.634015 
L 160.811961 144.755099 
L 163.332622 125.708238 
L 172.659069 53.226397 
L 174.675597 40.119519 
L 176.187994 31.532734 
L 177.700391 24.228474 
L 178.960721 19.262049 
L 179.968986 16.103592 
L 180.97725 13.731919 
L 181.733449 12.504267 
L 182.489647 11.776085 
L 182.993779 11.580157 
L 185.51444 11.567812 
L 192.068159 11.67716 
L 192.572292 12.044788 
L 193.076424 12.663833 
L 193.832622 14.046421 
L 194.588821 15.949987 
L 195.597085 19.252122 
L 196.60535 23.369163 
L 197.86568 29.564557 
L 199.378077 38.37376 
L 201.14254 50.275389 
L 203.159069 65.601794 
L 205.67973 86.601452 
L 215.006176 166.254565 
L 217.022705 180.60273 
L 218.535102 189.983828 
L 220.047498 197.943595 
L 221.307829 203.336167 
L 222.316093 206.748797 
L 223.072292 208.740708 
L 223.82849 210.216332 
L 224.584688 211.148841 
L 225.088821 211.455537 
L 225.845019 211.515353 
L 360.700391 211.515353 
L 360.700391 211.515353 
" clip-path="url(#pd942864488)" style="fill: none; stroke: #32b166; stroke-opacity: 0.75; stroke-width: 3; stroke-linecap: round"/>
   </g>
   <g id="line2d_34">
    <path d="M 102.836754 132.74814 
L 107.626011 132.64886 
L 108.382209 132.210157 
L 109.138407 131.436252 
L 109.894606 130.343405 
L 110.90287 128.418242 
L 111.911135 125.993509 
L 113.171465 122.318785 
L 114.683862 117.064219 
L 116.448325 109.933343 
L 118.464854 100.717271 
L 120.985515 88.049045 
L 130.564027 38.526379 
L 132.580556 29.889636 
L 134.092953 24.258823 
L 135.60535 19.498307 
L 136.86568 16.289855 
L 137.873945 14.273856 
L 138.882209 12.789172 
L 139.638407 12.047517 
L 140.394606 11.642662 
L 141.150804 11.567812 
L 192.068159 11.67716 
L 192.572292 12.044788 
L 193.076424 12.663833 
L 193.832622 14.046421 
L 194.588821 15.949987 
L 195.597085 19.252122 
L 196.60535 23.369163 
L 197.86568 29.564557 
L 199.378077 38.37376 
L 201.14254 50.275389 
L 203.159069 65.601794 
L 205.67973 86.601452 
L 215.006176 166.254565 
L 217.022705 180.60273 
L 218.535102 189.983828 
L 220.047498 197.943595 
L 221.307829 203.336167 
L 222.316093 206.748797 
L 223.072292 208.740708 
L 223.82849 210.216332 
L 224.584688 211.148841 
L 225.088821 211.455537 
L 225.845019 211.515353 
L 234.163201 211.474171 
L 234.667333 211.197052 
L 235.171465 210.665714 
L 235.927664 209.409434 
L 236.683862 207.625872 
L 237.692126 204.473939 
L 238.700391 200.495892 
L 239.960721 194.458484 
L 241.221052 187.353824 
L 242.733449 177.594323 
L 244.497912 164.778181 
L 246.766507 146.561928 
L 250.043366 118.170414 
L 255.336754 72.200597 
L 257.60535 54.381455 
L 259.369812 41.989102 
L 260.882209 32.672888 
L 262.394606 24.788559 
L 263.654936 19.466914 
L 264.663201 16.116303 
L 265.419399 14.173985 
L 266.175597 12.750593 
L 266.931796 11.872954 
L 267.435928 11.604304 
L 268.444193 11.567812 
L 318.857416 11.663858 
L 319.361548 12.01682 
L 319.86568 12.621654 
L 320.621878 13.983781 
L 321.378077 15.867913 
L 322.386341 19.145731 
L 323.394606 23.24028 
L 324.654936 29.410123 
L 326.167333 38.192429 
L 327.931796 50.067864 
L 329.948325 65.371175 
L 332.468986 86.352226 
L 341.795432 166.035629 
L 343.811961 180.410865 
L 345.324358 189.817056 
L 346.836754 197.80602 
L 348.097085 203.226058 
L 349.10535 206.662714 
L 350.113614 209.231039 
L 350.869812 210.549189 
L 351.373945 211.123484 
L 351.878077 211.444929 
L 352.382209 211.515353 
L 360.700391 211.515353 
L 360.700391 211.515353 
" clip-path="url(#pd942864488)" style="fill: none; stroke: #6cad31; stroke-opacity: 0.75; stroke-width: 3; stroke-linecap: round"/>
   </g>
   <g id="line2d_35">
    <path d="M 102.836754 144.866173 
L 107.878077 144.94908 
L 108.886341 145.273245 
L 109.894606 145.828067 
L 111.154936 146.822474 
L 112.415267 148.12309 
L 113.927664 150.045633 
L 115.692126 152.721697 
L 117.708655 156.250011 
L 120.229316 161.18469 
L 124.010308 169.182196 
L 128.547498 178.697114 
L 131.068159 183.461157 
L 133.084688 186.795818 
L 134.849151 189.26077 
L 136.361548 190.971407 
L 137.621878 192.073609 
L 138.882209 192.849761 
L 139.890474 193.215693 
L 140.898738 193.338304 
L 150.729316 193.42823 
L 152.493779 193.783954 
L 154.258242 194.38114 
L 156.274771 195.319561 
L 158.543366 196.646312 
L 161.316093 198.564875 
L 165.097085 201.502077 
L 171.650804 206.636108 
L 174.423531 208.505971 
L 176.692126 209.77755 
L 178.708655 210.655352 
L 180.473118 211.190555 
L 182.237581 211.475954 
L 184.25411 211.515353 
L 360.700391 211.515353 
L 360.700391 211.515353 
" clip-path="url(#pd942864488)" style="fill: none; stroke: #97a431; stroke-opacity: 0.75; stroke-width: 3; stroke-linecap: round"/>
   </g>
   <g id="line2d_36">
    <path d="M 102.836754 156.984206 
L 107.373945 156.947792 
L 107.878077 156.735486 
L 108.382209 156.338626 
L 109.138407 155.40994 
L 109.894606 154.098523 
L 110.90287 151.788327 
L 111.911135 148.878649 
L 113.171465 144.46898 
L 114.683862 138.1635 
L 116.196259 130.899378 
L 118.212788 119.992426 
L 120.733449 104.915941 
L 125.018573 77.541503 
L 128.799564 53.991238 
L 131.068159 41.199255 
L 132.832622 32.361937 
L 134.345019 25.768182 
L 135.60535 21.084406 
L 136.86568 17.234264 
L 137.873945 14.815065 
L 138.882209 13.033444 
L 139.638407 12.143458 
L 140.394606 11.657632 
L 140.898738 11.567812 
L 192.068159 11.67716 
L 192.572292 12.044788 
L 193.076424 12.663833 
L 193.832622 14.046421 
L 194.588821 15.949987 
L 195.597085 19.252122 
L 196.60535 23.369163 
L 197.86568 29.564557 
L 199.378077 38.37376 
L 201.14254 50.275389 
L 203.159069 65.601794 
L 205.67973 86.601452 
L 215.006176 166.254565 
L 217.022705 180.60273 
L 218.535102 189.983828 
L 220.047498 197.943595 
L 221.307829 203.336167 
L 222.316093 206.748797 
L 223.072292 208.740708 
L 223.82849 210.216332 
L 224.584688 211.148841 
L 225.088821 211.455537 
L 225.845019 211.515353 
L 276.510308 211.44958 
L 277.01444 211.134453 
L 277.518573 210.566281 
L 278.274771 209.256947 
L 279.030969 207.422971 
L 280.039234 204.207922 
L 281.047498 200.171451 
L 282.307829 194.06761 
L 283.820226 185.35483 
L 285.332622 175.330369 
L 287.349151 160.294951 
L 289.869812 139.532961 
L 294.154936 101.880125 
L 297.683862 71.589398 
L 299.952457 53.830101 
L 301.71692 41.500712 
L 303.229316 32.2499 
L 304.489647 25.633647 
L 305.749978 20.143282 
L 306.758242 16.645088 
L 307.766507 14.010533 
L 308.522705 12.639632 
L 309.026837 12.028704 
L 309.530969 11.669454 
L 310.035102 11.567812 
L 318.857416 11.655127 
L 319.361548 11.976001 
L 319.86568 12.52585 
L 320.621878 13.764147 
L 321.378077 15.476995 
L 322.386341 18.456829 
L 323.394606 22.179146 
L 324.654936 27.788094 
L 326.167333 35.772009 
L 327.931796 46.56786 
L 329.948325 60.47996 
L 332.468986 79.553643 
L 341.795432 151.9931 
L 343.811961 165.061497 
L 345.324358 173.612579 
L 346.836754 180.875274 
L 348.097085 185.802581 
L 349.10535 188.926814 
L 350.113614 191.261655 
L 350.869812 192.459973 
L 351.373945 192.982059 
L 351.878077 193.274282 
L 352.634275 193.338304 
L 360.700391 193.338304 
L 360.700391 193.338304 
" clip-path="url(#pd942864488)" style="fill: none; stroke: #b39b32; stroke-opacity: 0.75; stroke-width: 3; stroke-linecap: round"/>
   </g>
   <g id="line2d_37">
    <path d="M 102.836754 169.102239 
L 107.878077 169.174782 
L 108.886341 169.458426 
L 109.894606 169.943896 
L 111.154936 170.814002 
L 112.415267 171.952041 
L 113.927664 173.634267 
L 115.692126 175.975822 
L 117.708655 179.063097 
L 120.229316 183.380941 
L 124.010308 190.378759 
L 128.547498 198.704312 
L 131.068159 202.872849 
L 133.084688 205.790678 
L 134.849151 207.947511 
L 136.361548 209.444319 
L 137.621878 210.408745 
L 138.882209 211.087878 
L 139.890474 211.408069 
L 140.898738 211.515353 
L 277.518573 211.429074 
L 279.283035 211.077566 
L 281.047498 210.48409 
L 283.064027 209.549284 
L 285.332622 208.225809 
L 287.853283 206.494955 
L 291.382209 203.778307 
L 298.692126 198.056796 
L 301.464854 196.21102 
L 303.733449 194.966343 
L 305.749978 194.117892 
L 307.51444 193.612569 
L 309.026837 193.380204 
L 310.7913 193.338304 
L 319.86568 193.434108 
L 321.630143 193.796441 
L 323.394606 194.399438 
L 325.411135 195.343523 
L 327.67973 196.6754 
L 330.452457 198.598436 
L 334.233449 201.538562 
L 340.787168 206.668979 
L 343.559895 208.533999 
L 345.82849 209.80015 
L 347.845019 210.672019 
L 349.609482 211.201175 
L 351.373945 211.479729 
L 353.390474 211.515353 
L 360.700391 211.515353 
L 360.700391 211.515353 
" clip-path="url(#pd942864488)" style="fill: none; stroke: #ce9032; stroke-opacity: 0.75; stroke-width: 3; stroke-linecap: round"/>
   </g>
   <g id="line2d_38">
    <path d="M 102.836754 181.220272 
L 107.373945 181.177789 
L 107.878077 180.930099 
L 108.382209 180.467095 
L 109.138407 179.383628 
L 109.894606 177.853642 
L 110.90287 175.158413 
L 111.911135 171.763788 
L 113.171465 166.619175 
L 114.683862 159.262781 
L 116.196259 150.787972 
L 118.212788 138.063195 
L 120.733449 120.473963 
L 125.018573 88.537118 
L 128.799564 61.061809 
L 131.068159 46.137829 
L 132.832622 35.827624 
L 134.345019 28.13491 
L 135.60535 22.670504 
L 136.86568 18.178673 
L 137.873945 15.356274 
L 138.630143 13.724669 
L 139.386341 12.534237 
L 140.14254 11.807738 
L 140.646672 11.592387 
L 141.907002 11.567812 
L 192.068159 11.667219 
L 192.572292 12.001426 
L 193.076424 12.564195 
L 193.832622 13.821093 
L 194.588821 15.551608 
L 195.597085 18.553548 
L 196.60535 22.296313 
L 197.86568 27.928489 
L 199.378077 35.936856 
L 201.14254 46.756519 
L 203.159069 60.689614 
L 205.67973 79.780212 
L 215.006176 152.192133 
L 217.022705 165.235919 
L 218.535102 173.76419 
L 220.047498 181.000342 
L 221.307829 185.90268 
L 222.316093 189.005071 
L 223.324358 191.316413 
L 224.080556 192.496018 
L 224.584688 193.005111 
L 225.088821 193.283925 
L 225.845019 193.338304 
L 277.518573 193.424584 
L 279.283035 193.776091 
L 281.047498 194.369568 
L 283.064027 195.304373 
L 285.332622 196.627848 
L 287.853283 198.358703 
L 291.382209 201.075351 
L 298.692126 206.796861 
L 301.464854 208.642638 
L 303.733449 209.887315 
L 305.749978 210.735765 
L 307.51444 211.241088 
L 309.026837 211.473454 
L 310.7913 211.515353 
L 360.700391 211.515353 
L 360.700391 211.515353 
" clip-path="url(#pd942864488)" style="fill: none; stroke: #f77732; stroke-opacity: 0.75; stroke-width: 3; stroke-linecap: round"/>
   </g>
   <g id="line2d_39">
    <path d="M 102.836754 193.338304 
L 108.382209 193.419002 
L 109.894606 193.699015 
L 111.659069 194.253862 
L 113.675597 195.150917 
L 115.944193 196.440078 
L 118.464854 198.142935 
L 121.741713 200.638224 
L 130.059895 207.122267 
L 132.580556 208.76708 
L 134.849151 209.986278 
L 136.86568 210.807047 
L 138.630143 211.284262 
L 140.14254 211.489647 
L 142.411135 211.515353 
L 277.01444 211.440552 
L 278.022705 211.169262 
L 279.283035 210.569646 
L 280.543366 209.703347 
L 282.055763 208.346106 
L 283.568159 206.682105 
L 285.332622 204.409286 
L 287.349151 201.456606 
L 290.121878 196.954786 
L 299.700391 180.917647 
L 301.71692 178.127597 
L 303.481383 176.034528 
L 304.993779 174.552416 
L 306.506176 173.402741 
L 307.766507 172.72903 
L 309.026837 172.339836 
L 310.035102 172.249325 
L 319.361548 172.337502 
L 320.369812 172.622961 
L 321.630143 173.238992 
L 322.890474 174.120268 
L 324.40287 175.493581 
L 325.915267 177.171581 
L 327.67973 179.458112 
L 329.948325 182.815318 
L 332.721052 187.363069 
L 341.543366 202.206545 
L 343.811961 205.407003 
L 345.576424 207.536153 
L 347.088821 209.054555 
L 348.601217 210.245471 
L 349.861548 210.957333 
L 351.121878 211.388116 
L 352.130143 211.513978 
L 360.700391 211.515353 
L 360.700391 211.515353 
" clip-path="url(#pd942864488)" style="fill: none; stroke: #f77189; stroke-opacity: 0.75; stroke-width: 3; stroke-linecap: round"/>
   </g>
  </g>
  <g id="axes_2">
   <g id="matplotlib.axis_3">
    <g id="ytick_17">
     <g id="line2d_40">
      <defs>
       <path id="me112ab9d76" d="M 0 0 
L 6 0 
" style="stroke: #262626; stroke-width: 1.25"/>
      </defs>
      <g>
       <use xlink:href="#me112ab9d76" x="377.609482" y="213.333058" style="fill: #262626; stroke: #262626; stroke-width: 1.25"/>
      </g>
     </g>
     <g id="text_24">
      <!-- N/A -->
      <g transform="translate(395.698857 229.042746) rotate(-90) scale(0.12 -0.12)">
       <defs>
        <path id="ArialMT-2f" d="M 0 -78 
L 1328 4659 
L 1778 4659 
L 453 -78 
L 0 -78 
z
" transform="scale(0.015625)"/>
       </defs>
       <use xlink:href="#ArialMT-4e"/>
       <use xlink:href="#ArialMT-2f" x="72.216797"/>
       <use xlink:href="#ArialMT-41" x="100"/>
      </g>
     </g>
    </g>
    <g id="ytick_18">
     <g id="line2d_41">
      <g>
       <use xlink:href="#me112ab9d76" x="377.609482" y="164.860927" style="fill: #262626; stroke: #262626; stroke-width: 1.25"/>
      </g>
     </g>
     <g id="text_25">
      <!-- Low -->
      <g transform="translate(395.698857 182.57874) rotate(-90) scale(0.12 -0.12)">
       <defs>
        <path id="ArialMT-77" d="M 1034 0 
L 19 3319 
L 600 3319 
L 1128 1403 
L 1325 691 
Q 1338 744 1497 1375 
L 2025 3319 
L 2603 3319 
L 3100 1394 
L 3266 759 
L 3456 1400 
L 4025 3319 
L 4572 3319 
L 3534 0 
L 2950 0 
L 2422 1988 
L 2294 2553 
L 1622 0 
L 1034 0 
z
" transform="scale(0.015625)"/>
       </defs>
       <use xlink:href="#ArialMT-4c"/>
       <use xlink:href="#ArialMT-6f" x="55.615234"/>
       <use xlink:href="#ArialMT-77" x="111.230469"/>
      </g>
     </g>
    </g>
    <g id="ytick_19">
     <g id="line2d_42">
      <g>
       <use xlink:href="#me112ab9d76" x="377.609482" y="102.453058" style="fill: #262626; stroke: #262626; stroke-width: 1.25"/>
      </g>
     </g>
     <g id="text_26">
      <!-- Med -->
      <g transform="translate(395.698857 121.500246) rotate(-90) scale(0.12 -0.12)">
       <defs>
        <path id="ArialMT-4d" d="M 475 0 
L 475 4581 
L 1388 4581 
L 2472 1338 
Q 2622 884 2691 659 
Q 2769 909 2934 1394 
L 4031 4581 
L 4847 4581 
L 4847 0 
L 4263 0 
L 4263 3834 
L 2931 0 
L 2384 0 
L 1059 3900 
L 1059 0 
L 475 0 
z
" transform="scale(0.015625)"/>
       </defs>
       <use xlink:href="#ArialMT-4d"/>
       <use xlink:href="#ArialMT-65" x="83.300781"/>
       <use xlink:href="#ArialMT-64" x="138.916016"/>
      </g>
     </g>
    </g>
    <g id="ytick_20">
     <g id="line2d_43">
      <g>
       <use xlink:href="#me112ab9d76" x="377.609482" y="40.04519" style="fill: #262626; stroke: #262626; stroke-width: 1.25"/>
      </g>
     </g>
     <g id="text_27">
      <!-- High -->
      <g transform="translate(395.698857 60.429252) rotate(-90) scale(0.12 -0.12)">
       <use xlink:href="#ArialMT-48"/>
       <use xlink:href="#ArialMT-69" x="72.216797"/>
       <use xlink:href="#ArialMT-67" x="94.433594"/>
       <use xlink:href="#ArialMT-68" x="150.048828"/>
      </g>
     </g>
    </g>
    <g id="text_28">
     <!-- Relative Feature Value -->
     <g transform="translate(412.961201 194.547168) rotate(-90) scale(0.15 -0.15)">
      <defs>
       <path id="ArialMT-76" d="M 1344 0 
L 81 3319 
L 675 3319 
L 1388 1331 
Q 1503 1009 1600 663 
Q 1675 925 1809 1294 
L 2547 3319 
L 3125 3319 
L 1869 0 
L 1344 0 
z
" transform="scale(0.015625)"/>
       <path id="ArialMT-20" transform="scale(0.015625)"/>
       <path id="ArialMT-56" d="M 1803 0 
L 28 4581 
L 684 4581 
L 1875 1253 
Q 2019 853 2116 503 
Q 2222 878 2363 1253 
L 3600 4581 
L 4219 4581 
L 2425 0 
L 1803 0 
z
" transform="scale(0.015625)"/>
      </defs>
      <use xlink:href="#ArialMT-52"/>
      <use xlink:href="#ArialMT-65" x="72.216797"/>
      <use xlink:href="#ArialMT-6c" x="127.832031"/>
      <use xlink:href="#ArialMT-61" x="150.048828"/>
      <use xlink:href="#ArialMT-74" x="205.664062"/>
      <use xlink:href="#ArialMT-69" x="233.447266"/>
      <use xlink:href="#ArialMT-76" x="255.664062"/>
      <use xlink:href="#ArialMT-65" x="305.664062"/>
      <use xlink:href="#ArialMT-20" x="361.279297"/>
      <use xlink:href="#ArialMT-46" x="389.0625"/>
      <use xlink:href="#ArialMT-65" x="450.146484"/>
      <use xlink:href="#ArialMT-61" x="505.761719"/>
      <use xlink:href="#ArialMT-74" x="561.376953"/>
      <use xlink:href="#ArialMT-75" x="589.160156"/>
      <use xlink:href="#ArialMT-72" x="644.775391"/>
      <use xlink:href="#ArialMT-65" x="678.076172"/>
      <use xlink:href="#ArialMT-20" x="733.691406"/>
      <use xlink:href="#ArialMT-56" x="761.474609"/>
      <use xlink:href="#ArialMT-61" x="820.798828"/>
      <use xlink:href="#ArialMT-6c" x="876.414062"/>
      <use xlink:href="#ArialMT-75" x="898.630859"/>
      <use xlink:href="#ArialMT-65" x="954.246094"/>
     </g>
    </g>
   </g>
   <g id="patch_3">
    <path d="M 98.609482 229.692403 
L 98.609482 196.973714 
L 377.609482 196.973714 
L 377.609482 229.692403 
z
" clip-path="url(#pd942864488)" style="fill: #f08080; opacity: 0.25; stroke: #ffffff; stroke-linejoin: miter"/>
   </g>
   <g id="patch_4">
    <path d="M 98.609482 196.973714 
L 98.609482 132.74814 
L 377.609482 132.74814 
L 377.609482 196.973714 
z
" clip-path="url(#pd942864488)" style="fill: #ebf3ed; opacity: 0.25; stroke: #ffffff; stroke-linejoin: miter"/>
   </g>
   <g id="patch_5">
    <path d="M 98.609482 132.74814 
L 98.609482 72.157976 
L 377.609482 72.157976 
L 377.609482 132.74814 
z
" clip-path="url(#pd942864488)" style="fill: #acd0bb; opacity: 0.25; stroke: #ffffff; stroke-linejoin: miter"/>
   </g>
   <g id="patch_6">
    <path d="M 98.609482 72.157976 
L 98.609482 7.932403 
L 377.609482 7.932403 
L 377.609482 72.157976 
z
" clip-path="url(#pd942864488)" style="fill: #6dae89; opacity: 0.25; stroke: #ffffff; stroke-linejoin: miter"/>
   </g>
   <g id="patch_7">
    <path d="M 98.609482 229.692403 
L 98.609482 7.932403 
" style="fill: none; stroke: #262626; stroke-width: 1.25; stroke-linejoin: miter; stroke-linecap: square"/>
   </g>
   <g id="patch_8">
    <path d="M 377.609482 229.692403 
L 377.609482 7.932403 
" style="fill: none; stroke: #262626; stroke-width: 1.25; stroke-linejoin: miter; stroke-linecap: square"/>
   </g>
   <g id="patch_9">
    <path d="M 98.609482 229.692403 
L 377.609482 229.692403 
" style="fill: none; stroke: #262626; stroke-width: 1.25; stroke-linejoin: miter; stroke-linecap: square"/>
   </g>
   <g id="patch_10">
    <path d="M 98.609482 7.932403 
L 377.609482 7.932403 
" style="fill: none; stroke: #262626; stroke-width: 1.25; stroke-linejoin: miter; stroke-linecap: square"/>
   </g>
  </g>
 </g>
 <defs>
  <clipPath id="pd942864488">
   <rect x="98.609482" y="7.932403" width="279" height="221.76"/>
  </clipPath>
 </defs>
</svg>
