<?xml version="1.0" encoding="utf-8" standalone="no"?>
<!DOCTYPE svg PUBLIC "-//W3C//DTD SVG 1.1//EN"
  "http://www.w3.org/Graphics/SVG/1.1/DTD/svg11.dtd">
<svg xmlns:xlink="http://www.w3.org/1999/xlink" width="414.46375pt" height="374.885235pt" viewBox="0 0 414.46375 374.885235" xmlns="http://www.w3.org/2000/svg" version="1.1">
 <metadata>
  <rdf:RDF xmlns:dc="http://purl.org/dc/elements/1.1/" xmlns:cc="http://creativecommons.org/ns#" xmlns:rdf="http://www.w3.org/1999/02/22-rdf-syntax-ns#">
   <cc:Work>
    <dc:type rdf:resource="http://purl.org/dc/dcmitype/StillImage"/>
    <dc:date>2024-04-09T14:18:51.083418</dc:date>
    <dc:format>image/svg+xml</dc:format>
    <dc:creator>
     <cc:Agent>
      <dc:title>Matplotlib v3.6.3, https://matplotlib.org/</dc:title>
     </cc:Agent>
    </dc:creator>
   </cc:Work>
  </rdf:RDF>
 </metadata>
 <defs>
  <style type="text/css">*{stroke-linejoin: round; stroke-linecap: butt}</style>
 </defs>
 <g id="figure_1">
  <g id="patch_1">
   <path d="M 0 374.885235 
L 414.46375 374.885235 
L 414.46375 0 
L 0 0 
L 0 374.885235 
z
" style="fill: none"/>
  </g>
  <g id="axes_1">
   <g id="patch_2">
    <path d="M 50.14375 273.384036 
L 407.26375 273.384036 
L 407.26375 7.272036 
L 50.14375 7.272036 
L 50.14375 273.384036 
z
" style="fill: none"/>
   </g>
   <g id="patch_3">
    <path d="M 66.376477 273.384036 
L 99.674379 273.384036 
L 99.674379 238.392181 
L 66.376477 238.392181 
z
" clip-path="url(#p3dc3f84e32)" style="fill: #e68193"/>
   </g>
   <g id="patch_4">
    <path d="M 107.998855 273.384036 
L 141.296757 273.384036 
L 141.296757 238.813931 
L 107.998855 238.813931 
z
" clip-path="url(#p3dc3f84e32)" style="fill: #bb8c45"/>
   </g>
   <g id="patch_5">
    <path d="M 149.621233 273.384036 
L 182.919135 273.384036 
L 182.919135 208.915016 
L 149.621233 208.915016 
z
" clip-path="url(#p3dc3f84e32)" style="fill: #8c9540"/>
   </g>
   <g id="patch_6">
    <path d="M 191.24361 273.384036 
L 224.541512 273.384036 
L 224.541512 228.154715 
L 191.24361 228.154715 
z
" clip-path="url(#p3dc3f84e32)" style="fill: #42a269"/>
   </g>
   <g id="patch_7">
    <path d="M 232.865988 273.384036 
L 266.16389 273.384036 
L 266.16389 237.093406 
L 232.865988 237.093406 
z
" clip-path="url(#p3dc3f84e32)" style="fill: #459e97"/>
   </g>
   <g id="patch_8">
    <path d="M 274.488365 273.384036 
L 307.786267 273.384036 
L 307.786267 237.541069 
L 274.488365 237.541069 
z
" clip-path="url(#p3dc3f84e32)" style="fill: #4c9fbd"/>
   </g>
   <g id="patch_9">
    <path d="M 316.110743 273.384036 
L 349.408645 273.384036 
L 349.408645 210.738833 
L 316.110743 210.738833 
z
" clip-path="url(#p3dc3f84e32)" style="fill: #ab99e7"/>
   </g>
   <g id="patch_10">
    <path d="M 357.733121 273.384036 
L 391.031023 273.384036 
L 391.031023 238.554281 
L 357.733121 238.554281 
z
" clip-path="url(#p3dc3f84e32)" style="fill: #e274d1"/>
   </g>
   <g id="matplotlib.axis_1">
    <g id="xtick_1">
     <g id="line2d_1">
      <defs>
       <path id="maa122ca84b" d="M 0 0 
L 0 3.5 
" style="stroke: #000000; stroke-width: 0.8"/>
      </defs>
      <g>
       <use xlink:href="#maa122ca84b" x="83.025428" y="273.384036" style="stroke: #000000; stroke-width: 0.8"/>
      </g>
     </g>
     <g id="text_1">
      <!-- No Shuffle -->
      <g transform="translate(44.945518 322.366292) rotate(-45) scale(0.1 -0.1)">
       <defs>
        <path id="DejaVuSans-4e" d="M 628 4666 
L 1478 4666 
L 3547 763 
L 3547 4666 
L 4159 4666 
L 4159 0 
L 3309 0 
L 1241 3903 
L 1241 0 
L 628 0 
L 628 4666 
z
" transform="scale(0.015625)"/>
        <path id="DejaVuSans-6f" d="M 1959 3097 
Q 1497 3097 1228 2736 
Q 959 2375 959 1747 
Q 959 1119 1226 758 
Q 1494 397 1959 397 
Q 2419 397 2687 759 
Q 2956 1122 2956 1747 
Q 2956 2369 2687 2733 
Q 2419 3097 1959 3097 
z
M 1959 3584 
Q 2709 3584 3137 3096 
Q 3566 2609 3566 1747 
Q 3566 888 3137 398 
Q 2709 -91 1959 -91 
Q 1206 -91 779 398 
Q 353 888 353 1747 
Q 353 2609 779 3096 
Q 1206 3584 1959 3584 
z
" transform="scale(0.015625)"/>
        <path id="DejaVuSans-20" transform="scale(0.015625)"/>
        <path id="DejaVuSans-53" d="M 3425 4513 
L 3425 3897 
Q 3066 4069 2747 4153 
Q 2428 4238 2131 4238 
Q 1616 4238 1336 4038 
Q 1056 3838 1056 3469 
Q 1056 3159 1242 3001 
Q 1428 2844 1947 2747 
L 2328 2669 
Q 3034 2534 3370 2195 
Q 3706 1856 3706 1288 
Q 3706 609 3251 259 
Q 2797 -91 1919 -91 
Q 1588 -91 1214 -16 
Q 841 59 441 206 
L 441 856 
Q 825 641 1194 531 
Q 1563 422 1919 422 
Q 2459 422 2753 634 
Q 3047 847 3047 1241 
Q 3047 1584 2836 1778 
Q 2625 1972 2144 2069 
L 1759 2144 
Q 1053 2284 737 2584 
Q 422 2884 422 3419 
Q 422 4038 858 4394 
Q 1294 4750 2059 4750 
Q 2388 4750 2728 4690 
Q 3069 4631 3425 4513 
z
" transform="scale(0.015625)"/>
        <path id="DejaVuSans-68" d="M 3513 2113 
L 3513 0 
L 2938 0 
L 2938 2094 
Q 2938 2591 2744 2837 
Q 2550 3084 2163 3084 
Q 1697 3084 1428 2787 
Q 1159 2491 1159 1978 
L 1159 0 
L 581 0 
L 581 4863 
L 1159 4863 
L 1159 2956 
Q 1366 3272 1645 3428 
Q 1925 3584 2291 3584 
Q 2894 3584 3203 3211 
Q 3513 2838 3513 2113 
z
" transform="scale(0.015625)"/>
        <path id="DejaVuSans-75" d="M 544 1381 
L 544 3500 
L 1119 3500 
L 1119 1403 
Q 1119 906 1312 657 
Q 1506 409 1894 409 
Q 2359 409 2629 706 
Q 2900 1003 2900 1516 
L 2900 3500 
L 3475 3500 
L 3475 0 
L 2900 0 
L 2900 538 
Q 2691 219 2414 64 
Q 2138 -91 1772 -91 
Q 1169 -91 856 284 
Q 544 659 544 1381 
z
M 1991 3584 
L 1991 3584 
z
" transform="scale(0.015625)"/>
        <path id="DejaVuSans-66" d="M 2375 4863 
L 2375 4384 
L 1825 4384 
Q 1516 4384 1395 4259 
Q 1275 4134 1275 3809 
L 1275 3500 
L 2222 3500 
L 2222 3053 
L 1275 3053 
L 1275 0 
L 697 0 
L 697 3053 
L 147 3053 
L 147 3500 
L 697 3500 
L 697 3744 
Q 697 4328 969 4595 
Q 1241 4863 1831 4863 
L 2375 4863 
z
" transform="scale(0.015625)"/>
        <path id="DejaVuSans-6c" d="M 603 4863 
L 1178 4863 
L 1178 0 
L 603 0 
L 603 4863 
z
" transform="scale(0.015625)"/>
        <path id="DejaVuSans-65" d="M 3597 1894 
L 3597 1613 
L 953 1613 
Q 991 1019 1311 708 
Q 1631 397 2203 397 
Q 2534 397 2845 478 
Q 3156 559 3463 722 
L 3463 178 
Q 3153 47 2828 -22 
Q 2503 -91 2169 -91 
Q 1331 -91 842 396 
Q 353 884 353 1716 
Q 353 2575 817 3079 
Q 1281 3584 2069 3584 
Q 2775 3584 3186 3129 
Q 3597 2675 3597 1894 
z
M 3022 2063 
Q 3016 2534 2758 2815 
Q 2500 3097 2075 3097 
Q 1594 3097 1305 2825 
Q 1016 2553 972 2059 
L 3022 2063 
z
" transform="scale(0.015625)"/>
       </defs>
       <use xlink:href="#DejaVuSans-4e"/>
       <use xlink:href="#DejaVuSans-6f" x="74.804688"/>
       <use xlink:href="#DejaVuSans-20" x="135.986328"/>
       <use xlink:href="#DejaVuSans-53" x="167.773438"/>
       <use xlink:href="#DejaVuSans-68" x="231.25"/>
       <use xlink:href="#DejaVuSans-75" x="294.628906"/>
       <use xlink:href="#DejaVuSans-66" x="358.007812"/>
       <use xlink:href="#DejaVuSans-66" x="393.212891"/>
       <use xlink:href="#DejaVuSans-6c" x="428.417969"/>
       <use xlink:href="#DejaVuSans-65" x="456.201172"/>
      </g>
     </g>
    </g>
    <g id="xtick_2">
     <g id="line2d_2">
      <g>
       <use xlink:href="#maa122ca84b" x="124.647806" y="273.384036" style="stroke: #000000; stroke-width: 0.8"/>
      </g>
     </g>
     <g id="text_2">
      <!-- P_charged_centers -->
      <g transform="translate(56.397638 352.339885) rotate(-45) scale(0.1 -0.1)">
       <defs>
        <path id="DejaVuSans-50" d="M 1259 4147 
L 1259 2394 
L 2053 2394 
Q 2494 2394 2734 2622 
Q 2975 2850 2975 3272 
Q 2975 3691 2734 3919 
Q 2494 4147 2053 4147 
L 1259 4147 
z
M 628 4666 
L 2053 4666 
Q 2838 4666 3239 4311 
Q 3641 3956 3641 3272 
Q 3641 2581 3239 2228 
Q 2838 1875 2053 1875 
L 1259 1875 
L 1259 0 
L 628 0 
L 628 4666 
z
" transform="scale(0.015625)"/>
        <path id="DejaVuSans-5f" d="M 3263 -1063 
L 3263 -1509 
L -63 -1509 
L -63 -1063 
L 3263 -1063 
z
" transform="scale(0.015625)"/>
        <path id="DejaVuSans-63" d="M 3122 3366 
L 3122 2828 
Q 2878 2963 2633 3030 
Q 2388 3097 2138 3097 
Q 1578 3097 1268 2742 
Q 959 2388 959 1747 
Q 959 1106 1268 751 
Q 1578 397 2138 397 
Q 2388 397 2633 464 
Q 2878 531 3122 666 
L 3122 134 
Q 2881 22 2623 -34 
Q 2366 -91 2075 -91 
Q 1284 -91 818 406 
Q 353 903 353 1747 
Q 353 2603 823 3093 
Q 1294 3584 2113 3584 
Q 2378 3584 2631 3529 
Q 2884 3475 3122 3366 
z
" transform="scale(0.015625)"/>
        <path id="DejaVuSans-61" d="M 2194 1759 
Q 1497 1759 1228 1600 
Q 959 1441 959 1056 
Q 959 750 1161 570 
Q 1363 391 1709 391 
Q 2188 391 2477 730 
Q 2766 1069 2766 1631 
L 2766 1759 
L 2194 1759 
z
M 3341 1997 
L 3341 0 
L 2766 0 
L 2766 531 
Q 2569 213 2275 61 
Q 1981 -91 1556 -91 
Q 1019 -91 701 211 
Q 384 513 384 1019 
Q 384 1609 779 1909 
Q 1175 2209 1959 2209 
L 2766 2209 
L 2766 2266 
Q 2766 2663 2505 2880 
Q 2244 3097 1772 3097 
Q 1472 3097 1187 3025 
Q 903 2953 641 2809 
L 641 3341 
Q 956 3463 1253 3523 
Q 1550 3584 1831 3584 
Q 2591 3584 2966 3190 
Q 3341 2797 3341 1997 
z
" transform="scale(0.015625)"/>
        <path id="DejaVuSans-72" d="M 2631 2963 
Q 2534 3019 2420 3045 
Q 2306 3072 2169 3072 
Q 1681 3072 1420 2755 
Q 1159 2438 1159 1844 
L 1159 0 
L 581 0 
L 581 3500 
L 1159 3500 
L 1159 2956 
Q 1341 3275 1631 3429 
Q 1922 3584 2338 3584 
Q 2397 3584 2469 3576 
Q 2541 3569 2628 3553 
L 2631 2963 
z
" transform="scale(0.015625)"/>
        <path id="DejaVuSans-67" d="M 2906 1791 
Q 2906 2416 2648 2759 
Q 2391 3103 1925 3103 
Q 1463 3103 1205 2759 
Q 947 2416 947 1791 
Q 947 1169 1205 825 
Q 1463 481 1925 481 
Q 2391 481 2648 825 
Q 2906 1169 2906 1791 
z
M 3481 434 
Q 3481 -459 3084 -895 
Q 2688 -1331 1869 -1331 
Q 1566 -1331 1297 -1286 
Q 1028 -1241 775 -1147 
L 775 -588 
Q 1028 -725 1275 -790 
Q 1522 -856 1778 -856 
Q 2344 -856 2625 -561 
Q 2906 -266 2906 331 
L 2906 616 
Q 2728 306 2450 153 
Q 2172 0 1784 0 
Q 1141 0 747 490 
Q 353 981 353 1791 
Q 353 2603 747 3093 
Q 1141 3584 1784 3584 
Q 2172 3584 2450 3431 
Q 2728 3278 2906 2969 
L 2906 3500 
L 3481 3500 
L 3481 434 
z
" transform="scale(0.015625)"/>
        <path id="DejaVuSans-64" d="M 2906 2969 
L 2906 4863 
L 3481 4863 
L 3481 0 
L 2906 0 
L 2906 525 
Q 2725 213 2448 61 
Q 2172 -91 1784 -91 
Q 1150 -91 751 415 
Q 353 922 353 1747 
Q 353 2572 751 3078 
Q 1150 3584 1784 3584 
Q 2172 3584 2448 3432 
Q 2725 3281 2906 2969 
z
M 947 1747 
Q 947 1113 1208 752 
Q 1469 391 1925 391 
Q 2381 391 2643 752 
Q 2906 1113 2906 1747 
Q 2906 2381 2643 2742 
Q 2381 3103 1925 3103 
Q 1469 3103 1208 2742 
Q 947 2381 947 1747 
z
" transform="scale(0.015625)"/>
        <path id="DejaVuSans-6e" d="M 3513 2113 
L 3513 0 
L 2938 0 
L 2938 2094 
Q 2938 2591 2744 2837 
Q 2550 3084 2163 3084 
Q 1697 3084 1428 2787 
Q 1159 2491 1159 1978 
L 1159 0 
L 581 0 
L 581 3500 
L 1159 3500 
L 1159 2956 
Q 1366 3272 1645 3428 
Q 1925 3584 2291 3584 
Q 2894 3584 3203 3211 
Q 3513 2838 3513 2113 
z
" transform="scale(0.015625)"/>
        <path id="DejaVuSans-74" d="M 1172 4494 
L 1172 3500 
L 2356 3500 
L 2356 3053 
L 1172 3053 
L 1172 1153 
Q 1172 725 1289 603 
Q 1406 481 1766 481 
L 2356 481 
L 2356 0 
L 1766 0 
Q 1100 0 847 248 
Q 594 497 594 1153 
L 594 3053 
L 172 3053 
L 172 3500 
L 594 3500 
L 594 4494 
L 1172 4494 
z
" transform="scale(0.015625)"/>
        <path id="DejaVuSans-73" d="M 2834 3397 
L 2834 2853 
Q 2591 2978 2328 3040 
Q 2066 3103 1784 3103 
Q 1356 3103 1142 2972 
Q 928 2841 928 2578 
Q 928 2378 1081 2264 
Q 1234 2150 1697 2047 
L 1894 2003 
Q 2506 1872 2764 1633 
Q 3022 1394 3022 966 
Q 3022 478 2636 193 
Q 2250 -91 1575 -91 
Q 1294 -91 989 -36 
Q 684 19 347 128 
L 347 722 
Q 666 556 975 473 
Q 1284 391 1588 391 
Q 1994 391 2212 530 
Q 2431 669 2431 922 
Q 2431 1156 2273 1281 
Q 2116 1406 1581 1522 
L 1381 1569 
Q 847 1681 609 1914 
Q 372 2147 372 2553 
Q 372 3047 722 3315 
Q 1072 3584 1716 3584 
Q 2034 3584 2315 3537 
Q 2597 3491 2834 3397 
z
" transform="scale(0.015625)"/>
       </defs>
       <use xlink:href="#DejaVuSans-50"/>
       <use xlink:href="#DejaVuSans-5f" x="60.302734"/>
       <use xlink:href="#DejaVuSans-63" x="110.302734"/>
       <use xlink:href="#DejaVuSans-68" x="165.283203"/>
       <use xlink:href="#DejaVuSans-61" x="228.662109"/>
       <use xlink:href="#DejaVuSans-72" x="289.941406"/>
       <use xlink:href="#DejaVuSans-67" x="329.304688"/>
       <use xlink:href="#DejaVuSans-65" x="392.78125"/>
       <use xlink:href="#DejaVuSans-64" x="454.304688"/>
       <use xlink:href="#DejaVuSans-5f" x="517.78125"/>
       <use xlink:href="#DejaVuSans-63" x="567.78125"/>
       <use xlink:href="#DejaVuSans-65" x="622.761719"/>
       <use xlink:href="#DejaVuSans-6e" x="684.285156"/>
       <use xlink:href="#DejaVuSans-74" x="747.664062"/>
       <use xlink:href="#DejaVuSans-65" x="786.873047"/>
       <use xlink:href="#DejaVuSans-72" x="848.396484"/>
       <use xlink:href="#DejaVuSans-73" x="889.509766"/>
      </g>
     </g>
    </g>
    <g id="xtick_3">
     <g id="line2d_3">
      <g>
       <use xlink:href="#maa122ca84b" x="166.270184" y="273.384036" style="stroke: #000000; stroke-width: 0.8"/>
      </g>
     </g>
     <g id="text_3">
      <!-- HL_(IL+HL) -->
      <g transform="translate(125.083423 325.268744) rotate(-45) scale(0.1 -0.1)">
       <defs>
        <path id="DejaVuSans-48" d="M 628 4666 
L 1259 4666 
L 1259 2753 
L 3553 2753 
L 3553 4666 
L 4184 4666 
L 4184 0 
L 3553 0 
L 3553 2222 
L 1259 2222 
L 1259 0 
L 628 0 
L 628 4666 
z
" transform="scale(0.015625)"/>
        <path id="DejaVuSans-4c" d="M 628 4666 
L 1259 4666 
L 1259 531 
L 3531 531 
L 3531 0 
L 628 0 
L 628 4666 
z
" transform="scale(0.015625)"/>
        <path id="DejaVuSans-28" d="M 1984 4856 
Q 1566 4138 1362 3434 
Q 1159 2731 1159 2009 
Q 1159 1288 1364 580 
Q 1569 -128 1984 -844 
L 1484 -844 
Q 1016 -109 783 600 
Q 550 1309 550 2009 
Q 550 2706 781 3412 
Q 1013 4119 1484 4856 
L 1984 4856 
z
" transform="scale(0.015625)"/>
        <path id="DejaVuSans-49" d="M 628 4666 
L 1259 4666 
L 1259 0 
L 628 0 
L 628 4666 
z
" transform="scale(0.015625)"/>
        <path id="DejaVuSans-2b" d="M 2944 4013 
L 2944 2272 
L 4684 2272 
L 4684 1741 
L 2944 1741 
L 2944 0 
L 2419 0 
L 2419 1741 
L 678 1741 
L 678 2272 
L 2419 2272 
L 2419 4013 
L 2944 4013 
z
" transform="scale(0.015625)"/>
        <path id="DejaVuSans-29" d="M 513 4856 
L 1013 4856 
Q 1481 4119 1714 3412 
Q 1947 2706 1947 2009 
Q 1947 1309 1714 600 
Q 1481 -109 1013 -844 
L 513 -844 
Q 928 -128 1133 580 
Q 1338 1288 1338 2009 
Q 1338 2731 1133 3434 
Q 928 4138 513 4856 
z
" transform="scale(0.015625)"/>
       </defs>
       <use xlink:href="#DejaVuSans-48"/>
       <use xlink:href="#DejaVuSans-4c" x="75.195312"/>
       <use xlink:href="#DejaVuSans-5f" x="130.908203"/>
       <use xlink:href="#DejaVuSans-28" x="180.908203"/>
       <use xlink:href="#DejaVuSans-49" x="219.921875"/>
       <use xlink:href="#DejaVuSans-4c" x="249.414062"/>
       <use xlink:href="#DejaVuSans-2b" x="305.126953"/>
       <use xlink:href="#DejaVuSans-48" x="388.916016"/>
       <use xlink:href="#DejaVuSans-4c" x="464.111328"/>
       <use xlink:href="#DejaVuSans-29" x="519.824219"/>
      </g>
     </g>
    </g>
    <g id="xtick_4">
     <g id="line2d_4">
      <g>
       <use xlink:href="#maa122ca84b" x="207.892561" y="273.384036" style="stroke: #000000; stroke-width: 0.8"/>
      </g>
     </g>
     <g id="text_4">
      <!-- Hbond_A -->
      <g transform="translate(174.749141 317.233138) rotate(-45) scale(0.1 -0.1)">
       <defs>
        <path id="DejaVuSans-62" d="M 3116 1747 
Q 3116 2381 2855 2742 
Q 2594 3103 2138 3103 
Q 1681 3103 1420 2742 
Q 1159 2381 1159 1747 
Q 1159 1113 1420 752 
Q 1681 391 2138 391 
Q 2594 391 2855 752 
Q 3116 1113 3116 1747 
z
M 1159 2969 
Q 1341 3281 1617 3432 
Q 1894 3584 2278 3584 
Q 2916 3584 3314 3078 
Q 3713 2572 3713 1747 
Q 3713 922 3314 415 
Q 2916 -91 2278 -91 
Q 1894 -91 1617 61 
Q 1341 213 1159 525 
L 1159 0 
L 581 0 
L 581 4863 
L 1159 4863 
L 1159 2969 
z
" transform="scale(0.015625)"/>
        <path id="DejaVuSans-41" d="M 2188 4044 
L 1331 1722 
L 3047 1722 
L 2188 4044 
z
M 1831 4666 
L 2547 4666 
L 4325 0 
L 3669 0 
L 3244 1197 
L 1141 1197 
L 716 0 
L 50 0 
L 1831 4666 
z
" transform="scale(0.015625)"/>
       </defs>
       <use xlink:href="#DejaVuSans-48"/>
       <use xlink:href="#DejaVuSans-62" x="75.195312"/>
       <use xlink:href="#DejaVuSans-6f" x="138.671875"/>
       <use xlink:href="#DejaVuSans-6e" x="199.853516"/>
       <use xlink:href="#DejaVuSans-64" x="263.232422"/>
       <use xlink:href="#DejaVuSans-5f" x="326.708984"/>
       <use xlink:href="#DejaVuSans-41" x="376.708984"/>
      </g>
     </g>
    </g>
    <g id="xtick_5">
     <g id="line2d_5">
      <g>
       <use xlink:href="#maa122ca84b" x="249.514939" y="273.384036" style="stroke: #000000; stroke-width: 0.8"/>
      </g>
     </g>
     <g id="text_5">
      <!-- Hbond_D -->
      <g transform="translate(215.763848 317.840808) rotate(-45) scale(0.1 -0.1)">
       <defs>
        <path id="DejaVuSans-44" d="M 1259 4147 
L 1259 519 
L 2022 519 
Q 2988 519 3436 956 
Q 3884 1394 3884 2338 
Q 3884 3275 3436 3711 
Q 2988 4147 2022 4147 
L 1259 4147 
z
M 628 4666 
L 1925 4666 
Q 3281 4666 3915 4102 
Q 4550 3538 4550 2338 
Q 4550 1131 3912 565 
Q 3275 0 1925 0 
L 628 0 
L 628 4666 
z
" transform="scale(0.015625)"/>
       </defs>
       <use xlink:href="#DejaVuSans-48"/>
       <use xlink:href="#DejaVuSans-62" x="75.195312"/>
       <use xlink:href="#DejaVuSans-6f" x="138.671875"/>
       <use xlink:href="#DejaVuSans-6e" x="199.853516"/>
       <use xlink:href="#DejaVuSans-64" x="263.232422"/>
       <use xlink:href="#DejaVuSans-5f" x="326.708984"/>
       <use xlink:href="#DejaVuSans-44" x="376.708984"/>
      </g>
     </g>
    </g>
    <g id="xtick_6">
     <g id="line2d_6">
      <g>
       <use xlink:href="#maa122ca84b" x="291.137316" y="273.384036" style="stroke: #000000; stroke-width: 0.8"/>
      </g>
     </g>
     <g id="text_6">
      <!-- Double_bonds -->
      <g transform="translate(239.408036 335.818998) rotate(-45) scale(0.1 -0.1)">
       <use xlink:href="#DejaVuSans-44"/>
       <use xlink:href="#DejaVuSans-6f" x="77.001953"/>
       <use xlink:href="#DejaVuSans-75" x="138.183594"/>
       <use xlink:href="#DejaVuSans-62" x="201.5625"/>
       <use xlink:href="#DejaVuSans-6c" x="265.039062"/>
       <use xlink:href="#DejaVuSans-65" x="292.822266"/>
       <use xlink:href="#DejaVuSans-5f" x="354.345703"/>
       <use xlink:href="#DejaVuSans-62" x="404.345703"/>
       <use xlink:href="#DejaVuSans-6f" x="467.822266"/>
       <use xlink:href="#DejaVuSans-6e" x="529.003906"/>
       <use xlink:href="#DejaVuSans-64" x="592.382812"/>
       <use xlink:href="#DejaVuSans-73" x="655.859375"/>
      </g>
     </g>
    </g>
    <g id="xtick_7">
     <g id="line2d_7">
      <g>
       <use xlink:href="#maa122ca84b" x="332.759694" y="273.384036" style="stroke: #000000; stroke-width: 0.8"/>
      </g>
     </g>
     <g id="text_7">
      <!-- (IL+HL) -->
      <g transform="translate(304.562706 312.48337) rotate(-45) scale(0.1 -0.1)">
       <use xlink:href="#DejaVuSans-28"/>
       <use xlink:href="#DejaVuSans-49" x="39.013672"/>
       <use xlink:href="#DejaVuSans-4c" x="68.505859"/>
       <use xlink:href="#DejaVuSans-2b" x="124.21875"/>
       <use xlink:href="#DejaVuSans-48" x="208.007812"/>
       <use xlink:href="#DejaVuSans-4c" x="283.203125"/>
       <use xlink:href="#DejaVuSans-29" x="338.916016"/>
      </g>
     </g>
    </g>
    <g id="xtick_8">
     <g id="line2d_8">
      <g>
       <use xlink:href="#maa122ca84b" x="374.382072" y="273.384036" style="stroke: #000000; stroke-width: 0.8"/>
      </g>
     </g>
     <g id="text_8">
      <!-- Total_Carbon_Tails -->
      <g transform="translate(308.558164 349.913625) rotate(-45) scale(0.1 -0.1)">
       <defs>
        <path id="DejaVuSans-54" d="M -19 4666 
L 3928 4666 
L 3928 4134 
L 2272 4134 
L 2272 0 
L 1638 0 
L 1638 4134 
L -19 4134 
L -19 4666 
z
" transform="scale(0.015625)"/>
        <path id="DejaVuSans-43" d="M 4122 4306 
L 4122 3641 
Q 3803 3938 3442 4084 
Q 3081 4231 2675 4231 
Q 1875 4231 1450 3742 
Q 1025 3253 1025 2328 
Q 1025 1406 1450 917 
Q 1875 428 2675 428 
Q 3081 428 3442 575 
Q 3803 722 4122 1019 
L 4122 359 
Q 3791 134 3420 21 
Q 3050 -91 2638 -91 
Q 1578 -91 968 557 
Q 359 1206 359 2328 
Q 359 3453 968 4101 
Q 1578 4750 2638 4750 
Q 3056 4750 3426 4639 
Q 3797 4528 4122 4306 
z
" transform="scale(0.015625)"/>
        <path id="DejaVuSans-69" d="M 603 3500 
L 1178 3500 
L 1178 0 
L 603 0 
L 603 3500 
z
M 603 4863 
L 1178 4863 
L 1178 4134 
L 603 4134 
L 603 4863 
z
" transform="scale(0.015625)"/>
       </defs>
       <use xlink:href="#DejaVuSans-54"/>
       <use xlink:href="#DejaVuSans-6f" x="44.083984"/>
       <use xlink:href="#DejaVuSans-74" x="105.265625"/>
       <use xlink:href="#DejaVuSans-61" x="144.474609"/>
       <use xlink:href="#DejaVuSans-6c" x="205.753906"/>
       <use xlink:href="#DejaVuSans-5f" x="233.537109"/>
       <use xlink:href="#DejaVuSans-43" x="283.537109"/>
       <use xlink:href="#DejaVuSans-61" x="353.361328"/>
       <use xlink:href="#DejaVuSans-72" x="414.640625"/>
       <use xlink:href="#DejaVuSans-62" x="455.753906"/>
       <use xlink:href="#DejaVuSans-6f" x="519.230469"/>
       <use xlink:href="#DejaVuSans-6e" x="580.412109"/>
       <use xlink:href="#DejaVuSans-5f" x="643.791016"/>
       <use xlink:href="#DejaVuSans-54" x="693.791016"/>
       <use xlink:href="#DejaVuSans-61" x="738.375"/>
       <use xlink:href="#DejaVuSans-69" x="799.654297"/>
       <use xlink:href="#DejaVuSans-6c" x="827.4375"/>
       <use xlink:href="#DejaVuSans-73" x="855.220703"/>
      </g>
     </g>
    </g>
    <g id="text_9">
     <!-- Feature -->
     <g transform="translate(209.813906 365.605548) scale(0.1 -0.1)">
      <defs>
       <path id="DejaVuSans-46" d="M 628 4666 
L 3309 4666 
L 3309 4134 
L 1259 4134 
L 1259 2759 
L 3109 2759 
L 3109 2228 
L 1259 2228 
L 1259 0 
L 628 0 
L 628 4666 
z
" transform="scale(0.015625)"/>
      </defs>
      <use xlink:href="#DejaVuSans-46"/>
      <use xlink:href="#DejaVuSans-65" x="52.019531"/>
      <use xlink:href="#DejaVuSans-61" x="113.542969"/>
      <use xlink:href="#DejaVuSans-74" x="174.822266"/>
      <use xlink:href="#DejaVuSans-75" x="214.03125"/>
      <use xlink:href="#DejaVuSans-72" x="277.410156"/>
      <use xlink:href="#DejaVuSans-65" x="316.273438"/>
     </g>
    </g>
   </g>
   <g id="matplotlib.axis_2">
    <g id="ytick_1">
     <g id="line2d_9">
      <defs>
       <path id="m1231af1818" d="M 0 0 
L -3.5 0 
" style="stroke: #000000; stroke-width: 0.8"/>
      </defs>
      <g>
       <use xlink:href="#m1231af1818" x="50.14375" y="273.384036" style="stroke: #000000; stroke-width: 0.8"/>
      </g>
     </g>
     <g id="text_10">
      <!-- 0.00 -->
      <g transform="translate(20.878125 277.183255) scale(0.1 -0.1)">
       <defs>
        <path id="DejaVuSans-30" d="M 2034 4250 
Q 1547 4250 1301 3770 
Q 1056 3291 1056 2328 
Q 1056 1369 1301 889 
Q 1547 409 2034 409 
Q 2525 409 2770 889 
Q 3016 1369 3016 2328 
Q 3016 3291 2770 3770 
Q 2525 4250 2034 4250 
z
M 2034 4750 
Q 2819 4750 3233 4129 
Q 3647 3509 3647 2328 
Q 3647 1150 3233 529 
Q 2819 -91 2034 -91 
Q 1250 -91 836 529 
Q 422 1150 422 2328 
Q 422 3509 836 4129 
Q 1250 4750 2034 4750 
z
" transform="scale(0.015625)"/>
        <path id="DejaVuSans-2e" d="M 684 794 
L 1344 794 
L 1344 0 
L 684 0 
L 684 794 
z
" transform="scale(0.015625)"/>
       </defs>
       <use xlink:href="#DejaVuSans-30"/>
       <use xlink:href="#DejaVuSans-2e" x="63.623047"/>
       <use xlink:href="#DejaVuSans-30" x="95.410156"/>
       <use xlink:href="#DejaVuSans-30" x="159.033203"/>
      </g>
     </g>
    </g>
    <g id="ytick_2">
     <g id="line2d_10">
      <g>
       <use xlink:href="#m1231af1818" x="50.14375" y="235.900491" style="stroke: #000000; stroke-width: 0.8"/>
      </g>
     </g>
     <g id="text_11">
      <!-- 0.05 -->
      <g transform="translate(20.878125 239.69971) scale(0.1 -0.1)">
       <defs>
        <path id="DejaVuSans-35" d="M 691 4666 
L 3169 4666 
L 3169 4134 
L 1269 4134 
L 1269 2991 
Q 1406 3038 1543 3061 
Q 1681 3084 1819 3084 
Q 2600 3084 3056 2656 
Q 3513 2228 3513 1497 
Q 3513 744 3044 326 
Q 2575 -91 1722 -91 
Q 1428 -91 1123 -41 
Q 819 9 494 109 
L 494 744 
Q 775 591 1075 516 
Q 1375 441 1709 441 
Q 2250 441 2565 725 
Q 2881 1009 2881 1497 
Q 2881 1984 2565 2268 
Q 2250 2553 1709 2553 
Q 1456 2553 1204 2497 
Q 953 2441 691 2322 
L 691 4666 
z
" transform="scale(0.015625)"/>
       </defs>
       <use xlink:href="#DejaVuSans-30"/>
       <use xlink:href="#DejaVuSans-2e" x="63.623047"/>
       <use xlink:href="#DejaVuSans-30" x="95.410156"/>
       <use xlink:href="#DejaVuSans-35" x="159.033203"/>
      </g>
     </g>
    </g>
    <g id="ytick_3">
     <g id="line2d_11">
      <g>
       <use xlink:href="#m1231af1818" x="50.14375" y="198.416946" style="stroke: #000000; stroke-width: 0.8"/>
      </g>
     </g>
     <g id="text_12">
      <!-- 0.10 -->
      <g transform="translate(20.878125 202.216164) scale(0.1 -0.1)">
       <defs>
        <path id="DejaVuSans-31" d="M 794 531 
L 1825 531 
L 1825 4091 
L 703 3866 
L 703 4441 
L 1819 4666 
L 2450 4666 
L 2450 531 
L 3481 531 
L 3481 0 
L 794 0 
L 794 531 
z
" transform="scale(0.015625)"/>
       </defs>
       <use xlink:href="#DejaVuSans-30"/>
       <use xlink:href="#DejaVuSans-2e" x="63.623047"/>
       <use xlink:href="#DejaVuSans-31" x="95.410156"/>
       <use xlink:href="#DejaVuSans-30" x="159.033203"/>
      </g>
     </g>
    </g>
    <g id="ytick_4">
     <g id="line2d_12">
      <g>
       <use xlink:href="#m1231af1818" x="50.14375" y="160.9334" style="stroke: #000000; stroke-width: 0.8"/>
      </g>
     </g>
     <g id="text_13">
      <!-- 0.15 -->
      <g transform="translate(20.878125 164.732619) scale(0.1 -0.1)">
       <use xlink:href="#DejaVuSans-30"/>
       <use xlink:href="#DejaVuSans-2e" x="63.623047"/>
       <use xlink:href="#DejaVuSans-31" x="95.410156"/>
       <use xlink:href="#DejaVuSans-35" x="159.033203"/>
      </g>
     </g>
    </g>
    <g id="ytick_5">
     <g id="line2d_13">
      <g>
       <use xlink:href="#m1231af1818" x="50.14375" y="123.449855" style="stroke: #000000; stroke-width: 0.8"/>
      </g>
     </g>
     <g id="text_14">
      <!-- 0.20 -->
      <g transform="translate(20.878125 127.249074) scale(0.1 -0.1)">
       <defs>
        <path id="DejaVuSans-32" d="M 1228 531 
L 3431 531 
L 3431 0 
L 469 0 
L 469 531 
Q 828 903 1448 1529 
Q 2069 2156 2228 2338 
Q 2531 2678 2651 2914 
Q 2772 3150 2772 3378 
Q 2772 3750 2511 3984 
Q 2250 4219 1831 4219 
Q 1534 4219 1204 4116 
Q 875 4013 500 3803 
L 500 4441 
Q 881 4594 1212 4672 
Q 1544 4750 1819 4750 
Q 2544 4750 2975 4387 
Q 3406 4025 3406 3419 
Q 3406 3131 3298 2873 
Q 3191 2616 2906 2266 
Q 2828 2175 2409 1742 
Q 1991 1309 1228 531 
z
" transform="scale(0.015625)"/>
       </defs>
       <use xlink:href="#DejaVuSans-30"/>
       <use xlink:href="#DejaVuSans-2e" x="63.623047"/>
       <use xlink:href="#DejaVuSans-32" x="95.410156"/>
       <use xlink:href="#DejaVuSans-30" x="159.033203"/>
      </g>
     </g>
    </g>
    <g id="ytick_6">
     <g id="line2d_14">
      <g>
       <use xlink:href="#m1231af1818" x="50.14375" y="85.966309" style="stroke: #000000; stroke-width: 0.8"/>
      </g>
     </g>
     <g id="text_15">
      <!-- 0.25 -->
      <g transform="translate(20.878125 89.765528) scale(0.1 -0.1)">
       <use xlink:href="#DejaVuSans-30"/>
       <use xlink:href="#DejaVuSans-2e" x="63.623047"/>
       <use xlink:href="#DejaVuSans-32" x="95.410156"/>
       <use xlink:href="#DejaVuSans-35" x="159.033203"/>
      </g>
     </g>
    </g>
    <g id="ytick_7">
     <g id="line2d_15">
      <g>
       <use xlink:href="#m1231af1818" x="50.14375" y="48.482764" style="stroke: #000000; stroke-width: 0.8"/>
      </g>
     </g>
     <g id="text_16">
      <!-- 0.30 -->
      <g transform="translate(20.878125 52.281983) scale(0.1 -0.1)">
       <defs>
        <path id="DejaVuSans-33" d="M 2597 2516 
Q 3050 2419 3304 2112 
Q 3559 1806 3559 1356 
Q 3559 666 3084 287 
Q 2609 -91 1734 -91 
Q 1441 -91 1130 -33 
Q 819 25 488 141 
L 488 750 
Q 750 597 1062 519 
Q 1375 441 1716 441 
Q 2309 441 2620 675 
Q 2931 909 2931 1356 
Q 2931 1769 2642 2001 
Q 2353 2234 1838 2234 
L 1294 2234 
L 1294 2753 
L 1863 2753 
Q 2328 2753 2575 2939 
Q 2822 3125 2822 3475 
Q 2822 3834 2567 4026 
Q 2313 4219 1838 4219 
Q 1578 4219 1281 4162 
Q 984 4106 628 3988 
L 628 4550 
Q 988 4650 1302 4700 
Q 1616 4750 1894 4750 
Q 2613 4750 3031 4423 
Q 3450 4097 3450 3541 
Q 3450 3153 3228 2886 
Q 3006 2619 2597 2516 
z
" transform="scale(0.015625)"/>
       </defs>
       <use xlink:href="#DejaVuSans-30"/>
       <use xlink:href="#DejaVuSans-2e" x="63.623047"/>
       <use xlink:href="#DejaVuSans-33" x="95.410156"/>
       <use xlink:href="#DejaVuSans-30" x="159.033203"/>
      </g>
     </g>
    </g>
    <g id="ytick_8">
     <g id="line2d_16">
      <g>
       <use xlink:href="#m1231af1818" x="50.14375" y="10.999219" style="stroke: #000000; stroke-width: 0.8"/>
      </g>
     </g>
     <g id="text_17">
      <!-- 0.35 -->
      <g transform="translate(20.878125 14.798437) scale(0.1 -0.1)">
       <use xlink:href="#DejaVuSans-30"/>
       <use xlink:href="#DejaVuSans-2e" x="63.623047"/>
       <use xlink:href="#DejaVuSans-33" x="95.410156"/>
       <use xlink:href="#DejaVuSans-35" x="159.033203"/>
      </g>
     </g>
    </g>
    <g id="text_18">
     <!-- KFold Average MAE -->
     <g transform="translate(14.798438 188.528817) rotate(-90) scale(0.1 -0.1)">
      <defs>
       <path id="DejaVuSans-4b" d="M 628 4666 
L 1259 4666 
L 1259 2694 
L 3353 4666 
L 4166 4666 
L 1850 2491 
L 4331 0 
L 3500 0 
L 1259 2247 
L 1259 0 
L 628 0 
L 628 4666 
z
" transform="scale(0.015625)"/>
       <path id="DejaVuSans-76" d="M 191 3500 
L 800 3500 
L 1894 563 
L 2988 3500 
L 3597 3500 
L 2284 0 
L 1503 0 
L 191 3500 
z
" transform="scale(0.015625)"/>
       <path id="DejaVuSans-4d" d="M 628 4666 
L 1569 4666 
L 2759 1491 
L 3956 4666 
L 4897 4666 
L 4897 0 
L 4281 0 
L 4281 4097 
L 3078 897 
L 2444 897 
L 1241 4097 
L 1241 0 
L 628 0 
L 628 4666 
z
" transform="scale(0.015625)"/>
       <path id="DejaVuSans-45" d="M 628 4666 
L 3578 4666 
L 3578 4134 
L 1259 4134 
L 1259 2753 
L 3481 2753 
L 3481 2222 
L 1259 2222 
L 1259 531 
L 3634 531 
L 3634 0 
L 628 0 
L 628 4666 
z
" transform="scale(0.015625)"/>
      </defs>
      <use xlink:href="#DejaVuSans-4b"/>
      <use xlink:href="#DejaVuSans-46" x="65.576172"/>
      <use xlink:href="#DejaVuSans-6f" x="119.470703"/>
      <use xlink:href="#DejaVuSans-6c" x="180.652344"/>
      <use xlink:href="#DejaVuSans-64" x="208.435547"/>
      <use xlink:href="#DejaVuSans-20" x="271.912109"/>
      <use xlink:href="#DejaVuSans-41" x="303.699219"/>
      <use xlink:href="#DejaVuSans-76" x="366.232422"/>
      <use xlink:href="#DejaVuSans-65" x="425.412109"/>
      <use xlink:href="#DejaVuSans-72" x="486.935547"/>
      <use xlink:href="#DejaVuSans-61" x="528.048828"/>
      <use xlink:href="#DejaVuSans-67" x="589.328125"/>
      <use xlink:href="#DejaVuSans-65" x="652.804688"/>
      <use xlink:href="#DejaVuSans-20" x="714.328125"/>
      <use xlink:href="#DejaVuSans-4d" x="746.115234"/>
      <use xlink:href="#DejaVuSans-41" x="832.394531"/>
      <use xlink:href="#DejaVuSans-45" x="900.802734"/>
     </g>
    </g>
   </g>
   <g id="line2d_17">
    <path d="M 83.025428 238.862643 
L 83.025428 237.921719 
" clip-path="url(#p3dc3f84e32)" style="fill: none; stroke: #424242; stroke-width: 2.7; stroke-linecap: square"/>
   </g>
   <g id="line2d_18">
    <path d="M 79.90375 238.862643 
L 86.147107 238.862643 
" clip-path="url(#p3dc3f84e32)" style="fill: none; stroke: #424242; stroke-width: 2.7; stroke-linecap: square"/>
   </g>
   <g id="line2d_19">
    <path d="M 79.90375 237.921719 
L 86.147107 237.921719 
" clip-path="url(#p3dc3f84e32)" style="fill: none; stroke: #424242; stroke-width: 2.7; stroke-linecap: square"/>
   </g>
   <g id="line2d_20">
    <path d="M 124.647806 239.479498 
L 124.647806 238.148363 
" clip-path="url(#p3dc3f84e32)" style="fill: none; stroke: #424242; stroke-width: 2.7; stroke-linecap: square"/>
   </g>
   <g id="line2d_21">
    <path d="M 121.526128 239.479498 
L 127.769484 239.479498 
" clip-path="url(#p3dc3f84e32)" style="fill: none; stroke: #424242; stroke-width: 2.7; stroke-linecap: square"/>
   </g>
   <g id="line2d_22">
    <path d="M 121.526128 238.148363 
L 127.769484 238.148363 
" clip-path="url(#p3dc3f84e32)" style="fill: none; stroke: #424242; stroke-width: 2.7; stroke-linecap: square"/>
   </g>
   <g id="line2d_23">
    <path d="M 166.270184 209.779457 
L 166.270184 208.050574 
" clip-path="url(#p3dc3f84e32)" style="fill: none; stroke: #424242; stroke-width: 2.7; stroke-linecap: square"/>
   </g>
   <g id="line2d_24">
    <path d="M 163.148505 209.779457 
L 169.391862 209.779457 
" clip-path="url(#p3dc3f84e32)" style="fill: none; stroke: #424242; stroke-width: 2.7; stroke-linecap: square"/>
   </g>
   <g id="line2d_25">
    <path d="M 163.148505 208.050574 
L 169.391862 208.050574 
" clip-path="url(#p3dc3f84e32)" style="fill: none; stroke: #424242; stroke-width: 2.7; stroke-linecap: square"/>
   </g>
   <g id="line2d_26">
    <path d="M 207.892561 228.772843 
L 207.892561 227.536588 
" clip-path="url(#p3dc3f84e32)" style="fill: none; stroke: #424242; stroke-width: 2.7; stroke-linecap: square"/>
   </g>
   <g id="line2d_27">
    <path d="M 204.770883 228.772843 
L 211.01424 228.772843 
" clip-path="url(#p3dc3f84e32)" style="fill: none; stroke: #424242; stroke-width: 2.7; stroke-linecap: square"/>
   </g>
   <g id="line2d_28">
    <path d="M 204.770883 227.536588 
L 211.01424 227.536588 
" clip-path="url(#p3dc3f84e32)" style="fill: none; stroke: #424242; stroke-width: 2.7; stroke-linecap: square"/>
   </g>
   <g id="line2d_29">
    <path d="M 249.514939 237.646244 
L 249.514939 236.540568 
" clip-path="url(#p3dc3f84e32)" style="fill: none; stroke: #424242; stroke-width: 2.7; stroke-linecap: square"/>
   </g>
   <g id="line2d_30">
    <path d="M 246.39326 237.646244 
L 252.636617 237.646244 
" clip-path="url(#p3dc3f84e32)" style="fill: none; stroke: #424242; stroke-width: 2.7; stroke-linecap: square"/>
   </g>
   <g id="line2d_31">
    <path d="M 246.39326 236.540568 
L 252.636617 236.540568 
" clip-path="url(#p3dc3f84e32)" style="fill: none; stroke: #424242; stroke-width: 2.7; stroke-linecap: square"/>
   </g>
   <g id="line2d_32">
    <path d="M 291.137316 237.906753 
L 291.137316 237.175384 
" clip-path="url(#p3dc3f84e32)" style="fill: none; stroke: #424242; stroke-width: 2.7; stroke-linecap: square"/>
   </g>
   <g id="line2d_33">
    <path d="M 288.015638 237.906753 
L 294.258995 237.906753 
" clip-path="url(#p3dc3f84e32)" style="fill: none; stroke: #424242; stroke-width: 2.7; stroke-linecap: square"/>
   </g>
   <g id="line2d_34">
    <path d="M 288.015638 237.175384 
L 294.258995 237.175384 
" clip-path="url(#p3dc3f84e32)" style="fill: none; stroke: #424242; stroke-width: 2.7; stroke-linecap: square"/>
   </g>
   <g id="line2d_35">
    <path d="M 332.759694 211.988944 
L 332.759694 209.488723 
" clip-path="url(#p3dc3f84e32)" style="fill: none; stroke: #424242; stroke-width: 2.7; stroke-linecap: square"/>
   </g>
   <g id="line2d_36">
    <path d="M 329.638016 211.988944 
L 335.881372 211.988944 
" clip-path="url(#p3dc3f84e32)" style="fill: none; stroke: #424242; stroke-width: 2.7; stroke-linecap: square"/>
   </g>
   <g id="line2d_37">
    <path d="M 329.638016 209.488723 
L 335.881372 209.488723 
" clip-path="url(#p3dc3f84e32)" style="fill: none; stroke: #424242; stroke-width: 2.7; stroke-linecap: square"/>
   </g>
   <g id="line2d_38">
    <path d="M 374.382072 239.339725 
L 374.382072 237.768837 
" clip-path="url(#p3dc3f84e32)" style="fill: none; stroke: #424242; stroke-width: 2.7; stroke-linecap: square"/>
   </g>
   <g id="line2d_39">
    <path d="M 371.260393 239.339725 
L 377.50375 239.339725 
" clip-path="url(#p3dc3f84e32)" style="fill: none; stroke: #424242; stroke-width: 2.7; stroke-linecap: square"/>
   </g>
   <g id="line2d_40">
    <path d="M 371.260393 237.768837 
L 377.50375 237.768837 
" clip-path="url(#p3dc3f84e32)" style="fill: none; stroke: #424242; stroke-width: 2.7; stroke-linecap: square"/>
   </g>
   <g id="line2d_41">
    <path d="M 83.025428 184.871636 
L 83.025428 169.878218 
L 166.270184 169.878218 
L 166.270184 184.871636 
" clip-path="url(#p3dc3f84e32)" style="fill: none; stroke: #000000; stroke-width: 1.5; stroke-linecap: square"/>
   </g>
   <g id="line2d_42">
    <path d="M 83.025428 147.38809 
L 83.025428 132.394672 
L 207.892561 132.394672 
L 207.892561 147.38809 
" clip-path="url(#p3dc3f84e32)" style="fill: none; stroke: #000000; stroke-width: 1.5; stroke-linecap: square"/>
   </g>
   <g id="line2d_43">
    <path d="M 83.025428 109.904545 
L 83.025428 94.911127 
L 249.514939 94.911127 
L 249.514939 109.904545 
" clip-path="url(#p3dc3f84e32)" style="fill: none; stroke: #000000; stroke-width: 1.5; stroke-linecap: square"/>
   </g>
   <g id="line2d_44">
    <path d="M 83.025428 72.421 
L 83.025428 57.427582 
L 291.137316 57.427582 
L 291.137316 72.421 
" clip-path="url(#p3dc3f84e32)" style="fill: none; stroke: #000000; stroke-width: 1.5; stroke-linecap: square"/>
   </g>
   <g id="line2d_45">
    <path d="M 83.025428 34.937454 
L 83.025428 19.944036 
L 332.759694 19.944036 
L 332.759694 34.937454 
" clip-path="url(#p3dc3f84e32)" style="fill: none; stroke: #000000; stroke-width: 1.5; stroke-linecap: square"/>
   </g>
   <g id="patch_11">
    <path d="M 50.14375 273.384036 
L 50.14375 7.272036 
" style="fill: none; stroke: #000000; stroke-width: 0.8; stroke-linejoin: miter; stroke-linecap: square"/>
   </g>
   <g id="patch_12">
    <path d="M 407.26375 273.384036 
L 407.26375 7.272036 
" style="fill: none; stroke: #000000; stroke-width: 0.8; stroke-linejoin: miter; stroke-linecap: square"/>
   </g>
   <g id="patch_13">
    <path d="M 50.14375 273.384036 
L 407.26375 273.384036 
" style="fill: none; stroke: #000000; stroke-width: 0.8; stroke-linejoin: miter; stroke-linecap: square"/>
   </g>
   <g id="patch_14">
    <path d="M 50.14375 7.272036 
L 407.26375 7.272036 
" style="fill: none; stroke: #000000; stroke-width: 0.8; stroke-linejoin: miter; stroke-linecap: square"/>
   </g>
   <g id="PathCollection_1">
    <defs>
     <path id="m60b380df11" d="M 0 3 
C 0.795609 3 1.55874 2.683901 2.12132 2.12132 
C 2.683901 1.55874 3 0.795609 3 0 
C 3 -0.795609 2.683901 -1.55874 2.12132 -2.12132 
C 1.55874 -2.683901 0.795609 -3 0 -3 
C -0.795609 -3 -1.55874 -2.683901 -2.12132 -2.12132 
C -2.683901 -1.55874 -3 -0.795609 -3 0 
C -3 0.795609 -2.683901 1.55874 -2.12132 2.12132 
C -1.55874 2.683901 -0.795609 3 0 3 
z
"/>
    </defs>
    <g clip-path="url(#p3dc3f84e32)">
     <use xlink:href="#m60b380df11" x="85.175891" y="239.398932" style="fill-opacity: 0.5"/>
     <use xlink:href="#m60b380df11" x="79.680208" y="238.13645" style="fill-opacity: 0.5"/>
     <use xlink:href="#m60b380df11" x="86.721802" y="237.8251" style="fill-opacity: 0.5"/>
     <use xlink:href="#m60b380df11" x="85.149404" y="238.609687" style="fill-opacity: 0.5"/>
     <use xlink:href="#m60b380df11" x="81.34001" y="238.058915" style="fill-opacity: 0.5"/>
     <use xlink:href="#m60b380df11" x="82.329841" y="238.6921" style="fill-opacity: 0.5"/>
     <use xlink:href="#m60b380df11" x="84.036705" y="237.869828" style="fill-opacity: 0.5"/>
     <use xlink:href="#m60b380df11" x="79.76226" y="238.493787" style="fill-opacity: 0.5"/>
     <use xlink:href="#m60b380df11" x="87.051326" y="238.589671" style="fill-opacity: 0.5"/>
     <use xlink:href="#m60b380df11" x="87.15277" y="238.247339" style="fill-opacity: 0.5"/>
    </g>
   </g>
   <g id="PathCollection_2">
    <g clip-path="url(#p3dc3f84e32)">
     <use xlink:href="#m60b380df11" x="124.537307" y="239.241516" style="fill-opacity: 0.5"/>
     <use xlink:href="#m60b380df11" x="127.295352" y="239.416756" style="fill-opacity: 0.5"/>
     <use xlink:href="#m60b380df11" x="122.451538" y="237.76414" style="fill-opacity: 0.5"/>
     <use xlink:href="#m60b380df11" x="125.576652" y="239.30302" style="fill-opacity: 0.5"/>
     <use xlink:href="#m60b380df11" x="125.098927" y="237.831938" style="fill-opacity: 0.5"/>
     <use xlink:href="#m60b380df11" x="125.877673" y="239.46926" style="fill-opacity: 0.5"/>
     <use xlink:href="#m60b380df11" x="121.281953" y="239.477148" style="fill-opacity: 0.5"/>
     <use xlink:href="#m60b380df11" x="120.722098" y="238.67587" style="fill-opacity: 0.5"/>
     <use xlink:href="#m60b380df11" x="128.353768" y="238.37168" style="fill-opacity: 0.5"/>
     <use xlink:href="#m60b380df11" x="128.35677" y="238.587979" style="fill-opacity: 0.5"/>
    </g>
   </g>
   <g id="PathCollection_3">
    <g clip-path="url(#p3dc3f84e32)">
     <use xlink:href="#m60b380df11" x="162.793304" y="209.622321" style="fill-opacity: 0.5"/>
     <use xlink:href="#m60b380df11" x="167.197302" y="209.684379" style="fill-opacity: 0.5"/>
     <use xlink:href="#m60b380df11" x="163.935293" y="209.160612" style="fill-opacity: 0.5"/>
     <use xlink:href="#m60b380df11" x="168.109507" y="207.361763" style="fill-opacity: 0.5"/>
     <use xlink:href="#m60b380df11" x="163.996292" y="209.758151" style="fill-opacity: 0.5"/>
     <use xlink:href="#m60b380df11" x="165.401071" y="208.412618" style="fill-opacity: 0.5"/>
     <use xlink:href="#m60b380df11" x="166.255874" y="209.272628" style="fill-opacity: 0.5"/>
     <use xlink:href="#m60b380df11" x="162.215274" y="207.628722" style="fill-opacity: 0.5"/>
     <use xlink:href="#m60b380df11" x="167.029044" y="209.528682" style="fill-opacity: 0.5"/>
     <use xlink:href="#m60b380df11" x="168.656071" y="208.720281" style="fill-opacity: 0.5"/>
    </g>
   </g>
   <g id="PathCollection_4">
    <g clip-path="url(#p3dc3f84e32)">
     <use xlink:href="#m60b380df11" x="210.775761" y="228.489544" style="fill-opacity: 0.5"/>
     <use xlink:href="#m60b380df11" x="209.190256" y="226.708862" style="fill-opacity: 0.5"/>
     <use xlink:href="#m60b380df11" x="207.325074" y="227.724637" style="fill-opacity: 0.5"/>
     <use xlink:href="#m60b380df11" x="208.320144" y="228.066618" style="fill-opacity: 0.5"/>
     <use xlink:href="#m60b380df11" x="207.201414" y="228.52036" style="fill-opacity: 0.5"/>
     <use xlink:href="#m60b380df11" x="211.644137" y="228.229126" style="fill-opacity: 0.5"/>
     <use xlink:href="#m60b380df11" x="206.029468" y="229.004432" style="fill-opacity: 0.5"/>
     <use xlink:href="#m60b380df11" x="209.540363" y="228.392607" style="fill-opacity: 0.5"/>
     <use xlink:href="#m60b380df11" x="206.953512" y="228.450845" style="fill-opacity: 0.5"/>
     <use xlink:href="#m60b380df11" x="205.578659" y="227.960122" style="fill-opacity: 0.5"/>
    </g>
   </g>
   <g id="PathCollection_5">
    <g clip-path="url(#p3dc3f84e32)">
     <use xlink:href="#m60b380df11" x="248.956094" y="237.260293" style="fill-opacity: 0.5"/>
     <use xlink:href="#m60b380df11" x="252.259958" y="238.143001" style="fill-opacity: 0.5"/>
     <use xlink:href="#m60b380df11" x="245.557969" y="236.535983" style="fill-opacity: 0.5"/>
     <use xlink:href="#m60b380df11" x="247.945269" y="237.701583" style="fill-opacity: 0.5"/>
     <use xlink:href="#m60b380df11" x="250.673124" y="236.610894" style="fill-opacity: 0.5"/>
     <use xlink:href="#m60b380df11" x="249.522851" y="236.846974" style="fill-opacity: 0.5"/>
     <use xlink:href="#m60b380df11" x="249.350852" y="237.199798" style="fill-opacity: 0.5"/>
     <use xlink:href="#m60b380df11" x="249.560874" y="236.463975" style="fill-opacity: 0.5"/>
     <use xlink:href="#m60b380df11" x="250.70472" y="236.739799" style="fill-opacity: 0.5"/>
     <use xlink:href="#m60b380df11" x="253.598566" y="237.43176" style="fill-opacity: 0.5"/>
    </g>
   </g>
   <g id="PathCollection_6">
    <g clip-path="url(#p3dc3f84e32)">
     <use xlink:href="#m60b380df11" x="294.83179" y="238.303057" style="fill-opacity: 0.5"/>
     <use xlink:href="#m60b380df11" x="293.729777" y="237.839738" style="fill-opacity: 0.5"/>
     <use xlink:href="#m60b380df11" x="286.997536" y="237.109128" style="fill-opacity: 0.5"/>
     <use xlink:href="#m60b380df11" x="287.217103" y="237.582591" style="fill-opacity: 0.5"/>
     <use xlink:href="#m60b380df11" x="290.932827" y="237.211631" style="fill-opacity: 0.5"/>
     <use xlink:href="#m60b380df11" x="291.080941" y="237.534752" style="fill-opacity: 0.5"/>
     <use xlink:href="#m60b380df11" x="292.245045" y="237.06273" style="fill-opacity: 0.5"/>
     <use xlink:href="#m60b380df11" x="292.841914" y="237.587089" style="fill-opacity: 0.5"/>
     <use xlink:href="#m60b380df11" x="288.387636" y="237.566327" style="fill-opacity: 0.5"/>
     <use xlink:href="#m60b380df11" x="287.96744" y="237.613644" style="fill-opacity: 0.5"/>
    </g>
   </g>
   <g id="PathCollection_7">
    <g clip-path="url(#p3dc3f84e32)">
     <use xlink:href="#m60b380df11" x="329.474521" y="208.858871" style="fill-opacity: 0.5"/>
     <use xlink:href="#m60b380df11" x="329.150751" y="209.342344" style="fill-opacity: 0.5"/>
     <use xlink:href="#m60b380df11" x="329.366677" y="210.326107" style="fill-opacity: 0.5"/>
     <use xlink:href="#m60b380df11" x="333.743584" y="211.163976" style="fill-opacity: 0.5"/>
     <use xlink:href="#m60b380df11" x="336.460597" y="211.717434" style="fill-opacity: 0.5"/>
     <use xlink:href="#m60b380df11" x="328.905361" y="210.11227" style="fill-opacity: 0.5"/>
     <use xlink:href="#m60b380df11" x="332.489322" y="212.100169" style="fill-opacity: 0.5"/>
     <use xlink:href="#m60b380df11" x="330.026507" y="210.570888" style="fill-opacity: 0.5"/>
     <use xlink:href="#m60b380df11" x="333.72891" y="212.924972" style="fill-opacity: 0.5"/>
     <use xlink:href="#m60b380df11" x="331.723508" y="210.271303" style="fill-opacity: 0.5"/>
    </g>
   </g>
   <g id="PathCollection_8">
    <g clip-path="url(#p3dc3f84e32)">
     <use xlink:href="#m60b380df11" x="375.624478" y="239.886429" style="fill-opacity: 0.5"/>
     <use xlink:href="#m60b380df11" x="374.296471" y="238.939023" style="fill-opacity: 0.5"/>
     <use xlink:href="#m60b380df11" x="374.089036" y="237.697734" style="fill-opacity: 0.5"/>
     <use xlink:href="#m60b380df11" x="374.221552" y="238.738624" style="fill-opacity: 0.5"/>
     <use xlink:href="#m60b380df11" x="370.648678" y="237.011277" style="fill-opacity: 0.5"/>
     <use xlink:href="#m60b380df11" x="371.498104" y="238.909122" style="fill-opacity: 0.5"/>
     <use xlink:href="#m60b380df11" x="378.357806" y="238.085713" style="fill-opacity: 0.5"/>
     <use xlink:href="#m60b380df11" x="375.409295" y="238.705655" style="fill-opacity: 0.5"/>
     <use xlink:href="#m60b380df11" x="375.766787" y="238.726977" style="fill-opacity: 0.5"/>
     <use xlink:href="#m60b380df11" x="376.252073" y="238.84226" style="fill-opacity: 0.5"/>
    </g>
   </g>
   <g id="text_19">
    <!-- p = 4.81e-26 -->
    <g transform="translate(91.729837 167.79853) scale(0.1 -0.1)">
     <defs>
      <path id="DejaVuSans-70" d="M 1159 525 
L 1159 -1331 
L 581 -1331 
L 581 3500 
L 1159 3500 
L 1159 2969 
Q 1341 3281 1617 3432 
Q 1894 3584 2278 3584 
Q 2916 3584 3314 3078 
Q 3713 2572 3713 1747 
Q 3713 922 3314 415 
Q 2916 -91 2278 -91 
Q 1894 -91 1617 61 
Q 1341 213 1159 525 
z
M 3116 1747 
Q 3116 2381 2855 2742 
Q 2594 3103 2138 3103 
Q 1681 3103 1420 2742 
Q 1159 2381 1159 1747 
Q 1159 1113 1420 752 
Q 1681 391 2138 391 
Q 2594 391 2855 752 
Q 3116 1113 3116 1747 
z
" transform="scale(0.015625)"/>
      <path id="DejaVuSans-3d" d="M 678 2906 
L 4684 2906 
L 4684 2381 
L 678 2381 
L 678 2906 
z
M 678 1631 
L 4684 1631 
L 4684 1100 
L 678 1100 
L 678 1631 
z
" transform="scale(0.015625)"/>
      <path id="DejaVuSans-34" d="M 2419 4116 
L 825 1625 
L 2419 1625 
L 2419 4116 
z
M 2253 4666 
L 3047 4666 
L 3047 1625 
L 3713 1625 
L 3713 1100 
L 3047 1100 
L 3047 0 
L 2419 0 
L 2419 1100 
L 313 1100 
L 313 1709 
L 2253 4666 
z
" transform="scale(0.015625)"/>
      <path id="DejaVuSans-38" d="M 2034 2216 
Q 1584 2216 1326 1975 
Q 1069 1734 1069 1313 
Q 1069 891 1326 650 
Q 1584 409 2034 409 
Q 2484 409 2743 651 
Q 3003 894 3003 1313 
Q 3003 1734 2745 1975 
Q 2488 2216 2034 2216 
z
M 1403 2484 
Q 997 2584 770 2862 
Q 544 3141 544 3541 
Q 544 4100 942 4425 
Q 1341 4750 2034 4750 
Q 2731 4750 3128 4425 
Q 3525 4100 3525 3541 
Q 3525 3141 3298 2862 
Q 3072 2584 2669 2484 
Q 3125 2378 3379 2068 
Q 3634 1759 3634 1313 
Q 3634 634 3220 271 
Q 2806 -91 2034 -91 
Q 1263 -91 848 271 
Q 434 634 434 1313 
Q 434 1759 690 2068 
Q 947 2378 1403 2484 
z
M 1172 3481 
Q 1172 3119 1398 2916 
Q 1625 2713 2034 2713 
Q 2441 2713 2670 2916 
Q 2900 3119 2900 3481 
Q 2900 3844 2670 4047 
Q 2441 4250 2034 4250 
Q 1625 4250 1398 4047 
Q 1172 3844 1172 3481 
z
" transform="scale(0.015625)"/>
      <path id="DejaVuSans-2d" d="M 313 2009 
L 1997 2009 
L 1997 1497 
L 313 1497 
L 313 2009 
z
" transform="scale(0.015625)"/>
      <path id="DejaVuSans-36" d="M 2113 2584 
Q 1688 2584 1439 2293 
Q 1191 2003 1191 1497 
Q 1191 994 1439 701 
Q 1688 409 2113 409 
Q 2538 409 2786 701 
Q 3034 994 3034 1497 
Q 3034 2003 2786 2293 
Q 2538 2584 2113 2584 
z
M 3366 4563 
L 3366 3988 
Q 3128 4100 2886 4159 
Q 2644 4219 2406 4219 
Q 1781 4219 1451 3797 
Q 1122 3375 1075 2522 
Q 1259 2794 1537 2939 
Q 1816 3084 2150 3084 
Q 2853 3084 3261 2657 
Q 3669 2231 3669 1497 
Q 3669 778 3244 343 
Q 2819 -91 2113 -91 
Q 1303 -91 875 529 
Q 447 1150 447 2328 
Q 447 3434 972 4092 
Q 1497 4750 2381 4750 
Q 2619 4750 2861 4703 
Q 3103 4656 3366 4563 
z
" transform="scale(0.015625)"/>
     </defs>
     <use xlink:href="#DejaVuSans-70"/>
     <use xlink:href="#DejaVuSans-20" x="63.476562"/>
     <use xlink:href="#DejaVuSans-3d" x="95.263672"/>
     <use xlink:href="#DejaVuSans-20" x="179.052734"/>
     <use xlink:href="#DejaVuSans-34" x="210.839844"/>
     <use xlink:href="#DejaVuSans-2e" x="274.462891"/>
     <use xlink:href="#DejaVuSans-38" x="306.25"/>
     <use xlink:href="#DejaVuSans-31" x="369.873047"/>
     <use xlink:href="#DejaVuSans-65" x="433.496094"/>
     <use xlink:href="#DejaVuSans-2d" x="495.019531"/>
     <use xlink:href="#DejaVuSans-32" x="531.103516"/>
     <use xlink:href="#DejaVuSans-36" x="594.726562"/>
    </g>
   </g>
   <g id="text_20">
    <!-- p = 1.17e-19 -->
    <g transform="translate(112.541026 130.314985) scale(0.1 -0.1)">
     <defs>
      <path id="DejaVuSans-37" d="M 525 4666 
L 3525 4666 
L 3525 4397 
L 1831 0 
L 1172 0 
L 2766 4134 
L 525 4134 
L 525 4666 
z
" transform="scale(0.015625)"/>
      <path id="DejaVuSans-39" d="M 703 97 
L 703 672 
Q 941 559 1184 500 
Q 1428 441 1663 441 
Q 2288 441 2617 861 
Q 2947 1281 2994 2138 
Q 2813 1869 2534 1725 
Q 2256 1581 1919 1581 
Q 1219 1581 811 2004 
Q 403 2428 403 3163 
Q 403 3881 828 4315 
Q 1253 4750 1959 4750 
Q 2769 4750 3195 4129 
Q 3622 3509 3622 2328 
Q 3622 1225 3098 567 
Q 2575 -91 1691 -91 
Q 1453 -91 1209 -44 
Q 966 3 703 97 
z
M 1959 2075 
Q 2384 2075 2632 2365 
Q 2881 2656 2881 3163 
Q 2881 3666 2632 3958 
Q 2384 4250 1959 4250 
Q 1534 4250 1286 3958 
Q 1038 3666 1038 3163 
Q 1038 2656 1286 2365 
Q 1534 2075 1959 2075 
z
" transform="scale(0.015625)"/>
     </defs>
     <use xlink:href="#DejaVuSans-70"/>
     <use xlink:href="#DejaVuSans-20" x="63.476562"/>
     <use xlink:href="#DejaVuSans-3d" x="95.263672"/>
     <use xlink:href="#DejaVuSans-20" x="179.052734"/>
     <use xlink:href="#DejaVuSans-31" x="210.839844"/>
     <use xlink:href="#DejaVuSans-2e" x="274.462891"/>
     <use xlink:href="#DejaVuSans-31" x="306.25"/>
     <use xlink:href="#DejaVuSans-37" x="369.873047"/>
     <use xlink:href="#DejaVuSans-65" x="433.496094"/>
     <use xlink:href="#DejaVuSans-2d" x="495.019531"/>
     <use xlink:href="#DejaVuSans-31" x="531.103516"/>
     <use xlink:href="#DejaVuSans-39" x="594.726562"/>
    </g>
   </g>
   <g id="text_21">
    <!-- p = 1.14e-05 -->
    <g transform="translate(133.352215 92.831439) scale(0.1 -0.1)">
     <use xlink:href="#DejaVuSans-70"/>
     <use xlink:href="#DejaVuSans-20" x="63.476562"/>
     <use xlink:href="#DejaVuSans-3d" x="95.263672"/>
     <use xlink:href="#DejaVuSans-20" x="179.052734"/>
     <use xlink:href="#DejaVuSans-31" x="210.839844"/>
     <use xlink:href="#DejaVuSans-2e" x="274.462891"/>
     <use xlink:href="#DejaVuSans-31" x="306.25"/>
     <use xlink:href="#DejaVuSans-34" x="369.873047"/>
     <use xlink:href="#DejaVuSans-65" x="433.496094"/>
     <use xlink:href="#DejaVuSans-2d" x="495.019531"/>
     <use xlink:href="#DejaVuSans-30" x="531.103516"/>
     <use xlink:href="#DejaVuSans-35" x="594.726562"/>
    </g>
   </g>
   <g id="text_22">
    <!-- p = 1.33e-04 -->
    <g transform="translate(154.163404 55.347894) scale(0.1 -0.1)">
     <use xlink:href="#DejaVuSans-70"/>
     <use xlink:href="#DejaVuSans-20" x="63.476562"/>
     <use xlink:href="#DejaVuSans-3d" x="95.263672"/>
     <use xlink:href="#DejaVuSans-20" x="179.052734"/>
     <use xlink:href="#DejaVuSans-31" x="210.839844"/>
     <use xlink:href="#DejaVuSans-2e" x="274.462891"/>
     <use xlink:href="#DejaVuSans-33" x="306.25"/>
     <use xlink:href="#DejaVuSans-33" x="369.873047"/>
     <use xlink:href="#DejaVuSans-65" x="433.496094"/>
     <use xlink:href="#DejaVuSans-2d" x="495.019531"/>
     <use xlink:href="#DejaVuSans-30" x="531.103516"/>
     <use xlink:href="#DejaVuSans-34" x="594.726562"/>
    </g>
   </g>
   <g id="text_23">
    <!-- p = 3.63e-23 -->
    <g transform="translate(174.974592 17.864349) scale(0.1 -0.1)">
     <use xlink:href="#DejaVuSans-70"/>
     <use xlink:href="#DejaVuSans-20" x="63.476562"/>
     <use xlink:href="#DejaVuSans-3d" x="95.263672"/>
     <use xlink:href="#DejaVuSans-20" x="179.052734"/>
     <use xlink:href="#DejaVuSans-33" x="210.839844"/>
     <use xlink:href="#DejaVuSans-2e" x="274.462891"/>
     <use xlink:href="#DejaVuSans-36" x="306.25"/>
     <use xlink:href="#DejaVuSans-33" x="369.873047"/>
     <use xlink:href="#DejaVuSans-65" x="433.496094"/>
     <use xlink:href="#DejaVuSans-2d" x="495.019531"/>
     <use xlink:href="#DejaVuSans-32" x="531.103516"/>
     <use xlink:href="#DejaVuSans-33" x="594.726562"/>
    </g>
   </g>
  </g>
 </g>
 <defs>
  <clipPath id="p3dc3f84e32">
   <rect x="50.14375" y="7.272036" width="357.12" height="266.112"/>
  </clipPath>
 </defs>
</svg>
