<svg class="main-svg" xmlns="http://www.w3.org/2000/svg" xmlns:xlink="http://www.w3.org/1999/xlink" width="800" height="400" style="" viewBox="0 0 800 400"><rect x="0" y="0" width="800" height="400" style="fill: rgb(0, 0, 0); fill-opacity: 0;"/><defs id="defs-3c5f7d"><g class="clips"><clipPath id="clip3c5f7dpolar-for-traces"><path d="M130,0A130,130 0,1,0 -130,-1.592040838891559e-14A130,130 0,1,0 130,3.184081677783118e-14Z" transform="translate(130,130)"/></clipPath></g><g class="gradients"/><g class="patterns"/></defs><g class="bglayer"/><g class="layer-below"><g class="imagelayer"/><g class="shapelayer"/></g><g class="cartesianlayer"/><g class="polarlayer"><g class="polar"><g class="polarsublayer draglayer"/><g class="polarsublayer plotbg"><path d="M130,0A130,130 0,1,0 -130,-1.592040838891559e-14A130,130 0,1,0 130,3.184081677783118e-14Z" transform="translate(400,190)" style="fill: rgb(229, 236, 246); fill-opacity: 1;"/></g><g class="polarsublayer backplot"><g class="maplayer"/></g><g class="polarsublayer angular-grid" style="fill: none;"><path class="angularaxisgrid" d="M400,190L400,60" style="stroke: rgb(255, 255, 255); stroke-opacity: 1; stroke-width: 1px;"/><path class="angularaxisgrid" d="M400,190L456.40488608528256,72.87404717268551" style="stroke: rgb(255, 255, 255); stroke-opacity: 1; stroke-width: 1px;"/><path class="angularaxisgrid" d="M400,190L501.6380927208439,108.94632575836465" style="stroke: rgb(255, 255, 255); stroke-opacity: 1; stroke-width: 1px;"/><path class="angularaxisgrid" d="M400,190L526.7406285836371,161.07227858567913" style="stroke: rgb(255, 255, 255); stroke-opacity: 1; stroke-width: 1px;"/><path class="angularaxisgrid" d="M400,190L526.7406285836371,218.92772141432087" style="stroke: rgb(255, 255, 255); stroke-opacity: 1; stroke-width: 1px;"/><path class="angularaxisgrid" d="M400,190L501.6380927208439,271.05367424163535" style="stroke: rgb(255, 255, 255); stroke-opacity: 1; stroke-width: 1px;"/><path class="angularaxisgrid" d="M400,190L456.40488608528256,307.1259528273145" style="stroke: rgb(255, 255, 255); stroke-opacity: 1; stroke-width: 1px;"/><path class="angularaxisgrid" d="M400,190L400,320" style="stroke: rgb(255, 255, 255); stroke-opacity: 1; stroke-width: 1px;"/><path class="angularaxisgrid" d="M400,190L343.59511391471744,307.1259528273145" style="stroke: rgb(255, 255, 255); stroke-opacity: 1; stroke-width: 1px;"/><path class="angularaxisgrid" d="M400,190L298.3619072791561,271.05367424163535" style="stroke: rgb(255, 255, 255); stroke-opacity: 1; stroke-width: 1px;"/><path class="angularaxisgrid" d="M400,190L273.2593714163629,218.9277214143209" style="stroke: rgb(255, 255, 255); stroke-opacity: 1; stroke-width: 1px;"/><path class="angularaxisgrid" d="M400,190L273.2593714163629,161.07227858567927" style="stroke: rgb(255, 255, 255); stroke-opacity: 1; stroke-width: 1px;"/><path class="angularaxisgrid" d="M400,190L298.3619072791561,108.94632575836467" style="stroke: rgb(255, 255, 255); stroke-opacity: 1; stroke-width: 1px;"/><path class="angularaxisgrid" d="M400,190L343.59511391471756,72.87404717268547" style="stroke: rgb(255, 255, 255); stroke-opacity: 1; stroke-width: 1px;"/></g><g class="polarsublayer radial-grid" transform="translate(400,190)" style="fill: none;"><path class="xgrid" d="M24.7,0A24.7,24.7 0,1,0 -24.7,-3.024877593893962e-15A24.7,24.7 0,1,0 24.7,6.049755187787924e-15Z" style="stroke: rgb(255, 255, 255); stroke-opacity: 1; stroke-width: 1px;"/><path class="xgrid" d="M49.4,0A49.4,49.4 0,1,0 -49.4,-6.049755187787924e-15A49.4,49.4 0,1,0 49.4,1.2099510375575849e-14Z" style="stroke: rgb(255, 255, 255); stroke-opacity: 1; stroke-width: 1px;"/><path class="xgrid" d="M74.1,0A74.1,74.1 0,1,0 -74.1,-9.074632781681886e-15A74.1,74.1 0,1,0 74.1,1.8149265563363772e-14Z" style="stroke: rgb(255, 255, 255); stroke-opacity: 1; stroke-width: 1px;"/><path class="xgrid" d="M98.8,0A98.8,98.8 0,1,0 -98.8,-1.2099510375575849e-14A98.8,98.8 0,1,0 98.8,2.4199020751151697e-14Z" style="stroke: rgb(255, 255, 255); stroke-opacity: 1; stroke-width: 1px;"/><path class="xgrid" d="M123.5,0A123.5,123.5 0,1,0 -123.5,-1.5124387969469813e-14A123.5,123.5 0,1,0 123.5,3.0248775938939626e-14Z" style="stroke: rgb(255, 255, 255); stroke-opacity: 1; stroke-width: 1px;"/></g><g class="polarsublayer frontplot" transform="translate(270,60)" clip-path="url(#clip3c5f7dpolar-for-traces)"><g class="barlayer"><g class="trace bars" style="opacity: 1;"><g class="points"><g class="point" style="vector-effect: none; stroke-miterlimit: 2;"><path d="M130,130L154.77279284923418,9.010088294730409A123.5,123.5 0,0,0 105.22720715076582,9.010088294730409L130,130A0,0 0,0,1 130,130Z" style="opacity: 1; stroke-width: 0.5px; fill: rgb(99, 110, 250); fill-opacity: 1; stroke: rgb(229, 236, 246); stroke-opacity: 1;"/></g><g class="point" style="vector-effect: none; stroke-miterlimit: 2;"><path d="M0,0Z" style="opacity: 1; stroke-width: 0.5px; fill: rgb(99, 110, 250); fill-opacity: 1; stroke: rgb(229, 236, 246); stroke-opacity: 1;"/></g><g class="point" style="vector-effect: none; stroke-miterlimit: 2;"><path d="M130,130L240.03930573726345,73.93217328216599A123.5,123.5 0,0,0 209.1481383271505,35.19587456578563L130,130A0,0 0,0,1 130,130Z" style="opacity: 1; stroke-width: 0.5px; fill: rgb(99, 110, 250); fill-opacity: 1; stroke: rgb(229, 236, 246); stroke-opacity: 1;"/></g><g class="point" style="vector-effect: none; stroke-miterlimit: 2;"><path d="M0,0Z" style="opacity: 1; stroke-width: 0.5px; fill: rgb(99, 110, 250); fill-opacity: 1; stroke: rgb(229, 236, 246); stroke-opacity: 1;"/></g><g class="point" style="vector-effect: none; stroke-miterlimit: 2;"><path d="M0,0Z" style="opacity: 1; stroke-width: 0.5px; fill: rgb(99, 110, 250); fill-opacity: 1; stroke: rgb(229, 236, 246); stroke-opacity: 1;"/></g><g class="point" style="vector-effect: none; stroke-miterlimit: 2;"><path d="M130,130L209.1481383271505,224.80412543421437A123.5,123.5 0,0,0 240.03930573726342,186.067826717834L130,130A0,0 0,0,1 130,130Z" style="opacity: 1; stroke-width: 0.5px; fill: rgb(99, 110, 250); fill-opacity: 1; stroke: rgb(229, 236, 246); stroke-opacity: 1;"/></g><g class="point" style="vector-effect: none; stroke-miterlimit: 2;"><path d="M130,130L160.1760401580299,249.75665576652082A123.5,123.5 0,0,0 204.81507041434128,228.25963178689994L130,130A0,0 0,0,1 130,130Z" style="opacity: 1; stroke-width: 0.5px; fill: rgb(99, 110, 250); fill-opacity: 1; stroke: rgb(229, 236, 246); stroke-opacity: 1;"/></g><g class="point" style="vector-effect: none; stroke-miterlimit: 2;"><path d="M130,130L123.80680178769146,160.2474779263174A30.875,30.875 0,0,0 136.19319821230854,160.2474779263174L130,130A0,0 0,0,1 130,130Z" style="opacity: 1; stroke-width: 0.5px; fill: rgb(99, 110, 250); fill-opacity: 1; stroke: rgb(229, 236, 246); stroke-opacity: 1;"/></g><g class="point" style="vector-effect: none; stroke-miterlimit: 2;"><path d="M130,130L98.56655010153581,171.28365041574568A51.888356730279654,51.888356730279654 0,0,0 117.32157784269555,180.3155957509193L130,130A0,0 0,0,1 130,130Z" style="opacity: 1; stroke-width: 0.5px; fill: rgb(99, 110, 250); fill-opacity: 1; stroke: rgb(229, 236, 246); stroke-opacity: 1;"/></g><g class="point" style="vector-effect: none; stroke-miterlimit: 2;"><path d="M130,130L19.960694262736524,186.06782671783395A123.5,123.5 0,0,0 50.85186167284948,224.80412543421434L130,130A0,0 0,0,1 130,130Z" style="opacity: 1; stroke-width: 0.5px; fill: rgb(99, 110, 250); fill-opacity: 1; stroke: rgb(229, 236, 246); stroke-opacity: 1;"/></g><g class="point" style="vector-effect: none; stroke-miterlimit: 2;"><path d="M130,130L119.02276841417047,130.2463698554336A10.97999596514497,10.97999596514497 0,0,0 120.00296021133111,134.54087071588378L130,130A0,0 0,0,1 130,130Z" style="opacity: 1; stroke-width: 0.5px; fill: rgb(99, 110, 250); fill-opacity: 1; stroke: rgb(229, 236, 246); stroke-opacity: 1;"/></g><g class="point" style="vector-effect: none; stroke-miterlimit: 2;"><path d="M130,130L17.55602298763627,78.9255246366346A123.5,123.5 0,0,0 6.531092984600448,127.2288990594681L130,130A0,0 0,0,1 130,130Z" style="opacity: 1; stroke-width: 0.5px; fill: rgb(99, 110, 250); fill-opacity: 1; stroke: rgb(229, 236, 246); stroke-opacity: 1;"/></g><g class="point" style="vector-effect: none; stroke-miterlimit: 2;"><path d="M130,130L50.85186167284951,35.195874565785644A123.5,123.5 0,0,0 19.960694262736567,73.93217328216599L130,130A0,0 0,0,1 130,130Z" style="opacity: 1; stroke-width: 0.5px; fill: rgb(99, 110, 250); fill-opacity: 1; stroke: rgb(229, 236, 246); stroke-opacity: 1;"/></g><g class="point" style="vector-effect: none; stroke-miterlimit: 2;"><path d="M130,130L127.36893038314534,119.55833513100723A10.768049617507039,10.768049617507039 0,0,0 123.47682275013028,121.43267538073432L130,130A0,0 0,0,1 130,130Z" style="opacity: 1; stroke-width: 0.5px; fill: rgb(99, 110, 250); fill-opacity: 1; stroke: rgb(229, 236, 246); stroke-opacity: 1;"/></g></g></g></g><g class="scatterlayer"/></g><g class="polarsublayer angular-line"><path d="M130,0A130,130 0,1,0 -130,-1.592040838891559e-14A130,130 0,1,0 130,3.184081677783118e-14Z" transform="translate(400,190)" stroke-width="1" style="fill: none; stroke: rgb(255, 255, 255); stroke-opacity: 1;"/></g><g class="polarsublayer radial-line"><line x1="0" y1="0" x2="130" y2="0" transform="translate(400,190)" stroke-width="1" style="fill: none; stroke: rgb(255, 255, 255); stroke-opacity: 1;"/></g><g class="polarsublayer angular-axis"><g class="angularaxistick"><text text-anchor="middle" x="1.7757378587636624e-16" y="-5.300000000000001" transform="translate(400,60)" style="font-family: 'Open Sans', verdana, arial, sans-serif; font-size: 12px; fill: rgb(42, 63, 95); fill-opacity: 1; white-space: pre; opacity: 1;">P_charged_centers</text></g><g class="angularaxistick"><text text-anchor="start" x="1.2582628434409189" y="-2.952823295589078" transform="translate(456.40488608528256,72.87404717268551)" style="font-family: 'Open Sans', verdana, arial, sans-serif; font-size: 12px; fill: rgb(42, 63, 95); fill-opacity: 1; white-space: pre; opacity: 1;">N_charged_centers</text></g><g class="angularaxistick"><text text-anchor="start" x="2.267311299157287" y="-0.020803723485563363" transform="translate(501.6380927208439,108.94632575836465)" style="font-family: 'Open Sans', verdana, arial, sans-serif; font-size: 12px; fill: rgb(42, 63, 95); fill-opacity: 1; white-space: pre; opacity: 1;">cLogP</text></g><g class="angularaxistick"><text text-anchor="start" x="2.827290945327289" y="2.9153362811951924" transform="translate(526.7406285836371,161.07227858567913)" style="font-family: 'Open Sans', verdana, arial, sans-serif; font-size: 12px; fill: rgb(42, 63, 95); fill-opacity: 1; white-space: pre; opacity: 1;">Hbond_D</text></g><g class="angularaxistick"><text text-anchor="start" x="2.827290945327289" y="7.410259147112743" transform="translate(526.7406285836371,218.92772141432087)" style="font-family: 'Open Sans', verdana, arial, sans-serif; font-size: 12px; fill: rgb(42, 63, 95); fill-opacity: 1; white-space: pre; opacity: 1;">Hbond_A</text></g><g class="angularaxistick"><text text-anchor="start" x="2.267311299157287" y="12.573690274060853" transform="translate(501.6380927208439,271.05367424163535)" style="font-family: 'Open Sans', verdana, arial, sans-serif; font-size: 12px; fill: rgb(42, 63, 95); fill-opacity: 1; white-space: pre; opacity: 1;">Total_Carbon_Tails</text></g><g class="angularaxistick"><text text-anchor="start" x="1.2582628434409189" y="15.24674783603979" transform="translate(456.40488608528256,307.1259528273145)" style="font-family: 'Open Sans', verdana, arial, sans-serif; font-size: 12px; fill: rgb(42, 63, 95); fill-opacity: 1; white-space: pre; opacity: 1;">Double_bonds</text></g><g class="angularaxistick"><text text-anchor="middle" x="1.7757378587636624e-16" y="14.9" transform="translate(400,320)" style="font-family: 'Open Sans', verdana, arial, sans-serif; font-size: 12px; fill: rgb(42, 63, 95); fill-opacity: 1; white-space: pre; opacity: 1;">Size</text></g><g class="angularaxistick"><text text-anchor="end" x="-1.2582628434409184" y="15.24674783603979" transform="translate(343.59511391471744,307.1259528273145)" style="font-family: 'Open Sans', verdana, arial, sans-serif; font-size: 12px; fill: rgb(42, 63, 95); fill-opacity: 1; white-space: pre; opacity: 1;">Zeta</text></g><g class="angularaxistick"><text text-anchor="end" x="-2.2673112991572864" y="12.573690274060855" transform="translate(298.3619072791561,271.05367424163535)" style="font-family: 'Open Sans', verdana, arial, sans-serif; font-size: 12px; fill: rgb(42, 63, 95); fill-opacity: 1; white-space: pre; opacity: 1;">NP_ratio</text></g><g class="angularaxistick"><text text-anchor="end" x="-2.827290945327289" y="7.410259147112745" transform="translate(273.2593714163629,218.9277214143209)" style="font-family: 'Open Sans', verdana, arial, sans-serif; font-size: 12px; fill: rgb(42, 63, 95); fill-opacity: 1; white-space: pre; opacity: 1;">PEG_(Chol+PEG)</text></g><g class="angularaxistick"><text text-anchor="end" x="-2.8272909453272894" y="2.9153362811951986" transform="translate(273.2593714163629,161.07227858567927)" style="font-family: 'Open Sans', verdana, arial, sans-serif; font-size: 12px; fill: rgb(42, 63, 95); fill-opacity: 1; white-space: pre; opacity: 1;">(IL+HL)</text></g><g class="angularaxistick"><text text-anchor="end" x="-2.2673112991572872" y="-0.02080372348556203" transform="translate(298.3619072791561,108.94632575836467)" style="font-family: 'Open Sans', verdana, arial, sans-serif; font-size: 12px; fill: rgb(42, 63, 95); fill-opacity: 1; white-space: pre; opacity: 1;">HL_(IL+HL)</text></g><g class="angularaxistick"><text text-anchor="end" x="-1.2582628434409169" y="-2.9528232955890834" transform="translate(343.59511391471756,72.87404717268547)" style="font-family: 'Open Sans', verdana, arial, sans-serif; font-size: 12px; fill: rgb(42, 63, 95); fill-opacity: 1; white-space: pre; opacity: 1;">Lipid_NA_ratio</text></g></g><g class="polarsublayer radial-axis" transform="translate(400,190)"><g class="xtick"><text text-anchor="middle" x="0" y="14.9" transform="" style="font-family: 'Open Sans', verdana, arial, sans-serif; font-size: 12px; fill: rgb(42, 63, 95); fill-opacity: 1; white-space: pre; opacity: 1;">0</text></g><g class="xtick"><text text-anchor="middle" x="0" y="14.9" transform="translate(24.7,0)" style="font-family: 'Open Sans', verdana, arial, sans-serif; font-size: 12px; fill: rgb(42, 63, 95); fill-opacity: 1; white-space: pre; opacity: 1;">0.2</text></g><g class="xtick"><text text-anchor="middle" x="0" y="14.9" transform="translate(49.4,0)" style="font-family: 'Open Sans', verdana, arial, sans-serif; font-size: 12px; fill: rgb(42, 63, 95); fill-opacity: 1; white-space: pre; opacity: 1;">0.4</text></g><g class="xtick"><text text-anchor="middle" x="0" y="14.9" transform="translate(74.1,0)" style="font-family: 'Open Sans', verdana, arial, sans-serif; font-size: 12px; fill: rgb(42, 63, 95); fill-opacity: 1; white-space: pre; opacity: 1;">0.6</text></g><g class="xtick"><text text-anchor="middle" x="0" y="14.9" transform="translate(98.8,0)" style="font-family: 'Open Sans', verdana, arial, sans-serif; font-size: 12px; fill: rgb(42, 63, 95); fill-opacity: 1; white-space: pre; opacity: 1;">0.8</text></g><g class="xtick"><text text-anchor="middle" x="0" y="14.9" transform="translate(123.5,0)" style="font-family: 'Open Sans', verdana, arial, sans-serif; font-size: 12px; fill: rgb(42, 63, 95); fill-opacity: 1; white-space: pre; opacity: 1;">1</text></g></g></g></g><g class="smithlayer"/><g class="ternarylayer"/><g class="geolayer"/><g class="funnelarealayer"/><g class="pielayer"/><g class="iciclelayer"/><g class="treemaplayer"/><g class="sunburstlayer"/><g class="glimages"/><defs id="topdefs-3c5f7d"><g class="clips"/></defs><g class="layer-above"><g class="imagelayer"/><g class="shapelayer"/></g><g class="infolayer"><g class="g-gtitle"/><g class="g-polartitle"/></g></svg>