<?xml version="1.0" encoding="utf-8" standalone="no"?>
<!DOCTYPE svg PUBLIC "-//W3C//DTD SVG 1.1//EN"
  "http://www.w3.org/Graphics/SVG/1.1/DTD/svg11.dtd">
<svg xmlns:xlink="http://www.w3.org/1999/xlink" width="418.142451pt" height="255.013028pt" viewBox="0 0 418.142451 255.013028" xmlns="http://www.w3.org/2000/svg" version="1.1">
 <metadata>
  <rdf:RDF xmlns:dc="http://purl.org/dc/elements/1.1/" xmlns:cc="http://creativecommons.org/ns#" xmlns:rdf="http://www.w3.org/1999/02/22-rdf-syntax-ns#">
   <cc:Work>
    <dc:type rdf:resource="http://purl.org/dc/dcmitype/StillImage"/>
    <dc:date>2024-08-26T17:41:51.399801</dc:date>
    <dc:format>image/svg+xml</dc:format>
    <dc:creator>
     <cc:Agent>
      <dc:title>Matplotlib v3.6.3, https://matplotlib.org/</dc:title>
     </cc:Agent>
    </dc:creator>
   </cc:Work>
  </rdf:RDF>
 </metadata>
 <defs>
  <style type="text/css">*{stroke-linejoin: round; stroke-linecap: butt}</style>
 </defs>
 <g id="figure_1">
  <g id="patch_1">
   <path d="M 0 255.013028 
L 418.142451 255.013028 
L 418.142451 0 
L 0 0 
L 0 255.013028 
z
" style="fill: none"/>
  </g>
  <g id="axes_1">
   <g id="patch_2">
    <path d="M 96.109482 229.692403 
L 375.109482 229.692403 
L 375.109482 7.932403 
L 96.109482 7.932403 
L 96.109482 229.692403 
z
" style="fill: none"/>
   </g>
   <g id="matplotlib.axis_1">
    <g id="xtick_1">
     <g id="line2d_1">
      <path d="M 100.336754 229.692403 
L 100.336754 7.932403 
" clip-path="url(#p8eaacff623)" style="fill: none; stroke: #000000; stroke-opacity: 0.8; stroke-width: 0.8; stroke-linecap: round"/>
     </g>
     <g id="text_1">
      <!-- Feature -->
      <g style="fill: #262626" transform="translate(79.661129 245.281778) scale(0.12 -0.12)">
       <defs>
        <path id="ArialMT-46" d="M 525 0 
L 525 4581 
L 3616 4581 
L 3616 4041 
L 1131 4041 
L 1131 2622 
L 3281 2622 
L 3281 2081 
L 1131 2081 
L 1131 0 
L 525 0 
z
" transform="scale(0.015625)"/>
        <path id="ArialMT-65" d="M 2694 1069 
L 3275 997 
Q 3138 488 2766 206 
Q 2394 -75 1816 -75 
Q 1088 -75 661 373 
Q 234 822 234 1631 
Q 234 2469 665 2931 
Q 1097 3394 1784 3394 
Q 2450 3394 2872 2941 
Q 3294 2488 3294 1666 
Q 3294 1616 3291 1516 
L 816 1516 
Q 847 969 1125 678 
Q 1403 388 1819 388 
Q 2128 388 2347 550 
Q 2566 713 2694 1069 
z
M 847 1978 
L 2700 1978 
Q 2663 2397 2488 2606 
Q 2219 2931 1791 2931 
Q 1403 2931 1139 2672 
Q 875 2413 847 1978 
z
" transform="scale(0.015625)"/>
        <path id="ArialMT-61" d="M 2588 409 
Q 2275 144 1986 34 
Q 1697 -75 1366 -75 
Q 819 -75 525 192 
Q 231 459 231 875 
Q 231 1119 342 1320 
Q 453 1522 633 1644 
Q 813 1766 1038 1828 
Q 1203 1872 1538 1913 
Q 2219 1994 2541 2106 
Q 2544 2222 2544 2253 
Q 2544 2597 2384 2738 
Q 2169 2928 1744 2928 
Q 1347 2928 1158 2789 
Q 969 2650 878 2297 
L 328 2372 
Q 403 2725 575 2942 
Q 747 3159 1072 3276 
Q 1397 3394 1825 3394 
Q 2250 3394 2515 3294 
Q 2781 3194 2906 3042 
Q 3031 2891 3081 2659 
Q 3109 2516 3109 2141 
L 3109 1391 
Q 3109 606 3145 398 
Q 3181 191 3288 0 
L 2700 0 
Q 2613 175 2588 409 
z
M 2541 1666 
Q 2234 1541 1622 1453 
Q 1275 1403 1131 1340 
Q 988 1278 909 1158 
Q 831 1038 831 891 
Q 831 666 1001 516 
Q 1172 366 1500 366 
Q 1825 366 2078 508 
Q 2331 650 2450 897 
Q 2541 1088 2541 1459 
L 2541 1666 
z
" transform="scale(0.015625)"/>
        <path id="ArialMT-74" d="M 1650 503 
L 1731 6 
Q 1494 -44 1306 -44 
Q 1000 -44 831 53 
Q 663 150 594 308 
Q 525 466 525 972 
L 525 2881 
L 113 2881 
L 113 3319 
L 525 3319 
L 525 4141 
L 1084 4478 
L 1084 3319 
L 1650 3319 
L 1650 2881 
L 1084 2881 
L 1084 941 
Q 1084 700 1114 631 
Q 1144 563 1211 522 
Q 1278 481 1403 481 
Q 1497 481 1650 503 
z
" transform="scale(0.015625)"/>
        <path id="ArialMT-75" d="M 2597 0 
L 2597 488 
Q 2209 -75 1544 -75 
Q 1250 -75 995 37 
Q 741 150 617 320 
Q 494 491 444 738 
Q 409 903 409 1263 
L 409 3319 
L 972 3319 
L 972 1478 
Q 972 1038 1006 884 
Q 1059 663 1231 536 
Q 1403 409 1656 409 
Q 1909 409 2131 539 
Q 2353 669 2445 892 
Q 2538 1116 2538 1541 
L 2538 3319 
L 3100 3319 
L 3100 0 
L 2597 0 
z
" transform="scale(0.015625)"/>
        <path id="ArialMT-72" d="M 416 0 
L 416 3319 
L 922 3319 
L 922 2816 
Q 1116 3169 1280 3281 
Q 1444 3394 1641 3394 
Q 1925 3394 2219 3213 
L 2025 2691 
Q 1819 2813 1613 2813 
Q 1428 2813 1281 2702 
Q 1134 2591 1072 2394 
Q 978 2094 978 1738 
L 978 0 
L 416 0 
z
" transform="scale(0.015625)"/>
       </defs>
       <use xlink:href="#ArialMT-46"/>
       <use xlink:href="#ArialMT-65" x="61.083984"/>
       <use xlink:href="#ArialMT-61" x="116.699219"/>
       <use xlink:href="#ArialMT-74" x="172.314453"/>
       <use xlink:href="#ArialMT-75" x="200.097656"/>
       <use xlink:href="#ArialMT-72" x="255.712891"/>
       <use xlink:href="#ArialMT-65" x="289.013672"/>
      </g>
     </g>
    </g>
    <g id="xtick_2">
     <g id="line2d_2">
      <path d="M 142.609482 229.692403 
L 142.609482 7.932403 
" clip-path="url(#p8eaacff623)" style="fill: none; stroke: #000000; stroke-opacity: 0.8; stroke-width: 0.8; stroke-linecap: round"/>
     </g>
     <g id="text_2">
      <!-- B16 -->
      <g style="fill: #262626" transform="translate(131.934169 245.281778) scale(0.12 -0.12)">
       <defs>
        <path id="ArialMT-42" d="M 469 0 
L 469 4581 
L 2188 4581 
Q 2713 4581 3030 4442 
Q 3347 4303 3526 4014 
Q 3706 3725 3706 3409 
Q 3706 3116 3547 2856 
Q 3388 2597 3066 2438 
Q 3481 2316 3704 2022 
Q 3928 1728 3928 1328 
Q 3928 1006 3792 729 
Q 3656 453 3456 303 
Q 3256 153 2954 76 
Q 2653 0 2216 0 
L 469 0 
z
M 1075 2656 
L 2066 2656 
Q 2469 2656 2644 2709 
Q 2875 2778 2992 2937 
Q 3109 3097 3109 3338 
Q 3109 3566 3000 3739 
Q 2891 3913 2687 3977 
Q 2484 4041 1991 4041 
L 1075 4041 
L 1075 2656 
z
M 1075 541 
L 2216 541 
Q 2509 541 2628 563 
Q 2838 600 2978 687 
Q 3119 775 3209 942 
Q 3300 1109 3300 1328 
Q 3300 1584 3169 1773 
Q 3038 1963 2805 2039 
Q 2572 2116 2134 2116 
L 1075 2116 
L 1075 541 
z
" transform="scale(0.015625)"/>
        <path id="ArialMT-31" d="M 2384 0 
L 1822 0 
L 1822 3584 
Q 1619 3391 1289 3197 
Q 959 3003 697 2906 
L 697 3450 
Q 1169 3672 1522 3987 
Q 1875 4303 2022 4600 
L 2384 4600 
L 2384 0 
z
" transform="scale(0.015625)"/>
        <path id="ArialMT-36" d="M 3184 3459 
L 2625 3416 
Q 2550 3747 2413 3897 
Q 2184 4138 1850 4138 
Q 1581 4138 1378 3988 
Q 1113 3794 959 3422 
Q 806 3050 800 2363 
Q 1003 2672 1297 2822 
Q 1591 2972 1913 2972 
Q 2475 2972 2870 2558 
Q 3266 2144 3266 1488 
Q 3266 1056 3080 686 
Q 2894 316 2569 119 
Q 2244 -78 1831 -78 
Q 1128 -78 684 439 
Q 241 956 241 2144 
Q 241 3472 731 4075 
Q 1159 4600 1884 4600 
Q 2425 4600 2770 4297 
Q 3116 3994 3184 3459 
z
M 888 1484 
Q 888 1194 1011 928 
Q 1134 663 1356 523 
Q 1578 384 1822 384 
Q 2178 384 2434 671 
Q 2691 959 2691 1453 
Q 2691 1928 2437 2201 
Q 2184 2475 1800 2475 
Q 1419 2475 1153 2201 
Q 888 1928 888 1484 
z
" transform="scale(0.015625)"/>
       </defs>
       <use xlink:href="#ArialMT-42"/>
       <use xlink:href="#ArialMT-31" x="66.699219"/>
       <use xlink:href="#ArialMT-36" x="122.314453"/>
      </g>
     </g>
    </g>
    <g id="xtick_3">
     <g id="line2d_3">
      <path d="M 184.882209 229.692403 
L 184.882209 7.932403 
" clip-path="url(#p8eaacff623)" style="fill: none; stroke: #000000; stroke-opacity: 0.8; stroke-width: 0.8; stroke-linecap: round"/>
     </g>
     <g id="text_3">
      <!-- HepG2 -->
      <g style="fill: #262626" transform="translate(165.872522 245.428028) scale(0.12 -0.12)">
       <defs>
        <path id="ArialMT-48" d="M 513 0 
L 513 4581 
L 1119 4581 
L 1119 2700 
L 3500 2700 
L 3500 4581 
L 4106 4581 
L 4106 0 
L 3500 0 
L 3500 2159 
L 1119 2159 
L 1119 0 
L 513 0 
z
" transform="scale(0.015625)"/>
        <path id="ArialMT-70" d="M 422 -1272 
L 422 3319 
L 934 3319 
L 934 2888 
Q 1116 3141 1344 3267 
Q 1572 3394 1897 3394 
Q 2322 3394 2647 3175 
Q 2972 2956 3137 2557 
Q 3303 2159 3303 1684 
Q 3303 1175 3120 767 
Q 2938 359 2589 142 
Q 2241 -75 1856 -75 
Q 1575 -75 1351 44 
Q 1128 163 984 344 
L 984 -1272 
L 422 -1272 
z
M 931 1641 
Q 931 1000 1190 694 
Q 1450 388 1819 388 
Q 2194 388 2461 705 
Q 2728 1022 2728 1688 
Q 2728 2322 2467 2637 
Q 2206 2953 1844 2953 
Q 1484 2953 1207 2617 
Q 931 2281 931 1641 
z
" transform="scale(0.015625)"/>
        <path id="ArialMT-47" d="M 2638 1797 
L 2638 2334 
L 4578 2338 
L 4578 638 
Q 4131 281 3656 101 
Q 3181 -78 2681 -78 
Q 2006 -78 1454 211 
Q 903 500 622 1047 
Q 341 1594 341 2269 
Q 341 2938 620 3517 
Q 900 4097 1425 4378 
Q 1950 4659 2634 4659 
Q 3131 4659 3532 4498 
Q 3934 4338 4162 4050 
Q 4391 3763 4509 3300 
L 3963 3150 
Q 3859 3500 3706 3700 
Q 3553 3900 3268 4020 
Q 2984 4141 2638 4141 
Q 2222 4141 1919 4014 
Q 1616 3888 1430 3681 
Q 1244 3475 1141 3228 
Q 966 2803 966 2306 
Q 966 1694 1177 1281 
Q 1388 869 1791 669 
Q 2194 469 2647 469 
Q 3041 469 3416 620 
Q 3791 772 3984 944 
L 3984 1797 
L 2638 1797 
z
" transform="scale(0.015625)"/>
        <path id="ArialMT-32" d="M 3222 541 
L 3222 0 
L 194 0 
Q 188 203 259 391 
Q 375 700 629 1000 
Q 884 1300 1366 1694 
Q 2113 2306 2375 2664 
Q 2638 3022 2638 3341 
Q 2638 3675 2398 3904 
Q 2159 4134 1775 4134 
Q 1369 4134 1125 3890 
Q 881 3647 878 3216 
L 300 3275 
Q 359 3922 746 4261 
Q 1134 4600 1788 4600 
Q 2447 4600 2831 4234 
Q 3216 3869 3216 3328 
Q 3216 3053 3103 2787 
Q 2991 2522 2730 2228 
Q 2469 1934 1863 1422 
Q 1356 997 1212 845 
Q 1069 694 975 541 
L 3222 541 
z
" transform="scale(0.015625)"/>
       </defs>
       <use xlink:href="#ArialMT-48"/>
       <use xlink:href="#ArialMT-65" x="72.216797"/>
       <use xlink:href="#ArialMT-70" x="127.832031"/>
       <use xlink:href="#ArialMT-47" x="183.447266"/>
       <use xlink:href="#ArialMT-32" x="261.230469"/>
      </g>
     </g>
    </g>
    <g id="xtick_4">
     <g id="line2d_4">
      <path d="M 227.154936 229.692403 
L 227.154936 7.932403 
" clip-path="url(#p8eaacff623)" style="fill: none; stroke: #000000; stroke-opacity: 0.8; stroke-width: 0.8; stroke-linecap: round"/>
     </g>
     <g id="text_4">
      <!-- PC3 -->
      <g style="fill: #262626" transform="translate(215.483061 245.281778) scale(0.12 -0.12)">
       <defs>
        <path id="ArialMT-50" d="M 494 0 
L 494 4581 
L 2222 4581 
Q 2678 4581 2919 4538 
Q 3256 4481 3484 4323 
Q 3713 4166 3852 3881 
Q 3991 3597 3991 3256 
Q 3991 2672 3619 2267 
Q 3247 1863 2275 1863 
L 1100 1863 
L 1100 0 
L 494 0 
z
M 1100 2403 
L 2284 2403 
Q 2872 2403 3119 2622 
Q 3366 2841 3366 3238 
Q 3366 3525 3220 3729 
Q 3075 3934 2838 4000 
Q 2684 4041 2272 4041 
L 1100 4041 
L 1100 2403 
z
" transform="scale(0.015625)"/>
        <path id="ArialMT-43" d="M 3763 1606 
L 4369 1453 
Q 4178 706 3683 314 
Q 3188 -78 2472 -78 
Q 1731 -78 1267 223 
Q 803 525 561 1097 
Q 319 1669 319 2325 
Q 319 3041 592 3573 
Q 866 4106 1370 4382 
Q 1875 4659 2481 4659 
Q 3169 4659 3637 4309 
Q 4106 3959 4291 3325 
L 3694 3184 
Q 3534 3684 3231 3912 
Q 2928 4141 2469 4141 
Q 1941 4141 1586 3887 
Q 1231 3634 1087 3207 
Q 944 2781 944 2328 
Q 944 1744 1114 1308 
Q 1284 872 1643 656 
Q 2003 441 2422 441 
Q 2931 441 3284 734 
Q 3638 1028 3763 1606 
z
" transform="scale(0.015625)"/>
        <path id="ArialMT-33" d="M 269 1209 
L 831 1284 
Q 928 806 1161 595 
Q 1394 384 1728 384 
Q 2125 384 2398 659 
Q 2672 934 2672 1341 
Q 2672 1728 2419 1979 
Q 2166 2231 1775 2231 
Q 1616 2231 1378 2169 
L 1441 2663 
Q 1497 2656 1531 2656 
Q 1891 2656 2178 2843 
Q 2466 3031 2466 3422 
Q 2466 3731 2256 3934 
Q 2047 4138 1716 4138 
Q 1388 4138 1169 3931 
Q 950 3725 888 3313 
L 325 3413 
Q 428 3978 793 4289 
Q 1159 4600 1703 4600 
Q 2078 4600 2393 4439 
Q 2709 4278 2876 4000 
Q 3044 3722 3044 3409 
Q 3044 3113 2884 2869 
Q 2725 2625 2413 2481 
Q 2819 2388 3044 2092 
Q 3269 1797 3269 1353 
Q 3269 753 2831 336 
Q 2394 -81 1725 -81 
Q 1122 -81 723 278 
Q 325 638 269 1209 
z
" transform="scale(0.015625)"/>
       </defs>
       <use xlink:href="#ArialMT-50"/>
       <use xlink:href="#ArialMT-43" x="66.699219"/>
       <use xlink:href="#ArialMT-33" x="138.916016"/>
      </g>
     </g>
    </g>
    <g id="xtick_5">
     <g id="line2d_5">
      <path d="M 269.427664 229.692403 
L 269.427664 7.932403 
" clip-path="url(#p8eaacff623)" style="fill: none; stroke: #000000; stroke-opacity: 0.8; stroke-width: 0.8; stroke-linecap: round"/>
     </g>
     <g id="text_5">
      <!-- HEK293 -->
      <g style="fill: #262626" transform="translate(247.080476 245.281778) scale(0.12 -0.12)">
       <defs>
        <path id="ArialMT-45" d="M 506 0 
L 506 4581 
L 3819 4581 
L 3819 4041 
L 1113 4041 
L 1113 2638 
L 3647 2638 
L 3647 2100 
L 1113 2100 
L 1113 541 
L 3925 541 
L 3925 0 
L 506 0 
z
" transform="scale(0.015625)"/>
        <path id="ArialMT-4b" d="M 469 0 
L 469 4581 
L 1075 4581 
L 1075 2309 
L 3350 4581 
L 4172 4581 
L 2250 2725 
L 4256 0 
L 3456 0 
L 1825 2319 
L 1075 1588 
L 1075 0 
L 469 0 
z
" transform="scale(0.015625)"/>
        <path id="ArialMT-39" d="M 350 1059 
L 891 1109 
Q 959 728 1153 556 
Q 1347 384 1650 384 
Q 1909 384 2104 503 
Q 2300 622 2425 820 
Q 2550 1019 2634 1356 
Q 2719 1694 2719 2044 
Q 2719 2081 2716 2156 
Q 2547 1888 2255 1720 
Q 1963 1553 1622 1553 
Q 1053 1553 659 1965 
Q 266 2378 266 3053 
Q 266 3750 677 4175 
Q 1088 4600 1706 4600 
Q 2153 4600 2523 4359 
Q 2894 4119 3086 3673 
Q 3278 3228 3278 2384 
Q 3278 1506 3087 986 
Q 2897 466 2520 194 
Q 2144 -78 1638 -78 
Q 1100 -78 759 220 
Q 419 519 350 1059 
z
M 2653 3081 
Q 2653 3566 2395 3850 
Q 2138 4134 1775 4134 
Q 1400 4134 1122 3828 
Q 844 3522 844 3034 
Q 844 2597 1108 2323 
Q 1372 2050 1759 2050 
Q 2150 2050 2401 2323 
Q 2653 2597 2653 3081 
z
" transform="scale(0.015625)"/>
       </defs>
       <use xlink:href="#ArialMT-48"/>
       <use xlink:href="#ArialMT-45" x="72.216797"/>
       <use xlink:href="#ArialMT-4b" x="138.916016"/>
       <use xlink:href="#ArialMT-32" x="205.615234"/>
       <use xlink:href="#ArialMT-39" x="261.230469"/>
       <use xlink:href="#ArialMT-33" x="316.845703"/>
      </g>
     </g>
    </g>
    <g id="xtick_6">
     <g id="line2d_6">
      <path d="M 311.700391 229.692403 
L 311.700391 7.932403 
" clip-path="url(#p8eaacff623)" style="fill: none; stroke: #000000; stroke-opacity: 0.8; stroke-width: 0.8; stroke-linecap: round"/>
     </g>
     <g id="text_6">
      <!-- N2a -->
      <g style="fill: #262626" transform="translate(300.694141 245.281778) scale(0.12 -0.12)">
       <defs>
        <path id="ArialMT-4e" d="M 488 0 
L 488 4581 
L 1109 4581 
L 3516 984 
L 3516 4581 
L 4097 4581 
L 4097 0 
L 3475 0 
L 1069 3600 
L 1069 0 
L 488 0 
z
" transform="scale(0.015625)"/>
       </defs>
       <use xlink:href="#ArialMT-4e"/>
       <use xlink:href="#ArialMT-32" x="72.216797"/>
       <use xlink:href="#ArialMT-61" x="127.832031"/>
      </g>
     </g>
    </g>
    <g id="xtick_7">
     <g id="line2d_7">
      <path d="M 353.973118 229.692403 
L 353.973118 7.932403 
" clip-path="url(#p8eaacff623)" style="fill: none; stroke: #000000; stroke-opacity: 0.8; stroke-width: 0.8; stroke-linecap: round"/>
     </g>
     <g id="text_7">
      <!-- ARPE19 -->
      <g style="fill: #262626" transform="translate(330.960306 245.281778) scale(0.12 -0.12)">
       <defs>
        <path id="ArialMT-41" d="M -9 0 
L 1750 4581 
L 2403 4581 
L 4278 0 
L 3588 0 
L 3053 1388 
L 1138 1388 
L 634 0 
L -9 0 
z
M 1313 1881 
L 2866 1881 
L 2388 3150 
Q 2169 3728 2063 4100 
Q 1975 3659 1816 3225 
L 1313 1881 
z
" transform="scale(0.015625)"/>
        <path id="ArialMT-52" d="M 503 0 
L 503 4581 
L 2534 4581 
Q 3147 4581 3465 4457 
Q 3784 4334 3975 4021 
Q 4166 3709 4166 3331 
Q 4166 2844 3850 2509 
Q 3534 2175 2875 2084 
Q 3116 1969 3241 1856 
Q 3506 1613 3744 1247 
L 4541 0 
L 3778 0 
L 3172 953 
Q 2906 1366 2734 1584 
Q 2563 1803 2427 1890 
Q 2291 1978 2150 2013 
Q 2047 2034 1813 2034 
L 1109 2034 
L 1109 0 
L 503 0 
z
M 1109 2559 
L 2413 2559 
Q 2828 2559 3062 2645 
Q 3297 2731 3419 2920 
Q 3541 3109 3541 3331 
Q 3541 3656 3305 3865 
Q 3069 4075 2559 4075 
L 1109 4075 
L 1109 2559 
z
" transform="scale(0.015625)"/>
       </defs>
       <use xlink:href="#ArialMT-41"/>
       <use xlink:href="#ArialMT-52" x="66.699219"/>
       <use xlink:href="#ArialMT-50" x="138.916016"/>
       <use xlink:href="#ArialMT-45" x="205.615234"/>
       <use xlink:href="#ArialMT-31" x="272.314453"/>
       <use xlink:href="#ArialMT-39" x="327.929688"/>
      </g>
     </g>
    </g>
   </g>
   <g id="matplotlib.axis_2">
    <g id="ytick_1">
     <g id="line2d_8">
      <defs>
       <path id="m2857dbd79a" d="M 0 0 
L -3.5 0 
" style="stroke: #262626; stroke-width: 0.8"/>
      </defs>
      <g>
       <use xlink:href="#m2857dbd79a" x="96.109482" y="193.338304" style="fill: #262626; stroke: #262626; stroke-width: 0.8"/>
      </g>
     </g>
     <g id="text_8">
      <!-- Zeta -->
      <g style="fill: #262626" transform="translate(70.44584 212.094414) rotate(-45) scale(0.12 -0.12)">
       <defs>
        <path id="ArialMT-5a" d="M 128 0 
L 128 563 
L 2475 3497 
Q 2725 3809 2950 4041 
L 394 4041 
L 394 4581 
L 3675 4581 
L 3675 4041 
L 1103 863 
L 825 541 
L 3750 541 
L 3750 0 
L 128 0 
z
" transform="scale(0.015625)"/>
       </defs>
       <use xlink:href="#ArialMT-5a"/>
       <use xlink:href="#ArialMT-65" x="61.083984"/>
       <use xlink:href="#ArialMT-74" x="116.699219"/>
       <use xlink:href="#ArialMT-61" x="144.482422"/>
      </g>
     </g>
    </g>
    <g id="ytick_2">
     <g id="line2d_9">
      <g>
       <use xlink:href="#m2857dbd79a" x="96.109482" y="180.354698" style="fill: #262626; stroke: #262626; stroke-width: 0.8"/>
      </g>
     </g>
     <g id="text_9">
      <!-- DOTAP -->
      <g style="fill: #262626" transform="translate(58.818353 210.738295) rotate(-45) scale(0.12 -0.12)">
       <defs>
        <path id="ArialMT-44" d="M 494 0 
L 494 4581 
L 2072 4581 
Q 2606 4581 2888 4516 
Q 3281 4425 3559 4188 
Q 3922 3881 4101 3404 
Q 4281 2928 4281 2316 
Q 4281 1794 4159 1391 
Q 4038 988 3847 723 
Q 3656 459 3429 307 
Q 3203 156 2883 78 
Q 2563 0 2147 0 
L 494 0 
z
M 1100 541 
L 2078 541 
Q 2531 541 2789 625 
Q 3047 709 3200 863 
Q 3416 1078 3536 1442 
Q 3656 1806 3656 2325 
Q 3656 3044 3420 3430 
Q 3184 3816 2847 3947 
Q 2603 4041 2063 4041 
L 1100 4041 
L 1100 541 
z
" transform="scale(0.015625)"/>
        <path id="ArialMT-4f" d="M 309 2231 
Q 309 3372 921 4017 
Q 1534 4663 2503 4663 
Q 3138 4663 3647 4359 
Q 4156 4056 4423 3514 
Q 4691 2972 4691 2284 
Q 4691 1588 4409 1038 
Q 4128 488 3612 205 
Q 3097 -78 2500 -78 
Q 1853 -78 1343 234 
Q 834 547 571 1087 
Q 309 1628 309 2231 
z
M 934 2222 
Q 934 1394 1379 917 
Q 1825 441 2497 441 
Q 3181 441 3623 922 
Q 4066 1403 4066 2288 
Q 4066 2847 3877 3264 
Q 3688 3681 3323 3911 
Q 2959 4141 2506 4141 
Q 1863 4141 1398 3698 
Q 934 3256 934 2222 
z
" transform="scale(0.015625)"/>
        <path id="ArialMT-54" d="M 1659 0 
L 1659 4041 
L 150 4041 
L 150 4581 
L 3781 4581 
L 3781 4041 
L 2266 4041 
L 2266 0 
L 1659 0 
z
" transform="scale(0.015625)"/>
       </defs>
       <use xlink:href="#ArialMT-44"/>
       <use xlink:href="#ArialMT-4f" x="72.216797"/>
       <use xlink:href="#ArialMT-54" x="150"/>
       <use xlink:href="#ArialMT-41" x="203.708984"/>
       <use xlink:href="#ArialMT-50" x="270.408203"/>
      </g>
     </g>
    </g>
    <g id="ytick_3">
     <g id="line2d_10">
      <g>
       <use xlink:href="#m2857dbd79a" x="96.109482" y="167.371091" style="fill: #262626; stroke: #262626; stroke-width: 0.8"/>
      </g>
     </g>
     <g id="text_10">
      <!-- DSPC -->
      <g style="fill: #262626" transform="translate(63.847208 192.725833) rotate(-45) scale(0.12 -0.12)">
       <defs>
        <path id="ArialMT-53" d="M 288 1472 
L 859 1522 
Q 900 1178 1048 958 
Q 1197 738 1509 602 
Q 1822 466 2213 466 
Q 2559 466 2825 569 
Q 3091 672 3220 851 
Q 3350 1031 3350 1244 
Q 3350 1459 3225 1620 
Q 3100 1781 2813 1891 
Q 2628 1963 1997 2114 
Q 1366 2266 1113 2400 
Q 784 2572 623 2826 
Q 463 3081 463 3397 
Q 463 3744 659 4045 
Q 856 4347 1234 4503 
Q 1613 4659 2075 4659 
Q 2584 4659 2973 4495 
Q 3363 4331 3572 4012 
Q 3781 3694 3797 3291 
L 3216 3247 
Q 3169 3681 2898 3903 
Q 2628 4125 2100 4125 
Q 1550 4125 1298 3923 
Q 1047 3722 1047 3438 
Q 1047 3191 1225 3031 
Q 1400 2872 2139 2705 
Q 2878 2538 3153 2413 
Q 3553 2228 3743 1945 
Q 3934 1663 3934 1294 
Q 3934 928 3725 604 
Q 3516 281 3123 101 
Q 2731 -78 2241 -78 
Q 1619 -78 1198 103 
Q 778 284 539 648 
Q 300 1013 288 1472 
z
" transform="scale(0.015625)"/>
       </defs>
       <use xlink:href="#ArialMT-44"/>
       <use xlink:href="#ArialMT-53" x="72.216797"/>
       <use xlink:href="#ArialMT-50" x="138.916016"/>
       <use xlink:href="#ArialMT-43" x="205.615234"/>
      </g>
     </g>
    </g>
    <g id="ytick_4">
     <g id="line2d_11">
      <g>
       <use xlink:href="#m2857dbd79a" x="96.109482" y="154.387485" style="fill: #262626; stroke: #262626; stroke-width: 0.8"/>
      </g>
     </g>
     <g id="text_11">
      <!-- DOPE -->
      <g style="fill: #262626" transform="translate(63.375214 180.21422) rotate(-45) scale(0.12 -0.12)">
       <use xlink:href="#ArialMT-44"/>
       <use xlink:href="#ArialMT-4f" x="72.216797"/>
       <use xlink:href="#ArialMT-50" x="150"/>
       <use xlink:href="#ArialMT-45" x="216.699219"/>
      </g>
     </g>
    </g>
    <g id="ytick_5">
     <g id="line2d_12">
      <g>
       <use xlink:href="#m2857dbd79a" x="96.109482" y="141.403878" style="fill: #262626; stroke: #262626; stroke-width: 0.8"/>
      </g>
     </g>
     <g id="text_12">
      <!-- Double_bonds -->
      <g style="fill: #262626" transform="translate(32.699596 197.906232) rotate(-45) scale(0.12 -0.12)">
       <defs>
        <path id="ArialMT-6f" d="M 213 1659 
Q 213 2581 725 3025 
Q 1153 3394 1769 3394 
Q 2453 3394 2887 2945 
Q 3322 2497 3322 1706 
Q 3322 1066 3130 698 
Q 2938 331 2570 128 
Q 2203 -75 1769 -75 
Q 1072 -75 642 372 
Q 213 819 213 1659 
z
M 791 1659 
Q 791 1022 1069 705 
Q 1347 388 1769 388 
Q 2188 388 2466 706 
Q 2744 1025 2744 1678 
Q 2744 2294 2464 2611 
Q 2184 2928 1769 2928 
Q 1347 2928 1069 2612 
Q 791 2297 791 1659 
z
" transform="scale(0.015625)"/>
        <path id="ArialMT-62" d="M 941 0 
L 419 0 
L 419 4581 
L 981 4581 
L 981 2947 
Q 1338 3394 1891 3394 
Q 2197 3394 2470 3270 
Q 2744 3147 2920 2923 
Q 3097 2700 3197 2384 
Q 3297 2069 3297 1709 
Q 3297 856 2875 390 
Q 2453 -75 1863 -75 
Q 1275 -75 941 416 
L 941 0 
z
M 934 1684 
Q 934 1088 1097 822 
Q 1363 388 1816 388 
Q 2184 388 2453 708 
Q 2722 1028 2722 1663 
Q 2722 2313 2464 2622 
Q 2206 2931 1841 2931 
Q 1472 2931 1203 2611 
Q 934 2291 934 1684 
z
" transform="scale(0.015625)"/>
        <path id="ArialMT-6c" d="M 409 0 
L 409 4581 
L 972 4581 
L 972 0 
L 409 0 
z
" transform="scale(0.015625)"/>
        <path id="ArialMT-5f" d="M -97 -1272 
L -97 -866 
L 3631 -866 
L 3631 -1272 
L -97 -1272 
z
" transform="scale(0.015625)"/>
        <path id="ArialMT-6e" d="M 422 0 
L 422 3319 
L 928 3319 
L 928 2847 
Q 1294 3394 1984 3394 
Q 2284 3394 2536 3286 
Q 2788 3178 2913 3003 
Q 3038 2828 3088 2588 
Q 3119 2431 3119 2041 
L 3119 0 
L 2556 0 
L 2556 2019 
Q 2556 2363 2490 2533 
Q 2425 2703 2258 2804 
Q 2091 2906 1866 2906 
Q 1506 2906 1245 2678 
Q 984 2450 984 1813 
L 984 0 
L 422 0 
z
" transform="scale(0.015625)"/>
        <path id="ArialMT-64" d="M 2575 0 
L 2575 419 
Q 2259 -75 1647 -75 
Q 1250 -75 917 144 
Q 584 363 401 755 
Q 219 1147 219 1656 
Q 219 2153 384 2558 
Q 550 2963 881 3178 
Q 1213 3394 1622 3394 
Q 1922 3394 2156 3267 
Q 2391 3141 2538 2938 
L 2538 4581 
L 3097 4581 
L 3097 0 
L 2575 0 
z
M 797 1656 
Q 797 1019 1065 703 
Q 1334 388 1700 388 
Q 2069 388 2326 689 
Q 2584 991 2584 1609 
Q 2584 2291 2321 2609 
Q 2059 2928 1675 2928 
Q 1300 2928 1048 2622 
Q 797 2316 797 1656 
z
" transform="scale(0.015625)"/>
        <path id="ArialMT-73" d="M 197 991 
L 753 1078 
Q 800 744 1014 566 
Q 1228 388 1613 388 
Q 2000 388 2187 545 
Q 2375 703 2375 916 
Q 2375 1106 2209 1216 
Q 2094 1291 1634 1406 
Q 1016 1563 777 1677 
Q 538 1791 414 1992 
Q 291 2194 291 2438 
Q 291 2659 392 2848 
Q 494 3038 669 3163 
Q 800 3259 1026 3326 
Q 1253 3394 1513 3394 
Q 1903 3394 2198 3281 
Q 2494 3169 2634 2976 
Q 2775 2784 2828 2463 
L 2278 2388 
Q 2241 2644 2061 2787 
Q 1881 2931 1553 2931 
Q 1166 2931 1000 2803 
Q 834 2675 834 2503 
Q 834 2394 903 2306 
Q 972 2216 1119 2156 
Q 1203 2125 1616 2013 
Q 2213 1853 2448 1751 
Q 2684 1650 2818 1456 
Q 2953 1263 2953 975 
Q 2953 694 2789 445 
Q 2625 197 2315 61 
Q 2006 -75 1616 -75 
Q 969 -75 630 194 
Q 291 463 197 991 
z
" transform="scale(0.015625)"/>
       </defs>
       <use xlink:href="#ArialMT-44"/>
       <use xlink:href="#ArialMT-6f" x="72.216797"/>
       <use xlink:href="#ArialMT-75" x="127.832031"/>
       <use xlink:href="#ArialMT-62" x="183.447266"/>
       <use xlink:href="#ArialMT-6c" x="239.0625"/>
       <use xlink:href="#ArialMT-65" x="261.279297"/>
       <use xlink:href="#ArialMT-5f" x="316.894531"/>
       <use xlink:href="#ArialMT-62" x="372.509766"/>
       <use xlink:href="#ArialMT-6f" x="428.125"/>
       <use xlink:href="#ArialMT-6e" x="483.740234"/>
       <use xlink:href="#ArialMT-64" x="539.355469"/>
       <use xlink:href="#ArialMT-73" x="594.970703"/>
      </g>
     </g>
    </g>
    <g id="ytick_6">
     <g id="line2d_13">
      <g>
       <use xlink:href="#m2857dbd79a" x="96.109482" y="128.420272" style="fill: #262626; stroke: #262626; stroke-width: 0.8"/>
      </g>
     </g>
     <g id="text_13">
      <!-- Total_Carbon_Tails -->
      <g style="fill: #262626" transform="translate(15.268972 202.383539) rotate(-45) scale(0.12 -0.12)">
       <defs>
        <path id="ArialMT-69" d="M 425 3934 
L 425 4581 
L 988 4581 
L 988 3934 
L 425 3934 
z
M 425 0 
L 425 3319 
L 988 3319 
L 988 0 
L 425 0 
z
" transform="scale(0.015625)"/>
       </defs>
       <use xlink:href="#ArialMT-54"/>
       <use xlink:href="#ArialMT-6f" x="49.958984"/>
       <use xlink:href="#ArialMT-74" x="105.574219"/>
       <use xlink:href="#ArialMT-61" x="133.357422"/>
       <use xlink:href="#ArialMT-6c" x="188.972656"/>
       <use xlink:href="#ArialMT-5f" x="211.189453"/>
       <use xlink:href="#ArialMT-43" x="266.804688"/>
       <use xlink:href="#ArialMT-61" x="339.021484"/>
       <use xlink:href="#ArialMT-72" x="394.636719"/>
       <use xlink:href="#ArialMT-62" x="427.9375"/>
       <use xlink:href="#ArialMT-6f" x="483.552734"/>
       <use xlink:href="#ArialMT-6e" x="539.167969"/>
       <use xlink:href="#ArialMT-5f" x="594.783203"/>
       <use xlink:href="#ArialMT-54" x="650.398438"/>
       <use xlink:href="#ArialMT-61" x="700.357422"/>
       <use xlink:href="#ArialMT-69" x="755.972656"/>
       <use xlink:href="#ArialMT-6c" x="778.189453"/>
       <use xlink:href="#ArialMT-73" x="800.40625"/>
      </g>
     </g>
    </g>
    <g id="ytick_7">
     <g id="line2d_14">
      <g>
       <use xlink:href="#m2857dbd79a" x="96.109482" y="115.436665" style="fill: #262626; stroke: #262626; stroke-width: 0.8"/>
      </g>
     </g>
     <g id="text_14">
      <!-- Hbond_A -->
      <g style="fill: #262626" transform="translate(52.04206 152.596554) rotate(-45) scale(0.12 -0.12)">
       <use xlink:href="#ArialMT-48"/>
       <use xlink:href="#ArialMT-62" x="72.216797"/>
       <use xlink:href="#ArialMT-6f" x="127.832031"/>
       <use xlink:href="#ArialMT-6e" x="183.447266"/>
       <use xlink:href="#ArialMT-64" x="239.0625"/>
       <use xlink:href="#ArialMT-5f" x="294.677734"/>
       <use xlink:href="#ArialMT-41" x="350.292969"/>
      </g>
     </g>
    </g>
    <g id="ytick_8">
     <g id="line2d_15">
      <g>
       <use xlink:href="#m2857dbd79a" x="96.109482" y="102.453058" style="fill: #262626; stroke: #262626; stroke-width: 0.8"/>
      </g>
     </g>
     <g id="text_15">
      <!-- Hbond_D -->
      <g style="fill: #262626" transform="translate(51.574044 140.080964) rotate(-45) scale(0.12 -0.12)">
       <use xlink:href="#ArialMT-48"/>
       <use xlink:href="#ArialMT-62" x="72.216797"/>
       <use xlink:href="#ArialMT-6f" x="127.832031"/>
       <use xlink:href="#ArialMT-6e" x="183.447266"/>
       <use xlink:href="#ArialMT-64" x="239.0625"/>
       <use xlink:href="#ArialMT-5f" x="294.677734"/>
       <use xlink:href="#ArialMT-44" x="350.292969"/>
      </g>
     </g>
    </g>
    <g id="ytick_9">
     <g id="line2d_16">
      <g>
       <use xlink:href="#m2857dbd79a" x="96.109482" y="89.469452" style="fill: #262626; stroke: #262626; stroke-width: 0.8"/>
      </g>
     </g>
     <g id="text_16">
      <!-- cLogP -->
      <g style="fill: #262626" transform="translate(63.265171 115.306794) rotate(-45) scale(0.12 -0.12)">
       <defs>
        <path id="ArialMT-63" d="M 2588 1216 
L 3141 1144 
Q 3050 572 2676 248 
Q 2303 -75 1759 -75 
Q 1078 -75 664 370 
Q 250 816 250 1647 
Q 250 2184 428 2587 
Q 606 2991 970 3192 
Q 1334 3394 1763 3394 
Q 2303 3394 2647 3120 
Q 2991 2847 3088 2344 
L 2541 2259 
Q 2463 2594 2264 2762 
Q 2066 2931 1784 2931 
Q 1359 2931 1093 2626 
Q 828 2322 828 1663 
Q 828 994 1084 691 
Q 1341 388 1753 388 
Q 2084 388 2306 591 
Q 2528 794 2588 1216 
z
" transform="scale(0.015625)"/>
        <path id="ArialMT-4c" d="M 469 0 
L 469 4581 
L 1075 4581 
L 1075 541 
L 3331 541 
L 3331 0 
L 469 0 
z
" transform="scale(0.015625)"/>
        <path id="ArialMT-67" d="M 319 -275 
L 866 -356 
Q 900 -609 1056 -725 
Q 1266 -881 1628 -881 
Q 2019 -881 2231 -725 
Q 2444 -569 2519 -288 
Q 2563 -116 2559 434 
Q 2191 0 1641 0 
Q 956 0 581 494 
Q 206 988 206 1678 
Q 206 2153 378 2554 
Q 550 2956 876 3175 
Q 1203 3394 1644 3394 
Q 2231 3394 2613 2919 
L 2613 3319 
L 3131 3319 
L 3131 450 
Q 3131 -325 2973 -648 
Q 2816 -972 2473 -1159 
Q 2131 -1347 1631 -1347 
Q 1038 -1347 672 -1080 
Q 306 -813 319 -275 
z
M 784 1719 
Q 784 1066 1043 766 
Q 1303 466 1694 466 
Q 2081 466 2343 764 
Q 2606 1063 2606 1700 
Q 2606 2309 2336 2618 
Q 2066 2928 1684 2928 
Q 1309 2928 1046 2623 
Q 784 2319 784 1719 
z
" transform="scale(0.015625)"/>
       </defs>
       <use xlink:href="#ArialMT-63"/>
       <use xlink:href="#ArialMT-4c" x="50"/>
       <use xlink:href="#ArialMT-6f" x="105.615234"/>
       <use xlink:href="#ArialMT-67" x="161.230469"/>
       <use xlink:href="#ArialMT-50" x="216.845703"/>
      </g>
     </g>
    </g>
    <g id="ytick_10">
     <g id="line2d_17">
      <g>
       <use xlink:href="#m2857dbd79a" x="96.109482" y="76.485845" style="fill: #262626; stroke: #262626; stroke-width: 0.8"/>
      </g>
     </g>
     <g id="text_17">
      <!-- N_charged_centers -->
      <g style="fill: #262626" transform="translate(13.273605 152.314753) rotate(-45) scale(0.12 -0.12)">
       <defs>
        <path id="ArialMT-68" d="M 422 0 
L 422 4581 
L 984 4581 
L 984 2938 
Q 1378 3394 1978 3394 
Q 2347 3394 2619 3248 
Q 2891 3103 3008 2847 
Q 3125 2591 3125 2103 
L 3125 0 
L 2563 0 
L 2563 2103 
Q 2563 2525 2380 2717 
Q 2197 2909 1863 2909 
Q 1613 2909 1392 2779 
Q 1172 2650 1078 2428 
Q 984 2206 984 1816 
L 984 0 
L 422 0 
z
" transform="scale(0.015625)"/>
       </defs>
       <use xlink:href="#ArialMT-4e"/>
       <use xlink:href="#ArialMT-5f" x="72.216797"/>
       <use xlink:href="#ArialMT-63" x="127.832031"/>
       <use xlink:href="#ArialMT-68" x="177.832031"/>
       <use xlink:href="#ArialMT-61" x="233.447266"/>
       <use xlink:href="#ArialMT-72" x="289.0625"/>
       <use xlink:href="#ArialMT-67" x="322.363281"/>
       <use xlink:href="#ArialMT-65" x="377.978516"/>
       <use xlink:href="#ArialMT-64" x="433.59375"/>
       <use xlink:href="#ArialMT-5f" x="489.208984"/>
       <use xlink:href="#ArialMT-63" x="544.824219"/>
       <use xlink:href="#ArialMT-65" x="594.824219"/>
       <use xlink:href="#ArialMT-6e" x="650.439453"/>
       <use xlink:href="#ArialMT-74" x="706.054688"/>
       <use xlink:href="#ArialMT-65" x="733.837891"/>
       <use xlink:href="#ArialMT-72" x="789.453125"/>
       <use xlink:href="#ArialMT-73" x="822.753906"/>
      </g>
     </g>
    </g>
    <g id="ytick_11">
     <g id="line2d_18">
      <g>
       <use xlink:href="#m2857dbd79a" x="96.109482" y="63.502239" style="fill: #262626; stroke: #262626; stroke-width: 0.8"/>
      </g>
     </g>
     <g id="text_18">
      <!-- P_charged_centers -->
      <g style="fill: #262626" transform="translate(13.741622 138.86313) rotate(-45) scale(0.12 -0.12)">
       <use xlink:href="#ArialMT-50"/>
       <use xlink:href="#ArialMT-5f" x="66.699219"/>
       <use xlink:href="#ArialMT-63" x="122.314453"/>
       <use xlink:href="#ArialMT-68" x="172.314453"/>
       <use xlink:href="#ArialMT-61" x="227.929688"/>
       <use xlink:href="#ArialMT-72" x="283.544922"/>
       <use xlink:href="#ArialMT-67" x="316.845703"/>
       <use xlink:href="#ArialMT-65" x="372.460938"/>
       <use xlink:href="#ArialMT-64" x="428.076172"/>
       <use xlink:href="#ArialMT-5f" x="483.691406"/>
       <use xlink:href="#ArialMT-63" x="539.306641"/>
       <use xlink:href="#ArialMT-65" x="589.306641"/>
       <use xlink:href="#ArialMT-6e" x="644.921875"/>
       <use xlink:href="#ArialMT-74" x="700.537109"/>
       <use xlink:href="#ArialMT-65" x="728.320312"/>
       <use xlink:href="#ArialMT-72" x="783.935547"/>
       <use xlink:href="#ArialMT-73" x="817.236328"/>
      </g>
     </g>
    </g>
    <g id="ytick_12">
     <g id="line2d_19">
      <g>
       <use xlink:href="#m2857dbd79a" x="96.109482" y="50.518632" style="fill: #262626; stroke: #262626; stroke-width: 0.8"/>
      </g>
     </g>
     <g id="text_19">
      <!-- NP_ratio -->
      <g style="fill: #262626" transform="translate(54.41131 85.309272) rotate(-45) scale(0.12 -0.12)">
       <use xlink:href="#ArialMT-4e"/>
       <use xlink:href="#ArialMT-50" x="72.216797"/>
       <use xlink:href="#ArialMT-5f" x="138.916016"/>
       <use xlink:href="#ArialMT-72" x="194.53125"/>
       <use xlink:href="#ArialMT-61" x="227.832031"/>
       <use xlink:href="#ArialMT-74" x="283.447266"/>
       <use xlink:href="#ArialMT-69" x="311.230469"/>
       <use xlink:href="#ArialMT-6f" x="333.447266"/>
      </g>
     </g>
    </g>
    <g id="ytick_13">
     <g id="line2d_20">
      <g>
       <use xlink:href="#m2857dbd79a" x="96.109482" y="37.535026" style="fill: #262626; stroke: #262626; stroke-width: 0.8"/>
      </g>
     </g>
     <g id="text_20">
      <!-- PEG_(Chol+PEG) -->
      <g style="fill: #262626" transform="translate(18.708163 107.959665) rotate(-45) scale(0.12 -0.12)">
       <defs>
        <path id="ArialMT-28" d="M 1497 -1347 
Q 1031 -759 709 28 
Q 388 816 388 1659 
Q 388 2403 628 3084 
Q 909 3875 1497 4659 
L 1900 4659 
Q 1522 4009 1400 3731 
Q 1209 3300 1100 2831 
Q 966 2247 966 1656 
Q 966 153 1900 -1347 
L 1497 -1347 
z
" transform="scale(0.015625)"/>
        <path id="ArialMT-2b" d="M 1603 741 
L 1603 1997 
L 356 1997 
L 356 2522 
L 1603 2522 
L 1603 3769 
L 2134 3769 
L 2134 2522 
L 3381 2522 
L 3381 1997 
L 2134 1997 
L 2134 741 
L 1603 741 
z
" transform="scale(0.015625)"/>
        <path id="ArialMT-29" d="M 791 -1347 
L 388 -1347 
Q 1322 153 1322 1656 
Q 1322 2244 1188 2822 
Q 1081 3291 891 3722 
Q 769 4003 388 4659 
L 791 4659 
Q 1378 3875 1659 3084 
Q 1900 2403 1900 1659 
Q 1900 816 1576 28 
Q 1253 -759 791 -1347 
z
" transform="scale(0.015625)"/>
       </defs>
       <use xlink:href="#ArialMT-50"/>
       <use xlink:href="#ArialMT-45" x="66.699219"/>
       <use xlink:href="#ArialMT-47" x="133.398438"/>
       <use xlink:href="#ArialMT-5f" x="211.181641"/>
       <use xlink:href="#ArialMT-28" x="266.796875"/>
       <use xlink:href="#ArialMT-43" x="300.097656"/>
       <use xlink:href="#ArialMT-68" x="372.314453"/>
       <use xlink:href="#ArialMT-6f" x="427.929688"/>
       <use xlink:href="#ArialMT-6c" x="483.544922"/>
       <use xlink:href="#ArialMT-2b" x="505.761719"/>
       <use xlink:href="#ArialMT-50" x="564.160156"/>
       <use xlink:href="#ArialMT-45" x="630.859375"/>
       <use xlink:href="#ArialMT-47" x="697.558594"/>
       <use xlink:href="#ArialMT-29" x="775.341797"/>
      </g>
     </g>
    </g>
    <g id="ytick_14">
     <g id="line2d_21">
      <g>
       <use xlink:href="#m2857dbd79a" x="96.109482" y="24.551419" style="fill: #262626; stroke: #262626; stroke-width: 0.8"/>
      </g>
     </g>
     <g id="text_21">
      <!-- (IL+HL) -->
      <g style="fill: #262626" transform="translate(58.794488 54.889733) rotate(-45) scale(0.12 -0.12)">
       <defs>
        <path id="ArialMT-49" d="M 597 0 
L 597 4581 
L 1203 4581 
L 1203 0 
L 597 0 
z
" transform="scale(0.015625)"/>
       </defs>
       <use xlink:href="#ArialMT-28"/>
       <use xlink:href="#ArialMT-49" x="33.300781"/>
       <use xlink:href="#ArialMT-4c" x="61.083984"/>
       <use xlink:href="#ArialMT-2b" x="116.699219"/>
       <use xlink:href="#ArialMT-48" x="175.097656"/>
       <use xlink:href="#ArialMT-4c" x="247.314453"/>
       <use xlink:href="#ArialMT-29" x="302.929688"/>
      </g>
     </g>
    </g>
    <g id="ytick_15">
     <g id="line2d_22">
      <g>
       <use xlink:href="#m2857dbd79a" x="96.109482" y="11.567812" style="fill: #262626; stroke: #262626; stroke-width: 0.8"/>
      </g>
     </g>
     <g id="text_22">
      <!-- HL_(IL+HL) -->
      <g style="fill: #262626" transform="translate(43.2293 57.471315) rotate(-45) scale(0.12 -0.12)">
       <use xlink:href="#ArialMT-48"/>
       <use xlink:href="#ArialMT-4c" x="72.216797"/>
       <use xlink:href="#ArialMT-5f" x="127.832031"/>
       <use xlink:href="#ArialMT-28" x="183.447266"/>
       <use xlink:href="#ArialMT-49" x="216.748047"/>
       <use xlink:href="#ArialMT-4c" x="244.53125"/>
       <use xlink:href="#ArialMT-2b" x="300.146484"/>
       <use xlink:href="#ArialMT-48" x="358.544922"/>
       <use xlink:href="#ArialMT-4c" x="430.761719"/>
       <use xlink:href="#ArialMT-29" x="486.376953"/>
      </g>
     </g>
    </g>
   </g>
   <g id="line2d_23">
    <path d="M 100.336754 11.567812 
L 104.873945 11.605428 
L 105.378077 11.824741 
L 105.882209 12.234701 
L 106.638407 13.194038 
L 107.394606 14.54874 
L 108.40287 16.935186 
L 109.411135 19.940901 
L 110.671465 24.496115 
L 112.183862 31.009714 
L 113.696259 38.513595 
L 115.712788 49.780541 
L 118.233449 65.354639 
L 122.518573 93.632597 
L 126.299564 117.96016 
L 128.568159 131.174355 
L 130.332622 140.303357 
L 131.845019 147.114745 
L 133.10535 151.953113 
L 134.36568 155.930332 
L 135.373945 158.42938 
L 136.382209 160.269805 
L 137.138407 161.189165 
L 137.894606 161.691026 
L 138.398738 161.783811 
L 147.221052 161.726058 
L 147.725184 161.478241 
L 148.481383 160.752573 
L 149.237581 159.620087 
L 149.993779 158.100937 
L 151.002044 155.50876 
L 152.010308 152.312781 
L 153.270639 147.541488 
L 154.783035 140.800495 
L 156.547498 131.739702 
L 158.564027 120.120471 
L 161.336754 102.618511 
L 169.654936 48.907402 
L 171.671465 37.736128 
L 173.435928 29.180363 
L 174.948325 22.956244 
L 176.208655 18.674904 
L 177.21692 15.909653 
L 178.225184 13.782662 
L 178.981383 12.635015 
L 179.737581 11.893414 
L 180.241713 11.634548 
L 180.997912 11.567812 
L 231.915267 11.678602 
L 232.419399 11.983036 
L 233.175597 12.790326 
L 233.931796 14.00047 
L 234.687994 15.593313 
L 235.696259 18.277579 
L 236.704523 21.558599 
L 237.964854 26.426283 
L 239.47725 33.268407 
L 241.241713 42.427142 
L 243.258242 54.131877 
L 246.030969 71.70537 
L 253.845019 122.348567 
L 255.861548 133.74494 
L 257.626011 142.552914 
L 259.138407 149.034254 
L 260.398738 153.558885 
L 261.407002 156.537711 
L 262.415267 158.895114 
L 263.171465 160.226619 
L 263.927664 161.16155 
L 264.683862 161.679751 
L 265.187994 161.78375 
L 274.010308 161.734397 
L 274.51444 161.497649 
L 275.018573 161.070794 
L 275.774771 160.087122 
L 276.530969 158.709297 
L 277.539234 156.293905 
L 278.547498 153.261397 
L 279.807829 148.675721 
L 281.320226 142.13001 
L 283.084688 133.259185 
L 285.101217 121.807136 
L 287.621878 106.08095 
L 297.200391 44.72932 
L 299.21692 34.055713 
L 300.729316 27.10579 
L 302.241713 21.23954 
L 303.502044 17.295122 
L 304.510308 14.824739 
L 305.266507 13.402972 
L 306.022705 12.373046 
L 306.778903 11.755114 
L 307.283035 11.581996 
L 309.299564 11.567812 
L 358.200391 11.567812 
L 358.200391 11.567812 
" clip-path="url(#p8eaacff623)" style="fill: none; stroke: #f66ab7; stroke-opacity: 0.75; stroke-width: 3; stroke-linecap: round"/>
   </g>
   <g id="line2d_24">
    <path d="M 100.336754 24.551419 
L 105.126011 24.640062 
L 105.882209 25.031761 
L 106.638407 25.722748 
L 107.394606 26.698504 
L 108.40287 28.4174 
L 109.411135 30.582339 
L 110.671465 33.863343 
L 112.183862 38.554921 
L 113.948325 44.921774 
L 115.964854 53.15041 
L 118.485515 64.461325 
L 128.064027 108.677992 
L 130.080556 116.389369 
L 131.592953 121.416881 
L 133.10535 125.667342 
L 134.36568 128.532031 
L 135.373945 130.33203 
L 136.382209 131.657641 
L 137.138407 132.319833 
L 137.894606 132.68131 
L 138.650804 132.74814 
L 147.221052 132.701551 
L 147.97725 132.34397 
L 148.733449 131.647367 
L 149.489647 130.628001 
L 150.497912 128.794871 
L 151.506176 126.45538 
L 152.766507 122.877657 
L 154.026837 118.644231 
L 155.539234 112.804568 
L 157.303697 105.108758 
L 159.572292 94.135009 
L 162.849151 76.973131 
L 168.394606 47.800736 
L 170.663201 37.051758 
L 172.427664 29.59434 
L 173.94006 24.003287 
L 175.452457 19.288928 
L 176.712788 16.123828 
L 177.721052 14.145707 
L 178.729316 12.701744 
L 179.485515 11.992497 
L 180.241713 11.621648 
L 180.997912 11.567812 
L 189.820226 11.646975 
L 190.82849 12.021552 
L 191.836754 12.686425 
L 192.845019 13.622326 
L 194.10535 15.143979 
L 195.36568 17.021371 
L 196.878077 19.690827 
L 198.64254 23.297381 
L 200.659069 27.941746 
L 203.431796 34.965249 
L 212.25411 57.861063 
L 214.270639 62.279414 
L 216.035102 65.633272 
L 217.547498 68.045322 
L 218.807829 69.679435 
L 220.068159 70.93165 
L 221.076424 71.633166 
L 222.084688 72.046912 
L 223.092953 72.157976 
L 316.357416 72.216186 
L 317.113614 72.594605 
L 317.869812 73.311068 
L 318.626011 74.349317 
L 319.634275 76.206104 
L 320.64254 78.567515 
L 321.90287 82.170194 
L 323.163201 86.425863 
L 324.675597 92.288633 
L 326.44006 100.006461 
L 328.708655 111.000701 
L 331.985515 128.176649 
L 337.530969 157.331048 
L 339.799564 168.057517 
L 341.564027 175.491348 
L 343.076424 181.057947 
L 344.588821 185.743944 
L 345.849151 188.882424 
L 346.857416 190.837293 
L 347.86568 192.256267 
L 348.621878 192.945633 
L 349.378077 193.295623 
L 350.386341 193.338304 
L 358.200391 193.338304 
L 358.200391 193.338304 
" clip-path="url(#p8eaacff623)" style="fill: none; stroke: #f560e4; stroke-opacity: 0.75; stroke-width: 3; stroke-linecap: round"/>
   </g>
   <g id="line2d_25">
    <path d="M 100.336754 37.535026 
L 104.873945 37.569993 
L 105.378077 37.77387 
L 106.134275 38.41025 
L 106.890474 39.426655 
L 107.646672 40.804351 
L 108.654936 43.170904 
L 109.663201 46.102035 
L 110.923531 50.492232 
L 112.435928 56.711191 
L 114.200391 65.088057 
L 116.21692 75.848969 
L 118.737581 90.560718 
L 127.811961 144.778846 
L 129.82849 154.896008 
L 131.592953 162.553126 
L 133.10535 168.038926 
L 134.36568 171.736197 
L 135.373945 174.059342 
L 136.382209 175.770224 
L 137.138407 176.624873 
L 137.894606 177.091409 
L 138.650804 177.177662 
L 275.270639 177.284801 
L 277.035102 177.629734 
L 279.051631 178.28094 
L 281.068159 179.166873 
L 283.588821 180.541739 
L 286.613614 182.477835 
L 291.654936 186.038865 
L 296.192126 189.143242 
L 298.964854 190.784264 
L 301.233449 191.890866 
L 303.249978 192.645197 
L 305.01444 193.094464 
L 306.778903 193.318154 
L 309.551631 193.338304 
L 317.36568 193.253128 
L 319.130143 192.930989 
L 320.894606 192.394884 
L 322.911135 191.555527 
L 325.17973 190.371398 
L 327.952457 188.661687 
L 331.985515 185.867639 
L 338.287168 181.486422 
L 341.059895 179.828291 
L 343.32849 178.702596 
L 345.345019 177.927445 
L 347.109482 177.456989 
L 348.873945 177.209335 
L 351.14254 177.177662 
L 358.200391 177.177662 
L 358.200391 177.177662 
" clip-path="url(#p8eaacff623)" style="fill: none; stroke: #cc7af4; stroke-opacity: 0.75; stroke-width: 3; stroke-linecap: round"/>
   </g>
   <g id="line2d_26">
    <path d="M 100.336754 50.518632 
L 105.378077 50.452011 
L 106.386341 50.191521 
L 107.646672 49.606712 
L 108.907002 48.756488 
L 110.419399 47.419934 
L 111.931796 45.777827 
L 113.696259 43.531625 
L 115.712788 40.61012 
L 118.485515 36.151066 
L 128.316093 19.866309 
L 130.332622 17.137667 
L 132.097085 15.103864 
L 133.609482 13.676235 
L 134.869812 12.741039 
L 136.130143 12.063009 
L 137.390474 11.666339 
L 138.398738 11.567812 
L 274.010308 11.627606 
L 274.51444 11.914085 
L 275.018573 12.430606 
L 275.774771 13.620909 
L 276.530969 15.28816 
L 277.539234 18.210932 
L 278.547498 21.880451 
L 279.807829 27.429398 
L 281.320226 35.350106 
L 282.832622 44.463253 
L 284.849151 58.131815 
L 287.369812 77.006352 
L 291.654936 111.236202 
L 295.183862 138.773226 
L 297.452457 154.918042 
L 299.21692 166.126578 
L 300.729316 174.536406 
L 301.989647 180.551182 
L 303.249978 185.542423 
L 304.258242 188.7226 
L 305.266507 191.117649 
L 306.022705 192.363923 
L 306.778903 193.111659 
L 307.283035 193.321141 
L 309.047498 193.338304 
L 316.609482 193.228965 
L 317.36568 192.859285 
L 318.121878 192.240137 
L 319.130143 191.047618 
L 320.138407 189.462181 
L 321.398738 186.971875 
L 322.659069 183.969246 
L 324.171465 179.769309 
L 325.935928 174.169838 
L 328.204523 166.101999 
L 331.229316 154.356066 
L 337.783035 128.524965 
L 340.051631 120.576129 
L 341.816093 115.100726 
L 343.32849 111.029077 
L 344.588821 108.148828 
L 345.849151 105.794969 
L 346.857416 104.328817 
L 347.86568 103.264586 
L 348.621878 102.747562 
L 349.378077 102.48507 
L 350.386341 102.453058 
L 358.200391 102.453058 
L 358.200391 102.453058 
" clip-path="url(#p8eaacff623)" style="fill: none; stroke: #9591f4; stroke-opacity: 0.75; stroke-width: 3; stroke-linecap: round"/>
   </g>
   <g id="line2d_27">
    <path d="M 100.336754 63.502239 
L 105.378077 63.41341 
L 106.386341 63.066091 
L 107.394606 62.471638 
L 108.40287 61.646568 
L 109.663201 60.316086 
L 111.175597 58.323345 
L 112.687994 55.95107 
L 114.452457 52.778094 
L 116.721052 48.193423 
L 119.745845 41.500033 
L 126.803697 25.662586 
L 129.072292 21.208513 
L 130.836754 18.170281 
L 132.349151 15.936599 
L 133.861548 14.103774 
L 135.121878 12.922843 
L 136.130143 12.228075 
L 137.138407 11.7734 
L 138.146672 11.575335 
L 141.927664 11.567812 
L 358.200391 11.567812 
L 358.200391 11.567812 
" clip-path="url(#p8eaacff623)" style="fill: none; stroke: #3ba3ec; stroke-opacity: 0.75; stroke-width: 3; stroke-linecap: round"/>
   </g>
   <g id="line2d_28">
    <path d="M 100.336754 76.485845 
L 105.126011 76.596472 
L 105.630143 76.87997 
L 106.386341 77.61983 
L 107.14254 78.721123 
L 108.150804 80.72043 
L 109.159069 83.287134 
L 110.419399 87.227999 
L 111.67973 91.904455 
L 113.192126 98.369091 
L 114.956589 106.903947 
L 117.225184 119.094053 
L 120.249978 136.687729 
L 126.299564 172.122172 
L 128.568159 184.000443 
L 130.332622 192.206524 
L 131.845019 198.329296 
L 133.10535 202.678517 
L 134.36568 206.253648 
L 135.373945 208.500048 
L 136.382209 210.15441 
L 137.138407 210.980826 
L 137.894606 211.431949 
L 138.650804 211.515353 
L 232.923531 211.405521 
L 234.687994 211.028244 
L 236.452457 210.412117 
L 238.468986 209.455246 
L 240.737581 208.111819 
L 243.510308 206.178736 
L 247.2913 203.232129 
L 253.592953 198.292491 
L 256.36568 196.411741 
L 258.634275 195.127921 
L 260.650804 194.236723 
L 262.415267 193.687854 
L 264.17973 193.386976 
L 265.944193 193.338304 
L 358.200391 193.338304 
L 358.200391 193.338304 
" clip-path="url(#p8eaacff623)" style="fill: none; stroke: #38a9c5; stroke-opacity: 0.75; stroke-width: 3; stroke-linecap: round"/>
   </g>
   <g id="line2d_29">
    <path d="M 100.336754 89.469452 
L 105.126011 89.410473 
L 105.882209 89.149853 
L 106.638407 88.690102 
L 107.646672 87.784033 
L 108.654936 86.564015 
L 109.915267 84.632381 
L 111.175597 82.29069 
L 112.687994 79.002344 
L 114.452457 74.6041 
L 116.721052 68.249024 
L 119.745845 58.970933 
L 126.551631 37.746339 
L 128.820226 31.491331 
L 130.584688 27.19686 
L 132.097085 24.015531 
L 133.609482 21.376972 
L 134.869812 19.648534 
L 135.878077 18.605851 
L 136.886341 17.890253 
L 137.64254 17.581975 
L 138.398738 17.480166 
L 149.489647 17.376725 
L 152.51444 17.036176 
L 156.043366 16.404188 
L 160.580556 15.344364 
L 172.427664 12.447322 
L 175.956589 11.878455 
L 178.981383 11.609817 
L 182.258242 11.567812 
L 274.010308 11.633586 
L 274.51444 11.948713 
L 275.018573 12.516885 
L 275.774771 13.826219 
L 276.530969 15.660195 
L 277.539234 18.875244 
L 278.547498 22.911715 
L 279.807829 29.015556 
L 281.320226 37.728336 
L 282.832622 47.752797 
L 284.849151 62.788215 
L 287.369812 83.550205 
L 291.654936 121.203041 
L 295.183862 151.493768 
L 297.452457 169.253065 
L 299.21692 181.582454 
L 300.729316 190.833266 
L 301.989647 197.449519 
L 303.249978 202.939884 
L 304.258242 206.438078 
L 305.266507 209.072633 
L 306.022705 210.443534 
L 306.526837 211.054462 
L 307.030969 211.413712 
L 307.535102 211.515353 
L 316.357416 211.456596 
L 317.113614 211.074611 
L 317.869812 210.351398 
L 318.626011 209.303367 
L 319.634275 207.429086 
L 320.64254 205.045428 
L 321.90287 201.408806 
L 323.163201 197.113043 
L 324.675597 191.195038 
L 326.44006 183.404496 
L 328.708655 172.306676 
L 331.985515 154.968906 
L 337.530969 125.53983 
L 339.799564 114.712302 
L 341.564027 107.208435 
L 343.076424 101.58939 
L 344.588821 96.859244 
L 345.849151 93.691196 
L 346.857416 91.717909 
L 347.86568 90.285566 
L 348.621878 89.589705 
L 349.378077 89.236418 
L 350.386341 89.193334 
L 358.200391 89.193334 
L 358.200391 89.193334 
" clip-path="url(#p8eaacff623)" style="fill: none; stroke: #36acae; stroke-opacity: 0.75; stroke-width: 3; stroke-linecap: round"/>
   </g>
   <g id="line2d_30">
    <path d="M 100.336754 102.453058 
L 105.126011 102.527518 
L 105.882209 102.856546 
L 106.638407 103.436974 
L 107.646672 104.580872 
L 108.654936 106.121123 
L 109.915267 108.559778 
L 111.175597 111.516122 
L 112.687994 115.667603 
L 114.452457 121.220312 
L 116.468986 128.311945 
L 119.241713 138.952657 
L 127.055763 169.582743 
L 129.072292 176.467079 
L 130.836754 181.783985 
L 132.349151 185.692927 
L 133.609482 188.418653 
L 134.869812 190.600776 
L 135.878077 191.917145 
L 136.886341 192.820577 
L 137.64254 193.209773 
L 138.398738 193.338304 
L 147.221052 193.26842 
L 147.725184 192.968547 
L 148.229316 192.439046 
L 148.985515 191.230051 
L 149.741713 189.54504 
L 150.749978 186.60004 
L 151.758242 182.909951 
L 153.018573 177.337623 
L 154.530969 169.392279 
L 156.295432 158.634015 
L 158.311961 144.755099 
L 160.832622 125.708238 
L 170.159069 53.226397 
L 172.175597 40.119519 
L 173.687994 31.532734 
L 175.200391 24.228474 
L 176.460721 19.262049 
L 177.468986 16.103592 
L 178.47725 13.731919 
L 179.233449 12.504267 
L 179.989647 11.776085 
L 180.493779 11.580157 
L 183.01444 11.567812 
L 189.820226 11.646975 
L 190.82849 12.021552 
L 191.836754 12.686425 
L 192.845019 13.622326 
L 194.10535 15.143979 
L 195.36568 17.021371 
L 196.878077 19.690827 
L 198.64254 23.297381 
L 200.659069 27.941746 
L 203.431796 34.965249 
L 212.25411 57.861063 
L 214.270639 62.279414 
L 216.035102 65.633272 
L 217.547498 68.045322 
L 218.807829 69.679435 
L 220.068159 70.93165 
L 221.076424 71.633166 
L 222.084688 72.046912 
L 223.092953 72.157976 
L 232.167333 72.061521 
L 233.175597 71.664871 
L 234.183862 70.979346 
L 235.192126 70.024214 
L 236.452457 68.480521 
L 237.712788 66.583311 
L 239.225184 63.893005 
L 240.989647 60.266168 
L 243.006176 55.603953 
L 245.778903 48.56519 
L 254.349151 26.279145 
L 256.36568 21.8126 
L 258.130143 18.40543 
L 259.64254 15.939406 
L 260.90287 14.254478 
L 262.163201 12.946143 
L 263.171465 12.195911 
L 264.17973 11.730053 
L 264.935928 11.578871 
L 267.708655 11.567812 
L 274.010308 11.633586 
L 274.51444 11.948713 
L 275.018573 12.516885 
L 275.774771 13.826219 
L 276.530969 15.660195 
L 277.539234 18.875244 
L 278.547498 22.911715 
L 279.807829 29.015556 
L 281.320226 37.728336 
L 282.832622 47.752797 
L 284.849151 62.788215 
L 287.369812 83.550205 
L 291.654936 121.203041 
L 295.183862 151.493768 
L 297.452457 169.253065 
L 299.21692 181.582454 
L 300.729316 190.833266 
L 301.989647 197.449519 
L 303.249978 202.939884 
L 304.258242 206.438078 
L 305.266507 209.072633 
L 306.022705 210.443534 
L 306.526837 211.054462 
L 307.030969 211.413712 
L 307.535102 211.515353 
L 316.357416 211.448413 
L 316.861548 211.202409 
L 317.617746 210.505983 
L 318.373945 209.43327 
L 319.130143 208.002969 
L 320.138407 205.571965 
L 321.146672 202.582804 
L 322.407002 198.12896 
L 323.919399 191.846431 
L 325.683862 183.41267 
L 327.700391 172.608913 
L 330.473118 156.351553 
L 338.539234 107.924937 
L 340.555763 97.438446 
L 342.320226 89.363944 
L 343.832622 83.450004 
L 345.092953 79.346087 
L 346.101217 76.664861 
L 347.109482 74.566677 
L 347.86568 73.402319 
L 348.621878 72.609548 
L 349.378077 72.20706 
L 350.134275 72.157976 
L 358.200391 72.157976 
L 358.200391 72.157976 
" clip-path="url(#p8eaacff623)" style="fill: none; stroke: #35ae99; stroke-opacity: 0.75; stroke-width: 3; stroke-linecap: round"/>
   </g>
   <g id="line2d_31">
    <path d="M 100.336754 115.436665 
L 105.126011 115.51538 
L 105.882209 115.863209 
L 106.638407 116.476805 
L 107.394606 117.343277 
L 108.40287 118.869656 
L 109.411135 120.792122 
L 110.671465 123.705654 
L 112.183862 127.871774 
L 113.948325 133.52554 
L 115.964854 140.832569 
L 118.485515 150.876662 
L 128.064027 190.141062 
L 130.080556 196.988765 
L 131.592953 201.453195 
L 133.10535 205.227604 
L 134.36568 207.771448 
L 135.373945 209.369847 
L 136.382209 210.54699 
L 137.138407 211.135016 
L 137.894606 211.456008 
L 138.650804 211.515353 
L 189.568159 211.415947 
L 190.072292 211.08174 
L 190.576424 210.518971 
L 191.332622 209.262073 
L 192.088821 207.531558 
L 193.097085 204.529618 
L 194.10535 200.786853 
L 195.36568 195.154677 
L 196.878077 187.14631 
L 198.64254 176.326647 
L 200.659069 162.393552 
L 203.17973 143.302954 
L 212.506176 70.891033 
L 214.522705 57.847247 
L 216.035102 49.318976 
L 217.547498 42.082824 
L 218.807829 37.180486 
L 219.816093 34.078095 
L 220.824358 31.766753 
L 221.580556 30.587148 
L 222.084688 30.078055 
L 222.588821 29.799241 
L 223.345019 29.744862 
L 231.663201 29.7823 
L 232.167333 30.034227 
L 232.671465 30.517261 
L 233.427664 31.659334 
L 234.183862 33.280754 
L 235.192126 36.146148 
L 236.200391 39.762554 
L 237.460721 45.251106 
L 238.721052 51.709888 
L 240.233449 60.582162 
L 241.997912 72.233201 
L 244.266507 88.793431 
L 247.543366 114.603898 
L 252.836754 156.394641 
L 255.10535 172.593861 
L 256.869812 183.859636 
L 258.382209 192.328922 
L 259.894606 199.496493 
L 261.154936 204.334352 
L 262.163201 207.380362 
L 262.919399 209.146106 
L 263.675597 210.440098 
L 264.431796 211.237952 
L 264.935928 211.482179 
L 265.944193 211.515353 
L 274.010308 211.459546 
L 274.51444 211.192165 
L 275.018573 210.710079 
L 275.774771 209.59913 
L 276.530969 208.043029 
L 277.539234 205.315109 
L 278.547498 201.890224 
L 279.807829 196.711207 
L 281.320226 189.318546 
L 283.084688 179.299925 
L 285.101217 166.366093 
L 287.621878 148.605095 
L 297.200391 79.315172 
L 299.21692 67.260506 
L 300.729316 59.411333 
L 301.989647 53.797542 
L 303.249978 49.13905 
L 304.258242 46.170886 
L 305.266507 43.935506 
L 306.022705 42.772317 
L 306.778903 42.07443 
L 307.283035 41.878913 
L 309.047498 41.862894 
L 316.357416 41.944388 
L 316.861548 42.24387 
L 317.36568 42.757063 
L 318.121878 43.912807 
L 318.878077 45.511464 
L 319.886341 48.292643 
L 320.894606 51.766806 
L 322.154936 57.001824 
L 323.667333 64.453478 
L 325.431796 74.529605 
L 327.448325 87.514232 
L 329.968986 105.316336 
L 339.295432 172.926496 
L 341.311961 185.123667 
L 342.824358 193.104677 
L 344.336754 199.883192 
L 345.597085 204.482012 
L 346.60535 207.397962 
L 347.613614 209.577147 
L 348.369812 210.695577 
L 349.126011 211.346468 
L 349.630143 211.50941 
L 354.419399 211.515353 
L 358.200391 211.515353 
L 358.200391 211.515353 
" clip-path="url(#p8eaacff623)" style="fill: none; stroke: #33b07a; stroke-opacity: 0.75; stroke-width: 3; stroke-linecap: round"/>
   </g>
   <g id="line2d_32">
    <path d="M 100.336754 128.420272 
L 105.378077 128.531307 
L 106.134275 128.827152 
L 107.14254 129.494924 
L 108.150804 130.456129 
L 109.411135 132.038824 
L 110.671465 134.007426 
L 112.183862 136.822372 
L 113.948325 140.642484 
L 115.964854 145.579666 
L 118.485515 152.366215 
L 128.064027 178.896215 
L 130.080556 183.523042 
L 131.845019 186.998854 
L 133.357416 189.464651 
L 134.617746 191.104194 
L 135.626011 192.114971 
L 136.634275 192.835953 
L 137.64254 193.246496 
L 138.398738 193.338304 
L 147.221052 193.26842 
L 147.725184 192.968547 
L 148.229316 192.439046 
L 148.985515 191.230051 
L 149.741713 189.54504 
L 150.749978 186.60004 
L 151.758242 182.909951 
L 153.018573 177.337623 
L 154.530969 169.392279 
L 156.295432 158.634015 
L 158.311961 144.755099 
L 160.832622 125.708238 
L 170.159069 53.226397 
L 172.175597 40.119519 
L 173.687994 31.532734 
L 175.200391 24.228474 
L 176.460721 19.262049 
L 177.468986 16.103592 
L 178.47725 13.731919 
L 179.233449 12.504267 
L 179.989647 11.776085 
L 180.493779 11.580157 
L 183.01444 11.567812 
L 189.568159 11.67716 
L 190.072292 12.044788 
L 190.576424 12.663833 
L 191.332622 14.046421 
L 192.088821 15.949987 
L 193.097085 19.252122 
L 194.10535 23.369163 
L 195.36568 29.564557 
L 196.878077 38.37376 
L 198.64254 50.275389 
L 200.659069 65.601794 
L 203.17973 86.601452 
L 212.506176 166.254565 
L 214.522705 180.60273 
L 216.035102 189.983828 
L 217.547498 197.943595 
L 218.807829 203.336167 
L 219.816093 206.748797 
L 220.572292 208.740708 
L 221.32849 210.216332 
L 222.084688 211.148841 
L 222.588821 211.455537 
L 223.345019 211.515353 
L 358.200391 211.515353 
L 358.200391 211.515353 
" clip-path="url(#p8eaacff623)" style="fill: none; stroke: #50b131; stroke-opacity: 0.75; stroke-width: 3; stroke-linecap: round"/>
   </g>
   <g id="line2d_33">
    <path d="M 100.336754 141.403878 
L 105.126011 141.297507 
L 105.630143 141.024912 
L 106.386341 140.313508 
L 107.14254 139.254573 
L 108.150804 137.332162 
L 109.159069 134.864177 
L 110.419399 131.074884 
L 111.67973 126.578292 
L 113.192126 120.362295 
L 114.956589 112.155703 
L 117.225184 100.434447 
L 120.249978 83.517452 
L 126.299564 49.445871 
L 128.568159 38.024457 
L 130.332622 30.133995 
L 131.845019 24.246714 
L 133.10535 20.064771 
L 134.36568 16.627144 
L 135.373945 14.467145 
L 136.382209 12.876412 
L 137.138407 12.081782 
L 137.894606 11.648009 
L 138.650804 11.567812 
L 147.221052 11.644685 
L 147.725184 11.974546 
L 148.229316 12.556996 
L 148.985515 13.886891 
L 149.741713 15.740403 
L 150.749978 18.979903 
L 151.758242 23.039001 
L 153.018573 29.168561 
L 154.530969 37.908441 
L 156.295432 49.74253 
L 158.311961 65.009338 
L 160.832622 85.960886 
L 170.159069 165.69091 
L 172.175597 180.108476 
L 173.687994 189.553939 
L 175.200391 197.588626 
L 176.460721 203.051693 
L 177.468986 206.525996 
L 178.47725 209.134836 
L 179.233449 210.485254 
L 179.737581 211.081956 
L 180.241713 211.426525 
L 180.745845 211.515353 
L 189.568159 211.406006 
L 190.072292 211.038378 
L 190.576424 210.419333 
L 191.332622 209.036745 
L 192.088821 207.133179 
L 193.097085 203.831044 
L 194.10535 199.714003 
L 195.36568 193.518609 
L 196.878077 184.709406 
L 198.64254 172.807777 
L 200.659069 157.481372 
L 203.17973 136.481714 
L 212.506176 56.828601 
L 214.522705 42.480436 
L 216.035102 33.099338 
L 217.547498 25.139571 
L 218.807829 19.746999 
L 219.816093 16.334369 
L 220.572292 14.342458 
L 221.32849 12.866834 
L 222.084688 11.934325 
L 222.588821 11.627629 
L 223.345019 11.567812 
L 316.357416 11.663858 
L 316.861548 12.01682 
L 317.36568 12.621654 
L 318.121878 13.983781 
L 318.878077 15.867913 
L 319.886341 19.145731 
L 320.894606 23.24028 
L 322.154936 29.410123 
L 323.667333 38.192429 
L 325.431796 50.067864 
L 327.448325 65.371175 
L 329.968986 86.352226 
L 339.295432 166.035629 
L 341.311961 180.410865 
L 342.824358 189.817056 
L 344.336754 197.80602 
L 345.597085 203.226058 
L 346.60535 206.662714 
L 347.613614 209.231039 
L 348.369812 210.549189 
L 348.873945 211.123484 
L 349.378077 211.444929 
L 349.882209 211.515353 
L 358.200391 211.515353 
L 358.200391 211.515353 
" clip-path="url(#p8eaacff623)" style="fill: none; stroke: #8ea631; stroke-opacity: 0.75; stroke-width: 3; stroke-linecap: round"/>
   </g>
   <g id="line2d_34">
    <path d="M 100.336754 154.387485 
L 104.873945 154.351721 
L 105.378077 154.143206 
L 106.134275 153.492348 
L 106.890474 152.452818 
L 107.646672 151.043778 
L 108.654936 148.623383 
L 109.663201 145.625566 
L 110.923531 141.135487 
L 112.435928 134.775039 
L 114.200391 126.207589 
L 116.21692 115.201854 
L 118.737581 100.155395 
L 127.811961 44.703741 
L 129.82849 34.356401 
L 131.592953 26.525075 
L 133.10535 20.914466 
L 134.36568 17.133077 
L 135.373945 14.757078 
L 136.382209 13.007272 
L 137.138407 12.133178 
L 137.894606 11.656028 
L 138.650804 11.567812 
L 189.568159 11.67716 
L 190.072292 12.044788 
L 190.576424 12.663833 
L 191.332622 14.046421 
L 192.088821 15.949987 
L 193.097085 19.252122 
L 194.10535 23.369163 
L 195.36568 29.564557 
L 196.878077 38.37376 
L 198.64254 50.275389 
L 200.659069 65.601794 
L 203.17973 86.601452 
L 212.506176 166.254565 
L 214.522705 180.60273 
L 216.035102 189.983828 
L 217.547498 197.943595 
L 218.807829 203.336167 
L 219.816093 206.748797 
L 220.572292 208.740708 
L 221.32849 210.216332 
L 222.084688 211.148841 
L 222.588821 211.455537 
L 223.345019 211.515353 
L 231.663201 211.474171 
L 232.167333 211.197052 
L 232.671465 210.665714 
L 233.427664 209.409434 
L 234.183862 207.625872 
L 235.192126 204.473939 
L 236.200391 200.495892 
L 237.460721 194.458484 
L 238.721052 187.353824 
L 240.233449 177.594323 
L 241.997912 164.778181 
L 244.266507 146.561928 
L 247.543366 118.170414 
L 252.836754 72.200597 
L 255.10535 54.381455 
L 256.869812 41.989102 
L 258.382209 32.672888 
L 259.894606 24.788559 
L 261.154936 19.466914 
L 262.163201 16.116303 
L 262.919399 14.173985 
L 263.675597 12.750593 
L 264.431796 11.872954 
L 264.935928 11.604304 
L 265.944193 11.567812 
L 274.010308 11.633586 
L 274.51444 11.948713 
L 275.018573 12.516885 
L 275.774771 13.826219 
L 276.530969 15.660195 
L 277.539234 18.875244 
L 278.547498 22.911715 
L 279.807829 29.015556 
L 281.320226 37.728336 
L 282.832622 47.752797 
L 284.849151 62.788215 
L 287.369812 83.550205 
L 291.654936 121.203041 
L 295.183862 151.493768 
L 297.452457 169.253065 
L 299.21692 181.582454 
L 300.729316 190.833266 
L 301.989647 197.449519 
L 303.249978 202.939884 
L 304.258242 206.438078 
L 305.266507 209.072633 
L 306.022705 210.443534 
L 306.526837 211.054462 
L 307.030969 211.413712 
L 307.535102 211.515353 
L 316.357416 211.419308 
L 316.861548 211.066346 
L 317.36568 210.461512 
L 318.121878 209.099385 
L 318.878077 207.215253 
L 319.886341 203.937435 
L 320.894606 199.842886 
L 322.154936 193.673043 
L 323.667333 184.890737 
L 325.431796 173.015302 
L 327.448325 157.711991 
L 329.968986 136.73094 
L 339.295432 57.047537 
L 341.311961 42.672301 
L 342.824358 33.26611 
L 344.336754 25.277146 
L 345.597085 19.857108 
L 346.60535 16.420452 
L 347.613614 13.852127 
L 348.369812 12.533977 
L 348.873945 11.959682 
L 349.378077 11.638237 
L 349.882209 11.567812 
L 358.200391 11.567812 
L 358.200391 11.567812 
" clip-path="url(#p8eaacff623)" style="fill: none; stroke: #ae9d31; stroke-opacity: 0.75; stroke-width: 3; stroke-linecap: round"/>
   </g>
   <g id="line2d_35">
    <path d="M 100.336754 167.371091 
L 104.873945 167.332077 
L 105.378077 167.104606 
L 105.882209 166.679398 
L 106.638407 165.684378 
L 107.394606 164.279288 
L 108.40287 161.804079 
L 109.411135 158.686566 
L 110.671465 153.961921 
L 112.183862 147.206049 
L 113.696259 139.423061 
L 115.712788 127.737041 
L 118.233449 111.583665 
L 122.518573 82.253909 
L 126.299564 57.021483 
L 128.568159 43.315786 
L 130.332622 33.847231 
L 131.845019 26.782494 
L 133.10535 21.764162 
L 134.36568 17.639011 
L 135.373945 15.047011 
L 136.382209 13.138132 
L 137.138407 12.184575 
L 137.894606 11.664048 
L 138.398738 11.567812 
L 147.221052 11.644685 
L 147.725184 11.974546 
L 148.229316 12.556996 
L 148.985515 13.886891 
L 149.741713 15.740403 
L 150.749978 18.979903 
L 151.758242 23.039001 
L 153.018573 29.168561 
L 154.530969 37.908441 
L 156.295432 49.74253 
L 158.311961 65.009338 
L 160.832622 85.960886 
L 170.159069 165.69091 
L 172.175597 180.108476 
L 173.687994 189.553939 
L 175.200391 197.588626 
L 176.460721 203.051693 
L 177.468986 206.525996 
L 178.47725 209.134836 
L 179.233449 210.485254 
L 179.737581 211.081956 
L 180.241713 211.426525 
L 180.745845 211.515353 
L 275.018573 211.429074 
L 276.783035 211.077566 
L 278.547498 210.48409 
L 280.564027 209.549284 
L 282.832622 208.225809 
L 285.353283 206.494955 
L 288.882209 203.778307 
L 296.192126 198.056796 
L 298.964854 196.21102 
L 301.233449 194.966343 
L 303.249978 194.117892 
L 305.01444 193.612569 
L 306.526837 193.380204 
L 308.2913 193.338304 
L 317.36568 193.434108 
L 319.130143 193.796441 
L 320.894606 194.399438 
L 322.911135 195.343523 
L 325.17973 196.6754 
L 327.952457 198.598436 
L 331.733449 201.538562 
L 338.287168 206.668979 
L 341.059895 208.533999 
L 343.32849 209.80015 
L 345.345019 210.672019 
L 347.109482 211.201175 
L 348.873945 211.479729 
L 350.890474 211.515353 
L 358.200391 211.515353 
L 358.200391 211.515353 
" clip-path="url(#p8eaacff623)" style="fill: none; stroke: #ca9232; stroke-opacity: 0.75; stroke-width: 3; stroke-linecap: round"/>
   </g>
   <g id="line2d_36">
    <path d="M 100.336754 180.354698 
L 105.630143 180.44565 
L 106.890474 180.776807 
L 108.150804 181.33191 
L 109.663201 182.266389 
L 111.175597 183.462034 
L 112.94006 185.142417 
L 114.956589 187.37426 
L 117.47725 190.51504 
L 121.258242 195.638056 
L 126.299564 202.424619 
L 128.820226 205.450603 
L 130.836754 207.553873 
L 132.601217 209.094969 
L 134.113614 210.151328 
L 135.626011 210.928153 
L 136.886341 211.337847 
L 138.146672 211.51084 
L 144.448325 211.515353 
L 190.576424 211.415715 
L 192.340887 211.049187 
L 194.10535 210.442503 
L 196.121878 209.494826 
L 198.390474 208.159701 
L 201.163201 206.233835 
L 204.944193 203.291872 
L 211.497912 198.163794 
L 214.270639 196.301873 
L 216.539234 195.03919 
L 218.555763 194.171109 
L 220.320226 193.645811 
L 222.084688 193.371624 
L 224.101217 193.338304 
L 275.018573 193.424584 
L 276.783035 193.776091 
L 278.547498 194.369568 
L 280.564027 195.304373 
L 282.832622 196.627848 
L 285.353283 198.358703 
L 288.882209 201.075351 
L 296.192126 206.796861 
L 298.964854 208.642638 
L 301.233449 209.887315 
L 303.249978 210.735765 
L 305.01444 211.241088 
L 306.526837 211.473454 
L 308.2913 211.515353 
L 358.200391 211.515353 
L 358.200391 211.515353 
" clip-path="url(#p8eaacff623)" style="fill: none; stroke: #f37a32; stroke-opacity: 0.75; stroke-width: 3; stroke-linecap: round"/>
   </g>
   <g id="line2d_37">
    <path d="M 100.336754 193.338304 
L 105.882209 193.419002 
L 107.394606 193.699015 
L 109.159069 194.253862 
L 111.175597 195.150917 
L 113.444193 196.440078 
L 115.964854 198.142935 
L 119.241713 200.638224 
L 127.559895 207.122267 
L 130.080556 208.76708 
L 132.349151 209.986278 
L 134.36568 210.807047 
L 136.130143 211.284262 
L 137.64254 211.489647 
L 139.911135 211.515353 
L 274.766507 211.422757 
L 276.026837 211.104451 
L 277.287168 210.576877 
L 278.799564 209.6931 
L 280.564027 208.356005 
L 282.32849 206.736762 
L 284.597085 204.320412 
L 287.369812 200.999796 
L 297.704523 188.209517 
L 299.721052 186.206796 
L 301.485515 184.728694 
L 302.997912 183.705123 
L 304.510308 182.939297 
L 305.770639 182.520616 
L 307.030969 182.32084 
L 309.551631 182.305991 
L 317.113614 182.411236 
L 318.373945 182.742397 
L 319.634275 183.281754 
L 321.146672 184.178257 
L 322.911135 185.528251 
L 324.675597 187.158294 
L 326.944193 189.585447 
L 329.71692 192.914554 
L 339.799564 205.421661 
L 342.068159 207.682423 
L 343.832622 209.14854 
L 345.345019 210.160168 
L 346.857416 210.912509 
L 348.117746 211.318774 
L 349.378077 211.505065 
L 352.654936 211.515353 
L 358.200391 211.515353 
L 358.200391 211.515353 
" clip-path="url(#p8eaacff623)" style="fill: none; stroke: #f77189; stroke-opacity: 0.75; stroke-width: 3; stroke-linecap: round"/>
   </g>
  </g>
  <g id="axes_2">
   <g id="matplotlib.axis_3">
    <g id="ytick_16">
     <g id="line2d_38">
      <defs>
       <path id="ma8524cd29e" d="M 0 0 
L 3.5 0 
" style="stroke: #262626; stroke-width: 0.8"/>
      </defs>
      <g>
       <use xlink:href="#ma8524cd29e" x="375.109482" y="213.333058" style="fill: #262626; stroke: #262626; stroke-width: 0.8"/>
      </g>
     </g>
     <g id="text_23">
      <!-- N/A -->
      <g transform="translate(390.698857 229.042746) rotate(-90) scale(0.12 -0.12)">
       <defs>
        <path id="ArialMT-2f" d="M 0 -78 
L 1328 4659 
L 1778 4659 
L 453 -78 
L 0 -78 
z
" transform="scale(0.015625)"/>
       </defs>
       <use xlink:href="#ArialMT-4e"/>
       <use xlink:href="#ArialMT-2f" x="72.216797"/>
       <use xlink:href="#ArialMT-41" x="100"/>
      </g>
     </g>
    </g>
    <g id="ytick_17">
     <g id="line2d_39">
      <g>
       <use xlink:href="#ma8524cd29e" x="375.109482" y="164.860927" style="fill: #262626; stroke: #262626; stroke-width: 0.8"/>
      </g>
     </g>
     <g id="text_24">
      <!-- Low -->
      <g transform="translate(390.698857 182.57874) rotate(-90) scale(0.12 -0.12)">
       <defs>
        <path id="ArialMT-77" d="M 1034 0 
L 19 3319 
L 600 3319 
L 1128 1403 
L 1325 691 
Q 1338 744 1497 1375 
L 2025 3319 
L 2603 3319 
L 3100 1394 
L 3266 759 
L 3456 1400 
L 4025 3319 
L 4572 3319 
L 3534 0 
L 2950 0 
L 2422 1988 
L 2294 2553 
L 1622 0 
L 1034 0 
z
" transform="scale(0.015625)"/>
       </defs>
       <use xlink:href="#ArialMT-4c"/>
       <use xlink:href="#ArialMT-6f" x="55.615234"/>
       <use xlink:href="#ArialMT-77" x="111.230469"/>
      </g>
     </g>
    </g>
    <g id="ytick_18">
     <g id="line2d_40">
      <g>
       <use xlink:href="#ma8524cd29e" x="375.109482" y="102.453058" style="fill: #262626; stroke: #262626; stroke-width: 0.8"/>
      </g>
     </g>
     <g id="text_25">
      <!-- Med -->
      <g transform="translate(390.698857 121.500246) rotate(-90) scale(0.12 -0.12)">
       <defs>
        <path id="ArialMT-4d" d="M 475 0 
L 475 4581 
L 1388 4581 
L 2472 1338 
Q 2622 884 2691 659 
Q 2769 909 2934 1394 
L 4031 4581 
L 4847 4581 
L 4847 0 
L 4263 0 
L 4263 3834 
L 2931 0 
L 2384 0 
L 1059 3900 
L 1059 0 
L 475 0 
z
" transform="scale(0.015625)"/>
       </defs>
       <use xlink:href="#ArialMT-4d"/>
       <use xlink:href="#ArialMT-65" x="83.300781"/>
       <use xlink:href="#ArialMT-64" x="138.916016"/>
      </g>
     </g>
    </g>
    <g id="ytick_19">
     <g id="line2d_41">
      <g>
       <use xlink:href="#ma8524cd29e" x="375.109482" y="40.04519" style="fill: #262626; stroke: #262626; stroke-width: 0.8"/>
      </g>
     </g>
     <g id="text_26">
      <!-- High -->
      <g transform="translate(390.698857 60.429252) rotate(-90) scale(0.12 -0.12)">
       <use xlink:href="#ArialMT-48"/>
       <use xlink:href="#ArialMT-69" x="72.216797"/>
       <use xlink:href="#ArialMT-67" x="94.433594"/>
       <use xlink:href="#ArialMT-68" x="150.048828"/>
      </g>
     </g>
    </g>
    <g id="text_27">
     <!-- Relative Feature Value -->
     <g transform="translate(407.961201 194.547168) rotate(-90) scale(0.15 -0.15)">
      <defs>
       <path id="ArialMT-76" d="M 1344 0 
L 81 3319 
L 675 3319 
L 1388 1331 
Q 1503 1009 1600 663 
Q 1675 925 1809 1294 
L 2547 3319 
L 3125 3319 
L 1869 0 
L 1344 0 
z
" transform="scale(0.015625)"/>
       <path id="ArialMT-20" transform="scale(0.015625)"/>
       <path id="ArialMT-56" d="M 1803 0 
L 28 4581 
L 684 4581 
L 1875 1253 
Q 2019 853 2116 503 
Q 2222 878 2363 1253 
L 3600 4581 
L 4219 4581 
L 2425 0 
L 1803 0 
z
" transform="scale(0.015625)"/>
      </defs>
      <use xlink:href="#ArialMT-52"/>
      <use xlink:href="#ArialMT-65" x="72.216797"/>
      <use xlink:href="#ArialMT-6c" x="127.832031"/>
      <use xlink:href="#ArialMT-61" x="150.048828"/>
      <use xlink:href="#ArialMT-74" x="205.664062"/>
      <use xlink:href="#ArialMT-69" x="233.447266"/>
      <use xlink:href="#ArialMT-76" x="255.664062"/>
      <use xlink:href="#ArialMT-65" x="305.664062"/>
      <use xlink:href="#ArialMT-20" x="361.279297"/>
      <use xlink:href="#ArialMT-46" x="389.0625"/>
      <use xlink:href="#ArialMT-65" x="450.146484"/>
      <use xlink:href="#ArialMT-61" x="505.761719"/>
      <use xlink:href="#ArialMT-74" x="561.376953"/>
      <use xlink:href="#ArialMT-75" x="589.160156"/>
      <use xlink:href="#ArialMT-72" x="644.775391"/>
      <use xlink:href="#ArialMT-65" x="678.076172"/>
      <use xlink:href="#ArialMT-20" x="733.691406"/>
      <use xlink:href="#ArialMT-56" x="761.474609"/>
      <use xlink:href="#ArialMT-61" x="820.798828"/>
      <use xlink:href="#ArialMT-6c" x="876.414062"/>
      <use xlink:href="#ArialMT-75" x="898.630859"/>
      <use xlink:href="#ArialMT-65" x="954.246094"/>
     </g>
    </g>
   </g>
   <g id="patch_3">
    <path d="M 96.109482 229.692403 
L 96.109482 196.973714 
L 375.109482 196.973714 
L 375.109482 229.692403 
z
" clip-path="url(#p8eaacff623)" style="fill: #f08080; opacity: 0.25; stroke: #ffffff; stroke-linejoin: miter"/>
   </g>
   <g id="patch_4">
    <path d="M 96.109482 196.973714 
L 96.109482 132.74814 
L 375.109482 132.74814 
L 375.109482 196.973714 
z
" clip-path="url(#p8eaacff623)" style="fill: #ebf3ed; opacity: 0.25; stroke: #ffffff; stroke-linejoin: miter"/>
   </g>
   <g id="patch_5">
    <path d="M 96.109482 132.74814 
L 96.109482 72.157976 
L 375.109482 72.157976 
L 375.109482 132.74814 
z
" clip-path="url(#p8eaacff623)" style="fill: #acd0bb; opacity: 0.25; stroke: #ffffff; stroke-linejoin: miter"/>
   </g>
   <g id="patch_6">
    <path d="M 96.109482 72.157976 
L 96.109482 7.932403 
L 375.109482 7.932403 
L 375.109482 72.157976 
z
" clip-path="url(#p8eaacff623)" style="fill: #6dae89; opacity: 0.25; stroke: #ffffff; stroke-linejoin: miter"/>
   </g>
   <g id="patch_7">
    <path d="M 96.109482 229.692403 
L 96.109482 7.932403 
" style="fill: none; stroke: #262626; stroke-width: 0.8; stroke-linejoin: miter; stroke-linecap: square"/>
   </g>
   <g id="patch_8">
    <path d="M 375.109482 229.692403 
L 375.109482 7.932403 
" style="fill: none; stroke: #262626; stroke-width: 0.8; stroke-linejoin: miter; stroke-linecap: square"/>
   </g>
   <g id="patch_9">
    <path d="M 96.109482 229.692403 
L 375.109482 229.692403 
" style="fill: none; stroke: #262626; stroke-width: 0.8; stroke-linejoin: miter; stroke-linecap: square"/>
   </g>
   <g id="patch_10">
    <path d="M 96.109482 7.932403 
L 375.109482 7.932403 
" style="fill: none; stroke: #262626; stroke-width: 0.8; stroke-linejoin: miter; stroke-linecap: square"/>
   </g>
  </g>
 </g>
 <defs>
  <clipPath id="p8eaacff623">
   <rect x="96.109482" y="7.932403" width="279" height="221.76"/>
  </clipPath>
 </defs>
</svg>
