<?xml version="1.0" encoding="utf-8" standalone="no"?>
<!DOCTYPE svg PUBLIC "-//W3C//DTD SVG 1.1//EN"
  "http://www.w3.org/Graphics/SVG/1.1/DTD/svg11.dtd">
<svg xmlns:xlink="http://www.w3.org/1999/xlink" width="799.471774pt" height="455.812735pt" viewBox="0 0 799.471774 455.812735" xmlns="http://www.w3.org/2000/svg" version="1.1">
 <metadata>
  <rdf:RDF xmlns:dc="http://purl.org/dc/elements/1.1/" xmlns:cc="http://creativecommons.org/ns#" xmlns:rdf="http://www.w3.org/1999/02/22-rdf-syntax-ns#">
   <cc:Work>
    <dc:type rdf:resource="http://purl.org/dc/dcmitype/StillImage"/>
    <dc:date>2023-11-02T16:08:27.718318</dc:date>
    <dc:format>image/svg+xml</dc:format>
    <dc:creator>
     <cc:Agent>
      <dc:title>Matplotlib v3.6.3, https://matplotlib.org/</dc:title>
     </cc:Agent>
    </dc:creator>
   </cc:Work>
  </rdf:RDF>
 </metadata>
 <defs>
  <style type="text/css">*{stroke-linejoin: round; stroke-linecap: butt}</style>
 </defs>
 <g id="figure_1">
  <g id="patch_1">
   <path d="M 0 455.812735 
L 799.471774 455.812735 
L 799.471774 0 
L 0 0 
L 0 455.812735 
z
" style="fill: none"/>
  </g>
  <g id="axes_1">
   <g id="patch_2">
    <path d="M 265.178649 360.399375 
L 711.578649 360.399375 
L 711.578649 27.759375 
L 265.178649 27.759375 
L 265.178649 360.399375 
z
" style="fill: none"/>
   </g>
   <g id="matplotlib.axis_1">
    <g id="xtick_1">
     <g id="text_1">
      <!-- Features -->
      <g style="fill: #262626" transform="translate(228.536973 385.646562) scale(0.22 -0.22)">
       <defs>
        <path id="ArialMT-46" d="M 525 0 
L 525 4581 
L 3616 4581 
L 3616 4041 
L 1131 4041 
L 1131 2622 
L 3281 2622 
L 3281 2081 
L 1131 2081 
L 1131 0 
L 525 0 
z
" transform="scale(0.015625)"/>
        <path id="ArialMT-65" d="M 2694 1069 
L 3275 997 
Q 3138 488 2766 206 
Q 2394 -75 1816 -75 
Q 1088 -75 661 373 
Q 234 822 234 1631 
Q 234 2469 665 2931 
Q 1097 3394 1784 3394 
Q 2450 3394 2872 2941 
Q 3294 2488 3294 1666 
Q 3294 1616 3291 1516 
L 816 1516 
Q 847 969 1125 678 
Q 1403 388 1819 388 
Q 2128 388 2347 550 
Q 2566 713 2694 1069 
z
M 847 1978 
L 2700 1978 
Q 2663 2397 2488 2606 
Q 2219 2931 1791 2931 
Q 1403 2931 1139 2672 
Q 875 2413 847 1978 
z
" transform="scale(0.015625)"/>
        <path id="ArialMT-61" d="M 2588 409 
Q 2275 144 1986 34 
Q 1697 -75 1366 -75 
Q 819 -75 525 192 
Q 231 459 231 875 
Q 231 1119 342 1320 
Q 453 1522 633 1644 
Q 813 1766 1038 1828 
Q 1203 1872 1538 1913 
Q 2219 1994 2541 2106 
Q 2544 2222 2544 2253 
Q 2544 2597 2384 2738 
Q 2169 2928 1744 2928 
Q 1347 2928 1158 2789 
Q 969 2650 878 2297 
L 328 2372 
Q 403 2725 575 2942 
Q 747 3159 1072 3276 
Q 1397 3394 1825 3394 
Q 2250 3394 2515 3294 
Q 2781 3194 2906 3042 
Q 3031 2891 3081 2659 
Q 3109 2516 3109 2141 
L 3109 1391 
Q 3109 606 3145 398 
Q 3181 191 3288 0 
L 2700 0 
Q 2613 175 2588 409 
z
M 2541 1666 
Q 2234 1541 1622 1453 
Q 1275 1403 1131 1340 
Q 988 1278 909 1158 
Q 831 1038 831 891 
Q 831 666 1001 516 
Q 1172 366 1500 366 
Q 1825 366 2078 508 
Q 2331 650 2450 897 
Q 2541 1088 2541 1459 
L 2541 1666 
z
" transform="scale(0.015625)"/>
        <path id="ArialMT-74" d="M 1650 503 
L 1731 6 
Q 1494 -44 1306 -44 
Q 1000 -44 831 53 
Q 663 150 594 308 
Q 525 466 525 972 
L 525 2881 
L 113 2881 
L 113 3319 
L 525 3319 
L 525 4141 
L 1084 4478 
L 1084 3319 
L 1650 3319 
L 1650 2881 
L 1084 2881 
L 1084 941 
Q 1084 700 1114 631 
Q 1144 563 1211 522 
Q 1278 481 1403 481 
Q 1497 481 1650 503 
z
" transform="scale(0.015625)"/>
        <path id="ArialMT-75" d="M 2597 0 
L 2597 488 
Q 2209 -75 1544 -75 
Q 1250 -75 995 37 
Q 741 150 617 320 
Q 494 491 444 738 
Q 409 903 409 1263 
L 409 3319 
L 972 3319 
L 972 1478 
Q 972 1038 1006 884 
Q 1059 663 1231 536 
Q 1403 409 1656 409 
Q 1909 409 2131 539 
Q 2353 669 2445 892 
Q 2538 1116 2538 1541 
L 2538 3319 
L 3100 3319 
L 3100 0 
L 2597 0 
z
" transform="scale(0.015625)"/>
        <path id="ArialMT-72" d="M 416 0 
L 416 3319 
L 922 3319 
L 922 2816 
Q 1116 3169 1280 3281 
Q 1444 3394 1641 3394 
Q 1925 3394 2219 3213 
L 2025 2691 
Q 1819 2813 1613 2813 
Q 1428 2813 1281 2702 
Q 1134 2591 1072 2394 
Q 978 2094 978 1738 
L 978 0 
L 416 0 
z
" transform="scale(0.015625)"/>
        <path id="ArialMT-73" d="M 197 991 
L 753 1078 
Q 800 744 1014 566 
Q 1228 388 1613 388 
Q 2000 388 2187 545 
Q 2375 703 2375 916 
Q 2375 1106 2209 1216 
Q 2094 1291 1634 1406 
Q 1016 1563 777 1677 
Q 538 1791 414 1992 
Q 291 2194 291 2438 
Q 291 2659 392 2848 
Q 494 3038 669 3163 
Q 800 3259 1026 3326 
Q 1253 3394 1513 3394 
Q 1903 3394 2198 3281 
Q 2494 3169 2634 2976 
Q 2775 2784 2828 2463 
L 2278 2388 
Q 2241 2644 2061 2787 
Q 1881 2931 1553 2931 
Q 1166 2931 1000 2803 
Q 834 2675 834 2503 
Q 834 2394 903 2306 
Q 972 2216 1119 2156 
Q 1203 2125 1616 2013 
Q 2213 1853 2448 1751 
Q 2684 1650 2818 1456 
Q 2953 1263 2953 975 
Q 2953 694 2789 445 
Q 2625 197 2315 61 
Q 2006 -75 1616 -75 
Q 969 -75 630 194 
Q 291 463 197 991 
z
" transform="scale(0.015625)"/>
       </defs>
       <use xlink:href="#ArialMT-46"/>
       <use xlink:href="#ArialMT-65" x="61.083984"/>
       <use xlink:href="#ArialMT-61" x="116.699219"/>
       <use xlink:href="#ArialMT-74" x="172.314453"/>
       <use xlink:href="#ArialMT-75" x="200.097656"/>
       <use xlink:href="#ArialMT-72" x="255.712891"/>
       <use xlink:href="#ArialMT-65" x="289.013672"/>
       <use xlink:href="#ArialMT-73" x="344.628906"/>
      </g>
     </g>
    </g>
    <g id="xtick_2">
     <g id="text_2">
      <!-- B16 -->
      <g style="fill: #262626" transform="translate(320.007242 385.646562) scale(0.22 -0.22)">
       <defs>
        <path id="ArialMT-42" d="M 469 0 
L 469 4581 
L 2188 4581 
Q 2713 4581 3030 4442 
Q 3347 4303 3526 4014 
Q 3706 3725 3706 3409 
Q 3706 3116 3547 2856 
Q 3388 2597 3066 2438 
Q 3481 2316 3704 2022 
Q 3928 1728 3928 1328 
Q 3928 1006 3792 729 
Q 3656 453 3456 303 
Q 3256 153 2954 76 
Q 2653 0 2216 0 
L 469 0 
z
M 1075 2656 
L 2066 2656 
Q 2469 2656 2644 2709 
Q 2875 2778 2992 2937 
Q 3109 3097 3109 3338 
Q 3109 3566 3000 3739 
Q 2891 3913 2687 3977 
Q 2484 4041 1991 4041 
L 1075 4041 
L 1075 2656 
z
M 1075 541 
L 2216 541 
Q 2509 541 2628 563 
Q 2838 600 2978 687 
Q 3119 775 3209 942 
Q 3300 1109 3300 1328 
Q 3300 1584 3169 1773 
Q 3038 1963 2805 2039 
Q 2572 2116 2134 2116 
L 1075 2116 
L 1075 541 
z
" transform="scale(0.015625)"/>
        <path id="ArialMT-31" d="M 2384 0 
L 1822 0 
L 1822 3584 
Q 1619 3391 1289 3197 
Q 959 3003 697 2906 
L 697 3450 
Q 1169 3672 1522 3987 
Q 1875 4303 2022 4600 
L 2384 4600 
L 2384 0 
z
" transform="scale(0.015625)"/>
        <path id="ArialMT-36" d="M 3184 3459 
L 2625 3416 
Q 2550 3747 2413 3897 
Q 2184 4138 1850 4138 
Q 1581 4138 1378 3988 
Q 1113 3794 959 3422 
Q 806 3050 800 2363 
Q 1003 2672 1297 2822 
Q 1591 2972 1913 2972 
Q 2475 2972 2870 2558 
Q 3266 2144 3266 1488 
Q 3266 1056 3080 686 
Q 2894 316 2569 119 
Q 2244 -78 1831 -78 
Q 1128 -78 684 439 
Q 241 956 241 2144 
Q 241 3472 731 4075 
Q 1159 4600 1884 4600 
Q 2425 4600 2770 4297 
Q 3116 3994 3184 3459 
z
M 888 1484 
Q 888 1194 1011 928 
Q 1134 663 1356 523 
Q 1578 384 1822 384 
Q 2178 384 2434 671 
Q 2691 959 2691 1453 
Q 2691 1928 2437 2201 
Q 2184 2475 1800 2475 
Q 1419 2475 1153 2201 
Q 888 1928 888 1484 
z
" transform="scale(0.015625)"/>
       </defs>
       <use xlink:href="#ArialMT-42"/>
       <use xlink:href="#ArialMT-31" x="66.699219"/>
       <use xlink:href="#ArialMT-36" x="122.314453"/>
      </g>
     </g>
    </g>
    <g id="xtick_3">
     <g id="text_3">
      <!-- N2a -->
      <g style="fill: #262626" transform="translate(387.036887 385.646562) scale(0.22 -0.22)">
       <defs>
        <path id="ArialMT-4e" d="M 488 0 
L 488 4581 
L 1109 4581 
L 3516 984 
L 3516 4581 
L 4097 4581 
L 4097 0 
L 3475 0 
L 1069 3600 
L 1069 0 
L 488 0 
z
" transform="scale(0.015625)"/>
        <path id="ArialMT-32" d="M 3222 541 
L 3222 0 
L 194 0 
Q 188 203 259 391 
Q 375 700 629 1000 
Q 884 1300 1366 1694 
Q 2113 2306 2375 2664 
Q 2638 3022 2638 3341 
Q 2638 3675 2398 3904 
Q 2159 4134 1775 4134 
Q 1369 4134 1125 3890 
Q 881 3647 878 3216 
L 300 3275 
Q 359 3922 746 4261 
Q 1134 4600 1788 4600 
Q 2447 4600 2831 4234 
Q 3216 3869 3216 3328 
Q 3216 3053 3103 2787 
Q 2991 2522 2730 2228 
Q 2469 1934 1863 1422 
Q 1356 997 1212 845 
Q 1069 694 975 541 
L 3222 541 
z
" transform="scale(0.015625)"/>
       </defs>
       <use xlink:href="#ArialMT-4e"/>
       <use xlink:href="#ArialMT-32" x="72.216797"/>
       <use xlink:href="#ArialMT-61" x="127.832031"/>
      </g>
     </g>
    </g>
    <g id="xtick_4">
     <g id="text_4">
      <!-- HepG2 -->
      <g style="fill: #262626" transform="translate(440.000282 385.914687) scale(0.22 -0.22)">
       <defs>
        <path id="ArialMT-48" d="M 513 0 
L 513 4581 
L 1119 4581 
L 1119 2700 
L 3500 2700 
L 3500 4581 
L 4106 4581 
L 4106 0 
L 3500 0 
L 3500 2159 
L 1119 2159 
L 1119 0 
L 513 0 
z
" transform="scale(0.015625)"/>
        <path id="ArialMT-70" d="M 422 -1272 
L 422 3319 
L 934 3319 
L 934 2888 
Q 1116 3141 1344 3267 
Q 1572 3394 1897 3394 
Q 2322 3394 2647 3175 
Q 2972 2956 3137 2557 
Q 3303 2159 3303 1684 
Q 3303 1175 3120 767 
Q 2938 359 2589 142 
Q 2241 -75 1856 -75 
Q 1575 -75 1351 44 
Q 1128 163 984 344 
L 984 -1272 
L 422 -1272 
z
M 931 1641 
Q 931 1000 1190 694 
Q 1450 388 1819 388 
Q 2194 388 2461 705 
Q 2728 1022 2728 1688 
Q 2728 2322 2467 2637 
Q 2206 2953 1844 2953 
Q 1484 2953 1207 2617 
Q 931 2281 931 1641 
z
" transform="scale(0.015625)"/>
        <path id="ArialMT-47" d="M 2638 1797 
L 2638 2334 
L 4578 2338 
L 4578 638 
Q 4131 281 3656 101 
Q 3181 -78 2681 -78 
Q 2006 -78 1454 211 
Q 903 500 622 1047 
Q 341 1594 341 2269 
Q 341 2938 620 3517 
Q 900 4097 1425 4378 
Q 1950 4659 2634 4659 
Q 3131 4659 3532 4498 
Q 3934 4338 4162 4050 
Q 4391 3763 4509 3300 
L 3963 3150 
Q 3859 3500 3706 3700 
Q 3553 3900 3268 4020 
Q 2984 4141 2638 4141 
Q 2222 4141 1919 4014 
Q 1616 3888 1430 3681 
Q 1244 3475 1141 3228 
Q 966 2803 966 2306 
Q 966 1694 1177 1281 
Q 1388 869 1791 669 
Q 2194 469 2647 469 
Q 3041 469 3416 620 
Q 3791 772 3984 944 
L 3984 1797 
L 2638 1797 
z
" transform="scale(0.015625)"/>
       </defs>
       <use xlink:href="#ArialMT-48"/>
       <use xlink:href="#ArialMT-65" x="72.216797"/>
       <use xlink:href="#ArialMT-70" x="127.832031"/>
       <use xlink:href="#ArialMT-47" x="183.447266"/>
       <use xlink:href="#ArialMT-32" x="261.230469"/>
      </g>
     </g>
    </g>
    <g id="xtick_5">
     <g id="text_5">
      <!-- PC3 -->
      <g style="fill: #262626" transform="translate(521.089302 385.646562) scale(0.22 -0.22)">
       <defs>
        <path id="ArialMT-50" d="M 494 0 
L 494 4581 
L 2222 4581 
Q 2678 4581 2919 4538 
Q 3256 4481 3484 4323 
Q 3713 4166 3852 3881 
Q 3991 3597 3991 3256 
Q 3991 2672 3619 2267 
Q 3247 1863 2275 1863 
L 1100 1863 
L 1100 0 
L 494 0 
z
M 1100 2403 
L 2284 2403 
Q 2872 2403 3119 2622 
Q 3366 2841 3366 3238 
Q 3366 3525 3220 3729 
Q 3075 3934 2838 4000 
Q 2684 4041 2272 4041 
L 1100 4041 
L 1100 2403 
z
" transform="scale(0.015625)"/>
        <path id="ArialMT-43" d="M 3763 1606 
L 4369 1453 
Q 4178 706 3683 314 
Q 3188 -78 2472 -78 
Q 1731 -78 1267 223 
Q 803 525 561 1097 
Q 319 1669 319 2325 
Q 319 3041 592 3573 
Q 866 4106 1370 4382 
Q 1875 4659 2481 4659 
Q 3169 4659 3637 4309 
Q 4106 3959 4291 3325 
L 3694 3184 
Q 3534 3684 3231 3912 
Q 2928 4141 2469 4141 
Q 1941 4141 1586 3887 
Q 1231 3634 1087 3207 
Q 944 2781 944 2328 
Q 944 1744 1114 1308 
Q 1284 872 1643 656 
Q 2003 441 2422 441 
Q 2931 441 3284 734 
Q 3638 1028 3763 1606 
z
" transform="scale(0.015625)"/>
        <path id="ArialMT-33" d="M 269 1209 
L 831 1284 
Q 928 806 1161 595 
Q 1394 384 1728 384 
Q 2125 384 2398 659 
Q 2672 934 2672 1341 
Q 2672 1728 2419 1979 
Q 2166 2231 1775 2231 
Q 1616 2231 1378 2169 
L 1441 2663 
Q 1497 2656 1531 2656 
Q 1891 2656 2178 2843 
Q 2466 3031 2466 3422 
Q 2466 3731 2256 3934 
Q 2047 4138 1716 4138 
Q 1388 4138 1169 3931 
Q 950 3725 888 3313 
L 325 3413 
Q 428 3978 793 4289 
Q 1159 4600 1703 4600 
Q 2078 4600 2393 4439 
Q 2709 4278 2876 4000 
Q 3044 3722 3044 3409 
Q 3044 3113 2884 2869 
Q 2725 2625 2413 2481 
Q 2819 2388 3044 2092 
Q 3269 1797 3269 1353 
Q 3269 753 2831 336 
Q 2394 -81 1725 -81 
Q 1122 -81 723 278 
Q 325 638 269 1209 
z
" transform="scale(0.015625)"/>
       </defs>
       <use xlink:href="#ArialMT-50"/>
       <use xlink:href="#ArialMT-43" x="66.699219"/>
       <use xlink:href="#ArialMT-33" x="138.916016"/>
      </g>
     </g>
    </g>
    <g id="xtick_6">
     <g id="text_6">
      <!-- HEK293 -->
      <g style="fill: #262626" transform="translate(569.15426 385.646562) scale(0.22 -0.22)">
       <defs>
        <path id="ArialMT-45" d="M 506 0 
L 506 4581 
L 3819 4581 
L 3819 4041 
L 1113 4041 
L 1113 2638 
L 3647 2638 
L 3647 2100 
L 1113 2100 
L 1113 541 
L 3925 541 
L 3925 0 
L 506 0 
z
" transform="scale(0.015625)"/>
        <path id="ArialMT-4b" d="M 469 0 
L 469 4581 
L 1075 4581 
L 1075 2309 
L 3350 4581 
L 4172 4581 
L 2250 2725 
L 4256 0 
L 3456 0 
L 1825 2319 
L 1075 1588 
L 1075 0 
L 469 0 
z
" transform="scale(0.015625)"/>
        <path id="ArialMT-39" d="M 350 1059 
L 891 1109 
Q 959 728 1153 556 
Q 1347 384 1650 384 
Q 1909 384 2104 503 
Q 2300 622 2425 820 
Q 2550 1019 2634 1356 
Q 2719 1694 2719 2044 
Q 2719 2081 2716 2156 
Q 2547 1888 2255 1720 
Q 1963 1553 1622 1553 
Q 1053 1553 659 1965 
Q 266 2378 266 3053 
Q 266 3750 677 4175 
Q 1088 4600 1706 4600 
Q 2153 4600 2523 4359 
Q 2894 4119 3086 3673 
Q 3278 3228 3278 2384 
Q 3278 1506 3087 986 
Q 2897 466 2520 194 
Q 2144 -78 1638 -78 
Q 1100 -78 759 220 
Q 419 519 350 1059 
z
M 2653 3081 
Q 2653 3566 2395 3850 
Q 2138 4134 1775 4134 
Q 1400 4134 1122 3828 
Q 844 3522 844 3034 
Q 844 2597 1108 2323 
Q 1372 2050 1759 2050 
Q 2150 2050 2401 2323 
Q 2653 2597 2653 3081 
z
" transform="scale(0.015625)"/>
       </defs>
       <use xlink:href="#ArialMT-48"/>
       <use xlink:href="#ArialMT-45" x="72.216797"/>
       <use xlink:href="#ArialMT-4b" x="138.916016"/>
       <use xlink:href="#ArialMT-32" x="205.615234"/>
       <use xlink:href="#ArialMT-39" x="261.230469"/>
       <use xlink:href="#ArialMT-33" x="316.845703"/>
      </g>
     </g>
    </g>
    <g id="xtick_7">
     <g id="text_7">
      <!-- ARPE19 -->
      <g style="fill: #262626" transform="translate(635.570311 385.646562) scale(0.22 -0.22)">
       <defs>
        <path id="ArialMT-41" d="M -9 0 
L 1750 4581 
L 2403 4581 
L 4278 0 
L 3588 0 
L 3053 1388 
L 1138 1388 
L 634 0 
L -9 0 
z
M 1313 1881 
L 2866 1881 
L 2388 3150 
Q 2169 3728 2063 4100 
Q 1975 3659 1816 3225 
L 1313 1881 
z
" transform="scale(0.015625)"/>
        <path id="ArialMT-52" d="M 503 0 
L 503 4581 
L 2534 4581 
Q 3147 4581 3465 4457 
Q 3784 4334 3975 4021 
Q 4166 3709 4166 3331 
Q 4166 2844 3850 2509 
Q 3534 2175 2875 2084 
Q 3116 1969 3241 1856 
Q 3506 1613 3744 1247 
L 4541 0 
L 3778 0 
L 3172 953 
Q 2906 1366 2734 1584 
Q 2563 1803 2427 1890 
Q 2291 1978 2150 2013 
Q 2047 2034 1813 2034 
L 1109 2034 
L 1109 0 
L 503 0 
z
M 1109 2559 
L 2413 2559 
Q 2828 2559 3062 2645 
Q 3297 2731 3419 2920 
Q 3541 3109 3541 3331 
Q 3541 3656 3305 3865 
Q 3069 4075 2559 4075 
L 1109 4075 
L 1109 2559 
z
" transform="scale(0.015625)"/>
       </defs>
       <use xlink:href="#ArialMT-41"/>
       <use xlink:href="#ArialMT-52" x="66.699219"/>
       <use xlink:href="#ArialMT-50" x="138.916016"/>
       <use xlink:href="#ArialMT-45" x="205.615234"/>
       <use xlink:href="#ArialMT-31" x="272.314453"/>
       <use xlink:href="#ArialMT-39" x="327.929688"/>
      </g>
     </g>
    </g>
   </g>
   <g id="matplotlib.axis_2">
    <g id="ytick_1">
     <g id="line2d_1">
      <path d="M 265.178649 307.176975 
L 711.578649 307.176975 
" clip-path="url(#p0598faed10)" style="fill: none; stroke: #ffffff; stroke-linecap: round"/>
     </g>
     <g id="line2d_2">
      <defs>
       <path id="md3217db7b7" d="M 0 0 
L -6 0 
" style="stroke: #262626; stroke-width: 1.25"/>
      </defs>
      <g>
       <use xlink:href="#md3217db7b7" x="265.178649" y="307.176975" style="fill: #262626; stroke: #262626; stroke-width: 1.25"/>
      </g>
     </g>
     <g id="text_8">
      <!-- P_charged_centers -->
      <g style="fill: #262626" transform="translate(117.504238 445.338609) rotate(-45) scale(0.22 -0.22)">
       <defs>
        <path id="ArialMT-5f" d="M -97 -1272 
L -97 -866 
L 3631 -866 
L 3631 -1272 
L -97 -1272 
z
" transform="scale(0.015625)"/>
        <path id="ArialMT-63" d="M 2588 1216 
L 3141 1144 
Q 3050 572 2676 248 
Q 2303 -75 1759 -75 
Q 1078 -75 664 370 
Q 250 816 250 1647 
Q 250 2184 428 2587 
Q 606 2991 970 3192 
Q 1334 3394 1763 3394 
Q 2303 3394 2647 3120 
Q 2991 2847 3088 2344 
L 2541 2259 
Q 2463 2594 2264 2762 
Q 2066 2931 1784 2931 
Q 1359 2931 1093 2626 
Q 828 2322 828 1663 
Q 828 994 1084 691 
Q 1341 388 1753 388 
Q 2084 388 2306 591 
Q 2528 794 2588 1216 
z
" transform="scale(0.015625)"/>
        <path id="ArialMT-68" d="M 422 0 
L 422 4581 
L 984 4581 
L 984 2938 
Q 1378 3394 1978 3394 
Q 2347 3394 2619 3248 
Q 2891 3103 3008 2847 
Q 3125 2591 3125 2103 
L 3125 0 
L 2563 0 
L 2563 2103 
Q 2563 2525 2380 2717 
Q 2197 2909 1863 2909 
Q 1613 2909 1392 2779 
Q 1172 2650 1078 2428 
Q 984 2206 984 1816 
L 984 0 
L 422 0 
z
" transform="scale(0.015625)"/>
        <path id="ArialMT-67" d="M 319 -275 
L 866 -356 
Q 900 -609 1056 -725 
Q 1266 -881 1628 -881 
Q 2019 -881 2231 -725 
Q 2444 -569 2519 -288 
Q 2563 -116 2559 434 
Q 2191 0 1641 0 
Q 956 0 581 494 
Q 206 988 206 1678 
Q 206 2153 378 2554 
Q 550 2956 876 3175 
Q 1203 3394 1644 3394 
Q 2231 3394 2613 2919 
L 2613 3319 
L 3131 3319 
L 3131 450 
Q 3131 -325 2973 -648 
Q 2816 -972 2473 -1159 
Q 2131 -1347 1631 -1347 
Q 1038 -1347 672 -1080 
Q 306 -813 319 -275 
z
M 784 1719 
Q 784 1066 1043 766 
Q 1303 466 1694 466 
Q 2081 466 2343 764 
Q 2606 1063 2606 1700 
Q 2606 2309 2336 2618 
Q 2066 2928 1684 2928 
Q 1309 2928 1046 2623 
Q 784 2319 784 1719 
z
" transform="scale(0.015625)"/>
        <path id="ArialMT-64" d="M 2575 0 
L 2575 419 
Q 2259 -75 1647 -75 
Q 1250 -75 917 144 
Q 584 363 401 755 
Q 219 1147 219 1656 
Q 219 2153 384 2558 
Q 550 2963 881 3178 
Q 1213 3394 1622 3394 
Q 1922 3394 2156 3267 
Q 2391 3141 2538 2938 
L 2538 4581 
L 3097 4581 
L 3097 0 
L 2575 0 
z
M 797 1656 
Q 797 1019 1065 703 
Q 1334 388 1700 388 
Q 2069 388 2326 689 
Q 2584 991 2584 1609 
Q 2584 2291 2321 2609 
Q 2059 2928 1675 2928 
Q 1300 2928 1048 2622 
Q 797 2316 797 1656 
z
" transform="scale(0.015625)"/>
        <path id="ArialMT-6e" d="M 422 0 
L 422 3319 
L 928 3319 
L 928 2847 
Q 1294 3394 1984 3394 
Q 2284 3394 2536 3286 
Q 2788 3178 2913 3003 
Q 3038 2828 3088 2588 
Q 3119 2431 3119 2041 
L 3119 0 
L 2556 0 
L 2556 2019 
Q 2556 2363 2490 2533 
Q 2425 2703 2258 2804 
Q 2091 2906 1866 2906 
Q 1506 2906 1245 2678 
Q 984 2450 984 1813 
L 984 0 
L 422 0 
z
" transform="scale(0.015625)"/>
       </defs>
       <use xlink:href="#ArialMT-50"/>
       <use xlink:href="#ArialMT-5f" x="66.699219"/>
       <use xlink:href="#ArialMT-63" x="122.314453"/>
       <use xlink:href="#ArialMT-68" x="172.314453"/>
       <use xlink:href="#ArialMT-61" x="227.929688"/>
       <use xlink:href="#ArialMT-72" x="283.544922"/>
       <use xlink:href="#ArialMT-67" x="316.845703"/>
       <use xlink:href="#ArialMT-65" x="372.460938"/>
       <use xlink:href="#ArialMT-64" x="428.076172"/>
       <use xlink:href="#ArialMT-5f" x="483.691406"/>
       <use xlink:href="#ArialMT-63" x="539.306641"/>
       <use xlink:href="#ArialMT-65" x="589.306641"/>
       <use xlink:href="#ArialMT-6e" x="644.921875"/>
       <use xlink:href="#ArialMT-74" x="700.537109"/>
       <use xlink:href="#ArialMT-65" x="728.320312"/>
       <use xlink:href="#ArialMT-72" x="783.935547"/>
       <use xlink:href="#ArialMT-73" x="817.236328"/>
      </g>
     </g>
    </g>
    <g id="ytick_2">
     <g id="line2d_3">
      <path d="M 265.178649 273.912975 
L 711.578649 273.912975 
" clip-path="url(#p0598faed10)" style="fill: none; stroke: #ffffff; stroke-linecap: round"/>
     </g>
     <g id="line2d_4">
      <g>
       <use xlink:href="#md3217db7b7" x="265.178649" y="273.912975" style="fill: #262626; stroke: #262626; stroke-width: 1.25"/>
      </g>
     </g>
     <g id="text_9">
      <!-- N_charged_centers -->
      <g style="fill: #262626" transform="translate(116.646209 412.932639) rotate(-45) scale(0.22 -0.22)">
       <use xlink:href="#ArialMT-4e"/>
       <use xlink:href="#ArialMT-5f" x="72.216797"/>
       <use xlink:href="#ArialMT-63" x="127.832031"/>
       <use xlink:href="#ArialMT-68" x="177.832031"/>
       <use xlink:href="#ArialMT-61" x="233.447266"/>
       <use xlink:href="#ArialMT-72" x="289.0625"/>
       <use xlink:href="#ArialMT-67" x="322.363281"/>
       <use xlink:href="#ArialMT-65" x="377.978516"/>
       <use xlink:href="#ArialMT-64" x="433.59375"/>
       <use xlink:href="#ArialMT-5f" x="489.208984"/>
       <use xlink:href="#ArialMT-63" x="544.824219"/>
       <use xlink:href="#ArialMT-65" x="594.824219"/>
       <use xlink:href="#ArialMT-6e" x="650.439453"/>
       <use xlink:href="#ArialMT-74" x="706.054688"/>
       <use xlink:href="#ArialMT-65" x="733.837891"/>
       <use xlink:href="#ArialMT-72" x="789.453125"/>
       <use xlink:href="#ArialMT-73" x="822.753906"/>
      </g>
     </g>
    </g>
    <g id="ytick_3">
     <g id="line2d_5">
      <path d="M 265.178649 240.648975 
L 711.578649 240.648975 
" clip-path="url(#p0598faed10)" style="fill: none; stroke: #ffffff; stroke-linecap: round"/>
     </g>
     <g id="line2d_6">
      <g>
       <use xlink:href="#md3217db7b7" x="265.178649" y="240.648975" style="fill: #262626; stroke: #262626; stroke-width: 1.25"/>
      </g>
     </g>
     <g id="text_10">
      <!-- Double_bonds -->
      <g style="fill: #262626" transform="translate(152.260525 344.236623) rotate(-45) scale(0.22 -0.22)">
       <defs>
        <path id="ArialMT-44" d="M 494 0 
L 494 4581 
L 2072 4581 
Q 2606 4581 2888 4516 
Q 3281 4425 3559 4188 
Q 3922 3881 4101 3404 
Q 4281 2928 4281 2316 
Q 4281 1794 4159 1391 
Q 4038 988 3847 723 
Q 3656 459 3429 307 
Q 3203 156 2883 78 
Q 2563 0 2147 0 
L 494 0 
z
M 1100 541 
L 2078 541 
Q 2531 541 2789 625 
Q 3047 709 3200 863 
Q 3416 1078 3536 1442 
Q 3656 1806 3656 2325 
Q 3656 3044 3420 3430 
Q 3184 3816 2847 3947 
Q 2603 4041 2063 4041 
L 1100 4041 
L 1100 541 
z
" transform="scale(0.015625)"/>
        <path id="ArialMT-6f" d="M 213 1659 
Q 213 2581 725 3025 
Q 1153 3394 1769 3394 
Q 2453 3394 2887 2945 
Q 3322 2497 3322 1706 
Q 3322 1066 3130 698 
Q 2938 331 2570 128 
Q 2203 -75 1769 -75 
Q 1072 -75 642 372 
Q 213 819 213 1659 
z
M 791 1659 
Q 791 1022 1069 705 
Q 1347 388 1769 388 
Q 2188 388 2466 706 
Q 2744 1025 2744 1678 
Q 2744 2294 2464 2611 
Q 2184 2928 1769 2928 
Q 1347 2928 1069 2612 
Q 791 2297 791 1659 
z
" transform="scale(0.015625)"/>
        <path id="ArialMT-62" d="M 941 0 
L 419 0 
L 419 4581 
L 981 4581 
L 981 2947 
Q 1338 3394 1891 3394 
Q 2197 3394 2470 3270 
Q 2744 3147 2920 2923 
Q 3097 2700 3197 2384 
Q 3297 2069 3297 1709 
Q 3297 856 2875 390 
Q 2453 -75 1863 -75 
Q 1275 -75 941 416 
L 941 0 
z
M 934 1684 
Q 934 1088 1097 822 
Q 1363 388 1816 388 
Q 2184 388 2453 708 
Q 2722 1028 2722 1663 
Q 2722 2313 2464 2622 
Q 2206 2931 1841 2931 
Q 1472 2931 1203 2611 
Q 934 2291 934 1684 
z
" transform="scale(0.015625)"/>
        <path id="ArialMT-6c" d="M 409 0 
L 409 4581 
L 972 4581 
L 972 0 
L 409 0 
z
" transform="scale(0.015625)"/>
       </defs>
       <use xlink:href="#ArialMT-44"/>
       <use xlink:href="#ArialMT-6f" x="72.216797"/>
       <use xlink:href="#ArialMT-75" x="127.832031"/>
       <use xlink:href="#ArialMT-62" x="183.447266"/>
       <use xlink:href="#ArialMT-6c" x="239.0625"/>
       <use xlink:href="#ArialMT-65" x="261.279297"/>
       <use xlink:href="#ArialMT-5f" x="316.894531"/>
       <use xlink:href="#ArialMT-62" x="372.509766"/>
       <use xlink:href="#ArialMT-6f" x="428.125"/>
       <use xlink:href="#ArialMT-6e" x="483.740234"/>
       <use xlink:href="#ArialMT-64" x="539.355469"/>
       <use xlink:href="#ArialMT-73" x="594.970703"/>
      </g>
     </g>
    </g>
    <g id="ytick_4">
     <g id="line2d_7">
      <path d="M 265.178649 207.384975 
L 711.578649 207.384975 
" clip-path="url(#p0598faed10)" style="fill: none; stroke: #ffffff; stroke-linecap: round"/>
     </g>
     <g id="line2d_8">
      <g>
       <use xlink:href="#md3217db7b7" x="265.178649" y="207.384975" style="fill: #262626; stroke: #262626; stroke-width: 1.25"/>
      </g>
     </g>
     <g id="text_11">
      <!-- NP_ratio -->
      <g style="fill: #262626" transform="translate(192.065334 271.167815) rotate(-45) scale(0.22 -0.22)">
       <defs>
        <path id="ArialMT-69" d="M 425 3934 
L 425 4581 
L 988 4581 
L 988 3934 
L 425 3934 
z
M 425 0 
L 425 3319 
L 988 3319 
L 988 0 
L 425 0 
z
" transform="scale(0.015625)"/>
       </defs>
       <use xlink:href="#ArialMT-4e"/>
       <use xlink:href="#ArialMT-50" x="72.216797"/>
       <use xlink:href="#ArialMT-5f" x="138.916016"/>
       <use xlink:href="#ArialMT-72" x="194.53125"/>
       <use xlink:href="#ArialMT-61" x="227.832031"/>
       <use xlink:href="#ArialMT-74" x="283.447266"/>
       <use xlink:href="#ArialMT-69" x="311.230469"/>
       <use xlink:href="#ArialMT-6f" x="333.447266"/>
      </g>
     </g>
    </g>
    <g id="ytick_5">
     <g id="line2d_9">
      <path d="M 265.178649 174.120975 
L 711.578649 174.120975 
" clip-path="url(#p0598faed10)" style="fill: none; stroke: #ffffff; stroke-linecap: round"/>
     </g>
     <g id="line2d_10">
      <g>
       <use xlink:href="#md3217db7b7" x="265.178649" y="174.120975" style="fill: #262626; stroke: #262626; stroke-width: 1.25"/>
      </g>
     </g>
     <g id="text_12">
      <!-- Dlin-MC3_Helper lipid_ratio -->
      <g style="fill: #262626" transform="translate(62.388579 367.6361) rotate(-45) scale(0.22 -0.22)">
       <defs>
        <path id="ArialMT-2d" d="M 203 1375 
L 203 1941 
L 1931 1941 
L 1931 1375 
L 203 1375 
z
" transform="scale(0.015625)"/>
        <path id="ArialMT-4d" d="M 475 0 
L 475 4581 
L 1388 4581 
L 2472 1338 
Q 2622 884 2691 659 
Q 2769 909 2934 1394 
L 4031 4581 
L 4847 4581 
L 4847 0 
L 4263 0 
L 4263 3834 
L 2931 0 
L 2384 0 
L 1059 3900 
L 1059 0 
L 475 0 
z
" transform="scale(0.015625)"/>
        <path id="ArialMT-20" transform="scale(0.015625)"/>
       </defs>
       <use xlink:href="#ArialMT-44"/>
       <use xlink:href="#ArialMT-6c" x="72.216797"/>
       <use xlink:href="#ArialMT-69" x="94.433594"/>
       <use xlink:href="#ArialMT-6e" x="116.650391"/>
       <use xlink:href="#ArialMT-2d" x="172.265625"/>
       <use xlink:href="#ArialMT-4d" x="205.566406"/>
       <use xlink:href="#ArialMT-43" x="288.867188"/>
       <use xlink:href="#ArialMT-33" x="361.083984"/>
       <use xlink:href="#ArialMT-5f" x="416.699219"/>
       <use xlink:href="#ArialMT-48" x="472.314453"/>
       <use xlink:href="#ArialMT-65" x="544.53125"/>
       <use xlink:href="#ArialMT-6c" x="600.146484"/>
       <use xlink:href="#ArialMT-70" x="622.363281"/>
       <use xlink:href="#ArialMT-65" x="677.978516"/>
       <use xlink:href="#ArialMT-72" x="733.59375"/>
       <use xlink:href="#ArialMT-20" x="766.894531"/>
       <use xlink:href="#ArialMT-6c" x="794.677734"/>
       <use xlink:href="#ArialMT-69" x="816.894531"/>
       <use xlink:href="#ArialMT-70" x="839.111328"/>
       <use xlink:href="#ArialMT-69" x="894.726562"/>
       <use xlink:href="#ArialMT-64" x="916.943359"/>
       <use xlink:href="#ArialMT-5f" x="972.558594"/>
       <use xlink:href="#ArialMT-72" x="1028.173828"/>
       <use xlink:href="#ArialMT-61" x="1061.474609"/>
       <use xlink:href="#ArialMT-74" x="1117.089844"/>
       <use xlink:href="#ArialMT-69" x="1144.873047"/>
       <use xlink:href="#ArialMT-6f" x="1167.089844"/>
      </g>
     </g>
    </g>
    <g id="ytick_6">
     <g id="line2d_11">
      <path d="M 265.178649 140.856975 
L 711.578649 140.856975 
" clip-path="url(#p0598faed10)" style="fill: none; stroke: #ffffff; stroke-linecap: round"/>
     </g>
     <g id="line2d_12">
      <g>
       <use xlink:href="#md3217db7b7" x="265.178649" y="140.856975" style="fill: #262626; stroke: #262626; stroke-width: 1.25"/>
      </g>
     </g>
     <g id="text_13">
      <!-- Dlin-MC3+Helper lipid percentage -->
      <g style="fill: #262626" transform="translate(18.524536 378.053842) rotate(-45) scale(0.22 -0.22)">
       <defs>
        <path id="ArialMT-2b" d="M 1603 741 
L 1603 1997 
L 356 1997 
L 356 2522 
L 1603 2522 
L 1603 3769 
L 2134 3769 
L 2134 2522 
L 3381 2522 
L 3381 1997 
L 2134 1997 
L 2134 741 
L 1603 741 
z
" transform="scale(0.015625)"/>
       </defs>
       <use xlink:href="#ArialMT-44"/>
       <use xlink:href="#ArialMT-6c" x="72.216797"/>
       <use xlink:href="#ArialMT-69" x="94.433594"/>
       <use xlink:href="#ArialMT-6e" x="116.650391"/>
       <use xlink:href="#ArialMT-2d" x="172.265625"/>
       <use xlink:href="#ArialMT-4d" x="205.566406"/>
       <use xlink:href="#ArialMT-43" x="288.867188"/>
       <use xlink:href="#ArialMT-33" x="361.083984"/>
       <use xlink:href="#ArialMT-2b" x="416.699219"/>
       <use xlink:href="#ArialMT-48" x="475.097656"/>
       <use xlink:href="#ArialMT-65" x="547.314453"/>
       <use xlink:href="#ArialMT-6c" x="602.929688"/>
       <use xlink:href="#ArialMT-70" x="625.146484"/>
       <use xlink:href="#ArialMT-65" x="680.761719"/>
       <use xlink:href="#ArialMT-72" x="736.376953"/>
       <use xlink:href="#ArialMT-20" x="769.677734"/>
       <use xlink:href="#ArialMT-6c" x="797.460938"/>
       <use xlink:href="#ArialMT-69" x="819.677734"/>
       <use xlink:href="#ArialMT-70" x="841.894531"/>
       <use xlink:href="#ArialMT-69" x="897.509766"/>
       <use xlink:href="#ArialMT-64" x="919.726562"/>
       <use xlink:href="#ArialMT-20" x="975.341797"/>
       <use xlink:href="#ArialMT-70" x="1003.125"/>
       <use xlink:href="#ArialMT-65" x="1058.740234"/>
       <use xlink:href="#ArialMT-72" x="1114.355469"/>
       <use xlink:href="#ArialMT-63" x="1147.65625"/>
       <use xlink:href="#ArialMT-65" x="1197.65625"/>
       <use xlink:href="#ArialMT-6e" x="1253.271484"/>
       <use xlink:href="#ArialMT-74" x="1308.886719"/>
       <use xlink:href="#ArialMT-61" x="1336.669922"/>
       <use xlink:href="#ArialMT-67" x="1392.285156"/>
       <use xlink:href="#ArialMT-65" x="1447.900391"/>
      </g>
     </g>
    </g>
    <g id="ytick_7">
     <g id="line2d_13">
      <path d="M 265.178649 107.592975 
L 711.578649 107.592975 
" clip-path="url(#p0598faed10)" style="fill: none; stroke: #ffffff; stroke-linecap: round"/>
     </g>
     <g id="line2d_14">
      <g>
       <use xlink:href="#md3217db7b7" x="265.178649" y="107.592975" style="fill: #262626; stroke: #262626; stroke-width: 1.25"/>
      </g>
     </g>
     <g id="text_14">
      <!-- Chol_DMG-PEG_ratio -->
      <g style="fill: #262626" transform="translate(98.707793 264.788886) rotate(-45) scale(0.22 -0.22)">
       <use xlink:href="#ArialMT-43"/>
       <use xlink:href="#ArialMT-68" x="72.216797"/>
       <use xlink:href="#ArialMT-6f" x="127.832031"/>
       <use xlink:href="#ArialMT-6c" x="183.447266"/>
       <use xlink:href="#ArialMT-5f" x="205.664062"/>
       <use xlink:href="#ArialMT-44" x="261.279297"/>
       <use xlink:href="#ArialMT-4d" x="333.496094"/>
       <use xlink:href="#ArialMT-47" x="416.796875"/>
       <use xlink:href="#ArialMT-2d" x="494.580078"/>
       <use xlink:href="#ArialMT-50" x="527.880859"/>
       <use xlink:href="#ArialMT-45" x="594.580078"/>
       <use xlink:href="#ArialMT-47" x="661.279297"/>
       <use xlink:href="#ArialMT-5f" x="739.0625"/>
       <use xlink:href="#ArialMT-72" x="794.677734"/>
       <use xlink:href="#ArialMT-61" x="827.978516"/>
       <use xlink:href="#ArialMT-74" x="883.59375"/>
       <use xlink:href="#ArialMT-69" x="911.376953"/>
       <use xlink:href="#ArialMT-6f" x="933.59375"/>
      </g>
     </g>
    </g>
    <g id="ytick_8">
     <g id="line2d_15">
      <path d="M 265.178649 74.328975 
L 711.578649 74.328975 
" clip-path="url(#p0598faed10)" style="fill: none; stroke: #ffffff; stroke-linecap: round"/>
     </g>
     <g id="line2d_16">
      <g>
       <use xlink:href="#md3217db7b7" x="265.178649" y="74.328975" style="fill: #262626; stroke: #262626; stroke-width: 1.25"/>
      </g>
     </g>
     <g id="text_15">
      <!-- cLogP -->
      <g style="fill: #262626" transform="translate(208.297412 121.697436) rotate(-45) scale(0.22 -0.22)">
       <defs>
        <path id="ArialMT-4c" d="M 469 0 
L 469 4581 
L 1075 4581 
L 1075 541 
L 3331 541 
L 3331 0 
L 469 0 
z
" transform="scale(0.015625)"/>
       </defs>
       <use xlink:href="#ArialMT-63"/>
       <use xlink:href="#ArialMT-4c" x="50"/>
       <use xlink:href="#ArialMT-6f" x="105.615234"/>
       <use xlink:href="#ArialMT-67" x="161.230469"/>
       <use xlink:href="#ArialMT-50" x="216.845703"/>
      </g>
     </g>
    </g>
    <g id="ytick_9">
     <g id="line2d_17">
      <path d="M 265.178649 41.064975 
L 711.578649 41.064975 
" clip-path="url(#p0598faed10)" style="fill: none; stroke: #ffffff; stroke-linecap: round"/>
     </g>
     <g id="line2d_18">
      <g>
       <use xlink:href="#md3217db7b7" x="265.178649" y="41.064975" style="fill: #262626; stroke: #262626; stroke-width: 1.25"/>
      </g>
     </g>
     <g id="text_16">
      <!-- Hbond_D -->
      <g style="fill: #262626" transform="translate(186.86368 110.049469) rotate(-45) scale(0.22 -0.22)">
       <use xlink:href="#ArialMT-48"/>
       <use xlink:href="#ArialMT-62" x="72.216797"/>
       <use xlink:href="#ArialMT-6f" x="127.832031"/>
       <use xlink:href="#ArialMT-6e" x="183.447266"/>
       <use xlink:href="#ArialMT-64" x="239.0625"/>
       <use xlink:href="#ArialMT-5f" x="294.677734"/>
       <use xlink:href="#ArialMT-44" x="350.292969"/>
      </g>
     </g>
    </g>
   </g>
   <g id="line2d_19">
    <path d="M 271.942285 307.176975 
L 279.201789 307.110338 
L 280.008401 306.721818 
L 280.815012 305.995564 
L 281.621624 304.942153 
L 282.428236 303.572164 
L 283.638153 300.946738 
L 284.84807 297.668517 
L 286.057988 293.773204 
L 287.671211 287.68124 
L 289.284434 280.640323 
L 291.300963 270.633639 
L 293.317492 259.44174 
L 295.737326 244.679705 
L 298.560467 225.982119 
L 302.190219 200.30615 
L 313.886087 115.9799 
L 316.709227 97.760301 
L 319.129062 83.52633 
L 321.145591 72.857941 
L 323.16212 63.450639 
L 324.775343 56.943855 
L 326.388566 51.434581 
L 327.598483 48.008152 
L 328.808401 45.226128 
L 330.018318 43.124213 
L 330.82493 42.118406 
L 331.631541 41.441316 
L 332.438153 41.103521 
L 333.64807 41.064975 
L 482.064599 41.119785 
L 482.871211 41.488606 
L 483.677822 42.195768 
L 484.484434 43.230694 
L 485.291045 44.582805 
L 486.500963 47.182551 
L 487.71088 50.436458 
L 488.920797 54.308823 
L 490.534021 60.372315 
L 492.147244 67.387186 
L 494.163773 77.364728 
L 496.180302 88.531279 
L 498.600136 103.267903 
L 501.423277 121.942748 
L 505.053029 147.600404 
L 517.152202 234.647681 
L 519.975343 252.669883 
L 522.395178 266.689004 
L 524.411707 277.14616 
L 526.428236 286.312965 
L 528.041459 292.606281 
L 529.654682 297.883357 
L 530.864599 301.123347 
L 532.074517 303.708396 
L 532.881128 305.050275 
L 533.68774 306.074622 
L 534.494351 306.770859 
L 535.300963 307.128408 
L 536.51088 307.176975 
L 549.819971 307.089437 
L 550.626583 306.670031 
L 551.433194 305.913845 
L 552.239806 304.831456 
L 553.046417 303.433444 
L 554.256335 300.76777 
L 555.466252 297.451448 
L 556.676169 293.520179 
L 558.289393 287.383613 
L 559.902616 280.301909 
L 561.919145 270.249607 
L 563.935674 259.01805 
L 566.355508 244.216296 
L 569.178649 225.483219 
L 572.808401 199.778788 
L 584.504269 115.492215 
L 587.327409 97.312238 
L 589.747244 83.121528 
L 591.763773 72.495748 
L 593.780302 63.137016 
L 595.393525 56.67338 
L 597.006748 51.21107 
L 598.216665 47.822367 
L 599.426583 45.080215 
L 600.6365 43.020319 
L 601.443112 42.043716 
L 602.249723 41.396784 
L 603.056335 41.090102 
L 605.072864 41.064975 
L 684.524103 41.064975 
L 684.524103 41.064975 
" clip-path="url(#p0598faed10)" style="fill: none; stroke: #f77189; stroke-opacity: 0.75; stroke-width: 5; stroke-linecap: round"/>
   </g>
   <g id="line2d_20">
    <path d="M 271.942285 273.912975 
L 280.411707 274.010066 
L 282.428236 274.363576 
L 284.444764 274.956149 
L 286.461293 275.767121 
L 288.881128 276.999486 
L 291.300963 278.480892 
L 294.124103 280.476329 
L 297.35055 283.039665 
L 301.383607 286.544122 
L 315.49931 299.137627 
L 318.725756 301.585498 
L 321.548897 303.451309 
L 323.968731 304.800366 
L 326.388566 305.880774 
L 328.405095 306.550139 
L 330.421624 306.987487 
L 332.438153 307.172157 
L 342.117492 307.176975 
L 348.167078 307.265731 
L 350.183607 307.560285 
L 352.603442 308.163457 
L 355.023277 309.012061 
L 357.846417 310.274194 
L 360.669558 311.786154 
L 363.896004 313.76184 
L 367.929062 316.503867 
L 374.78526 321.505934 
L 380.834847 325.831425 
L 384.867905 328.437795 
L 388.094351 330.258443 
L 390.917492 331.600832 
L 393.337326 332.529133 
L 395.757161 333.222069 
L 397.77369 333.599117 
L 399.790219 333.776353 
L 404.629888 333.788175 
L 415.92245 333.687616 
L 417.938979 333.381374 
L 420.358814 332.765463 
L 422.778649 331.905526 
L 425.601789 330.631946 
L 428.42493 329.11045 
L 431.651376 327.126209 
L 435.684434 324.376998 
L 442.540632 319.371674 
L 448.590219 315.052674 
L 452.623277 312.455509 
L 455.849723 310.645034 
L 458.672864 309.313595 
L 461.092698 308.396201 
L 463.512533 307.715577 
L 465.529062 307.349863 
L 467.545591 307.184936 
L 473.998483 307.176975 
L 549.819971 307.089437 
L 550.626583 306.670031 
L 551.433194 305.913845 
L 552.239806 304.831456 
L 553.046417 303.433444 
L 554.256335 300.76777 
L 555.466252 297.451448 
L 556.676169 293.520179 
L 558.289393 287.383613 
L 559.902616 280.301909 
L 561.919145 270.249607 
L 563.935674 259.01805 
L 566.355508 244.216296 
L 569.178649 225.483219 
L 572.808401 199.778788 
L 584.504269 115.492215 
L 587.327409 97.312238 
L 589.747244 83.121528 
L 591.763773 72.495748 
L 593.780302 63.137016 
L 595.393525 56.67338 
L 597.006748 51.21107 
L 598.216665 47.822367 
L 599.426583 45.080215 
L 600.6365 43.020319 
L 601.443112 42.043716 
L 602.249723 41.396784 
L 603.056335 41.090102 
L 605.072864 41.064975 
L 617.172037 41.089133 
L 617.978649 41.417133 
L 618.78526 42.119695 
L 619.591872 43.18518 
L 620.398483 44.601953 
L 621.608401 47.360322 
L 622.818318 50.843633 
L 624.028236 55.012613 
L 625.641459 61.569971 
L 627.254682 69.183385 
L 629.271211 80.043413 
L 631.28774 92.226254 
L 633.707574 108.335775 
L 636.530715 128.787669 
L 640.160467 156.937737 
L 652.662946 255.742158 
L 655.486087 275.417389 
L 657.905921 290.677066 
L 659.92245 302.021868 
L 661.535674 310.069026 
L 663.148897 317.100951 
L 664.76212 323.02455 
L 665.972037 326.683911 
L 667.181955 329.628201 
L 667.988566 331.174405 
L 668.795178 332.37371 
L 669.601789 333.214478 
L 670.408401 333.685073 
L 671.215012 333.788175 
L 684.524103 333.788175 
L 684.524103 333.788175 
" clip-path="url(#p0598faed10)" style="fill: none; stroke: #d58c32; stroke-opacity: 0.75; stroke-width: 5; stroke-linecap: round"/>
   </g>
   <g id="line2d_21">
    <path d="M 271.942285 240.648975 
L 279.201789 240.598997 
L 280.008401 240.307607 
L 280.815012 239.762916 
L 281.621624 238.972858 
L 282.428236 237.945367 
L 283.638153 235.976297 
L 284.84807 233.517632 
L 286.057988 230.596147 
L 287.671211 226.027174 
L 289.284434 220.746486 
L 291.300963 213.241473 
L 293.317492 204.847549 
L 295.737326 193.776023 
L 298.560467 179.752833 
L 302.190219 160.495856 
L 313.886087 97.251169 
L 316.709227 83.58647 
L 319.129062 72.910991 
L 321.145591 64.9097 
L 323.16212 57.854223 
L 324.775343 52.974135 
L 326.388566 48.84218 
L 327.598483 46.272358 
L 328.808401 44.18584 
L 330.018318 42.609404 
L 330.82493 41.855048 
L 331.631541 41.347231 
L 332.438153 41.093885 
L 334.051376 41.064975 
L 346.553855 41.078366 
L 347.360467 41.372023 
L 348.167078 42.041289 
L 348.97369 43.074529 
L 349.780302 44.460106 
L 350.990219 47.173648 
L 352.200136 50.614493 
L 353.410054 54.743367 
L 355.023277 61.250923 
L 356.6365 68.818732 
L 358.249723 77.353702 
L 360.266252 89.240667 
L 362.686087 105.051793 
L 365.509227 125.233676 
L 368.735674 149.976434 
L 374.381955 195.417132 
L 379.62493 237.073617 
L 382.851376 261.025192 
L 385.271211 277.597456 
L 387.691045 292.627985 
L 389.707574 303.749042 
L 391.320797 311.595744 
L 392.934021 318.408137 
L 394.143938 322.782665 
L 395.353855 326.483756 
L 396.563773 329.472138 
L 397.370384 331.049049 
L 398.176996 332.280109 
L 398.983607 333.153681 
L 399.790219 333.65813 
L 400.596831 333.788175 
L 414.309227 333.75553 
L 415.115839 333.405724 
L 415.92245 332.682024 
L 416.729062 331.596069 
L 417.535674 330.159493 
L 418.745591 327.372671 
L 419.955508 323.86241 
L 421.165426 319.667982 
L 422.778649 313.079031 
L 424.391872 305.436693 
L 426.408401 294.544267 
L 428.42493 282.333201 
L 430.844764 266.195318 
L 433.667905 245.71793 
L 437.297657 217.547101 
L 449.396831 121.719315 
L 452.219971 101.821628 
L 454.639806 86.321056 
L 456.656335 74.7401 
L 458.672864 64.567799 
L 460.286087 57.566373 
L 461.89931 51.675944 
L 463.109227 48.043213 
L 464.319145 45.127055 
L 465.125756 43.60044 
L 465.932368 42.421392 
L 466.738979 41.601549 
L 467.545591 41.152547 
L 468.352202 41.064975 
L 482.064599 41.119785 
L 482.871211 41.488606 
L 483.677822 42.195768 
L 484.484434 43.230694 
L 485.291045 44.582805 
L 486.500963 47.182551 
L 487.71088 50.436458 
L 488.920797 54.308823 
L 490.534021 60.372315 
L 492.147244 67.387186 
L 494.163773 77.364728 
L 496.180302 88.531279 
L 498.600136 103.267903 
L 501.423277 121.942748 
L 505.053029 147.600404 
L 517.152202 234.647681 
L 519.975343 252.669883 
L 522.395178 266.689004 
L 524.411707 277.14616 
L 526.428236 286.312965 
L 528.041459 292.606281 
L 529.654682 297.883357 
L 530.864599 301.123347 
L 532.074517 303.708396 
L 532.881128 305.050275 
L 533.68774 306.074622 
L 534.494351 306.770859 
L 535.300963 307.128408 
L 536.51088 307.176975 
L 551.029888 307.261335 
L 553.046417 307.551328 
L 555.466252 308.149528 
L 557.886087 308.993706 
L 560.709227 310.251365 
L 563.532368 311.759596 
L 566.758814 313.731929 
L 570.791872 316.471132 
L 577.244764 321.174891 
L 583.697657 325.799848 
L 587.730715 328.409766 
L 590.957161 330.234345 
L 593.780302 331.580971 
L 596.200136 332.513495 
L 598.619971 333.211201 
L 600.6365 333.592641 
L 602.653029 333.774647 
L 607.089393 333.788175 
L 684.524103 333.788175 
L 684.524103 333.788175 
" clip-path="url(#p0598faed10)" style="fill: none; stroke: #a4a031; stroke-opacity: 0.75; stroke-width: 5; stroke-linecap: round"/>
   </g>
   <g id="line2d_22">
    <path d="M 271.942285 207.384975 
L 279.201789 207.343327 
L 280.008401 207.100502 
L 280.815012 206.646593 
L 281.621624 205.988211 
L 282.831541 204.631715 
L 284.041459 202.852345 
L 285.251376 200.672417 
L 286.864599 197.181322 
L 288.477822 193.070685 
L 290.091045 188.3934 
L 292.107574 181.830521 
L 294.527409 173.040902 
L 297.35055 161.751526 
L 300.576996 147.831897 
L 305.416665 125.810051 
L 311.869558 96.536611 
L 315.096004 82.890118 
L 317.919145 71.939318 
L 320.338979 63.51388 
L 322.355508 57.306647 
L 323.968731 52.94802 
L 325.581955 49.186391 
L 327.195178 46.074651 
L 328.405095 44.199156 
L 329.615012 42.741291 
L 330.82493 41.723369 
L 331.631541 41.300188 
L 332.438153 41.089066 
L 334.454682 41.064975 
L 346.957161 41.167285 
L 347.763773 41.6063 
L 348.570384 42.381489 
L 349.376996 43.482273 
L 350.183607 44.898074 
L 351.393525 47.589293 
L 352.603442 50.929794 
L 353.813359 54.883876 
L 355.426583 61.048736 
L 357.039806 68.156306 
L 359.056335 78.237527 
L 361.072864 89.494208 
L 363.492698 104.321104 
L 366.315839 123.076609 
L 369.945591 148.798951 
L 381.641459 233.059626 
L 384.464599 251.214231 
L 386.884434 265.377277 
L 388.900963 275.97583 
L 390.917492 285.303542 
L 392.530715 291.739631 
L 394.143938 297.171966 
L 395.353855 300.536594 
L 396.563773 303.253305 
L 397.77369 305.286396 
L 398.580302 306.244369 
L 399.386913 306.872064 
L 400.193525 307.158903 
L 403.016665 307.176975 
L 414.309227 307.147298 
L 415.115839 306.829292 
L 415.92245 306.171384 
L 416.729062 305.184151 
L 417.535674 303.878173 
L 418.745591 301.344699 
L 419.955508 298.153552 
L 421.165426 294.340436 
L 422.778649 288.35048 
L 424.391872 281.402901 
L 426.408401 271.500695 
L 428.42493 260.399726 
L 430.844764 245.728923 
L 433.667905 227.113116 
L 437.297657 201.503271 
L 449.396831 114.387103 
L 452.219971 96.298296 
L 454.639806 82.206867 
L 456.656335 71.678725 
L 458.672864 62.431178 
L 460.286087 56.066246 
L 461.89931 50.71131 
L 463.109227 47.408828 
L 464.319145 44.757775 
L 465.125756 43.369943 
L 465.932368 42.298082 
L 466.738979 41.55277 
L 467.545591 41.144586 
L 468.352202 41.064975 
L 617.575343 41.128889 
L 618.381955 41.363769 
L 619.188566 41.766259 
L 620.398483 42.672692 
L 621.608401 43.926496 
L 622.818318 45.50982 
L 624.028236 47.404811 
L 625.641459 50.385428 
L 627.254682 53.84607 
L 629.271211 58.782447 
L 631.28774 64.320102 
L 633.707574 71.642611 
L 636.530715 80.938927 
L 640.160467 93.734412 
L 652.662946 138.645513 
L 655.486087 147.5888 
L 657.905921 154.525016 
L 659.92245 159.681744 
L 661.938979 164.183542 
L 663.552202 167.257892 
L 665.165426 169.81788 
L 666.375343 171.374865 
L 667.58526 172.600867 
L 668.795178 173.478036 
L 670.005095 173.98852 
L 670.811707 174.116313 
L 680.491045 174.120975 
L 684.524103 174.120975 
L 684.524103 174.120975 
" clip-path="url(#p0598faed10)" style="fill: none; stroke: #50b131; stroke-opacity: 0.75; stroke-width: 5; stroke-linecap: round"/>
   </g>
   <g id="line2d_23">
    <path d="M 271.942285 174.120975 
L 279.605095 174.220124 
L 280.815012 174.65825 
L 282.02493 175.431136 
L 283.234847 176.522544 
L 284.444764 177.91624 
L 285.654682 179.595984 
L 287.267905 182.252547 
L 288.881128 185.350291 
L 290.897657 189.784248 
L 292.914186 194.772244 
L 295.334021 201.383331 
L 298.157161 209.794517 
L 301.786913 221.396304 
L 314.692698 263.509379 
L 317.515839 271.587668 
L 319.935674 277.836136 
L 321.952202 282.467457 
L 323.968731 286.495201 
L 325.581955 289.232307 
L 327.195178 291.496527 
L 328.405095 292.861209 
L 329.615012 293.922008 
L 330.82493 294.662686 
L 332.034847 295.067008 
L 333.244764 295.141759 
L 349.376996 295.251084 
L 352.603442 295.587907 
L 356.233194 296.201181 
L 360.266252 297.122486 
L 365.105921 298.479801 
L 371.558814 300.547079 
L 382.851376 304.185349 
L 387.691045 305.484688 
L 391.724103 306.338699 
L 395.353855 306.876656 
L 398.580302 307.134797 
L 402.210054 307.176975 
L 552.239806 307.070896 
L 555.466252 306.737127 
L 559.096004 306.126763 
L 563.129062 305.208039 
L 567.968731 303.852916 
L 574.421624 301.787023 
L 585.714186 298.146949 
L 590.553855 296.845191 
L 594.586913 295.988408 
L 598.216665 295.44737 
L 601.443112 295.186024 
L 605.072864 295.141759 
L 619.591872 295.22893 
L 622.818318 295.543805 
L 626.44807 296.136138 
L 630.481128 297.038832 
L 634.917492 298.26004 
L 640.967078 300.170728 
L 653.872864 304.323783 
L 658.712533 305.597682 
L 662.745591 306.422729 
L 666.375343 306.928583 
L 669.601789 307.153388 
L 674.038153 307.176975 
L 684.524103 307.176975 
L 684.524103 307.176975 
" clip-path="url(#p0598faed10)" style="fill: none; stroke: #34ae91; stroke-opacity: 0.75; stroke-width: 5; stroke-linecap: round"/>
   </g>
   <g id="line2d_24">
    <path d="M 271.942285 140.856975 
L 279.605095 140.920564 
L 280.815012 141.201553 
L 282.02493 141.697239 
L 283.234847 142.397208 
L 284.84807 143.630275 
L 286.461293 145.183316 
L 288.074517 147.031647 
L 290.091045 149.71971 
L 292.107574 152.782387 
L 294.527409 156.884209 
L 297.35055 162.152584 
L 300.980302 169.486745 
L 306.626583 181.527919 
L 312.272864 193.406754 
L 315.49931 199.714496 
L 318.32245 204.751578 
L 320.742285 208.605586 
L 322.758814 211.426803 
L 324.775343 213.841635 
L 326.388566 215.448506 
L 328.001789 216.739754 
L 329.615012 217.690694 
L 330.82493 218.165724 
L 332.034847 218.425034 
L 333.64807 218.472975 
L 347.360467 218.37993 
L 348.570384 218.034137 
L 349.780302 217.444147 
L 350.990219 216.621862 
L 352.200136 215.579182 
L 353.813359 213.866675 
L 355.426583 211.811721 
L 357.443112 208.80444 
L 359.45964 205.361262 
L 361.879475 200.731639 
L 364.702616 194.764371 
L 367.929062 187.383335 
L 372.768731 175.665214 
L 379.62493 159.076417 
L 382.851376 151.818364 
L 385.674517 146.002333 
L 388.094351 141.534749 
L 390.11088 138.249454 
L 392.127409 135.420832 
L 393.740632 133.523763 
L 395.353855 131.982435 
L 396.563773 131.076865 
L 397.77369 130.399168 
L 398.983607 129.961246 
L 400.193525 129.774999 
L 407.856335 129.768975 
L 414.712533 129.720465 
L 415.92245 129.433778 
L 417.132368 128.900098 
L 418.342285 128.131326 
L 419.552202 127.139363 
L 421.165426 125.490129 
L 422.778649 123.493477 
L 424.391872 121.177617 
L 426.408401 117.876882 
L 428.828236 113.393392 
L 431.24807 108.429703 
L 434.474517 101.22903 
L 438.507574 91.609514 
L 448.186913 68.235725 
L 451.413359 61.144307 
L 453.833194 56.289872 
L 456.253029 51.939048 
L 458.269558 48.766752 
L 459.882781 46.565349 
L 461.496004 44.69356 
L 463.109227 43.179593 
L 464.319145 42.295908 
L 465.529062 41.641268 
L 466.738979 41.227573 
L 467.948897 41.066724 
L 482.064599 41.083245 
L 483.274517 41.310168 
L 484.484434 41.786881 
L 485.694351 42.501483 
L 486.904269 43.442072 
L 488.517492 45.027157 
L 490.130715 46.964631 
L 491.743938 49.226285 
L 493.760467 52.466253 
L 495.776996 56.113578 
L 498.196831 60.9505 
L 501.019971 67.10767 
L 504.649723 75.604814 
L 517.555508 106.482082 
L 520.378649 112.412246 
L 522.798483 117.001893 
L 524.815012 120.405996 
L 526.831541 123.368963 
L 528.444764 125.384693 
L 530.057988 127.054624 
L 531.671211 128.350546 
L 532.881128 129.060075 
L 534.091045 129.531455 
L 535.300963 129.752786 
L 538.124103 129.768975 
L 617.575343 129.854194 
L 618.381955 130.167367 
L 619.188566 130.70402 
L 619.995178 131.457101 
L 621.205095 132.977097 
L 622.415012 134.944387 
L 623.62493 137.335167 
L 625.238153 141.140499 
L 626.851376 145.59997 
L 628.464599 150.657161 
L 630.481128 157.733243 
L 632.900963 167.18582 
L 635.724103 179.298566 
L 638.95055 194.201876 
L 644.193525 219.708552 
L 650.243112 248.900592 
L 653.469558 263.391857 
L 656.292698 274.993838 
L 658.712533 283.897022 
L 660.729062 290.436586 
L 662.342285 295.013057 
L 663.955508 298.946026 
L 665.165426 301.439514 
L 666.375343 303.515495 
L 667.58526 305.150165 
L 668.795178 306.319724 
L 669.601789 306.82928 
L 670.408401 307.114489 
L 671.618318 307.176975 
L 684.524103 307.176975 
L 684.524103 307.176975 
" clip-path="url(#p0598faed10)" style="fill: none; stroke: #37abb5; stroke-opacity: 0.75; stroke-width: 5; stroke-linecap: round"/>
   </g>
   <g id="line2d_25">
    <path d="M 271.942285 107.592975 
L 279.201789 107.630713 
L 280.008401 107.850742 
L 280.815012 108.26204 
L 281.621624 108.858614 
L 282.831541 110.087766 
L 284.041459 111.700092 
L 285.251376 113.675374 
L 286.864599 116.838734 
L 288.477822 120.563474 
L 290.091045 124.801668 
L 292.107574 130.748439 
L 294.527409 138.712911 
L 297.35055 148.942467 
L 300.576996 161.555356 
L 305.416665 181.509845 
L 311.869558 208.035166 
L 315.096004 220.400559 
L 317.919145 230.323325 
L 320.338979 237.957804 
L 322.355508 243.582317 
L 323.968731 247.531767 
L 325.581955 250.940264 
L 327.195178 253.75988 
L 328.405095 255.459309 
L 329.615012 256.780313 
L 330.82493 257.702675 
L 331.631541 258.086129 
L 332.438153 258.277431 
L 334.857988 258.299261 
L 346.957161 258.215742 
L 347.763773 257.857363 
L 348.570384 257.224556 
L 349.376996 256.325956 
L 350.183607 255.1702 
L 351.393525 252.973287 
L 352.603442 250.246347 
L 353.813359 247.018525 
L 355.426583 241.985986 
L 357.039806 236.183888 
L 359.056335 227.95432 
L 361.072864 218.765193 
L 363.492698 206.661604 
L 366.315839 191.350988 
L 369.945591 170.353158 
L 381.641459 101.568934 
L 384.464599 86.748847 
L 386.884434 75.187178 
L 388.900963 66.535297 
L 390.917492 58.920838 
L 392.530715 53.666889 
L 394.143938 49.232329 
L 395.353855 46.485694 
L 396.563773 44.267971 
L 397.77369 42.608305 
L 398.580302 41.826286 
L 399.386913 41.313882 
L 400.193525 41.079728 
L 403.419971 41.064975 
L 414.309227 41.089201 
L 415.115839 41.348798 
L 415.92245 41.885866 
L 416.729062 42.69177 
L 417.535674 43.757875 
L 418.745591 45.826017 
L 419.955508 48.431034 
L 421.165426 51.543783 
L 422.778649 56.433542 
L 424.391872 62.105035 
L 426.408401 70.188469 
L 428.42493 79.250485 
L 430.844764 91.22665 
L 433.667905 106.423228 
L 437.297657 127.329223 
L 449.396831 198.444463 
L 452.219971 213.210835 
L 454.639806 224.714043 
L 456.656335 233.308445 
L 458.672864 240.857462 
L 460.286087 246.053325 
L 461.89931 250.424701 
L 463.109227 253.120605 
L 464.319145 255.28473 
L 465.529062 256.88793 
L 466.335674 257.630713 
L 467.142285 258.102607 
L 467.948897 258.294977 
L 478.434847 258.299261 
L 684.524103 258.299261 
L 684.524103 258.299261 
" clip-path="url(#p0598faed10)" style="fill: none; stroke: #3ba3ec; stroke-opacity: 0.75; stroke-width: 5; stroke-linecap: round"/>
   </g>
   <g id="line2d_26">
    <path d="M 271.942285 74.328975 
L 279.201789 74.393946 
L 280.008401 74.772753 
L 280.815012 75.480851 
L 281.621624 76.507927 
L 282.428236 77.843666 
L 283.638153 80.403456 
L 284.84807 83.599721 
L 286.057988 87.397652 
L 287.671211 93.337316 
L 289.284434 100.20221 
L 291.300963 109.958727 
L 293.317492 120.870829 
L 295.737326 135.263813 
L 298.560467 153.49396 
L 302.190219 178.52803 
L 313.886087 260.746123 
L 316.709227 278.510232 
L 319.129062 292.388354 
L 321.145591 302.790033 
L 323.16212 311.962153 
L 324.775343 318.306267 
L 326.388566 323.677809 
L 327.598483 327.018578 
L 328.808401 329.731051 
L 330.018318 331.780418 
L 330.82493 332.76108 
L 331.631541 333.421243 
L 332.438153 333.750592 
L 333.64807 333.788175 
L 346.957161 333.719326 
L 347.763773 333.423892 
L 348.570384 332.90223 
L 349.376996 332.16146 
L 350.586913 330.655048 
L 351.796831 328.695685 
L 353.006748 326.307397 
L 354.619971 322.497323 
L 356.233194 318.024379 
L 357.846417 312.945517 
L 359.862946 305.831626 
L 362.282781 296.319325 
L 365.105921 284.119382 
L 368.332368 269.096801 
L 373.172037 245.364396 
L 379.62493 213.875858 
L 382.851376 199.22299 
L 385.674517 187.481337 
L 388.094351 178.461987 
L 390.11088 171.829494 
L 391.724103 167.181964 
L 393.337326 163.181431 
L 394.547244 160.639884 
L 395.757161 158.518334 
L 396.967078 156.840807 
L 398.176996 155.63133 
L 398.983607 155.096904 
L 399.790219 154.788297 
L 400.596831 154.708739 
L 414.712533 154.806674 
L 415.519145 155.135933 
L 416.325756 155.69037 
L 417.132368 156.462865 
L 418.342285 158.014895 
L 419.552202 160.017513 
L 420.76212 162.446692 
L 422.375343 166.307612 
L 423.988566 170.827201 
L 425.601789 175.948507 
L 427.618318 183.109543 
L 430.038153 192.669754 
L 432.861293 204.913645 
L 436.08774 219.970698 
L 441.330715 245.725409 
L 446.976996 273.281122 
L 450.203442 288.029788 
L 453.026583 299.888196 
L 455.446417 309.032086 
L 457.462946 315.785613 
L 459.076169 320.541261 
L 460.689393 324.659947 
L 462.302616 328.084722 
L 463.512533 330.163663 
L 464.72245 331.796217 
L 465.932368 332.958359 
L 466.738979 333.459915 
L 467.545591 333.734601 
L 468.755508 333.788175 
L 549.819971 333.691883 
L 550.626583 333.230537 
L 551.433194 332.398732 
L 552.239806 331.208105 
L 553.046417 329.670291 
L 554.256335 326.73805 
L 555.466252 323.090095 
L 556.676169 318.7657 
L 558.289393 312.015477 
L 559.902616 304.225603 
L 561.919145 293.16807 
L 563.935674 280.813357 
L 566.355508 264.531428 
L 569.178649 243.925043 
L 572.808401 215.650169 
L 584.504269 122.934939 
L 587.327409 102.936965 
L 589.747244 87.327184 
L 591.763773 75.638826 
L 593.780302 65.34422 
L 595.393525 58.234221 
L 597.006748 52.22568 
L 598.216665 48.498106 
L 599.426583 45.481739 
L 600.6365 43.215853 
L 601.443112 42.14159 
L 602.249723 41.429965 
L 603.056335 41.092615 
L 605.072864 41.064975 
L 617.575343 41.119564 
L 618.78526 41.474448 
L 619.995178 42.146352 
L 621.205095 43.12003 
L 622.415012 44.380233 
L 623.62493 45.911716 
L 625.238153 48.34933 
L 626.851376 51.205971 
L 628.867905 55.310972 
L 630.884434 59.943646 
L 633.304269 66.099995 
L 636.127409 73.951567 
L 639.757161 84.807184 
L 647.419971 108.782638 
L 651.453029 120.940881 
L 654.276169 128.859524 
L 656.696004 135.089969 
L 659.115839 140.677542 
L 661.132368 144.754771 
L 662.745591 147.586695 
L 664.358814 149.99737 
L 665.972037 151.950655 
L 667.181955 153.093715 
L 668.391872 153.943917 
L 669.601789 154.486013 
L 670.811707 154.704758 
L 682.104269 154.708739 
L 684.524103 154.708739 
L 684.524103 154.708739 
" clip-path="url(#p0598faed10)" style="fill: none; stroke: #bb83f4; stroke-opacity: 0.75; stroke-width: 5; stroke-linecap: round"/>
   </g>
   <g id="line2d_27">
    <path d="M 271.942285 41.064975 
L 279.201789 41.138276 
L 280.008401 41.565647 
L 280.815012 42.364528 
L 281.621624 43.52328 
L 282.428236 45.030267 
L 283.638153 47.918235 
L 284.84807 51.524278 
L 286.057988 55.809123 
L 287.671211 62.510283 
L 289.284434 70.255292 
L 291.300963 81.262644 
L 293.317492 93.573734 
L 295.737326 109.811972 
L 298.560467 130.379317 
L 302.190219 158.622883 
L 313.886087 251.381758 
L 316.709227 271.423316 
L 319.129062 287.080685 
L 321.145591 298.815912 
L 323.16212 309.163944 
L 324.775343 316.321407 
L 326.388566 322.381608 
L 327.598483 326.150681 
L 328.808401 329.210907 
L 330.018318 331.523013 
L 330.82493 332.629401 
L 331.631541 333.3742 
L 332.438153 333.745774 
L 333.64807 333.788175 
L 414.309227 333.75553 
L 415.115839 333.405724 
L 415.92245 332.682024 
L 416.729062 331.596069 
L 417.535674 330.159493 
L 418.745591 327.372671 
L 419.955508 323.86241 
L 421.165426 319.667982 
L 422.778649 313.079031 
L 424.391872 305.436693 
L 426.408401 294.544267 
L 428.42493 282.333201 
L 430.844764 266.195318 
L 433.667905 245.71793 
L 437.297657 217.547101 
L 449.396831 121.719315 
L 452.219971 101.821628 
L 454.639806 86.321056 
L 456.656335 74.7401 
L 458.672864 64.567799 
L 460.286087 57.566373 
L 461.89931 51.675944 
L 463.109227 48.043213 
L 464.319145 45.127055 
L 465.125756 43.60044 
L 465.932368 42.421392 
L 466.738979 41.601549 
L 467.545591 41.152547 
L 468.352202 41.064975 
L 482.064599 41.125266 
L 482.871211 41.530969 
L 483.677822 42.308848 
L 484.484434 43.447266 
L 485.291045 44.934587 
L 486.500963 47.794308 
L 487.71088 51.373606 
L 488.920797 55.633208 
L 490.534021 62.303049 
L 492.147244 70.019408 
L 494.163773 80.994704 
L 496.180302 93.27791 
L 498.600136 109.488196 
L 501.423277 130.030526 
L 505.053029 158.253947 
L 517.152202 254.005952 
L 519.975343 273.830374 
L 522.395178 289.251407 
L 524.411707 300.754279 
L 526.428236 310.837764 
L 528.041459 317.760411 
L 529.654682 323.565195 
L 530.864599 327.129184 
L 532.074517 329.972738 
L 532.881128 331.448805 
L 533.68774 332.575587 
L 534.494351 333.341448 
L 535.300963 333.734751 
L 536.51088 333.788175 
L 549.819971 333.721062 
L 550.626583 333.399518 
L 551.433194 332.819775 
L 552.239806 331.989944 
L 553.449723 330.294022 
L 554.65964 328.081021 
L 555.869558 325.378313 
L 557.482781 321.060245 
L 559.096004 315.985132 
L 560.709227 310.217854 
L 562.725756 302.134243 
L 565.145591 291.318568 
L 567.968731 277.439219 
L 571.195178 260.339959 
L 576.034847 233.311659 
L 582.48774 197.424077 
L 585.714186 180.712514 
L 588.537326 167.313748 
L 590.957161 157.015002 
L 592.97369 149.436206 
L 594.586913 144.121241 
L 596.200136 139.541518 
L 597.410054 136.628259 
L 598.619971 134.192442 
L 599.829888 132.261438 
L 601.039806 130.862621 
L 601.846417 130.239252 
L 602.653029 129.872686 
L 603.45964 129.768975 
L 617.575343 129.866977 
L 618.381955 130.227125 
L 619.188566 130.844277 
L 619.995178 131.71032 
L 621.205095 133.458316 
L 622.415012 135.720699 
L 623.62493 138.470096 
L 625.238153 142.846228 
L 626.851376 147.974619 
L 628.464599 153.790389 
L 630.481128 161.927883 
L 632.900963 172.798347 
L 635.724103 186.728004 
L 638.95055 203.866811 
L 644.193525 233.199489 
L 650.243112 266.770334 
L 653.469558 283.435289 
L 655.889393 294.956552 
L 658.309227 305.396691 
L 660.325756 313.112966 
L 661.938979 318.550777 
L 663.552202 323.264781 
L 665.165426 327.190095 
L 666.375343 329.577472 
L 667.58526 331.457343 
L 668.391872 332.415126 
L 669.198483 333.127074 
L 670.005095 333.585078 
L 670.811707 333.781027 
L 677.264599 333.788175 
L 684.524103 333.788175 
L 684.524103 333.788175 
" clip-path="url(#p0598faed10)" style="fill: none; stroke: #f564d4; stroke-opacity: 0.75; stroke-width: 5; stroke-linecap: round"/>
   </g>
   <g id="text_17">
    <!-- Design Parameters for Cell-Type Specific LNP Formulations -->
    <g style="fill: #262626" transform="translate(204.789586 21.759375) scale(0.2 -0.2)">
     <defs>
      <path id="Arial-BoldMT-44" d="M 463 4581 
L 2153 4581 
Q 2725 4581 3025 4494 
Q 3428 4375 3715 4072 
Q 4003 3769 4153 3330 
Q 4303 2891 4303 2247 
Q 4303 1681 4163 1272 
Q 3991 772 3672 463 
Q 3431 228 3022 97 
Q 2716 0 2203 0 
L 463 0 
L 463 4581 
z
M 1388 3806 
L 1388 772 
L 2078 772 
Q 2466 772 2638 816 
Q 2863 872 3011 1006 
Q 3159 1141 3253 1448 
Q 3347 1756 3347 2288 
Q 3347 2819 3253 3103 
Q 3159 3388 2990 3547 
Q 2822 3706 2563 3763 
Q 2369 3806 1803 3806 
L 1388 3806 
z
" transform="scale(0.015625)"/>
      <path id="Arial-BoldMT-65" d="M 2381 1056 
L 3256 909 
Q 3088 428 2723 176 
Q 2359 -75 1813 -75 
Q 947 -75 531 491 
Q 203 944 203 1634 
Q 203 2459 634 2926 
Q 1066 3394 1725 3394 
Q 2466 3394 2894 2905 
Q 3322 2416 3303 1406 
L 1103 1406 
Q 1113 1016 1316 798 
Q 1519 581 1822 581 
Q 2028 581 2168 693 
Q 2309 806 2381 1056 
z
M 2431 1944 
Q 2422 2325 2234 2523 
Q 2047 2722 1778 2722 
Q 1491 2722 1303 2513 
Q 1116 2303 1119 1944 
L 2431 1944 
z
" transform="scale(0.015625)"/>
      <path id="Arial-BoldMT-73" d="M 150 947 
L 1031 1081 
Q 1088 825 1259 692 
Q 1431 559 1741 559 
Q 2081 559 2253 684 
Q 2369 772 2369 919 
Q 2369 1019 2306 1084 
Q 2241 1147 2013 1200 
Q 950 1434 666 1628 
Q 272 1897 272 2375 
Q 272 2806 612 3100 
Q 953 3394 1669 3394 
Q 2350 3394 2681 3172 
Q 3013 2950 3138 2516 
L 2309 2363 
Q 2256 2556 2107 2659 
Q 1959 2763 1684 2763 
Q 1338 2763 1188 2666 
Q 1088 2597 1088 2488 
Q 1088 2394 1175 2328 
Q 1294 2241 1995 2081 
Q 2697 1922 2975 1691 
Q 3250 1456 3250 1038 
Q 3250 581 2869 253 
Q 2488 -75 1741 -75 
Q 1063 -75 667 200 
Q 272 475 150 947 
z
" transform="scale(0.015625)"/>
      <path id="Arial-BoldMT-69" d="M 459 3769 
L 459 4581 
L 1338 4581 
L 1338 3769 
L 459 3769 
z
M 459 0 
L 459 3319 
L 1338 3319 
L 1338 0 
L 459 0 
z
" transform="scale(0.015625)"/>
      <path id="Arial-BoldMT-67" d="M 378 -219 
L 1381 -341 
Q 1406 -516 1497 -581 
Q 1622 -675 1891 -675 
Q 2234 -675 2406 -572 
Q 2522 -503 2581 -350 
Q 2622 -241 2622 53 
L 2622 538 
Q 2228 0 1628 0 
Q 959 0 569 566 
Q 263 1013 263 1678 
Q 263 2513 664 2953 
Q 1066 3394 1663 3394 
Q 2278 3394 2678 2853 
L 2678 3319 
L 3500 3319 
L 3500 341 
Q 3500 -247 3403 -537 
Q 3306 -828 3131 -993 
Q 2956 -1159 2664 -1253 
Q 2372 -1347 1925 -1347 
Q 1081 -1347 728 -1058 
Q 375 -769 375 -325 
Q 375 -281 378 -219 
z
M 1163 1728 
Q 1163 1200 1367 954 
Q 1572 709 1872 709 
Q 2194 709 2416 961 
Q 2638 1213 2638 1706 
Q 2638 2222 2425 2472 
Q 2213 2722 1888 2722 
Q 1572 2722 1367 2476 
Q 1163 2231 1163 1728 
z
" transform="scale(0.015625)"/>
      <path id="Arial-BoldMT-6e" d="M 3478 0 
L 2600 0 
L 2600 1694 
Q 2600 2231 2544 2389 
Q 2488 2547 2361 2634 
Q 2234 2722 2056 2722 
Q 1828 2722 1647 2597 
Q 1466 2472 1398 2265 
Q 1331 2059 1331 1503 
L 1331 0 
L 453 0 
L 453 3319 
L 1269 3319 
L 1269 2831 
Q 1703 3394 2363 3394 
Q 2653 3394 2893 3289 
Q 3134 3184 3257 3021 
Q 3381 2859 3429 2653 
Q 3478 2447 3478 2063 
L 3478 0 
z
" transform="scale(0.015625)"/>
      <path id="Arial-BoldMT-20" transform="scale(0.015625)"/>
      <path id="Arial-BoldMT-50" d="M 466 0 
L 466 4581 
L 1950 4581 
Q 2794 4581 3050 4513 
Q 3444 4409 3709 4064 
Q 3975 3719 3975 3172 
Q 3975 2750 3822 2462 
Q 3669 2175 3433 2011 
Q 3197 1847 2953 1794 
Q 2622 1728 1994 1728 
L 1391 1728 
L 1391 0 
L 466 0 
z
M 1391 3806 
L 1391 2506 
L 1897 2506 
Q 2444 2506 2628 2578 
Q 2813 2650 2917 2803 
Q 3022 2956 3022 3159 
Q 3022 3409 2875 3571 
Q 2728 3734 2503 3775 
Q 2338 3806 1838 3806 
L 1391 3806 
z
" transform="scale(0.015625)"/>
      <path id="Arial-BoldMT-61" d="M 1116 2306 
L 319 2450 
Q 453 2931 781 3162 
Q 1109 3394 1756 3394 
Q 2344 3394 2631 3255 
Q 2919 3116 3036 2902 
Q 3153 2688 3153 2116 
L 3144 1091 
Q 3144 653 3186 445 
Q 3228 238 3344 0 
L 2475 0 
Q 2441 88 2391 259 
Q 2369 338 2359 363 
Q 2134 144 1878 34 
Q 1622 -75 1331 -75 
Q 819 -75 523 203 
Q 228 481 228 906 
Q 228 1188 362 1408 
Q 497 1628 739 1745 
Q 981 1863 1438 1950 
Q 2053 2066 2291 2166 
L 2291 2253 
Q 2291 2506 2166 2614 
Q 2041 2722 1694 2722 
Q 1459 2722 1328 2630 
Q 1197 2538 1116 2306 
z
M 2291 1594 
Q 2122 1538 1756 1459 
Q 1391 1381 1278 1306 
Q 1106 1184 1106 997 
Q 1106 813 1243 678 
Q 1381 544 1594 544 
Q 1831 544 2047 700 
Q 2206 819 2256 991 
Q 2291 1103 2291 1419 
L 2291 1594 
z
" transform="scale(0.015625)"/>
      <path id="Arial-BoldMT-72" d="M 1300 0 
L 422 0 
L 422 3319 
L 1238 3319 
L 1238 2847 
Q 1447 3181 1614 3287 
Q 1781 3394 1994 3394 
Q 2294 3394 2572 3228 
L 2300 2463 
Q 2078 2606 1888 2606 
Q 1703 2606 1575 2504 
Q 1447 2403 1373 2137 
Q 1300 1872 1300 1025 
L 1300 0 
z
" transform="scale(0.015625)"/>
      <path id="Arial-BoldMT-6d" d="M 394 3319 
L 1203 3319 
L 1203 2866 
Q 1638 3394 2238 3394 
Q 2556 3394 2790 3262 
Q 3025 3131 3175 2866 
Q 3394 3131 3647 3262 
Q 3900 3394 4188 3394 
Q 4553 3394 4806 3245 
Q 5059 3097 5184 2809 
Q 5275 2597 5275 2122 
L 5275 0 
L 4397 0 
L 4397 1897 
Q 4397 2391 4306 2534 
Q 4184 2722 3931 2722 
Q 3747 2722 3584 2609 
Q 3422 2497 3350 2280 
Q 3278 2063 3278 1594 
L 3278 0 
L 2400 0 
L 2400 1819 
Q 2400 2303 2353 2443 
Q 2306 2584 2207 2653 
Q 2109 2722 1941 2722 
Q 1738 2722 1575 2612 
Q 1413 2503 1342 2297 
Q 1272 2091 1272 1613 
L 1272 0 
L 394 0 
L 394 3319 
z
" transform="scale(0.015625)"/>
      <path id="Arial-BoldMT-74" d="M 1981 3319 
L 1981 2619 
L 1381 2619 
L 1381 1281 
Q 1381 875 1398 808 
Q 1416 741 1477 697 
Q 1538 653 1625 653 
Q 1747 653 1978 738 
L 2053 56 
Q 1747 -75 1359 -75 
Q 1122 -75 931 4 
Q 741 84 652 211 
Q 563 338 528 553 
Q 500 706 500 1172 
L 500 2619 
L 97 2619 
L 97 3319 
L 500 3319 
L 500 3978 
L 1381 4491 
L 1381 3319 
L 1981 3319 
z
" transform="scale(0.015625)"/>
      <path id="Arial-BoldMT-66" d="M 75 3319 
L 563 3319 
L 563 3569 
Q 563 3988 652 4194 
Q 741 4400 980 4529 
Q 1219 4659 1584 4659 
Q 1959 4659 2319 4547 
L 2200 3934 
Q 1991 3984 1797 3984 
Q 1606 3984 1523 3895 
Q 1441 3806 1441 3553 
L 1441 3319 
L 2097 3319 
L 2097 2628 
L 1441 2628 
L 1441 0 
L 563 0 
L 563 2628 
L 75 2628 
L 75 3319 
z
" transform="scale(0.015625)"/>
      <path id="Arial-BoldMT-6f" d="M 256 1706 
Q 256 2144 472 2553 
Q 688 2963 1083 3178 
Q 1478 3394 1966 3394 
Q 2719 3394 3200 2905 
Q 3681 2416 3681 1669 
Q 3681 916 3195 420 
Q 2709 -75 1972 -75 
Q 1516 -75 1102 131 
Q 688 338 472 736 
Q 256 1134 256 1706 
z
M 1156 1659 
Q 1156 1166 1390 903 
Q 1625 641 1969 641 
Q 2313 641 2545 903 
Q 2778 1166 2778 1666 
Q 2778 2153 2545 2415 
Q 2313 2678 1969 2678 
Q 1625 2678 1390 2415 
Q 1156 2153 1156 1659 
z
" transform="scale(0.015625)"/>
      <path id="Arial-BoldMT-43" d="M 3397 1684 
L 4294 1400 
Q 4088 650 3608 286 
Q 3128 -78 2391 -78 
Q 1478 -78 890 545 
Q 303 1169 303 2250 
Q 303 3394 893 4026 
Q 1484 4659 2447 4659 
Q 3288 4659 3813 4163 
Q 4125 3869 4281 3319 
L 3366 3100 
Q 3284 3456 3026 3662 
Q 2769 3869 2400 3869 
Q 1891 3869 1573 3503 
Q 1256 3138 1256 2319 
Q 1256 1450 1568 1081 
Q 1881 713 2381 713 
Q 2750 713 3015 947 
Q 3281 1181 3397 1684 
z
" transform="scale(0.015625)"/>
      <path id="Arial-BoldMT-6c" d="M 459 0 
L 459 4581 
L 1338 4581 
L 1338 0 
L 459 0 
z
" transform="scale(0.015625)"/>
      <path id="Arial-BoldMT-2d" d="M 359 1222 
L 359 2100 
L 2084 2100 
L 2084 1222 
L 359 1222 
z
" transform="scale(0.015625)"/>
      <path id="Arial-BoldMT-54" d="M 1497 0 
L 1497 3806 
L 138 3806 
L 138 4581 
L 3778 4581 
L 3778 3806 
L 2422 3806 
L 2422 0 
L 1497 0 
z
" transform="scale(0.015625)"/>
      <path id="Arial-BoldMT-79" d="M 44 3319 
L 978 3319 
L 1772 963 
L 2547 3319 
L 3456 3319 
L 2284 125 
L 2075 -453 
Q 1959 -744 1854 -897 
Q 1750 -1050 1614 -1145 
Q 1478 -1241 1279 -1294 
Q 1081 -1347 831 -1347 
Q 578 -1347 334 -1294 
L 256 -606 
Q 463 -647 628 -647 
Q 934 -647 1081 -467 
Q 1228 -288 1306 -9 
L 44 3319 
z
" transform="scale(0.015625)"/>
      <path id="Arial-BoldMT-70" d="M 434 3319 
L 1253 3319 
L 1253 2831 
Q 1413 3081 1684 3237 
Q 1956 3394 2288 3394 
Q 2866 3394 3269 2941 
Q 3672 2488 3672 1678 
Q 3672 847 3265 386 
Q 2859 -75 2281 -75 
Q 2006 -75 1782 34 
Q 1559 144 1313 409 
L 1313 -1263 
L 434 -1263 
L 434 3319 
z
M 1303 1716 
Q 1303 1156 1525 889 
Q 1747 622 2066 622 
Q 2372 622 2575 867 
Q 2778 1113 2778 1672 
Q 2778 2194 2568 2447 
Q 2359 2700 2050 2700 
Q 1728 2700 1515 2451 
Q 1303 2203 1303 1716 
z
" transform="scale(0.015625)"/>
      <path id="Arial-BoldMT-53" d="M 231 1491 
L 1131 1578 
Q 1213 1125 1461 912 
Q 1709 700 2131 700 
Q 2578 700 2804 889 
Q 3031 1078 3031 1331 
Q 3031 1494 2936 1608 
Q 2841 1722 2603 1806 
Q 2441 1863 1863 2006 
Q 1119 2191 819 2459 
Q 397 2838 397 3381 
Q 397 3731 595 4036 
Q 794 4341 1167 4500 
Q 1541 4659 2069 4659 
Q 2931 4659 3367 4281 
Q 3803 3903 3825 3272 
L 2900 3231 
Q 2841 3584 2645 3739 
Q 2450 3894 2059 3894 
Q 1656 3894 1428 3728 
Q 1281 3622 1281 3444 
Q 1281 3281 1419 3166 
Q 1594 3019 2269 2859 
Q 2944 2700 3267 2529 
Q 3591 2359 3773 2064 
Q 3956 1769 3956 1334 
Q 3956 941 3737 597 
Q 3519 253 3119 86 
Q 2719 -81 2122 -81 
Q 1253 -81 787 320 
Q 322 722 231 1491 
z
" transform="scale(0.015625)"/>
      <path id="Arial-BoldMT-63" d="M 3353 2338 
L 2488 2181 
Q 2444 2441 2289 2572 
Q 2134 2703 1888 2703 
Q 1559 2703 1364 2476 
Q 1169 2250 1169 1719 
Q 1169 1128 1367 884 
Q 1566 641 1900 641 
Q 2150 641 2309 783 
Q 2469 925 2534 1272 
L 3397 1125 
Q 3263 531 2881 228 
Q 2500 -75 1859 -75 
Q 1131 -75 698 384 
Q 266 844 266 1656 
Q 266 2478 700 2936 
Q 1134 3394 1875 3394 
Q 2481 3394 2839 3133 
Q 3197 2872 3353 2338 
z
" transform="scale(0.015625)"/>
      <path id="Arial-BoldMT-4c" d="M 491 0 
L 491 4544 
L 1416 4544 
L 1416 772 
L 3716 772 
L 3716 0 
L 491 0 
z
" transform="scale(0.015625)"/>
      <path id="Arial-BoldMT-4e" d="M 475 0 
L 475 4581 
L 1375 4581 
L 3250 1522 
L 3250 4581 
L 4109 4581 
L 4109 0 
L 3181 0 
L 1334 2988 
L 1334 0 
L 475 0 
z
" transform="scale(0.015625)"/>
      <path id="Arial-BoldMT-46" d="M 472 0 
L 472 4581 
L 3613 4581 
L 3613 3806 
L 1397 3806 
L 1397 2722 
L 3309 2722 
L 3309 1947 
L 1397 1947 
L 1397 0 
L 472 0 
z
" transform="scale(0.015625)"/>
      <path id="Arial-BoldMT-75" d="M 2644 0 
L 2644 497 
Q 2463 231 2167 78 
Q 1872 -75 1544 -75 
Q 1209 -75 943 72 
Q 678 219 559 484 
Q 441 750 441 1219 
L 441 3319 
L 1319 3319 
L 1319 1794 
Q 1319 1094 1367 936 
Q 1416 778 1544 686 
Q 1672 594 1869 594 
Q 2094 594 2272 717 
Q 2450 841 2515 1023 
Q 2581 1206 2581 1919 
L 2581 3319 
L 3459 3319 
L 3459 0 
L 2644 0 
z
" transform="scale(0.015625)"/>
     </defs>
     <use xlink:href="#Arial-BoldMT-44"/>
     <use xlink:href="#Arial-BoldMT-65" x="72.216797"/>
     <use xlink:href="#Arial-BoldMT-73" x="127.832031"/>
     <use xlink:href="#Arial-BoldMT-69" x="183.447266"/>
     <use xlink:href="#Arial-BoldMT-67" x="211.230469"/>
     <use xlink:href="#Arial-BoldMT-6e" x="272.314453"/>
     <use xlink:href="#Arial-BoldMT-20" x="333.398438"/>
     <use xlink:href="#Arial-BoldMT-50" x="361.181641"/>
     <use xlink:href="#Arial-BoldMT-61" x="427.880859"/>
     <use xlink:href="#Arial-BoldMT-72" x="483.496094"/>
     <use xlink:href="#Arial-BoldMT-61" x="522.412109"/>
     <use xlink:href="#Arial-BoldMT-6d" x="578.027344"/>
     <use xlink:href="#Arial-BoldMT-65" x="666.943359"/>
     <use xlink:href="#Arial-BoldMT-74" x="722.558594"/>
     <use xlink:href="#Arial-BoldMT-65" x="755.859375"/>
     <use xlink:href="#Arial-BoldMT-72" x="811.474609"/>
     <use xlink:href="#Arial-BoldMT-73" x="850.390625"/>
     <use xlink:href="#Arial-BoldMT-20" x="906.005859"/>
     <use xlink:href="#Arial-BoldMT-66" x="933.789062"/>
     <use xlink:href="#Arial-BoldMT-6f" x="967.089844"/>
     <use xlink:href="#Arial-BoldMT-72" x="1028.173828"/>
     <use xlink:href="#Arial-BoldMT-20" x="1067.089844"/>
     <use xlink:href="#Arial-BoldMT-43" x="1094.873047"/>
     <use xlink:href="#Arial-BoldMT-65" x="1167.089844"/>
     <use xlink:href="#Arial-BoldMT-6c" x="1222.705078"/>
     <use xlink:href="#Arial-BoldMT-6c" x="1250.488281"/>
     <use xlink:href="#Arial-BoldMT-2d" x="1278.271484"/>
     <use xlink:href="#Arial-BoldMT-54" x="1311.572266"/>
     <use xlink:href="#Arial-BoldMT-79" x="1365.28125"/>
     <use xlink:href="#Arial-BoldMT-70" x="1420.896484"/>
     <use xlink:href="#Arial-BoldMT-65" x="1481.980469"/>
     <use xlink:href="#Arial-BoldMT-20" x="1537.595703"/>
     <use xlink:href="#Arial-BoldMT-53" x="1565.378906"/>
     <use xlink:href="#Arial-BoldMT-70" x="1632.078125"/>
     <use xlink:href="#Arial-BoldMT-65" x="1693.162109"/>
     <use xlink:href="#Arial-BoldMT-63" x="1748.777344"/>
     <use xlink:href="#Arial-BoldMT-69" x="1804.392578"/>
     <use xlink:href="#Arial-BoldMT-66" x="1832.175781"/>
     <use xlink:href="#Arial-BoldMT-69" x="1865.476562"/>
     <use xlink:href="#Arial-BoldMT-63" x="1893.259766"/>
     <use xlink:href="#Arial-BoldMT-20" x="1948.875"/>
     <use xlink:href="#Arial-BoldMT-4c" x="1976.658203"/>
     <use xlink:href="#Arial-BoldMT-4e" x="2037.742188"/>
     <use xlink:href="#Arial-BoldMT-50" x="2109.958984"/>
     <use xlink:href="#Arial-BoldMT-20" x="2174.908203"/>
     <use xlink:href="#Arial-BoldMT-46" x="2202.691406"/>
     <use xlink:href="#Arial-BoldMT-6f" x="2263.775391"/>
     <use xlink:href="#Arial-BoldMT-72" x="2324.859375"/>
     <use xlink:href="#Arial-BoldMT-6d" x="2363.775391"/>
     <use xlink:href="#Arial-BoldMT-75" x="2452.691406"/>
     <use xlink:href="#Arial-BoldMT-6c" x="2513.775391"/>
     <use xlink:href="#Arial-BoldMT-61" x="2541.558594"/>
     <use xlink:href="#Arial-BoldMT-74" x="2597.173828"/>
     <use xlink:href="#Arial-BoldMT-69" x="2630.474609"/>
     <use xlink:href="#Arial-BoldMT-6f" x="2658.257812"/>
     <use xlink:href="#Arial-BoldMT-6e" x="2719.341797"/>
     <use xlink:href="#Arial-BoldMT-73" x="2780.425781"/>
    </g>
   </g>
  </g>
  <g id="axes_2">
   <g id="matplotlib.axis_3">
    <g id="ytick_10">
     <g id="line2d_28">
      <path d="M 265.178649 340.440975 
L 711.578649 340.440975 
" clip-path="url(#p0598faed10)" style="fill: none; stroke: #ffffff; stroke-linecap: round"/>
     </g>
     <g id="line2d_29">
      <defs>
       <path id="me323be2b09" d="M 0 0 
L 6 0 
" style="stroke: #262626; stroke-width: 1.25"/>
      </defs>
      <g>
       <use xlink:href="#me323be2b09" x="711.578649" y="340.440975" style="fill: #262626; stroke: #262626; stroke-width: 1.25"/>
      </g>
     </g>
     <g id="text_18">
      <!-- N/A -->
      <g transform="translate(721.078649 348.314569) scale(0.22 -0.22)">
       <defs>
        <path id="ArialMT-2f" d="M 0 -78 
L 1328 4659 
L 1778 4659 
L 453 -78 
L 0 -78 
z
" transform="scale(0.015625)"/>
       </defs>
       <use xlink:href="#ArialMT-4e"/>
       <use xlink:href="#ArialMT-2f" x="72.216797"/>
       <use xlink:href="#ArialMT-41" x="100"/>
      </g>
     </g>
    </g>
    <g id="ytick_11">
     <g id="line2d_30">
      <path d="M 265.178649 269.477775 
L 711.578649 269.477775 
" clip-path="url(#p0598faed10)" style="fill: none; stroke: #ffffff; stroke-linecap: round"/>
     </g>
     <g id="line2d_31">
      <g>
       <use xlink:href="#me323be2b09" x="711.578649" y="269.477775" style="fill: #262626; stroke: #262626; stroke-width: 1.25"/>
      </g>
     </g>
     <g id="text_19">
      <!-- Low -->
      <g transform="translate(721.078649 277.351369) scale(0.22 -0.22)">
       <defs>
        <path id="ArialMT-77" d="M 1034 0 
L 19 3319 
L 600 3319 
L 1128 1403 
L 1325 691 
Q 1338 744 1497 1375 
L 2025 3319 
L 2603 3319 
L 3100 1394 
L 3266 759 
L 3456 1400 
L 4025 3319 
L 4572 3319 
L 3534 0 
L 2950 0 
L 2422 1988 
L 2294 2553 
L 1622 0 
L 1034 0 
z
" transform="scale(0.015625)"/>
       </defs>
       <use xlink:href="#ArialMT-4c"/>
       <use xlink:href="#ArialMT-6f" x="55.615234"/>
       <use xlink:href="#ArialMT-77" x="111.230469"/>
      </g>
     </g>
    </g>
    <g id="ytick_12">
     <g id="line2d_32">
      <path d="M 265.178649 174.120975 
L 711.578649 174.120975 
" clip-path="url(#p0598faed10)" style="fill: none; stroke: #ffffff; stroke-linecap: round"/>
     </g>
     <g id="line2d_33">
      <g>
       <use xlink:href="#me323be2b09" x="711.578649" y="174.120975" style="fill: #262626; stroke: #262626; stroke-width: 1.25"/>
      </g>
     </g>
     <g id="text_20">
      <!-- Med -->
      <g transform="translate(721.078649 181.994569) scale(0.22 -0.22)">
       <use xlink:href="#ArialMT-4d"/>
       <use xlink:href="#ArialMT-65" x="83.300781"/>
       <use xlink:href="#ArialMT-64" x="138.916016"/>
      </g>
     </g>
    </g>
    <g id="ytick_13">
     <g id="line2d_34">
      <path d="M 265.178649 78.764175 
L 711.578649 78.764175 
" clip-path="url(#p0598faed10)" style="fill: none; stroke: #ffffff; stroke-linecap: round"/>
     </g>
     <g id="line2d_35">
      <g>
       <use xlink:href="#me323be2b09" x="711.578649" y="78.764175" style="fill: #262626; stroke: #262626; stroke-width: 1.25"/>
      </g>
     </g>
     <g id="text_21">
      <!-- High -->
      <g transform="translate(721.078649 86.637769) scale(0.22 -0.22)">
       <use xlink:href="#ArialMT-48"/>
       <use xlink:href="#ArialMT-69" x="72.216797"/>
       <use xlink:href="#ArialMT-67" x="94.433594"/>
       <use xlink:href="#ArialMT-68" x="150.048828"/>
      </g>
     </g>
    </g>
    <g id="text_22">
     <!-- Relative Feature Value -->
     <g transform="translate(787.501774 315.255) rotate(-90) scale(0.24 -0.24)">
      <defs>
       <path id="ArialMT-76" d="M 1344 0 
L 81 3319 
L 675 3319 
L 1388 1331 
Q 1503 1009 1600 663 
Q 1675 925 1809 1294 
L 2547 3319 
L 3125 3319 
L 1869 0 
L 1344 0 
z
" transform="scale(0.015625)"/>
       <path id="ArialMT-56" d="M 1803 0 
L 28 4581 
L 684 4581 
L 1875 1253 
Q 2019 853 2116 503 
Q 2222 878 2363 1253 
L 3600 4581 
L 4219 4581 
L 2425 0 
L 1803 0 
z
" transform="scale(0.015625)"/>
      </defs>
      <use xlink:href="#ArialMT-52"/>
      <use xlink:href="#ArialMT-65" x="72.216797"/>
      <use xlink:href="#ArialMT-6c" x="127.832031"/>
      <use xlink:href="#ArialMT-61" x="150.048828"/>
      <use xlink:href="#ArialMT-74" x="205.664062"/>
      <use xlink:href="#ArialMT-69" x="233.447266"/>
      <use xlink:href="#ArialMT-76" x="255.664062"/>
      <use xlink:href="#ArialMT-65" x="305.664062"/>
      <use xlink:href="#ArialMT-20" x="361.279297"/>
      <use xlink:href="#ArialMT-46" x="389.0625"/>
      <use xlink:href="#ArialMT-65" x="450.146484"/>
      <use xlink:href="#ArialMT-61" x="505.761719"/>
      <use xlink:href="#ArialMT-74" x="561.376953"/>
      <use xlink:href="#ArialMT-75" x="589.160156"/>
      <use xlink:href="#ArialMT-72" x="644.775391"/>
      <use xlink:href="#ArialMT-65" x="678.076172"/>
      <use xlink:href="#ArialMT-20" x="733.691406"/>
      <use xlink:href="#ArialMT-56" x="761.474609"/>
      <use xlink:href="#ArialMT-61" x="820.798828"/>
      <use xlink:href="#ArialMT-6c" x="876.414062"/>
      <use xlink:href="#ArialMT-75" x="898.630859"/>
      <use xlink:href="#ArialMT-65" x="954.246094"/>
     </g>
    </g>
   </g>
   <g id="patch_3">
    <path d="M 265.178649 360.399375 
L 265.178649 320.482575 
L 711.578649 320.482575 
L 711.578649 360.399375 
z
" clip-path="url(#p0598faed10)" style="fill: #f08080; opacity: 0.25; stroke: #ffffff; stroke-linejoin: miter"/>
   </g>
   <g id="patch_4">
    <path d="M 265.178649 320.482575 
L 265.178649 218.472975 
L 711.578649 218.472975 
L 711.578649 320.482575 
z
" clip-path="url(#p0598faed10)" style="fill: #ebf3ed; opacity: 0.25; stroke: #ffffff; stroke-linejoin: miter"/>
   </g>
   <g id="patch_5">
    <path d="M 265.178649 218.472975 
L 265.178649 129.768975 
L 711.578649 129.768975 
L 711.578649 218.472975 
z
" clip-path="url(#p0598faed10)" style="fill: #acd0bb; opacity: 0.25; stroke: #ffffff; stroke-linejoin: miter"/>
   </g>
   <g id="patch_6">
    <path d="M 265.178649 129.768975 
L 265.178649 27.759375 
L 711.578649 27.759375 
L 711.578649 129.768975 
z
" clip-path="url(#p0598faed10)" style="fill: #6dae89; opacity: 0.25; stroke: #ffffff; stroke-linejoin: miter"/>
   </g>
   <g id="patch_7">
    <path d="M 265.178649 360.399375 
L 265.178649 27.759375 
" style="fill: none; stroke: #ffffff; stroke-width: 1.25; stroke-linejoin: miter; stroke-linecap: square"/>
   </g>
   <g id="patch_8">
    <path d="M 711.578649 360.399375 
L 711.578649 27.759375 
" style="fill: none; stroke: #ffffff; stroke-width: 1.25; stroke-linejoin: miter; stroke-linecap: square"/>
   </g>
   <g id="patch_9">
    <path d="M 265.178649 360.399375 
L 711.578649 360.399375 
" style="fill: none; stroke: #ffffff; stroke-width: 1.25; stroke-linejoin: miter; stroke-linecap: square"/>
   </g>
   <g id="patch_10">
    <path d="M 265.178649 27.759375 
L 711.578649 27.759375 
" style="fill: none; stroke: #ffffff; stroke-width: 1.25; stroke-linejoin: miter; stroke-linecap: square"/>
   </g>
  </g>
 </g>
 <defs>
  <clipPath id="p0598faed10">
   <rect x="265.178649" y="27.759375" width="446.4" height="332.64"/>
  </clipPath>
 </defs>
</svg>
