<?xml version="1.0" encoding="utf-8" standalone="no"?>
<!DOCTYPE svg PUBLIC "-//W3C//DTD SVG 1.1//EN"
  "http://www.w3.org/Graphics/SVG/1.1/DTD/svg11.dtd">
<svg xmlns:xlink="http://www.w3.org/1999/xlink" width="703.353406pt" height="291.69913pt" viewBox="0 0 703.353406 291.69913" xmlns="http://www.w3.org/2000/svg" version="1.1">
 <metadata>
  <rdf:RDF xmlns:dc="http://purl.org/dc/elements/1.1/" xmlns:cc="http://creativecommons.org/ns#" xmlns:rdf="http://www.w3.org/1999/02/22-rdf-syntax-ns#">
   <cc:Work>
    <dc:type rdf:resource="http://purl.org/dc/dcmitype/StillImage"/>
    <dc:date>2023-10-09T11:06:26.426371</dc:date>
    <dc:format>image/svg+xml</dc:format>
    <dc:creator>
     <cc:Agent>
      <dc:title>Matplotlib v3.6.3, https://matplotlib.org/</dc:title>
     </cc:Agent>
    </dc:creator>
   </cc:Work>
  </rdf:RDF>
 </metadata>
 <defs>
  <style type="text/css">*{stroke-linejoin: round; stroke-linecap: butt}</style>
 </defs>
 <g id="figure_1">
  <g id="patch_1">
   <path d="M 0 291.69913 
L 703.353406 291.69913 
L 703.353406 0 
L 0 0 
L 0 291.69913 
z
" style="fill: none"/>
  </g>
  <g id="axes_1">
   <g id="patch_2">
    <path d="M 141.911219 250.156875 
L 588.311219 250.156875 
L 588.311219 28.396875 
L 141.911219 28.396875 
L 141.911219 250.156875 
z
" style="fill: none"/>
   </g>
   <g id="matplotlib.axis_1">
    <g id="xtick_1">
     <g id="line2d_1">
      <path d="M 148.674855 250.156875 
L 148.674855 28.396875 
" clip-path="url(#p8670a4706e)" style="fill: none; stroke: #b0b0b0; stroke-width: 0.8; stroke-linecap: square"/>
     </g>
     <g id="line2d_2">
      <defs>
       <path id="m0e966db3cf" d="M 0 0 
L 0 3.5 
" style="stroke: #000000; stroke-width: 0.8"/>
      </defs>
      <g>
       <use xlink:href="#m0e966db3cf" x="148.674855" y="250.156875" style="stroke: #000000; stroke-width: 0.8"/>
      </g>
     </g>
     <g id="text_1">
      <!-- Features -->
      <g transform="translate(127.180324 264.755312) scale(0.1 -0.1)">
       <defs>
        <path id="DejaVuSans-46" d="M 628 4666 
L 3309 4666 
L 3309 4134 
L 1259 4134 
L 1259 2759 
L 3109 2759 
L 3109 2228 
L 1259 2228 
L 1259 0 
L 628 0 
L 628 4666 
z
" transform="scale(0.015625)"/>
        <path id="DejaVuSans-65" d="M 3597 1894 
L 3597 1613 
L 953 1613 
Q 991 1019 1311 708 
Q 1631 397 2203 397 
Q 2534 397 2845 478 
Q 3156 559 3463 722 
L 3463 178 
Q 3153 47 2828 -22 
Q 2503 -91 2169 -91 
Q 1331 -91 842 396 
Q 353 884 353 1716 
Q 353 2575 817 3079 
Q 1281 3584 2069 3584 
Q 2775 3584 3186 3129 
Q 3597 2675 3597 1894 
z
M 3022 2063 
Q 3016 2534 2758 2815 
Q 2500 3097 2075 3097 
Q 1594 3097 1305 2825 
Q 1016 2553 972 2059 
L 3022 2063 
z
" transform="scale(0.015625)"/>
        <path id="DejaVuSans-61" d="M 2194 1759 
Q 1497 1759 1228 1600 
Q 959 1441 959 1056 
Q 959 750 1161 570 
Q 1363 391 1709 391 
Q 2188 391 2477 730 
Q 2766 1069 2766 1631 
L 2766 1759 
L 2194 1759 
z
M 3341 1997 
L 3341 0 
L 2766 0 
L 2766 531 
Q 2569 213 2275 61 
Q 1981 -91 1556 -91 
Q 1019 -91 701 211 
Q 384 513 384 1019 
Q 384 1609 779 1909 
Q 1175 2209 1959 2209 
L 2766 2209 
L 2766 2266 
Q 2766 2663 2505 2880 
Q 2244 3097 1772 3097 
Q 1472 3097 1187 3025 
Q 903 2953 641 2809 
L 641 3341 
Q 956 3463 1253 3523 
Q 1550 3584 1831 3584 
Q 2591 3584 2966 3190 
Q 3341 2797 3341 1997 
z
" transform="scale(0.015625)"/>
        <path id="DejaVuSans-74" d="M 1172 4494 
L 1172 3500 
L 2356 3500 
L 2356 3053 
L 1172 3053 
L 1172 1153 
Q 1172 725 1289 603 
Q 1406 481 1766 481 
L 2356 481 
L 2356 0 
L 1766 0 
Q 1100 0 847 248 
Q 594 497 594 1153 
L 594 3053 
L 172 3053 
L 172 3500 
L 594 3500 
L 594 4494 
L 1172 4494 
z
" transform="scale(0.015625)"/>
        <path id="DejaVuSans-75" d="M 544 1381 
L 544 3500 
L 1119 3500 
L 1119 1403 
Q 1119 906 1312 657 
Q 1506 409 1894 409 
Q 2359 409 2629 706 
Q 2900 1003 2900 1516 
L 2900 3500 
L 3475 3500 
L 3475 0 
L 2900 0 
L 2900 538 
Q 2691 219 2414 64 
Q 2138 -91 1772 -91 
Q 1169 -91 856 284 
Q 544 659 544 1381 
z
M 1991 3584 
L 1991 3584 
z
" transform="scale(0.015625)"/>
        <path id="DejaVuSans-72" d="M 2631 2963 
Q 2534 3019 2420 3045 
Q 2306 3072 2169 3072 
Q 1681 3072 1420 2755 
Q 1159 2438 1159 1844 
L 1159 0 
L 581 0 
L 581 3500 
L 1159 3500 
L 1159 2956 
Q 1341 3275 1631 3429 
Q 1922 3584 2338 3584 
Q 2397 3584 2469 3576 
Q 2541 3569 2628 3553 
L 2631 2963 
z
" transform="scale(0.015625)"/>
        <path id="DejaVuSans-73" d="M 2834 3397 
L 2834 2853 
Q 2591 2978 2328 3040 
Q 2066 3103 1784 3103 
Q 1356 3103 1142 2972 
Q 928 2841 928 2578 
Q 928 2378 1081 2264 
Q 1234 2150 1697 2047 
L 1894 2003 
Q 2506 1872 2764 1633 
Q 3022 1394 3022 966 
Q 3022 478 2636 193 
Q 2250 -91 1575 -91 
Q 1294 -91 989 -36 
Q 684 19 347 128 
L 347 722 
Q 666 556 975 473 
Q 1284 391 1588 391 
Q 1994 391 2212 530 
Q 2431 669 2431 922 
Q 2431 1156 2273 1281 
Q 2116 1406 1581 1522 
L 1381 1569 
Q 847 1681 609 1914 
Q 372 2147 372 2553 
Q 372 3047 722 3315 
Q 1072 3584 1716 3584 
Q 2034 3584 2315 3537 
Q 2597 3491 2834 3397 
z
" transform="scale(0.015625)"/>
       </defs>
       <use xlink:href="#DejaVuSans-46"/>
       <use xlink:href="#DejaVuSans-65" x="52.019531"/>
       <use xlink:href="#DejaVuSans-61" x="113.542969"/>
       <use xlink:href="#DejaVuSans-74" x="174.822266"/>
       <use xlink:href="#DejaVuSans-75" x="214.03125"/>
       <use xlink:href="#DejaVuSans-72" x="277.410156"/>
       <use xlink:href="#DejaVuSans-65" x="316.273438"/>
       <use xlink:href="#DejaVuSans-73" x="377.796875"/>
      </g>
     </g>
    </g>
    <g id="xtick_2">
     <g id="line2d_3">
      <path d="M 216.311219 250.156875 
L 216.311219 28.396875 
" clip-path="url(#p8670a4706e)" style="fill: none; stroke: #b0b0b0; stroke-width: 0.8; stroke-linecap: square"/>
     </g>
     <g id="line2d_4">
      <g>
       <use xlink:href="#m0e966db3cf" x="216.311219" y="250.156875" style="stroke: #000000; stroke-width: 0.8"/>
      </g>
     </g>
     <g id="text_2">
      <!-- HepG2 -->
      <g transform="translate(199.244812 264.755312) scale(0.1 -0.1)">
       <defs>
        <path id="DejaVuSans-48" d="M 628 4666 
L 1259 4666 
L 1259 2753 
L 3553 2753 
L 3553 4666 
L 4184 4666 
L 4184 0 
L 3553 0 
L 3553 2222 
L 1259 2222 
L 1259 0 
L 628 0 
L 628 4666 
z
" transform="scale(0.015625)"/>
        <path id="DejaVuSans-70" d="M 1159 525 
L 1159 -1331 
L 581 -1331 
L 581 3500 
L 1159 3500 
L 1159 2969 
Q 1341 3281 1617 3432 
Q 1894 3584 2278 3584 
Q 2916 3584 3314 3078 
Q 3713 2572 3713 1747 
Q 3713 922 3314 415 
Q 2916 -91 2278 -91 
Q 1894 -91 1617 61 
Q 1341 213 1159 525 
z
M 3116 1747 
Q 3116 2381 2855 2742 
Q 2594 3103 2138 3103 
Q 1681 3103 1420 2742 
Q 1159 2381 1159 1747 
Q 1159 1113 1420 752 
Q 1681 391 2138 391 
Q 2594 391 2855 752 
Q 3116 1113 3116 1747 
z
" transform="scale(0.015625)"/>
        <path id="DejaVuSans-47" d="M 3809 666 
L 3809 1919 
L 2778 1919 
L 2778 2438 
L 4434 2438 
L 4434 434 
Q 4069 175 3628 42 
Q 3188 -91 2688 -91 
Q 1594 -91 976 548 
Q 359 1188 359 2328 
Q 359 3472 976 4111 
Q 1594 4750 2688 4750 
Q 3144 4750 3555 4637 
Q 3966 4525 4313 4306 
L 4313 3634 
Q 3963 3931 3569 4081 
Q 3175 4231 2741 4231 
Q 1884 4231 1454 3753 
Q 1025 3275 1025 2328 
Q 1025 1384 1454 906 
Q 1884 428 2741 428 
Q 3075 428 3337 486 
Q 3600 544 3809 666 
z
" transform="scale(0.015625)"/>
        <path id="DejaVuSans-32" d="M 1228 531 
L 3431 531 
L 3431 0 
L 469 0 
L 469 531 
Q 828 903 1448 1529 
Q 2069 2156 2228 2338 
Q 2531 2678 2651 2914 
Q 2772 3150 2772 3378 
Q 2772 3750 2511 3984 
Q 2250 4219 1831 4219 
Q 1534 4219 1204 4116 
Q 875 4013 500 3803 
L 500 4441 
Q 881 4594 1212 4672 
Q 1544 4750 1819 4750 
Q 2544 4750 2975 4387 
Q 3406 4025 3406 3419 
Q 3406 3131 3298 2873 
Q 3191 2616 2906 2266 
Q 2828 2175 2409 1742 
Q 1991 1309 1228 531 
z
" transform="scale(0.015625)"/>
       </defs>
       <use xlink:href="#DejaVuSans-48"/>
       <use xlink:href="#DejaVuSans-65" x="75.195312"/>
       <use xlink:href="#DejaVuSans-70" x="136.71875"/>
       <use xlink:href="#DejaVuSans-47" x="200.195312"/>
       <use xlink:href="#DejaVuSans-32" x="277.685547"/>
      </g>
     </g>
    </g>
    <g id="xtick_3">
     <g id="line2d_5">
      <path d="M 283.947582 250.156875 
L 283.947582 28.396875 
" clip-path="url(#p8670a4706e)" style="fill: none; stroke: #b0b0b0; stroke-width: 0.8; stroke-linecap: square"/>
     </g>
     <g id="line2d_6">
      <g>
       <use xlink:href="#m0e966db3cf" x="283.947582" y="250.156875" style="stroke: #000000; stroke-width: 0.8"/>
      </g>
     </g>
     <g id="text_3">
      <!-- PC3 -->
      <g transform="translate(274.260082 264.755312) scale(0.1 -0.1)">
       <defs>
        <path id="DejaVuSans-50" d="M 1259 4147 
L 1259 2394 
L 2053 2394 
Q 2494 2394 2734 2622 
Q 2975 2850 2975 3272 
Q 2975 3691 2734 3919 
Q 2494 4147 2053 4147 
L 1259 4147 
z
M 628 4666 
L 2053 4666 
Q 2838 4666 3239 4311 
Q 3641 3956 3641 3272 
Q 3641 2581 3239 2228 
Q 2838 1875 2053 1875 
L 1259 1875 
L 1259 0 
L 628 0 
L 628 4666 
z
" transform="scale(0.015625)"/>
        <path id="DejaVuSans-43" d="M 4122 4306 
L 4122 3641 
Q 3803 3938 3442 4084 
Q 3081 4231 2675 4231 
Q 1875 4231 1450 3742 
Q 1025 3253 1025 2328 
Q 1025 1406 1450 917 
Q 1875 428 2675 428 
Q 3081 428 3442 575 
Q 3803 722 4122 1019 
L 4122 359 
Q 3791 134 3420 21 
Q 3050 -91 2638 -91 
Q 1578 -91 968 557 
Q 359 1206 359 2328 
Q 359 3453 968 4101 
Q 1578 4750 2638 4750 
Q 3056 4750 3426 4639 
Q 3797 4528 4122 4306 
z
" transform="scale(0.015625)"/>
        <path id="DejaVuSans-33" d="M 2597 2516 
Q 3050 2419 3304 2112 
Q 3559 1806 3559 1356 
Q 3559 666 3084 287 
Q 2609 -91 1734 -91 
Q 1441 -91 1130 -33 
Q 819 25 488 141 
L 488 750 
Q 750 597 1062 519 
Q 1375 441 1716 441 
Q 2309 441 2620 675 
Q 2931 909 2931 1356 
Q 2931 1769 2642 2001 
Q 2353 2234 1838 2234 
L 1294 2234 
L 1294 2753 
L 1863 2753 
Q 2328 2753 2575 2939 
Q 2822 3125 2822 3475 
Q 2822 3834 2567 4026 
Q 2313 4219 1838 4219 
Q 1578 4219 1281 4162 
Q 984 4106 628 3988 
L 628 4550 
Q 988 4650 1302 4700 
Q 1616 4750 1894 4750 
Q 2613 4750 3031 4423 
Q 3450 4097 3450 3541 
Q 3450 3153 3228 2886 
Q 3006 2619 2597 2516 
z
" transform="scale(0.015625)"/>
       </defs>
       <use xlink:href="#DejaVuSans-50"/>
       <use xlink:href="#DejaVuSans-43" x="60.302734"/>
       <use xlink:href="#DejaVuSans-33" x="130.126953"/>
      </g>
     </g>
    </g>
    <g id="xtick_4">
     <g id="line2d_7">
      <path d="M 351.583946 250.156875 
L 351.583946 28.396875 
" clip-path="url(#p8670a4706e)" style="fill: none; stroke: #b0b0b0; stroke-width: 0.8; stroke-linecap: square"/>
     </g>
     <g id="line2d_8">
      <g>
       <use xlink:href="#m0e966db3cf" x="351.583946" y="250.156875" style="stroke: #000000; stroke-width: 0.8"/>
      </g>
     </g>
     <g id="text_4">
      <!-- B16 -->
      <g transform="translate(341.790977 264.755312) scale(0.1 -0.1)">
       <defs>
        <path id="DejaVuSans-42" d="M 1259 2228 
L 1259 519 
L 2272 519 
Q 2781 519 3026 730 
Q 3272 941 3272 1375 
Q 3272 1813 3026 2020 
Q 2781 2228 2272 2228 
L 1259 2228 
z
M 1259 4147 
L 1259 2741 
L 2194 2741 
Q 2656 2741 2882 2914 
Q 3109 3088 3109 3444 
Q 3109 3797 2882 3972 
Q 2656 4147 2194 4147 
L 1259 4147 
z
M 628 4666 
L 2241 4666 
Q 2963 4666 3353 4366 
Q 3744 4066 3744 3513 
Q 3744 3084 3544 2831 
Q 3344 2578 2956 2516 
Q 3422 2416 3680 2098 
Q 3938 1781 3938 1306 
Q 3938 681 3513 340 
Q 3088 0 2303 0 
L 628 0 
L 628 4666 
z
" transform="scale(0.015625)"/>
        <path id="DejaVuSans-31" d="M 794 531 
L 1825 531 
L 1825 4091 
L 703 3866 
L 703 4441 
L 1819 4666 
L 2450 4666 
L 2450 531 
L 3481 531 
L 3481 0 
L 794 0 
L 794 531 
z
" transform="scale(0.015625)"/>
        <path id="DejaVuSans-36" d="M 2113 2584 
Q 1688 2584 1439 2293 
Q 1191 2003 1191 1497 
Q 1191 994 1439 701 
Q 1688 409 2113 409 
Q 2538 409 2786 701 
Q 3034 994 3034 1497 
Q 3034 2003 2786 2293 
Q 2538 2584 2113 2584 
z
M 3366 4563 
L 3366 3988 
Q 3128 4100 2886 4159 
Q 2644 4219 2406 4219 
Q 1781 4219 1451 3797 
Q 1122 3375 1075 2522 
Q 1259 2794 1537 2939 
Q 1816 3084 2150 3084 
Q 2853 3084 3261 2657 
Q 3669 2231 3669 1497 
Q 3669 778 3244 343 
Q 2819 -91 2113 -91 
Q 1303 -91 875 529 
Q 447 1150 447 2328 
Q 447 3434 972 4092 
Q 1497 4750 2381 4750 
Q 2619 4750 2861 4703 
Q 3103 4656 3366 4563 
z
" transform="scale(0.015625)"/>
       </defs>
       <use xlink:href="#DejaVuSans-42"/>
       <use xlink:href="#DejaVuSans-31" x="68.603516"/>
       <use xlink:href="#DejaVuSans-36" x="132.226562"/>
      </g>
     </g>
    </g>
    <g id="xtick_5">
     <g id="line2d_9">
      <path d="M 419.22031 250.156875 
L 419.22031 28.396875 
" clip-path="url(#p8670a4706e)" style="fill: none; stroke: #b0b0b0; stroke-width: 0.8; stroke-linecap: square"/>
     </g>
     <g id="line2d_10">
      <g>
       <use xlink:href="#m0e966db3cf" x="419.22031" y="250.156875" style="stroke: #000000; stroke-width: 0.8"/>
      </g>
     </g>
     <g id="text_5">
      <!-- N2a -->
      <g transform="translate(409.234372 264.755312) scale(0.1 -0.1)">
       <defs>
        <path id="DejaVuSans-4e" d="M 628 4666 
L 1478 4666 
L 3547 763 
L 3547 4666 
L 4159 4666 
L 4159 0 
L 3309 0 
L 1241 3903 
L 1241 0 
L 628 0 
L 628 4666 
z
" transform="scale(0.015625)"/>
       </defs>
       <use xlink:href="#DejaVuSans-4e"/>
       <use xlink:href="#DejaVuSans-32" x="74.804688"/>
       <use xlink:href="#DejaVuSans-61" x="138.427734"/>
      </g>
     </g>
    </g>
    <g id="xtick_6">
     <g id="line2d_11">
      <path d="M 486.856673 250.156875 
L 486.856673 28.396875 
" clip-path="url(#p8670a4706e)" style="fill: none; stroke: #b0b0b0; stroke-width: 0.8; stroke-linecap: square"/>
     </g>
     <g id="line2d_12">
      <g>
       <use xlink:href="#m0e966db3cf" x="486.856673" y="250.156875" style="stroke: #000000; stroke-width: 0.8"/>
      </g>
     </g>
     <g id="text_6">
      <!-- HEK293 -->
      <g transform="translate(467.114486 264.755312) scale(0.1 -0.1)">
       <defs>
        <path id="DejaVuSans-45" d="M 628 4666 
L 3578 4666 
L 3578 4134 
L 1259 4134 
L 1259 2753 
L 3481 2753 
L 3481 2222 
L 1259 2222 
L 1259 531 
L 3634 531 
L 3634 0 
L 628 0 
L 628 4666 
z
" transform="scale(0.015625)"/>
        <path id="DejaVuSans-4b" d="M 628 4666 
L 1259 4666 
L 1259 2694 
L 3353 4666 
L 4166 4666 
L 1850 2491 
L 4331 0 
L 3500 0 
L 1259 2247 
L 1259 0 
L 628 0 
L 628 4666 
z
" transform="scale(0.015625)"/>
        <path id="DejaVuSans-39" d="M 703 97 
L 703 672 
Q 941 559 1184 500 
Q 1428 441 1663 441 
Q 2288 441 2617 861 
Q 2947 1281 2994 2138 
Q 2813 1869 2534 1725 
Q 2256 1581 1919 1581 
Q 1219 1581 811 2004 
Q 403 2428 403 3163 
Q 403 3881 828 4315 
Q 1253 4750 1959 4750 
Q 2769 4750 3195 4129 
Q 3622 3509 3622 2328 
Q 3622 1225 3098 567 
Q 2575 -91 1691 -91 
Q 1453 -91 1209 -44 
Q 966 3 703 97 
z
M 1959 2075 
Q 2384 2075 2632 2365 
Q 2881 2656 2881 3163 
Q 2881 3666 2632 3958 
Q 2384 4250 1959 4250 
Q 1534 4250 1286 3958 
Q 1038 3666 1038 3163 
Q 1038 2656 1286 2365 
Q 1534 2075 1959 2075 
z
" transform="scale(0.015625)"/>
       </defs>
       <use xlink:href="#DejaVuSans-48"/>
       <use xlink:href="#DejaVuSans-45" x="75.195312"/>
       <use xlink:href="#DejaVuSans-4b" x="138.378906"/>
       <use xlink:href="#DejaVuSans-32" x="203.955078"/>
       <use xlink:href="#DejaVuSans-39" x="267.578125"/>
       <use xlink:href="#DejaVuSans-33" x="331.201172"/>
      </g>
     </g>
    </g>
    <g id="xtick_7">
     <g id="line2d_13">
      <path d="M 554.493037 250.156875 
L 554.493037 28.396875 
" clip-path="url(#p8670a4706e)" style="fill: none; stroke: #b0b0b0; stroke-width: 0.8; stroke-linecap: square"/>
     </g>
     <g id="line2d_14">
      <g>
       <use xlink:href="#m0e966db3cf" x="554.493037" y="250.156875" style="stroke: #000000; stroke-width: 0.8"/>
      </g>
     </g>
     <g id="text_7">
      <!-- ARPE19 -->
      <g transform="translate(535.061787 264.755312) scale(0.1 -0.1)">
       <defs>
        <path id="DejaVuSans-41" d="M 2188 4044 
L 1331 1722 
L 3047 1722 
L 2188 4044 
z
M 1831 4666 
L 2547 4666 
L 4325 0 
L 3669 0 
L 3244 1197 
L 1141 1197 
L 716 0 
L 50 0 
L 1831 4666 
z
" transform="scale(0.015625)"/>
        <path id="DejaVuSans-52" d="M 2841 2188 
Q 3044 2119 3236 1894 
Q 3428 1669 3622 1275 
L 4263 0 
L 3584 0 
L 2988 1197 
Q 2756 1666 2539 1819 
Q 2322 1972 1947 1972 
L 1259 1972 
L 1259 0 
L 628 0 
L 628 4666 
L 2053 4666 
Q 2853 4666 3247 4331 
Q 3641 3997 3641 3322 
Q 3641 2881 3436 2590 
Q 3231 2300 2841 2188 
z
M 1259 4147 
L 1259 2491 
L 2053 2491 
Q 2509 2491 2742 2702 
Q 2975 2913 2975 3322 
Q 2975 3731 2742 3939 
Q 2509 4147 2053 4147 
L 1259 4147 
z
" transform="scale(0.015625)"/>
       </defs>
       <use xlink:href="#DejaVuSans-41"/>
       <use xlink:href="#DejaVuSans-52" x="68.408203"/>
       <use xlink:href="#DejaVuSans-50" x="137.890625"/>
       <use xlink:href="#DejaVuSans-45" x="198.193359"/>
       <use xlink:href="#DejaVuSans-31" x="261.376953"/>
       <use xlink:href="#DejaVuSans-39" x="325"/>
      </g>
     </g>
    </g>
   </g>
   <g id="matplotlib.axis_2">
    <g id="ytick_1">
     <g id="line2d_15">
      <defs>
       <path id="m156a364630" d="M 0 0 
L -3.5 0 
" style="stroke: #000000; stroke-width: 0.8"/>
      </defs>
      <g>
       <use xlink:href="#m156a364630" x="141.911219" y="214.675275" style="stroke: #000000; stroke-width: 0.8"/>
      </g>
     </g>
     <g id="text_8">
      <!-- P_charged_centers -->
      <g transform="translate(66.661051 282.831905) rotate(-45) scale(0.1 -0.1)">
       <defs>
        <path id="DejaVuSans-5f" d="M 3263 -1063 
L 3263 -1509 
L -63 -1509 
L -63 -1063 
L 3263 -1063 
z
" transform="scale(0.015625)"/>
        <path id="DejaVuSans-63" d="M 3122 3366 
L 3122 2828 
Q 2878 2963 2633 3030 
Q 2388 3097 2138 3097 
Q 1578 3097 1268 2742 
Q 959 2388 959 1747 
Q 959 1106 1268 751 
Q 1578 397 2138 397 
Q 2388 397 2633 464 
Q 2878 531 3122 666 
L 3122 134 
Q 2881 22 2623 -34 
Q 2366 -91 2075 -91 
Q 1284 -91 818 406 
Q 353 903 353 1747 
Q 353 2603 823 3093 
Q 1294 3584 2113 3584 
Q 2378 3584 2631 3529 
Q 2884 3475 3122 3366 
z
" transform="scale(0.015625)"/>
        <path id="DejaVuSans-68" d="M 3513 2113 
L 3513 0 
L 2938 0 
L 2938 2094 
Q 2938 2591 2744 2837 
Q 2550 3084 2163 3084 
Q 1697 3084 1428 2787 
Q 1159 2491 1159 1978 
L 1159 0 
L 581 0 
L 581 4863 
L 1159 4863 
L 1159 2956 
Q 1366 3272 1645 3428 
Q 1925 3584 2291 3584 
Q 2894 3584 3203 3211 
Q 3513 2838 3513 2113 
z
" transform="scale(0.015625)"/>
        <path id="DejaVuSans-67" d="M 2906 1791 
Q 2906 2416 2648 2759 
Q 2391 3103 1925 3103 
Q 1463 3103 1205 2759 
Q 947 2416 947 1791 
Q 947 1169 1205 825 
Q 1463 481 1925 481 
Q 2391 481 2648 825 
Q 2906 1169 2906 1791 
z
M 3481 434 
Q 3481 -459 3084 -895 
Q 2688 -1331 1869 -1331 
Q 1566 -1331 1297 -1286 
Q 1028 -1241 775 -1147 
L 775 -588 
Q 1028 -725 1275 -790 
Q 1522 -856 1778 -856 
Q 2344 -856 2625 -561 
Q 2906 -266 2906 331 
L 2906 616 
Q 2728 306 2450 153 
Q 2172 0 1784 0 
Q 1141 0 747 490 
Q 353 981 353 1791 
Q 353 2603 747 3093 
Q 1141 3584 1784 3584 
Q 2172 3584 2450 3431 
Q 2728 3278 2906 2969 
L 2906 3500 
L 3481 3500 
L 3481 434 
z
" transform="scale(0.015625)"/>
        <path id="DejaVuSans-64" d="M 2906 2969 
L 2906 4863 
L 3481 4863 
L 3481 0 
L 2906 0 
L 2906 525 
Q 2725 213 2448 61 
Q 2172 -91 1784 -91 
Q 1150 -91 751 415 
Q 353 922 353 1747 
Q 353 2572 751 3078 
Q 1150 3584 1784 3584 
Q 2172 3584 2448 3432 
Q 2725 3281 2906 2969 
z
M 947 1747 
Q 947 1113 1208 752 
Q 1469 391 1925 391 
Q 2381 391 2643 752 
Q 2906 1113 2906 1747 
Q 2906 2381 2643 2742 
Q 2381 3103 1925 3103 
Q 1469 3103 1208 2742 
Q 947 2381 947 1747 
z
" transform="scale(0.015625)"/>
        <path id="DejaVuSans-6e" d="M 3513 2113 
L 3513 0 
L 2938 0 
L 2938 2094 
Q 2938 2591 2744 2837 
Q 2550 3084 2163 3084 
Q 1697 3084 1428 2787 
Q 1159 2491 1159 1978 
L 1159 0 
L 581 0 
L 581 3500 
L 1159 3500 
L 1159 2956 
Q 1366 3272 1645 3428 
Q 1925 3584 2291 3584 
Q 2894 3584 3203 3211 
Q 3513 2838 3513 2113 
z
" transform="scale(0.015625)"/>
       </defs>
       <use xlink:href="#DejaVuSans-50"/>
       <use xlink:href="#DejaVuSans-5f" x="60.302734"/>
       <use xlink:href="#DejaVuSans-63" x="110.302734"/>
       <use xlink:href="#DejaVuSans-68" x="165.283203"/>
       <use xlink:href="#DejaVuSans-61" x="228.662109"/>
       <use xlink:href="#DejaVuSans-72" x="289.941406"/>
       <use xlink:href="#DejaVuSans-67" x="329.304688"/>
       <use xlink:href="#DejaVuSans-65" x="392.78125"/>
       <use xlink:href="#DejaVuSans-64" x="454.304688"/>
       <use xlink:href="#DejaVuSans-5f" x="517.78125"/>
       <use xlink:href="#DejaVuSans-63" x="567.78125"/>
       <use xlink:href="#DejaVuSans-65" x="622.761719"/>
       <use xlink:href="#DejaVuSans-6e" x="684.285156"/>
       <use xlink:href="#DejaVuSans-74" x="747.664062"/>
       <use xlink:href="#DejaVuSans-65" x="786.873047"/>
       <use xlink:href="#DejaVuSans-72" x="848.396484"/>
       <use xlink:href="#DejaVuSans-73" x="889.509766"/>
      </g>
     </g>
    </g>
    <g id="ytick_2">
     <g id="line2d_16">
      <g>
       <use xlink:href="#m156a364630" x="141.911219" y="199.891275" style="stroke: #000000; stroke-width: 0.8"/>
      </g>
     </g>
     <g id="text_9">
      <!-- N_charged_centers -->
      <g transform="translate(65.634641 269.074315) rotate(-45) scale(0.1 -0.1)">
       <use xlink:href="#DejaVuSans-4e"/>
       <use xlink:href="#DejaVuSans-5f" x="74.804688"/>
       <use xlink:href="#DejaVuSans-63" x="124.804688"/>
       <use xlink:href="#DejaVuSans-68" x="179.785156"/>
       <use xlink:href="#DejaVuSans-61" x="243.164062"/>
       <use xlink:href="#DejaVuSans-72" x="304.443359"/>
       <use xlink:href="#DejaVuSans-67" x="343.806641"/>
       <use xlink:href="#DejaVuSans-65" x="407.283203"/>
       <use xlink:href="#DejaVuSans-64" x="468.806641"/>
       <use xlink:href="#DejaVuSans-5f" x="532.283203"/>
       <use xlink:href="#DejaVuSans-63" x="582.283203"/>
       <use xlink:href="#DejaVuSans-65" x="637.263672"/>
       <use xlink:href="#DejaVuSans-6e" x="698.787109"/>
       <use xlink:href="#DejaVuSans-74" x="762.166016"/>
       <use xlink:href="#DejaVuSans-65" x="801.375"/>
       <use xlink:href="#DejaVuSans-72" x="862.898438"/>
       <use xlink:href="#DejaVuSans-73" x="904.011719"/>
      </g>
     </g>
    </g>
    <g id="ytick_3">
     <g id="line2d_17">
      <g>
       <use xlink:href="#m156a364630" x="141.911219" y="185.107275" style="stroke: #000000; stroke-width: 0.8"/>
      </g>
     </g>
     <g id="text_10">
      <!-- Double_bonds -->
      <g transform="translate(83.181938 236.743018) rotate(-45) scale(0.1 -0.1)">
       <defs>
        <path id="DejaVuSans-44" d="M 1259 4147 
L 1259 519 
L 2022 519 
Q 2988 519 3436 956 
Q 3884 1394 3884 2338 
Q 3884 3275 3436 3711 
Q 2988 4147 2022 4147 
L 1259 4147 
z
M 628 4666 
L 1925 4666 
Q 3281 4666 3915 4102 
Q 4550 3538 4550 2338 
Q 4550 1131 3912 565 
Q 3275 0 1925 0 
L 628 0 
L 628 4666 
z
" transform="scale(0.015625)"/>
        <path id="DejaVuSans-6f" d="M 1959 3097 
Q 1497 3097 1228 2736 
Q 959 2375 959 1747 
Q 959 1119 1226 758 
Q 1494 397 1959 397 
Q 2419 397 2687 759 
Q 2956 1122 2956 1747 
Q 2956 2369 2687 2733 
Q 2419 3097 1959 3097 
z
M 1959 3584 
Q 2709 3584 3137 3096 
Q 3566 2609 3566 1747 
Q 3566 888 3137 398 
Q 2709 -91 1959 -91 
Q 1206 -91 779 398 
Q 353 888 353 1747 
Q 353 2609 779 3096 
Q 1206 3584 1959 3584 
z
" transform="scale(0.015625)"/>
        <path id="DejaVuSans-62" d="M 3116 1747 
Q 3116 2381 2855 2742 
Q 2594 3103 2138 3103 
Q 1681 3103 1420 2742 
Q 1159 2381 1159 1747 
Q 1159 1113 1420 752 
Q 1681 391 2138 391 
Q 2594 391 2855 752 
Q 3116 1113 3116 1747 
z
M 1159 2969 
Q 1341 3281 1617 3432 
Q 1894 3584 2278 3584 
Q 2916 3584 3314 3078 
Q 3713 2572 3713 1747 
Q 3713 922 3314 415 
Q 2916 -91 2278 -91 
Q 1894 -91 1617 61 
Q 1341 213 1159 525 
L 1159 0 
L 581 0 
L 581 4863 
L 1159 4863 
L 1159 2969 
z
" transform="scale(0.015625)"/>
        <path id="DejaVuSans-6c" d="M 603 4863 
L 1178 4863 
L 1178 0 
L 603 0 
L 603 4863 
z
" transform="scale(0.015625)"/>
       </defs>
       <use xlink:href="#DejaVuSans-44"/>
       <use xlink:href="#DejaVuSans-6f" x="77.001953"/>
       <use xlink:href="#DejaVuSans-75" x="138.183594"/>
       <use xlink:href="#DejaVuSans-62" x="201.5625"/>
       <use xlink:href="#DejaVuSans-6c" x="265.039062"/>
       <use xlink:href="#DejaVuSans-65" x="292.822266"/>
       <use xlink:href="#DejaVuSans-5f" x="354.345703"/>
       <use xlink:href="#DejaVuSans-62" x="404.345703"/>
       <use xlink:href="#DejaVuSans-6f" x="467.822266"/>
       <use xlink:href="#DejaVuSans-6e" x="529.003906"/>
       <use xlink:href="#DejaVuSans-64" x="592.382812"/>
       <use xlink:href="#DejaVuSans-73" x="655.859375"/>
      </g>
     </g>
    </g>
    <g id="ytick_4">
     <g id="line2d_18">
      <g>
       <use xlink:href="#m156a364630" x="141.911219" y="170.323275" style="stroke: #000000; stroke-width: 0.8"/>
      </g>
     </g>
     <g id="text_11">
      <!-- NP_ratio -->
      <g transform="translate(103.851553 201.289403) rotate(-45) scale(0.1 -0.1)">
       <defs>
        <path id="DejaVuSans-69" d="M 603 3500 
L 1178 3500 
L 1178 0 
L 603 0 
L 603 3500 
z
M 603 4863 
L 1178 4863 
L 1178 4134 
L 603 4134 
L 603 4863 
z
" transform="scale(0.015625)"/>
       </defs>
       <use xlink:href="#DejaVuSans-4e"/>
       <use xlink:href="#DejaVuSans-50" x="74.804688"/>
       <use xlink:href="#DejaVuSans-5f" x="135.107422"/>
       <use xlink:href="#DejaVuSans-72" x="185.107422"/>
       <use xlink:href="#DejaVuSans-61" x="226.220703"/>
       <use xlink:href="#DejaVuSans-74" x="287.5"/>
       <use xlink:href="#DejaVuSans-69" x="326.708984"/>
       <use xlink:href="#DejaVuSans-6f" x="354.492188"/>
      </g>
     </g>
    </g>
    <g id="ytick_5">
     <g id="line2d_19">
      <g>
       <use xlink:href="#m156a364630" x="141.911219" y="155.539275" style="stroke: #000000; stroke-width: 0.8"/>
      </g>
     </g>
     <g id="text_12">
      <!-- Dlin-MC3_Helper lipid_ratio -->
      <g transform="translate(37.42771 252.929246) rotate(-45) scale(0.1 -0.1)">
       <defs>
        <path id="DejaVuSans-2d" d="M 313 2009 
L 1997 2009 
L 1997 1497 
L 313 1497 
L 313 2009 
z
" transform="scale(0.015625)"/>
        <path id="DejaVuSans-4d" d="M 628 4666 
L 1569 4666 
L 2759 1491 
L 3956 4666 
L 4897 4666 
L 4897 0 
L 4281 0 
L 4281 4097 
L 3078 897 
L 2444 897 
L 1241 4097 
L 1241 0 
L 628 0 
L 628 4666 
z
" transform="scale(0.015625)"/>
        <path id="DejaVuSans-20" transform="scale(0.015625)"/>
       </defs>
       <use xlink:href="#DejaVuSans-44"/>
       <use xlink:href="#DejaVuSans-6c" x="77.001953"/>
       <use xlink:href="#DejaVuSans-69" x="104.785156"/>
       <use xlink:href="#DejaVuSans-6e" x="132.568359"/>
       <use xlink:href="#DejaVuSans-2d" x="195.947266"/>
       <use xlink:href="#DejaVuSans-4d" x="232.03125"/>
       <use xlink:href="#DejaVuSans-43" x="318.310547"/>
       <use xlink:href="#DejaVuSans-33" x="388.134766"/>
       <use xlink:href="#DejaVuSans-5f" x="451.757812"/>
       <use xlink:href="#DejaVuSans-48" x="501.757812"/>
       <use xlink:href="#DejaVuSans-65" x="576.953125"/>
       <use xlink:href="#DejaVuSans-6c" x="638.476562"/>
       <use xlink:href="#DejaVuSans-70" x="666.259766"/>
       <use xlink:href="#DejaVuSans-65" x="729.736328"/>
       <use xlink:href="#DejaVuSans-72" x="791.259766"/>
       <use xlink:href="#DejaVuSans-20" x="832.373047"/>
       <use xlink:href="#DejaVuSans-6c" x="864.160156"/>
       <use xlink:href="#DejaVuSans-69" x="891.943359"/>
       <use xlink:href="#DejaVuSans-70" x="919.726562"/>
       <use xlink:href="#DejaVuSans-69" x="983.203125"/>
       <use xlink:href="#DejaVuSans-64" x="1010.986328"/>
       <use xlink:href="#DejaVuSans-5f" x="1074.462891"/>
       <use xlink:href="#DejaVuSans-72" x="1124.462891"/>
       <use xlink:href="#DejaVuSans-61" x="1165.576172"/>
       <use xlink:href="#DejaVuSans-74" x="1226.855469"/>
       <use xlink:href="#DejaVuSans-69" x="1266.064453"/>
       <use xlink:href="#DejaVuSans-6f" x="1293.847656"/>
      </g>
     </g>
    </g>
    <g id="ytick_6">
     <g id="line2d_20">
      <g>
       <use xlink:href="#m156a364630" x="141.911219" y="140.755275" style="stroke: #000000; stroke-width: 0.8"/>
      </g>
     </g>
     <g id="text_13">
      <!-- Dlin-MC3+Helper lipid percentage -->
      <g transform="translate(12.572907 263.196714) rotate(-45) scale(0.1 -0.1)">
       <defs>
        <path id="DejaVuSans-2b" d="M 2944 4013 
L 2944 2272 
L 4684 2272 
L 4684 1741 
L 2944 1741 
L 2944 0 
L 2419 0 
L 2419 1741 
L 678 1741 
L 678 2272 
L 2419 2272 
L 2419 4013 
L 2944 4013 
z
" transform="scale(0.015625)"/>
       </defs>
       <use xlink:href="#DejaVuSans-44"/>
       <use xlink:href="#DejaVuSans-6c" x="77.001953"/>
       <use xlink:href="#DejaVuSans-69" x="104.785156"/>
       <use xlink:href="#DejaVuSans-6e" x="132.568359"/>
       <use xlink:href="#DejaVuSans-2d" x="195.947266"/>
       <use xlink:href="#DejaVuSans-4d" x="232.03125"/>
       <use xlink:href="#DejaVuSans-43" x="318.310547"/>
       <use xlink:href="#DejaVuSans-33" x="388.134766"/>
       <use xlink:href="#DejaVuSans-2b" x="451.757812"/>
       <use xlink:href="#DejaVuSans-48" x="535.546875"/>
       <use xlink:href="#DejaVuSans-65" x="610.742188"/>
       <use xlink:href="#DejaVuSans-6c" x="672.265625"/>
       <use xlink:href="#DejaVuSans-70" x="700.048828"/>
       <use xlink:href="#DejaVuSans-65" x="763.525391"/>
       <use xlink:href="#DejaVuSans-72" x="825.048828"/>
       <use xlink:href="#DejaVuSans-20" x="866.162109"/>
       <use xlink:href="#DejaVuSans-6c" x="897.949219"/>
       <use xlink:href="#DejaVuSans-69" x="925.732422"/>
       <use xlink:href="#DejaVuSans-70" x="953.515625"/>
       <use xlink:href="#DejaVuSans-69" x="1016.992188"/>
       <use xlink:href="#DejaVuSans-64" x="1044.775391"/>
       <use xlink:href="#DejaVuSans-20" x="1108.251953"/>
       <use xlink:href="#DejaVuSans-70" x="1140.039062"/>
       <use xlink:href="#DejaVuSans-65" x="1203.515625"/>
       <use xlink:href="#DejaVuSans-72" x="1265.039062"/>
       <use xlink:href="#DejaVuSans-63" x="1303.902344"/>
       <use xlink:href="#DejaVuSans-65" x="1358.882812"/>
       <use xlink:href="#DejaVuSans-6e" x="1420.40625"/>
       <use xlink:href="#DejaVuSans-74" x="1483.785156"/>
       <use xlink:href="#DejaVuSans-61" x="1522.994141"/>
       <use xlink:href="#DejaVuSans-67" x="1584.273438"/>
       <use xlink:href="#DejaVuSans-65" x="1647.75"/>
      </g>
     </g>
    </g>
    <g id="ytick_7">
     <g id="line2d_21">
      <g>
       <use xlink:href="#m156a364630" x="141.911219" y="125.971275" style="stroke: #000000; stroke-width: 0.8"/>
      </g>
     </g>
     <g id="text_14">
      <!-- Chol_DMG-PEG_ratio -->
      <g transform="translate(60.373325 200.415631) rotate(-45) scale(0.1 -0.1)">
       <use xlink:href="#DejaVuSans-43"/>
       <use xlink:href="#DejaVuSans-68" x="69.824219"/>
       <use xlink:href="#DejaVuSans-6f" x="133.203125"/>
       <use xlink:href="#DejaVuSans-6c" x="194.384766"/>
       <use xlink:href="#DejaVuSans-5f" x="222.167969"/>
       <use xlink:href="#DejaVuSans-44" x="272.167969"/>
       <use xlink:href="#DejaVuSans-4d" x="349.169922"/>
       <use xlink:href="#DejaVuSans-47" x="435.449219"/>
       <use xlink:href="#DejaVuSans-2d" x="512.939453"/>
       <use xlink:href="#DejaVuSans-50" x="549.023438"/>
       <use xlink:href="#DejaVuSans-45" x="609.326172"/>
       <use xlink:href="#DejaVuSans-47" x="672.509766"/>
       <use xlink:href="#DejaVuSans-5f" x="750"/>
       <use xlink:href="#DejaVuSans-72" x="800"/>
       <use xlink:href="#DejaVuSans-61" x="841.113281"/>
       <use xlink:href="#DejaVuSans-74" x="902.392578"/>
       <use xlink:href="#DejaVuSans-69" x="941.601562"/>
       <use xlink:href="#DejaVuSans-6f" x="969.384766"/>
      </g>
     </g>
    </g>
    <g id="ytick_8">
     <g id="line2d_22">
      <g>
       <use xlink:href="#m156a364630" x="141.911219" y="111.187275" style="stroke: #000000; stroke-width: 0.8"/>
      </g>
     </g>
     <g id="text_15">
      <!-- Zeta -->
      <g transform="translate(117.140741 129.060879) rotate(-45) scale(0.1 -0.1)">
       <defs>
        <path id="DejaVuSans-5a" d="M 359 4666 
L 4025 4666 
L 4025 4184 
L 1075 531 
L 4097 531 
L 4097 0 
L 288 0 
L 288 481 
L 3238 4134 
L 359 4134 
L 359 4666 
z
" transform="scale(0.015625)"/>
       </defs>
       <use xlink:href="#DejaVuSans-5a"/>
       <use xlink:href="#DejaVuSans-65" x="68.505859"/>
       <use xlink:href="#DejaVuSans-74" x="130.029297"/>
       <use xlink:href="#DejaVuSans-61" x="169.238281"/>
      </g>
     </g>
    </g>
    <g id="ytick_9">
     <g id="line2d_23">
      <g>
       <use xlink:href="#m156a364630" x="141.911219" y="96.403275" style="stroke: #000000; stroke-width: 0.8"/>
      </g>
     </g>
     <g id="text_16">
      <!-- cLogP -->
      <g transform="translate(112.657242 118.760378) rotate(-45) scale(0.1 -0.1)">
       <defs>
        <path id="DejaVuSans-4c" d="M 628 4666 
L 1259 4666 
L 1259 531 
L 3531 531 
L 3531 0 
L 628 0 
L 628 4666 
z
" transform="scale(0.015625)"/>
       </defs>
       <use xlink:href="#DejaVuSans-63"/>
       <use xlink:href="#DejaVuSans-4c" x="54.980469"/>
       <use xlink:href="#DejaVuSans-6f" x="108.943359"/>
       <use xlink:href="#DejaVuSans-67" x="170.125"/>
       <use xlink:href="#DejaVuSans-50" x="233.601562"/>
      </g>
     </g>
    </g>
    <g id="ytick_10">
     <g id="line2d_24">
      <g>
       <use xlink:href="#m156a364630" x="141.911219" y="81.619275" style="stroke: #000000; stroke-width: 0.8"/>
      </g>
     </g>
     <g id="text_17">
      <!-- Hbond_D -->
      <g transform="translate(101.160128 115.276828) rotate(-45) scale(0.1 -0.1)">
       <use xlink:href="#DejaVuSans-48"/>
       <use xlink:href="#DejaVuSans-62" x="75.195312"/>
       <use xlink:href="#DejaVuSans-6f" x="138.671875"/>
       <use xlink:href="#DejaVuSans-6e" x="199.853516"/>
       <use xlink:href="#DejaVuSans-64" x="263.232422"/>
       <use xlink:href="#DejaVuSans-5f" x="326.708984"/>
       <use xlink:href="#DejaVuSans-44" x="376.708984"/>
      </g>
     </g>
    </g>
    <g id="ytick_11">
     <g id="line2d_25">
      <g>
       <use xlink:href="#m156a364630" x="141.911219" y="66.835275" style="stroke: #000000; stroke-width: 0.8"/>
      </g>
     </g>
     <g id="text_18">
      <!-- Hbond_A -->
      <g transform="translate(101.767798 99.885158) rotate(-45) scale(0.1 -0.1)">
       <use xlink:href="#DejaVuSans-48"/>
       <use xlink:href="#DejaVuSans-62" x="75.195312"/>
       <use xlink:href="#DejaVuSans-6f" x="138.671875"/>
       <use xlink:href="#DejaVuSans-6e" x="199.853516"/>
       <use xlink:href="#DejaVuSans-64" x="263.232422"/>
       <use xlink:href="#DejaVuSans-5f" x="326.708984"/>
       <use xlink:href="#DejaVuSans-41" x="376.708984"/>
      </g>
     </g>
    </g>
    <g id="ytick_12">
     <g id="line2d_26">
      <g>
       <use xlink:href="#m156a364630" x="141.911219" y="52.051275" style="stroke: #000000; stroke-width: 0.8"/>
      </g>
     </g>
     <g id="text_19">
      <!-- Size -->
      <g transform="translate(118.925081 68.140539) rotate(-45) scale(0.1 -0.1)">
       <defs>
        <path id="DejaVuSans-53" d="M 3425 4513 
L 3425 3897 
Q 3066 4069 2747 4153 
Q 2428 4238 2131 4238 
Q 1616 4238 1336 4038 
Q 1056 3838 1056 3469 
Q 1056 3159 1242 3001 
Q 1428 2844 1947 2747 
L 2328 2669 
Q 3034 2534 3370 2195 
Q 3706 1856 3706 1288 
Q 3706 609 3251 259 
Q 2797 -91 1919 -91 
Q 1588 -91 1214 -16 
Q 841 59 441 206 
L 441 856 
Q 825 641 1194 531 
Q 1563 422 1919 422 
Q 2459 422 2753 634 
Q 3047 847 3047 1241 
Q 3047 1584 2836 1778 
Q 2625 1972 2144 2069 
L 1759 2144 
Q 1053 2284 737 2584 
Q 422 2884 422 3419 
Q 422 4038 858 4394 
Q 1294 4750 2059 4750 
Q 2388 4750 2728 4690 
Q 3069 4631 3425 4513 
z
" transform="scale(0.015625)"/>
        <path id="DejaVuSans-7a" d="M 353 3500 
L 3084 3500 
L 3084 2975 
L 922 459 
L 3084 459 
L 3084 0 
L 275 0 
L 275 525 
L 2438 3041 
L 353 3041 
L 353 3500 
z
" transform="scale(0.015625)"/>
       </defs>
       <use xlink:href="#DejaVuSans-53"/>
       <use xlink:href="#DejaVuSans-69" x="63.476562"/>
       <use xlink:href="#DejaVuSans-7a" x="91.259766"/>
       <use xlink:href="#DejaVuSans-65" x="143.75"/>
      </g>
     </g>
    </g>
    <g id="ytick_13">
     <g id="line2d_27">
      <g>
       <use xlink:href="#m156a364630" x="141.911219" y="37.267275" style="stroke: #000000; stroke-width: 0.8"/>
      </g>
     </g>
     <g id="text_20">
      <!-- PDI -->
      <g transform="translate(121.646337 50.635283) rotate(-45) scale(0.1 -0.1)">
       <defs>
        <path id="DejaVuSans-49" d="M 628 4666 
L 1259 4666 
L 1259 0 
L 628 0 
L 628 4666 
z
" transform="scale(0.015625)"/>
       </defs>
       <use xlink:href="#DejaVuSans-50"/>
       <use xlink:href="#DejaVuSans-44" x="60.302734"/>
       <use xlink:href="#DejaVuSans-49" x="137.304688"/>
      </g>
     </g>
    </g>
   </g>
   <g id="line2d_28">
    <path d="M 148.674855 214.675275 
L 155.934359 214.63085 
L 156.740971 214.371837 
L 157.547582 213.887667 
L 158.354194 213.185393 
L 159.564111 211.738464 
L 160.774029 209.84047 
L 161.983946 207.515213 
L 163.597169 203.791379 
L 165.210392 199.406699 
L 166.823615 194.417594 
L 168.840144 187.417191 
L 171.259979 178.041597 
L 174.083119 165.999597 
L 177.309566 151.151992 
L 182.149235 127.662023 
L 188.602128 96.43702 
L 191.828574 81.880761 
L 194.651715 70.199907 
L 197.071549 61.212773 
L 199.088078 54.591726 
L 200.701301 49.942523 
L 202.314524 45.930118 
L 203.927748 42.61093 
L 205.137665 40.610402 
L 206.347582 39.055345 
L 207.154194 38.277879 
L 207.960805 37.716032 
L 208.767417 37.376855 
L 209.574029 37.267275 
L 223.689731 37.335482 
L 224.496343 37.628158 
L 225.302954 38.144951 
L 226.109566 38.878807 
L 227.319483 40.371159 
L 228.5294 42.312234 
L 229.739318 44.678231 
L 231.352541 48.452744 
L 232.965764 52.88394 
L 234.578987 57.915399 
L 236.595516 64.962892 
L 239.015351 74.38641 
L 241.838491 86.472485 
L 245.064938 101.354853 
L 249.904607 124.865752 
L 256.3575 156.060392 
L 259.583946 170.576497 
L 262.407086 182.208559 
L 264.826921 191.143727 
L 266.84345 197.714316 
L 268.456673 202.318469 
L 270.069896 206.281663 
L 271.279814 208.799489 
L 272.489731 210.901237 
L 273.699648 212.563107 
L 274.909566 213.761295 
L 275.716177 214.290733 
L 276.522789 214.59646 
L 277.3294 214.675275 
L 291.445103 214.578254 
L 292.251715 214.252068 
L 293.058326 213.702806 
L 293.864938 212.937521 
L 295.074855 211.399977 
L 296.284772 209.416051 
L 297.49469 207.009544 
L 299.107913 203.18466 
L 300.721136 198.707255 
L 302.334359 193.633749 
L 304.350888 186.539549 
L 306.770723 177.068568 
L 309.593863 164.938956 
L 312.82031 150.022438 
L 318.063285 124.508108 
L 323.709566 97.209586 
L 326.936012 82.598577 
L 329.759153 70.850848 
L 332.178987 61.792303 
L 334.195516 55.10181 
L 335.808739 50.390549 
L 337.421962 46.310304 
L 339.035186 42.917495 
L 340.245103 40.857958 
L 341.45502 39.240641 
L 342.664938 38.089346 
L 343.471549 37.592472 
L 344.278161 37.320349 
L 345.488078 37.267275 
L 561.256673 37.267275 
L 561.256673 37.267275 
" clip-path="url(#p8670a4706e)" style="fill: none; stroke: #f77189; stroke-opacity: 0.75; stroke-width: 5; stroke-linecap: square"/>
   </g>
   <g id="line2d_29">
    <path d="M 148.674855 199.891275 
L 157.950888 199.983935 
L 160.774029 200.294175 
L 164.000475 200.884635 
L 167.630227 201.804713 
L 171.663285 203.081888 
L 176.502954 204.868423 
L 184.972376 208.296559 
L 191.425268 210.811037 
L 195.861632 212.316311 
L 199.491384 213.333147 
L 202.71783 214.028121 
L 205.944277 214.48732 
L 208.767417 214.666143 
L 215.623615 214.675275 
L 494.307913 214.590056 
L 495.114524 214.276883 
L 495.921136 213.74023 
L 496.727748 212.987149 
L 497.937665 211.467153 
L 499.147582 209.499863 
L 500.3575 207.109083 
L 501.970723 203.303751 
L 503.583946 198.84428 
L 505.197169 193.787089 
L 507.213698 186.711007 
L 509.633533 177.25843 
L 512.456673 165.145684 
L 515.683119 150.242374 
L 520.926095 124.735698 
L 526.975681 95.543658 
L 530.202128 81.052393 
L 533.025268 69.450412 
L 535.445103 60.547228 
L 537.461632 54.007664 
L 539.074855 49.431193 
L 540.688078 45.498224 
L 541.897996 43.004736 
L 543.107913 40.928755 
L 544.31783 39.294085 
L 545.527748 38.124526 
L 546.334359 37.61497 
L 547.140971 37.329761 
L 548.350888 37.267275 
L 561.256673 37.267275 
L 561.256673 37.267275 
" clip-path="url(#p8670a4706e)" style="fill: none; stroke: #eb8032; stroke-opacity: 0.75; stroke-width: 5; stroke-linecap: square"/>
   </g>
   <g id="line2d_30">
    <path d="M 148.674855 185.107275 
L 156.740971 185.006129 
L 158.354194 184.610648 
L 159.967417 183.933764 
L 161.58064 182.994284 
L 163.193863 181.811015 
L 165.210392 180.01775 
L 167.226921 177.909679 
L 169.646756 175.01617 
L 172.469896 171.218993 
L 175.696343 166.447065 
L 179.7294 160.054097 
L 190.215351 143.223468 
L 193.441797 138.570236 
L 196.264938 134.912325 
L 198.684772 132.164488 
L 200.701301 130.196358 
L 202.71783 128.559893 
L 204.331053 127.514203 
L 205.944277 126.723094 
L 207.5575 126.205371 
L 209.170723 125.979841 
L 214.413698 125.971275 
L 224.093037 126.06432 
L 225.302954 126.410113 
L 226.512872 127.000103 
L 227.722789 127.822388 
L 228.932706 128.865068 
L 230.545929 130.577575 
L 232.159153 132.632529 
L 234.175681 135.63981 
L 236.19221 139.082988 
L 238.612045 143.712611 
L 241.435186 149.679879 
L 244.661632 157.060915 
L 249.501301 168.779036 
L 256.3575 185.367833 
L 259.583946 192.625886 
L 262.407086 198.441917 
L 264.826921 202.909501 
L 266.84345 206.194796 
L 268.859979 209.023418 
L 270.473202 210.920487 
L 272.086425 212.461815 
L 273.296343 213.367385 
L 274.50626 214.045082 
L 275.716177 214.483004 
L 276.926095 214.669251 
L 284.588905 214.675275 
L 291.445103 214.578254 
L 292.251715 214.252068 
L 293.058326 213.702806 
L 293.864938 212.937521 
L 295.074855 211.399977 
L 296.284772 209.416051 
L 297.49469 207.009544 
L 299.107913 203.18466 
L 300.721136 198.707255 
L 302.334359 193.633749 
L 304.350888 186.539549 
L 306.770723 177.068568 
L 309.593863 164.938956 
L 312.82031 150.022438 
L 318.063285 124.508108 
L 323.709566 97.209586 
L 326.936012 82.598577 
L 329.759153 70.850848 
L 332.178987 61.792303 
L 334.195516 55.10181 
L 335.808739 50.390549 
L 337.421962 46.310304 
L 339.035186 42.917495 
L 340.245103 40.857958 
L 341.45502 39.240641 
L 342.664938 38.089346 
L 343.471549 37.592472 
L 344.278161 37.320349 
L 345.488078 37.267275 
L 494.307913 37.361016 
L 495.114524 37.705506 
L 495.921136 38.295824 
L 496.727748 39.124213 
L 497.937665 40.79621 
L 499.147582 42.960228 
L 500.3575 45.590086 
L 501.970723 49.775951 
L 503.583946 54.68137 
L 505.197169 60.24428 
L 507.213698 68.027969 
L 509.633533 78.425805 
L 512.456673 91.749825 
L 515.683119 108.143466 
L 520.926095 136.20081 
L 526.975681 168.312054 
L 530.202128 184.252445 
L 532.621962 195.272784 
L 535.041797 205.259003 
L 537.058326 212.639788 
L 538.671549 217.841173 
L 540.284772 222.35022 
L 541.897996 226.104868 
L 543.107913 228.388447 
L 544.31783 230.186584 
L 545.124442 231.102723 
L 545.931053 231.783717 
L 546.737665 232.221808 
L 547.544277 232.409238 
L 554.400475 232.416075 
L 561.256673 232.416075 
L 561.256673 232.416075 
" clip-path="url(#p8670a4706e)" style="fill: none; stroke: #c19632; stroke-opacity: 0.75; stroke-width: 5; stroke-linecap: square"/>
   </g>
   <g id="line2d_31">
    <path d="M 148.674855 170.323275 
L 156.337665 170.214266 
L 157.144277 169.934911 
L 158.354194 169.205864 
L 159.564111 168.120667 
L 160.774029 166.697171 
L 161.983946 164.953229 
L 163.597169 162.160353 
L 165.210392 158.871843 
L 167.226921 154.128685 
L 169.24345 148.759861 
L 171.663285 141.607758 
L 174.486425 132.465865 
L 177.712872 121.243669 
L 183.359153 100.601657 
L 188.602128 81.644584 
L 191.828574 70.72739 
L 194.651715 61.966749 
L 197.071549 55.226399 
L 199.088078 50.260613 
L 200.701301 46.773711 
L 202.314524 43.764408 
L 203.927748 41.275016 
L 205.137665 39.77462 
L 206.347582 38.608328 
L 207.5575 37.793991 
L 208.364111 37.455445 
L 209.170723 37.286548 
L 211.590558 37.267275 
L 358.797169 37.303815 
L 359.603781 37.549695 
L 360.410392 38.021137 
L 361.217004 38.711088 
L 362.426921 40.14029 
L 363.636838 42.021468 
L 364.846756 44.33082 
L 366.459979 48.034863 
L 368.073202 52.40137 
L 369.686425 57.373921 
L 371.702954 64.355908 
L 374.122789 73.712741 
L 376.542624 83.957136 
L 379.76907 98.667869 
L 384.205434 120.089694 
L 391.464938 155.289435 
L 394.691384 169.861143 
L 397.514524 181.560826 
L 399.934359 190.568045 
L 401.950888 197.208612 
L 403.564111 201.875251 
L 405.177334 205.90671 
L 406.790558 209.246572 
L 408.000475 211.263668 
L 409.210392 212.836202 
L 410.42031 213.940373 
L 411.226921 214.404531 
L 412.033533 214.642897 
L 413.646756 214.675275 
L 426.552541 214.616916 
L 427.359153 214.337313 
L 428.165764 213.833188 
L 428.972376 213.111596 
L 430.182293 211.636881 
L 431.39221 209.712532 
L 432.602128 207.362351 
L 434.215351 203.60751 
L 435.828574 199.194368 
L 437.441797 194.179343 
L 439.458326 187.150117 
L 441.878161 177.745182 
L 444.701301 165.676183 
L 447.927748 150.807261 
L 452.767417 127.304392 
L 459.22031 96.097799 
L 462.446756 81.566005 
L 465.269896 69.914904 
L 467.689731 60.959472 
L 469.70626 54.369215 
L 471.319483 49.747506 
L 472.932706 45.765138 
L 474.142624 43.23187 
L 475.352541 41.113768 
L 476.562458 39.434634 
L 477.772376 38.218272 
L 478.578987 37.676212 
L 479.385599 37.357459 
L 480.19221 37.267275 
L 494.711219 37.37399 
L 495.921136 37.734797 
L 497.131053 38.339086 
L 498.340971 39.174956 
L 499.954194 40.629115 
L 501.567417 42.445606 
L 503.18064 44.596219 
L 505.197169 47.711368 
L 507.213698 51.249409 
L 509.633533 55.975698 
L 512.456673 62.03207 
L 516.086425 70.44436 
L 522.136012 85.208814 
L 527.378987 97.767517 
L 530.605434 104.942192 
L 533.428574 110.657954 
L 535.848409 115.019303 
L 537.864938 118.201761 
L 539.478161 120.412203 
L 541.091384 122.293842 
L 542.704607 123.818468 
L 543.914524 124.710677 
L 545.124442 125.374297 
L 546.334359 125.797427 
L 547.544277 125.968167 
L 561.256673 125.971275 
L 561.256673 125.971275 
" clip-path="url(#p8670a4706e)" style="fill: none; stroke: #a0a131; stroke-opacity: 0.75; stroke-width: 5; stroke-linecap: square"/>
   </g>
   <g id="line2d_32">
    <path d="M 148.674855 155.539275 
L 156.740971 155.640421 
L 158.354194 156.035902 
L 159.967417 156.712786 
L 161.58064 157.652266 
L 163.193863 158.835535 
L 165.210392 160.6288 
L 167.226921 162.736871 
L 169.646756 165.63038 
L 172.469896 169.427557 
L 175.696343 174.199485 
L 179.7294 180.592453 
L 190.215351 197.423082 
L 193.441797 202.076314 
L 196.264938 205.734225 
L 198.684772 208.482062 
L 200.701301 210.450192 
L 202.71783 212.086657 
L 204.331053 213.132347 
L 205.944277 213.923456 
L 207.5575 214.441179 
L 209.170723 214.666709 
L 214.413698 214.675275 
L 294.268243 214.575814 
L 298.301301 214.24594 
L 302.737665 213.662371 
L 307.98064 212.74509 
L 315.240144 211.223665 
L 328.549235 208.392038 
L 333.79221 207.515813 
L 338.228574 206.980011 
L 342.261632 206.703925 
L 346.29469 206.651798 
L 362.023615 206.757863 
L 366.056673 207.093986 
L 370.493037 207.683069 
L 375.736012 208.605033 
L 382.995516 210.129658 
L 396.304607 212.957253 
L 401.547582 213.828372 
L 405.983946 214.358301 
L 410.017004 214.627812 
L 414.453367 214.675275 
L 429.375681 214.58465 
L 433.408739 214.263512 
L 437.845103 213.687667 
L 443.088078 212.776963 
L 450.347582 211.260088 
L 464.059979 208.347695 
L 469.302954 207.481727 
L 473.739318 206.95771 
L 477.772376 206.694808 
L 482.208739 206.651798 
L 497.131053 206.748745 
L 501.164111 207.07618 
L 505.600475 207.657594 
L 510.84345 208.573042 
L 518.102954 210.093204 
L 531.412045 212.926369 
L 536.65502 213.804568 
L 541.091384 214.342643 
L 545.124442 214.621277 
L 549.1575 214.675275 
L 561.256673 214.675275 
L 561.256673 214.675275 
" clip-path="url(#p8670a4706e)" style="fill: none; stroke: #71ac31; stroke-opacity: 0.75; stroke-width: 5; stroke-linecap: square"/>
   </g>
   <g id="line2d_33">
    <path d="M 148.674855 140.755275 
L 156.337665 140.67049 
L 157.547582 140.295837 
L 158.7575 139.634923 
L 159.967417 138.701631 
L 161.177334 137.509846 
L 162.790558 135.542697 
L 164.403781 133.1736 
L 166.017004 130.435466 
L 168.033533 126.543978 
L 170.050062 122.191572 
L 172.469896 116.450781 
L 175.293037 109.179498 
L 178.922789 99.194398 
L 191.021962 65.353461 
L 193.845103 58.354985 
L 196.264938 52.914112 
L 198.281467 48.858236 
L 200.297996 45.305639 
L 201.911219 42.869118 
L 203.524442 40.828745 
L 204.734359 39.578236 
L 205.944277 38.582958 
L 207.154194 37.856794 
L 208.364111 37.41363 
L 209.574029 37.267275 
L 291.445103 37.331955 
L 292.65502 37.714205 
L 293.864938 38.425778 
L 295.074855 39.450807 
L 296.284772 40.773424 
L 297.49469 42.377762 
L 299.107913 44.927685 
L 300.721136 47.912622 
L 302.737665 52.19823 
L 304.754194 57.031314 
L 307.174029 63.450249 
L 309.997169 71.632357 
L 313.626921 82.939072 
L 326.936012 125.318407 
L 329.759153 133.150226 
L 332.178987 139.189256 
L 334.195516 143.649585 
L 336.212045 147.511374 
L 337.825268 150.120491 
L 339.438491 152.261914 
L 340.648409 153.538431 
L 341.858326 154.514845 
L 343.068243 155.175288 
L 344.278161 155.503892 
L 345.891384 155.539275 
L 359.603781 155.445135 
L 361.217004 155.058004 
L 362.830227 154.388931 
L 364.44345 153.456723 
L 366.056673 152.280186 
L 368.073202 150.494577 
L 370.089731 148.39332 
L 372.509566 145.506873 
L 374.9294 142.282259 
L 378.155847 137.566436 
L 382.188905 131.21412 
L 393.481467 113.120102 
L 396.707913 108.515962 
L 399.127748 105.400602 
L 401.547582 102.645261 
L 403.564111 100.66995 
L 405.58064 99.025461 
L 407.193863 97.972745 
L 408.807086 97.17407 
L 410.42031 96.648242 
L 412.033533 96.414068 
L 416.469896 96.403275 
L 494.307913 96.460087 
L 495.51783 96.829424 
L 496.727748 97.528692 
L 497.937665 98.542023 
L 499.147582 99.85355 
L 500.3575 101.447403 
L 501.970723 103.984291 
L 503.583946 106.957272 
L 505.600475 111.229452 
L 507.617004 116.050796 
L 510.036838 122.457866 
L 512.859979 130.629201 
L 516.489731 141.926921 
L 524.152541 166.878796 
L 528.185599 179.532193 
L 531.008739 187.773329 
L 533.428574 194.257514 
L 535.848409 200.072645 
L 537.864938 204.315923 
L 539.478161 207.26318 
L 541.091384 209.772031 
L 542.704607 211.804865 
L 543.914524 212.994477 
L 545.124442 213.879304 
L 546.334359 214.443478 
L 547.544277 214.671131 
L 558.433533 214.675275 
L 561.256673 214.675275 
L 561.256673 214.675275 
" clip-path="url(#p8670a4706e)" style="fill: none; stroke: #33b16f; stroke-opacity: 0.75; stroke-width: 5; stroke-linecap: square"/>
   </g>
   <g id="line2d_34">
    <path d="M 148.674855 125.971275 
L 156.740971 126.06726 
L 158.354194 126.442564 
L 159.967417 127.084913 
L 161.58064 127.97646 
L 163.193863 129.099358 
L 165.210392 130.801131 
L 167.226921 132.801646 
L 169.646756 135.547528 
L 172.469896 139.150971 
L 175.696343 143.679434 
L 179.7294 149.746229 
L 190.215351 165.718153 
L 193.441797 170.133975 
L 196.264938 173.605258 
L 198.684772 176.212899 
L 200.701301 178.080615 
L 202.71783 179.633587 
L 204.331053 180.625925 
L 205.944277 181.376672 
L 207.5575 181.86798 
L 209.170723 182.082003 
L 214.817004 182.090132 
L 359.200475 181.98332 
L 360.007086 181.689816 
L 360.813698 181.215059 
L 362.023615 180.175667 
L 363.233533 178.760839 
L 364.44345 176.990005 
L 365.653367 174.882596 
L 367.266591 171.582736 
L 368.879814 167.765119 
L 370.896343 162.335164 
L 372.912872 156.25813 
L 375.332706 148.238198 
L 378.155847 138.075017 
L 381.785599 124.111667 
L 393.884772 76.738999 
L 396.707913 66.930999 
L 399.127748 59.301545 
L 401.144277 53.610575 
L 403.160805 48.621838 
L 404.774029 45.196904 
L 406.387252 42.325026 
L 407.597169 40.561766 
L 408.807086 39.154937 
L 410.017004 38.123968 
L 410.823615 37.655062 
L 411.630227 37.367598 
L 412.436838 37.267333 
L 426.552541 37.314915 
L 427.359153 37.543163 
L 428.165764 37.954693 
L 429.375681 38.903048 
L 430.585599 40.231405 
L 431.795516 41.920334 
L 433.005434 43.950404 
L 434.618657 47.154245 
L 436.23188 50.883961 
L 438.248409 56.215454 
L 440.264938 62.206708 
L 442.684772 70.140443 
L 445.507913 80.226142 
L 449.137665 94.126398 
L 461.640144 143.048564 
L 464.463285 152.819879 
L 466.883119 160.409606 
L 468.899648 166.061629 
L 470.916177 171.006112 
L 472.5294 174.39182 
L 474.142624 177.221075 
L 475.352541 178.950138 
L 476.562458 180.320859 
L 477.772376 181.313808 
L 478.578987 181.756306 
L 479.385599 182.016513 
L 480.595516 182.090132 
L 561.256673 182.090132 
L 561.256673 182.090132 
" clip-path="url(#p8670a4706e)" style="fill: none; stroke: #35ae97; stroke-opacity: 0.75; stroke-width: 5; stroke-linecap: square"/>
   </g>
   <g id="line2d_35">
    <path d="M 148.674855 111.187275 
L 156.740971 111.0777 
L 157.950888 110.785747 
L 159.564111 110.12676 
L 161.177334 109.1782 
L 162.790558 107.960441 
L 164.403781 106.493857 
L 166.42031 104.341755 
L 168.436838 101.872489 
L 170.856673 98.546742 
L 173.679814 94.253622 
L 176.90626 88.936179 
L 181.745929 80.481776 
L 189.005434 67.812855 
L 192.23188 62.606464 
L 195.05502 58.448872 
L 197.474855 55.267786 
L 199.491384 52.939163 
L 201.507913 50.945968 
L 203.121136 49.619662 
L 204.734359 48.55387 
L 206.347582 47.768967 
L 207.960805 47.285326 
L 209.170723 47.132555 
L 214.010392 47.123275 
L 224.093037 47.195643 
L 225.302954 47.464593 
L 226.512872 47.923474 
L 228.126095 48.814765 
L 229.739318 50.005313 
L 231.352541 51.47318 
L 233.36907 53.664564 
L 235.385599 56.212122 
L 237.805434 59.679002 
L 240.628574 64.195147 
L 243.85502 69.834162 
L 248.291384 78.109329 
L 256.760805 94.048371 
L 259.987252 99.638829 
L 262.810392 104.096552 
L 265.230227 107.501522 
L 267.246756 109.989141 
L 269.263285 112.113001 
L 270.876508 113.521384 
L 272.489731 114.647594 
L 274.102954 115.46969 
L 275.312872 115.873488 
L 276.522789 116.084625 
L 278.539318 116.115275 
L 291.848409 116.025135 
L 293.058326 115.737093 
L 294.268243 115.26003 
L 295.881467 114.345914 
L 297.49469 113.134157 
L 299.107913 111.646702 
L 301.124442 109.433108 
L 303.140971 106.865869 
L 305.560805 103.37871 
L 308.383946 98.84351 
L 311.610392 93.188787 
L 316.046756 84.902593 
L 324.516177 68.976488 
L 327.742624 63.402694 
L 330.565764 58.964862 
L 332.985599 55.580888 
L 335.002128 53.113546 
L 337.018657 51.012493 
L 338.63188 49.624177 
L 340.245103 48.519652 
L 341.858326 47.720859 
L 343.068243 47.335601 
L 344.278161 47.143915 
L 346.697996 47.123275 
L 358.797169 47.155755 
L 359.603781 47.374315 
L 360.410392 47.793375 
L 361.217004 48.406664 
L 362.426921 49.677067 
L 363.636838 51.349225 
L 364.846756 53.401981 
L 366.459979 56.694464 
L 368.073202 60.575804 
L 369.686425 64.995849 
L 371.702954 71.20206 
L 374.122789 79.519244 
L 376.945929 90.20788 
L 380.172376 103.393586 
L 385.012045 124.266103 
L 391.464938 152.031861 
L 394.691384 164.984491 
L 397.514524 175.38421 
L 399.934359 183.390626 
L 401.950888 189.293352 
L 403.564111 193.441476 
L 405.177334 197.024995 
L 406.790558 199.993762 
L 408.000475 201.786736 
L 409.210392 203.184544 
L 410.42031 204.166029 
L 411.226921 204.578614 
L 412.033533 204.790494 
L 413.646756 204.819275 
L 427.762458 204.906759 
L 429.778987 205.207493 
L 431.795516 205.705941 
L 434.215351 206.540927 
L 436.635186 207.606319 
L 439.458326 209.100966 
L 442.684772 211.08344 
L 446.314524 213.579538 
L 451.5575 217.4858 
L 460.430227 224.131884 
L 464.463285 226.838466 
L 467.689731 228.730622 
L 470.512872 230.127123 
L 472.932706 231.094185 
L 475.352541 231.817732 
L 477.36907 232.213299 
L 479.385599 232.402046 
L 483.418657 232.416075 
L 495.114524 232.309837 
L 496.727748 231.965908 
L 498.340971 231.398645 
L 499.954194 230.623094 
L 501.970723 229.383669 
L 503.987252 227.871686 
L 506.407086 225.738903 
L 508.826921 223.306729 
L 511.650062 220.158537 
L 515.279814 215.743397 
L 520.522789 208.961105 
L 527.378987 200.149279 
L 531.008739 195.868053 
L 533.83188 192.866748 
L 536.251715 190.590236 
L 538.671549 188.640585 
L 540.688078 187.302195 
L 542.704607 186.255439 
L 544.31783 185.647758 
L 545.931053 185.260574 
L 547.544277 185.108933 
L 561.256673 185.107275 
L 561.256673 185.107275 
" clip-path="url(#p8670a4706e)" style="fill: none; stroke: #36abb0; stroke-opacity: 0.75; stroke-width: 5; stroke-linecap: square"/>
   </g>
   <g id="line2d_36">
    <path d="M 148.674855 96.403275 
L 155.934359 96.437334 
L 156.740971 96.635911 
L 157.547582 97.007108 
L 158.7575 97.875738 
L 159.967417 99.10235 
L 161.177334 100.668696 
L 162.387252 102.556527 
L 164.000475 105.542184 
L 165.613698 109.023675 
L 167.630227 114.006909 
L 169.646756 119.612816 
L 172.066591 127.042883 
L 174.889731 136.496044 
L 178.519483 149.535057 
L 191.425268 196.865086 
L 194.248409 205.944111 
L 196.668243 212.966637 
L 198.684772 218.171685 
L 200.701301 222.698385 
L 202.314524 225.774562 
L 203.927748 228.319273 
L 205.137665 229.853011 
L 206.347582 231.045221 
L 207.5575 231.877655 
L 208.364111 232.223723 
L 209.170723 232.396374 
L 211.590558 232.416075 
L 359.200475 232.328024 
L 360.410392 231.908765 
L 361.62031 231.158656 
L 362.830227 230.093712 
L 364.040144 228.729952 
L 365.250062 227.083393 
L 366.863285 224.475756 
L 368.476508 221.431807 
L 370.493037 217.071149 
L 372.509566 212.162233 
L 374.9294 205.652242 
L 377.752541 197.365336 
L 381.382293 185.92907 
L 394.288078 144.371502 
L 397.111219 136.390123 
L 399.531053 130.212939 
L 401.547582 125.631373 
L 403.564111 121.64353 
L 405.177334 118.930569 
L 406.790558 116.683017 
L 408.000475 115.325617 
L 409.210392 114.267384 
L 410.42031 113.524335 
L 411.630227 113.112487 
L 412.840144 113.029784 
L 426.552541 113.069057 
L 427.359153 113.257215 
L 428.56907 113.821265 
L 429.778987 114.709251 
L 430.988905 115.905157 
L 432.198822 117.392965 
L 433.812045 119.803093 
L 435.425268 122.665716 
L 437.038491 125.942865 
L 439.05502 130.56439 
L 441.474855 136.782464 
L 443.89469 143.612875 
L 447.121136 153.451141 
L 451.5575 167.826336 
L 459.623615 194.086661 
L 462.850062 203.771696 
L 465.269896 210.445931 
L 467.689731 216.472467 
L 469.70626 220.907365 
L 471.319483 224.017533 
L 472.932706 226.697458 
L 474.545929 228.909173 
L 475.755847 230.237857 
L 476.965764 231.265798 
L 478.175681 231.976981 
L 479.385599 232.355386 
L 480.595516 232.416075 
L 494.307913 232.358727 
L 495.114524 232.147978 
L 496.324442 231.551356 
L 497.534359 230.632372 
L 498.744277 229.407044 
L 499.954194 227.891391 
L 501.567417 225.446584 
L 503.18064 222.552085 
L 504.793863 219.245859 
L 506.810392 214.591928 
L 509.230227 208.340743 
L 512.053367 200.29073 
L 515.279814 190.341679 
L 520.119483 174.56073 
L 526.975681 152.246738 
L 530.202128 142.494875 
L 533.025268 134.68735 
L 535.445103 128.695974 
L 537.461632 124.295189 
L 539.074855 121.215464 
L 540.688078 118.568782 
L 542.301301 116.393111 
L 543.511219 115.093298 
L 544.721136 114.095803 
L 545.931053 113.416642 
L 547.140971 113.071834 
L 548.754194 113.029784 
L 561.256673 113.029784 
L 561.256673 113.029784 
" clip-path="url(#p8670a4706e)" style="fill: none; stroke: #39a8cc; stroke-opacity: 0.75; stroke-width: 5; stroke-linecap: square"/>
   </g>
   <g id="line2d_37">
    <path d="M 148.674855 81.619275 
L 155.934359 81.657036 
L 156.740971 81.877197 
L 157.547582 82.288742 
L 158.354194 82.885674 
L 159.564111 84.115564 
L 160.774029 85.728859 
L 161.983946 87.705327 
L 163.597169 90.870587 
L 165.210392 94.597564 
L 166.823615 98.838303 
L 168.840144 104.788646 
L 171.259979 112.757901 
L 174.083119 122.993602 
L 177.309566 135.614066 
L 182.149235 155.580539 
L 188.602128 182.121791 
L 191.828574 194.494612 
L 194.651715 204.423337 
L 197.071549 212.062401 
L 199.088078 217.690292 
L 200.701301 221.642114 
L 202.314524 225.052658 
L 203.927748 227.873968 
L 205.137665 229.574417 
L 206.347582 230.896215 
L 207.5575 231.819131 
L 208.364111 232.202815 
L 209.170723 232.394232 
L 211.590558 232.416075 
L 359.200475 232.315761 
L 360.007086 232.040112 
L 360.813698 231.594235 
L 362.023615 230.618073 
L 363.233533 229.289314 
L 364.44345 227.626206 
L 366.056673 224.92017 
L 367.669896 221.695432 
L 369.283119 217.995246 
L 371.299648 212.767312 
L 373.316177 206.948558 
L 375.736012 199.305123 
L 378.559153 189.661006 
L 382.59221 174.966418 
L 392.674855 137.648267 
L 395.901301 126.809676 
L 398.321136 119.400774 
L 400.337665 113.815855 
L 402.354194 108.856656 
L 403.967417 105.396587 
L 405.58064 102.434303 
L 407.193863 100.013057 
L 408.403781 98.578199 
L 409.613698 97.490255 
L 410.823615 96.767472 
L 411.630227 96.497495 
L 412.436838 96.40333 
L 426.552541 96.448017 
L 427.359153 96.662379 
L 428.165764 97.048875 
L 429.375681 97.939539 
L 430.585599 99.187087 
L 431.795516 100.773273 
L 433.005434 102.679847 
L 434.618657 105.688788 
L 436.23188 109.191613 
L 438.248409 114.198773 
L 440.264938 119.825559 
L 442.684772 127.276658 
L 445.507913 136.748811 
L 449.137665 149.803468 
L 461.640144 195.749536 
L 464.463285 204.926429 
L 466.883119 212.054447 
L 468.899648 217.362639 
L 470.916177 222.006333 
L 472.5294 225.186077 
L 474.142624 227.843219 
L 475.352541 229.467097 
L 476.562458 230.754433 
L 477.772376 231.686978 
L 478.982293 232.246484 
L 479.788905 232.403232 
L 483.418657 232.416075 
L 494.307913 232.350741 
L 495.114524 232.110641 
L 495.921136 231.699207 
L 497.131053 230.772631 
L 498.340971 229.490964 
L 499.550888 227.872456 
L 500.760805 225.935354 
L 502.374029 222.888501 
L 503.987252 219.350955 
L 506.003781 214.304882 
L 508.02031 208.644167 
L 510.440144 201.158936 
L 513.263285 191.656036 
L 516.893037 178.576206 
L 529.395516 132.667081 
L 532.218657 123.525054 
L 534.638491 116.434699 
L 536.65502 111.163377 
L 538.671549 106.56154 
L 540.284772 103.418871 
L 541.897996 100.801995 
L 543.107913 99.21041 
L 544.31783 97.957163 
L 545.527748 97.060501 
L 546.334359 96.669841 
L 547.140971 96.451181 
L 548.350888 96.403275 
L 561.256673 96.403275 
L 561.256673 96.403275 
" clip-path="url(#p8670a4706e)" style="fill: none; stroke: #639df4; stroke-opacity: 0.75; stroke-width: 5; stroke-linecap: square"/>
   </g>
   <g id="line2d_38">
    <path d="M 148.674855 66.835275 
L 155.934359 66.876738 
L 156.740971 67.118484 
L 157.547582 67.570375 
L 158.354194 68.225831 
L 159.564111 69.576299 
L 160.774029 71.34776 
L 161.983946 73.517999 
L 163.597169 76.993578 
L 165.210392 81.085946 
L 166.823615 85.742443 
L 168.840144 92.276153 
L 171.259979 101.026708 
L 174.083119 112.265908 
L 177.309566 126.123672 
L 182.149235 148.047644 
L 188.602128 177.190979 
L 191.828574 190.776821 
L 194.651715 201.678951 
L 197.071549 210.066943 
L 199.088078 216.246588 
L 200.701301 220.585843 
L 202.314524 224.330754 
L 203.927748 227.428664 
L 205.137665 229.295824 
L 206.347582 230.74721 
L 207.5575 231.760607 
L 208.364111 232.181907 
L 209.170723 232.392091 
L 211.187252 232.416075 
L 358.797169 232.381971 
L 359.603781 232.152483 
L 360.410392 231.71247 
L 361.217004 231.068517 
L 362.426921 229.734594 
L 363.636838 227.978828 
L 364.846756 225.823433 
L 366.459979 222.366326 
L 368.073202 218.29092 
L 369.686425 213.649872 
L 371.702954 207.133351 
L 374.122789 198.400307 
L 376.945929 187.17724 
L 380.172376 173.332248 
L 385.012045 151.416106 
L 391.464938 122.262059 
L 394.691384 108.661798 
L 397.514524 97.742094 
L 399.934359 89.335356 
L 401.950888 83.137494 
L 403.564111 78.781964 
L 405.177334 75.019269 
L 406.790558 71.902064 
L 408.000475 70.019441 
L 409.210392 68.551743 
L 410.42031 67.521183 
L 411.226921 67.087969 
L 412.033533 66.865495 
L 413.646756 66.835275 
L 426.552541 66.889743 
L 427.359153 67.150707 
L 428.165764 67.621222 
L 428.972376 68.294709 
L 430.182293 69.671109 
L 431.39221 71.467168 
L 432.602128 73.66067 
L 434.215351 77.165189 
L 435.828574 81.284122 
L 437.441797 85.964811 
L 439.458326 92.525422 
L 441.878161 101.303362 
L 444.701301 112.567761 
L 447.927748 126.445421 
L 452.767417 148.381433 
L 459.22031 177.507586 
L 462.446756 191.070594 
L 465.269896 201.944955 
L 467.689731 210.303358 
L 469.70626 216.454264 
L 471.319483 220.767859 
L 472.932706 224.484736 
L 474.545929 227.552236 
L 475.755847 229.395032 
L 476.965764 230.820718 
L 478.175681 231.80708 
L 478.982293 232.209616 
L 479.788905 232.40044 
L 483.015351 232.416075 
L 561.256673 232.416075 
L 561.256673 232.416075 
" clip-path="url(#p8670a4706e)" style="fill: none; stroke: #b486f4; stroke-opacity: 0.75; stroke-width: 5; stroke-linecap: square"/>
   </g>
   <g id="line2d_39">
    <path d="M 148.674855 52.051275 
L 155.934359 52.09644 
L 156.740971 52.35977 
L 157.547582 52.852009 
L 158.354194 53.565988 
L 159.564111 55.037033 
L 160.774029 56.96666 
L 161.983946 59.330671 
L 163.597169 63.11657 
L 165.210392 67.574327 
L 166.823615 72.646584 
L 168.840144 79.76366 
L 171.259979 89.295514 
L 174.083119 101.538215 
L 177.309566 116.633279 
L 182.149235 140.514748 
L 188.602128 172.260167 
L 191.828574 187.059031 
L 194.651715 198.934565 
L 197.071549 208.071485 
L 199.088078 214.802884 
L 200.701301 219.529572 
L 202.314524 223.608851 
L 203.927748 226.983359 
L 205.137665 229.01723 
L 206.347582 230.598204 
L 207.154194 231.388627 
L 207.960805 231.959839 
L 208.767417 232.304668 
L 209.574029 232.416075 
L 359.603781 232.309383 
L 360.813698 232.011111 
L 362.023615 231.530103 
L 363.636838 230.620046 
L 365.250062 229.422426 
L 366.863285 227.958557 
L 368.879814 225.786777 
L 370.896343 223.273915 
L 373.316177 219.866864 
L 376.139318 215.442933 
L 379.365764 209.934745 
L 383.802128 201.874906 
L 391.868243 187.120798 
L 395.09469 181.667971 
L 397.91783 177.311109 
L 400.337665 173.975387 
L 402.354194 171.531724 
L 404.370723 169.438015 
L 405.983946 168.04299 
L 407.597169 166.919892 
L 409.210392 166.090036 
L 410.42031 165.672905 
L 411.630227 165.441702 
L 413.24345 165.395275 
L 426.955847 165.459367 
L 428.165764 165.713397 
L 429.375681 166.152274 
L 430.988905 167.009445 
L 432.602128 168.157935 
L 434.215351 169.576431 
L 436.23188 171.696775 
L 438.248409 174.164071 
L 440.668243 177.524189 
L 443.491384 181.904048 
L 446.71783 187.375951 
L 451.154194 195.410433 
L 460.026921 211.600946 
L 463.253367 216.982418 
L 466.076508 221.2542 
L 468.496343 224.500177 
L 470.512872 226.857191 
L 472.5294 228.853467 
L 474.142624 230.162784 
L 475.755847 231.193272 
L 477.36907 231.923618 
L 478.578987 232.261588 
L 479.788905 232.409747 
L 487.048409 232.416075 
L 494.711219 232.335446 
L 495.921136 232.062836 
L 497.131053 231.606262 
L 498.744277 230.726872 
L 500.3575 229.557736 
L 501.970723 228.120166 
L 503.987252 225.97819 
L 506.003781 223.491719 
L 508.423615 220.111833 
L 511.246756 215.713385 
L 514.473202 210.226132 
L 518.909566 202.180814 
L 527.378987 186.704781 
L 530.605434 181.283915 
L 533.428574 176.96534 
L 535.848409 173.670098 
L 537.864938 171.265575 
L 539.881467 169.215919 
L 541.49469 167.859674 
L 543.107913 166.778501 
L 544.721136 165.993714 
L 545.931053 165.612448 
L 547.140971 165.418881 
L 549.560805 165.395275 
L 561.256673 165.395275 
L 561.256673 165.395275 
" clip-path="url(#p8670a4706e)" style="fill: none; stroke: #f35cf4; stroke-opacity: 0.75; stroke-width: 5; stroke-linecap: square"/>
   </g>
   <g id="line2d_40">
    <path d="M 148.674855 37.267275 
L 155.934359 37.316142 
L 156.740971 37.601057 
L 157.547582 38.133643 
L 158.354194 38.906145 
L 159.564111 40.497767 
L 160.774029 42.58556 
L 161.983946 45.143343 
L 163.193863 48.144933 
L 164.807086 52.792166 
L 166.42031 58.119782 
L 168.436838 65.641546 
L 170.453367 74.008225 
L 172.873202 84.99286 
L 175.696343 98.845968 
L 179.7294 119.942762 
L 189.812045 173.470644 
L 192.635186 187.139143 
L 195.05502 197.916563 
L 197.071549 206.076027 
L 199.088078 213.359179 
L 200.701301 218.473302 
L 202.314524 222.886947 
L 203.524442 225.70016 
L 204.734359 228.058262 
L 205.944277 229.935073 
L 207.154194 231.30441 
L 207.960805 231.922443 
L 208.767417 232.295537 
L 209.574029 232.416075 
L 360.410392 232.312682 
L 362.830227 231.94276 
L 365.250062 231.329235 
L 367.669896 230.498221 
L 370.493037 229.288666 
L 373.719483 227.64056 
L 377.349235 225.521598 
L 382.188905 222.407366 
L 394.288078 214.47194 
L 397.91783 212.410293 
L 401.144277 210.830117 
L 403.967417 209.693111 
L 406.387252 208.934023 
L 408.807086 208.401413 
L 411.226921 208.121399 
L 414.050062 208.084266 
L 427.762458 208.1614 
L 430.182293 208.500987 
L 432.602128 209.087246 
L 435.021962 209.894061 
L 437.845103 211.079264 
L 441.071549 212.704651 
L 444.701301 214.804575 
L 449.137665 217.637215 
L 462.446756 226.340429 
L 466.076508 228.363772 
L 469.302954 229.899252 
L 472.126095 230.988929 
L 474.545929 231.701342 
L 476.965764 232.18164 
L 479.385599 232.403706 
L 484.225268 232.416075 
L 494.711219 232.325483 
L 495.921136 232.019188 
L 497.131053 231.506197 
L 498.340971 230.796613 
L 499.954194 229.562154 
L 501.567417 228.020105 
L 503.18064 226.194415 
L 505.197169 223.549913 
L 507.213698 220.546412 
L 509.633533 216.534188 
L 512.456673 211.392834 
L 516.086425 204.251503 
L 522.136012 191.717716 
L 527.378987 181.056427 
L 530.605434 174.965727 
L 533.428574 170.113523 
L 535.848409 166.411103 
L 537.864938 163.709462 
L 539.881467 161.406539 
L 541.49469 159.882709 
L 543.107913 158.667939 
L 544.721136 157.786179 
L 545.931053 157.357803 
L 547.140971 157.140317 
L 549.1575 157.113794 
L 561.256673 157.113794 
L 561.256673 157.113794 
" clip-path="url(#p8670a4706e)" style="fill: none; stroke: #f668be; stroke-opacity: 0.75; stroke-width: 5; stroke-linecap: square"/>
   </g>
   <g id="text_21">
    <!-- Design Parameters for Cell-Type Specific LNP Formulations -->
    <g transform="translate(34.069031 22.396875) scale(0.2 -0.2)">
     <defs>
      <path id="DejaVuSans-Bold-44" d="M 1791 3756 
L 1791 909 
L 2222 909 
Q 2959 909 3348 1275 
Q 3738 1641 3738 2338 
Q 3738 3031 3350 3393 
Q 2963 3756 2222 3756 
L 1791 3756 
z
M 588 4666 
L 1856 4666 
Q 2919 4666 3439 4514 
Q 3959 4363 4331 4000 
Q 4659 3684 4818 3271 
Q 4978 2859 4978 2338 
Q 4978 1809 4818 1395 
Q 4659 981 4331 666 
Q 3956 303 3431 151 
Q 2906 0 1856 0 
L 588 0 
L 588 4666 
z
" transform="scale(0.015625)"/>
      <path id="DejaVuSans-Bold-65" d="M 4031 1759 
L 4031 1441 
L 1416 1441 
Q 1456 1047 1700 850 
Q 1944 653 2381 653 
Q 2734 653 3104 758 
Q 3475 863 3866 1075 
L 3866 213 
Q 3469 63 3072 -14 
Q 2675 -91 2278 -91 
Q 1328 -91 801 392 
Q 275 875 275 1747 
Q 275 2603 792 3093 
Q 1309 3584 2216 3584 
Q 3041 3584 3536 3087 
Q 4031 2591 4031 1759 
z
M 2881 2131 
Q 2881 2450 2695 2645 
Q 2509 2841 2209 2841 
Q 1884 2841 1681 2658 
Q 1478 2475 1428 2131 
L 2881 2131 
z
" transform="scale(0.015625)"/>
      <path id="DejaVuSans-Bold-73" d="M 3272 3391 
L 3272 2541 
Q 2913 2691 2578 2766 
Q 2244 2841 1947 2841 
Q 1628 2841 1473 2761 
Q 1319 2681 1319 2516 
Q 1319 2381 1436 2309 
Q 1553 2238 1856 2203 
L 2053 2175 
Q 2913 2066 3209 1816 
Q 3506 1566 3506 1031 
Q 3506 472 3093 190 
Q 2681 -91 1863 -91 
Q 1516 -91 1145 -36 
Q 775 19 384 128 
L 384 978 
Q 719 816 1070 734 
Q 1422 653 1784 653 
Q 2113 653 2278 743 
Q 2444 834 2444 1013 
Q 2444 1163 2330 1236 
Q 2216 1309 1875 1350 
L 1678 1375 
Q 931 1469 631 1722 
Q 331 1975 331 2491 
Q 331 3047 712 3315 
Q 1094 3584 1881 3584 
Q 2191 3584 2531 3537 
Q 2872 3491 3272 3391 
z
" transform="scale(0.015625)"/>
      <path id="DejaVuSans-Bold-69" d="M 538 3500 
L 1656 3500 
L 1656 0 
L 538 0 
L 538 3500 
z
M 538 4863 
L 1656 4863 
L 1656 3950 
L 538 3950 
L 538 4863 
z
" transform="scale(0.015625)"/>
      <path id="DejaVuSans-Bold-67" d="M 2919 594 
Q 2688 288 2409 144 
Q 2131 0 1766 0 
Q 1125 0 706 504 
Q 288 1009 288 1791 
Q 288 2575 706 3076 
Q 1125 3578 1766 3578 
Q 2131 3578 2409 3434 
Q 2688 3291 2919 2981 
L 2919 3500 
L 4044 3500 
L 4044 353 
Q 4044 -491 3511 -936 
Q 2978 -1381 1966 -1381 
Q 1638 -1381 1331 -1331 
Q 1025 -1281 716 -1178 
L 716 -306 
Q 1009 -475 1290 -558 
Q 1572 -641 1856 -641 
Q 2406 -641 2662 -400 
Q 2919 -159 2919 353 
L 2919 594 
z
M 2181 2772 
Q 1834 2772 1640 2515 
Q 1447 2259 1447 1791 
Q 1447 1309 1634 1061 
Q 1822 813 2181 813 
Q 2531 813 2725 1069 
Q 2919 1325 2919 1791 
Q 2919 2259 2725 2515 
Q 2531 2772 2181 2772 
z
" transform="scale(0.015625)"/>
      <path id="DejaVuSans-Bold-6e" d="M 4056 2131 
L 4056 0 
L 2931 0 
L 2931 347 
L 2931 1631 
Q 2931 2084 2911 2256 
Q 2891 2428 2841 2509 
Q 2775 2619 2662 2680 
Q 2550 2741 2406 2741 
Q 2056 2741 1856 2470 
Q 1656 2200 1656 1722 
L 1656 0 
L 538 0 
L 538 3500 
L 1656 3500 
L 1656 2988 
Q 1909 3294 2193 3439 
Q 2478 3584 2822 3584 
Q 3428 3584 3742 3212 
Q 4056 2841 4056 2131 
z
" transform="scale(0.015625)"/>
      <path id="DejaVuSans-Bold-20" transform="scale(0.015625)"/>
      <path id="DejaVuSans-Bold-50" d="M 588 4666 
L 2584 4666 
Q 3475 4666 3951 4270 
Q 4428 3875 4428 3144 
Q 4428 2409 3951 2014 
Q 3475 1619 2584 1619 
L 1791 1619 
L 1791 0 
L 588 0 
L 588 4666 
z
M 1791 3794 
L 1791 2491 
L 2456 2491 
Q 2806 2491 2997 2661 
Q 3188 2831 3188 3144 
Q 3188 3456 2997 3625 
Q 2806 3794 2456 3794 
L 1791 3794 
z
" transform="scale(0.015625)"/>
      <path id="DejaVuSans-Bold-61" d="M 2106 1575 
Q 1756 1575 1579 1456 
Q 1403 1338 1403 1106 
Q 1403 894 1545 773 
Q 1688 653 1941 653 
Q 2256 653 2472 879 
Q 2688 1106 2688 1447 
L 2688 1575 
L 2106 1575 
z
M 3816 1997 
L 3816 0 
L 2688 0 
L 2688 519 
Q 2463 200 2181 54 
Q 1900 -91 1497 -91 
Q 953 -91 614 226 
Q 275 544 275 1050 
Q 275 1666 698 1953 
Q 1122 2241 2028 2241 
L 2688 2241 
L 2688 2328 
Q 2688 2594 2478 2717 
Q 2269 2841 1825 2841 
Q 1466 2841 1156 2769 
Q 847 2697 581 2553 
L 581 3406 
Q 941 3494 1303 3539 
Q 1666 3584 2028 3584 
Q 2975 3584 3395 3211 
Q 3816 2838 3816 1997 
z
" transform="scale(0.015625)"/>
      <path id="DejaVuSans-Bold-72" d="M 3138 2547 
Q 2991 2616 2845 2648 
Q 2700 2681 2553 2681 
Q 2122 2681 1889 2404 
Q 1656 2128 1656 1613 
L 1656 0 
L 538 0 
L 538 3500 
L 1656 3500 
L 1656 2925 
Q 1872 3269 2151 3426 
Q 2431 3584 2822 3584 
Q 2878 3584 2943 3579 
Q 3009 3575 3134 3559 
L 3138 2547 
z
" transform="scale(0.015625)"/>
      <path id="DejaVuSans-Bold-6d" d="M 3781 2919 
Q 3994 3244 4286 3414 
Q 4578 3584 4928 3584 
Q 5531 3584 5847 3212 
Q 6163 2841 6163 2131 
L 6163 0 
L 5038 0 
L 5038 1825 
Q 5041 1866 5042 1909 
Q 5044 1953 5044 2034 
Q 5044 2406 4934 2573 
Q 4825 2741 4581 2741 
Q 4263 2741 4089 2478 
Q 3916 2216 3909 1719 
L 3909 0 
L 2784 0 
L 2784 1825 
Q 2784 2406 2684 2573 
Q 2584 2741 2328 2741 
Q 2006 2741 1831 2477 
Q 1656 2213 1656 1722 
L 1656 0 
L 531 0 
L 531 3500 
L 1656 3500 
L 1656 2988 
Q 1863 3284 2130 3434 
Q 2397 3584 2719 3584 
Q 3081 3584 3359 3409 
Q 3638 3234 3781 2919 
z
" transform="scale(0.015625)"/>
      <path id="DejaVuSans-Bold-74" d="M 1759 4494 
L 1759 3500 
L 2913 3500 
L 2913 2700 
L 1759 2700 
L 1759 1216 
Q 1759 972 1856 886 
Q 1953 800 2241 800 
L 2816 800 
L 2816 0 
L 1856 0 
Q 1194 0 917 276 
Q 641 553 641 1216 
L 641 2700 
L 84 2700 
L 84 3500 
L 641 3500 
L 641 4494 
L 1759 4494 
z
" transform="scale(0.015625)"/>
      <path id="DejaVuSans-Bold-66" d="M 2841 4863 
L 2841 4128 
L 2222 4128 
Q 1984 4128 1890 4042 
Q 1797 3956 1797 3744 
L 1797 3500 
L 2753 3500 
L 2753 2700 
L 1797 2700 
L 1797 0 
L 678 0 
L 678 2700 
L 122 2700 
L 122 3500 
L 678 3500 
L 678 3744 
Q 678 4316 997 4589 
Q 1316 4863 1984 4863 
L 2841 4863 
z
" transform="scale(0.015625)"/>
      <path id="DejaVuSans-Bold-6f" d="M 2203 2784 
Q 1831 2784 1636 2517 
Q 1441 2250 1441 1747 
Q 1441 1244 1636 976 
Q 1831 709 2203 709 
Q 2569 709 2762 976 
Q 2956 1244 2956 1747 
Q 2956 2250 2762 2517 
Q 2569 2784 2203 2784 
z
M 2203 3584 
Q 3106 3584 3614 3096 
Q 4122 2609 4122 1747 
Q 4122 884 3614 396 
Q 3106 -91 2203 -91 
Q 1297 -91 786 396 
Q 275 884 275 1747 
Q 275 2609 786 3096 
Q 1297 3584 2203 3584 
z
" transform="scale(0.015625)"/>
      <path id="DejaVuSans-Bold-43" d="M 4288 256 
Q 3956 84 3597 -3 
Q 3238 -91 2847 -91 
Q 1681 -91 1000 561 
Q 319 1213 319 2328 
Q 319 3447 1000 4098 
Q 1681 4750 2847 4750 
Q 3238 4750 3597 4662 
Q 3956 4575 4288 4403 
L 4288 3438 
Q 3953 3666 3628 3772 
Q 3303 3878 2944 3878 
Q 2300 3878 1931 3465 
Q 1563 3053 1563 2328 
Q 1563 1606 1931 1193 
Q 2300 781 2944 781 
Q 3303 781 3628 887 
Q 3953 994 4288 1222 
L 4288 256 
z
" transform="scale(0.015625)"/>
      <path id="DejaVuSans-Bold-6c" d="M 538 4863 
L 1656 4863 
L 1656 0 
L 538 0 
L 538 4863 
z
" transform="scale(0.015625)"/>
      <path id="DejaVuSans-Bold-2d" d="M 347 2297 
L 2309 2297 
L 2309 1388 
L 347 1388 
L 347 2297 
z
" transform="scale(0.015625)"/>
      <path id="DejaVuSans-Bold-54" d="M 31 4666 
L 4331 4666 
L 4331 3756 
L 2784 3756 
L 2784 0 
L 1581 0 
L 1581 3756 
L 31 3756 
L 31 4666 
z
" transform="scale(0.015625)"/>
      <path id="DejaVuSans-Bold-79" d="M 78 3500 
L 1197 3500 
L 2138 1125 
L 2938 3500 
L 4056 3500 
L 2584 -331 
Q 2363 -916 2067 -1148 
Q 1772 -1381 1288 -1381 
L 641 -1381 
L 641 -647 
L 991 -647 
Q 1275 -647 1404 -556 
Q 1534 -466 1606 -231 
L 1638 -134 
L 78 3500 
z
" transform="scale(0.015625)"/>
      <path id="DejaVuSans-Bold-70" d="M 1656 506 
L 1656 -1331 
L 538 -1331 
L 538 3500 
L 1656 3500 
L 1656 2988 
Q 1888 3294 2169 3439 
Q 2450 3584 2816 3584 
Q 3463 3584 3878 3070 
Q 4294 2556 4294 1747 
Q 4294 938 3878 423 
Q 3463 -91 2816 -91 
Q 2450 -91 2169 54 
Q 1888 200 1656 506 
z
M 2400 2772 
Q 2041 2772 1848 2508 
Q 1656 2244 1656 1747 
Q 1656 1250 1848 986 
Q 2041 722 2400 722 
Q 2759 722 2948 984 
Q 3138 1247 3138 1747 
Q 3138 2247 2948 2509 
Q 2759 2772 2400 2772 
z
" transform="scale(0.015625)"/>
      <path id="DejaVuSans-Bold-53" d="M 3834 4519 
L 3834 3531 
Q 3450 3703 3084 3790 
Q 2719 3878 2394 3878 
Q 1963 3878 1756 3759 
Q 1550 3641 1550 3391 
Q 1550 3203 1689 3098 
Q 1828 2994 2194 2919 
L 2706 2816 
Q 3484 2659 3812 2340 
Q 4141 2022 4141 1434 
Q 4141 663 3683 286 
Q 3225 -91 2284 -91 
Q 1841 -91 1394 -6 
Q 947 78 500 244 
L 500 1259 
Q 947 1022 1364 901 
Q 1781 781 2169 781 
Q 2563 781 2772 912 
Q 2981 1044 2981 1288 
Q 2981 1506 2839 1625 
Q 2697 1744 2272 1838 
L 1806 1941 
Q 1106 2091 782 2419 
Q 459 2747 459 3303 
Q 459 4000 909 4375 
Q 1359 4750 2203 4750 
Q 2588 4750 2994 4692 
Q 3400 4634 3834 4519 
z
" transform="scale(0.015625)"/>
      <path id="DejaVuSans-Bold-63" d="M 3366 3391 
L 3366 2478 
Q 3138 2634 2908 2709 
Q 2678 2784 2431 2784 
Q 1963 2784 1702 2511 
Q 1441 2238 1441 1747 
Q 1441 1256 1702 982 
Q 1963 709 2431 709 
Q 2694 709 2930 787 
Q 3166 866 3366 1019 
L 3366 103 
Q 3103 6 2833 -42 
Q 2563 -91 2291 -91 
Q 1344 -91 809 395 
Q 275 881 275 1747 
Q 275 2613 809 3098 
Q 1344 3584 2291 3584 
Q 2566 3584 2833 3536 
Q 3100 3488 3366 3391 
z
" transform="scale(0.015625)"/>
      <path id="DejaVuSans-Bold-4c" d="M 588 4666 
L 1791 4666 
L 1791 909 
L 3903 909 
L 3903 0 
L 588 0 
L 588 4666 
z
" transform="scale(0.015625)"/>
      <path id="DejaVuSans-Bold-4e" d="M 588 4666 
L 1931 4666 
L 3628 1466 
L 3628 4666 
L 4769 4666 
L 4769 0 
L 3425 0 
L 1728 3200 
L 1728 0 
L 588 0 
L 588 4666 
z
" transform="scale(0.015625)"/>
      <path id="DejaVuSans-Bold-46" d="M 588 4666 
L 3834 4666 
L 3834 3756 
L 1791 3756 
L 1791 2888 
L 3713 2888 
L 3713 1978 
L 1791 1978 
L 1791 0 
L 588 0 
L 588 4666 
z
" transform="scale(0.015625)"/>
      <path id="DejaVuSans-Bold-75" d="M 500 1363 
L 500 3500 
L 1625 3500 
L 1625 3150 
Q 1625 2866 1622 2436 
Q 1619 2006 1619 1863 
Q 1619 1441 1641 1255 
Q 1663 1069 1716 984 
Q 1784 875 1895 815 
Q 2006 756 2150 756 
Q 2500 756 2700 1025 
Q 2900 1294 2900 1772 
L 2900 3500 
L 4019 3500 
L 4019 0 
L 2900 0 
L 2900 506 
Q 2647 200 2364 54 
Q 2081 -91 1741 -91 
Q 1134 -91 817 281 
Q 500 653 500 1363 
z
" transform="scale(0.015625)"/>
     </defs>
     <use xlink:href="#DejaVuSans-Bold-44"/>
     <use xlink:href="#DejaVuSans-Bold-65" x="83.007812"/>
     <use xlink:href="#DejaVuSans-Bold-73" x="150.830078"/>
     <use xlink:href="#DejaVuSans-Bold-69" x="210.351562"/>
     <use xlink:href="#DejaVuSans-Bold-67" x="244.628906"/>
     <use xlink:href="#DejaVuSans-Bold-6e" x="316.210938"/>
     <use xlink:href="#DejaVuSans-Bold-20" x="387.402344"/>
     <use xlink:href="#DejaVuSans-Bold-50" x="422.216797"/>
     <use xlink:href="#DejaVuSans-Bold-61" x="492.882812"/>
     <use xlink:href="#DejaVuSans-Bold-72" x="560.363281"/>
     <use xlink:href="#DejaVuSans-Bold-61" x="609.679688"/>
     <use xlink:href="#DejaVuSans-Bold-6d" x="677.160156"/>
     <use xlink:href="#DejaVuSans-Bold-65" x="781.359375"/>
     <use xlink:href="#DejaVuSans-Bold-74" x="849.181641"/>
     <use xlink:href="#DejaVuSans-Bold-65" x="896.984375"/>
     <use xlink:href="#DejaVuSans-Bold-72" x="964.806641"/>
     <use xlink:href="#DejaVuSans-Bold-73" x="1014.123047"/>
     <use xlink:href="#DejaVuSans-Bold-20" x="1073.644531"/>
     <use xlink:href="#DejaVuSans-Bold-66" x="1108.458984"/>
     <use xlink:href="#DejaVuSans-Bold-6f" x="1151.964844"/>
     <use xlink:href="#DejaVuSans-Bold-72" x="1220.666016"/>
     <use xlink:href="#DejaVuSans-Bold-20" x="1269.982422"/>
     <use xlink:href="#DejaVuSans-Bold-43" x="1304.796875"/>
     <use xlink:href="#DejaVuSans-Bold-65" x="1378.185547"/>
     <use xlink:href="#DejaVuSans-Bold-6c" x="1446.007812"/>
     <use xlink:href="#DejaVuSans-Bold-6c" x="1480.285156"/>
     <use xlink:href="#DejaVuSans-Bold-2d" x="1514.5625"/>
     <use xlink:href="#DejaVuSans-Bold-54" x="1541.316406"/>
     <use xlink:href="#DejaVuSans-Bold-79" x="1597.654297"/>
     <use xlink:href="#DejaVuSans-Bold-70" x="1662.839844"/>
     <use xlink:href="#DejaVuSans-Bold-65" x="1734.421875"/>
     <use xlink:href="#DejaVuSans-Bold-20" x="1802.244141"/>
     <use xlink:href="#DejaVuSans-Bold-53" x="1837.058594"/>
     <use xlink:href="#DejaVuSans-Bold-70" x="1909.080078"/>
     <use xlink:href="#DejaVuSans-Bold-65" x="1980.662109"/>
     <use xlink:href="#DejaVuSans-Bold-63" x="2048.484375"/>
     <use xlink:href="#DejaVuSans-Bold-69" x="2107.761719"/>
     <use xlink:href="#DejaVuSans-Bold-66" x="2142.039062"/>
     <use xlink:href="#DejaVuSans-Bold-69" x="2185.544922"/>
     <use xlink:href="#DejaVuSans-Bold-63" x="2219.822266"/>
     <use xlink:href="#DejaVuSans-Bold-20" x="2279.099609"/>
     <use xlink:href="#DejaVuSans-Bold-4c" x="2313.914062"/>
     <use xlink:href="#DejaVuSans-Bold-4e" x="2377.634766"/>
     <use xlink:href="#DejaVuSans-Bold-50" x="2461.326172"/>
     <use xlink:href="#DejaVuSans-Bold-20" x="2534.617188"/>
     <use xlink:href="#DejaVuSans-Bold-46" x="2569.431641"/>
     <use xlink:href="#DejaVuSans-Bold-6f" x="2633.742188"/>
     <use xlink:href="#DejaVuSans-Bold-72" x="2702.443359"/>
     <use xlink:href="#DejaVuSans-Bold-6d" x="2751.759766"/>
     <use xlink:href="#DejaVuSans-Bold-75" x="2855.958984"/>
     <use xlink:href="#DejaVuSans-Bold-6c" x="2927.150391"/>
     <use xlink:href="#DejaVuSans-Bold-61" x="2961.427734"/>
     <use xlink:href="#DejaVuSans-Bold-74" x="3028.908203"/>
     <use xlink:href="#DejaVuSans-Bold-69" x="3076.710938"/>
     <use xlink:href="#DejaVuSans-Bold-6f" x="3110.988281"/>
     <use xlink:href="#DejaVuSans-Bold-6e" x="3179.689453"/>
     <use xlink:href="#DejaVuSans-Bold-73" x="3250.880859"/>
    </g>
   </g>
  </g>
  <g id="axes_2">
   <g id="patch_3">
    <path d="M 141.911219 250.156875 
L 141.911219 223.545675 
L 588.311219 223.545675 
L 588.311219 250.156875 
z
" clip-path="url(#p8670a4706e)" style="fill: #f08080; opacity: 0.25"/>
   </g>
   <g id="patch_4">
    <path d="M 141.911219 223.545675 
L 141.911219 155.539275 
L 588.311219 155.539275 
L 588.311219 223.545675 
z
" clip-path="url(#p8670a4706e)" style="fill: #ebf3ed; opacity: 0.25"/>
   </g>
   <g id="patch_5">
    <path d="M 141.911219 155.539275 
L 141.911219 96.403275 
L 588.311219 96.403275 
L 588.311219 155.539275 
z
" clip-path="url(#p8670a4706e)" style="fill: #acd0bb; opacity: 0.25"/>
   </g>
   <g id="patch_6">
    <path d="M 141.911219 96.403275 
L 141.911219 28.396875 
L 588.311219 28.396875 
L 588.311219 96.403275 
z
" clip-path="url(#p8670a4706e)" style="fill: #6dae89; opacity: 0.25"/>
   </g>
   <g id="matplotlib.axis_3">
    <g id="ytick_14">
     <g id="line2d_41">
      <defs>
       <path id="m6624ff6cd3" d="M 0 0 
L 3.5 0 
" style="stroke: #000000; stroke-width: 0.8"/>
      </defs>
      <g>
       <use xlink:href="#m6624ff6cd3" x="588.311219" y="236.851275" style="stroke: #000000; stroke-width: 0.8"/>
      </g>
     </g>
     <g id="text_22">
      <!-- N/A -->
      <g transform="translate(595.311219 240.650494) scale(0.1 -0.1)">
       <defs>
        <path id="DejaVuSans-2f" d="M 1625 4666 
L 2156 4666 
L 531 -594 
L 0 -594 
L 1625 4666 
z
" transform="scale(0.015625)"/>
       </defs>
       <use xlink:href="#DejaVuSans-4e"/>
       <use xlink:href="#DejaVuSans-2f" x="74.804688"/>
       <use xlink:href="#DejaVuSans-41" x="108.496094"/>
      </g>
     </g>
    </g>
    <g id="ytick_15">
     <g id="line2d_42">
      <g>
       <use xlink:href="#m6624ff6cd3" x="588.311219" y="189.542475" style="stroke: #000000; stroke-width: 0.8"/>
      </g>
     </g>
     <g id="text_23">
      <!-- Low -->
      <g transform="translate(595.311219 193.341694) scale(0.1 -0.1)">
       <defs>
        <path id="DejaVuSans-77" d="M 269 3500 
L 844 3500 
L 1563 769 
L 2278 3500 
L 2956 3500 
L 3675 769 
L 4391 3500 
L 4966 3500 
L 4050 0 
L 3372 0 
L 2619 2869 
L 1863 0 
L 1184 0 
L 269 3500 
z
" transform="scale(0.015625)"/>
       </defs>
       <use xlink:href="#DejaVuSans-4c"/>
       <use xlink:href="#DejaVuSans-6f" x="53.962891"/>
       <use xlink:href="#DejaVuSans-77" x="115.144531"/>
      </g>
     </g>
    </g>
    <g id="ytick_16">
     <g id="line2d_43">
      <g>
       <use xlink:href="#m6624ff6cd3" x="588.311219" y="125.971275" style="stroke: #000000; stroke-width: 0.8"/>
      </g>
     </g>
     <g id="text_24">
      <!-- Med -->
      <g transform="translate(595.311219 129.770494) scale(0.1 -0.1)">
       <use xlink:href="#DejaVuSans-4d"/>
       <use xlink:href="#DejaVuSans-65" x="86.279297"/>
       <use xlink:href="#DejaVuSans-64" x="147.802734"/>
      </g>
     </g>
    </g>
    <g id="ytick_17">
     <g id="line2d_44">
      <g>
       <use xlink:href="#m6624ff6cd3" x="588.311219" y="62.400075" style="stroke: #000000; stroke-width: 0.8"/>
      </g>
     </g>
     <g id="text_25">
      <!-- High -->
      <g transform="translate(595.311219 66.199294) scale(0.1 -0.1)">
       <use xlink:href="#DejaVuSans-48"/>
       <use xlink:href="#DejaVuSans-69" x="75.195312"/>
       <use xlink:href="#DejaVuSans-67" x="102.978516"/>
       <use xlink:href="#DejaVuSans-68" x="166.455078"/>
      </g>
     </g>
    </g>
    <g id="text_26">
     <!-- Relative Feature Value -->
     <g transform="translate(629.894031 195.240156) rotate(-90) scale(0.1 -0.1)">
      <defs>
       <path id="DejaVuSans-76" d="M 191 3500 
L 800 3500 
L 1894 563 
L 2988 3500 
L 3597 3500 
L 2284 0 
L 1503 0 
L 191 3500 
z
" transform="scale(0.015625)"/>
       <path id="DejaVuSans-56" d="M 1831 0 
L 50 4666 
L 709 4666 
L 2188 738 
L 3669 4666 
L 4325 4666 
L 2547 0 
L 1831 0 
z
" transform="scale(0.015625)"/>
      </defs>
      <use xlink:href="#DejaVuSans-52"/>
      <use xlink:href="#DejaVuSans-65" x="64.982422"/>
      <use xlink:href="#DejaVuSans-6c" x="126.505859"/>
      <use xlink:href="#DejaVuSans-61" x="154.289062"/>
      <use xlink:href="#DejaVuSans-74" x="215.568359"/>
      <use xlink:href="#DejaVuSans-69" x="254.777344"/>
      <use xlink:href="#DejaVuSans-76" x="282.560547"/>
      <use xlink:href="#DejaVuSans-65" x="341.740234"/>
      <use xlink:href="#DejaVuSans-20" x="403.263672"/>
      <use xlink:href="#DejaVuSans-46" x="435.050781"/>
      <use xlink:href="#DejaVuSans-65" x="487.070312"/>
      <use xlink:href="#DejaVuSans-61" x="548.59375"/>
      <use xlink:href="#DejaVuSans-74" x="609.873047"/>
      <use xlink:href="#DejaVuSans-75" x="649.082031"/>
      <use xlink:href="#DejaVuSans-72" x="712.460938"/>
      <use xlink:href="#DejaVuSans-65" x="751.324219"/>
      <use xlink:href="#DejaVuSans-20" x="812.847656"/>
      <use xlink:href="#DejaVuSans-56" x="844.634766"/>
      <use xlink:href="#DejaVuSans-61" x="905.292969"/>
      <use xlink:href="#DejaVuSans-6c" x="966.572266"/>
      <use xlink:href="#DejaVuSans-75" x="994.355469"/>
      <use xlink:href="#DejaVuSans-65" x="1057.734375"/>
     </g>
    </g>
   </g>
   <g id="patch_7">
    <path d="M 141.911219 250.156875 
L 141.911219 28.396875 
" style="fill: none; stroke: #000000; stroke-width: 0.8; stroke-linejoin: miter; stroke-linecap: square"/>
   </g>
   <g id="patch_8">
    <path d="M 588.311219 250.156875 
L 588.311219 28.396875 
" style="fill: none; stroke: #000000; stroke-width: 0.8; stroke-linejoin: miter; stroke-linecap: square"/>
   </g>
   <g id="patch_9">
    <path d="M 141.911219 250.156875 
L 588.311219 250.156875 
" style="fill: none; stroke: #000000; stroke-width: 0.8; stroke-linejoin: miter; stroke-linecap: square"/>
   </g>
   <g id="patch_10">
    <path d="M 141.911219 28.396875 
L 588.311219 28.396875 
" style="fill: none; stroke: #000000; stroke-width: 0.8; stroke-linejoin: miter; stroke-linecap: square"/>
   </g>
  </g>
 </g>
 <defs>
  <clipPath id="p8670a4706e">
   <rect x="141.911219" y="28.396875" width="446.4" height="221.76"/>
  </clipPath>
 </defs>
</svg>
