<?xml version="1.0" encoding="utf-8" standalone="no"?>
<!DOCTYPE svg PUBLIC "-//W3C//DTD SVG 1.1//EN"
  "http://www.w3.org/Graphics/SVG/1.1/DTD/svg11.dtd">
<svg xmlns:xlink="http://www.w3.org/1999/xlink" width="471.766777pt" height="258.727108pt" viewBox="0 0 471.766777 258.727108" xmlns="http://www.w3.org/2000/svg" version="1.1">
 <metadata>
  <rdf:RDF xmlns:dc="http://purl.org/dc/elements/1.1/" xmlns:cc="http://creativecommons.org/ns#" xmlns:rdf="http://www.w3.org/1999/02/22-rdf-syntax-ns#">
   <cc:Work>
    <dc:type rdf:resource="http://purl.org/dc/dcmitype/StillImage"/>
    <dc:date>2023-11-28T08:54:42.879574</dc:date>
    <dc:format>image/svg+xml</dc:format>
    <dc:creator>
     <cc:Agent>
      <dc:title>Matplotlib v3.6.3, https://matplotlib.org/</dc:title>
     </cc:Agent>
    </dc:creator>
   </cc:Work>
  </rdf:RDF>
 </metadata>
 <defs>
  <style type="text/css">*{stroke-linejoin: round; stroke-linecap: butt}</style>
 </defs>
 <g id="figure_1">
  <g id="patch_1">
   <path d="M 0 258.727108 
L 471.766777 258.727108 
L 471.766777 0 
L 0 0 
L 0 258.727108 
z
" style="fill: none"/>
  </g>
  <g id="axes_1">
   <g id="patch_2">
    <path d="M 149.733808 229.692403 
L 428.733808 229.692403 
L 428.733808 7.932403 
L 149.733808 7.932403 
L 149.733808 229.692403 
z
" style="fill: none"/>
   </g>
   <g id="matplotlib.axis_1">
    <g id="xtick_1">
     <g id="line2d_1">
      <path d="M 153.961081 229.692403 
L 153.961081 7.932403 
" clip-path="url(#pc6a418f1ec)" style="fill: none; stroke: #000000; stroke-opacity: 0.8; stroke-width: 0.8; stroke-linecap: square"/>
     </g>
     <g id="line2d_2">
      <defs>
       <path id="m29402dd4cd" d="M 0 0 
L 0 3.5 
" style="stroke: #000000; stroke-width: 0.8"/>
      </defs>
      <g>
       <use xlink:href="#m29402dd4cd" x="153.961081" y="229.692403" style="stroke: #000000; stroke-width: 0.8"/>
      </g>
     </g>
     <g id="text_1">
      <!-- Features -->
      <g transform="translate(130.285456 245.281778) scale(0.12 -0.12)">
       <defs>
        <path id="ArialMT-46" d="M 525 0 
L 525 4581 
L 3616 4581 
L 3616 4041 
L 1131 4041 
L 1131 2622 
L 3281 2622 
L 3281 2081 
L 1131 2081 
L 1131 0 
L 525 0 
z
" transform="scale(0.015625)"/>
        <path id="ArialMT-65" d="M 2694 1069 
L 3275 997 
Q 3138 488 2766 206 
Q 2394 -75 1816 -75 
Q 1088 -75 661 373 
Q 234 822 234 1631 
Q 234 2469 665 2931 
Q 1097 3394 1784 3394 
Q 2450 3394 2872 2941 
Q 3294 2488 3294 1666 
Q 3294 1616 3291 1516 
L 816 1516 
Q 847 969 1125 678 
Q 1403 388 1819 388 
Q 2128 388 2347 550 
Q 2566 713 2694 1069 
z
M 847 1978 
L 2700 1978 
Q 2663 2397 2488 2606 
Q 2219 2931 1791 2931 
Q 1403 2931 1139 2672 
Q 875 2413 847 1978 
z
" transform="scale(0.015625)"/>
        <path id="ArialMT-61" d="M 2588 409 
Q 2275 144 1986 34 
Q 1697 -75 1366 -75 
Q 819 -75 525 192 
Q 231 459 231 875 
Q 231 1119 342 1320 
Q 453 1522 633 1644 
Q 813 1766 1038 1828 
Q 1203 1872 1538 1913 
Q 2219 1994 2541 2106 
Q 2544 2222 2544 2253 
Q 2544 2597 2384 2738 
Q 2169 2928 1744 2928 
Q 1347 2928 1158 2789 
Q 969 2650 878 2297 
L 328 2372 
Q 403 2725 575 2942 
Q 747 3159 1072 3276 
Q 1397 3394 1825 3394 
Q 2250 3394 2515 3294 
Q 2781 3194 2906 3042 
Q 3031 2891 3081 2659 
Q 3109 2516 3109 2141 
L 3109 1391 
Q 3109 606 3145 398 
Q 3181 191 3288 0 
L 2700 0 
Q 2613 175 2588 409 
z
M 2541 1666 
Q 2234 1541 1622 1453 
Q 1275 1403 1131 1340 
Q 988 1278 909 1158 
Q 831 1038 831 891 
Q 831 666 1001 516 
Q 1172 366 1500 366 
Q 1825 366 2078 508 
Q 2331 650 2450 897 
Q 2541 1088 2541 1459 
L 2541 1666 
z
" transform="scale(0.015625)"/>
        <path id="ArialMT-74" d="M 1650 503 
L 1731 6 
Q 1494 -44 1306 -44 
Q 1000 -44 831 53 
Q 663 150 594 308 
Q 525 466 525 972 
L 525 2881 
L 113 2881 
L 113 3319 
L 525 3319 
L 525 4141 
L 1084 4478 
L 1084 3319 
L 1650 3319 
L 1650 2881 
L 1084 2881 
L 1084 941 
Q 1084 700 1114 631 
Q 1144 563 1211 522 
Q 1278 481 1403 481 
Q 1497 481 1650 503 
z
" transform="scale(0.015625)"/>
        <path id="ArialMT-75" d="M 2597 0 
L 2597 488 
Q 2209 -75 1544 -75 
Q 1250 -75 995 37 
Q 741 150 617 320 
Q 494 491 444 738 
Q 409 903 409 1263 
L 409 3319 
L 972 3319 
L 972 1478 
Q 972 1038 1006 884 
Q 1059 663 1231 536 
Q 1403 409 1656 409 
Q 1909 409 2131 539 
Q 2353 669 2445 892 
Q 2538 1116 2538 1541 
L 2538 3319 
L 3100 3319 
L 3100 0 
L 2597 0 
z
" transform="scale(0.015625)"/>
        <path id="ArialMT-72" d="M 416 0 
L 416 3319 
L 922 3319 
L 922 2816 
Q 1116 3169 1280 3281 
Q 1444 3394 1641 3394 
Q 1925 3394 2219 3213 
L 2025 2691 
Q 1819 2813 1613 2813 
Q 1428 2813 1281 2702 
Q 1134 2591 1072 2394 
Q 978 2094 978 1738 
L 978 0 
L 416 0 
z
" transform="scale(0.015625)"/>
        <path id="ArialMT-73" d="M 197 991 
L 753 1078 
Q 800 744 1014 566 
Q 1228 388 1613 388 
Q 2000 388 2187 545 
Q 2375 703 2375 916 
Q 2375 1106 2209 1216 
Q 2094 1291 1634 1406 
Q 1016 1563 777 1677 
Q 538 1791 414 1992 
Q 291 2194 291 2438 
Q 291 2659 392 2848 
Q 494 3038 669 3163 
Q 800 3259 1026 3326 
Q 1253 3394 1513 3394 
Q 1903 3394 2198 3281 
Q 2494 3169 2634 2976 
Q 2775 2784 2828 2463 
L 2278 2388 
Q 2241 2644 2061 2787 
Q 1881 2931 1553 2931 
Q 1166 2931 1000 2803 
Q 834 2675 834 2503 
Q 834 2394 903 2306 
Q 972 2216 1119 2156 
Q 1203 2125 1616 2013 
Q 2213 1853 2448 1751 
Q 2684 1650 2818 1456 
Q 2953 1263 2953 975 
Q 2953 694 2789 445 
Q 2625 197 2315 61 
Q 2006 -75 1616 -75 
Q 969 -75 630 194 
Q 291 463 197 991 
z
" transform="scale(0.015625)"/>
       </defs>
       <use xlink:href="#ArialMT-46"/>
       <use xlink:href="#ArialMT-65" x="61.083984"/>
       <use xlink:href="#ArialMT-61" x="116.699219"/>
       <use xlink:href="#ArialMT-74" x="172.314453"/>
       <use xlink:href="#ArialMT-75" x="200.097656"/>
       <use xlink:href="#ArialMT-72" x="255.712891"/>
       <use xlink:href="#ArialMT-65" x="289.013672"/>
       <use xlink:href="#ArialMT-73" x="344.628906"/>
      </g>
     </g>
    </g>
    <g id="xtick_2">
     <g id="line2d_3">
      <path d="M 196.233808 229.692403 
L 196.233808 7.932403 
" clip-path="url(#pc6a418f1ec)" style="fill: none; stroke: #000000; stroke-opacity: 0.8; stroke-width: 0.8; stroke-linecap: square"/>
     </g>
     <g id="line2d_4">
      <g>
       <use xlink:href="#m29402dd4cd" x="196.233808" y="229.692403" style="stroke: #000000; stroke-width: 0.8"/>
      </g>
     </g>
     <g id="text_2">
      <!-- HepG2 -->
      <g transform="translate(177.224121 245.428028) scale(0.12 -0.12)">
       <defs>
        <path id="ArialMT-48" d="M 513 0 
L 513 4581 
L 1119 4581 
L 1119 2700 
L 3500 2700 
L 3500 4581 
L 4106 4581 
L 4106 0 
L 3500 0 
L 3500 2159 
L 1119 2159 
L 1119 0 
L 513 0 
z
" transform="scale(0.015625)"/>
        <path id="ArialMT-70" d="M 422 -1272 
L 422 3319 
L 934 3319 
L 934 2888 
Q 1116 3141 1344 3267 
Q 1572 3394 1897 3394 
Q 2322 3394 2647 3175 
Q 2972 2956 3137 2557 
Q 3303 2159 3303 1684 
Q 3303 1175 3120 767 
Q 2938 359 2589 142 
Q 2241 -75 1856 -75 
Q 1575 -75 1351 44 
Q 1128 163 984 344 
L 984 -1272 
L 422 -1272 
z
M 931 1641 
Q 931 1000 1190 694 
Q 1450 388 1819 388 
Q 2194 388 2461 705 
Q 2728 1022 2728 1688 
Q 2728 2322 2467 2637 
Q 2206 2953 1844 2953 
Q 1484 2953 1207 2617 
Q 931 2281 931 1641 
z
" transform="scale(0.015625)"/>
        <path id="ArialMT-47" d="M 2638 1797 
L 2638 2334 
L 4578 2338 
L 4578 638 
Q 4131 281 3656 101 
Q 3181 -78 2681 -78 
Q 2006 -78 1454 211 
Q 903 500 622 1047 
Q 341 1594 341 2269 
Q 341 2938 620 3517 
Q 900 4097 1425 4378 
Q 1950 4659 2634 4659 
Q 3131 4659 3532 4498 
Q 3934 4338 4162 4050 
Q 4391 3763 4509 3300 
L 3963 3150 
Q 3859 3500 3706 3700 
Q 3553 3900 3268 4020 
Q 2984 4141 2638 4141 
Q 2222 4141 1919 4014 
Q 1616 3888 1430 3681 
Q 1244 3475 1141 3228 
Q 966 2803 966 2306 
Q 966 1694 1177 1281 
Q 1388 869 1791 669 
Q 2194 469 2647 469 
Q 3041 469 3416 620 
Q 3791 772 3984 944 
L 3984 1797 
L 2638 1797 
z
" transform="scale(0.015625)"/>
        <path id="ArialMT-32" d="M 3222 541 
L 3222 0 
L 194 0 
Q 188 203 259 391 
Q 375 700 629 1000 
Q 884 1300 1366 1694 
Q 2113 2306 2375 2664 
Q 2638 3022 2638 3341 
Q 2638 3675 2398 3904 
Q 2159 4134 1775 4134 
Q 1369 4134 1125 3890 
Q 881 3647 878 3216 
L 300 3275 
Q 359 3922 746 4261 
Q 1134 4600 1788 4600 
Q 2447 4600 2831 4234 
Q 3216 3869 3216 3328 
Q 3216 3053 3103 2787 
Q 2991 2522 2730 2228 
Q 2469 1934 1863 1422 
Q 1356 997 1212 845 
Q 1069 694 975 541 
L 3222 541 
z
" transform="scale(0.015625)"/>
       </defs>
       <use xlink:href="#ArialMT-48"/>
       <use xlink:href="#ArialMT-65" x="72.216797"/>
       <use xlink:href="#ArialMT-70" x="127.832031"/>
       <use xlink:href="#ArialMT-47" x="183.447266"/>
       <use xlink:href="#ArialMT-32" x="261.230469"/>
      </g>
     </g>
    </g>
    <g id="xtick_3">
     <g id="line2d_5">
      <path d="M 238.506536 229.692403 
L 238.506536 7.932403 
" clip-path="url(#pc6a418f1ec)" style="fill: none; stroke: #000000; stroke-opacity: 0.8; stroke-width: 0.8; stroke-linecap: square"/>
     </g>
     <g id="line2d_6">
      <g>
       <use xlink:href="#m29402dd4cd" x="238.506536" y="229.692403" style="stroke: #000000; stroke-width: 0.8"/>
      </g>
     </g>
     <g id="text_3">
      <!-- PC3 -->
      <g transform="translate(226.834661 245.281778) scale(0.12 -0.12)">
       <defs>
        <path id="ArialMT-50" d="M 494 0 
L 494 4581 
L 2222 4581 
Q 2678 4581 2919 4538 
Q 3256 4481 3484 4323 
Q 3713 4166 3852 3881 
Q 3991 3597 3991 3256 
Q 3991 2672 3619 2267 
Q 3247 1863 2275 1863 
L 1100 1863 
L 1100 0 
L 494 0 
z
M 1100 2403 
L 2284 2403 
Q 2872 2403 3119 2622 
Q 3366 2841 3366 3238 
Q 3366 3525 3220 3729 
Q 3075 3934 2838 4000 
Q 2684 4041 2272 4041 
L 1100 4041 
L 1100 2403 
z
" transform="scale(0.015625)"/>
        <path id="ArialMT-43" d="M 3763 1606 
L 4369 1453 
Q 4178 706 3683 314 
Q 3188 -78 2472 -78 
Q 1731 -78 1267 223 
Q 803 525 561 1097 
Q 319 1669 319 2325 
Q 319 3041 592 3573 
Q 866 4106 1370 4382 
Q 1875 4659 2481 4659 
Q 3169 4659 3637 4309 
Q 4106 3959 4291 3325 
L 3694 3184 
Q 3534 3684 3231 3912 
Q 2928 4141 2469 4141 
Q 1941 4141 1586 3887 
Q 1231 3634 1087 3207 
Q 944 2781 944 2328 
Q 944 1744 1114 1308 
Q 1284 872 1643 656 
Q 2003 441 2422 441 
Q 2931 441 3284 734 
Q 3638 1028 3763 1606 
z
" transform="scale(0.015625)"/>
        <path id="ArialMT-33" d="M 269 1209 
L 831 1284 
Q 928 806 1161 595 
Q 1394 384 1728 384 
Q 2125 384 2398 659 
Q 2672 934 2672 1341 
Q 2672 1728 2419 1979 
Q 2166 2231 1775 2231 
Q 1616 2231 1378 2169 
L 1441 2663 
Q 1497 2656 1531 2656 
Q 1891 2656 2178 2843 
Q 2466 3031 2466 3422 
Q 2466 3731 2256 3934 
Q 2047 4138 1716 4138 
Q 1388 4138 1169 3931 
Q 950 3725 888 3313 
L 325 3413 
Q 428 3978 793 4289 
Q 1159 4600 1703 4600 
Q 2078 4600 2393 4439 
Q 2709 4278 2876 4000 
Q 3044 3722 3044 3409 
Q 3044 3113 2884 2869 
Q 2725 2625 2413 2481 
Q 2819 2388 3044 2092 
Q 3269 1797 3269 1353 
Q 3269 753 2831 336 
Q 2394 -81 1725 -81 
Q 1122 -81 723 278 
Q 325 638 269 1209 
z
" transform="scale(0.015625)"/>
       </defs>
       <use xlink:href="#ArialMT-50"/>
       <use xlink:href="#ArialMT-43" x="66.699219"/>
       <use xlink:href="#ArialMT-33" x="138.916016"/>
      </g>
     </g>
    </g>
    <g id="xtick_4">
     <g id="line2d_7">
      <path d="M 280.779263 229.692403 
L 280.779263 7.932403 
" clip-path="url(#pc6a418f1ec)" style="fill: none; stroke: #000000; stroke-opacity: 0.8; stroke-width: 0.8; stroke-linecap: square"/>
     </g>
     <g id="line2d_8">
      <g>
       <use xlink:href="#m29402dd4cd" x="280.779263" y="229.692403" style="stroke: #000000; stroke-width: 0.8"/>
      </g>
     </g>
     <g id="text_4">
      <!-- HEK293 -->
      <g transform="translate(258.432075 245.281778) scale(0.12 -0.12)">
       <defs>
        <path id="ArialMT-45" d="M 506 0 
L 506 4581 
L 3819 4581 
L 3819 4041 
L 1113 4041 
L 1113 2638 
L 3647 2638 
L 3647 2100 
L 1113 2100 
L 1113 541 
L 3925 541 
L 3925 0 
L 506 0 
z
" transform="scale(0.015625)"/>
        <path id="ArialMT-4b" d="M 469 0 
L 469 4581 
L 1075 4581 
L 1075 2309 
L 3350 4581 
L 4172 4581 
L 2250 2725 
L 4256 0 
L 3456 0 
L 1825 2319 
L 1075 1588 
L 1075 0 
L 469 0 
z
" transform="scale(0.015625)"/>
        <path id="ArialMT-39" d="M 350 1059 
L 891 1109 
Q 959 728 1153 556 
Q 1347 384 1650 384 
Q 1909 384 2104 503 
Q 2300 622 2425 820 
Q 2550 1019 2634 1356 
Q 2719 1694 2719 2044 
Q 2719 2081 2716 2156 
Q 2547 1888 2255 1720 
Q 1963 1553 1622 1553 
Q 1053 1553 659 1965 
Q 266 2378 266 3053 
Q 266 3750 677 4175 
Q 1088 4600 1706 4600 
Q 2153 4600 2523 4359 
Q 2894 4119 3086 3673 
Q 3278 3228 3278 2384 
Q 3278 1506 3087 986 
Q 2897 466 2520 194 
Q 2144 -78 1638 -78 
Q 1100 -78 759 220 
Q 419 519 350 1059 
z
M 2653 3081 
Q 2653 3566 2395 3850 
Q 2138 4134 1775 4134 
Q 1400 4134 1122 3828 
Q 844 3522 844 3034 
Q 844 2597 1108 2323 
Q 1372 2050 1759 2050 
Q 2150 2050 2401 2323 
Q 2653 2597 2653 3081 
z
" transform="scale(0.015625)"/>
       </defs>
       <use xlink:href="#ArialMT-48"/>
       <use xlink:href="#ArialMT-45" x="72.216797"/>
       <use xlink:href="#ArialMT-4b" x="138.916016"/>
       <use xlink:href="#ArialMT-32" x="205.615234"/>
       <use xlink:href="#ArialMT-39" x="261.230469"/>
       <use xlink:href="#ArialMT-33" x="316.845703"/>
      </g>
     </g>
    </g>
    <g id="xtick_5">
     <g id="line2d_9">
      <path d="M 323.05199 229.692403 
L 323.05199 7.932403 
" clip-path="url(#pc6a418f1ec)" style="fill: none; stroke: #000000; stroke-opacity: 0.8; stroke-width: 0.8; stroke-linecap: square"/>
     </g>
     <g id="line2d_10">
      <g>
       <use xlink:href="#m29402dd4cd" x="323.05199" y="229.692403" style="stroke: #000000; stroke-width: 0.8"/>
      </g>
     </g>
     <g id="text_5">
      <!-- B16 -->
      <g transform="translate(312.376678 245.281778) scale(0.12 -0.12)">
       <defs>
        <path id="ArialMT-42" d="M 469 0 
L 469 4581 
L 2188 4581 
Q 2713 4581 3030 4442 
Q 3347 4303 3526 4014 
Q 3706 3725 3706 3409 
Q 3706 3116 3547 2856 
Q 3388 2597 3066 2438 
Q 3481 2316 3704 2022 
Q 3928 1728 3928 1328 
Q 3928 1006 3792 729 
Q 3656 453 3456 303 
Q 3256 153 2954 76 
Q 2653 0 2216 0 
L 469 0 
z
M 1075 2656 
L 2066 2656 
Q 2469 2656 2644 2709 
Q 2875 2778 2992 2937 
Q 3109 3097 3109 3338 
Q 3109 3566 3000 3739 
Q 2891 3913 2687 3977 
Q 2484 4041 1991 4041 
L 1075 4041 
L 1075 2656 
z
M 1075 541 
L 2216 541 
Q 2509 541 2628 563 
Q 2838 600 2978 687 
Q 3119 775 3209 942 
Q 3300 1109 3300 1328 
Q 3300 1584 3169 1773 
Q 3038 1963 2805 2039 
Q 2572 2116 2134 2116 
L 1075 2116 
L 1075 541 
z
" transform="scale(0.015625)"/>
        <path id="ArialMT-31" d="M 2384 0 
L 1822 0 
L 1822 3584 
Q 1619 3391 1289 3197 
Q 959 3003 697 2906 
L 697 3450 
Q 1169 3672 1522 3987 
Q 1875 4303 2022 4600 
L 2384 4600 
L 2384 0 
z
" transform="scale(0.015625)"/>
        <path id="ArialMT-36" d="M 3184 3459 
L 2625 3416 
Q 2550 3747 2413 3897 
Q 2184 4138 1850 4138 
Q 1581 4138 1378 3988 
Q 1113 3794 959 3422 
Q 806 3050 800 2363 
Q 1003 2672 1297 2822 
Q 1591 2972 1913 2972 
Q 2475 2972 2870 2558 
Q 3266 2144 3266 1488 
Q 3266 1056 3080 686 
Q 2894 316 2569 119 
Q 2244 -78 1831 -78 
Q 1128 -78 684 439 
Q 241 956 241 2144 
Q 241 3472 731 4075 
Q 1159 4600 1884 4600 
Q 2425 4600 2770 4297 
Q 3116 3994 3184 3459 
z
M 888 1484 
Q 888 1194 1011 928 
Q 1134 663 1356 523 
Q 1578 384 1822 384 
Q 2178 384 2434 671 
Q 2691 959 2691 1453 
Q 2691 1928 2437 2201 
Q 2184 2475 1800 2475 
Q 1419 2475 1153 2201 
Q 888 1928 888 1484 
z
" transform="scale(0.015625)"/>
       </defs>
       <use xlink:href="#ArialMT-42"/>
       <use xlink:href="#ArialMT-31" x="66.699219"/>
       <use xlink:href="#ArialMT-36" x="122.314453"/>
      </g>
     </g>
    </g>
    <g id="xtick_6">
     <g id="line2d_11">
      <path d="M 365.324717 229.692403 
L 365.324717 7.932403 
" clip-path="url(#pc6a418f1ec)" style="fill: none; stroke: #000000; stroke-opacity: 0.8; stroke-width: 0.8; stroke-linecap: square"/>
     </g>
     <g id="line2d_12">
      <g>
       <use xlink:href="#m29402dd4cd" x="365.324717" y="229.692403" style="stroke: #000000; stroke-width: 0.8"/>
      </g>
     </g>
     <g id="text_6">
      <!-- N2a -->
      <g transform="translate(354.318467 245.281778) scale(0.12 -0.12)">
       <defs>
        <path id="ArialMT-4e" d="M 488 0 
L 488 4581 
L 1109 4581 
L 3516 984 
L 3516 4581 
L 4097 4581 
L 4097 0 
L 3475 0 
L 1069 3600 
L 1069 0 
L 488 0 
z
" transform="scale(0.015625)"/>
       </defs>
       <use xlink:href="#ArialMT-4e"/>
       <use xlink:href="#ArialMT-32" x="72.216797"/>
       <use xlink:href="#ArialMT-61" x="127.832031"/>
      </g>
     </g>
    </g>
    <g id="xtick_7">
     <g id="line2d_13">
      <path d="M 407.597445 229.692403 
L 407.597445 7.932403 
" clip-path="url(#pc6a418f1ec)" style="fill: none; stroke: #000000; stroke-opacity: 0.8; stroke-width: 0.8; stroke-linecap: square"/>
     </g>
     <g id="line2d_14">
      <g>
       <use xlink:href="#m29402dd4cd" x="407.597445" y="229.692403" style="stroke: #000000; stroke-width: 0.8"/>
      </g>
     </g>
     <g id="text_7">
      <!-- ARPE19 -->
      <g transform="translate(384.584632 245.281778) scale(0.12 -0.12)">
       <defs>
        <path id="ArialMT-41" d="M -9 0 
L 1750 4581 
L 2403 4581 
L 4278 0 
L 3588 0 
L 3053 1388 
L 1138 1388 
L 634 0 
L -9 0 
z
M 1313 1881 
L 2866 1881 
L 2388 3150 
Q 2169 3728 2063 4100 
Q 1975 3659 1816 3225 
L 1313 1881 
z
" transform="scale(0.015625)"/>
        <path id="ArialMT-52" d="M 503 0 
L 503 4581 
L 2534 4581 
Q 3147 4581 3465 4457 
Q 3784 4334 3975 4021 
Q 4166 3709 4166 3331 
Q 4166 2844 3850 2509 
Q 3534 2175 2875 2084 
Q 3116 1969 3241 1856 
Q 3506 1613 3744 1247 
L 4541 0 
L 3778 0 
L 3172 953 
Q 2906 1366 2734 1584 
Q 2563 1803 2427 1890 
Q 2291 1978 2150 2013 
Q 2047 2034 1813 2034 
L 1109 2034 
L 1109 0 
L 503 0 
z
M 1109 2559 
L 2413 2559 
Q 2828 2559 3062 2645 
Q 3297 2731 3419 2920 
Q 3541 3109 3541 3331 
Q 3541 3656 3305 3865 
Q 3069 4075 2559 4075 
L 1109 4075 
L 1109 2559 
z
" transform="scale(0.015625)"/>
       </defs>
       <use xlink:href="#ArialMT-41"/>
       <use xlink:href="#ArialMT-52" x="66.699219"/>
       <use xlink:href="#ArialMT-50" x="138.916016"/>
       <use xlink:href="#ArialMT-45" x="205.615234"/>
       <use xlink:href="#ArialMT-31" x="272.314453"/>
       <use xlink:href="#ArialMT-39" x="327.929688"/>
      </g>
     </g>
    </g>
   </g>
   <g id="matplotlib.axis_2">
    <g id="ytick_1">
     <g id="line2d_15">
      <defs>
       <path id="m549970b004" d="M 0 0 
L -3.5 0 
" style="stroke: #000000; stroke-width: 0.8"/>
      </defs>
      <g>
       <use xlink:href="#m549970b004" x="149.733808" y="193.338304" style="stroke: #000000; stroke-width: 0.8"/>
      </g>
     </g>
     <g id="text_8">
      <!-- Double_bonds -->
      <g transform="translate(86.323923 249.840658) rotate(-45) scale(0.12 -0.12)">
       <defs>
        <path id="ArialMT-44" d="M 494 0 
L 494 4581 
L 2072 4581 
Q 2606 4581 2888 4516 
Q 3281 4425 3559 4188 
Q 3922 3881 4101 3404 
Q 4281 2928 4281 2316 
Q 4281 1794 4159 1391 
Q 4038 988 3847 723 
Q 3656 459 3429 307 
Q 3203 156 2883 78 
Q 2563 0 2147 0 
L 494 0 
z
M 1100 541 
L 2078 541 
Q 2531 541 2789 625 
Q 3047 709 3200 863 
Q 3416 1078 3536 1442 
Q 3656 1806 3656 2325 
Q 3656 3044 3420 3430 
Q 3184 3816 2847 3947 
Q 2603 4041 2063 4041 
L 1100 4041 
L 1100 541 
z
" transform="scale(0.015625)"/>
        <path id="ArialMT-6f" d="M 213 1659 
Q 213 2581 725 3025 
Q 1153 3394 1769 3394 
Q 2453 3394 2887 2945 
Q 3322 2497 3322 1706 
Q 3322 1066 3130 698 
Q 2938 331 2570 128 
Q 2203 -75 1769 -75 
Q 1072 -75 642 372 
Q 213 819 213 1659 
z
M 791 1659 
Q 791 1022 1069 705 
Q 1347 388 1769 388 
Q 2188 388 2466 706 
Q 2744 1025 2744 1678 
Q 2744 2294 2464 2611 
Q 2184 2928 1769 2928 
Q 1347 2928 1069 2612 
Q 791 2297 791 1659 
z
" transform="scale(0.015625)"/>
        <path id="ArialMT-62" d="M 941 0 
L 419 0 
L 419 4581 
L 981 4581 
L 981 2947 
Q 1338 3394 1891 3394 
Q 2197 3394 2470 3270 
Q 2744 3147 2920 2923 
Q 3097 2700 3197 2384 
Q 3297 2069 3297 1709 
Q 3297 856 2875 390 
Q 2453 -75 1863 -75 
Q 1275 -75 941 416 
L 941 0 
z
M 934 1684 
Q 934 1088 1097 822 
Q 1363 388 1816 388 
Q 2184 388 2453 708 
Q 2722 1028 2722 1663 
Q 2722 2313 2464 2622 
Q 2206 2931 1841 2931 
Q 1472 2931 1203 2611 
Q 934 2291 934 1684 
z
" transform="scale(0.015625)"/>
        <path id="ArialMT-6c" d="M 409 0 
L 409 4581 
L 972 4581 
L 972 0 
L 409 0 
z
" transform="scale(0.015625)"/>
        <path id="ArialMT-5f" d="M -97 -1272 
L -97 -866 
L 3631 -866 
L 3631 -1272 
L -97 -1272 
z
" transform="scale(0.015625)"/>
        <path id="ArialMT-6e" d="M 422 0 
L 422 3319 
L 928 3319 
L 928 2847 
Q 1294 3394 1984 3394 
Q 2284 3394 2536 3286 
Q 2788 3178 2913 3003 
Q 3038 2828 3088 2588 
Q 3119 2431 3119 2041 
L 3119 0 
L 2556 0 
L 2556 2019 
Q 2556 2363 2490 2533 
Q 2425 2703 2258 2804 
Q 2091 2906 1866 2906 
Q 1506 2906 1245 2678 
Q 984 2450 984 1813 
L 984 0 
L 422 0 
z
" transform="scale(0.015625)"/>
        <path id="ArialMT-64" d="M 2575 0 
L 2575 419 
Q 2259 -75 1647 -75 
Q 1250 -75 917 144 
Q 584 363 401 755 
Q 219 1147 219 1656 
Q 219 2153 384 2558 
Q 550 2963 881 3178 
Q 1213 3394 1622 3394 
Q 1922 3394 2156 3267 
Q 2391 3141 2538 2938 
L 2538 4581 
L 3097 4581 
L 3097 0 
L 2575 0 
z
M 797 1656 
Q 797 1019 1065 703 
Q 1334 388 1700 388 
Q 2069 388 2326 689 
Q 2584 991 2584 1609 
Q 2584 2291 2321 2609 
Q 2059 2928 1675 2928 
Q 1300 2928 1048 2622 
Q 797 2316 797 1656 
z
" transform="scale(0.015625)"/>
       </defs>
       <use xlink:href="#ArialMT-44"/>
       <use xlink:href="#ArialMT-6f" x="72.216797"/>
       <use xlink:href="#ArialMT-75" x="127.832031"/>
       <use xlink:href="#ArialMT-62" x="183.447266"/>
       <use xlink:href="#ArialMT-6c" x="239.0625"/>
       <use xlink:href="#ArialMT-65" x="261.279297"/>
       <use xlink:href="#ArialMT-5f" x="316.894531"/>
       <use xlink:href="#ArialMT-62" x="372.509766"/>
       <use xlink:href="#ArialMT-6f" x="428.125"/>
       <use xlink:href="#ArialMT-6e" x="483.740234"/>
       <use xlink:href="#ArialMT-64" x="539.355469"/>
       <use xlink:href="#ArialMT-73" x="594.970703"/>
      </g>
     </g>
    </g>
    <g id="ytick_2">
     <g id="line2d_16">
      <g>
       <use xlink:href="#m549970b004" x="149.733808" y="173.141583" style="stroke: #000000; stroke-width: 0.8"/>
      </g>
     </g>
     <g id="text_9">
      <!-- Total_Carbon_Tails -->
      <g transform="translate(68.893299 247.10485) rotate(-45) scale(0.12 -0.12)">
       <defs>
        <path id="ArialMT-54" d="M 1659 0 
L 1659 4041 
L 150 4041 
L 150 4581 
L 3781 4581 
L 3781 4041 
L 2266 4041 
L 2266 0 
L 1659 0 
z
" transform="scale(0.015625)"/>
        <path id="ArialMT-69" d="M 425 3934 
L 425 4581 
L 988 4581 
L 988 3934 
L 425 3934 
z
M 425 0 
L 425 3319 
L 988 3319 
L 988 0 
L 425 0 
z
" transform="scale(0.015625)"/>
       </defs>
       <use xlink:href="#ArialMT-54"/>
       <use xlink:href="#ArialMT-6f" x="49.958984"/>
       <use xlink:href="#ArialMT-74" x="105.574219"/>
       <use xlink:href="#ArialMT-61" x="133.357422"/>
       <use xlink:href="#ArialMT-6c" x="188.972656"/>
       <use xlink:href="#ArialMT-5f" x="211.189453"/>
       <use xlink:href="#ArialMT-43" x="266.804688"/>
       <use xlink:href="#ArialMT-61" x="339.021484"/>
       <use xlink:href="#ArialMT-72" x="394.636719"/>
       <use xlink:href="#ArialMT-62" x="427.9375"/>
       <use xlink:href="#ArialMT-6f" x="483.552734"/>
       <use xlink:href="#ArialMT-6e" x="539.167969"/>
       <use xlink:href="#ArialMT-5f" x="594.783203"/>
       <use xlink:href="#ArialMT-54" x="650.398438"/>
       <use xlink:href="#ArialMT-61" x="700.357422"/>
       <use xlink:href="#ArialMT-69" x="755.972656"/>
       <use xlink:href="#ArialMT-6c" x="778.189453"/>
       <use xlink:href="#ArialMT-73" x="800.40625"/>
      </g>
     </g>
    </g>
    <g id="ytick_3">
     <g id="line2d_17">
      <g>
       <use xlink:href="#m549970b004" x="149.733808" y="152.944862" style="stroke: #000000; stroke-width: 0.8"/>
      </g>
     </g>
     <g id="text_10">
      <!-- Hbond_A -->
      <g transform="translate(105.666387 190.104751) rotate(-45) scale(0.12 -0.12)">
       <use xlink:href="#ArialMT-48"/>
       <use xlink:href="#ArialMT-62" x="72.216797"/>
       <use xlink:href="#ArialMT-6f" x="127.832031"/>
       <use xlink:href="#ArialMT-6e" x="183.447266"/>
       <use xlink:href="#ArialMT-64" x="239.0625"/>
       <use xlink:href="#ArialMT-5f" x="294.677734"/>
       <use xlink:href="#ArialMT-41" x="350.292969"/>
      </g>
     </g>
    </g>
    <g id="ytick_4">
     <g id="line2d_18">
      <g>
       <use xlink:href="#m549970b004" x="149.733808" y="132.74814" style="stroke: #000000; stroke-width: 0.8"/>
      </g>
     </g>
     <g id="text_11">
      <!-- Hbond_D -->
      <g transform="translate(105.198371 170.376046) rotate(-45) scale(0.12 -0.12)">
       <use xlink:href="#ArialMT-48"/>
       <use xlink:href="#ArialMT-62" x="72.216797"/>
       <use xlink:href="#ArialMT-6f" x="127.832031"/>
       <use xlink:href="#ArialMT-6e" x="183.447266"/>
       <use xlink:href="#ArialMT-64" x="239.0625"/>
       <use xlink:href="#ArialMT-5f" x="294.677734"/>
       <use xlink:href="#ArialMT-44" x="350.292969"/>
      </g>
     </g>
    </g>
    <g id="ytick_5">
     <g id="line2d_19">
      <g>
       <use xlink:href="#m549970b004" x="149.733808" y="112.551419" style="stroke: #000000; stroke-width: 0.8"/>
      </g>
     </g>
     <g id="text_12">
      <!-- cLogP -->
      <g transform="translate(116.889497 138.388761) rotate(-45) scale(0.12 -0.12)">
       <defs>
        <path id="ArialMT-63" d="M 2588 1216 
L 3141 1144 
Q 3050 572 2676 248 
Q 2303 -75 1759 -75 
Q 1078 -75 664 370 
Q 250 816 250 1647 
Q 250 2184 428 2587 
Q 606 2991 970 3192 
Q 1334 3394 1763 3394 
Q 2303 3394 2647 3120 
Q 2991 2847 3088 2344 
L 2541 2259 
Q 2463 2594 2264 2762 
Q 2066 2931 1784 2931 
Q 1359 2931 1093 2626 
Q 828 2322 828 1663 
Q 828 994 1084 691 
Q 1341 388 1753 388 
Q 2084 388 2306 591 
Q 2528 794 2588 1216 
z
" transform="scale(0.015625)"/>
        <path id="ArialMT-4c" d="M 469 0 
L 469 4581 
L 1075 4581 
L 1075 541 
L 3331 541 
L 3331 0 
L 469 0 
z
" transform="scale(0.015625)"/>
        <path id="ArialMT-67" d="M 319 -275 
L 866 -356 
Q 900 -609 1056 -725 
Q 1266 -881 1628 -881 
Q 2019 -881 2231 -725 
Q 2444 -569 2519 -288 
Q 2563 -116 2559 434 
Q 2191 0 1641 0 
Q 956 0 581 494 
Q 206 988 206 1678 
Q 206 2153 378 2554 
Q 550 2956 876 3175 
Q 1203 3394 1644 3394 
Q 2231 3394 2613 2919 
L 2613 3319 
L 3131 3319 
L 3131 450 
Q 3131 -325 2973 -648 
Q 2816 -972 2473 -1159 
Q 2131 -1347 1631 -1347 
Q 1038 -1347 672 -1080 
Q 306 -813 319 -275 
z
M 784 1719 
Q 784 1066 1043 766 
Q 1303 466 1694 466 
Q 2081 466 2343 764 
Q 2606 1063 2606 1700 
Q 2606 2309 2336 2618 
Q 2066 2928 1684 2928 
Q 1309 2928 1046 2623 
Q 784 2319 784 1719 
z
" transform="scale(0.015625)"/>
       </defs>
       <use xlink:href="#ArialMT-63"/>
       <use xlink:href="#ArialMT-4c" x="50"/>
       <use xlink:href="#ArialMT-6f" x="105.615234"/>
       <use xlink:href="#ArialMT-67" x="161.230469"/>
       <use xlink:href="#ArialMT-50" x="216.845703"/>
      </g>
     </g>
    </g>
    <g id="ytick_6">
     <g id="line2d_20">
      <g>
       <use xlink:href="#m549970b004" x="149.733808" y="92.354698" style="stroke: #000000; stroke-width: 0.8"/>
      </g>
     </g>
     <g id="text_13">
      <!-- P_charged_centers -->
      <g transform="translate(67.365948 167.715589) rotate(-45) scale(0.12 -0.12)">
       <defs>
        <path id="ArialMT-68" d="M 422 0 
L 422 4581 
L 984 4581 
L 984 2938 
Q 1378 3394 1978 3394 
Q 2347 3394 2619 3248 
Q 2891 3103 3008 2847 
Q 3125 2591 3125 2103 
L 3125 0 
L 2563 0 
L 2563 2103 
Q 2563 2525 2380 2717 
Q 2197 2909 1863 2909 
Q 1613 2909 1392 2779 
Q 1172 2650 1078 2428 
Q 984 2206 984 1816 
L 984 0 
L 422 0 
z
" transform="scale(0.015625)"/>
       </defs>
       <use xlink:href="#ArialMT-50"/>
       <use xlink:href="#ArialMT-5f" x="66.699219"/>
       <use xlink:href="#ArialMT-63" x="122.314453"/>
       <use xlink:href="#ArialMT-68" x="172.314453"/>
       <use xlink:href="#ArialMT-61" x="227.929688"/>
       <use xlink:href="#ArialMT-72" x="283.544922"/>
       <use xlink:href="#ArialMT-67" x="316.845703"/>
       <use xlink:href="#ArialMT-65" x="372.460938"/>
       <use xlink:href="#ArialMT-64" x="428.076172"/>
       <use xlink:href="#ArialMT-5f" x="483.691406"/>
       <use xlink:href="#ArialMT-63" x="539.306641"/>
       <use xlink:href="#ArialMT-65" x="589.306641"/>
       <use xlink:href="#ArialMT-6e" x="644.921875"/>
       <use xlink:href="#ArialMT-74" x="700.537109"/>
       <use xlink:href="#ArialMT-65" x="728.320312"/>
       <use xlink:href="#ArialMT-72" x="783.935547"/>
       <use xlink:href="#ArialMT-73" x="817.236328"/>
      </g>
     </g>
    </g>
    <g id="ytick_7">
     <g id="line2d_21">
      <g>
       <use xlink:href="#m549970b004" x="149.733808" y="72.157976" style="stroke: #000000; stroke-width: 0.8"/>
      </g>
     </g>
     <g id="text_14">
      <!-- NP_ratio -->
      <g transform="translate(108.035637 106.948616) rotate(-45) scale(0.12 -0.12)">
       <use xlink:href="#ArialMT-4e"/>
       <use xlink:href="#ArialMT-50" x="72.216797"/>
       <use xlink:href="#ArialMT-5f" x="138.916016"/>
       <use xlink:href="#ArialMT-72" x="194.53125"/>
       <use xlink:href="#ArialMT-61" x="227.832031"/>
       <use xlink:href="#ArialMT-74" x="283.447266"/>
       <use xlink:href="#ArialMT-69" x="311.230469"/>
       <use xlink:href="#ArialMT-6f" x="333.447266"/>
      </g>
     </g>
    </g>
    <g id="ytick_8">
     <g id="line2d_22">
      <g>
       <use xlink:href="#m549970b004" x="149.733808" y="51.961255" style="stroke: #000000; stroke-width: 0.8"/>
      </g>
     </g>
     <g id="text_15">
      <!-- Chol_DMG-PEG_ratio -->
      <g transform="translate(57.113342 137.704479) rotate(-45) scale(0.12 -0.12)">
       <defs>
        <path id="ArialMT-4d" d="M 475 0 
L 475 4581 
L 1388 4581 
L 2472 1338 
Q 2622 884 2691 659 
Q 2769 909 2934 1394 
L 4031 4581 
L 4847 4581 
L 4847 0 
L 4263 0 
L 4263 3834 
L 2931 0 
L 2384 0 
L 1059 3900 
L 1059 0 
L 475 0 
z
" transform="scale(0.015625)"/>
        <path id="ArialMT-2d" d="M 203 1375 
L 203 1941 
L 1931 1941 
L 1931 1375 
L 203 1375 
z
" transform="scale(0.015625)"/>
       </defs>
       <use xlink:href="#ArialMT-43"/>
       <use xlink:href="#ArialMT-68" x="72.216797"/>
       <use xlink:href="#ArialMT-6f" x="127.832031"/>
       <use xlink:href="#ArialMT-6c" x="183.447266"/>
       <use xlink:href="#ArialMT-5f" x="205.664062"/>
       <use xlink:href="#ArialMT-44" x="261.279297"/>
       <use xlink:href="#ArialMT-4d" x="333.496094"/>
       <use xlink:href="#ArialMT-47" x="416.796875"/>
       <use xlink:href="#ArialMT-2d" x="494.580078"/>
       <use xlink:href="#ArialMT-50" x="527.880859"/>
       <use xlink:href="#ArialMT-45" x="594.580078"/>
       <use xlink:href="#ArialMT-47" x="661.279297"/>
       <use xlink:href="#ArialMT-5f" x="739.0625"/>
       <use xlink:href="#ArialMT-72" x="794.677734"/>
       <use xlink:href="#ArialMT-61" x="827.978516"/>
       <use xlink:href="#ArialMT-74" x="883.59375"/>
       <use xlink:href="#ArialMT-69" x="911.376953"/>
       <use xlink:href="#ArialMT-6f" x="933.59375"/>
      </g>
     </g>
    </g>
    <g id="ytick_9">
     <g id="line2d_23">
      <g>
       <use xlink:href="#m549970b004" x="149.733808" y="31.764534" style="stroke: #000000; stroke-width: 0.8"/>
      </g>
     </g>
     <g id="text_16">
      <!-- Dlin-MC3_Helper lipid_ratio -->
      <g transform="translate(37.302862 137.318238) rotate(-45) scale(0.12 -0.12)">
       <defs>
        <path id="ArialMT-20" transform="scale(0.015625)"/>
       </defs>
       <use xlink:href="#ArialMT-44"/>
       <use xlink:href="#ArialMT-6c" x="72.216797"/>
       <use xlink:href="#ArialMT-69" x="94.433594"/>
       <use xlink:href="#ArialMT-6e" x="116.650391"/>
       <use xlink:href="#ArialMT-2d" x="172.265625"/>
       <use xlink:href="#ArialMT-4d" x="205.566406"/>
       <use xlink:href="#ArialMT-43" x="288.867188"/>
       <use xlink:href="#ArialMT-33" x="361.083984"/>
       <use xlink:href="#ArialMT-5f" x="416.699219"/>
       <use xlink:href="#ArialMT-48" x="472.314453"/>
       <use xlink:href="#ArialMT-65" x="544.53125"/>
       <use xlink:href="#ArialMT-6c" x="600.146484"/>
       <use xlink:href="#ArialMT-70" x="622.363281"/>
       <use xlink:href="#ArialMT-65" x="677.978516"/>
       <use xlink:href="#ArialMT-72" x="733.59375"/>
       <use xlink:href="#ArialMT-20" x="766.894531"/>
       <use xlink:href="#ArialMT-6c" x="794.677734"/>
       <use xlink:href="#ArialMT-69" x="816.894531"/>
       <use xlink:href="#ArialMT-70" x="839.111328"/>
       <use xlink:href="#ArialMT-69" x="894.726562"/>
       <use xlink:href="#ArialMT-64" x="916.943359"/>
       <use xlink:href="#ArialMT-5f" x="972.558594"/>
       <use xlink:href="#ArialMT-72" x="1028.173828"/>
       <use xlink:href="#ArialMT-61" x="1061.474609"/>
       <use xlink:href="#ArialMT-74" x="1117.089844"/>
       <use xlink:href="#ArialMT-69" x="1144.873047"/>
       <use xlink:href="#ArialMT-6f" x="1167.089844"/>
      </g>
     </g>
    </g>
    <g id="ytick_10">
     <g id="line2d_24">
      <g>
       <use xlink:href="#m549970b004" x="149.733808" y="11.567812" style="stroke: #000000; stroke-width: 0.8"/>
      </g>
     </g>
     <g id="text_17">
      <!-- Dlin-MC3+Helper lipid percentage -->
      <g transform="translate(13.37702 140.947922) rotate(-45) scale(0.12 -0.12)">
       <defs>
        <path id="ArialMT-2b" d="M 1603 741 
L 1603 1997 
L 356 1997 
L 356 2522 
L 1603 2522 
L 1603 3769 
L 2134 3769 
L 2134 2522 
L 3381 2522 
L 3381 1997 
L 2134 1997 
L 2134 741 
L 1603 741 
z
" transform="scale(0.015625)"/>
       </defs>
       <use xlink:href="#ArialMT-44"/>
       <use xlink:href="#ArialMT-6c" x="72.216797"/>
       <use xlink:href="#ArialMT-69" x="94.433594"/>
       <use xlink:href="#ArialMT-6e" x="116.650391"/>
       <use xlink:href="#ArialMT-2d" x="172.265625"/>
       <use xlink:href="#ArialMT-4d" x="205.566406"/>
       <use xlink:href="#ArialMT-43" x="288.867188"/>
       <use xlink:href="#ArialMT-33" x="361.083984"/>
       <use xlink:href="#ArialMT-2b" x="416.699219"/>
       <use xlink:href="#ArialMT-48" x="475.097656"/>
       <use xlink:href="#ArialMT-65" x="547.314453"/>
       <use xlink:href="#ArialMT-6c" x="602.929688"/>
       <use xlink:href="#ArialMT-70" x="625.146484"/>
       <use xlink:href="#ArialMT-65" x="680.761719"/>
       <use xlink:href="#ArialMT-72" x="736.376953"/>
       <use xlink:href="#ArialMT-20" x="769.677734"/>
       <use xlink:href="#ArialMT-6c" x="797.460938"/>
       <use xlink:href="#ArialMT-69" x="819.677734"/>
       <use xlink:href="#ArialMT-70" x="841.894531"/>
       <use xlink:href="#ArialMT-69" x="897.509766"/>
       <use xlink:href="#ArialMT-64" x="919.726562"/>
       <use xlink:href="#ArialMT-20" x="975.341797"/>
       <use xlink:href="#ArialMT-70" x="1003.125"/>
       <use xlink:href="#ArialMT-65" x="1058.740234"/>
       <use xlink:href="#ArialMT-72" x="1114.355469"/>
       <use xlink:href="#ArialMT-63" x="1147.65625"/>
       <use xlink:href="#ArialMT-65" x="1197.65625"/>
       <use xlink:href="#ArialMT-6e" x="1253.271484"/>
       <use xlink:href="#ArialMT-74" x="1308.886719"/>
       <use xlink:href="#ArialMT-61" x="1336.669922"/>
       <use xlink:href="#ArialMT-67" x="1392.285156"/>
       <use xlink:href="#ArialMT-65" x="1447.900391"/>
      </g>
     </g>
    </g>
   </g>
   <g id="line2d_25">
    <path d="M 153.961081 11.567812 
L 201.097445 11.631368 
L 202.105709 11.983766 
L 203.113974 12.627882 
L 204.122238 13.544447 
L 205.382569 15.04393 
L 206.642899 16.901373 
L 208.155296 19.549821 
L 209.919759 23.135909 
L 211.936288 27.762214 
L 214.709015 34.770169 
L 223.531329 57.688029 
L 225.547858 62.1267 
L 227.312321 65.503002 
L 228.824717 67.937756 
L 230.085048 69.593231 
L 231.345379 70.869029 
L 232.353643 71.59101 
L 233.361908 72.026644 
L 234.118106 72.153862 
L 241.175957 72.157976 
L 285.79166 72.254432 
L 286.799924 72.651082 
L 287.808189 73.336607 
L 288.816453 74.291739 
L 290.076784 75.835431 
L 291.337114 77.732642 
L 292.849511 80.422948 
L 294.613974 84.049785 
L 296.630503 88.712 
L 299.40323 95.750763 
L 307.973478 118.036808 
L 309.990007 122.503353 
L 311.75447 125.910523 
L 313.266866 128.376547 
L 314.527197 130.061474 
L 315.787527 131.36981 
L 316.795792 132.120042 
L 317.804056 132.5859 
L 318.560255 132.737082 
L 321.332982 132.74814 
L 327.886701 132.690198 
L 328.894965 132.346453 
L 329.90323 131.710438 
L 330.911494 130.80142 
L 332.171825 129.310594 
L 333.432156 127.460945 
L 334.944552 124.820709 
L 336.709015 121.24263 
L 338.725544 116.623405 
L 341.246205 110.280191 
L 350.824717 85.53379 
L 352.841246 81.228552 
L 354.605709 77.998803 
L 356.118106 75.711803 
L 357.378436 74.195065 
L 358.386701 73.263452 
L 359.394965 72.603182 
L 360.40323 72.233525 
L 361.411494 72.157976 
L 369.981742 72.216186 
L 370.737941 72.594605 
L 371.494139 73.311068 
L 372.250337 74.349317 
L 373.258602 76.206104 
L 374.266866 78.567515 
L 375.527197 82.170194 
L 376.787527 86.425863 
L 378.299924 92.288633 
L 380.064387 100.006461 
L 382.332982 111.000701 
L 385.609841 128.176649 
L 391.155296 157.331048 
L 393.423891 168.057517 
L 395.188354 175.491348 
L 396.700751 181.057947 
L 398.213147 185.743944 
L 399.473478 188.882424 
L 400.481742 190.837293 
L 401.490007 192.256267 
L 402.246205 192.945633 
L 403.002403 193.295623 
L 404.010668 193.338304 
L 411.824717 193.338304 
L 411.824717 193.338304 
" clip-path="url(#pc6a418f1ec)" style="fill: none; stroke: #f565cc; stroke-opacity: 0.75; stroke-width: 3; stroke-linecap: square"/>
   </g>
   <g id="line2d_26">
    <path d="M 153.961081 31.764534 
L 158.498271 31.804993 
L 159.002403 32.040889 
L 159.506536 32.481845 
L 160.262734 33.513718 
L 161.018932 34.970848 
L 162.027197 37.537732 
L 163.035461 40.770708 
L 164.295792 45.67034 
L 165.808189 52.67643 
L 167.320585 60.747676 
L 169.337114 72.866511 
L 171.857775 89.618161 
L 176.142899 120.034204 
L 179.923891 146.201164 
L 182.192486 160.41448 
L 183.956949 170.233722 
L 185.469346 177.560116 
L 186.729676 182.764312 
L 187.990007 187.042247 
L 188.998271 189.730246 
L 189.75447 191.284155 
L 190.510668 192.4179 
L 191.266866 193.109803 
L 191.770998 193.3149 
L 193.031329 193.338304 
L 244.956949 193.236397 
L 247.47761 192.898412 
L 250.250337 192.300493 
L 253.527197 191.360655 
L 258.064387 189.801819 
L 266.382569 186.900562 
L 269.659428 186.00279 
L 272.432156 185.453813 
L 274.952817 185.170937 
L 277.473478 185.117528 
L 329.399098 185.210382 
L 331.919759 185.539416 
L 334.692486 186.129422 
L 337.969346 187.06252 
L 342.506536 188.616695 
L 351.076784 191.600705 
L 354.353643 192.487967 
L 357.12637 193.024869 
L 359.647032 193.294237 
L 362.419759 193.338304 
L 411.824717 193.338304 
L 411.824717 193.338304 
" clip-path="url(#pc6a418f1ec)" style="fill: none; stroke: #cc7af4; stroke-opacity: 0.75; stroke-width: 3; stroke-linecap: square"/>
   </g>
   <g id="line2d_27">
    <path d="M 153.961081 51.961255 
L 158.750337 52.049729 
L 159.506536 52.440682 
L 160.262734 53.130352 
L 161.018932 54.104251 
L 162.027197 55.819872 
L 163.035461 57.980688 
L 164.295792 61.255442 
L 165.808189 65.938083 
L 167.572651 72.292809 
L 169.58918 80.505771 
L 172.109841 91.795143 
L 181.688354 135.927587 
L 183.704883 143.624276 
L 185.217279 148.642212 
L 186.729676 152.884576 
L 187.990007 155.743808 
L 188.998271 157.540379 
L 190.006536 158.863465 
L 190.762734 159.524396 
L 191.518932 159.885184 
L 192.275131 159.951887 
L 327.634635 159.903076 
L 328.138767 159.669216 
L 328.894965 158.968164 
L 329.651164 157.864494 
L 330.407362 156.378114 
L 331.415627 153.835357 
L 332.423891 150.694807 
L 333.684222 146.000365 
L 335.196618 139.361184 
L 336.961081 130.42991 
L 338.97761 118.96904 
L 341.498271 103.315398 
L 350.320585 47.169636 
L 352.337114 36.280208 
L 354.101577 27.990459 
L 355.613974 22.00628 
L 356.874304 17.931797 
L 357.882569 15.335735 
L 358.890833 13.380592 
L 359.647032 12.363226 
L 360.40323 11.752829 
L 360.907362 11.581823 
L 362.923891 11.567812 
L 369.981742 11.639089 
L 370.485875 11.901027 
L 371.242073 12.642564 
L 371.998271 13.78476 
L 372.75447 15.307708 
L 373.762734 17.896177 
L 374.770998 21.078957 
L 376.031329 25.821292 
L 377.543726 32.510765 
L 379.308189 41.490812 
L 381.324717 52.994369 
L 384.097445 70.304778 
L 392.16356 121.868167 
L 394.180089 133.033907 
L 395.944552 141.631425 
L 397.456949 147.928433 
L 398.717279 152.298176 
L 399.725544 155.153075 
L 400.733808 157.387166 
L 401.490007 158.626944 
L 402.246205 159.471066 
L 402.750337 159.804174 
L 403.25447 159.946689 
L 408.799924 159.951887 
L 411.824717 159.951887 
L 411.824717 159.951887 
" clip-path="url(#pc6a418f1ec)" style="fill: none; stroke: #6e9bf4; stroke-opacity: 0.75; stroke-width: 3; stroke-linecap: square"/>
   </g>
   <g id="line2d_28">
    <path d="M 153.961081 72.157976 
L 159.002403 72.054343 
L 160.010668 71.649137 
L 161.018932 70.955609 
L 162.027197 69.993027 
L 163.287527 68.440799 
L 164.547858 66.535917 
L 166.060255 63.837545 
L 167.824717 60.202869 
L 169.841246 55.533769 
L 172.613974 48.48915 
L 181.184222 26.211434 
L 183.200751 21.752653 
L 184.965213 18.35409 
L 186.47761 15.896791 
L 187.737941 14.220085 
L 188.998271 12.920834 
L 190.006536 12.178492 
L 191.0148 11.721076 
L 191.770998 11.576589 
L 195.047858 11.567812 
L 327.634635 11.627606 
L 328.138767 11.914085 
L 328.642899 12.430606 
L 329.399098 13.620909 
L 330.155296 15.28816 
L 331.16356 18.210932 
L 332.171825 21.880451 
L 333.432156 27.429398 
L 334.944552 35.350106 
L 336.456949 44.463253 
L 338.473478 58.131815 
L 340.994139 77.006352 
L 345.279263 111.236202 
L 348.808189 138.773226 
L 351.076784 154.918042 
L 352.841246 166.126578 
L 354.353643 174.536406 
L 355.613974 180.551182 
L 356.874304 185.542423 
L 357.882569 188.7226 
L 358.890833 191.117649 
L 359.647032 192.363923 
L 360.40323 193.111659 
L 360.907362 193.321141 
L 362.671825 193.338304 
L 370.233808 193.228965 
L 370.990007 192.859285 
L 371.746205 192.240137 
L 372.75447 191.047618 
L 373.762734 189.462181 
L 375.023065 186.971875 
L 376.283395 183.969246 
L 377.795792 179.769309 
L 379.560255 174.169838 
L 381.82885 166.101999 
L 384.853643 154.356066 
L 391.407362 128.524965 
L 393.675957 120.576129 
L 395.44042 115.100726 
L 396.952817 111.029077 
L 398.213147 108.148828 
L 399.473478 105.794969 
L 400.481742 104.328817 
L 401.490007 103.264586 
L 402.246205 102.747562 
L 403.002403 102.48507 
L 404.010668 102.453058 
L 411.824717 102.453058 
L 411.824717 102.453058 
" clip-path="url(#pc6a418f1ec)" style="fill: none; stroke: #38a9c5; stroke-opacity: 0.75; stroke-width: 3; stroke-linecap: square"/>
   </g>
   <g id="line2d_29">
    <path d="M 153.961081 92.354698 
L 158.750337 92.288511 
L 159.506536 91.996042 
L 160.262734 91.480106 
L 161.270998 90.463308 
L 162.279263 89.094196 
L 163.539594 86.926503 
L 164.799924 84.298641 
L 166.312321 80.608436 
L 168.076784 75.672695 
L 170.093313 69.369021 
L 172.86604 59.91061 
L 180.680089 32.683867 
L 182.948684 25.849777 
L 184.713147 21.219593 
L 186.225544 17.842882 
L 187.485875 15.512641 
L 188.746205 13.675638 
L 189.75447 12.594887 
L 190.762734 11.887615 
L 191.518932 11.617712 
L 192.527197 11.567812 
L 411.824717 11.567812 
L 411.824717 11.567812 
" clip-path="url(#pc6a418f1ec)" style="fill: none; stroke: #36ada4; stroke-opacity: 0.75; stroke-width: 3; stroke-linecap: square"/>
   </g>
   <g id="line2d_30">
    <path d="M 153.961081 112.551419 
L 158.750337 112.468686 
L 159.506536 112.1031 
L 160.262734 111.458179 
L 161.018932 110.547473 
L 162.027197 108.94317 
L 163.035461 106.92256 
L 164.295792 103.86029 
L 165.808189 99.481484 
L 167.572651 93.539088 
L 169.58918 85.859028 
L 172.109841 75.302173 
L 181.688354 34.033284 
L 183.704883 26.835999 
L 185.217279 22.143654 
L 186.729676 18.176558 
L 187.990007 15.502848 
L 188.998271 13.822849 
L 190.006536 12.585612 
L 190.762734 11.967566 
L 191.518932 11.630187 
L 192.275131 11.567812 
L 287.556122 11.663559 
L 290.580916 11.996774 
L 294.109841 12.622397 
L 298.647032 13.677504 
L 310.746205 16.629207 
L 314.275131 17.187942 
L 317.299924 17.445192 
L 320.576784 17.480166 
L 327.886701 17.548745 
L 328.642899 17.82056 
L 329.399098 18.290166 
L 330.407362 19.20735 
L 331.415627 20.43625 
L 332.675957 22.375981 
L 333.936288 24.722591 
L 335.448684 28.012884 
L 337.213147 32.40832 
L 339.481742 38.752474 
L 342.506536 48.00482 
L 349.312321 69.136316 
L 351.580916 75.353027 
L 353.345379 79.6163 
L 354.857775 82.770299 
L 356.118106 84.987105 
L 357.378436 86.782282 
L 358.386701 87.884918 
L 359.394965 88.666399 
L 360.151164 89.028031 
L 360.907362 89.186563 
L 365.192486 89.193334 
L 411.824717 89.193334 
L 411.824717 89.193334 
" clip-path="url(#pc6a418f1ec)" style="fill: none; stroke: #33b07a; stroke-opacity: 0.75; stroke-width: 3; stroke-linecap: square"/>
   </g>
   <g id="line2d_31">
    <path d="M 153.961081 132.74814 
L 159.002403 132.851774 
L 160.010668 133.25698 
L 161.018932 133.950508 
L 162.027197 134.91309 
L 163.287527 136.465318 
L 164.547858 138.3702 
L 166.060255 141.068572 
L 167.824717 144.703247 
L 169.841246 149.372347 
L 172.613974 156.416967 
L 181.184222 178.694683 
L 183.200751 183.153464 
L 184.965213 186.552027 
L 186.47761 189.009326 
L 187.737941 190.686032 
L 188.998271 191.985283 
L 190.006536 192.727625 
L 191.0148 193.18504 
L 191.770998 193.329528 
L 195.047858 193.338304 
L 201.853643 193.42823 
L 203.618106 193.783954 
L 205.382569 194.38114 
L 207.399098 195.319561 
L 209.667693 196.646312 
L 212.44042 198.564875 
L 216.221412 201.502077 
L 222.775131 206.636108 
L 225.547858 208.505971 
L 227.816453 209.77755 
L 229.832982 210.655352 
L 231.597445 211.190555 
L 233.361908 211.475954 
L 235.378436 211.515353 
L 243.192486 211.439142 
L 243.696618 211.182916 
L 244.452817 210.471753 
L 245.209015 209.385018 
L 245.965213 207.941409 
L 246.973478 205.493775 
L 247.981742 202.489255 
L 249.242073 198.018001 
L 250.75447 191.717202 
L 252.518932 183.265741 
L 254.535461 172.446523 
L 257.308189 156.17621 
L 265.374304 107.766581 
L 267.390833 97.297051 
L 269.155296 89.241561 
L 270.667693 83.347017 
L 271.928023 79.261449 
L 272.936288 76.596333 
L 273.944552 74.515529 
L 274.700751 73.365041 
L 275.456949 72.586855 
L 276.213147 72.199667 
L 276.969346 72.157976 
L 285.539594 72.247351 
L 286.295792 72.67291 
L 287.05199 73.434291 
L 287.808189 74.515238 
L 288.816453 76.425501 
L 289.824717 78.836438 
L 291.085048 82.495473 
L 292.597445 87.733493 
L 294.361908 94.848209 
L 296.378436 104.049958 
L 298.899098 116.706499 
L 304.192486 144.912146 
L 307.217279 160.310393 
L 309.485875 170.719145 
L 311.250337 177.824602 
L 312.762734 183.053146 
L 314.023065 186.703198 
L 315.283395 189.630174 
L 316.29166 191.40056 
L 317.047858 192.369862 
L 317.804056 193.013824 
L 318.560255 193.316188 
L 320.072651 193.338304 
L 328.642899 193.424584 
L 330.407362 193.776091 
L 332.171825 194.369568 
L 334.188354 195.304373 
L 336.456949 196.627848 
L 338.97761 198.358703 
L 342.506536 201.075351 
L 349.816453 206.796861 
L 352.58918 208.642638 
L 354.857775 209.887315 
L 356.874304 210.735765 
L 358.638767 211.241088 
L 360.151164 211.473454 
L 361.915627 211.515353 
L 411.824717 211.515353 
L 411.824717 211.515353 
" clip-path="url(#pc6a418f1ec)" style="fill: none; stroke: #77ab31; stroke-opacity: 0.75; stroke-width: 3; stroke-linecap: square"/>
   </g>
   <g id="line2d_32">
    <path d="M 153.961081 152.944862 
L 158.750337 152.843927 
L 159.506536 152.397912 
L 160.262734 151.611109 
L 161.018932 150.500047 
L 162.027197 148.542798 
L 163.035461 146.077654 
L 164.295792 142.341684 
L 165.808189 136.999541 
L 167.572651 129.749818 
L 169.58918 120.380144 
L 172.109841 107.500782 
L 181.688354 57.152737 
L 183.704883 48.372049 
L 185.217279 42.647389 
L 186.729676 37.807531 
L 187.990007 34.545605 
L 188.998271 32.496006 
L 190.006536 30.986577 
L 190.762734 30.232561 
L 191.518932 29.820959 
L 192.275131 29.744862 
L 200.845379 29.814746 
L 201.349511 30.114619 
L 201.853643 30.64412 
L 202.609841 31.853115 
L 203.36604 33.538126 
L 204.374304 36.483126 
L 205.382569 40.173215 
L 206.642899 45.745543 
L 208.155296 53.690887 
L 209.919759 64.449151 
L 211.936288 78.328067 
L 214.456949 97.374928 
L 223.783395 169.856768 
L 225.799924 182.963647 
L 227.312321 191.550432 
L 228.824717 198.854692 
L 230.085048 203.821116 
L 231.093313 206.979574 
L 232.101577 209.351247 
L 232.857775 210.578899 
L 233.613974 211.307081 
L 234.118106 211.503009 
L 236.638767 211.515353 
L 243.192486 211.415947 
L 243.696618 211.08174 
L 244.200751 210.518971 
L 244.956949 209.262073 
L 245.713147 207.531558 
L 246.721412 204.529618 
L 247.729676 200.786853 
L 248.990007 195.154677 
L 250.502403 187.14631 
L 252.266866 176.326647 
L 254.283395 162.393552 
L 256.804056 143.302954 
L 266.130503 70.891033 
L 268.147032 57.847247 
L 269.659428 49.318976 
L 271.171825 42.082824 
L 272.432156 37.180486 
L 273.44042 34.078095 
L 274.448684 31.766753 
L 275.204883 30.587148 
L 275.709015 30.078055 
L 276.213147 29.799241 
L 276.969346 29.744862 
L 286.547858 29.854694 
L 288.312321 30.231972 
L 290.076784 30.848098 
L 292.093313 31.804969 
L 294.361908 33.148397 
L 297.134635 35.081479 
L 300.915627 38.028086 
L 307.217279 42.967724 
L 309.990007 44.848475 
L 312.258602 46.132294 
L 314.275131 47.023492 
L 316.039594 47.572361 
L 317.804056 47.873239 
L 319.568519 47.921911 
L 329.90323 47.818141 
L 332.928023 47.471242 
L 336.456949 46.825396 
L 340.994139 45.740626 
L 352.841246 42.769952 
L 356.370172 42.184972 
L 359.394965 41.907415 
L 362.419759 41.862894 
L 411.824717 41.862894 
L 411.824717 41.862894 
" clip-path="url(#pc6a418f1ec)" style="fill: none; stroke: #ae9d31; stroke-opacity: 0.75; stroke-width: 3; stroke-linecap: square"/>
   </g>
   <g id="line2d_33">
    <path d="M 153.961081 173.141583 
L 158.498271 173.101123 
L 159.002403 172.865228 
L 159.506536 172.424272 
L 160.262734 171.392399 
L 161.018932 169.935269 
L 162.027197 167.368385 
L 163.035461 164.135408 
L 164.295792 159.235776 
L 165.808189 152.229687 
L 167.320585 144.158441 
L 169.337114 132.039606 
L 171.857775 115.287956 
L 176.142899 84.871913 
L 179.923891 58.704952 
L 182.192486 44.491637 
L 183.956949 34.672395 
L 185.469346 27.346001 
L 186.729676 22.141805 
L 187.990007 17.86387 
L 188.998271 15.175871 
L 189.75447 13.621962 
L 190.510668 12.488217 
L 191.266866 11.796313 
L 191.770998 11.591216 
L 193.031329 11.567812 
L 200.845379 11.644685 
L 201.349511 11.974546 
L 201.853643 12.556996 
L 202.609841 13.886891 
L 203.36604 15.740403 
L 204.374304 18.979903 
L 205.382569 23.039001 
L 206.642899 29.168561 
L 208.155296 37.908441 
L 209.919759 49.74253 
L 211.936288 65.009338 
L 214.456949 85.960886 
L 223.783395 165.69091 
L 225.799924 180.108476 
L 227.312321 189.553939 
L 228.824717 197.588626 
L 230.085048 203.051693 
L 231.093313 206.525996 
L 232.101577 209.134836 
L 232.857775 210.485254 
L 233.361908 211.081956 
L 233.86604 211.426525 
L 234.370172 211.515353 
L 286.547858 211.405521 
L 288.312321 211.028244 
L 290.076784 210.412117 
L 292.093313 209.455246 
L 294.361908 208.111819 
L 297.134635 206.178736 
L 300.915627 203.232129 
L 307.217279 198.292491 
L 309.990007 196.411741 
L 312.258602 195.127921 
L 314.275131 194.236723 
L 316.039594 193.687854 
L 317.804056 193.386976 
L 319.568519 193.338304 
L 328.642899 193.424584 
L 330.407362 193.776091 
L 332.171825 194.369568 
L 334.188354 195.304373 
L 336.456949 196.627848 
L 338.97761 198.358703 
L 342.506536 201.075351 
L 349.816453 206.796861 
L 352.58918 208.642638 
L 354.857775 209.887315 
L 356.874304 210.735765 
L 358.638767 211.241088 
L 360.151164 211.473454 
L 361.915627 211.515353 
L 411.824717 211.515353 
L 411.824717 211.515353 
" clip-path="url(#pc6a418f1ec)" style="fill: none; stroke: #dc8932; stroke-opacity: 0.75; stroke-width: 3; stroke-linecap: square"/>
   </g>
   <g id="line2d_34">
    <path d="M 153.961081 193.338304 
L 159.506536 193.419002 
L 161.018932 193.699015 
L 162.783395 194.253862 
L 164.799924 195.150917 
L 167.068519 196.440078 
L 169.58918 198.142935 
L 172.86604 200.638224 
L 181.184222 207.122267 
L 183.704883 208.76708 
L 185.973478 209.986278 
L 187.990007 210.807047 
L 189.75447 211.284262 
L 191.266866 211.489647 
L 193.535461 211.515353 
L 201.853643 211.425428 
L 203.618106 211.069703 
L 205.382569 210.472518 
L 207.399098 209.534096 
L 209.667693 208.207346 
L 212.44042 206.288782 
L 216.221412 203.351581 
L 222.775131 198.21755 
L 225.547858 196.347687 
L 227.816453 195.076107 
L 229.832982 194.198306 
L 231.597445 193.663102 
L 233.361908 193.377704 
L 235.378436 193.338304 
L 243.192486 193.238898 
L 243.696618 192.904691 
L 244.200751 192.341922 
L 244.956949 191.085024 
L 245.713147 189.354509 
L 246.721412 186.352569 
L 247.729676 182.609804 
L 248.990007 176.977628 
L 250.502403 168.969261 
L 252.266866 158.149598 
L 254.283395 144.216503 
L 256.804056 125.125905 
L 266.130503 52.713984 
L 268.147032 39.670198 
L 269.659428 31.141927 
L 271.171825 23.905775 
L 272.432156 19.003437 
L 273.44042 15.901045 
L 274.448684 13.589704 
L 275.204883 12.410099 
L 275.709015 11.901006 
L 276.213147 11.622191 
L 276.969346 11.567812 
L 327.634635 11.633586 
L 328.138767 11.948713 
L 328.642899 12.516885 
L 329.399098 13.826219 
L 330.155296 15.660195 
L 331.16356 18.875244 
L 332.171825 22.911715 
L 333.432156 29.015556 
L 334.944552 37.728336 
L 336.456949 47.752797 
L 338.473478 62.788215 
L 340.994139 83.550205 
L 345.279263 121.203041 
L 348.808189 151.493768 
L 351.076784 169.253065 
L 352.841246 181.582454 
L 354.353643 190.833266 
L 355.613974 197.449519 
L 356.874304 202.939884 
L 357.882569 206.438078 
L 358.890833 209.072633 
L 359.647032 210.443534 
L 360.151164 211.054462 
L 360.655296 211.413712 
L 361.159428 211.515353 
L 411.824717 211.515353 
L 411.824717 211.515353 
" clip-path="url(#pc6a418f1ec)" style="fill: none; stroke: #f77189; stroke-opacity: 0.75; stroke-width: 3; stroke-linecap: square"/>
   </g>
  </g>
  <g id="axes_2">
   <g id="patch_3">
    <path d="M 149.733808 229.692403 
L 149.733808 196.973714 
L 428.733808 196.973714 
L 428.733808 229.692403 
z
" clip-path="url(#pc6a418f1ec)" style="fill: #f08080; opacity: 0.25"/>
   </g>
   <g id="patch_4">
    <path d="M 149.733808 196.973714 
L 149.733808 132.74814 
L 428.733808 132.74814 
L 428.733808 196.973714 
z
" clip-path="url(#pc6a418f1ec)" style="fill: #ebf3ed; opacity: 0.25"/>
   </g>
   <g id="patch_5">
    <path d="M 149.733808 132.74814 
L 149.733808 72.157976 
L 428.733808 72.157976 
L 428.733808 132.74814 
z
" clip-path="url(#pc6a418f1ec)" style="fill: #acd0bb; opacity: 0.25"/>
   </g>
   <g id="patch_6">
    <path d="M 149.733808 72.157976 
L 149.733808 7.932403 
L 428.733808 7.932403 
L 428.733808 72.157976 
z
" clip-path="url(#pc6a418f1ec)" style="fill: #6dae89; opacity: 0.25"/>
   </g>
   <g id="matplotlib.axis_3">
    <g id="ytick_11">
     <g id="line2d_35">
      <defs>
       <path id="m574cb10816" d="M 0 0 
L 3.5 0 
" style="stroke: #000000; stroke-width: 0.8"/>
      </defs>
      <g>
       <use xlink:href="#m574cb10816" x="428.733808" y="213.333058" style="stroke: #000000; stroke-width: 0.8"/>
      </g>
     </g>
     <g id="text_18">
      <!-- N/A -->
      <g transform="translate(444.323183 229.042746) rotate(-90) scale(0.12 -0.12)">
       <defs>
        <path id="ArialMT-2f" d="M 0 -78 
L 1328 4659 
L 1778 4659 
L 453 -78 
L 0 -78 
z
" transform="scale(0.015625)"/>
       </defs>
       <use xlink:href="#ArialMT-4e"/>
       <use xlink:href="#ArialMT-2f" x="72.216797"/>
       <use xlink:href="#ArialMT-41" x="100"/>
      </g>
     </g>
    </g>
    <g id="ytick_12">
     <g id="line2d_36">
      <g>
       <use xlink:href="#m574cb10816" x="428.733808" y="164.860927" style="stroke: #000000; stroke-width: 0.8"/>
      </g>
     </g>
     <g id="text_19">
      <!-- Low -->
      <g transform="translate(444.323183 182.57874) rotate(-90) scale(0.12 -0.12)">
       <defs>
        <path id="ArialMT-77" d="M 1034 0 
L 19 3319 
L 600 3319 
L 1128 1403 
L 1325 691 
Q 1338 744 1497 1375 
L 2025 3319 
L 2603 3319 
L 3100 1394 
L 3266 759 
L 3456 1400 
L 4025 3319 
L 4572 3319 
L 3534 0 
L 2950 0 
L 2422 1988 
L 2294 2553 
L 1622 0 
L 1034 0 
z
" transform="scale(0.015625)"/>
       </defs>
       <use xlink:href="#ArialMT-4c"/>
       <use xlink:href="#ArialMT-6f" x="55.615234"/>
       <use xlink:href="#ArialMT-77" x="111.230469"/>
      </g>
     </g>
    </g>
    <g id="ytick_13">
     <g id="line2d_37">
      <g>
       <use xlink:href="#m574cb10816" x="428.733808" y="102.453058" style="stroke: #000000; stroke-width: 0.8"/>
      </g>
     </g>
     <g id="text_20">
      <!-- Med -->
      <g transform="translate(444.323183 121.500246) rotate(-90) scale(0.12 -0.12)">
       <use xlink:href="#ArialMT-4d"/>
       <use xlink:href="#ArialMT-65" x="83.300781"/>
       <use xlink:href="#ArialMT-64" x="138.916016"/>
      </g>
     </g>
    </g>
    <g id="ytick_14">
     <g id="line2d_38">
      <g>
       <use xlink:href="#m574cb10816" x="428.733808" y="40.04519" style="stroke: #000000; stroke-width: 0.8"/>
      </g>
     </g>
     <g id="text_21">
      <!-- High -->
      <g transform="translate(444.323183 60.429252) rotate(-90) scale(0.12 -0.12)">
       <use xlink:href="#ArialMT-48"/>
       <use xlink:href="#ArialMT-69" x="72.216797"/>
       <use xlink:href="#ArialMT-67" x="94.433594"/>
       <use xlink:href="#ArialMT-68" x="150.048828"/>
      </g>
     </g>
    </g>
    <g id="text_22">
     <!-- Relative Feature Value -->
     <g transform="translate(461.585527 194.547168) rotate(-90) scale(0.15 -0.15)">
      <defs>
       <path id="ArialMT-76" d="M 1344 0 
L 81 3319 
L 675 3319 
L 1388 1331 
Q 1503 1009 1600 663 
Q 1675 925 1809 1294 
L 2547 3319 
L 3125 3319 
L 1869 0 
L 1344 0 
z
" transform="scale(0.015625)"/>
       <path id="ArialMT-56" d="M 1803 0 
L 28 4581 
L 684 4581 
L 1875 1253 
Q 2019 853 2116 503 
Q 2222 878 2363 1253 
L 3600 4581 
L 4219 4581 
L 2425 0 
L 1803 0 
z
" transform="scale(0.015625)"/>
      </defs>
      <use xlink:href="#ArialMT-52"/>
      <use xlink:href="#ArialMT-65" x="72.216797"/>
      <use xlink:href="#ArialMT-6c" x="127.832031"/>
      <use xlink:href="#ArialMT-61" x="150.048828"/>
      <use xlink:href="#ArialMT-74" x="205.664062"/>
      <use xlink:href="#ArialMT-69" x="233.447266"/>
      <use xlink:href="#ArialMT-76" x="255.664062"/>
      <use xlink:href="#ArialMT-65" x="305.664062"/>
      <use xlink:href="#ArialMT-20" x="361.279297"/>
      <use xlink:href="#ArialMT-46" x="389.0625"/>
      <use xlink:href="#ArialMT-65" x="450.146484"/>
      <use xlink:href="#ArialMT-61" x="505.761719"/>
      <use xlink:href="#ArialMT-74" x="561.376953"/>
      <use xlink:href="#ArialMT-75" x="589.160156"/>
      <use xlink:href="#ArialMT-72" x="644.775391"/>
      <use xlink:href="#ArialMT-65" x="678.076172"/>
      <use xlink:href="#ArialMT-20" x="733.691406"/>
      <use xlink:href="#ArialMT-56" x="761.474609"/>
      <use xlink:href="#ArialMT-61" x="820.798828"/>
      <use xlink:href="#ArialMT-6c" x="876.414062"/>
      <use xlink:href="#ArialMT-75" x="898.630859"/>
      <use xlink:href="#ArialMT-65" x="954.246094"/>
     </g>
    </g>
   </g>
   <g id="patch_7">
    <path d="M 149.733808 229.692403 
L 149.733808 7.932403 
" style="fill: none; stroke: #000000; stroke-width: 0.8; stroke-linejoin: miter; stroke-linecap: square"/>
   </g>
   <g id="patch_8">
    <path d="M 428.733808 229.692403 
L 428.733808 7.932403 
" style="fill: none; stroke: #000000; stroke-width: 0.8; stroke-linejoin: miter; stroke-linecap: square"/>
   </g>
   <g id="patch_9">
    <path d="M 149.733808 229.692403 
L 428.733808 229.692403 
" style="fill: none; stroke: #000000; stroke-width: 0.8; stroke-linejoin: miter; stroke-linecap: square"/>
   </g>
   <g id="patch_10">
    <path d="M 149.733808 7.932403 
L 428.733808 7.932403 
" style="fill: none; stroke: #000000; stroke-width: 0.8; stroke-linejoin: miter; stroke-linecap: square"/>
   </g>
  </g>
 </g>
 <defs>
  <clipPath id="pc6a418f1ec">
   <rect x="149.733808" y="7.932403" width="279" height="221.76"/>
  </clipPath>
 </defs>
</svg>
