<?xml version="1.0" encoding="utf-8" standalone="no"?>
<!DOCTYPE svg PUBLIC "-//W3C//DTD SVG 1.1//EN"
  "http://www.w3.org/Graphics/SVG/1.1/DTD/svg11.dtd">
<svg xmlns:xlink="http://www.w3.org/1999/xlink" width="471.766777pt" height="258.727108pt" viewBox="0 0 471.766777 258.727108" xmlns="http://www.w3.org/2000/svg" version="1.1">
 <metadata>
  <rdf:RDF xmlns:dc="http://purl.org/dc/elements/1.1/" xmlns:cc="http://creativecommons.org/ns#" xmlns:rdf="http://www.w3.org/1999/02/22-rdf-syntax-ns#">
   <cc:Work>
    <dc:type rdf:resource="http://purl.org/dc/dcmitype/StillImage"/>
    <dc:date>2023-11-29T15:12:24.703461</dc:date>
    <dc:format>image/svg+xml</dc:format>
    <dc:creator>
     <cc:Agent>
      <dc:title>Matplotlib v3.6.3, https://matplotlib.org/</dc:title>
     </cc:Agent>
    </dc:creator>
   </cc:Work>
  </rdf:RDF>
 </metadata>
 <defs>
  <style type="text/css">*{stroke-linejoin: round; stroke-linecap: butt}</style>
 </defs>
 <g id="figure_1">
  <g id="patch_1">
   <path d="M 0 258.727108 
L 471.766777 258.727108 
L 471.766777 0 
L 0 0 
L 0 258.727108 
z
" style="fill: none"/>
  </g>
  <g id="axes_1">
   <g id="patch_2">
    <path d="M 149.733808 229.692403 
L 428.733808 229.692403 
L 428.733808 7.932403 
L 149.733808 7.932403 
L 149.733808 229.692403 
z
" style="fill: none"/>
   </g>
   <g id="matplotlib.axis_1">
    <g id="xtick_1">
     <g id="line2d_1">
      <path d="M 153.961081 229.692403 
L 153.961081 7.932403 
" clip-path="url(#p37a6c9ce5f)" style="fill: none; stroke: #000000; stroke-opacity: 0.8; stroke-width: 0.8; stroke-linecap: square"/>
     </g>
     <g id="line2d_2">
      <defs>
       <path id="m84d820ff85" d="M 0 0 
L 0 3.5 
" style="stroke: #000000; stroke-width: 0.8"/>
      </defs>
      <g>
       <use xlink:href="#m84d820ff85" x="153.961081" y="229.692403" style="stroke: #000000; stroke-width: 0.8"/>
      </g>
     </g>
     <g id="text_1">
      <!-- Feature -->
      <g transform="translate(133.285456 245.281778) scale(0.12 -0.12)">
       <defs>
        <path id="ArialMT-46" d="M 525 0 
L 525 4581 
L 3616 4581 
L 3616 4041 
L 1131 4041 
L 1131 2622 
L 3281 2622 
L 3281 2081 
L 1131 2081 
L 1131 0 
L 525 0 
z
" transform="scale(0.015625)"/>
        <path id="ArialMT-65" d="M 2694 1069 
L 3275 997 
Q 3138 488 2766 206 
Q 2394 -75 1816 -75 
Q 1088 -75 661 373 
Q 234 822 234 1631 
Q 234 2469 665 2931 
Q 1097 3394 1784 3394 
Q 2450 3394 2872 2941 
Q 3294 2488 3294 1666 
Q 3294 1616 3291 1516 
L 816 1516 
Q 847 969 1125 678 
Q 1403 388 1819 388 
Q 2128 388 2347 550 
Q 2566 713 2694 1069 
z
M 847 1978 
L 2700 1978 
Q 2663 2397 2488 2606 
Q 2219 2931 1791 2931 
Q 1403 2931 1139 2672 
Q 875 2413 847 1978 
z
" transform="scale(0.015625)"/>
        <path id="ArialMT-61" d="M 2588 409 
Q 2275 144 1986 34 
Q 1697 -75 1366 -75 
Q 819 -75 525 192 
Q 231 459 231 875 
Q 231 1119 342 1320 
Q 453 1522 633 1644 
Q 813 1766 1038 1828 
Q 1203 1872 1538 1913 
Q 2219 1994 2541 2106 
Q 2544 2222 2544 2253 
Q 2544 2597 2384 2738 
Q 2169 2928 1744 2928 
Q 1347 2928 1158 2789 
Q 969 2650 878 2297 
L 328 2372 
Q 403 2725 575 2942 
Q 747 3159 1072 3276 
Q 1397 3394 1825 3394 
Q 2250 3394 2515 3294 
Q 2781 3194 2906 3042 
Q 3031 2891 3081 2659 
Q 3109 2516 3109 2141 
L 3109 1391 
Q 3109 606 3145 398 
Q 3181 191 3288 0 
L 2700 0 
Q 2613 175 2588 409 
z
M 2541 1666 
Q 2234 1541 1622 1453 
Q 1275 1403 1131 1340 
Q 988 1278 909 1158 
Q 831 1038 831 891 
Q 831 666 1001 516 
Q 1172 366 1500 366 
Q 1825 366 2078 508 
Q 2331 650 2450 897 
Q 2541 1088 2541 1459 
L 2541 1666 
z
" transform="scale(0.015625)"/>
        <path id="ArialMT-74" d="M 1650 503 
L 1731 6 
Q 1494 -44 1306 -44 
Q 1000 -44 831 53 
Q 663 150 594 308 
Q 525 466 525 972 
L 525 2881 
L 113 2881 
L 113 3319 
L 525 3319 
L 525 4141 
L 1084 4478 
L 1084 3319 
L 1650 3319 
L 1650 2881 
L 1084 2881 
L 1084 941 
Q 1084 700 1114 631 
Q 1144 563 1211 522 
Q 1278 481 1403 481 
Q 1497 481 1650 503 
z
" transform="scale(0.015625)"/>
        <path id="ArialMT-75" d="M 2597 0 
L 2597 488 
Q 2209 -75 1544 -75 
Q 1250 -75 995 37 
Q 741 150 617 320 
Q 494 491 444 738 
Q 409 903 409 1263 
L 409 3319 
L 972 3319 
L 972 1478 
Q 972 1038 1006 884 
Q 1059 663 1231 536 
Q 1403 409 1656 409 
Q 1909 409 2131 539 
Q 2353 669 2445 892 
Q 2538 1116 2538 1541 
L 2538 3319 
L 3100 3319 
L 3100 0 
L 2597 0 
z
" transform="scale(0.015625)"/>
        <path id="ArialMT-72" d="M 416 0 
L 416 3319 
L 922 3319 
L 922 2816 
Q 1116 3169 1280 3281 
Q 1444 3394 1641 3394 
Q 1925 3394 2219 3213 
L 2025 2691 
Q 1819 2813 1613 2813 
Q 1428 2813 1281 2702 
Q 1134 2591 1072 2394 
Q 978 2094 978 1738 
L 978 0 
L 416 0 
z
" transform="scale(0.015625)"/>
       </defs>
       <use xlink:href="#ArialMT-46"/>
       <use xlink:href="#ArialMT-65" x="61.083984"/>
       <use xlink:href="#ArialMT-61" x="116.699219"/>
       <use xlink:href="#ArialMT-74" x="172.314453"/>
       <use xlink:href="#ArialMT-75" x="200.097656"/>
       <use xlink:href="#ArialMT-72" x="255.712891"/>
       <use xlink:href="#ArialMT-65" x="289.013672"/>
      </g>
     </g>
    </g>
    <g id="xtick_2">
     <g id="line2d_3">
      <path d="M 196.233808 229.692403 
L 196.233808 7.932403 
" clip-path="url(#p37a6c9ce5f)" style="fill: none; stroke: #000000; stroke-opacity: 0.8; stroke-width: 0.8; stroke-linecap: square"/>
     </g>
     <g id="line2d_4">
      <g>
       <use xlink:href="#m84d820ff85" x="196.233808" y="229.692403" style="stroke: #000000; stroke-width: 0.8"/>
      </g>
     </g>
     <g id="text_2">
      <!-- B16 -->
      <g transform="translate(185.558496 245.281778) scale(0.12 -0.12)">
       <defs>
        <path id="ArialMT-42" d="M 469 0 
L 469 4581 
L 2188 4581 
Q 2713 4581 3030 4442 
Q 3347 4303 3526 4014 
Q 3706 3725 3706 3409 
Q 3706 3116 3547 2856 
Q 3388 2597 3066 2438 
Q 3481 2316 3704 2022 
Q 3928 1728 3928 1328 
Q 3928 1006 3792 729 
Q 3656 453 3456 303 
Q 3256 153 2954 76 
Q 2653 0 2216 0 
L 469 0 
z
M 1075 2656 
L 2066 2656 
Q 2469 2656 2644 2709 
Q 2875 2778 2992 2937 
Q 3109 3097 3109 3338 
Q 3109 3566 3000 3739 
Q 2891 3913 2687 3977 
Q 2484 4041 1991 4041 
L 1075 4041 
L 1075 2656 
z
M 1075 541 
L 2216 541 
Q 2509 541 2628 563 
Q 2838 600 2978 687 
Q 3119 775 3209 942 
Q 3300 1109 3300 1328 
Q 3300 1584 3169 1773 
Q 3038 1963 2805 2039 
Q 2572 2116 2134 2116 
L 1075 2116 
L 1075 541 
z
" transform="scale(0.015625)"/>
        <path id="ArialMT-31" d="M 2384 0 
L 1822 0 
L 1822 3584 
Q 1619 3391 1289 3197 
Q 959 3003 697 2906 
L 697 3450 
Q 1169 3672 1522 3987 
Q 1875 4303 2022 4600 
L 2384 4600 
L 2384 0 
z
" transform="scale(0.015625)"/>
        <path id="ArialMT-36" d="M 3184 3459 
L 2625 3416 
Q 2550 3747 2413 3897 
Q 2184 4138 1850 4138 
Q 1581 4138 1378 3988 
Q 1113 3794 959 3422 
Q 806 3050 800 2363 
Q 1003 2672 1297 2822 
Q 1591 2972 1913 2972 
Q 2475 2972 2870 2558 
Q 3266 2144 3266 1488 
Q 3266 1056 3080 686 
Q 2894 316 2569 119 
Q 2244 -78 1831 -78 
Q 1128 -78 684 439 
Q 241 956 241 2144 
Q 241 3472 731 4075 
Q 1159 4600 1884 4600 
Q 2425 4600 2770 4297 
Q 3116 3994 3184 3459 
z
M 888 1484 
Q 888 1194 1011 928 
Q 1134 663 1356 523 
Q 1578 384 1822 384 
Q 2178 384 2434 671 
Q 2691 959 2691 1453 
Q 2691 1928 2437 2201 
Q 2184 2475 1800 2475 
Q 1419 2475 1153 2201 
Q 888 1928 888 1484 
z
" transform="scale(0.015625)"/>
       </defs>
       <use xlink:href="#ArialMT-42"/>
       <use xlink:href="#ArialMT-31" x="66.699219"/>
       <use xlink:href="#ArialMT-36" x="122.314453"/>
      </g>
     </g>
    </g>
    <g id="xtick_3">
     <g id="line2d_5">
      <path d="M 238.506536 229.692403 
L 238.506536 7.932403 
" clip-path="url(#p37a6c9ce5f)" style="fill: none; stroke: #000000; stroke-opacity: 0.8; stroke-width: 0.8; stroke-linecap: square"/>
     </g>
     <g id="line2d_6">
      <g>
       <use xlink:href="#m84d820ff85" x="238.506536" y="229.692403" style="stroke: #000000; stroke-width: 0.8"/>
      </g>
     </g>
     <g id="text_3">
      <!-- HepG2 -->
      <g transform="translate(219.496848 245.428028) scale(0.12 -0.12)">
       <defs>
        <path id="ArialMT-48" d="M 513 0 
L 513 4581 
L 1119 4581 
L 1119 2700 
L 3500 2700 
L 3500 4581 
L 4106 4581 
L 4106 0 
L 3500 0 
L 3500 2159 
L 1119 2159 
L 1119 0 
L 513 0 
z
" transform="scale(0.015625)"/>
        <path id="ArialMT-70" d="M 422 -1272 
L 422 3319 
L 934 3319 
L 934 2888 
Q 1116 3141 1344 3267 
Q 1572 3394 1897 3394 
Q 2322 3394 2647 3175 
Q 2972 2956 3137 2557 
Q 3303 2159 3303 1684 
Q 3303 1175 3120 767 
Q 2938 359 2589 142 
Q 2241 -75 1856 -75 
Q 1575 -75 1351 44 
Q 1128 163 984 344 
L 984 -1272 
L 422 -1272 
z
M 931 1641 
Q 931 1000 1190 694 
Q 1450 388 1819 388 
Q 2194 388 2461 705 
Q 2728 1022 2728 1688 
Q 2728 2322 2467 2637 
Q 2206 2953 1844 2953 
Q 1484 2953 1207 2617 
Q 931 2281 931 1641 
z
" transform="scale(0.015625)"/>
        <path id="ArialMT-47" d="M 2638 1797 
L 2638 2334 
L 4578 2338 
L 4578 638 
Q 4131 281 3656 101 
Q 3181 -78 2681 -78 
Q 2006 -78 1454 211 
Q 903 500 622 1047 
Q 341 1594 341 2269 
Q 341 2938 620 3517 
Q 900 4097 1425 4378 
Q 1950 4659 2634 4659 
Q 3131 4659 3532 4498 
Q 3934 4338 4162 4050 
Q 4391 3763 4509 3300 
L 3963 3150 
Q 3859 3500 3706 3700 
Q 3553 3900 3268 4020 
Q 2984 4141 2638 4141 
Q 2222 4141 1919 4014 
Q 1616 3888 1430 3681 
Q 1244 3475 1141 3228 
Q 966 2803 966 2306 
Q 966 1694 1177 1281 
Q 1388 869 1791 669 
Q 2194 469 2647 469 
Q 3041 469 3416 620 
Q 3791 772 3984 944 
L 3984 1797 
L 2638 1797 
z
" transform="scale(0.015625)"/>
        <path id="ArialMT-32" d="M 3222 541 
L 3222 0 
L 194 0 
Q 188 203 259 391 
Q 375 700 629 1000 
Q 884 1300 1366 1694 
Q 2113 2306 2375 2664 
Q 2638 3022 2638 3341 
Q 2638 3675 2398 3904 
Q 2159 4134 1775 4134 
Q 1369 4134 1125 3890 
Q 881 3647 878 3216 
L 300 3275 
Q 359 3922 746 4261 
Q 1134 4600 1788 4600 
Q 2447 4600 2831 4234 
Q 3216 3869 3216 3328 
Q 3216 3053 3103 2787 
Q 2991 2522 2730 2228 
Q 2469 1934 1863 1422 
Q 1356 997 1212 845 
Q 1069 694 975 541 
L 3222 541 
z
" transform="scale(0.015625)"/>
       </defs>
       <use xlink:href="#ArialMT-48"/>
       <use xlink:href="#ArialMT-65" x="72.216797"/>
       <use xlink:href="#ArialMT-70" x="127.832031"/>
       <use xlink:href="#ArialMT-47" x="183.447266"/>
       <use xlink:href="#ArialMT-32" x="261.230469"/>
      </g>
     </g>
    </g>
    <g id="xtick_4">
     <g id="line2d_7">
      <path d="M 280.779263 229.692403 
L 280.779263 7.932403 
" clip-path="url(#p37a6c9ce5f)" style="fill: none; stroke: #000000; stroke-opacity: 0.8; stroke-width: 0.8; stroke-linecap: square"/>
     </g>
     <g id="line2d_8">
      <g>
       <use xlink:href="#m84d820ff85" x="280.779263" y="229.692403" style="stroke: #000000; stroke-width: 0.8"/>
      </g>
     </g>
     <g id="text_4">
      <!-- PC3 -->
      <g transform="translate(269.107388 245.281778) scale(0.12 -0.12)">
       <defs>
        <path id="ArialMT-50" d="M 494 0 
L 494 4581 
L 2222 4581 
Q 2678 4581 2919 4538 
Q 3256 4481 3484 4323 
Q 3713 4166 3852 3881 
Q 3991 3597 3991 3256 
Q 3991 2672 3619 2267 
Q 3247 1863 2275 1863 
L 1100 1863 
L 1100 0 
L 494 0 
z
M 1100 2403 
L 2284 2403 
Q 2872 2403 3119 2622 
Q 3366 2841 3366 3238 
Q 3366 3525 3220 3729 
Q 3075 3934 2838 4000 
Q 2684 4041 2272 4041 
L 1100 4041 
L 1100 2403 
z
" transform="scale(0.015625)"/>
        <path id="ArialMT-43" d="M 3763 1606 
L 4369 1453 
Q 4178 706 3683 314 
Q 3188 -78 2472 -78 
Q 1731 -78 1267 223 
Q 803 525 561 1097 
Q 319 1669 319 2325 
Q 319 3041 592 3573 
Q 866 4106 1370 4382 
Q 1875 4659 2481 4659 
Q 3169 4659 3637 4309 
Q 4106 3959 4291 3325 
L 3694 3184 
Q 3534 3684 3231 3912 
Q 2928 4141 2469 4141 
Q 1941 4141 1586 3887 
Q 1231 3634 1087 3207 
Q 944 2781 944 2328 
Q 944 1744 1114 1308 
Q 1284 872 1643 656 
Q 2003 441 2422 441 
Q 2931 441 3284 734 
Q 3638 1028 3763 1606 
z
" transform="scale(0.015625)"/>
        <path id="ArialMT-33" d="M 269 1209 
L 831 1284 
Q 928 806 1161 595 
Q 1394 384 1728 384 
Q 2125 384 2398 659 
Q 2672 934 2672 1341 
Q 2672 1728 2419 1979 
Q 2166 2231 1775 2231 
Q 1616 2231 1378 2169 
L 1441 2663 
Q 1497 2656 1531 2656 
Q 1891 2656 2178 2843 
Q 2466 3031 2466 3422 
Q 2466 3731 2256 3934 
Q 2047 4138 1716 4138 
Q 1388 4138 1169 3931 
Q 950 3725 888 3313 
L 325 3413 
Q 428 3978 793 4289 
Q 1159 4600 1703 4600 
Q 2078 4600 2393 4439 
Q 2709 4278 2876 4000 
Q 3044 3722 3044 3409 
Q 3044 3113 2884 2869 
Q 2725 2625 2413 2481 
Q 2819 2388 3044 2092 
Q 3269 1797 3269 1353 
Q 3269 753 2831 336 
Q 2394 -81 1725 -81 
Q 1122 -81 723 278 
Q 325 638 269 1209 
z
" transform="scale(0.015625)"/>
       </defs>
       <use xlink:href="#ArialMT-50"/>
       <use xlink:href="#ArialMT-43" x="66.699219"/>
       <use xlink:href="#ArialMT-33" x="138.916016"/>
      </g>
     </g>
    </g>
    <g id="xtick_5">
     <g id="line2d_9">
      <path d="M 323.05199 229.692403 
L 323.05199 7.932403 
" clip-path="url(#p37a6c9ce5f)" style="fill: none; stroke: #000000; stroke-opacity: 0.8; stroke-width: 0.8; stroke-linecap: square"/>
     </g>
     <g id="line2d_10">
      <g>
       <use xlink:href="#m84d820ff85" x="323.05199" y="229.692403" style="stroke: #000000; stroke-width: 0.8"/>
      </g>
     </g>
     <g id="text_5">
      <!-- HEK293 -->
      <g transform="translate(300.704803 245.281778) scale(0.12 -0.12)">
       <defs>
        <path id="ArialMT-45" d="M 506 0 
L 506 4581 
L 3819 4581 
L 3819 4041 
L 1113 4041 
L 1113 2638 
L 3647 2638 
L 3647 2100 
L 1113 2100 
L 1113 541 
L 3925 541 
L 3925 0 
L 506 0 
z
" transform="scale(0.015625)"/>
        <path id="ArialMT-4b" d="M 469 0 
L 469 4581 
L 1075 4581 
L 1075 2309 
L 3350 4581 
L 4172 4581 
L 2250 2725 
L 4256 0 
L 3456 0 
L 1825 2319 
L 1075 1588 
L 1075 0 
L 469 0 
z
" transform="scale(0.015625)"/>
        <path id="ArialMT-39" d="M 350 1059 
L 891 1109 
Q 959 728 1153 556 
Q 1347 384 1650 384 
Q 1909 384 2104 503 
Q 2300 622 2425 820 
Q 2550 1019 2634 1356 
Q 2719 1694 2719 2044 
Q 2719 2081 2716 2156 
Q 2547 1888 2255 1720 
Q 1963 1553 1622 1553 
Q 1053 1553 659 1965 
Q 266 2378 266 3053 
Q 266 3750 677 4175 
Q 1088 4600 1706 4600 
Q 2153 4600 2523 4359 
Q 2894 4119 3086 3673 
Q 3278 3228 3278 2384 
Q 3278 1506 3087 986 
Q 2897 466 2520 194 
Q 2144 -78 1638 -78 
Q 1100 -78 759 220 
Q 419 519 350 1059 
z
M 2653 3081 
Q 2653 3566 2395 3850 
Q 2138 4134 1775 4134 
Q 1400 4134 1122 3828 
Q 844 3522 844 3034 
Q 844 2597 1108 2323 
Q 1372 2050 1759 2050 
Q 2150 2050 2401 2323 
Q 2653 2597 2653 3081 
z
" transform="scale(0.015625)"/>
       </defs>
       <use xlink:href="#ArialMT-48"/>
       <use xlink:href="#ArialMT-45" x="72.216797"/>
       <use xlink:href="#ArialMT-4b" x="138.916016"/>
       <use xlink:href="#ArialMT-32" x="205.615234"/>
       <use xlink:href="#ArialMT-39" x="261.230469"/>
       <use xlink:href="#ArialMT-33" x="316.845703"/>
      </g>
     </g>
    </g>
    <g id="xtick_6">
     <g id="line2d_11">
      <path d="M 365.324717 229.692403 
L 365.324717 7.932403 
" clip-path="url(#p37a6c9ce5f)" style="fill: none; stroke: #000000; stroke-opacity: 0.8; stroke-width: 0.8; stroke-linecap: square"/>
     </g>
     <g id="line2d_12">
      <g>
       <use xlink:href="#m84d820ff85" x="365.324717" y="229.692403" style="stroke: #000000; stroke-width: 0.8"/>
      </g>
     </g>
     <g id="text_6">
      <!-- N2a -->
      <g transform="translate(354.318467 245.281778) scale(0.12 -0.12)">
       <defs>
        <path id="ArialMT-4e" d="M 488 0 
L 488 4581 
L 1109 4581 
L 3516 984 
L 3516 4581 
L 4097 4581 
L 4097 0 
L 3475 0 
L 1069 3600 
L 1069 0 
L 488 0 
z
" transform="scale(0.015625)"/>
       </defs>
       <use xlink:href="#ArialMT-4e"/>
       <use xlink:href="#ArialMT-32" x="72.216797"/>
       <use xlink:href="#ArialMT-61" x="127.832031"/>
      </g>
     </g>
    </g>
    <g id="xtick_7">
     <g id="line2d_13">
      <path d="M 407.597445 229.692403 
L 407.597445 7.932403 
" clip-path="url(#p37a6c9ce5f)" style="fill: none; stroke: #000000; stroke-opacity: 0.8; stroke-width: 0.8; stroke-linecap: square"/>
     </g>
     <g id="line2d_14">
      <g>
       <use xlink:href="#m84d820ff85" x="407.597445" y="229.692403" style="stroke: #000000; stroke-width: 0.8"/>
      </g>
     </g>
     <g id="text_7">
      <!-- ARPE19 -->
      <g transform="translate(384.584632 245.281778) scale(0.12 -0.12)">
       <defs>
        <path id="ArialMT-41" d="M -9 0 
L 1750 4581 
L 2403 4581 
L 4278 0 
L 3588 0 
L 3053 1388 
L 1138 1388 
L 634 0 
L -9 0 
z
M 1313 1881 
L 2866 1881 
L 2388 3150 
Q 2169 3728 2063 4100 
Q 1975 3659 1816 3225 
L 1313 1881 
z
" transform="scale(0.015625)"/>
        <path id="ArialMT-52" d="M 503 0 
L 503 4581 
L 2534 4581 
Q 3147 4581 3465 4457 
Q 3784 4334 3975 4021 
Q 4166 3709 4166 3331 
Q 4166 2844 3850 2509 
Q 3534 2175 2875 2084 
Q 3116 1969 3241 1856 
Q 3506 1613 3744 1247 
L 4541 0 
L 3778 0 
L 3172 953 
Q 2906 1366 2734 1584 
Q 2563 1803 2427 1890 
Q 2291 1978 2150 2013 
Q 2047 2034 1813 2034 
L 1109 2034 
L 1109 0 
L 503 0 
z
M 1109 2559 
L 2413 2559 
Q 2828 2559 3062 2645 
Q 3297 2731 3419 2920 
Q 3541 3109 3541 3331 
Q 3541 3656 3305 3865 
Q 3069 4075 2559 4075 
L 1109 4075 
L 1109 2559 
z
" transform="scale(0.015625)"/>
       </defs>
       <use xlink:href="#ArialMT-41"/>
       <use xlink:href="#ArialMT-52" x="66.699219"/>
       <use xlink:href="#ArialMT-50" x="138.916016"/>
       <use xlink:href="#ArialMT-45" x="205.615234"/>
       <use xlink:href="#ArialMT-31" x="272.314453"/>
       <use xlink:href="#ArialMT-39" x="327.929688"/>
      </g>
     </g>
    </g>
   </g>
   <g id="matplotlib.axis_2">
    <g id="ytick_1">
     <g id="line2d_15">
      <defs>
       <path id="m5fe1ad9650" d="M 0 0 
L -3.5 0 
" style="stroke: #000000; stroke-width: 0.8"/>
      </defs>
      <g>
       <use xlink:href="#m5fe1ad9650" x="149.733808" y="193.338304" style="stroke: #000000; stroke-width: 0.8"/>
      </g>
     </g>
     <g id="text_8">
      <!-- Double_bonds -->
      <g transform="translate(86.323923 249.840658) rotate(-45) scale(0.12 -0.12)">
       <defs>
        <path id="ArialMT-44" d="M 494 0 
L 494 4581 
L 2072 4581 
Q 2606 4581 2888 4516 
Q 3281 4425 3559 4188 
Q 3922 3881 4101 3404 
Q 4281 2928 4281 2316 
Q 4281 1794 4159 1391 
Q 4038 988 3847 723 
Q 3656 459 3429 307 
Q 3203 156 2883 78 
Q 2563 0 2147 0 
L 494 0 
z
M 1100 541 
L 2078 541 
Q 2531 541 2789 625 
Q 3047 709 3200 863 
Q 3416 1078 3536 1442 
Q 3656 1806 3656 2325 
Q 3656 3044 3420 3430 
Q 3184 3816 2847 3947 
Q 2603 4041 2063 4041 
L 1100 4041 
L 1100 541 
z
" transform="scale(0.015625)"/>
        <path id="ArialMT-6f" d="M 213 1659 
Q 213 2581 725 3025 
Q 1153 3394 1769 3394 
Q 2453 3394 2887 2945 
Q 3322 2497 3322 1706 
Q 3322 1066 3130 698 
Q 2938 331 2570 128 
Q 2203 -75 1769 -75 
Q 1072 -75 642 372 
Q 213 819 213 1659 
z
M 791 1659 
Q 791 1022 1069 705 
Q 1347 388 1769 388 
Q 2188 388 2466 706 
Q 2744 1025 2744 1678 
Q 2744 2294 2464 2611 
Q 2184 2928 1769 2928 
Q 1347 2928 1069 2612 
Q 791 2297 791 1659 
z
" transform="scale(0.015625)"/>
        <path id="ArialMT-62" d="M 941 0 
L 419 0 
L 419 4581 
L 981 4581 
L 981 2947 
Q 1338 3394 1891 3394 
Q 2197 3394 2470 3270 
Q 2744 3147 2920 2923 
Q 3097 2700 3197 2384 
Q 3297 2069 3297 1709 
Q 3297 856 2875 390 
Q 2453 -75 1863 -75 
Q 1275 -75 941 416 
L 941 0 
z
M 934 1684 
Q 934 1088 1097 822 
Q 1363 388 1816 388 
Q 2184 388 2453 708 
Q 2722 1028 2722 1663 
Q 2722 2313 2464 2622 
Q 2206 2931 1841 2931 
Q 1472 2931 1203 2611 
Q 934 2291 934 1684 
z
" transform="scale(0.015625)"/>
        <path id="ArialMT-6c" d="M 409 0 
L 409 4581 
L 972 4581 
L 972 0 
L 409 0 
z
" transform="scale(0.015625)"/>
        <path id="ArialMT-5f" d="M -97 -1272 
L -97 -866 
L 3631 -866 
L 3631 -1272 
L -97 -1272 
z
" transform="scale(0.015625)"/>
        <path id="ArialMT-6e" d="M 422 0 
L 422 3319 
L 928 3319 
L 928 2847 
Q 1294 3394 1984 3394 
Q 2284 3394 2536 3286 
Q 2788 3178 2913 3003 
Q 3038 2828 3088 2588 
Q 3119 2431 3119 2041 
L 3119 0 
L 2556 0 
L 2556 2019 
Q 2556 2363 2490 2533 
Q 2425 2703 2258 2804 
Q 2091 2906 1866 2906 
Q 1506 2906 1245 2678 
Q 984 2450 984 1813 
L 984 0 
L 422 0 
z
" transform="scale(0.015625)"/>
        <path id="ArialMT-64" d="M 2575 0 
L 2575 419 
Q 2259 -75 1647 -75 
Q 1250 -75 917 144 
Q 584 363 401 755 
Q 219 1147 219 1656 
Q 219 2153 384 2558 
Q 550 2963 881 3178 
Q 1213 3394 1622 3394 
Q 1922 3394 2156 3267 
Q 2391 3141 2538 2938 
L 2538 4581 
L 3097 4581 
L 3097 0 
L 2575 0 
z
M 797 1656 
Q 797 1019 1065 703 
Q 1334 388 1700 388 
Q 2069 388 2326 689 
Q 2584 991 2584 1609 
Q 2584 2291 2321 2609 
Q 2059 2928 1675 2928 
Q 1300 2928 1048 2622 
Q 797 2316 797 1656 
z
" transform="scale(0.015625)"/>
        <path id="ArialMT-73" d="M 197 991 
L 753 1078 
Q 800 744 1014 566 
Q 1228 388 1613 388 
Q 2000 388 2187 545 
Q 2375 703 2375 916 
Q 2375 1106 2209 1216 
Q 2094 1291 1634 1406 
Q 1016 1563 777 1677 
Q 538 1791 414 1992 
Q 291 2194 291 2438 
Q 291 2659 392 2848 
Q 494 3038 669 3163 
Q 800 3259 1026 3326 
Q 1253 3394 1513 3394 
Q 1903 3394 2198 3281 
Q 2494 3169 2634 2976 
Q 2775 2784 2828 2463 
L 2278 2388 
Q 2241 2644 2061 2787 
Q 1881 2931 1553 2931 
Q 1166 2931 1000 2803 
Q 834 2675 834 2503 
Q 834 2394 903 2306 
Q 972 2216 1119 2156 
Q 1203 2125 1616 2013 
Q 2213 1853 2448 1751 
Q 2684 1650 2818 1456 
Q 2953 1263 2953 975 
Q 2953 694 2789 445 
Q 2625 197 2315 61 
Q 2006 -75 1616 -75 
Q 969 -75 630 194 
Q 291 463 197 991 
z
" transform="scale(0.015625)"/>
       </defs>
       <use xlink:href="#ArialMT-44"/>
       <use xlink:href="#ArialMT-6f" x="72.216797"/>
       <use xlink:href="#ArialMT-75" x="127.832031"/>
       <use xlink:href="#ArialMT-62" x="183.447266"/>
       <use xlink:href="#ArialMT-6c" x="239.0625"/>
       <use xlink:href="#ArialMT-65" x="261.279297"/>
       <use xlink:href="#ArialMT-5f" x="316.894531"/>
       <use xlink:href="#ArialMT-62" x="372.509766"/>
       <use xlink:href="#ArialMT-6f" x="428.125"/>
       <use xlink:href="#ArialMT-6e" x="483.740234"/>
       <use xlink:href="#ArialMT-64" x="539.355469"/>
       <use xlink:href="#ArialMT-73" x="594.970703"/>
      </g>
     </g>
    </g>
    <g id="ytick_2">
     <g id="line2d_16">
      <g>
       <use xlink:href="#m5fe1ad9650" x="149.733808" y="173.141583" style="stroke: #000000; stroke-width: 0.8"/>
      </g>
     </g>
     <g id="text_9">
      <!-- Total_Carbon_Tails -->
      <g transform="translate(68.893299 247.10485) rotate(-45) scale(0.12 -0.12)">
       <defs>
        <path id="ArialMT-54" d="M 1659 0 
L 1659 4041 
L 150 4041 
L 150 4581 
L 3781 4581 
L 3781 4041 
L 2266 4041 
L 2266 0 
L 1659 0 
z
" transform="scale(0.015625)"/>
        <path id="ArialMT-69" d="M 425 3934 
L 425 4581 
L 988 4581 
L 988 3934 
L 425 3934 
z
M 425 0 
L 425 3319 
L 988 3319 
L 988 0 
L 425 0 
z
" transform="scale(0.015625)"/>
       </defs>
       <use xlink:href="#ArialMT-54"/>
       <use xlink:href="#ArialMT-6f" x="49.958984"/>
       <use xlink:href="#ArialMT-74" x="105.574219"/>
       <use xlink:href="#ArialMT-61" x="133.357422"/>
       <use xlink:href="#ArialMT-6c" x="188.972656"/>
       <use xlink:href="#ArialMT-5f" x="211.189453"/>
       <use xlink:href="#ArialMT-43" x="266.804688"/>
       <use xlink:href="#ArialMT-61" x="339.021484"/>
       <use xlink:href="#ArialMT-72" x="394.636719"/>
       <use xlink:href="#ArialMT-62" x="427.9375"/>
       <use xlink:href="#ArialMT-6f" x="483.552734"/>
       <use xlink:href="#ArialMT-6e" x="539.167969"/>
       <use xlink:href="#ArialMT-5f" x="594.783203"/>
       <use xlink:href="#ArialMT-54" x="650.398438"/>
       <use xlink:href="#ArialMT-61" x="700.357422"/>
       <use xlink:href="#ArialMT-69" x="755.972656"/>
       <use xlink:href="#ArialMT-6c" x="778.189453"/>
       <use xlink:href="#ArialMT-73" x="800.40625"/>
      </g>
     </g>
    </g>
    <g id="ytick_3">
     <g id="line2d_17">
      <g>
       <use xlink:href="#m5fe1ad9650" x="149.733808" y="152.944862" style="stroke: #000000; stroke-width: 0.8"/>
      </g>
     </g>
     <g id="text_10">
      <!-- Hbond_A -->
      <g transform="translate(105.666387 190.104751) rotate(-45) scale(0.12 -0.12)">
       <use xlink:href="#ArialMT-48"/>
       <use xlink:href="#ArialMT-62" x="72.216797"/>
       <use xlink:href="#ArialMT-6f" x="127.832031"/>
       <use xlink:href="#ArialMT-6e" x="183.447266"/>
       <use xlink:href="#ArialMT-64" x="239.0625"/>
       <use xlink:href="#ArialMT-5f" x="294.677734"/>
       <use xlink:href="#ArialMT-41" x="350.292969"/>
      </g>
     </g>
    </g>
    <g id="ytick_4">
     <g id="line2d_18">
      <g>
       <use xlink:href="#m5fe1ad9650" x="149.733808" y="132.74814" style="stroke: #000000; stroke-width: 0.8"/>
      </g>
     </g>
     <g id="text_11">
      <!-- Hbond_D -->
      <g transform="translate(105.198371 170.376046) rotate(-45) scale(0.12 -0.12)">
       <use xlink:href="#ArialMT-48"/>
       <use xlink:href="#ArialMT-62" x="72.216797"/>
       <use xlink:href="#ArialMT-6f" x="127.832031"/>
       <use xlink:href="#ArialMT-6e" x="183.447266"/>
       <use xlink:href="#ArialMT-64" x="239.0625"/>
       <use xlink:href="#ArialMT-5f" x="294.677734"/>
       <use xlink:href="#ArialMT-44" x="350.292969"/>
      </g>
     </g>
    </g>
    <g id="ytick_5">
     <g id="line2d_19">
      <g>
       <use xlink:href="#m5fe1ad9650" x="149.733808" y="112.551419" style="stroke: #000000; stroke-width: 0.8"/>
      </g>
     </g>
     <g id="text_12">
      <!-- cLogP -->
      <g transform="translate(116.889497 138.388761) rotate(-45) scale(0.12 -0.12)">
       <defs>
        <path id="ArialMT-63" d="M 2588 1216 
L 3141 1144 
Q 3050 572 2676 248 
Q 2303 -75 1759 -75 
Q 1078 -75 664 370 
Q 250 816 250 1647 
Q 250 2184 428 2587 
Q 606 2991 970 3192 
Q 1334 3394 1763 3394 
Q 2303 3394 2647 3120 
Q 2991 2847 3088 2344 
L 2541 2259 
Q 2463 2594 2264 2762 
Q 2066 2931 1784 2931 
Q 1359 2931 1093 2626 
Q 828 2322 828 1663 
Q 828 994 1084 691 
Q 1341 388 1753 388 
Q 2084 388 2306 591 
Q 2528 794 2588 1216 
z
" transform="scale(0.015625)"/>
        <path id="ArialMT-4c" d="M 469 0 
L 469 4581 
L 1075 4581 
L 1075 541 
L 3331 541 
L 3331 0 
L 469 0 
z
" transform="scale(0.015625)"/>
        <path id="ArialMT-67" d="M 319 -275 
L 866 -356 
Q 900 -609 1056 -725 
Q 1266 -881 1628 -881 
Q 2019 -881 2231 -725 
Q 2444 -569 2519 -288 
Q 2563 -116 2559 434 
Q 2191 0 1641 0 
Q 956 0 581 494 
Q 206 988 206 1678 
Q 206 2153 378 2554 
Q 550 2956 876 3175 
Q 1203 3394 1644 3394 
Q 2231 3394 2613 2919 
L 2613 3319 
L 3131 3319 
L 3131 450 
Q 3131 -325 2973 -648 
Q 2816 -972 2473 -1159 
Q 2131 -1347 1631 -1347 
Q 1038 -1347 672 -1080 
Q 306 -813 319 -275 
z
M 784 1719 
Q 784 1066 1043 766 
Q 1303 466 1694 466 
Q 2081 466 2343 764 
Q 2606 1063 2606 1700 
Q 2606 2309 2336 2618 
Q 2066 2928 1684 2928 
Q 1309 2928 1046 2623 
Q 784 2319 784 1719 
z
" transform="scale(0.015625)"/>
       </defs>
       <use xlink:href="#ArialMT-63"/>
       <use xlink:href="#ArialMT-4c" x="50"/>
       <use xlink:href="#ArialMT-6f" x="105.615234"/>
       <use xlink:href="#ArialMT-67" x="161.230469"/>
       <use xlink:href="#ArialMT-50" x="216.845703"/>
      </g>
     </g>
    </g>
    <g id="ytick_6">
     <g id="line2d_20">
      <g>
       <use xlink:href="#m5fe1ad9650" x="149.733808" y="92.354698" style="stroke: #000000; stroke-width: 0.8"/>
      </g>
     </g>
     <g id="text_13">
      <!-- P_charged_centers -->
      <g transform="translate(67.365948 167.715589) rotate(-45) scale(0.12 -0.12)">
       <defs>
        <path id="ArialMT-68" d="M 422 0 
L 422 4581 
L 984 4581 
L 984 2938 
Q 1378 3394 1978 3394 
Q 2347 3394 2619 3248 
Q 2891 3103 3008 2847 
Q 3125 2591 3125 2103 
L 3125 0 
L 2563 0 
L 2563 2103 
Q 2563 2525 2380 2717 
Q 2197 2909 1863 2909 
Q 1613 2909 1392 2779 
Q 1172 2650 1078 2428 
Q 984 2206 984 1816 
L 984 0 
L 422 0 
z
" transform="scale(0.015625)"/>
       </defs>
       <use xlink:href="#ArialMT-50"/>
       <use xlink:href="#ArialMT-5f" x="66.699219"/>
       <use xlink:href="#ArialMT-63" x="122.314453"/>
       <use xlink:href="#ArialMT-68" x="172.314453"/>
       <use xlink:href="#ArialMT-61" x="227.929688"/>
       <use xlink:href="#ArialMT-72" x="283.544922"/>
       <use xlink:href="#ArialMT-67" x="316.845703"/>
       <use xlink:href="#ArialMT-65" x="372.460938"/>
       <use xlink:href="#ArialMT-64" x="428.076172"/>
       <use xlink:href="#ArialMT-5f" x="483.691406"/>
       <use xlink:href="#ArialMT-63" x="539.306641"/>
       <use xlink:href="#ArialMT-65" x="589.306641"/>
       <use xlink:href="#ArialMT-6e" x="644.921875"/>
       <use xlink:href="#ArialMT-74" x="700.537109"/>
       <use xlink:href="#ArialMT-65" x="728.320312"/>
       <use xlink:href="#ArialMT-72" x="783.935547"/>
       <use xlink:href="#ArialMT-73" x="817.236328"/>
      </g>
     </g>
    </g>
    <g id="ytick_7">
     <g id="line2d_21">
      <g>
       <use xlink:href="#m5fe1ad9650" x="149.733808" y="72.157976" style="stroke: #000000; stroke-width: 0.8"/>
      </g>
     </g>
     <g id="text_14">
      <!-- NP_ratio -->
      <g transform="translate(108.035637 106.948616) rotate(-45) scale(0.12 -0.12)">
       <use xlink:href="#ArialMT-4e"/>
       <use xlink:href="#ArialMT-50" x="72.216797"/>
       <use xlink:href="#ArialMT-5f" x="138.916016"/>
       <use xlink:href="#ArialMT-72" x="194.53125"/>
       <use xlink:href="#ArialMT-61" x="227.832031"/>
       <use xlink:href="#ArialMT-74" x="283.447266"/>
       <use xlink:href="#ArialMT-69" x="311.230469"/>
       <use xlink:href="#ArialMT-6f" x="333.447266"/>
      </g>
     </g>
    </g>
    <g id="ytick_8">
     <g id="line2d_22">
      <g>
       <use xlink:href="#m5fe1ad9650" x="149.733808" y="51.961255" style="stroke: #000000; stroke-width: 0.8"/>
      </g>
     </g>
     <g id="text_15">
      <!-- Chol_DMG-PEG_ratio -->
      <g transform="translate(57.113342 137.704479) rotate(-45) scale(0.12 -0.12)">
       <defs>
        <path id="ArialMT-4d" d="M 475 0 
L 475 4581 
L 1388 4581 
L 2472 1338 
Q 2622 884 2691 659 
Q 2769 909 2934 1394 
L 4031 4581 
L 4847 4581 
L 4847 0 
L 4263 0 
L 4263 3834 
L 2931 0 
L 2384 0 
L 1059 3900 
L 1059 0 
L 475 0 
z
" transform="scale(0.015625)"/>
        <path id="ArialMT-2d" d="M 203 1375 
L 203 1941 
L 1931 1941 
L 1931 1375 
L 203 1375 
z
" transform="scale(0.015625)"/>
       </defs>
       <use xlink:href="#ArialMT-43"/>
       <use xlink:href="#ArialMT-68" x="72.216797"/>
       <use xlink:href="#ArialMT-6f" x="127.832031"/>
       <use xlink:href="#ArialMT-6c" x="183.447266"/>
       <use xlink:href="#ArialMT-5f" x="205.664062"/>
       <use xlink:href="#ArialMT-44" x="261.279297"/>
       <use xlink:href="#ArialMT-4d" x="333.496094"/>
       <use xlink:href="#ArialMT-47" x="416.796875"/>
       <use xlink:href="#ArialMT-2d" x="494.580078"/>
       <use xlink:href="#ArialMT-50" x="527.880859"/>
       <use xlink:href="#ArialMT-45" x="594.580078"/>
       <use xlink:href="#ArialMT-47" x="661.279297"/>
       <use xlink:href="#ArialMT-5f" x="739.0625"/>
       <use xlink:href="#ArialMT-72" x="794.677734"/>
       <use xlink:href="#ArialMT-61" x="827.978516"/>
       <use xlink:href="#ArialMT-74" x="883.59375"/>
       <use xlink:href="#ArialMT-69" x="911.376953"/>
       <use xlink:href="#ArialMT-6f" x="933.59375"/>
      </g>
     </g>
    </g>
    <g id="ytick_9">
     <g id="line2d_23">
      <g>
       <use xlink:href="#m5fe1ad9650" x="149.733808" y="31.764534" style="stroke: #000000; stroke-width: 0.8"/>
      </g>
     </g>
     <g id="text_16">
      <!-- Dlin-MC3+Helper lipid percentage -->
      <g transform="translate(13.37702 161.144643) rotate(-45) scale(0.12 -0.12)">
       <defs>
        <path id="ArialMT-2b" d="M 1603 741 
L 1603 1997 
L 356 1997 
L 356 2522 
L 1603 2522 
L 1603 3769 
L 2134 3769 
L 2134 2522 
L 3381 2522 
L 3381 1997 
L 2134 1997 
L 2134 741 
L 1603 741 
z
" transform="scale(0.015625)"/>
        <path id="ArialMT-20" transform="scale(0.015625)"/>
       </defs>
       <use xlink:href="#ArialMT-44"/>
       <use xlink:href="#ArialMT-6c" x="72.216797"/>
       <use xlink:href="#ArialMT-69" x="94.433594"/>
       <use xlink:href="#ArialMT-6e" x="116.650391"/>
       <use xlink:href="#ArialMT-2d" x="172.265625"/>
       <use xlink:href="#ArialMT-4d" x="205.566406"/>
       <use xlink:href="#ArialMT-43" x="288.867188"/>
       <use xlink:href="#ArialMT-33" x="361.083984"/>
       <use xlink:href="#ArialMT-2b" x="416.699219"/>
       <use xlink:href="#ArialMT-48" x="475.097656"/>
       <use xlink:href="#ArialMT-65" x="547.314453"/>
       <use xlink:href="#ArialMT-6c" x="602.929688"/>
       <use xlink:href="#ArialMT-70" x="625.146484"/>
       <use xlink:href="#ArialMT-65" x="680.761719"/>
       <use xlink:href="#ArialMT-72" x="736.376953"/>
       <use xlink:href="#ArialMT-20" x="769.677734"/>
       <use xlink:href="#ArialMT-6c" x="797.460938"/>
       <use xlink:href="#ArialMT-69" x="819.677734"/>
       <use xlink:href="#ArialMT-70" x="841.894531"/>
       <use xlink:href="#ArialMT-69" x="897.509766"/>
       <use xlink:href="#ArialMT-64" x="919.726562"/>
       <use xlink:href="#ArialMT-20" x="975.341797"/>
       <use xlink:href="#ArialMT-70" x="1003.125"/>
       <use xlink:href="#ArialMT-65" x="1058.740234"/>
       <use xlink:href="#ArialMT-72" x="1114.355469"/>
       <use xlink:href="#ArialMT-63" x="1147.65625"/>
       <use xlink:href="#ArialMT-65" x="1197.65625"/>
       <use xlink:href="#ArialMT-6e" x="1253.271484"/>
       <use xlink:href="#ArialMT-74" x="1308.886719"/>
       <use xlink:href="#ArialMT-61" x="1336.669922"/>
       <use xlink:href="#ArialMT-67" x="1392.285156"/>
       <use xlink:href="#ArialMT-65" x="1447.900391"/>
      </g>
     </g>
    </g>
    <g id="ytick_10">
     <g id="line2d_24">
      <g>
       <use xlink:href="#m5fe1ad9650" x="149.733808" y="11.567813" style="stroke: #000000; stroke-width: 0.8"/>
      </g>
     </g>
     <g id="text_17">
      <!-- Dlin-MC3_Helper lipid_ratio -->
      <g transform="translate(37.302862 117.121517) rotate(-45) scale(0.12 -0.12)">
       <use xlink:href="#ArialMT-44"/>
       <use xlink:href="#ArialMT-6c" x="72.216797"/>
       <use xlink:href="#ArialMT-69" x="94.433594"/>
       <use xlink:href="#ArialMT-6e" x="116.650391"/>
       <use xlink:href="#ArialMT-2d" x="172.265625"/>
       <use xlink:href="#ArialMT-4d" x="205.566406"/>
       <use xlink:href="#ArialMT-43" x="288.867188"/>
       <use xlink:href="#ArialMT-33" x="361.083984"/>
       <use xlink:href="#ArialMT-5f" x="416.699219"/>
       <use xlink:href="#ArialMT-48" x="472.314453"/>
       <use xlink:href="#ArialMT-65" x="544.53125"/>
       <use xlink:href="#ArialMT-6c" x="600.146484"/>
       <use xlink:href="#ArialMT-70" x="622.363281"/>
       <use xlink:href="#ArialMT-65" x="677.978516"/>
       <use xlink:href="#ArialMT-72" x="733.59375"/>
       <use xlink:href="#ArialMT-20" x="766.894531"/>
       <use xlink:href="#ArialMT-6c" x="794.677734"/>
       <use xlink:href="#ArialMT-69" x="816.894531"/>
       <use xlink:href="#ArialMT-70" x="839.111328"/>
       <use xlink:href="#ArialMT-69" x="894.726562"/>
       <use xlink:href="#ArialMT-64" x="916.943359"/>
       <use xlink:href="#ArialMT-5f" x="972.558594"/>
       <use xlink:href="#ArialMT-72" x="1028.173828"/>
       <use xlink:href="#ArialMT-61" x="1061.474609"/>
       <use xlink:href="#ArialMT-74" x="1117.089844"/>
       <use xlink:href="#ArialMT-69" x="1144.873047"/>
       <use xlink:href="#ArialMT-6f" x="1167.089844"/>
      </g>
     </g>
    </g>
   </g>
   <g id="line2d_25">
    <path d="M 153.961081 11.567813 
L 158.498271 11.611271 
L 159.002403 11.864651 
L 159.506536 12.338291 
L 160.262734 13.446647 
L 161.018932 15.01178 
L 162.027197 17.768924 
L 163.035461 21.24153 
L 164.295792 26.504326 
L 165.808189 34.029711 
L 167.320585 42.699203 
L 169.337114 55.716293 
L 171.857775 73.709586 
L 176.142899 106.380084 
L 179.671825 132.696182 
L 181.94042 148.142654 
L 183.704883 158.877731 
L 185.217279 166.941961 
L 186.729676 173.759785 
L 187.990007 178.354803 
L 188.998271 181.242039 
L 189.75447 182.911124 
L 190.510668 184.128903 
L 191.266866 184.872091 
L 191.770998 185.09239 
L 193.031329 185.117528 
L 202.609841 185.212876 
L 205.130503 185.544424 
L 207.90323 186.136653 
L 211.180089 187.071647 
L 215.717279 188.62714 
L 224.287527 191.609494 
L 227.564387 192.494692 
L 230.337114 193.029228 
L 232.857775 193.295952 
L 235.630503 193.338304 
L 287.304056 193.229631 
L 289.824717 192.885243 
L 292.597445 192.281674 
L 295.874304 191.337039 
L 300.411494 189.774923 
L 308.729676 186.877797 
L 312.006536 185.985256 
L 314.779263 185.442297 
L 317.299924 185.166158 
L 319.820585 185.117528 
L 329.399098 185.210382 
L 331.919759 185.539416 
L 334.692486 186.129422 
L 337.969346 187.06252 
L 342.506536 188.616695 
L 351.076784 191.600705 
L 354.353643 192.487967 
L 357.12637 193.024869 
L 359.647032 193.294237 
L 362.419759 193.338304 
L 411.824717 193.338304 
L 411.824717 193.338304 
" clip-path="url(#p37a6c9ce5f)" style="fill: none; stroke: #f565cc; stroke-opacity: 0.75; stroke-width: 3; stroke-linecap: square"/>
   </g>
   <g id="line2d_26">
    <path d="M 153.961081 31.764534 
L 158.750337 31.847267 
L 159.506536 32.212853 
L 160.262734 32.857774 
L 161.018932 33.76848 
L 162.027197 35.372783 
L 163.035461 37.393393 
L 164.295792 40.455663 
L 165.808189 44.834469 
L 167.572651 50.776865 
L 169.58918 58.456925 
L 172.109841 69.01378 
L 181.688354 110.282669 
L 183.704883 117.479954 
L 185.217279 122.172298 
L 186.729676 126.139395 
L 187.990007 128.813105 
L 188.998271 130.493104 
L 190.006536 131.730341 
L 190.762734 132.348387 
L 191.518932 132.685765 
L 192.275131 132.74814 
L 200.845379 132.701551 
L 201.601577 132.34397 
L 202.357775 131.647367 
L 203.113974 130.628001 
L 204.122238 128.794871 
L 205.130503 126.45538 
L 206.390833 122.877657 
L 207.651164 118.644231 
L 209.16356 112.804568 
L 210.928023 105.108758 
L 213.196618 94.135009 
L 216.473478 76.973131 
L 222.018932 47.800736 
L 224.287527 37.051758 
L 226.05199 29.59434 
L 227.564387 24.003287 
L 229.076784 19.288928 
L 230.337114 16.123828 
L 231.345379 14.145707 
L 232.353643 12.701744 
L 233.109841 11.992497 
L 233.86604 11.621648 
L 234.622238 11.567813 
L 243.444552 11.646975 
L 244.452817 12.021552 
L 245.461081 12.686425 
L 246.469346 13.622326 
L 247.729676 15.143979 
L 248.990007 17.021371 
L 250.502403 19.690827 
L 252.266866 23.297381 
L 254.283395 27.941746 
L 257.056122 34.965249 
L 265.878436 57.861063 
L 267.894965 62.279414 
L 269.659428 65.633272 
L 271.171825 68.045322 
L 272.432156 69.679435 
L 273.692486 70.93165 
L 274.700751 71.633166 
L 275.709015 72.046912 
L 276.717279 72.157976 
L 369.981742 72.216186 
L 370.737941 72.594605 
L 371.494139 73.311068 
L 372.250337 74.349317 
L 373.258602 76.206104 
L 374.266866 78.567515 
L 375.527197 82.170194 
L 376.787527 86.425863 
L 378.299924 92.288633 
L 380.064387 100.006461 
L 382.332982 111.000701 
L 385.609841 128.176649 
L 391.155296 157.331048 
L 393.423891 168.057517 
L 395.188354 175.491348 
L 396.700751 181.057947 
L 398.213147 185.743944 
L 399.473478 188.882424 
L 400.481742 190.837293 
L 401.490007 192.256267 
L 402.246205 192.945633 
L 403.002403 193.295623 
L 404.010668 193.338304 
L 411.824717 193.338304 
L 411.824717 193.338304 
" clip-path="url(#p37a6c9ce5f)" style="fill: none; stroke: #cc7af4; stroke-opacity: 0.75; stroke-width: 3; stroke-linecap: square"/>
   </g>
   <g id="line2d_27">
    <path d="M 153.961081 51.961255 
L 158.750337 52.049729 
L 159.506536 52.440682 
L 160.262734 53.130352 
L 161.018932 54.104251 
L 162.027197 55.819872 
L 163.035461 57.980688 
L 164.295792 61.255442 
L 165.808189 65.938083 
L 167.572651 72.292809 
L 169.58918 80.505771 
L 172.109841 91.795143 
L 181.688354 135.927587 
L 183.704883 143.624276 
L 185.217279 148.642212 
L 186.729676 152.884576 
L 187.990007 155.743808 
L 188.998271 157.540379 
L 190.006536 158.863465 
L 190.762734 159.524396 
L 191.518932 159.885184 
L 192.275131 159.951887 
L 327.634635 159.903076 
L 328.138767 159.669216 
L 328.894965 158.968164 
L 329.651164 157.864494 
L 330.407362 156.378114 
L 331.415627 153.835357 
L 332.423891 150.694807 
L 333.684222 146.000365 
L 335.196618 139.361184 
L 336.961081 130.42991 
L 338.97761 118.96904 
L 341.498271 103.315398 
L 350.320585 47.169636 
L 352.337114 36.280208 
L 354.101577 27.990459 
L 355.613974 22.00628 
L 356.874304 17.931797 
L 357.882569 15.335735 
L 358.890833 13.380592 
L 359.647032 12.363226 
L 360.40323 11.752829 
L 360.907362 11.581823 
L 362.923891 11.567813 
L 369.981742 11.639089 
L 370.485875 11.901027 
L 371.242073 12.642564 
L 371.998271 13.78476 
L 372.75447 15.307708 
L 373.762734 17.896177 
L 374.770998 21.078957 
L 376.031329 25.821292 
L 377.543726 32.510765 
L 379.308189 41.490812 
L 381.324717 52.994369 
L 384.097445 70.304778 
L 392.16356 121.868167 
L 394.180089 133.033907 
L 395.944552 141.631425 
L 397.456949 147.928433 
L 398.717279 152.298176 
L 399.725544 155.153075 
L 400.733808 157.387166 
L 401.490007 158.626944 
L 402.246205 159.471066 
L 402.750337 159.804174 
L 403.25447 159.946689 
L 408.799924 159.951887 
L 411.824717 159.951887 
L 411.824717 159.951887 
" clip-path="url(#p37a6c9ce5f)" style="fill: none; stroke: #6e9bf4; stroke-opacity: 0.75; stroke-width: 3; stroke-linecap: square"/>
   </g>
   <g id="line2d_28">
    <path d="M 153.961081 72.157976 
L 159.002403 72.054343 
L 160.010668 71.649137 
L 161.018932 70.955609 
L 162.027197 69.993027 
L 163.287527 68.440799 
L 164.547858 66.535917 
L 166.060255 63.837545 
L 167.824717 60.202869 
L 169.841246 55.533769 
L 172.613974 48.48915 
L 181.184222 26.211434 
L 183.200751 21.752653 
L 184.965213 18.35409 
L 186.47761 15.896791 
L 187.737941 14.220085 
L 188.998271 12.920834 
L 190.006536 12.178492 
L 191.0148 11.721076 
L 191.770998 11.576589 
L 195.047858 11.567813 
L 327.634635 11.627606 
L 328.138767 11.914085 
L 328.642899 12.430606 
L 329.399098 13.620909 
L 330.155296 15.28816 
L 331.16356 18.210932 
L 332.171825 21.880451 
L 333.432156 27.429398 
L 334.944552 35.350106 
L 336.456949 44.463253 
L 338.473478 58.131815 
L 340.994139 77.006352 
L 345.279263 111.236202 
L 348.808189 138.773226 
L 351.076784 154.918042 
L 352.841246 166.126578 
L 354.353643 174.536406 
L 355.613974 180.551182 
L 356.874304 185.542423 
L 357.882569 188.7226 
L 358.890833 191.117649 
L 359.647032 192.363923 
L 360.40323 193.111659 
L 360.907362 193.321141 
L 362.671825 193.338304 
L 370.233808 193.228965 
L 370.990007 192.859285 
L 371.746205 192.240137 
L 372.75447 191.047618 
L 373.762734 189.462181 
L 375.023065 186.971875 
L 376.283395 183.969246 
L 377.795792 179.769309 
L 379.560255 174.169838 
L 381.82885 166.101999 
L 384.853643 154.356066 
L 391.407362 128.524965 
L 393.675957 120.576129 
L 395.44042 115.100726 
L 396.952817 111.029077 
L 398.213147 108.148828 
L 399.473478 105.794969 
L 400.481742 104.328817 
L 401.490007 103.264586 
L 402.246205 102.747562 
L 403.002403 102.48507 
L 404.010668 102.453058 
L 411.824717 102.453058 
L 411.824717 102.453058 
" clip-path="url(#p37a6c9ce5f)" style="fill: none; stroke: #38a9c5; stroke-opacity: 0.75; stroke-width: 3; stroke-linecap: square"/>
   </g>
   <g id="line2d_29">
    <path d="M 153.961081 92.354698 
L 158.750337 92.288511 
L 159.506536 91.996042 
L 160.262734 91.480106 
L 161.270998 90.463308 
L 162.279263 89.094196 
L 163.539594 86.926503 
L 164.799924 84.298641 
L 166.312321 80.608436 
L 168.076784 75.672695 
L 170.093313 69.369021 
L 172.86604 59.91061 
L 180.680089 32.683867 
L 182.948684 25.849777 
L 184.713147 21.219593 
L 186.225544 17.842882 
L 187.485875 15.512641 
L 188.746205 13.675638 
L 189.75447 12.594887 
L 190.762734 11.887615 
L 191.518932 11.617712 
L 192.527197 11.567813 
L 411.824717 11.567813 
L 411.824717 11.567813 
" clip-path="url(#p37a6c9ce5f)" style="fill: none; stroke: #36ada4; stroke-opacity: 0.75; stroke-width: 3; stroke-linecap: square"/>
   </g>
   <g id="line2d_30">
    <path d="M 153.961081 112.551419 
L 158.750337 112.47353 
L 159.506536 112.129348 
L 160.262734 111.522186 
L 161.018932 110.664799 
L 162.027197 109.154425 
L 163.035461 107.252116 
L 164.295792 104.369135 
L 165.808189 100.246698 
L 167.572651 94.652215 
L 169.58918 87.421805 
L 172.109841 77.483029 
L 181.688354 38.630337 
L 183.704883 31.854436 
L 185.217279 27.436817 
L 186.729676 23.701985 
L 187.990007 21.184815 
L 188.998271 19.603175 
L 190.006536 18.438376 
L 190.762734 17.856515 
L 191.518932 17.538889 
L 192.275131 17.480166 
L 203.113974 17.376725 
L 206.138767 17.036176 
L 209.667693 16.404188 
L 214.204883 15.344364 
L 226.05199 12.447322 
L 229.580916 11.878455 
L 232.605709 11.609817 
L 235.882569 11.567813 
L 327.886701 11.642046 
L 328.642899 11.936271 
L 329.399098 12.444592 
L 330.407362 13.437393 
L 331.415627 14.767609 
L 332.675957 16.867261 
L 333.936288 19.407335 
L 335.448684 22.968894 
L 337.213147 27.726711 
L 339.481742 34.593905 
L 342.506536 44.609055 
L 349.312321 67.482726 
L 351.580916 74.21197 
L 353.345379 78.826727 
L 354.857775 82.240755 
L 356.118106 84.640324 
L 357.378436 86.583504 
L 358.386701 87.777047 
L 359.394965 88.622956 
L 360.151164 89.014403 
L 360.907362 89.186005 
L 364.94042 89.193334 
L 411.824717 89.193334 
L 411.824717 89.193334 
" clip-path="url(#p37a6c9ce5f)" style="fill: none; stroke: #33b07a; stroke-opacity: 0.75; stroke-width: 3; stroke-linecap: square"/>
   </g>
   <g id="line2d_31">
    <path d="M 153.961081 132.74814 
L 159.002403 132.851774 
L 160.010668 133.25698 
L 161.018932 133.950508 
L 162.027197 134.91309 
L 163.287527 136.465318 
L 164.547858 138.3702 
L 166.060255 141.068572 
L 167.824717 144.703247 
L 169.841246 149.372347 
L 172.613974 156.416967 
L 181.184222 178.694683 
L 183.200751 183.153464 
L 184.965213 186.552027 
L 186.47761 189.009326 
L 187.737941 190.686032 
L 188.998271 191.985283 
L 190.006536 192.727625 
L 191.0148 193.18504 
L 191.770998 193.329528 
L 195.047858 193.338304 
L 244.200751 193.437943 
L 245.965213 193.804471 
L 247.729676 194.411154 
L 249.746205 195.358832 
L 252.0148 196.693957 
L 254.787527 198.619823 
L 258.568519 201.561786 
L 265.122238 206.689864 
L 267.894965 208.551785 
L 270.16356 209.814467 
L 272.180089 210.682549 
L 273.944552 211.207847 
L 275.709015 211.482034 
L 277.725544 211.515353 
L 285.539594 211.412573 
L 286.043726 211.130145 
L 286.799924 210.381211 
L 287.556122 209.258545 
L 288.312321 207.780844 
L 289.320585 205.290614 
L 290.580916 201.404497 
L 291.841246 196.739914 
L 293.353643 190.236714 
L 295.118106 181.589925 
L 297.386701 169.161328 
L 300.411494 151.109445 
L 306.965213 111.552138 
L 309.233808 99.426062 
L 310.998271 91.094666 
L 312.510668 84.917588 
L 313.770998 80.564108 
L 315.031329 77.024853 
L 316.039594 74.837859 
L 316.795792 73.602603 
L 317.55199 72.735256 
L 318.308189 72.254514 
L 318.812321 72.158033 
L 327.634635 72.203818 
L 328.138767 72.423452 
L 328.894965 73.081857 
L 329.651164 74.118387 
L 330.407362 75.514345 
L 331.415627 77.902418 
L 332.423891 80.851917 
L 333.684222 85.260782 
L 335.196618 91.496079 
L 336.961081 99.884033 
L 338.97761 110.647701 
L 341.498271 125.349079 
L 350.320585 178.079308 
L 352.337114 188.306296 
L 354.101577 196.091751 
L 355.613974 201.711893 
L 356.874304 205.538511 
L 357.882569 207.976647 
L 358.890833 209.812851 
L 359.647032 210.768327 
L 360.40323 211.341592 
L 360.907362 211.502195 
L 363.175957 211.515353 
L 411.824717 211.515353 
L 411.824717 211.515353 
" clip-path="url(#p37a6c9ce5f)" style="fill: none; stroke: #77ab31; stroke-opacity: 0.75; stroke-width: 3; stroke-linecap: square"/>
   </g>
   <g id="line2d_32">
    <path d="M 153.961081 152.944862 
L 158.750337 152.858819 
L 159.506536 152.478609 
L 160.262734 151.807892 
L 161.018932 150.860758 
L 162.027197 149.192283 
L 163.035461 147.090848 
L 164.295792 143.906087 
L 165.808189 139.352129 
L 167.572651 133.172037 
L 169.58918 125.184775 
L 172.109841 114.205646 
L 181.688354 71.286001 
L 183.704883 63.800824 
L 185.217279 58.920786 
L 186.729676 54.795006 
L 187.990007 52.014348 
L 188.998271 50.267149 
L 190.006536 48.980422 
L 190.762734 48.337655 
L 191.518932 47.986781 
L 192.275131 47.921911 
L 201.853643 47.831985 
L 203.618106 47.476261 
L 205.382569 46.879076 
L 207.399098 45.940654 
L 209.667693 44.613903 
L 212.44042 42.69534 
L 216.221412 39.758138 
L 222.775131 34.624108 
L 225.547858 32.754244 
L 227.816453 31.482665 
L 229.832982 30.604863 
L 231.597445 30.06966 
L 233.361908 29.784261 
L 235.378436 29.744862 
L 243.192486 29.844268 
L 243.696618 30.178475 
L 244.200751 30.741244 
L 244.956949 31.998142 
L 245.713147 33.728657 
L 246.721412 36.730597 
L 247.729676 40.473362 
L 248.990007 46.105538 
L 250.502403 54.113905 
L 252.266866 64.933568 
L 254.283395 78.866663 
L 256.804056 97.957261 
L 266.130503 170.369182 
L 268.147032 183.412968 
L 269.659428 191.941239 
L 271.171825 199.177391 
L 272.432156 204.079729 
L 273.44042 207.182121 
L 274.448684 209.493462 
L 275.204883 210.673067 
L 275.709015 211.18216 
L 276.213147 211.460975 
L 276.969346 211.515353 
L 285.287527 211.477915 
L 285.79166 211.225988 
L 286.295792 210.742954 
L 287.05199 209.600881 
L 287.808189 207.979461 
L 288.816453 205.114067 
L 289.824717 201.497661 
L 291.085048 196.009109 
L 292.345379 189.550327 
L 293.857775 180.678053 
L 295.622238 169.027014 
L 297.890833 152.466785 
L 301.167693 126.656318 
L 306.461081 84.865575 
L 308.729676 68.666354 
L 310.494139 57.400579 
L 312.006536 48.931294 
L 313.518932 41.763722 
L 314.779263 36.925863 
L 315.787527 33.879853 
L 316.543726 32.114109 
L 317.299924 30.820117 
L 318.056122 30.022263 
L 318.560255 29.778036 
L 319.568519 29.744862 
L 329.147032 29.85167 
L 331.16356 30.187736 
L 333.432156 30.802301 
L 335.952817 31.727347 
L 338.97761 33.091794 
L 343.262734 35.30686 
L 350.068519 38.837025 
L 353.093313 40.147741 
L 355.613974 41.01042 
L 357.882569 41.555181 
L 359.899098 41.818325 
L 362.167693 41.862894 
L 411.824717 41.862894 
L 411.824717 41.862894 
" clip-path="url(#p37a6c9ce5f)" style="fill: none; stroke: #ae9d31; stroke-opacity: 0.75; stroke-width: 3; stroke-linecap: square"/>
   </g>
   <g id="line2d_33">
    <path d="M 153.961081 173.141583 
L 159.506536 173.231247 
L 161.018932 173.542372 
L 162.783395 174.15887 
L 164.547858 175.015603 
L 166.564387 176.244735 
L 168.832982 177.884849 
L 171.857775 180.373286 
L 182.444552 189.407447 
L 184.713147 190.925359 
L 186.729676 192.016555 
L 188.494139 192.729965 
L 190.006536 193.134744 
L 191.518932 193.325829 
L 194.543726 193.338304 
L 200.845379 193.26842 
L 201.349511 192.968547 
L 201.853643 192.439046 
L 202.609841 191.230051 
L 203.36604 189.54504 
L 204.374304 186.60004 
L 205.382569 182.909951 
L 206.642899 177.337623 
L 208.155296 169.392279 
L 209.919759 158.634015 
L 211.936288 144.755099 
L 214.456949 125.708238 
L 223.783395 53.226397 
L 225.799924 40.119519 
L 227.312321 31.532734 
L 228.824717 24.228474 
L 230.085048 19.262049 
L 231.093313 16.103592 
L 232.101577 13.731919 
L 232.857775 12.504267 
L 233.613974 11.776085 
L 234.118106 11.580157 
L 236.638767 11.567813 
L 243.192486 11.67716 
L 243.696618 12.044788 
L 244.200751 12.663833 
L 244.956949 14.046421 
L 245.713147 15.949987 
L 246.721412 19.252122 
L 247.729676 23.369163 
L 248.990007 29.564557 
L 250.502403 38.37376 
L 252.266866 50.275389 
L 254.283395 65.601794 
L 256.804056 86.601452 
L 266.130503 166.254565 
L 268.147032 180.60273 
L 269.659428 189.983828 
L 271.171825 197.943595 
L 272.432156 203.336167 
L 273.44042 206.748797 
L 274.196618 208.740708 
L 274.952817 210.216332 
L 275.709015 211.148841 
L 276.213147 211.455537 
L 276.969346 211.515353 
L 411.824717 211.515353 
L 411.824717 211.515353 
" clip-path="url(#p37a6c9ce5f)" style="fill: none; stroke: #dc8932; stroke-opacity: 0.75; stroke-width: 3; stroke-linecap: square"/>
   </g>
   <g id="line2d_34">
    <path d="M 153.961081 193.338304 
L 158.498271 193.292787 
L 159.002403 193.027405 
L 159.506536 192.531329 
L 160.262734 191.370472 
L 161.018932 189.731201 
L 162.027197 186.843456 
L 163.035461 183.206358 
L 164.295792 177.694272 
L 165.808189 169.812422 
L 167.320585 160.732269 
L 169.337114 147.09858 
L 171.857775 128.252973 
L 176.142899 94.034925 
L 179.671825 66.472275 
L 181.94042 50.294128 
L 183.704883 39.050548 
L 185.217279 30.604328 
L 186.729676 23.463554 
L 187.990007 18.650877 
L 188.998271 15.626878 
L 189.75447 13.878731 
L 190.510668 12.603268 
L 191.266866 11.824876 
L 191.770998 11.594142 
L 193.031329 11.567813 
L 200.845379 11.644685 
L 201.349511 11.974546 
L 201.853643 12.556996 
L 202.609841 13.886891 
L 203.36604 15.740403 
L 204.374304 18.979903 
L 205.382569 23.039001 
L 206.642899 29.168561 
L 208.155296 37.908441 
L 209.919759 49.74253 
L 211.936288 65.009338 
L 214.456949 85.960886 
L 223.783395 165.69091 
L 225.799924 180.108476 
L 227.312321 189.553939 
L 228.824717 197.588626 
L 230.085048 203.051693 
L 231.093313 206.525996 
L 232.101577 209.134836 
L 232.857775 210.485254 
L 233.361908 211.081956 
L 233.86604 211.426525 
L 234.370172 211.515353 
L 244.200751 211.415715 
L 245.965213 211.049187 
L 247.729676 210.442503 
L 249.746205 209.494826 
L 252.0148 208.159701 
L 254.787527 206.233835 
L 258.568519 203.291872 
L 265.122238 198.163794 
L 267.894965 196.301873 
L 270.16356 195.03919 
L 272.180089 194.171109 
L 273.944552 193.645811 
L 275.709015 193.371624 
L 277.725544 193.338304 
L 285.287527 193.300866 
L 285.79166 193.048939 
L 286.295792 192.565905 
L 287.05199 191.423832 
L 287.808189 189.802412 
L 288.816453 186.937018 
L 289.824717 183.320612 
L 291.085048 177.83206 
L 292.345379 171.373277 
L 293.857775 162.501004 
L 295.622238 150.849965 
L 297.890833 134.289735 
L 301.167693 108.479268 
L 306.461081 66.688525 
L 308.729676 50.489305 
L 310.494139 39.22353 
L 312.006536 30.754244 
L 313.518932 23.586673 
L 314.779263 18.748814 
L 315.787527 15.702804 
L 316.543726 13.93706 
L 317.299924 12.643068 
L 318.056122 11.845214 
L 318.560255 11.600987 
L 319.568519 11.567813 
L 327.634635 11.633586 
L 328.138767 11.948713 
L 328.642899 12.516885 
L 329.399098 13.826219 
L 330.155296 15.660195 
L 331.16356 18.875244 
L 332.171825 22.911715 
L 333.432156 29.015556 
L 334.944552 37.728336 
L 336.456949 47.752797 
L 338.473478 62.788215 
L 340.994139 83.550205 
L 345.279263 121.203041 
L 348.808189 151.493768 
L 351.076784 169.253065 
L 352.841246 181.582454 
L 354.353643 190.833266 
L 355.613974 197.449519 
L 356.874304 202.939884 
L 357.882569 206.438078 
L 358.890833 209.072633 
L 359.647032 210.443534 
L 360.151164 211.054462 
L 360.655296 211.413712 
L 361.159428 211.515353 
L 411.824717 211.515353 
L 411.824717 211.515353 
" clip-path="url(#p37a6c9ce5f)" style="fill: none; stroke: #f77189; stroke-opacity: 0.75; stroke-width: 3; stroke-linecap: square"/>
   </g>
  </g>
  <g id="axes_2">
   <g id="patch_3">
    <path d="M 149.733808 229.692403 
L 149.733808 196.973714 
L 428.733808 196.973714 
L 428.733808 229.692403 
z
" clip-path="url(#p37a6c9ce5f)" style="fill: #f08080; opacity: 0.25"/>
   </g>
   <g id="patch_4">
    <path d="M 149.733808 196.973714 
L 149.733808 132.74814 
L 428.733808 132.74814 
L 428.733808 196.973714 
z
" clip-path="url(#p37a6c9ce5f)" style="fill: #ebf3ed; opacity: 0.25"/>
   </g>
   <g id="patch_5">
    <path d="M 149.733808 132.74814 
L 149.733808 72.157976 
L 428.733808 72.157976 
L 428.733808 132.74814 
z
" clip-path="url(#p37a6c9ce5f)" style="fill: #acd0bb; opacity: 0.25"/>
   </g>
   <g id="patch_6">
    <path d="M 149.733808 72.157976 
L 149.733808 7.932403 
L 428.733808 7.932403 
L 428.733808 72.157976 
z
" clip-path="url(#p37a6c9ce5f)" style="fill: #6dae89; opacity: 0.25"/>
   </g>
   <g id="matplotlib.axis_3">
    <g id="ytick_11">
     <g id="line2d_35">
      <defs>
       <path id="m24715f5b0b" d="M 0 0 
L 3.5 0 
" style="stroke: #000000; stroke-width: 0.8"/>
      </defs>
      <g>
       <use xlink:href="#m24715f5b0b" x="428.733808" y="213.333058" style="stroke: #000000; stroke-width: 0.8"/>
      </g>
     </g>
     <g id="text_18">
      <!-- N/A -->
      <g transform="translate(444.323183 229.042746) rotate(-90) scale(0.12 -0.12)">
       <defs>
        <path id="ArialMT-2f" d="M 0 -78 
L 1328 4659 
L 1778 4659 
L 453 -78 
L 0 -78 
z
" transform="scale(0.015625)"/>
       </defs>
       <use xlink:href="#ArialMT-4e"/>
       <use xlink:href="#ArialMT-2f" x="72.216797"/>
       <use xlink:href="#ArialMT-41" x="100"/>
      </g>
     </g>
    </g>
    <g id="ytick_12">
     <g id="line2d_36">
      <g>
       <use xlink:href="#m24715f5b0b" x="428.733808" y="164.860927" style="stroke: #000000; stroke-width: 0.8"/>
      </g>
     </g>
     <g id="text_19">
      <!-- Low -->
      <g transform="translate(444.323183 182.57874) rotate(-90) scale(0.12 -0.12)">
       <defs>
        <path id="ArialMT-77" d="M 1034 0 
L 19 3319 
L 600 3319 
L 1128 1403 
L 1325 691 
Q 1338 744 1497 1375 
L 2025 3319 
L 2603 3319 
L 3100 1394 
L 3266 759 
L 3456 1400 
L 4025 3319 
L 4572 3319 
L 3534 0 
L 2950 0 
L 2422 1988 
L 2294 2553 
L 1622 0 
L 1034 0 
z
" transform="scale(0.015625)"/>
       </defs>
       <use xlink:href="#ArialMT-4c"/>
       <use xlink:href="#ArialMT-6f" x="55.615234"/>
       <use xlink:href="#ArialMT-77" x="111.230469"/>
      </g>
     </g>
    </g>
    <g id="ytick_13">
     <g id="line2d_37">
      <g>
       <use xlink:href="#m24715f5b0b" x="428.733808" y="102.453058" style="stroke: #000000; stroke-width: 0.8"/>
      </g>
     </g>
     <g id="text_20">
      <!-- Med -->
      <g transform="translate(444.323183 121.500246) rotate(-90) scale(0.12 -0.12)">
       <use xlink:href="#ArialMT-4d"/>
       <use xlink:href="#ArialMT-65" x="83.300781"/>
       <use xlink:href="#ArialMT-64" x="138.916016"/>
      </g>
     </g>
    </g>
    <g id="ytick_14">
     <g id="line2d_38">
      <g>
       <use xlink:href="#m24715f5b0b" x="428.733808" y="40.04519" style="stroke: #000000; stroke-width: 0.8"/>
      </g>
     </g>
     <g id="text_21">
      <!-- High -->
      <g transform="translate(444.323183 60.429252) rotate(-90) scale(0.12 -0.12)">
       <use xlink:href="#ArialMT-48"/>
       <use xlink:href="#ArialMT-69" x="72.216797"/>
       <use xlink:href="#ArialMT-67" x="94.433594"/>
       <use xlink:href="#ArialMT-68" x="150.048828"/>
      </g>
     </g>
    </g>
    <g id="text_22">
     <!-- Relative Feature Value -->
     <g transform="translate(461.585527 194.547168) rotate(-90) scale(0.15 -0.15)">
      <defs>
       <path id="ArialMT-76" d="M 1344 0 
L 81 3319 
L 675 3319 
L 1388 1331 
Q 1503 1009 1600 663 
Q 1675 925 1809 1294 
L 2547 3319 
L 3125 3319 
L 1869 0 
L 1344 0 
z
" transform="scale(0.015625)"/>
       <path id="ArialMT-56" d="M 1803 0 
L 28 4581 
L 684 4581 
L 1875 1253 
Q 2019 853 2116 503 
Q 2222 878 2363 1253 
L 3600 4581 
L 4219 4581 
L 2425 0 
L 1803 0 
z
" transform="scale(0.015625)"/>
      </defs>
      <use xlink:href="#ArialMT-52"/>
      <use xlink:href="#ArialMT-65" x="72.216797"/>
      <use xlink:href="#ArialMT-6c" x="127.832031"/>
      <use xlink:href="#ArialMT-61" x="150.048828"/>
      <use xlink:href="#ArialMT-74" x="205.664062"/>
      <use xlink:href="#ArialMT-69" x="233.447266"/>
      <use xlink:href="#ArialMT-76" x="255.664062"/>
      <use xlink:href="#ArialMT-65" x="305.664062"/>
      <use xlink:href="#ArialMT-20" x="361.279297"/>
      <use xlink:href="#ArialMT-46" x="389.0625"/>
      <use xlink:href="#ArialMT-65" x="450.146484"/>
      <use xlink:href="#ArialMT-61" x="505.761719"/>
      <use xlink:href="#ArialMT-74" x="561.376953"/>
      <use xlink:href="#ArialMT-75" x="589.160156"/>
      <use xlink:href="#ArialMT-72" x="644.775391"/>
      <use xlink:href="#ArialMT-65" x="678.076172"/>
      <use xlink:href="#ArialMT-20" x="733.691406"/>
      <use xlink:href="#ArialMT-56" x="761.474609"/>
      <use xlink:href="#ArialMT-61" x="820.798828"/>
      <use xlink:href="#ArialMT-6c" x="876.414062"/>
      <use xlink:href="#ArialMT-75" x="898.630859"/>
      <use xlink:href="#ArialMT-65" x="954.246094"/>
     </g>
    </g>
   </g>
   <g id="patch_7">
    <path d="M 149.733808 229.692403 
L 149.733808 7.932403 
" style="fill: none; stroke: #000000; stroke-width: 0.8; stroke-linejoin: miter; stroke-linecap: square"/>
   </g>
   <g id="patch_8">
    <path d="M 428.733808 229.692403 
L 428.733808 7.932403 
" style="fill: none; stroke: #000000; stroke-width: 0.8; stroke-linejoin: miter; stroke-linecap: square"/>
   </g>
   <g id="patch_9">
    <path d="M 149.733808 229.692403 
L 428.733808 229.692403 
" style="fill: none; stroke: #000000; stroke-width: 0.8; stroke-linejoin: miter; stroke-linecap: square"/>
   </g>
   <g id="patch_10">
    <path d="M 149.733808 7.932403 
L 428.733808 7.932403 
" style="fill: none; stroke: #000000; stroke-width: 0.8; stroke-linejoin: miter; stroke-linecap: square"/>
   </g>
  </g>
 </g>
 <defs>
  <clipPath id="p37a6c9ce5f">
   <rect x="149.733808" y="7.932403" width="279" height="221.76"/>
  </clipPath>
 </defs>
</svg>
