<?xml version="1.0" encoding="utf-8" standalone="no"?>
<!DOCTYPE svg PUBLIC "-//W3C//DTD SVG 1.1//EN"
  "http://www.w3.org/Graphics/SVG/1.1/DTD/svg11.dtd">
<svg xmlns:xlink="http://www.w3.org/1999/xlink" width="280.425469pt" height="270.694219pt" viewBox="0 0 280.425469 270.694219" xmlns="http://www.w3.org/2000/svg" version="1.1">
 <metadata>
  <rdf:RDF xmlns:dc="http://purl.org/dc/elements/1.1/" xmlns:cc="http://creativecommons.org/ns#" xmlns:rdf="http://www.w3.org/1999/02/22-rdf-syntax-ns#">
   <cc:Work>
    <dc:type rdf:resource="http://purl.org/dc/dcmitype/StillImage"/>
    <dc:date>2023-11-28T06:07:57.775920</dc:date>
    <dc:format>image/svg+xml</dc:format>
    <dc:creator>
     <cc:Agent>
      <dc:title>Matplotlib v3.6.3, https://matplotlib.org/</dc:title>
     </cc:Agent>
    </dc:creator>
   </cc:Work>
  </rdf:RDF>
 </metadata>
 <defs>
  <style type="text/css">*{stroke-linejoin: round; stroke-linecap: butt}</style>
 </defs>
 <g id="figure_1">
  <g id="patch_1">
   <path d="M 0 270.694219 
L 280.425469 270.694219 
L 280.425469 0 
L 0 0 
L 0 270.694219 
z
" style="fill: none"/>
  </g>
  <g id="axes_1">
   <g id="patch_2">
    <path d="M 50.025469 228.96 
L 273.225469 228.96 
L 273.225469 7.2 
L 50.025469 7.2 
L 50.025469 228.96 
z
" style="fill: none"/>
   </g>
   <g id="matplotlib.axis_1">
    <g id="xtick_1">
     <g id="line2d_1">
      <path d="M 51.793174 228.96 
L 51.793174 7.2 
" clip-path="url(#p2654bf386f)" style="fill: none; stroke: #ffffff; stroke-linecap: round"/>
     </g>
     <g id="text_1">
      <!-- −40 -->
      <g style="fill: #262626" transform="translate(42.463799 246.333594) scale(0.11 -0.11)">
       <defs>
        <path id="ArialMT-2212" d="M 3381 1997 
L 356 1997 
L 356 2522 
L 3381 2522 
L 3381 1997 
z
" transform="scale(0.015625)"/>
        <path id="ArialMT-34" d="M 2069 0 
L 2069 1097 
L 81 1097 
L 81 1613 
L 2172 4581 
L 2631 4581 
L 2631 1613 
L 3250 1613 
L 3250 1097 
L 2631 1097 
L 2631 0 
L 2069 0 
z
M 2069 1613 
L 2069 3678 
L 634 1613 
L 2069 1613 
z
" transform="scale(0.015625)"/>
        <path id="ArialMT-30" d="M 266 2259 
Q 266 3072 433 3567 
Q 600 4063 929 4331 
Q 1259 4600 1759 4600 
Q 2128 4600 2406 4451 
Q 2684 4303 2865 4023 
Q 3047 3744 3150 3342 
Q 3253 2941 3253 2259 
Q 3253 1453 3087 958 
Q 2922 463 2592 192 
Q 2263 -78 1759 -78 
Q 1097 -78 719 397 
Q 266 969 266 2259 
z
M 844 2259 
Q 844 1131 1108 757 
Q 1372 384 1759 384 
Q 2147 384 2411 759 
Q 2675 1134 2675 2259 
Q 2675 3391 2411 3762 
Q 2147 4134 1753 4134 
Q 1366 4134 1134 3806 
Q 844 3388 844 2259 
z
" transform="scale(0.015625)"/>
       </defs>
       <use xlink:href="#ArialMT-2212"/>
       <use xlink:href="#ArialMT-34" x="58.398438"/>
       <use xlink:href="#ArialMT-30" x="114.013672"/>
      </g>
     </g>
    </g>
    <g id="xtick_2">
     <g id="line2d_2">
      <path d="M 102.05967 228.96 
L 102.05967 7.2 
" clip-path="url(#p2654bf386f)" style="fill: none; stroke: #ffffff; stroke-linecap: round"/>
     </g>
     <g id="text_2">
      <!-- −20 -->
      <g style="fill: #262626" transform="translate(92.730295 246.333594) scale(0.11 -0.11)">
       <defs>
        <path id="ArialMT-32" d="M 3222 541 
L 3222 0 
L 194 0 
Q 188 203 259 391 
Q 375 700 629 1000 
Q 884 1300 1366 1694 
Q 2113 2306 2375 2664 
Q 2638 3022 2638 3341 
Q 2638 3675 2398 3904 
Q 2159 4134 1775 4134 
Q 1369 4134 1125 3890 
Q 881 3647 878 3216 
L 300 3275 
Q 359 3922 746 4261 
Q 1134 4600 1788 4600 
Q 2447 4600 2831 4234 
Q 3216 3869 3216 3328 
Q 3216 3053 3103 2787 
Q 2991 2522 2730 2228 
Q 2469 1934 1863 1422 
Q 1356 997 1212 845 
Q 1069 694 975 541 
L 3222 541 
z
" transform="scale(0.015625)"/>
       </defs>
       <use xlink:href="#ArialMT-2212"/>
       <use xlink:href="#ArialMT-32" x="58.398438"/>
       <use xlink:href="#ArialMT-30" x="114.013672"/>
      </g>
     </g>
    </g>
    <g id="xtick_3">
     <g id="line2d_3">
      <path d="M 152.326167 228.96 
L 152.326167 7.2 
" clip-path="url(#p2654bf386f)" style="fill: none; stroke: #ffffff; stroke-linecap: round"/>
     </g>
     <g id="text_3">
      <!-- 0 -->
      <g style="fill: #262626" transform="translate(149.267651 246.333594) scale(0.11 -0.11)">
       <use xlink:href="#ArialMT-30"/>
      </g>
     </g>
    </g>
    <g id="xtick_4">
     <g id="line2d_4">
      <path d="M 202.592663 228.96 
L 202.592663 7.2 
" clip-path="url(#p2654bf386f)" style="fill: none; stroke: #ffffff; stroke-linecap: round"/>
     </g>
     <g id="text_4">
      <!-- 20 -->
      <g style="fill: #262626" transform="translate(196.475632 246.333594) scale(0.11 -0.11)">
       <use xlink:href="#ArialMT-32"/>
       <use xlink:href="#ArialMT-30" x="55.615234"/>
      </g>
     </g>
    </g>
    <g id="xtick_5">
     <g id="line2d_5">
      <path d="M 252.85916 228.96 
L 252.85916 7.2 
" clip-path="url(#p2654bf386f)" style="fill: none; stroke: #ffffff; stroke-linecap: round"/>
     </g>
     <g id="text_5">
      <!-- 40 -->
      <g style="fill: #262626" transform="translate(246.742129 246.333594) scale(0.11 -0.11)">
       <use xlink:href="#ArialMT-34"/>
       <use xlink:href="#ArialMT-30" x="55.615234"/>
      </g>
     </g>
    </g>
    <g id="text_6">
     <!-- Zeta -->
     <g style="fill: #262626" transform="translate(149.620781 261.109219) scale(0.12 -0.12)">
      <defs>
       <path id="ArialMT-5a" d="M 128 0 
L 128 563 
L 2475 3497 
Q 2725 3809 2950 4041 
L 394 4041 
L 394 4581 
L 3675 4581 
L 3675 4041 
L 1103 863 
L 825 541 
L 3750 541 
L 3750 0 
L 128 0 
z
" transform="scale(0.015625)"/>
       <path id="ArialMT-65" d="M 2694 1069 
L 3275 997 
Q 3138 488 2766 206 
Q 2394 -75 1816 -75 
Q 1088 -75 661 373 
Q 234 822 234 1631 
Q 234 2469 665 2931 
Q 1097 3394 1784 3394 
Q 2450 3394 2872 2941 
Q 3294 2488 3294 1666 
Q 3294 1616 3291 1516 
L 816 1516 
Q 847 969 1125 678 
Q 1403 388 1819 388 
Q 2128 388 2347 550 
Q 2566 713 2694 1069 
z
M 847 1978 
L 2700 1978 
Q 2663 2397 2488 2606 
Q 2219 2931 1791 2931 
Q 1403 2931 1139 2672 
Q 875 2413 847 1978 
z
" transform="scale(0.015625)"/>
       <path id="ArialMT-74" d="M 1650 503 
L 1731 6 
Q 1494 -44 1306 -44 
Q 1000 -44 831 53 
Q 663 150 594 308 
Q 525 466 525 972 
L 525 2881 
L 113 2881 
L 113 3319 
L 525 3319 
L 525 4141 
L 1084 4478 
L 1084 3319 
L 1650 3319 
L 1650 2881 
L 1084 2881 
L 1084 941 
Q 1084 700 1114 631 
Q 1144 563 1211 522 
Q 1278 481 1403 481 
Q 1497 481 1650 503 
z
" transform="scale(0.015625)"/>
       <path id="ArialMT-61" d="M 2588 409 
Q 2275 144 1986 34 
Q 1697 -75 1366 -75 
Q 819 -75 525 192 
Q 231 459 231 875 
Q 231 1119 342 1320 
Q 453 1522 633 1644 
Q 813 1766 1038 1828 
Q 1203 1872 1538 1913 
Q 2219 1994 2541 2106 
Q 2544 2222 2544 2253 
Q 2544 2597 2384 2738 
Q 2169 2928 1744 2928 
Q 1347 2928 1158 2789 
Q 969 2650 878 2297 
L 328 2372 
Q 403 2725 575 2942 
Q 747 3159 1072 3276 
Q 1397 3394 1825 3394 
Q 2250 3394 2515 3294 
Q 2781 3194 2906 3042 
Q 3031 2891 3081 2659 
Q 3109 2516 3109 2141 
L 3109 1391 
Q 3109 606 3145 398 
Q 3181 191 3288 0 
L 2700 0 
Q 2613 175 2588 409 
z
M 2541 1666 
Q 2234 1541 1622 1453 
Q 1275 1403 1131 1340 
Q 988 1278 909 1158 
Q 831 1038 831 891 
Q 831 666 1001 516 
Q 1172 366 1500 366 
Q 1825 366 2078 508 
Q 2331 650 2450 897 
Q 2541 1088 2541 1459 
L 2541 1666 
z
" transform="scale(0.015625)"/>
      </defs>
      <use xlink:href="#ArialMT-5a"/>
      <use xlink:href="#ArialMT-65" x="61.083984"/>
      <use xlink:href="#ArialMT-74" x="116.699219"/>
      <use xlink:href="#ArialMT-61" x="144.482422"/>
     </g>
    </g>
   </g>
   <g id="matplotlib.axis_2">
    <g id="ytick_1">
     <g id="line2d_6">
      <path d="M 50.025469 228.96 
L 273.225469 228.96 
" clip-path="url(#p2654bf386f)" style="fill: none; stroke: #ffffff; stroke-linecap: round"/>
     </g>
     <g id="text_7">
      <!-- 0 -->
      <g style="fill: #262626" transform="translate(34.408438 232.896797) scale(0.11 -0.11)">
       <use xlink:href="#ArialMT-30"/>
      </g>
     </g>
    </g>
    <g id="ytick_2">
     <g id="line2d_7">
      <path d="M 50.025469 191.907368 
L 273.225469 191.907368 
" clip-path="url(#p2654bf386f)" style="fill: none; stroke: #ffffff; stroke-linecap: round"/>
     </g>
     <g id="text_8">
      <!-- 20 -->
      <g style="fill: #262626" transform="translate(28.291406 195.844165) scale(0.11 -0.11)">
       <use xlink:href="#ArialMT-32"/>
       <use xlink:href="#ArialMT-30" x="55.615234"/>
      </g>
     </g>
    </g>
    <g id="ytick_3">
     <g id="line2d_8">
      <path d="M 50.025469 154.854737 
L 273.225469 154.854737 
" clip-path="url(#p2654bf386f)" style="fill: none; stroke: #ffffff; stroke-linecap: round"/>
     </g>
     <g id="text_9">
      <!-- 40 -->
      <g style="fill: #262626" transform="translate(28.291406 158.791534) scale(0.11 -0.11)">
       <use xlink:href="#ArialMT-34"/>
       <use xlink:href="#ArialMT-30" x="55.615234"/>
      </g>
     </g>
    </g>
    <g id="ytick_4">
     <g id="line2d_9">
      <path d="M 50.025469 117.802105 
L 273.225469 117.802105 
" clip-path="url(#p2654bf386f)" style="fill: none; stroke: #ffffff; stroke-linecap: round"/>
     </g>
     <g id="text_10">
      <!-- 60 -->
      <g style="fill: #262626" transform="translate(28.291406 121.738902) scale(0.11 -0.11)">
       <defs>
        <path id="ArialMT-36" d="M 3184 3459 
L 2625 3416 
Q 2550 3747 2413 3897 
Q 2184 4138 1850 4138 
Q 1581 4138 1378 3988 
Q 1113 3794 959 3422 
Q 806 3050 800 2363 
Q 1003 2672 1297 2822 
Q 1591 2972 1913 2972 
Q 2475 2972 2870 2558 
Q 3266 2144 3266 1488 
Q 3266 1056 3080 686 
Q 2894 316 2569 119 
Q 2244 -78 1831 -78 
Q 1128 -78 684 439 
Q 241 956 241 2144 
Q 241 3472 731 4075 
Q 1159 4600 1884 4600 
Q 2425 4600 2770 4297 
Q 3116 3994 3184 3459 
z
M 888 1484 
Q 888 1194 1011 928 
Q 1134 663 1356 523 
Q 1578 384 1822 384 
Q 2178 384 2434 671 
Q 2691 959 2691 1453 
Q 2691 1928 2437 2201 
Q 2184 2475 1800 2475 
Q 1419 2475 1153 2201 
Q 888 1928 888 1484 
z
" transform="scale(0.015625)"/>
       </defs>
       <use xlink:href="#ArialMT-36"/>
       <use xlink:href="#ArialMT-30" x="55.615234"/>
      </g>
     </g>
    </g>
    <g id="ytick_5">
     <g id="line2d_10">
      <path d="M 50.025469 80.749474 
L 273.225469 80.749474 
" clip-path="url(#p2654bf386f)" style="fill: none; stroke: #ffffff; stroke-linecap: round"/>
     </g>
     <g id="text_11">
      <!-- 80 -->
      <g style="fill: #262626" transform="translate(28.291406 84.686271) scale(0.11 -0.11)">
       <defs>
        <path id="ArialMT-38" d="M 1131 2484 
Q 781 2613 612 2850 
Q 444 3088 444 3419 
Q 444 3919 803 4259 
Q 1163 4600 1759 4600 
Q 2359 4600 2725 4251 
Q 3091 3903 3091 3403 
Q 3091 3084 2923 2848 
Q 2756 2613 2416 2484 
Q 2838 2347 3058 2040 
Q 3278 1734 3278 1309 
Q 3278 722 2862 322 
Q 2447 -78 1769 -78 
Q 1091 -78 675 323 
Q 259 725 259 1325 
Q 259 1772 486 2073 
Q 713 2375 1131 2484 
z
M 1019 3438 
Q 1019 3113 1228 2906 
Q 1438 2700 1772 2700 
Q 2097 2700 2305 2904 
Q 2513 3109 2513 3406 
Q 2513 3716 2298 3927 
Q 2084 4138 1766 4138 
Q 1444 4138 1231 3931 
Q 1019 3725 1019 3438 
z
M 838 1322 
Q 838 1081 952 856 
Q 1066 631 1291 507 
Q 1516 384 1775 384 
Q 2178 384 2440 643 
Q 2703 903 2703 1303 
Q 2703 1709 2433 1975 
Q 2163 2241 1756 2241 
Q 1359 2241 1098 1978 
Q 838 1716 838 1322 
z
" transform="scale(0.015625)"/>
       </defs>
       <use xlink:href="#ArialMT-38"/>
       <use xlink:href="#ArialMT-30" x="55.615234"/>
      </g>
     </g>
    </g>
    <g id="ytick_6">
     <g id="line2d_11">
      <path d="M 50.025469 43.696842 
L 273.225469 43.696842 
" clip-path="url(#p2654bf386f)" style="fill: none; stroke: #ffffff; stroke-linecap: round"/>
     </g>
     <g id="text_12">
      <!-- 100 -->
      <g style="fill: #262626" transform="translate(22.174375 47.633639) scale(0.11 -0.11)">
       <defs>
        <path id="ArialMT-31" d="M 2384 0 
L 1822 0 
L 1822 3584 
Q 1619 3391 1289 3197 
Q 959 3003 697 2906 
L 697 3450 
Q 1169 3672 1522 3987 
Q 1875 4303 2022 4600 
L 2384 4600 
L 2384 0 
z
" transform="scale(0.015625)"/>
       </defs>
       <use xlink:href="#ArialMT-31"/>
       <use xlink:href="#ArialMT-30" x="55.615234"/>
       <use xlink:href="#ArialMT-30" x="111.230469"/>
      </g>
     </g>
    </g>
    <g id="text_13">
     <!-- Count -->
     <g style="fill: #262626" transform="translate(15.789375 134.089687) rotate(-90) scale(0.12 -0.12)">
      <defs>
       <path id="ArialMT-43" d="M 3763 1606 
L 4369 1453 
Q 4178 706 3683 314 
Q 3188 -78 2472 -78 
Q 1731 -78 1267 223 
Q 803 525 561 1097 
Q 319 1669 319 2325 
Q 319 3041 592 3573 
Q 866 4106 1370 4382 
Q 1875 4659 2481 4659 
Q 3169 4659 3637 4309 
Q 4106 3959 4291 3325 
L 3694 3184 
Q 3534 3684 3231 3912 
Q 2928 4141 2469 4141 
Q 1941 4141 1586 3887 
Q 1231 3634 1087 3207 
Q 944 2781 944 2328 
Q 944 1744 1114 1308 
Q 1284 872 1643 656 
Q 2003 441 2422 441 
Q 2931 441 3284 734 
Q 3638 1028 3763 1606 
z
" transform="scale(0.015625)"/>
       <path id="ArialMT-6f" d="M 213 1659 
Q 213 2581 725 3025 
Q 1153 3394 1769 3394 
Q 2453 3394 2887 2945 
Q 3322 2497 3322 1706 
Q 3322 1066 3130 698 
Q 2938 331 2570 128 
Q 2203 -75 1769 -75 
Q 1072 -75 642 372 
Q 213 819 213 1659 
z
M 791 1659 
Q 791 1022 1069 705 
Q 1347 388 1769 388 
Q 2188 388 2466 706 
Q 2744 1025 2744 1678 
Q 2744 2294 2464 2611 
Q 2184 2928 1769 2928 
Q 1347 2928 1069 2612 
Q 791 2297 791 1659 
z
" transform="scale(0.015625)"/>
       <path id="ArialMT-75" d="M 2597 0 
L 2597 488 
Q 2209 -75 1544 -75 
Q 1250 -75 995 37 
Q 741 150 617 320 
Q 494 491 444 738 
Q 409 903 409 1263 
L 409 3319 
L 972 3319 
L 972 1478 
Q 972 1038 1006 884 
Q 1059 663 1231 536 
Q 1403 409 1656 409 
Q 1909 409 2131 539 
Q 2353 669 2445 892 
Q 2538 1116 2538 1541 
L 2538 3319 
L 3100 3319 
L 3100 0 
L 2597 0 
z
" transform="scale(0.015625)"/>
       <path id="ArialMT-6e" d="M 422 0 
L 422 3319 
L 928 3319 
L 928 2847 
Q 1294 3394 1984 3394 
Q 2284 3394 2536 3286 
Q 2788 3178 2913 3003 
Q 3038 2828 3088 2588 
Q 3119 2431 3119 2041 
L 3119 0 
L 2556 0 
L 2556 2019 
Q 2556 2363 2490 2533 
Q 2425 2703 2258 2804 
Q 2091 2906 1866 2906 
Q 1506 2906 1245 2678 
Q 984 2450 984 1813 
L 984 0 
L 422 0 
z
" transform="scale(0.015625)"/>
      </defs>
      <use xlink:href="#ArialMT-43"/>
      <use xlink:href="#ArialMT-6f" x="72.216797"/>
      <use xlink:href="#ArialMT-75" x="127.832031"/>
      <use xlink:href="#ArialMT-6e" x="183.447266"/>
      <use xlink:href="#ArialMT-74" x="239.0625"/>
     </g>
    </g>
   </g>
   <g id="patch_3">
    <path d="M 60.170923 228.96 
L 62.200014 228.96 
L 62.200014 225.254737 
L 60.170923 225.254737 
z
" clip-path="url(#p2654bf386f)" style="fill: #4c72b0; fill-opacity: 0.75; stroke: #ffffff; stroke-width: 0.202909; stroke-linejoin: miter"/>
   </g>
   <g id="patch_4">
    <path d="M 62.200014 228.96 
L 64.229105 228.96 
L 64.229105 228.96 
L 62.200014 228.96 
z
" clip-path="url(#p2654bf386f)" style="fill: #4c72b0; fill-opacity: 0.75; stroke: #ffffff; stroke-width: 0.202909; stroke-linejoin: miter"/>
   </g>
   <g id="patch_5">
    <path d="M 64.229105 228.96 
L 66.258196 228.96 
L 66.258196 228.96 
L 64.229105 228.96 
z
" clip-path="url(#p2654bf386f)" style="fill: #4c72b0; fill-opacity: 0.75; stroke: #ffffff; stroke-width: 0.202909; stroke-linejoin: miter"/>
   </g>
   <g id="patch_6">
    <path d="M 66.258196 228.96 
L 68.287287 228.96 
L 68.287287 227.107368 
L 66.258196 227.107368 
z
" clip-path="url(#p2654bf386f)" style="fill: #4c72b0; fill-opacity: 0.75; stroke: #ffffff; stroke-width: 0.202909; stroke-linejoin: miter"/>
   </g>
   <g id="patch_7">
    <path d="M 68.287287 228.96 
L 70.316378 228.96 
L 70.316378 228.96 
L 68.287287 228.96 
z
" clip-path="url(#p2654bf386f)" style="fill: #4c72b0; fill-opacity: 0.75; stroke: #ffffff; stroke-width: 0.202909; stroke-linejoin: miter"/>
   </g>
   <g id="patch_8">
    <path d="M 70.316378 228.96 
L 72.345469 228.96 
L 72.345469 227.107368 
L 70.316378 227.107368 
z
" clip-path="url(#p2654bf386f)" style="fill: #4c72b0; fill-opacity: 0.75; stroke: #ffffff; stroke-width: 0.202909; stroke-linejoin: miter"/>
   </g>
   <g id="patch_9">
    <path d="M 72.345469 228.96 
L 74.37456 228.96 
L 74.37456 225.254737 
L 72.345469 225.254737 
z
" clip-path="url(#p2654bf386f)" style="fill: #4c72b0; fill-opacity: 0.75; stroke: #ffffff; stroke-width: 0.202909; stroke-linejoin: miter"/>
   </g>
   <g id="patch_10">
    <path d="M 74.37456 228.96 
L 76.403651 228.96 
L 76.403651 223.402105 
L 74.37456 223.402105 
z
" clip-path="url(#p2654bf386f)" style="fill: #4c72b0; fill-opacity: 0.75; stroke: #ffffff; stroke-width: 0.202909; stroke-linejoin: miter"/>
   </g>
   <g id="patch_11">
    <path d="M 76.403651 228.96 
L 78.432741 228.96 
L 78.432741 228.96 
L 76.403651 228.96 
z
" clip-path="url(#p2654bf386f)" style="fill: #4c72b0; fill-opacity: 0.75; stroke: #ffffff; stroke-width: 0.202909; stroke-linejoin: miter"/>
   </g>
   <g id="patch_12">
    <path d="M 78.432741 228.96 
L 80.461832 228.96 
L 80.461832 227.107368 
L 78.432741 227.107368 
z
" clip-path="url(#p2654bf386f)" style="fill: #4c72b0; fill-opacity: 0.75; stroke: #ffffff; stroke-width: 0.202909; stroke-linejoin: miter"/>
   </g>
   <g id="patch_13">
    <path d="M 80.461832 228.96 
L 82.490923 228.96 
L 82.490923 223.402105 
L 80.461832 223.402105 
z
" clip-path="url(#p2654bf386f)" style="fill: #4c72b0; fill-opacity: 0.75; stroke: #ffffff; stroke-width: 0.202909; stroke-linejoin: miter"/>
   </g>
   <g id="patch_14">
    <path d="M 82.490923 228.96 
L 84.520014 228.96 
L 84.520014 225.254737 
L 82.490923 225.254737 
z
" clip-path="url(#p2654bf386f)" style="fill: #4c72b0; fill-opacity: 0.75; stroke: #ffffff; stroke-width: 0.202909; stroke-linejoin: miter"/>
   </g>
   <g id="patch_15">
    <path d="M 84.520014 228.96 
L 86.549105 228.96 
L 86.549105 225.254737 
L 84.520014 225.254737 
z
" clip-path="url(#p2654bf386f)" style="fill: #4c72b0; fill-opacity: 0.75; stroke: #ffffff; stroke-width: 0.202909; stroke-linejoin: miter"/>
   </g>
   <g id="patch_16">
    <path d="M 86.549105 228.96 
L 88.578196 228.96 
L 88.578196 225.254737 
L 86.549105 225.254737 
z
" clip-path="url(#p2654bf386f)" style="fill: #4c72b0; fill-opacity: 0.75; stroke: #ffffff; stroke-width: 0.202909; stroke-linejoin: miter"/>
   </g>
   <g id="patch_17">
    <path d="M 88.578196 228.96 
L 90.607287 228.96 
L 90.607287 223.402105 
L 88.578196 223.402105 
z
" clip-path="url(#p2654bf386f)" style="fill: #4c72b0; fill-opacity: 0.75; stroke: #ffffff; stroke-width: 0.202909; stroke-linejoin: miter"/>
   </g>
   <g id="patch_18">
    <path d="M 90.607287 228.96 
L 92.636378 228.96 
L 92.636378 227.107368 
L 90.607287 227.107368 
z
" clip-path="url(#p2654bf386f)" style="fill: #4c72b0; fill-opacity: 0.75; stroke: #ffffff; stroke-width: 0.202909; stroke-linejoin: miter"/>
   </g>
   <g id="patch_19">
    <path d="M 92.636378 228.96 
L 94.665469 228.96 
L 94.665469 228.96 
L 92.636378 228.96 
z
" clip-path="url(#p2654bf386f)" style="fill: #4c72b0; fill-opacity: 0.75; stroke: #ffffff; stroke-width: 0.202909; stroke-linejoin: miter"/>
   </g>
   <g id="patch_20">
    <path d="M 94.665469 228.96 
L 96.69456 228.96 
L 96.69456 225.254737 
L 94.665469 225.254737 
z
" clip-path="url(#p2654bf386f)" style="fill: #4c72b0; fill-opacity: 0.75; stroke: #ffffff; stroke-width: 0.202909; stroke-linejoin: miter"/>
   </g>
   <g id="patch_21">
    <path d="M 96.69456 228.96 
L 98.723651 228.96 
L 98.723651 228.96 
L 96.69456 228.96 
z
" clip-path="url(#p2654bf386f)" style="fill: #4c72b0; fill-opacity: 0.75; stroke: #ffffff; stroke-width: 0.202909; stroke-linejoin: miter"/>
   </g>
   <g id="patch_22">
    <path d="M 98.723651 228.96 
L 100.752741 228.96 
L 100.752741 223.402105 
L 98.723651 223.402105 
z
" clip-path="url(#p2654bf386f)" style="fill: #4c72b0; fill-opacity: 0.75; stroke: #ffffff; stroke-width: 0.202909; stroke-linejoin: miter"/>
   </g>
   <g id="patch_23">
    <path d="M 100.752741 228.96 
L 102.781832 228.96 
L 102.781832 223.402105 
L 100.752741 223.402105 
z
" clip-path="url(#p2654bf386f)" style="fill: #4c72b0; fill-opacity: 0.75; stroke: #ffffff; stroke-width: 0.202909; stroke-linejoin: miter"/>
   </g>
   <g id="patch_24">
    <path d="M 102.781832 228.96 
L 104.810923 228.96 
L 104.810923 227.107368 
L 102.781832 227.107368 
z
" clip-path="url(#p2654bf386f)" style="fill: #4c72b0; fill-opacity: 0.75; stroke: #ffffff; stroke-width: 0.202909; stroke-linejoin: miter"/>
   </g>
   <g id="patch_25">
    <path d="M 104.810923 228.96 
L 106.840014 228.96 
L 106.840014 228.96 
L 104.810923 228.96 
z
" clip-path="url(#p2654bf386f)" style="fill: #4c72b0; fill-opacity: 0.75; stroke: #ffffff; stroke-width: 0.202909; stroke-linejoin: miter"/>
   </g>
   <g id="patch_26">
    <path d="M 106.840014 228.96 
L 108.869105 228.96 
L 108.869105 225.254737 
L 106.840014 225.254737 
z
" clip-path="url(#p2654bf386f)" style="fill: #4c72b0; fill-opacity: 0.75; stroke: #ffffff; stroke-width: 0.202909; stroke-linejoin: miter"/>
   </g>
   <g id="patch_27">
    <path d="M 108.869105 228.96 
L 110.898196 228.96 
L 110.898196 225.254737 
L 108.869105 225.254737 
z
" clip-path="url(#p2654bf386f)" style="fill: #4c72b0; fill-opacity: 0.75; stroke: #ffffff; stroke-width: 0.202909; stroke-linejoin: miter"/>
   </g>
   <g id="patch_28">
    <path d="M 110.898196 228.96 
L 112.927287 228.96 
L 112.927287 221.549474 
L 110.898196 221.549474 
z
" clip-path="url(#p2654bf386f)" style="fill: #4c72b0; fill-opacity: 0.75; stroke: #ffffff; stroke-width: 0.202909; stroke-linejoin: miter"/>
   </g>
   <g id="patch_29">
    <path d="M 112.927287 228.96 
L 114.956378 228.96 
L 114.956378 225.254737 
L 112.927287 225.254737 
z
" clip-path="url(#p2654bf386f)" style="fill: #4c72b0; fill-opacity: 0.75; stroke: #ffffff; stroke-width: 0.202909; stroke-linejoin: miter"/>
   </g>
   <g id="patch_30">
    <path d="M 114.956378 228.96 
L 116.985469 228.96 
L 116.985469 225.254737 
L 114.956378 225.254737 
z
" clip-path="url(#p2654bf386f)" style="fill: #4c72b0; fill-opacity: 0.75; stroke: #ffffff; stroke-width: 0.202909; stroke-linejoin: miter"/>
   </g>
   <g id="patch_31">
    <path d="M 116.985469 228.96 
L 119.01456 228.96 
L 119.01456 225.254737 
L 116.985469 225.254737 
z
" clip-path="url(#p2654bf386f)" style="fill: #4c72b0; fill-opacity: 0.75; stroke: #ffffff; stroke-width: 0.202909; stroke-linejoin: miter"/>
   </g>
   <g id="patch_32">
    <path d="M 119.01456 228.96 
L 121.043651 228.96 
L 121.043651 225.254737 
L 119.01456 225.254737 
z
" clip-path="url(#p2654bf386f)" style="fill: #4c72b0; fill-opacity: 0.75; stroke: #ffffff; stroke-width: 0.202909; stroke-linejoin: miter"/>
   </g>
   <g id="patch_33">
    <path d="M 121.043651 228.96 
L 123.072741 228.96 
L 123.072741 223.402105 
L 121.043651 223.402105 
z
" clip-path="url(#p2654bf386f)" style="fill: #4c72b0; fill-opacity: 0.75; stroke: #ffffff; stroke-width: 0.202909; stroke-linejoin: miter"/>
   </g>
   <g id="patch_34">
    <path d="M 123.072741 228.96 
L 125.101832 228.96 
L 125.101832 223.402105 
L 123.072741 223.402105 
z
" clip-path="url(#p2654bf386f)" style="fill: #4c72b0; fill-opacity: 0.75; stroke: #ffffff; stroke-width: 0.202909; stroke-linejoin: miter"/>
   </g>
   <g id="patch_35">
    <path d="M 125.101832 228.96 
L 127.130923 228.96 
L 127.130923 225.254737 
L 125.101832 225.254737 
z
" clip-path="url(#p2654bf386f)" style="fill: #4c72b0; fill-opacity: 0.75; stroke: #ffffff; stroke-width: 0.202909; stroke-linejoin: miter"/>
   </g>
   <g id="patch_36">
    <path d="M 127.130923 228.96 
L 129.160014 228.96 
L 129.160014 212.286316 
L 127.130923 212.286316 
z
" clip-path="url(#p2654bf386f)" style="fill: #4c72b0; fill-opacity: 0.75; stroke: #ffffff; stroke-width: 0.202909; stroke-linejoin: miter"/>
   </g>
   <g id="patch_37">
    <path d="M 129.160014 228.96 
L 131.189105 228.96 
L 131.189105 215.991579 
L 129.160014 215.991579 
z
" clip-path="url(#p2654bf386f)" style="fill: #4c72b0; fill-opacity: 0.75; stroke: #ffffff; stroke-width: 0.202909; stroke-linejoin: miter"/>
   </g>
   <g id="patch_38">
    <path d="M 131.189105 228.96 
L 133.218196 228.96 
L 133.218196 214.138947 
L 131.189105 214.138947 
z
" clip-path="url(#p2654bf386f)" style="fill: #4c72b0; fill-opacity: 0.75; stroke: #ffffff; stroke-width: 0.202909; stroke-linejoin: miter"/>
   </g>
   <g id="patch_39">
    <path d="M 133.218196 228.96 
L 135.247287 228.96 
L 135.247287 208.581053 
L 133.218196 208.581053 
z
" clip-path="url(#p2654bf386f)" style="fill: #4c72b0; fill-opacity: 0.75; stroke: #ffffff; stroke-width: 0.202909; stroke-linejoin: miter"/>
   </g>
   <g id="patch_40">
    <path d="M 135.247287 228.96 
L 137.276378 228.96 
L 137.276378 199.317895 
L 135.247287 199.317895 
z
" clip-path="url(#p2654bf386f)" style="fill: #4c72b0; fill-opacity: 0.75; stroke: #ffffff; stroke-width: 0.202909; stroke-linejoin: miter"/>
   </g>
   <g id="patch_41">
    <path d="M 137.276378 228.96 
L 139.305469 228.96 
L 139.305469 191.907368 
L 137.276378 191.907368 
z
" clip-path="url(#p2654bf386f)" style="fill: #4c72b0; fill-opacity: 0.75; stroke: #ffffff; stroke-width: 0.202909; stroke-linejoin: miter"/>
   </g>
   <g id="patch_42">
    <path d="M 139.305469 228.96 
L 141.33456 228.96 
L 141.33456 193.76 
L 139.305469 193.76 
z
" clip-path="url(#p2654bf386f)" style="fill: #4c72b0; fill-opacity: 0.75; stroke: #ffffff; stroke-width: 0.202909; stroke-linejoin: miter"/>
   </g>
   <g id="patch_43">
    <path d="M 141.33456 228.96 
L 143.363651 228.96 
L 143.363651 160.412632 
L 141.33456 160.412632 
z
" clip-path="url(#p2654bf386f)" style="fill: #4c72b0; fill-opacity: 0.75; stroke: #ffffff; stroke-width: 0.202909; stroke-linejoin: miter"/>
   </g>
   <g id="patch_44">
    <path d="M 143.363651 228.96 
L 145.392741 228.96 
L 145.392741 128.917895 
L 143.363651 128.917895 
z
" clip-path="url(#p2654bf386f)" style="fill: #4c72b0; fill-opacity: 0.75; stroke: #ffffff; stroke-width: 0.202909; stroke-linejoin: miter"/>
   </g>
   <g id="patch_45">
    <path d="M 145.392741 228.96 
L 147.421832 228.96 
L 147.421832 75.191579 
L 145.392741 75.191579 
z
" clip-path="url(#p2654bf386f)" style="fill: #4c72b0; fill-opacity: 0.75; stroke: #ffffff; stroke-width: 0.202909; stroke-linejoin: miter"/>
   </g>
   <g id="patch_46">
    <path d="M 147.421832 228.96 
L 149.450923 228.96 
L 149.450923 17.76 
L 147.421832 17.76 
z
" clip-path="url(#p2654bf386f)" style="fill: #4c72b0; fill-opacity: 0.75; stroke: #ffffff; stroke-width: 0.202909; stroke-linejoin: miter"/>
   </g>
   <g id="patch_47">
    <path d="M 149.450923 228.96 
L 151.480014 228.96 
L 151.480014 77.044211 
L 149.450923 77.044211 
z
" clip-path="url(#p2654bf386f)" style="fill: #4c72b0; fill-opacity: 0.75; stroke: #ffffff; stroke-width: 0.202909; stroke-linejoin: miter"/>
   </g>
   <g id="patch_48">
    <path d="M 151.480014 228.96 
L 153.509105 228.96 
L 153.509105 151.149474 
L 151.480014 151.149474 
z
" clip-path="url(#p2654bf386f)" style="fill: #4c72b0; fill-opacity: 0.75; stroke: #ffffff; stroke-width: 0.202909; stroke-linejoin: miter"/>
   </g>
   <g id="patch_49">
    <path d="M 153.509105 228.96 
L 155.538196 228.96 
L 155.538196 169.675789 
L 153.509105 169.675789 
z
" clip-path="url(#p2654bf386f)" style="fill: #4c72b0; fill-opacity: 0.75; stroke: #ffffff; stroke-width: 0.202909; stroke-linejoin: miter"/>
   </g>
   <g id="patch_50">
    <path d="M 155.538196 228.96 
L 157.567287 228.96 
L 157.567287 186.349474 
L 155.538196 186.349474 
z
" clip-path="url(#p2654bf386f)" style="fill: #4c72b0; fill-opacity: 0.75; stroke: #ffffff; stroke-width: 0.202909; stroke-linejoin: miter"/>
   </g>
   <g id="patch_51">
    <path d="M 157.567287 228.96 
L 159.596378 228.96 
L 159.596378 195.612632 
L 157.567287 195.612632 
z
" clip-path="url(#p2654bf386f)" style="fill: #4c72b0; fill-opacity: 0.75; stroke: #ffffff; stroke-width: 0.202909; stroke-linejoin: miter"/>
   </g>
   <g id="patch_52">
    <path d="M 159.596378 228.96 
L 161.625469 228.96 
L 161.625469 204.875789 
L 159.596378 204.875789 
z
" clip-path="url(#p2654bf386f)" style="fill: #4c72b0; fill-opacity: 0.75; stroke: #ffffff; stroke-width: 0.202909; stroke-linejoin: miter"/>
   </g>
   <g id="patch_53">
    <path d="M 161.625469 228.96 
L 163.65456 228.96 
L 163.65456 210.433684 
L 161.625469 210.433684 
z
" clip-path="url(#p2654bf386f)" style="fill: #4c72b0; fill-opacity: 0.75; stroke: #ffffff; stroke-width: 0.202909; stroke-linejoin: miter"/>
   </g>
   <g id="patch_54">
    <path d="M 163.65456 228.96 
L 165.683651 228.96 
L 165.683651 219.696842 
L 163.65456 219.696842 
z
" clip-path="url(#p2654bf386f)" style="fill: #4c72b0; fill-opacity: 0.75; stroke: #ffffff; stroke-width: 0.202909; stroke-linejoin: miter"/>
   </g>
   <g id="patch_55">
    <path d="M 165.683651 228.96 
L 167.712741 228.96 
L 167.712741 217.844211 
L 165.683651 217.844211 
z
" clip-path="url(#p2654bf386f)" style="fill: #4c72b0; fill-opacity: 0.75; stroke: #ffffff; stroke-width: 0.202909; stroke-linejoin: miter"/>
   </g>
   <g id="patch_56">
    <path d="M 167.712741 228.96 
L 169.741832 228.96 
L 169.741832 210.433684 
L 167.712741 210.433684 
z
" clip-path="url(#p2654bf386f)" style="fill: #4c72b0; fill-opacity: 0.75; stroke: #ffffff; stroke-width: 0.202909; stroke-linejoin: miter"/>
   </g>
   <g id="patch_57">
    <path d="M 169.741832 228.96 
L 171.770923 228.96 
L 171.770923 225.254737 
L 169.741832 225.254737 
z
" clip-path="url(#p2654bf386f)" style="fill: #4c72b0; fill-opacity: 0.75; stroke: #ffffff; stroke-width: 0.202909; stroke-linejoin: miter"/>
   </g>
   <g id="patch_58">
    <path d="M 171.770923 228.96 
L 173.800014 228.96 
L 173.800014 225.254737 
L 171.770923 225.254737 
z
" clip-path="url(#p2654bf386f)" style="fill: #4c72b0; fill-opacity: 0.75; stroke: #ffffff; stroke-width: 0.202909; stroke-linejoin: miter"/>
   </g>
   <g id="patch_59">
    <path d="M 173.800014 228.96 
L 175.829105 228.96 
L 175.829105 219.696842 
L 173.800014 219.696842 
z
" clip-path="url(#p2654bf386f)" style="fill: #4c72b0; fill-opacity: 0.75; stroke: #ffffff; stroke-width: 0.202909; stroke-linejoin: miter"/>
   </g>
   <g id="patch_60">
    <path d="M 175.829105 228.96 
L 177.858196 228.96 
L 177.858196 227.107368 
L 175.829105 227.107368 
z
" clip-path="url(#p2654bf386f)" style="fill: #4c72b0; fill-opacity: 0.75; stroke: #ffffff; stroke-width: 0.202909; stroke-linejoin: miter"/>
   </g>
   <g id="patch_61">
    <path d="M 177.858196 228.96 
L 179.887287 228.96 
L 179.887287 228.96 
L 177.858196 228.96 
z
" clip-path="url(#p2654bf386f)" style="fill: #4c72b0; fill-opacity: 0.75; stroke: #ffffff; stroke-width: 0.202909; stroke-linejoin: miter"/>
   </g>
   <g id="patch_62">
    <path d="M 179.887287 228.96 
L 181.916378 228.96 
L 181.916378 228.96 
L 179.887287 228.96 
z
" clip-path="url(#p2654bf386f)" style="fill: #4c72b0; fill-opacity: 0.75; stroke: #ffffff; stroke-width: 0.202909; stroke-linejoin: miter"/>
   </g>
   <g id="patch_63">
    <path d="M 181.916378 228.96 
L 183.945469 228.96 
L 183.945469 223.402105 
L 181.916378 223.402105 
z
" clip-path="url(#p2654bf386f)" style="fill: #4c72b0; fill-opacity: 0.75; stroke: #ffffff; stroke-width: 0.202909; stroke-linejoin: miter"/>
   </g>
   <g id="patch_64">
    <path d="M 183.945469 228.96 
L 185.97456 228.96 
L 185.97456 221.549474 
L 183.945469 221.549474 
z
" clip-path="url(#p2654bf386f)" style="fill: #4c72b0; fill-opacity: 0.75; stroke: #ffffff; stroke-width: 0.202909; stroke-linejoin: miter"/>
   </g>
   <g id="patch_65">
    <path d="M 185.97456 228.96 
L 188.003651 228.96 
L 188.003651 228.96 
L 185.97456 228.96 
z
" clip-path="url(#p2654bf386f)" style="fill: #4c72b0; fill-opacity: 0.75; stroke: #ffffff; stroke-width: 0.202909; stroke-linejoin: miter"/>
   </g>
   <g id="patch_66">
    <path d="M 188.003651 228.96 
L 190.032741 228.96 
L 190.032741 228.96 
L 188.003651 228.96 
z
" clip-path="url(#p2654bf386f)" style="fill: #4c72b0; fill-opacity: 0.75; stroke: #ffffff; stroke-width: 0.202909; stroke-linejoin: miter"/>
   </g>
   <g id="patch_67">
    <path d="M 190.032741 228.96 
L 192.061832 228.96 
L 192.061832 221.549474 
L 190.032741 221.549474 
z
" clip-path="url(#p2654bf386f)" style="fill: #4c72b0; fill-opacity: 0.75; stroke: #ffffff; stroke-width: 0.202909; stroke-linejoin: miter"/>
   </g>
   <g id="patch_68">
    <path d="M 192.061832 228.96 
L 194.090923 228.96 
L 194.090923 225.254737 
L 192.061832 225.254737 
z
" clip-path="url(#p2654bf386f)" style="fill: #4c72b0; fill-opacity: 0.75; stroke: #ffffff; stroke-width: 0.202909; stroke-linejoin: miter"/>
   </g>
   <g id="patch_69">
    <path d="M 194.090923 228.96 
L 196.120014 228.96 
L 196.120014 228.96 
L 194.090923 228.96 
z
" clip-path="url(#p2654bf386f)" style="fill: #4c72b0; fill-opacity: 0.75; stroke: #ffffff; stroke-width: 0.202909; stroke-linejoin: miter"/>
   </g>
   <g id="patch_70">
    <path d="M 196.120014 228.96 
L 198.149105 228.96 
L 198.149105 227.107368 
L 196.120014 227.107368 
z
" clip-path="url(#p2654bf386f)" style="fill: #4c72b0; fill-opacity: 0.75; stroke: #ffffff; stroke-width: 0.202909; stroke-linejoin: miter"/>
   </g>
   <g id="patch_71">
    <path d="M 198.149105 228.96 
L 200.178196 228.96 
L 200.178196 223.402105 
L 198.149105 223.402105 
z
" clip-path="url(#p2654bf386f)" style="fill: #4c72b0; fill-opacity: 0.75; stroke: #ffffff; stroke-width: 0.202909; stroke-linejoin: miter"/>
   </g>
   <g id="patch_72">
    <path d="M 200.178196 228.96 
L 202.207287 228.96 
L 202.207287 227.107368 
L 200.178196 227.107368 
z
" clip-path="url(#p2654bf386f)" style="fill: #4c72b0; fill-opacity: 0.75; stroke: #ffffff; stroke-width: 0.202909; stroke-linejoin: miter"/>
   </g>
   <g id="patch_73">
    <path d="M 202.207287 228.96 
L 204.236378 228.96 
L 204.236378 227.107368 
L 202.207287 227.107368 
z
" clip-path="url(#p2654bf386f)" style="fill: #4c72b0; fill-opacity: 0.75; stroke: #ffffff; stroke-width: 0.202909; stroke-linejoin: miter"/>
   </g>
   <g id="patch_74">
    <path d="M 204.236378 228.96 
L 206.265469 228.96 
L 206.265469 225.254737 
L 204.236378 225.254737 
z
" clip-path="url(#p2654bf386f)" style="fill: #4c72b0; fill-opacity: 0.75; stroke: #ffffff; stroke-width: 0.202909; stroke-linejoin: miter"/>
   </g>
   <g id="patch_75">
    <path d="M 206.265469 228.96 
L 208.29456 228.96 
L 208.29456 225.254737 
L 206.265469 225.254737 
z
" clip-path="url(#p2654bf386f)" style="fill: #4c72b0; fill-opacity: 0.75; stroke: #ffffff; stroke-width: 0.202909; stroke-linejoin: miter"/>
   </g>
   <g id="patch_76">
    <path d="M 208.29456 228.96 
L 210.323651 228.96 
L 210.323651 223.402105 
L 208.29456 223.402105 
z
" clip-path="url(#p2654bf386f)" style="fill: #4c72b0; fill-opacity: 0.75; stroke: #ffffff; stroke-width: 0.202909; stroke-linejoin: miter"/>
   </g>
   <g id="patch_77">
    <path d="M 210.323651 228.96 
L 212.352741 228.96 
L 212.352741 227.107368 
L 210.323651 227.107368 
z
" clip-path="url(#p2654bf386f)" style="fill: #4c72b0; fill-opacity: 0.75; stroke: #ffffff; stroke-width: 0.202909; stroke-linejoin: miter"/>
   </g>
   <g id="patch_78">
    <path d="M 212.352741 228.96 
L 214.381832 228.96 
L 214.381832 227.107368 
L 212.352741 227.107368 
z
" clip-path="url(#p2654bf386f)" style="fill: #4c72b0; fill-opacity: 0.75; stroke: #ffffff; stroke-width: 0.202909; stroke-linejoin: miter"/>
   </g>
   <g id="patch_79">
    <path d="M 214.381832 228.96 
L 216.410923 228.96 
L 216.410923 227.107368 
L 214.381832 227.107368 
z
" clip-path="url(#p2654bf386f)" style="fill: #4c72b0; fill-opacity: 0.75; stroke: #ffffff; stroke-width: 0.202909; stroke-linejoin: miter"/>
   </g>
   <g id="patch_80">
    <path d="M 216.410923 228.96 
L 218.440014 228.96 
L 218.440014 225.254737 
L 216.410923 225.254737 
z
" clip-path="url(#p2654bf386f)" style="fill: #4c72b0; fill-opacity: 0.75; stroke: #ffffff; stroke-width: 0.202909; stroke-linejoin: miter"/>
   </g>
   <g id="patch_81">
    <path d="M 218.440014 228.96 
L 220.469105 228.96 
L 220.469105 227.107368 
L 218.440014 227.107368 
z
" clip-path="url(#p2654bf386f)" style="fill: #4c72b0; fill-opacity: 0.75; stroke: #ffffff; stroke-width: 0.202909; stroke-linejoin: miter"/>
   </g>
   <g id="patch_82">
    <path d="M 220.469105 228.96 
L 222.498196 228.96 
L 222.498196 228.96 
L 220.469105 228.96 
z
" clip-path="url(#p2654bf386f)" style="fill: #4c72b0; fill-opacity: 0.75; stroke: #ffffff; stroke-width: 0.202909; stroke-linejoin: miter"/>
   </g>
   <g id="patch_83">
    <path d="M 222.498196 228.96 
L 224.527287 228.96 
L 224.527287 228.96 
L 222.498196 228.96 
z
" clip-path="url(#p2654bf386f)" style="fill: #4c72b0; fill-opacity: 0.75; stroke: #ffffff; stroke-width: 0.202909; stroke-linejoin: miter"/>
   </g>
   <g id="patch_84">
    <path d="M 224.527287 228.96 
L 226.556378 228.96 
L 226.556378 228.96 
L 224.527287 228.96 
z
" clip-path="url(#p2654bf386f)" style="fill: #4c72b0; fill-opacity: 0.75; stroke: #ffffff; stroke-width: 0.202909; stroke-linejoin: miter"/>
   </g>
   <g id="patch_85">
    <path d="M 226.556378 228.96 
L 228.585469 228.96 
L 228.585469 228.96 
L 226.556378 228.96 
z
" clip-path="url(#p2654bf386f)" style="fill: #4c72b0; fill-opacity: 0.75; stroke: #ffffff; stroke-width: 0.202909; stroke-linejoin: miter"/>
   </g>
   <g id="patch_86">
    <path d="M 228.585469 228.96 
L 230.61456 228.96 
L 230.61456 227.107368 
L 228.585469 227.107368 
z
" clip-path="url(#p2654bf386f)" style="fill: #4c72b0; fill-opacity: 0.75; stroke: #ffffff; stroke-width: 0.202909; stroke-linejoin: miter"/>
   </g>
   <g id="patch_87">
    <path d="M 230.61456 228.96 
L 232.643651 228.96 
L 232.643651 227.107368 
L 230.61456 227.107368 
z
" clip-path="url(#p2654bf386f)" style="fill: #4c72b0; fill-opacity: 0.75; stroke: #ffffff; stroke-width: 0.202909; stroke-linejoin: miter"/>
   </g>
   <g id="patch_88">
    <path d="M 232.643651 228.96 
L 234.672741 228.96 
L 234.672741 228.96 
L 232.643651 228.96 
z
" clip-path="url(#p2654bf386f)" style="fill: #4c72b0; fill-opacity: 0.75; stroke: #ffffff; stroke-width: 0.202909; stroke-linejoin: miter"/>
   </g>
   <g id="patch_89">
    <path d="M 234.672741 228.96 
L 236.701832 228.96 
L 236.701832 228.96 
L 234.672741 228.96 
z
" clip-path="url(#p2654bf386f)" style="fill: #4c72b0; fill-opacity: 0.75; stroke: #ffffff; stroke-width: 0.202909; stroke-linejoin: miter"/>
   </g>
   <g id="patch_90">
    <path d="M 236.701832 228.96 
L 238.730923 228.96 
L 238.730923 228.96 
L 236.701832 228.96 
z
" clip-path="url(#p2654bf386f)" style="fill: #4c72b0; fill-opacity: 0.75; stroke: #ffffff; stroke-width: 0.202909; stroke-linejoin: miter"/>
   </g>
   <g id="patch_91">
    <path d="M 238.730923 228.96 
L 240.760014 228.96 
L 240.760014 228.96 
L 238.730923 228.96 
z
" clip-path="url(#p2654bf386f)" style="fill: #4c72b0; fill-opacity: 0.75; stroke: #ffffff; stroke-width: 0.202909; stroke-linejoin: miter"/>
   </g>
   <g id="patch_92">
    <path d="M 240.760014 228.96 
L 242.789105 228.96 
L 242.789105 228.96 
L 240.760014 228.96 
z
" clip-path="url(#p2654bf386f)" style="fill: #4c72b0; fill-opacity: 0.75; stroke: #ffffff; stroke-width: 0.202909; stroke-linejoin: miter"/>
   </g>
   <g id="patch_93">
    <path d="M 242.789105 228.96 
L 244.818196 228.96 
L 244.818196 228.96 
L 242.789105 228.96 
z
" clip-path="url(#p2654bf386f)" style="fill: #4c72b0; fill-opacity: 0.75; stroke: #ffffff; stroke-width: 0.202909; stroke-linejoin: miter"/>
   </g>
   <g id="patch_94">
    <path d="M 244.818196 228.96 
L 246.847287 228.96 
L 246.847287 228.96 
L 244.818196 228.96 
z
" clip-path="url(#p2654bf386f)" style="fill: #4c72b0; fill-opacity: 0.75; stroke: #ffffff; stroke-width: 0.202909; stroke-linejoin: miter"/>
   </g>
   <g id="patch_95">
    <path d="M 246.847287 228.96 
L 248.876378 228.96 
L 248.876378 228.96 
L 246.847287 228.96 
z
" clip-path="url(#p2654bf386f)" style="fill: #4c72b0; fill-opacity: 0.75; stroke: #ffffff; stroke-width: 0.202909; stroke-linejoin: miter"/>
   </g>
   <g id="patch_96">
    <path d="M 248.876378 228.96 
L 250.905469 228.96 
L 250.905469 228.96 
L 248.876378 228.96 
z
" clip-path="url(#p2654bf386f)" style="fill: #4c72b0; fill-opacity: 0.75; stroke: #ffffff; stroke-width: 0.202909; stroke-linejoin: miter"/>
   </g>
   <g id="patch_97">
    <path d="M 250.905469 228.96 
L 252.93456 228.96 
L 252.93456 228.96 
L 250.905469 228.96 
z
" clip-path="url(#p2654bf386f)" style="fill: #4c72b0; fill-opacity: 0.75; stroke: #ffffff; stroke-width: 0.202909; stroke-linejoin: miter"/>
   </g>
   <g id="patch_98">
    <path d="M 252.93456 228.96 
L 254.963651 228.96 
L 254.963651 228.96 
L 252.93456 228.96 
z
" clip-path="url(#p2654bf386f)" style="fill: #4c72b0; fill-opacity: 0.75; stroke: #ffffff; stroke-width: 0.202909; stroke-linejoin: miter"/>
   </g>
   <g id="patch_99">
    <path d="M 254.963651 228.96 
L 256.992741 228.96 
L 256.992741 228.96 
L 254.963651 228.96 
z
" clip-path="url(#p2654bf386f)" style="fill: #4c72b0; fill-opacity: 0.75; stroke: #ffffff; stroke-width: 0.202909; stroke-linejoin: miter"/>
   </g>
   <g id="patch_100">
    <path d="M 256.992741 228.96 
L 259.021832 228.96 
L 259.021832 228.96 
L 256.992741 228.96 
z
" clip-path="url(#p2654bf386f)" style="fill: #4c72b0; fill-opacity: 0.75; stroke: #ffffff; stroke-width: 0.202909; stroke-linejoin: miter"/>
   </g>
   <g id="patch_101">
    <path d="M 259.021832 228.96 
L 261.050923 228.96 
L 261.050923 228.96 
L 259.021832 228.96 
z
" clip-path="url(#p2654bf386f)" style="fill: #4c72b0; fill-opacity: 0.75; stroke: #ffffff; stroke-width: 0.202909; stroke-linejoin: miter"/>
   </g>
   <g id="patch_102">
    <path d="M 261.050923 228.96 
L 263.080014 228.96 
L 263.080014 227.107368 
L 261.050923 227.107368 
z
" clip-path="url(#p2654bf386f)" style="fill: #4c72b0; fill-opacity: 0.75; stroke: #ffffff; stroke-width: 0.202909; stroke-linejoin: miter"/>
   </g>
   <g id="patch_103">
    <path d="M 50.025469 228.96 
L 50.025469 7.2 
" style="fill: none; stroke: #ffffff; stroke-width: 1.25; stroke-linejoin: miter; stroke-linecap: square"/>
   </g>
   <g id="patch_104">
    <path d="M 273.225469 228.96 
L 273.225469 7.2 
" style="fill: none; stroke: #ffffff; stroke-width: 1.25; stroke-linejoin: miter; stroke-linecap: square"/>
   </g>
   <g id="patch_105">
    <path d="M 50.025469 228.96 
L 273.225469 228.96 
" style="fill: none; stroke: #ffffff; stroke-width: 1.25; stroke-linejoin: miter; stroke-linecap: square"/>
   </g>
   <g id="patch_106">
    <path d="M 50.025469 7.2 
L 273.225469 7.2 
" style="fill: none; stroke: #ffffff; stroke-width: 1.25; stroke-linejoin: miter; stroke-linecap: square"/>
   </g>
  </g>
 </g>
 <defs>
  <clipPath id="p2654bf386f">
   <rect x="50.025469" y="7.2" width="223.2" height="221.76"/>
  </clipPath>
 </defs>
</svg>
