<?xml version="1.0" encoding="utf-8" standalone="no"?>
<!DOCTYPE svg PUBLIC "-//W3C//DTD SVG 1.1//EN"
  "http://www.w3.org/Graphics/SVG/1.1/DTD/svg11.dtd">
<svg xmlns:xlink="http://www.w3.org/1999/xlink" width="287.334642pt" height="270.694219pt" viewBox="0 0 287.334642 270.694219" xmlns="http://www.w3.org/2000/svg" version="1.1">
 <metadata>
  <rdf:RDF xmlns:dc="http://purl.org/dc/elements/1.1/" xmlns:cc="http://creativecommons.org/ns#" xmlns:rdf="http://www.w3.org/1999/02/22-rdf-syntax-ns#">
   <cc:Work>
    <dc:type rdf:resource="http://purl.org/dc/dcmitype/StillImage"/>
    <dc:date>2023-11-24T20:26:45.628283</dc:date>
    <dc:format>image/svg+xml</dc:format>
    <dc:creator>
     <cc:Agent>
      <dc:title>Matplotlib v3.6.3, https://matplotlib.org/</dc:title>
     </cc:Agent>
    </dc:creator>
   </cc:Work>
  </rdf:RDF>
 </metadata>
 <defs>
  <style type="text/css">*{stroke-linejoin: round; stroke-linecap: butt}</style>
 </defs>
 <g id="figure_1">
  <g id="patch_1">
   <path d="M 0 270.694219 
L 287.334642 270.694219 
L 287.334642 0 
L 0 0 
L 0 270.694219 
z
" style="fill: none"/>
  </g>
  <g id="axes_1">
   <g id="patch_2">
    <path d="M 50.025469 228.96 
L 273.225469 228.96 
L 273.225469 7.2 
L 50.025469 7.2 
L 50.025469 228.96 
z
" style="fill: none"/>
   </g>
   <g id="matplotlib.axis_1">
    <g id="xtick_1">
     <g id="line2d_1">
      <path d="M 52.054387 228.96 
L 52.054387 7.2 
" clip-path="url(#pbd77d8d24e)" style="fill: none; stroke: #ffffff; stroke-linecap: round"/>
     </g>
     <g id="text_1">
      <!-- 0 -->
      <g style="fill: #262626" transform="translate(48.995871 246.333594) scale(0.11 -0.11)">
       <defs>
        <path id="ArialMT-30" d="M 266 2259 
Q 266 3072 433 3567 
Q 600 4063 929 4331 
Q 1259 4600 1759 4600 
Q 2128 4600 2406 4451 
Q 2684 4303 2865 4023 
Q 3047 3744 3150 3342 
Q 3253 2941 3253 2259 
Q 3253 1453 3087 958 
Q 2922 463 2592 192 
Q 2263 -78 1759 -78 
Q 1097 -78 719 397 
Q 266 969 266 2259 
z
M 844 2259 
Q 844 1131 1108 757 
Q 1372 384 1759 384 
Q 2147 384 2411 759 
Q 2675 1134 2675 2259 
Q 2675 3391 2411 3762 
Q 2147 4134 1753 4134 
Q 1366 4134 1134 3806 
Q 844 3388 844 2259 
z
" transform="scale(0.015625)"/>
       </defs>
       <use xlink:href="#ArialMT-30"/>
      </g>
     </g>
    </g>
    <g id="xtick_2">
     <g id="line2d_2">
      <path d="M 106.015935 228.96 
L 106.015935 7.2 
" clip-path="url(#pbd77d8d24e)" style="fill: none; stroke: #ffffff; stroke-linecap: round"/>
     </g>
     <g id="text_2">
      <!-- 500 -->
      <g style="fill: #262626" transform="translate(96.840388 246.333594) scale(0.11 -0.11)">
       <defs>
        <path id="ArialMT-35" d="M 266 1200 
L 856 1250 
Q 922 819 1161 601 
Q 1400 384 1738 384 
Q 2144 384 2425 690 
Q 2706 997 2706 1503 
Q 2706 1984 2436 2262 
Q 2166 2541 1728 2541 
Q 1456 2541 1237 2417 
Q 1019 2294 894 2097 
L 366 2166 
L 809 4519 
L 3088 4519 
L 3088 3981 
L 1259 3981 
L 1013 2750 
Q 1425 3038 1878 3038 
Q 2478 3038 2890 2622 
Q 3303 2206 3303 1553 
Q 3303 931 2941 478 
Q 2500 -78 1738 -78 
Q 1113 -78 717 272 
Q 322 622 266 1200 
z
" transform="scale(0.015625)"/>
       </defs>
       <use xlink:href="#ArialMT-35"/>
       <use xlink:href="#ArialMT-30" x="55.615234"/>
       <use xlink:href="#ArialMT-30" x="111.230469"/>
      </g>
     </g>
    </g>
    <g id="xtick_3">
     <g id="line2d_3">
      <path d="M 159.977483 228.96 
L 159.977483 7.2 
" clip-path="url(#pbd77d8d24e)" style="fill: none; stroke: #ffffff; stroke-linecap: round"/>
     </g>
     <g id="text_3">
      <!-- 1000 -->
      <g style="fill: #262626" transform="translate(147.743421 246.333594) scale(0.11 -0.11)">
       <defs>
        <path id="ArialMT-31" d="M 2384 0 
L 1822 0 
L 1822 3584 
Q 1619 3391 1289 3197 
Q 959 3003 697 2906 
L 697 3450 
Q 1169 3672 1522 3987 
Q 1875 4303 2022 4600 
L 2384 4600 
L 2384 0 
z
" transform="scale(0.015625)"/>
       </defs>
       <use xlink:href="#ArialMT-31"/>
       <use xlink:href="#ArialMT-30" x="55.615234"/>
       <use xlink:href="#ArialMT-30" x="111.230469"/>
       <use xlink:href="#ArialMT-30" x="166.845703"/>
      </g>
     </g>
    </g>
    <g id="xtick_4">
     <g id="line2d_4">
      <path d="M 213.939031 228.96 
L 213.939031 7.2 
" clip-path="url(#pbd77d8d24e)" style="fill: none; stroke: #ffffff; stroke-linecap: round"/>
     </g>
     <g id="text_4">
      <!-- 1500 -->
      <g style="fill: #262626" transform="translate(201.704969 246.333594) scale(0.11 -0.11)">
       <use xlink:href="#ArialMT-31"/>
       <use xlink:href="#ArialMT-35" x="55.615234"/>
       <use xlink:href="#ArialMT-30" x="111.230469"/>
       <use xlink:href="#ArialMT-30" x="166.845703"/>
      </g>
     </g>
    </g>
    <g id="xtick_5">
     <g id="line2d_5">
      <path d="M 267.900579 228.96 
L 267.900579 7.2 
" clip-path="url(#pbd77d8d24e)" style="fill: none; stroke: #ffffff; stroke-linecap: round"/>
     </g>
     <g id="text_5">
      <!-- 2000 -->
      <g style="fill: #262626" transform="translate(255.666517 246.333594) scale(0.11 -0.11)">
       <defs>
        <path id="ArialMT-32" d="M 3222 541 
L 3222 0 
L 194 0 
Q 188 203 259 391 
Q 375 700 629 1000 
Q 884 1300 1366 1694 
Q 2113 2306 2375 2664 
Q 2638 3022 2638 3341 
Q 2638 3675 2398 3904 
Q 2159 4134 1775 4134 
Q 1369 4134 1125 3890 
Q 881 3647 878 3216 
L 300 3275 
Q 359 3922 746 4261 
Q 1134 4600 1788 4600 
Q 2447 4600 2831 4234 
Q 3216 3869 3216 3328 
Q 3216 3053 3103 2787 
Q 2991 2522 2730 2228 
Q 2469 1934 1863 1422 
Q 1356 997 1212 845 
Q 1069 694 975 541 
L 3222 541 
z
" transform="scale(0.015625)"/>
       </defs>
       <use xlink:href="#ArialMT-32"/>
       <use xlink:href="#ArialMT-30" x="55.615234"/>
       <use xlink:href="#ArialMT-30" x="111.230469"/>
       <use xlink:href="#ArialMT-30" x="166.845703"/>
      </g>
     </g>
    </g>
    <g id="text_6">
     <!-- Size -->
     <g style="fill: #262626" transform="translate(149.953594 261.109219) scale(0.12 -0.12)">
      <defs>
       <path id="ArialMT-53" d="M 288 1472 
L 859 1522 
Q 900 1178 1048 958 
Q 1197 738 1509 602 
Q 1822 466 2213 466 
Q 2559 466 2825 569 
Q 3091 672 3220 851 
Q 3350 1031 3350 1244 
Q 3350 1459 3225 1620 
Q 3100 1781 2813 1891 
Q 2628 1963 1997 2114 
Q 1366 2266 1113 2400 
Q 784 2572 623 2826 
Q 463 3081 463 3397 
Q 463 3744 659 4045 
Q 856 4347 1234 4503 
Q 1613 4659 2075 4659 
Q 2584 4659 2973 4495 
Q 3363 4331 3572 4012 
Q 3781 3694 3797 3291 
L 3216 3247 
Q 3169 3681 2898 3903 
Q 2628 4125 2100 4125 
Q 1550 4125 1298 3923 
Q 1047 3722 1047 3438 
Q 1047 3191 1225 3031 
Q 1400 2872 2139 2705 
Q 2878 2538 3153 2413 
Q 3553 2228 3743 1945 
Q 3934 1663 3934 1294 
Q 3934 928 3725 604 
Q 3516 281 3123 101 
Q 2731 -78 2241 -78 
Q 1619 -78 1198 103 
Q 778 284 539 648 
Q 300 1013 288 1472 
z
" transform="scale(0.015625)"/>
       <path id="ArialMT-69" d="M 425 3934 
L 425 4581 
L 988 4581 
L 988 3934 
L 425 3934 
z
M 425 0 
L 425 3319 
L 988 3319 
L 988 0 
L 425 0 
z
" transform="scale(0.015625)"/>
       <path id="ArialMT-7a" d="M 125 0 
L 125 456 
L 2238 2881 
Q 1878 2863 1603 2863 
L 250 2863 
L 250 3319 
L 2963 3319 
L 2963 2947 
L 1166 841 
L 819 456 
Q 1197 484 1528 484 
L 3063 484 
L 3063 0 
L 125 0 
z
" transform="scale(0.015625)"/>
       <path id="ArialMT-65" d="M 2694 1069 
L 3275 997 
Q 3138 488 2766 206 
Q 2394 -75 1816 -75 
Q 1088 -75 661 373 
Q 234 822 234 1631 
Q 234 2469 665 2931 
Q 1097 3394 1784 3394 
Q 2450 3394 2872 2941 
Q 3294 2488 3294 1666 
Q 3294 1616 3291 1516 
L 816 1516 
Q 847 969 1125 678 
Q 1403 388 1819 388 
Q 2128 388 2347 550 
Q 2566 713 2694 1069 
z
M 847 1978 
L 2700 1978 
Q 2663 2397 2488 2606 
Q 2219 2931 1791 2931 
Q 1403 2931 1139 2672 
Q 875 2413 847 1978 
z
" transform="scale(0.015625)"/>
      </defs>
      <use xlink:href="#ArialMT-53"/>
      <use xlink:href="#ArialMT-69" x="66.699219"/>
      <use xlink:href="#ArialMT-7a" x="88.916016"/>
      <use xlink:href="#ArialMT-65" x="138.916016"/>
     </g>
    </g>
   </g>
   <g id="matplotlib.axis_2">
    <g id="ytick_1">
     <g id="line2d_6">
      <path d="M 50.025469 228.96 
L 273.225469 228.96 
" clip-path="url(#pbd77d8d24e)" style="fill: none; stroke: #ffffff; stroke-linecap: round"/>
     </g>
     <g id="text_7">
      <!-- 0 -->
      <g style="fill: #262626" transform="translate(34.408438 232.896797) scale(0.11 -0.11)">
       <use xlink:href="#ArialMT-30"/>
      </g>
     </g>
    </g>
    <g id="ytick_2">
     <g id="line2d_7">
      <path d="M 50.025469 194.895484 
L 273.225469 194.895484 
" clip-path="url(#pbd77d8d24e)" style="fill: none; stroke: #ffffff; stroke-linecap: round"/>
     </g>
     <g id="text_8">
      <!-- 20 -->
      <g style="fill: #262626" transform="translate(28.291406 198.832281) scale(0.11 -0.11)">
       <use xlink:href="#ArialMT-32"/>
       <use xlink:href="#ArialMT-30" x="55.615234"/>
      </g>
     </g>
    </g>
    <g id="ytick_3">
     <g id="line2d_8">
      <path d="M 50.025469 160.830968 
L 273.225469 160.830968 
" clip-path="url(#pbd77d8d24e)" style="fill: none; stroke: #ffffff; stroke-linecap: round"/>
     </g>
     <g id="text_9">
      <!-- 40 -->
      <g style="fill: #262626" transform="translate(28.291406 164.767765) scale(0.11 -0.11)">
       <defs>
        <path id="ArialMT-34" d="M 2069 0 
L 2069 1097 
L 81 1097 
L 81 1613 
L 2172 4581 
L 2631 4581 
L 2631 1613 
L 3250 1613 
L 3250 1097 
L 2631 1097 
L 2631 0 
L 2069 0 
z
M 2069 1613 
L 2069 3678 
L 634 1613 
L 2069 1613 
z
" transform="scale(0.015625)"/>
       </defs>
       <use xlink:href="#ArialMT-34"/>
       <use xlink:href="#ArialMT-30" x="55.615234"/>
      </g>
     </g>
    </g>
    <g id="ytick_4">
     <g id="line2d_9">
      <path d="M 50.025469 126.766452 
L 273.225469 126.766452 
" clip-path="url(#pbd77d8d24e)" style="fill: none; stroke: #ffffff; stroke-linecap: round"/>
     </g>
     <g id="text_10">
      <!-- 60 -->
      <g style="fill: #262626" transform="translate(28.291406 130.703248) scale(0.11 -0.11)">
       <defs>
        <path id="ArialMT-36" d="M 3184 3459 
L 2625 3416 
Q 2550 3747 2413 3897 
Q 2184 4138 1850 4138 
Q 1581 4138 1378 3988 
Q 1113 3794 959 3422 
Q 806 3050 800 2363 
Q 1003 2672 1297 2822 
Q 1591 2972 1913 2972 
Q 2475 2972 2870 2558 
Q 3266 2144 3266 1488 
Q 3266 1056 3080 686 
Q 2894 316 2569 119 
Q 2244 -78 1831 -78 
Q 1128 -78 684 439 
Q 241 956 241 2144 
Q 241 3472 731 4075 
Q 1159 4600 1884 4600 
Q 2425 4600 2770 4297 
Q 3116 3994 3184 3459 
z
M 888 1484 
Q 888 1194 1011 928 
Q 1134 663 1356 523 
Q 1578 384 1822 384 
Q 2178 384 2434 671 
Q 2691 959 2691 1453 
Q 2691 1928 2437 2201 
Q 2184 2475 1800 2475 
Q 1419 2475 1153 2201 
Q 888 1928 888 1484 
z
" transform="scale(0.015625)"/>
       </defs>
       <use xlink:href="#ArialMT-36"/>
       <use xlink:href="#ArialMT-30" x="55.615234"/>
      </g>
     </g>
    </g>
    <g id="ytick_5">
     <g id="line2d_10">
      <path d="M 50.025469 92.701935 
L 273.225469 92.701935 
" clip-path="url(#pbd77d8d24e)" style="fill: none; stroke: #ffffff; stroke-linecap: round"/>
     </g>
     <g id="text_11">
      <!-- 80 -->
      <g style="fill: #262626" transform="translate(28.291406 96.638732) scale(0.11 -0.11)">
       <defs>
        <path id="ArialMT-38" d="M 1131 2484 
Q 781 2613 612 2850 
Q 444 3088 444 3419 
Q 444 3919 803 4259 
Q 1163 4600 1759 4600 
Q 2359 4600 2725 4251 
Q 3091 3903 3091 3403 
Q 3091 3084 2923 2848 
Q 2756 2613 2416 2484 
Q 2838 2347 3058 2040 
Q 3278 1734 3278 1309 
Q 3278 722 2862 322 
Q 2447 -78 1769 -78 
Q 1091 -78 675 323 
Q 259 725 259 1325 
Q 259 1772 486 2073 
Q 713 2375 1131 2484 
z
M 1019 3438 
Q 1019 3113 1228 2906 
Q 1438 2700 1772 2700 
Q 2097 2700 2305 2904 
Q 2513 3109 2513 3406 
Q 2513 3716 2298 3927 
Q 2084 4138 1766 4138 
Q 1444 4138 1231 3931 
Q 1019 3725 1019 3438 
z
M 838 1322 
Q 838 1081 952 856 
Q 1066 631 1291 507 
Q 1516 384 1775 384 
Q 2178 384 2440 643 
Q 2703 903 2703 1303 
Q 2703 1709 2433 1975 
Q 2163 2241 1756 2241 
Q 1359 2241 1098 1978 
Q 838 1716 838 1322 
z
" transform="scale(0.015625)"/>
       </defs>
       <use xlink:href="#ArialMT-38"/>
       <use xlink:href="#ArialMT-30" x="55.615234"/>
      </g>
     </g>
    </g>
    <g id="ytick_6">
     <g id="line2d_11">
      <path d="M 50.025469 58.637419 
L 273.225469 58.637419 
" clip-path="url(#pbd77d8d24e)" style="fill: none; stroke: #ffffff; stroke-linecap: round"/>
     </g>
     <g id="text_12">
      <!-- 100 -->
      <g style="fill: #262626" transform="translate(22.174375 62.574216) scale(0.11 -0.11)">
       <use xlink:href="#ArialMT-31"/>
       <use xlink:href="#ArialMT-30" x="55.615234"/>
       <use xlink:href="#ArialMT-30" x="111.230469"/>
      </g>
     </g>
    </g>
    <g id="ytick_7">
     <g id="line2d_12">
      <path d="M 50.025469 24.572903 
L 273.225469 24.572903 
" clip-path="url(#pbd77d8d24e)" style="fill: none; stroke: #ffffff; stroke-linecap: round"/>
     </g>
     <g id="text_13">
      <!-- 120 -->
      <g style="fill: #262626" transform="translate(22.174375 28.5097) scale(0.11 -0.11)">
       <use xlink:href="#ArialMT-31"/>
       <use xlink:href="#ArialMT-32" x="55.615234"/>
       <use xlink:href="#ArialMT-30" x="111.230469"/>
      </g>
     </g>
    </g>
    <g id="text_14">
     <!-- Count -->
     <g style="fill: #262626" transform="translate(15.789375 134.089687) rotate(-90) scale(0.12 -0.12)">
      <defs>
       <path id="ArialMT-43" d="M 3763 1606 
L 4369 1453 
Q 4178 706 3683 314 
Q 3188 -78 2472 -78 
Q 1731 -78 1267 223 
Q 803 525 561 1097 
Q 319 1669 319 2325 
Q 319 3041 592 3573 
Q 866 4106 1370 4382 
Q 1875 4659 2481 4659 
Q 3169 4659 3637 4309 
Q 4106 3959 4291 3325 
L 3694 3184 
Q 3534 3684 3231 3912 
Q 2928 4141 2469 4141 
Q 1941 4141 1586 3887 
Q 1231 3634 1087 3207 
Q 944 2781 944 2328 
Q 944 1744 1114 1308 
Q 1284 872 1643 656 
Q 2003 441 2422 441 
Q 2931 441 3284 734 
Q 3638 1028 3763 1606 
z
" transform="scale(0.015625)"/>
       <path id="ArialMT-6f" d="M 213 1659 
Q 213 2581 725 3025 
Q 1153 3394 1769 3394 
Q 2453 3394 2887 2945 
Q 3322 2497 3322 1706 
Q 3322 1066 3130 698 
Q 2938 331 2570 128 
Q 2203 -75 1769 -75 
Q 1072 -75 642 372 
Q 213 819 213 1659 
z
M 791 1659 
Q 791 1022 1069 705 
Q 1347 388 1769 388 
Q 2188 388 2466 706 
Q 2744 1025 2744 1678 
Q 2744 2294 2464 2611 
Q 2184 2928 1769 2928 
Q 1347 2928 1069 2612 
Q 791 2297 791 1659 
z
" transform="scale(0.015625)"/>
       <path id="ArialMT-75" d="M 2597 0 
L 2597 488 
Q 2209 -75 1544 -75 
Q 1250 -75 995 37 
Q 741 150 617 320 
Q 494 491 444 738 
Q 409 903 409 1263 
L 409 3319 
L 972 3319 
L 972 1478 
Q 972 1038 1006 884 
Q 1059 663 1231 536 
Q 1403 409 1656 409 
Q 1909 409 2131 539 
Q 2353 669 2445 892 
Q 2538 1116 2538 1541 
L 2538 3319 
L 3100 3319 
L 3100 0 
L 2597 0 
z
" transform="scale(0.015625)"/>
       <path id="ArialMT-6e" d="M 422 0 
L 422 3319 
L 928 3319 
L 928 2847 
Q 1294 3394 1984 3394 
Q 2284 3394 2536 3286 
Q 2788 3178 2913 3003 
Q 3038 2828 3088 2588 
Q 3119 2431 3119 2041 
L 3119 0 
L 2556 0 
L 2556 2019 
Q 2556 2363 2490 2533 
Q 2425 2703 2258 2804 
Q 2091 2906 1866 2906 
Q 1506 2906 1245 2678 
Q 984 2450 984 1813 
L 984 0 
L 422 0 
z
" transform="scale(0.015625)"/>
       <path id="ArialMT-74" d="M 1650 503 
L 1731 6 
Q 1494 -44 1306 -44 
Q 1000 -44 831 53 
Q 663 150 594 308 
Q 525 466 525 972 
L 525 2881 
L 113 2881 
L 113 3319 
L 525 3319 
L 525 4141 
L 1084 4478 
L 1084 3319 
L 1650 3319 
L 1650 2881 
L 1084 2881 
L 1084 941 
Q 1084 700 1114 631 
Q 1144 563 1211 522 
Q 1278 481 1403 481 
Q 1497 481 1650 503 
z
" transform="scale(0.015625)"/>
      </defs>
      <use xlink:href="#ArialMT-43"/>
      <use xlink:href="#ArialMT-6f" x="72.216797"/>
      <use xlink:href="#ArialMT-75" x="127.832031"/>
      <use xlink:href="#ArialMT-6e" x="183.447266"/>
      <use xlink:href="#ArialMT-74" x="239.0625"/>
     </g>
    </g>
   </g>
   <g id="patch_3">
    <path d="M 60.170923 228.96 
L 62.772322 228.96 
L 62.772322 208.52129 
L 60.170923 208.52129 
z
" clip-path="url(#pbd77d8d24e)" style="fill: #4c72b0; fill-opacity: 0.75; stroke: #ffffff; stroke-width: 0.26014; stroke-linejoin: miter"/>
   </g>
   <g id="patch_4">
    <path d="M 62.772322 228.96 
L 65.37372 228.96 
L 65.37372 150.611613 
L 62.772322 150.611613 
z
" clip-path="url(#pbd77d8d24e)" style="fill: #4c72b0; fill-opacity: 0.75; stroke: #ffffff; stroke-width: 0.26014; stroke-linejoin: miter"/>
   </g>
   <g id="patch_5">
    <path d="M 65.37372 228.96 
L 67.975119 228.96 
L 67.975119 67.153548 
L 65.37372 67.153548 
z
" clip-path="url(#pbd77d8d24e)" style="fill: #4c72b0; fill-opacity: 0.75; stroke: #ffffff; stroke-width: 0.26014; stroke-linejoin: miter"/>
   </g>
   <g id="patch_6">
    <path d="M 67.975119 228.96 
L 70.576518 228.96 
L 70.576518 17.76 
L 67.975119 17.76 
z
" clip-path="url(#pbd77d8d24e)" style="fill: #4c72b0; fill-opacity: 0.75; stroke: #ffffff; stroke-width: 0.26014; stroke-linejoin: miter"/>
   </g>
   <g id="patch_7">
    <path d="M 70.576518 228.96 
L 73.177916 228.96 
L 73.177916 56.934194 
L 70.576518 56.934194 
z
" clip-path="url(#pbd77d8d24e)" style="fill: #4c72b0; fill-opacity: 0.75; stroke: #ffffff; stroke-width: 0.26014; stroke-linejoin: miter"/>
   </g>
   <g id="patch_8">
    <path d="M 73.177916 228.96 
L 75.779315 228.96 
L 75.779315 94.405161 
L 73.177916 94.405161 
z
" clip-path="url(#pbd77d8d24e)" style="fill: #4c72b0; fill-opacity: 0.75; stroke: #ffffff; stroke-width: 0.26014; stroke-linejoin: miter"/>
   </g>
   <g id="patch_9">
    <path d="M 75.779315 228.96 
L 78.380714 228.96 
L 78.380714 131.876129 
L 75.779315 131.876129 
z
" clip-path="url(#pbd77d8d24e)" style="fill: #4c72b0; fill-opacity: 0.75; stroke: #ffffff; stroke-width: 0.26014; stroke-linejoin: miter"/>
   </g>
   <g id="patch_10">
    <path d="M 78.380714 228.96 
L 80.982112 228.96 
L 80.982112 160.830968 
L 78.380714 160.830968 
z
" clip-path="url(#pbd77d8d24e)" style="fill: #4c72b0; fill-opacity: 0.75; stroke: #ffffff; stroke-width: 0.26014; stroke-linejoin: miter"/>
   </g>
   <g id="patch_11">
    <path d="M 80.982112 228.96 
L 83.583511 228.96 
L 83.583511 188.082581 
L 80.982112 188.082581 
z
" clip-path="url(#pbd77d8d24e)" style="fill: #4c72b0; fill-opacity: 0.75; stroke: #ffffff; stroke-width: 0.26014; stroke-linejoin: miter"/>
   </g>
   <g id="patch_12">
    <path d="M 83.583511 228.96 
L 86.184909 228.96 
L 86.184909 194.895484 
L 83.583511 194.895484 
z
" clip-path="url(#pbd77d8d24e)" style="fill: #4c72b0; fill-opacity: 0.75; stroke: #ffffff; stroke-width: 0.26014; stroke-linejoin: miter"/>
   </g>
   <g id="patch_13">
    <path d="M 86.184909 228.96 
L 88.786308 228.96 
L 88.786308 220.443871 
L 86.184909 220.443871 
z
" clip-path="url(#pbd77d8d24e)" style="fill: #4c72b0; fill-opacity: 0.75; stroke: #ffffff; stroke-width: 0.26014; stroke-linejoin: miter"/>
   </g>
   <g id="patch_14">
    <path d="M 88.786308 228.96 
L 91.387707 228.96 
L 91.387707 213.630968 
L 88.786308 213.630968 
z
" clip-path="url(#pbd77d8d24e)" style="fill: #4c72b0; fill-opacity: 0.75; stroke: #ffffff; stroke-width: 0.26014; stroke-linejoin: miter"/>
   </g>
   <g id="patch_15">
    <path d="M 91.387707 228.96 
L 93.989105 228.96 
L 93.989105 218.740645 
L 91.387707 218.740645 
z
" clip-path="url(#pbd77d8d24e)" style="fill: #4c72b0; fill-opacity: 0.75; stroke: #ffffff; stroke-width: 0.26014; stroke-linejoin: miter"/>
   </g>
   <g id="patch_16">
    <path d="M 93.989105 228.96 
L 96.590504 228.96 
L 96.590504 196.59871 
L 93.989105 196.59871 
z
" clip-path="url(#pbd77d8d24e)" style="fill: #4c72b0; fill-opacity: 0.75; stroke: #ffffff; stroke-width: 0.26014; stroke-linejoin: miter"/>
   </g>
   <g id="patch_17">
    <path d="M 96.590504 228.96 
L 99.191902 228.96 
L 99.191902 208.52129 
L 96.590504 208.52129 
z
" clip-path="url(#pbd77d8d24e)" style="fill: #4c72b0; fill-opacity: 0.75; stroke: #ffffff; stroke-width: 0.26014; stroke-linejoin: miter"/>
   </g>
   <g id="patch_18">
    <path d="M 99.191902 228.96 
L 101.793301 228.96 
L 101.793301 217.037419 
L 99.191902 217.037419 
z
" clip-path="url(#pbd77d8d24e)" style="fill: #4c72b0; fill-opacity: 0.75; stroke: #ffffff; stroke-width: 0.26014; stroke-linejoin: miter"/>
   </g>
   <g id="patch_19">
    <path d="M 101.793301 228.96 
L 104.3947 228.96 
L 104.3947 206.818065 
L 101.793301 206.818065 
z
" clip-path="url(#pbd77d8d24e)" style="fill: #4c72b0; fill-opacity: 0.75; stroke: #ffffff; stroke-width: 0.26014; stroke-linejoin: miter"/>
   </g>
   <g id="patch_20">
    <path d="M 104.3947 228.96 
L 106.996098 228.96 
L 106.996098 218.740645 
L 104.3947 218.740645 
z
" clip-path="url(#pbd77d8d24e)" style="fill: #4c72b0; fill-opacity: 0.75; stroke: #ffffff; stroke-width: 0.26014; stroke-linejoin: miter"/>
   </g>
   <g id="patch_21">
    <path d="M 106.996098 228.96 
L 109.597497 228.96 
L 109.597497 225.553548 
L 106.996098 225.553548 
z
" clip-path="url(#pbd77d8d24e)" style="fill: #4c72b0; fill-opacity: 0.75; stroke: #ffffff; stroke-width: 0.26014; stroke-linejoin: miter"/>
   </g>
   <g id="patch_22">
    <path d="M 109.597497 228.96 
L 112.198895 228.96 
L 112.198895 227.256774 
L 109.597497 227.256774 
z
" clip-path="url(#pbd77d8d24e)" style="fill: #4c72b0; fill-opacity: 0.75; stroke: #ffffff; stroke-width: 0.26014; stroke-linejoin: miter"/>
   </g>
   <g id="patch_23">
    <path d="M 112.198895 228.96 
L 114.800294 228.96 
L 114.800294 222.147097 
L 112.198895 222.147097 
z
" clip-path="url(#pbd77d8d24e)" style="fill: #4c72b0; fill-opacity: 0.75; stroke: #ffffff; stroke-width: 0.26014; stroke-linejoin: miter"/>
   </g>
   <g id="patch_24">
    <path d="M 114.800294 228.96 
L 117.401693 228.96 
L 117.401693 223.850323 
L 114.800294 223.850323 
z
" clip-path="url(#pbd77d8d24e)" style="fill: #4c72b0; fill-opacity: 0.75; stroke: #ffffff; stroke-width: 0.26014; stroke-linejoin: miter"/>
   </g>
   <g id="patch_25">
    <path d="M 117.401693 228.96 
L 120.003091 228.96 
L 120.003091 225.553548 
L 117.401693 225.553548 
z
" clip-path="url(#pbd77d8d24e)" style="fill: #4c72b0; fill-opacity: 0.75; stroke: #ffffff; stroke-width: 0.26014; stroke-linejoin: miter"/>
   </g>
   <g id="patch_26">
    <path d="M 120.003091 228.96 
L 122.60449 228.96 
L 122.60449 225.553548 
L 120.003091 225.553548 
z
" clip-path="url(#pbd77d8d24e)" style="fill: #4c72b0; fill-opacity: 0.75; stroke: #ffffff; stroke-width: 0.26014; stroke-linejoin: miter"/>
   </g>
   <g id="patch_27">
    <path d="M 122.60449 228.96 
L 125.205888 228.96 
L 125.205888 223.850323 
L 122.60449 223.850323 
z
" clip-path="url(#pbd77d8d24e)" style="fill: #4c72b0; fill-opacity: 0.75; stroke: #ffffff; stroke-width: 0.26014; stroke-linejoin: miter"/>
   </g>
   <g id="patch_28">
    <path d="M 125.205888 228.96 
L 127.807287 228.96 
L 127.807287 225.553548 
L 125.205888 225.553548 
z
" clip-path="url(#pbd77d8d24e)" style="fill: #4c72b0; fill-opacity: 0.75; stroke: #ffffff; stroke-width: 0.26014; stroke-linejoin: miter"/>
   </g>
   <g id="patch_29">
    <path d="M 127.807287 228.96 
L 130.408686 228.96 
L 130.408686 225.553548 
L 127.807287 225.553548 
z
" clip-path="url(#pbd77d8d24e)" style="fill: #4c72b0; fill-opacity: 0.75; stroke: #ffffff; stroke-width: 0.26014; stroke-linejoin: miter"/>
   </g>
   <g id="patch_30">
    <path d="M 130.408686 228.96 
L 133.010084 228.96 
L 133.010084 227.256774 
L 130.408686 227.256774 
z
" clip-path="url(#pbd77d8d24e)" style="fill: #4c72b0; fill-opacity: 0.75; stroke: #ffffff; stroke-width: 0.26014; stroke-linejoin: miter"/>
   </g>
   <g id="patch_31">
    <path d="M 133.010084 228.96 
L 135.611483 228.96 
L 135.611483 223.850323 
L 133.010084 223.850323 
z
" clip-path="url(#pbd77d8d24e)" style="fill: #4c72b0; fill-opacity: 0.75; stroke: #ffffff; stroke-width: 0.26014; stroke-linejoin: miter"/>
   </g>
   <g id="patch_32">
    <path d="M 135.611483 228.96 
L 138.212881 228.96 
L 138.212881 228.96 
L 135.611483 228.96 
z
" clip-path="url(#pbd77d8d24e)" style="fill: #4c72b0; fill-opacity: 0.75; stroke: #ffffff; stroke-width: 0.26014; stroke-linejoin: miter"/>
   </g>
   <g id="patch_33">
    <path d="M 138.212881 228.96 
L 140.81428 228.96 
L 140.81428 227.256774 
L 138.212881 227.256774 
z
" clip-path="url(#pbd77d8d24e)" style="fill: #4c72b0; fill-opacity: 0.75; stroke: #ffffff; stroke-width: 0.26014; stroke-linejoin: miter"/>
   </g>
   <g id="patch_34">
    <path d="M 140.81428 228.96 
L 143.415679 228.96 
L 143.415679 228.96 
L 140.81428 228.96 
z
" clip-path="url(#pbd77d8d24e)" style="fill: #4c72b0; fill-opacity: 0.75; stroke: #ffffff; stroke-width: 0.26014; stroke-linejoin: miter"/>
   </g>
   <g id="patch_35">
    <path d="M 143.415679 228.96 
L 146.017077 228.96 
L 146.017077 228.96 
L 143.415679 228.96 
z
" clip-path="url(#pbd77d8d24e)" style="fill: #4c72b0; fill-opacity: 0.75; stroke: #ffffff; stroke-width: 0.26014; stroke-linejoin: miter"/>
   </g>
   <g id="patch_36">
    <path d="M 146.017077 228.96 
L 148.618476 228.96 
L 148.618476 228.96 
L 146.017077 228.96 
z
" clip-path="url(#pbd77d8d24e)" style="fill: #4c72b0; fill-opacity: 0.75; stroke: #ffffff; stroke-width: 0.26014; stroke-linejoin: miter"/>
   </g>
   <g id="patch_37">
    <path d="M 148.618476 228.96 
L 151.219874 228.96 
L 151.219874 227.256774 
L 148.618476 227.256774 
z
" clip-path="url(#pbd77d8d24e)" style="fill: #4c72b0; fill-opacity: 0.75; stroke: #ffffff; stroke-width: 0.26014; stroke-linejoin: miter"/>
   </g>
   <g id="patch_38">
    <path d="M 151.219874 228.96 
L 153.821273 228.96 
L 153.821273 227.256774 
L 151.219874 227.256774 
z
" clip-path="url(#pbd77d8d24e)" style="fill: #4c72b0; fill-opacity: 0.75; stroke: #ffffff; stroke-width: 0.26014; stroke-linejoin: miter"/>
   </g>
   <g id="patch_39">
    <path d="M 153.821273 228.96 
L 156.422672 228.96 
L 156.422672 225.553548 
L 153.821273 225.553548 
z
" clip-path="url(#pbd77d8d24e)" style="fill: #4c72b0; fill-opacity: 0.75; stroke: #ffffff; stroke-width: 0.26014; stroke-linejoin: miter"/>
   </g>
   <g id="patch_40">
    <path d="M 156.422672 228.96 
L 159.02407 228.96 
L 159.02407 228.96 
L 156.422672 228.96 
z
" clip-path="url(#pbd77d8d24e)" style="fill: #4c72b0; fill-opacity: 0.75; stroke: #ffffff; stroke-width: 0.26014; stroke-linejoin: miter"/>
   </g>
   <g id="patch_41">
    <path d="M 159.02407 228.96 
L 161.625469 228.96 
L 161.625469 228.96 
L 159.02407 228.96 
z
" clip-path="url(#pbd77d8d24e)" style="fill: #4c72b0; fill-opacity: 0.75; stroke: #ffffff; stroke-width: 0.26014; stroke-linejoin: miter"/>
   </g>
   <g id="patch_42">
    <path d="M 161.625469 228.96 
L 164.226867 228.96 
L 164.226867 225.553548 
L 161.625469 225.553548 
z
" clip-path="url(#pbd77d8d24e)" style="fill: #4c72b0; fill-opacity: 0.75; stroke: #ffffff; stroke-width: 0.26014; stroke-linejoin: miter"/>
   </g>
   <g id="patch_43">
    <path d="M 164.226867 228.96 
L 166.828266 228.96 
L 166.828266 227.256774 
L 164.226867 227.256774 
z
" clip-path="url(#pbd77d8d24e)" style="fill: #4c72b0; fill-opacity: 0.75; stroke: #ffffff; stroke-width: 0.26014; stroke-linejoin: miter"/>
   </g>
   <g id="patch_44">
    <path d="M 166.828266 228.96 
L 169.429665 228.96 
L 169.429665 228.96 
L 166.828266 228.96 
z
" clip-path="url(#pbd77d8d24e)" style="fill: #4c72b0; fill-opacity: 0.75; stroke: #ffffff; stroke-width: 0.26014; stroke-linejoin: miter"/>
   </g>
   <g id="patch_45">
    <path d="M 169.429665 228.96 
L 172.031063 228.96 
L 172.031063 228.96 
L 169.429665 228.96 
z
" clip-path="url(#pbd77d8d24e)" style="fill: #4c72b0; fill-opacity: 0.75; stroke: #ffffff; stroke-width: 0.26014; stroke-linejoin: miter"/>
   </g>
   <g id="patch_46">
    <path d="M 172.031063 228.96 
L 174.632462 228.96 
L 174.632462 228.96 
L 172.031063 228.96 
z
" clip-path="url(#pbd77d8d24e)" style="fill: #4c72b0; fill-opacity: 0.75; stroke: #ffffff; stroke-width: 0.26014; stroke-linejoin: miter"/>
   </g>
   <g id="patch_47">
    <path d="M 174.632462 228.96 
L 177.23386 228.96 
L 177.23386 227.256774 
L 174.632462 227.256774 
z
" clip-path="url(#pbd77d8d24e)" style="fill: #4c72b0; fill-opacity: 0.75; stroke: #ffffff; stroke-width: 0.26014; stroke-linejoin: miter"/>
   </g>
   <g id="patch_48">
    <path d="M 177.23386 228.96 
L 179.835259 228.96 
L 179.835259 227.256774 
L 177.23386 227.256774 
z
" clip-path="url(#pbd77d8d24e)" style="fill: #4c72b0; fill-opacity: 0.75; stroke: #ffffff; stroke-width: 0.26014; stroke-linejoin: miter"/>
   </g>
   <g id="patch_49">
    <path d="M 179.835259 228.96 
L 182.436658 228.96 
L 182.436658 228.96 
L 179.835259 228.96 
z
" clip-path="url(#pbd77d8d24e)" style="fill: #4c72b0; fill-opacity: 0.75; stroke: #ffffff; stroke-width: 0.26014; stroke-linejoin: miter"/>
   </g>
   <g id="patch_50">
    <path d="M 182.436658 228.96 
L 185.038056 228.96 
L 185.038056 228.96 
L 182.436658 228.96 
z
" clip-path="url(#pbd77d8d24e)" style="fill: #4c72b0; fill-opacity: 0.75; stroke: #ffffff; stroke-width: 0.26014; stroke-linejoin: miter"/>
   </g>
   <g id="patch_51">
    <path d="M 185.038056 228.96 
L 187.639455 228.96 
L 187.639455 228.96 
L 185.038056 228.96 
z
" clip-path="url(#pbd77d8d24e)" style="fill: #4c72b0; fill-opacity: 0.75; stroke: #ffffff; stroke-width: 0.26014; stroke-linejoin: miter"/>
   </g>
   <g id="patch_52">
    <path d="M 187.639455 228.96 
L 190.240853 228.96 
L 190.240853 228.96 
L 187.639455 228.96 
z
" clip-path="url(#pbd77d8d24e)" style="fill: #4c72b0; fill-opacity: 0.75; stroke: #ffffff; stroke-width: 0.26014; stroke-linejoin: miter"/>
   </g>
   <g id="patch_53">
    <path d="M 190.240853 228.96 
L 192.842252 228.96 
L 192.842252 227.256774 
L 190.240853 227.256774 
z
" clip-path="url(#pbd77d8d24e)" style="fill: #4c72b0; fill-opacity: 0.75; stroke: #ffffff; stroke-width: 0.26014; stroke-linejoin: miter"/>
   </g>
   <g id="patch_54">
    <path d="M 192.842252 228.96 
L 195.443651 228.96 
L 195.443651 228.96 
L 192.842252 228.96 
z
" clip-path="url(#pbd77d8d24e)" style="fill: #4c72b0; fill-opacity: 0.75; stroke: #ffffff; stroke-width: 0.26014; stroke-linejoin: miter"/>
   </g>
   <g id="patch_55">
    <path d="M 195.443651 228.96 
L 198.045049 228.96 
L 198.045049 225.553548 
L 195.443651 225.553548 
z
" clip-path="url(#pbd77d8d24e)" style="fill: #4c72b0; fill-opacity: 0.75; stroke: #ffffff; stroke-width: 0.26014; stroke-linejoin: miter"/>
   </g>
   <g id="patch_56">
    <path d="M 198.045049 228.96 
L 200.646448 228.96 
L 200.646448 228.96 
L 198.045049 228.96 
z
" clip-path="url(#pbd77d8d24e)" style="fill: #4c72b0; fill-opacity: 0.75; stroke: #ffffff; stroke-width: 0.26014; stroke-linejoin: miter"/>
   </g>
   <g id="patch_57">
    <path d="M 200.646448 228.96 
L 203.247846 228.96 
L 203.247846 228.96 
L 200.646448 228.96 
z
" clip-path="url(#pbd77d8d24e)" style="fill: #4c72b0; fill-opacity: 0.75; stroke: #ffffff; stroke-width: 0.26014; stroke-linejoin: miter"/>
   </g>
   <g id="patch_58">
    <path d="M 203.247846 228.96 
L 205.849245 228.96 
L 205.849245 228.96 
L 203.247846 228.96 
z
" clip-path="url(#pbd77d8d24e)" style="fill: #4c72b0; fill-opacity: 0.75; stroke: #ffffff; stroke-width: 0.26014; stroke-linejoin: miter"/>
   </g>
   <g id="patch_59">
    <path d="M 205.849245 228.96 
L 208.450644 228.96 
L 208.450644 228.96 
L 205.849245 228.96 
z
" clip-path="url(#pbd77d8d24e)" style="fill: #4c72b0; fill-opacity: 0.75; stroke: #ffffff; stroke-width: 0.26014; stroke-linejoin: miter"/>
   </g>
   <g id="patch_60">
    <path d="M 208.450644 228.96 
L 211.052042 228.96 
L 211.052042 228.96 
L 208.450644 228.96 
z
" clip-path="url(#pbd77d8d24e)" style="fill: #4c72b0; fill-opacity: 0.75; stroke: #ffffff; stroke-width: 0.26014; stroke-linejoin: miter"/>
   </g>
   <g id="patch_61">
    <path d="M 211.052042 228.96 
L 213.653441 228.96 
L 213.653441 228.96 
L 211.052042 228.96 
z
" clip-path="url(#pbd77d8d24e)" style="fill: #4c72b0; fill-opacity: 0.75; stroke: #ffffff; stroke-width: 0.26014; stroke-linejoin: miter"/>
   </g>
   <g id="patch_62">
    <path d="M 213.653441 228.96 
L 216.254839 228.96 
L 216.254839 227.256774 
L 213.653441 227.256774 
z
" clip-path="url(#pbd77d8d24e)" style="fill: #4c72b0; fill-opacity: 0.75; stroke: #ffffff; stroke-width: 0.26014; stroke-linejoin: miter"/>
   </g>
   <g id="patch_63">
    <path d="M 216.254839 228.96 
L 218.856238 228.96 
L 218.856238 228.96 
L 216.254839 228.96 
z
" clip-path="url(#pbd77d8d24e)" style="fill: #4c72b0; fill-opacity: 0.75; stroke: #ffffff; stroke-width: 0.26014; stroke-linejoin: miter"/>
   </g>
   <g id="patch_64">
    <path d="M 218.856238 228.96 
L 221.457637 228.96 
L 221.457637 228.96 
L 218.856238 228.96 
z
" clip-path="url(#pbd77d8d24e)" style="fill: #4c72b0; fill-opacity: 0.75; stroke: #ffffff; stroke-width: 0.26014; stroke-linejoin: miter"/>
   </g>
   <g id="patch_65">
    <path d="M 221.457637 228.96 
L 224.059035 228.96 
L 224.059035 228.96 
L 221.457637 228.96 
z
" clip-path="url(#pbd77d8d24e)" style="fill: #4c72b0; fill-opacity: 0.75; stroke: #ffffff; stroke-width: 0.26014; stroke-linejoin: miter"/>
   </g>
   <g id="patch_66">
    <path d="M 224.059035 228.96 
L 226.660434 228.96 
L 226.660434 227.256774 
L 224.059035 227.256774 
z
" clip-path="url(#pbd77d8d24e)" style="fill: #4c72b0; fill-opacity: 0.75; stroke: #ffffff; stroke-width: 0.26014; stroke-linejoin: miter"/>
   </g>
   <g id="patch_67">
    <path d="M 226.660434 228.96 
L 229.261832 228.96 
L 229.261832 228.96 
L 226.660434 228.96 
z
" clip-path="url(#pbd77d8d24e)" style="fill: #4c72b0; fill-opacity: 0.75; stroke: #ffffff; stroke-width: 0.26014; stroke-linejoin: miter"/>
   </g>
   <g id="patch_68">
    <path d="M 229.261832 228.96 
L 231.863231 228.96 
L 231.863231 228.96 
L 229.261832 228.96 
z
" clip-path="url(#pbd77d8d24e)" style="fill: #4c72b0; fill-opacity: 0.75; stroke: #ffffff; stroke-width: 0.26014; stroke-linejoin: miter"/>
   </g>
   <g id="patch_69">
    <path d="M 231.863231 228.96 
L 234.46463 228.96 
L 234.46463 228.96 
L 231.863231 228.96 
z
" clip-path="url(#pbd77d8d24e)" style="fill: #4c72b0; fill-opacity: 0.75; stroke: #ffffff; stroke-width: 0.26014; stroke-linejoin: miter"/>
   </g>
   <g id="patch_70">
    <path d="M 234.46463 228.96 
L 237.066028 228.96 
L 237.066028 227.256774 
L 234.46463 227.256774 
z
" clip-path="url(#pbd77d8d24e)" style="fill: #4c72b0; fill-opacity: 0.75; stroke: #ffffff; stroke-width: 0.26014; stroke-linejoin: miter"/>
   </g>
   <g id="patch_71">
    <path d="M 237.066028 228.96 
L 239.667427 228.96 
L 239.667427 227.256774 
L 237.066028 227.256774 
z
" clip-path="url(#pbd77d8d24e)" style="fill: #4c72b0; fill-opacity: 0.75; stroke: #ffffff; stroke-width: 0.26014; stroke-linejoin: miter"/>
   </g>
   <g id="patch_72">
    <path d="M 239.667427 228.96 
L 242.268825 228.96 
L 242.268825 227.256774 
L 239.667427 227.256774 
z
" clip-path="url(#pbd77d8d24e)" style="fill: #4c72b0; fill-opacity: 0.75; stroke: #ffffff; stroke-width: 0.26014; stroke-linejoin: miter"/>
   </g>
   <g id="patch_73">
    <path d="M 242.268825 228.96 
L 244.870224 228.96 
L 244.870224 228.96 
L 242.268825 228.96 
z
" clip-path="url(#pbd77d8d24e)" style="fill: #4c72b0; fill-opacity: 0.75; stroke: #ffffff; stroke-width: 0.26014; stroke-linejoin: miter"/>
   </g>
   <g id="patch_74">
    <path d="M 244.870224 228.96 
L 247.471623 228.96 
L 247.471623 228.96 
L 244.870224 228.96 
z
" clip-path="url(#pbd77d8d24e)" style="fill: #4c72b0; fill-opacity: 0.75; stroke: #ffffff; stroke-width: 0.26014; stroke-linejoin: miter"/>
   </g>
   <g id="patch_75">
    <path d="M 247.471623 228.96 
L 250.073021 228.96 
L 250.073021 228.96 
L 247.471623 228.96 
z
" clip-path="url(#pbd77d8d24e)" style="fill: #4c72b0; fill-opacity: 0.75; stroke: #ffffff; stroke-width: 0.26014; stroke-linejoin: miter"/>
   </g>
   <g id="patch_76">
    <path d="M 250.073021 228.96 
L 252.67442 228.96 
L 252.67442 228.96 
L 250.073021 228.96 
z
" clip-path="url(#pbd77d8d24e)" style="fill: #4c72b0; fill-opacity: 0.75; stroke: #ffffff; stroke-width: 0.26014; stroke-linejoin: miter"/>
   </g>
   <g id="patch_77">
    <path d="M 252.67442 228.96 
L 255.275818 228.96 
L 255.275818 227.256774 
L 252.67442 227.256774 
z
" clip-path="url(#pbd77d8d24e)" style="fill: #4c72b0; fill-opacity: 0.75; stroke: #ffffff; stroke-width: 0.26014; stroke-linejoin: miter"/>
   </g>
   <g id="patch_78">
    <path d="M 255.275818 228.96 
L 257.877217 228.96 
L 257.877217 228.96 
L 255.275818 228.96 
z
" clip-path="url(#pbd77d8d24e)" style="fill: #4c72b0; fill-opacity: 0.75; stroke: #ffffff; stroke-width: 0.26014; stroke-linejoin: miter"/>
   </g>
   <g id="patch_79">
    <path d="M 257.877217 228.96 
L 260.478616 228.96 
L 260.478616 228.96 
L 257.877217 228.96 
z
" clip-path="url(#pbd77d8d24e)" style="fill: #4c72b0; fill-opacity: 0.75; stroke: #ffffff; stroke-width: 0.26014; stroke-linejoin: miter"/>
   </g>
   <g id="patch_80">
    <path d="M 260.478616 228.96 
L 263.080014 228.96 
L 263.080014 227.256774 
L 260.478616 227.256774 
z
" clip-path="url(#pbd77d8d24e)" style="fill: #4c72b0; fill-opacity: 0.75; stroke: #ffffff; stroke-width: 0.26014; stroke-linejoin: miter"/>
   </g>
   <g id="patch_81">
    <path d="M 50.025469 228.96 
L 50.025469 7.2 
" style="fill: none; stroke: #ffffff; stroke-width: 1.25; stroke-linejoin: miter; stroke-linecap: square"/>
   </g>
   <g id="patch_82">
    <path d="M 273.225469 228.96 
L 273.225469 7.2 
" style="fill: none; stroke: #ffffff; stroke-width: 1.25; stroke-linejoin: miter; stroke-linecap: square"/>
   </g>
   <g id="patch_83">
    <path d="M 50.025469 228.96 
L 273.225469 228.96 
" style="fill: none; stroke: #ffffff; stroke-width: 1.25; stroke-linejoin: miter; stroke-linecap: square"/>
   </g>
   <g id="patch_84">
    <path d="M 50.025469 7.2 
L 273.225469 7.2 
" style="fill: none; stroke: #ffffff; stroke-width: 1.25; stroke-linejoin: miter; stroke-linecap: square"/>
   </g>
  </g>
 </g>
 <defs>
  <clipPath id="pbd77d8d24e">
   <rect x="50.025469" y="7.2" width="223.2" height="221.76"/>
  </clipPath>
 </defs>
</svg>
