<?xml version="1.0" encoding="utf-8" standalone="no"?>
<!DOCTYPE svg PUBLIC "-//W3C//DTD SVG 1.1//EN"
  "http://www.w3.org/Graphics/SVG/1.1/DTD/svg11.dtd">
<svg xmlns:xlink="http://www.w3.org/1999/xlink" width="205.631475pt" height="187.534219pt" viewBox="0 0 205.631475 187.534219" xmlns="http://www.w3.org/2000/svg" version="1.1">
 <metadata>
  <rdf:RDF xmlns:dc="http://purl.org/dc/elements/1.1/" xmlns:cc="http://creativecommons.org/ns#" xmlns:rdf="http://www.w3.org/1999/02/22-rdf-syntax-ns#">
   <cc:Work>
    <dc:type rdf:resource="http://purl.org/dc/dcmitype/StillImage"/>
    <dc:date>2023-11-28T16:12:32.389811</dc:date>
    <dc:format>image/svg+xml</dc:format>
    <dc:creator>
     <cc:Agent>
      <dc:title>Matplotlib v3.6.3, https://matplotlib.org/</dc:title>
     </cc:Agent>
    </dc:creator>
   </cc:Work>
  </rdf:RDF>
 </metadata>
 <defs>
  <style type="text/css">*{stroke-linejoin: round; stroke-linecap: butt}</style>
 </defs>
 <g id="figure_1">
  <g id="patch_1">
   <path d="M 0 187.534219 
L 205.631475 187.534219 
L 205.631475 0 
L 0 0 
L 0 187.534219 
z
" style="fill: none"/>
  </g>
  <g id="axes_1">
   <g id="patch_2">
    <path d="M 50.025469 145.8 
L 189.525469 145.8 
L 189.525469 7.2 
L 50.025469 7.2 
L 50.025469 145.8 
z
" style="fill: none"/>
   </g>
   <g id="matplotlib.axis_1">
    <g id="xtick_1">
     <g id="text_1">
      <!-- 0 -->
      <g style="fill: #262626" transform="translate(48.235027 163.173594) scale(0.11 -0.11)">
       <defs>
        <path id="ArialMT-30" d="M 266 2259 
Q 266 3072 433 3567 
Q 600 4063 929 4331 
Q 1259 4600 1759 4600 
Q 2128 4600 2406 4451 
Q 2684 4303 2865 4023 
Q 3047 3744 3150 3342 
Q 3253 2941 3253 2259 
Q 3253 1453 3087 958 
Q 2922 463 2592 192 
Q 2263 -78 1759 -78 
Q 1097 -78 719 397 
Q 266 969 266 2259 
z
M 844 2259 
Q 844 1131 1108 757 
Q 1372 384 1759 384 
Q 2147 384 2411 759 
Q 2675 1134 2675 2259 
Q 2675 3391 2411 3762 
Q 2147 4134 1753 4134 
Q 1366 4134 1134 3806 
Q 844 3388 844 2259 
z
" transform="scale(0.015625)"/>
       </defs>
       <use xlink:href="#ArialMT-30"/>
      </g>
     </g>
    </g>
    <g id="xtick_2">
     <g id="text_2">
      <!-- 1000 -->
      <g style="fill: #262626" transform="translate(106.511415 163.173594) scale(0.11 -0.11)">
       <defs>
        <path id="ArialMT-31" d="M 2384 0 
L 1822 0 
L 1822 3584 
Q 1619 3391 1289 3197 
Q 959 3003 697 2906 
L 697 3450 
Q 1169 3672 1522 3987 
Q 1875 4303 2022 4600 
L 2384 4600 
L 2384 0 
z
" transform="scale(0.015625)"/>
       </defs>
       <use xlink:href="#ArialMT-31"/>
       <use xlink:href="#ArialMT-30" x="55.615234"/>
       <use xlink:href="#ArialMT-30" x="111.230469"/>
       <use xlink:href="#ArialMT-30" x="166.845703"/>
      </g>
     </g>
    </g>
    <g id="xtick_3">
     <g id="text_3">
      <!-- 2000 -->
      <g style="fill: #262626" transform="translate(173.96335 163.173594) scale(0.11 -0.11)">
       <defs>
        <path id="ArialMT-32" d="M 3222 541 
L 3222 0 
L 194 0 
Q 188 203 259 391 
Q 375 700 629 1000 
Q 884 1300 1366 1694 
Q 2113 2306 2375 2664 
Q 2638 3022 2638 3341 
Q 2638 3675 2398 3904 
Q 2159 4134 1775 4134 
Q 1369 4134 1125 3890 
Q 881 3647 878 3216 
L 300 3275 
Q 359 3922 746 4261 
Q 1134 4600 1788 4600 
Q 2447 4600 2831 4234 
Q 3216 3869 3216 3328 
Q 3216 3053 3103 2787 
Q 2991 2522 2730 2228 
Q 2469 1934 1863 1422 
Q 1356 997 1212 845 
Q 1069 694 975 541 
L 3222 541 
z
" transform="scale(0.015625)"/>
       </defs>
       <use xlink:href="#ArialMT-32"/>
       <use xlink:href="#ArialMT-30" x="55.615234"/>
       <use xlink:href="#ArialMT-30" x="111.230469"/>
       <use xlink:href="#ArialMT-30" x="166.845703"/>
      </g>
     </g>
    </g>
    <g id="text_4">
     <!-- Size -->
     <g transform="translate(108.103594 177.949219) scale(0.12 -0.12)">
      <defs>
       <path id="ArialMT-53" d="M 288 1472 
L 859 1522 
Q 900 1178 1048 958 
Q 1197 738 1509 602 
Q 1822 466 2213 466 
Q 2559 466 2825 569 
Q 3091 672 3220 851 
Q 3350 1031 3350 1244 
Q 3350 1459 3225 1620 
Q 3100 1781 2813 1891 
Q 2628 1963 1997 2114 
Q 1366 2266 1113 2400 
Q 784 2572 623 2826 
Q 463 3081 463 3397 
Q 463 3744 659 4045 
Q 856 4347 1234 4503 
Q 1613 4659 2075 4659 
Q 2584 4659 2973 4495 
Q 3363 4331 3572 4012 
Q 3781 3694 3797 3291 
L 3216 3247 
Q 3169 3681 2898 3903 
Q 2628 4125 2100 4125 
Q 1550 4125 1298 3923 
Q 1047 3722 1047 3438 
Q 1047 3191 1225 3031 
Q 1400 2872 2139 2705 
Q 2878 2538 3153 2413 
Q 3553 2228 3743 1945 
Q 3934 1663 3934 1294 
Q 3934 928 3725 604 
Q 3516 281 3123 101 
Q 2731 -78 2241 -78 
Q 1619 -78 1198 103 
Q 778 284 539 648 
Q 300 1013 288 1472 
z
" transform="scale(0.015625)"/>
       <path id="ArialMT-69" d="M 425 3934 
L 425 4581 
L 988 4581 
L 988 3934 
L 425 3934 
z
M 425 0 
L 425 3319 
L 988 3319 
L 988 0 
L 425 0 
z
" transform="scale(0.015625)"/>
       <path id="ArialMT-7a" d="M 125 0 
L 125 456 
L 2238 2881 
Q 1878 2863 1603 2863 
L 250 2863 
L 250 3319 
L 2963 3319 
L 2963 2947 
L 1166 841 
L 819 456 
Q 1197 484 1528 484 
L 3063 484 
L 3063 0 
L 125 0 
z
" transform="scale(0.015625)"/>
       <path id="ArialMT-65" d="M 2694 1069 
L 3275 997 
Q 3138 488 2766 206 
Q 2394 -75 1816 -75 
Q 1088 -75 661 373 
Q 234 822 234 1631 
Q 234 2469 665 2931 
Q 1097 3394 1784 3394 
Q 2450 3394 2872 2941 
Q 3294 2488 3294 1666 
Q 3294 1616 3291 1516 
L 816 1516 
Q 847 969 1125 678 
Q 1403 388 1819 388 
Q 2128 388 2347 550 
Q 2566 713 2694 1069 
z
M 847 1978 
L 2700 1978 
Q 2663 2397 2488 2606 
Q 2219 2931 1791 2931 
Q 1403 2931 1139 2672 
Q 875 2413 847 1978 
z
" transform="scale(0.015625)"/>
      </defs>
      <use xlink:href="#ArialMT-53"/>
      <use xlink:href="#ArialMT-69" x="66.699219"/>
      <use xlink:href="#ArialMT-7a" x="88.916016"/>
      <use xlink:href="#ArialMT-65" x="138.916016"/>
     </g>
    </g>
   </g>
   <g id="matplotlib.axis_2">
    <g id="ytick_1">
     <g id="text_5">
      <!-- 0 -->
      <g style="fill: #262626" transform="translate(34.408438 149.736797) scale(0.11 -0.11)">
       <use xlink:href="#ArialMT-30"/>
      </g>
     </g>
    </g>
    <g id="ytick_2">
     <g id="text_6">
      <!-- 25 -->
      <g style="fill: #262626" transform="translate(28.291406 123.123894) scale(0.11 -0.11)">
       <defs>
        <path id="ArialMT-35" d="M 266 1200 
L 856 1250 
Q 922 819 1161 601 
Q 1400 384 1738 384 
Q 2144 384 2425 690 
Q 2706 997 2706 1503 
Q 2706 1984 2436 2262 
Q 2166 2541 1728 2541 
Q 1456 2541 1237 2417 
Q 1019 2294 894 2097 
L 366 2166 
L 809 4519 
L 3088 4519 
L 3088 3981 
L 1259 3981 
L 1013 2750 
Q 1425 3038 1878 3038 
Q 2478 3038 2890 2622 
Q 3303 2206 3303 1553 
Q 3303 931 2941 478 
Q 2500 -78 1738 -78 
Q 1113 -78 717 272 
Q 322 622 266 1200 
z
" transform="scale(0.015625)"/>
       </defs>
       <use xlink:href="#ArialMT-32"/>
       <use xlink:href="#ArialMT-35" x="55.615234"/>
      </g>
     </g>
    </g>
    <g id="ytick_3">
     <g id="text_7">
      <!-- 50 -->
      <g style="fill: #262626" transform="translate(28.291406 96.51099) scale(0.11 -0.11)">
       <use xlink:href="#ArialMT-35"/>
       <use xlink:href="#ArialMT-30" x="55.615234"/>
      </g>
     </g>
    </g>
    <g id="ytick_4">
     <g id="text_8">
      <!-- 75 -->
      <g style="fill: #262626" transform="translate(28.291406 69.898087) scale(0.11 -0.11)">
       <defs>
        <path id="ArialMT-37" d="M 303 3981 
L 303 4522 
L 3269 4522 
L 3269 4084 
Q 2831 3619 2401 2847 
Q 1972 2075 1738 1259 
Q 1569 684 1522 0 
L 944 0 
Q 953 541 1156 1306 
Q 1359 2072 1739 2783 
Q 2119 3494 2547 3981 
L 303 3981 
z
" transform="scale(0.015625)"/>
       </defs>
       <use xlink:href="#ArialMT-37"/>
       <use xlink:href="#ArialMT-35" x="55.615234"/>
      </g>
     </g>
    </g>
    <g id="ytick_5">
     <g id="text_9">
      <!-- 100 -->
      <g style="fill: #262626" transform="translate(22.174375 43.285184) scale(0.11 -0.11)">
       <use xlink:href="#ArialMT-31"/>
       <use xlink:href="#ArialMT-30" x="55.615234"/>
       <use xlink:href="#ArialMT-30" x="111.230469"/>
      </g>
     </g>
    </g>
    <g id="ytick_6">
     <g id="text_10">
      <!-- 125 -->
      <g style="fill: #262626" transform="translate(22.174375 16.672281) scale(0.11 -0.11)">
       <use xlink:href="#ArialMT-31"/>
       <use xlink:href="#ArialMT-32" x="55.615234"/>
       <use xlink:href="#ArialMT-35" x="111.230469"/>
      </g>
     </g>
    </g>
    <g id="text_11">
     <!-- Count -->
     <g transform="translate(15.789375 92.509688) rotate(-90) scale(0.12 -0.12)">
      <defs>
       <path id="ArialMT-43" d="M 3763 1606 
L 4369 1453 
Q 4178 706 3683 314 
Q 3188 -78 2472 -78 
Q 1731 -78 1267 223 
Q 803 525 561 1097 
Q 319 1669 319 2325 
Q 319 3041 592 3573 
Q 866 4106 1370 4382 
Q 1875 4659 2481 4659 
Q 3169 4659 3637 4309 
Q 4106 3959 4291 3325 
L 3694 3184 
Q 3534 3684 3231 3912 
Q 2928 4141 2469 4141 
Q 1941 4141 1586 3887 
Q 1231 3634 1087 3207 
Q 944 2781 944 2328 
Q 944 1744 1114 1308 
Q 1284 872 1643 656 
Q 2003 441 2422 441 
Q 2931 441 3284 734 
Q 3638 1028 3763 1606 
z
" transform="scale(0.015625)"/>
       <path id="ArialMT-6f" d="M 213 1659 
Q 213 2581 725 3025 
Q 1153 3394 1769 3394 
Q 2453 3394 2887 2945 
Q 3322 2497 3322 1706 
Q 3322 1066 3130 698 
Q 2938 331 2570 128 
Q 2203 -75 1769 -75 
Q 1072 -75 642 372 
Q 213 819 213 1659 
z
M 791 1659 
Q 791 1022 1069 705 
Q 1347 388 1769 388 
Q 2188 388 2466 706 
Q 2744 1025 2744 1678 
Q 2744 2294 2464 2611 
Q 2184 2928 1769 2928 
Q 1347 2928 1069 2612 
Q 791 2297 791 1659 
z
" transform="scale(0.015625)"/>
       <path id="ArialMT-75" d="M 2597 0 
L 2597 488 
Q 2209 -75 1544 -75 
Q 1250 -75 995 37 
Q 741 150 617 320 
Q 494 491 444 738 
Q 409 903 409 1263 
L 409 3319 
L 972 3319 
L 972 1478 
Q 972 1038 1006 884 
Q 1059 663 1231 536 
Q 1403 409 1656 409 
Q 1909 409 2131 539 
Q 2353 669 2445 892 
Q 2538 1116 2538 1541 
L 2538 3319 
L 3100 3319 
L 3100 0 
L 2597 0 
z
" transform="scale(0.015625)"/>
       <path id="ArialMT-6e" d="M 422 0 
L 422 3319 
L 928 3319 
L 928 2847 
Q 1294 3394 1984 3394 
Q 2284 3394 2536 3286 
Q 2788 3178 2913 3003 
Q 3038 2828 3088 2588 
Q 3119 2431 3119 2041 
L 3119 0 
L 2556 0 
L 2556 2019 
Q 2556 2363 2490 2533 
Q 2425 2703 2258 2804 
Q 2091 2906 1866 2906 
Q 1506 2906 1245 2678 
Q 984 2450 984 1813 
L 984 0 
L 422 0 
z
" transform="scale(0.015625)"/>
       <path id="ArialMT-74" d="M 1650 503 
L 1731 6 
Q 1494 -44 1306 -44 
Q 1000 -44 831 53 
Q 663 150 594 308 
Q 525 466 525 972 
L 525 2881 
L 113 2881 
L 113 3319 
L 525 3319 
L 525 4141 
L 1084 4478 
L 1084 3319 
L 1650 3319 
L 1650 2881 
L 1084 2881 
L 1084 941 
Q 1084 700 1114 631 
Q 1144 563 1211 522 
Q 1278 481 1403 481 
Q 1497 481 1650 503 
z
" transform="scale(0.015625)"/>
      </defs>
      <use xlink:href="#ArialMT-43"/>
      <use xlink:href="#ArialMT-6f" x="72.216797"/>
      <use xlink:href="#ArialMT-75" x="127.832031"/>
      <use xlink:href="#ArialMT-6e" x="183.447266"/>
      <use xlink:href="#ArialMT-74" x="239.0625"/>
     </g>
    </g>
   </g>
   <g id="patch_3">
    <path d="M 56.366378 145.8 
L 57.992252 145.8 
L 57.992252 133.025806 
L 56.366378 133.025806 
z
" clip-path="url(#p9a219a9f73)" style="fill: #f77189; fill-opacity: 0.75; stroke: #ffffff; stroke-width: 0.162587; stroke-linejoin: miter"/>
   </g>
   <g id="patch_4">
    <path d="M 57.992252 145.8 
L 59.618126 145.8 
L 59.618126 96.832258 
L 57.992252 96.832258 
z
" clip-path="url(#p9a219a9f73)" style="fill: #f77189; fill-opacity: 0.75; stroke: #ffffff; stroke-width: 0.162587; stroke-linejoin: miter"/>
   </g>
   <g id="patch_5">
    <path d="M 59.618126 145.8 
L 61.244 145.8 
L 61.244 44.670968 
L 59.618126 44.670968 
z
" clip-path="url(#p9a219a9f73)" style="fill: #f77189; fill-opacity: 0.75; stroke: #ffffff; stroke-width: 0.162587; stroke-linejoin: miter"/>
   </g>
   <g id="patch_6">
    <path d="M 61.244 145.8 
L 62.869874 145.8 
L 62.869874 13.8 
L 61.244 13.8 
z
" clip-path="url(#p9a219a9f73)" style="fill: #f77189; fill-opacity: 0.75; stroke: #ffffff; stroke-width: 0.162587; stroke-linejoin: miter"/>
   </g>
   <g id="patch_7">
    <path d="M 62.869874 145.8 
L 64.495748 145.8 
L 64.495748 38.283871 
L 62.869874 38.283871 
z
" clip-path="url(#p9a219a9f73)" style="fill: #f77189; fill-opacity: 0.75; stroke: #ffffff; stroke-width: 0.162587; stroke-linejoin: miter"/>
   </g>
   <g id="patch_8">
    <path d="M 64.495748 145.8 
L 66.121623 145.8 
L 66.121623 61.703226 
L 64.495748 61.703226 
z
" clip-path="url(#p9a219a9f73)" style="fill: #f77189; fill-opacity: 0.75; stroke: #ffffff; stroke-width: 0.162587; stroke-linejoin: miter"/>
   </g>
   <g id="patch_9">
    <path d="M 66.121623 145.8 
L 67.747497 145.8 
L 67.747497 85.122581 
L 66.121623 85.122581 
z
" clip-path="url(#p9a219a9f73)" style="fill: #f77189; fill-opacity: 0.75; stroke: #ffffff; stroke-width: 0.162587; stroke-linejoin: miter"/>
   </g>
   <g id="patch_10">
    <path d="M 67.747497 145.8 
L 69.373371 145.8 
L 69.373371 103.219355 
L 67.747497 103.219355 
z
" clip-path="url(#p9a219a9f73)" style="fill: #f77189; fill-opacity: 0.75; stroke: #ffffff; stroke-width: 0.162587; stroke-linejoin: miter"/>
   </g>
   <g id="patch_11">
    <path d="M 69.373371 145.8 
L 70.999245 145.8 
L 70.999245 120.251613 
L 69.373371 120.251613 
z
" clip-path="url(#p9a219a9f73)" style="fill: #f77189; fill-opacity: 0.75; stroke: #ffffff; stroke-width: 0.162587; stroke-linejoin: miter"/>
   </g>
   <g id="patch_12">
    <path d="M 70.999245 145.8 
L 72.625119 145.8 
L 72.625119 124.509677 
L 70.999245 124.509677 
z
" clip-path="url(#p9a219a9f73)" style="fill: #f77189; fill-opacity: 0.75; stroke: #ffffff; stroke-width: 0.162587; stroke-linejoin: miter"/>
   </g>
   <g id="patch_13">
    <path d="M 72.625119 145.8 
L 74.250993 145.8 
L 74.250993 140.477419 
L 72.625119 140.477419 
z
" clip-path="url(#p9a219a9f73)" style="fill: #f77189; fill-opacity: 0.75; stroke: #ffffff; stroke-width: 0.162587; stroke-linejoin: miter"/>
   </g>
   <g id="patch_14">
    <path d="M 74.250993 145.8 
L 75.876867 145.8 
L 75.876867 136.219355 
L 74.250993 136.219355 
z
" clip-path="url(#p9a219a9f73)" style="fill: #f77189; fill-opacity: 0.75; stroke: #ffffff; stroke-width: 0.162587; stroke-linejoin: miter"/>
   </g>
   <g id="patch_15">
    <path d="M 75.876867 145.8 
L 77.502741 145.8 
L 77.502741 139.412903 
L 75.876867 139.412903 
z
" clip-path="url(#p9a219a9f73)" style="fill: #f77189; fill-opacity: 0.75; stroke: #ffffff; stroke-width: 0.162587; stroke-linejoin: miter"/>
   </g>
   <g id="patch_16">
    <path d="M 77.502741 145.8 
L 79.128616 145.8 
L 79.128616 125.574194 
L 77.502741 125.574194 
z
" clip-path="url(#p9a219a9f73)" style="fill: #f77189; fill-opacity: 0.75; stroke: #ffffff; stroke-width: 0.162587; stroke-linejoin: miter"/>
   </g>
   <g id="patch_17">
    <path d="M 79.128616 145.8 
L 80.75449 145.8 
L 80.75449 133.025806 
L 79.128616 133.025806 
z
" clip-path="url(#p9a219a9f73)" style="fill: #f77189; fill-opacity: 0.75; stroke: #ffffff; stroke-width: 0.162587; stroke-linejoin: miter"/>
   </g>
   <g id="patch_18">
    <path d="M 80.75449 145.8 
L 82.380364 145.8 
L 82.380364 138.348387 
L 80.75449 138.348387 
z
" clip-path="url(#p9a219a9f73)" style="fill: #f77189; fill-opacity: 0.75; stroke: #ffffff; stroke-width: 0.162587; stroke-linejoin: miter"/>
   </g>
   <g id="patch_19">
    <path d="M 82.380364 145.8 
L 84.006238 145.8 
L 84.006238 131.96129 
L 82.380364 131.96129 
z
" clip-path="url(#p9a219a9f73)" style="fill: #f77189; fill-opacity: 0.75; stroke: #ffffff; stroke-width: 0.162587; stroke-linejoin: miter"/>
   </g>
   <g id="patch_20">
    <path d="M 84.006238 145.8 
L 85.632112 145.8 
L 85.632112 139.412903 
L 84.006238 139.412903 
z
" clip-path="url(#p9a219a9f73)" style="fill: #f77189; fill-opacity: 0.75; stroke: #ffffff; stroke-width: 0.162587; stroke-linejoin: miter"/>
   </g>
   <g id="patch_21">
    <path d="M 85.632112 145.8 
L 87.257986 145.8 
L 87.257986 143.670968 
L 85.632112 143.670968 
z
" clip-path="url(#p9a219a9f73)" style="fill: #f77189; fill-opacity: 0.75; stroke: #ffffff; stroke-width: 0.162587; stroke-linejoin: miter"/>
   </g>
   <g id="patch_22">
    <path d="M 87.257986 145.8 
L 88.88386 145.8 
L 88.88386 144.735484 
L 87.257986 144.735484 
z
" clip-path="url(#p9a219a9f73)" style="fill: #f77189; fill-opacity: 0.75; stroke: #ffffff; stroke-width: 0.162587; stroke-linejoin: miter"/>
   </g>
   <g id="patch_23">
    <path d="M 88.88386 145.8 
L 90.509734 145.8 
L 90.509734 141.541935 
L 88.88386 141.541935 
z
" clip-path="url(#p9a219a9f73)" style="fill: #f77189; fill-opacity: 0.75; stroke: #ffffff; stroke-width: 0.162587; stroke-linejoin: miter"/>
   </g>
   <g id="patch_24">
    <path d="M 90.509734 145.8 
L 92.135609 145.8 
L 92.135609 142.606452 
L 90.509734 142.606452 
z
" clip-path="url(#p9a219a9f73)" style="fill: #f77189; fill-opacity: 0.75; stroke: #ffffff; stroke-width: 0.162587; stroke-linejoin: miter"/>
   </g>
   <g id="patch_25">
    <path d="M 92.135609 145.8 
L 93.761483 145.8 
L 93.761483 143.670968 
L 92.135609 143.670968 
z
" clip-path="url(#p9a219a9f73)" style="fill: #f77189; fill-opacity: 0.75; stroke: #ffffff; stroke-width: 0.162587; stroke-linejoin: miter"/>
   </g>
   <g id="patch_26">
    <path d="M 93.761483 145.8 
L 95.387357 145.8 
L 95.387357 143.670968 
L 93.761483 143.670968 
z
" clip-path="url(#p9a219a9f73)" style="fill: #f77189; fill-opacity: 0.75; stroke: #ffffff; stroke-width: 0.162587; stroke-linejoin: miter"/>
   </g>
   <g id="patch_27">
    <path d="M 95.387357 145.8 
L 97.013231 145.8 
L 97.013231 142.606452 
L 95.387357 142.606452 
z
" clip-path="url(#p9a219a9f73)" style="fill: #f77189; fill-opacity: 0.75; stroke: #ffffff; stroke-width: 0.162587; stroke-linejoin: miter"/>
   </g>
   <g id="patch_28">
    <path d="M 97.013231 145.8 
L 98.639105 145.8 
L 98.639105 143.670968 
L 97.013231 143.670968 
z
" clip-path="url(#p9a219a9f73)" style="fill: #f77189; fill-opacity: 0.75; stroke: #ffffff; stroke-width: 0.162587; stroke-linejoin: miter"/>
   </g>
   <g id="patch_29">
    <path d="M 98.639105 145.8 
L 100.264979 145.8 
L 100.264979 143.670968 
L 98.639105 143.670968 
z
" clip-path="url(#p9a219a9f73)" style="fill: #f77189; fill-opacity: 0.75; stroke: #ffffff; stroke-width: 0.162587; stroke-linejoin: miter"/>
   </g>
   <g id="patch_30">
    <path d="M 100.264979 145.8 
L 101.890853 145.8 
L 101.890853 144.735484 
L 100.264979 144.735484 
z
" clip-path="url(#p9a219a9f73)" style="fill: #f77189; fill-opacity: 0.75; stroke: #ffffff; stroke-width: 0.162587; stroke-linejoin: miter"/>
   </g>
   <g id="patch_31">
    <path d="M 101.890853 145.8 
L 103.516727 145.8 
L 103.516727 142.606452 
L 101.890853 142.606452 
z
" clip-path="url(#p9a219a9f73)" style="fill: #f77189; fill-opacity: 0.75; stroke: #ffffff; stroke-width: 0.162587; stroke-linejoin: miter"/>
   </g>
   <g id="patch_32">
    <path d="M 103.516727 145.8 
L 105.142602 145.8 
L 105.142602 145.8 
L 103.516727 145.8 
z
" clip-path="url(#p9a219a9f73)" style="fill: #f77189; fill-opacity: 0.75; stroke: #ffffff; stroke-width: 0.162587; stroke-linejoin: miter"/>
   </g>
   <g id="patch_33">
    <path d="M 105.142602 145.8 
L 106.768476 145.8 
L 106.768476 144.735484 
L 105.142602 144.735484 
z
" clip-path="url(#p9a219a9f73)" style="fill: #f77189; fill-opacity: 0.75; stroke: #ffffff; stroke-width: 0.162587; stroke-linejoin: miter"/>
   </g>
   <g id="patch_34">
    <path d="M 106.768476 145.8 
L 108.39435 145.8 
L 108.39435 145.8 
L 106.768476 145.8 
z
" clip-path="url(#p9a219a9f73)" style="fill: #f77189; fill-opacity: 0.75; stroke: #ffffff; stroke-width: 0.162587; stroke-linejoin: miter"/>
   </g>
   <g id="patch_35">
    <path d="M 108.39435 145.8 
L 110.020224 145.8 
L 110.020224 145.8 
L 108.39435 145.8 
z
" clip-path="url(#p9a219a9f73)" style="fill: #f77189; fill-opacity: 0.75; stroke: #ffffff; stroke-width: 0.162587; stroke-linejoin: miter"/>
   </g>
   <g id="patch_36">
    <path d="M 110.020224 145.8 
L 111.646098 145.8 
L 111.646098 145.8 
L 110.020224 145.8 
z
" clip-path="url(#p9a219a9f73)" style="fill: #f77189; fill-opacity: 0.75; stroke: #ffffff; stroke-width: 0.162587; stroke-linejoin: miter"/>
   </g>
   <g id="patch_37">
    <path d="M 111.646098 145.8 
L 113.271972 145.8 
L 113.271972 144.735484 
L 111.646098 144.735484 
z
" clip-path="url(#p9a219a9f73)" style="fill: #f77189; fill-opacity: 0.75; stroke: #ffffff; stroke-width: 0.162587; stroke-linejoin: miter"/>
   </g>
   <g id="patch_38">
    <path d="M 113.271972 145.8 
L 114.897846 145.8 
L 114.897846 144.735484 
L 113.271972 144.735484 
z
" clip-path="url(#p9a219a9f73)" style="fill: #f77189; fill-opacity: 0.75; stroke: #ffffff; stroke-width: 0.162587; stroke-linejoin: miter"/>
   </g>
   <g id="patch_39">
    <path d="M 114.897846 145.8 
L 116.52372 145.8 
L 116.52372 143.670968 
L 114.897846 143.670968 
z
" clip-path="url(#p9a219a9f73)" style="fill: #f77189; fill-opacity: 0.75; stroke: #ffffff; stroke-width: 0.162587; stroke-linejoin: miter"/>
   </g>
   <g id="patch_40">
    <path d="M 116.52372 145.8 
L 118.149595 145.8 
L 118.149595 145.8 
L 116.52372 145.8 
z
" clip-path="url(#p9a219a9f73)" style="fill: #f77189; fill-opacity: 0.75; stroke: #ffffff; stroke-width: 0.162587; stroke-linejoin: miter"/>
   </g>
   <g id="patch_41">
    <path d="M 118.149595 145.8 
L 119.775469 145.8 
L 119.775469 145.8 
L 118.149595 145.8 
z
" clip-path="url(#p9a219a9f73)" style="fill: #f77189; fill-opacity: 0.75; stroke: #ffffff; stroke-width: 0.162587; stroke-linejoin: miter"/>
   </g>
   <g id="patch_42">
    <path d="M 119.775469 145.8 
L 121.401343 145.8 
L 121.401343 143.670968 
L 119.775469 143.670968 
z
" clip-path="url(#p9a219a9f73)" style="fill: #f77189; fill-opacity: 0.75; stroke: #ffffff; stroke-width: 0.162587; stroke-linejoin: miter"/>
   </g>
   <g id="patch_43">
    <path d="M 121.401343 145.8 
L 123.027217 145.8 
L 123.027217 144.735484 
L 121.401343 144.735484 
z
" clip-path="url(#p9a219a9f73)" style="fill: #f77189; fill-opacity: 0.75; stroke: #ffffff; stroke-width: 0.162587; stroke-linejoin: miter"/>
   </g>
   <g id="patch_44">
    <path d="M 123.027217 145.8 
L 124.653091 145.8 
L 124.653091 145.8 
L 123.027217 145.8 
z
" clip-path="url(#p9a219a9f73)" style="fill: #f77189; fill-opacity: 0.75; stroke: #ffffff; stroke-width: 0.162587; stroke-linejoin: miter"/>
   </g>
   <g id="patch_45">
    <path d="M 124.653091 145.8 
L 126.278965 145.8 
L 126.278965 145.8 
L 124.653091 145.8 
z
" clip-path="url(#p9a219a9f73)" style="fill: #f77189; fill-opacity: 0.75; stroke: #ffffff; stroke-width: 0.162587; stroke-linejoin: miter"/>
   </g>
   <g id="patch_46">
    <path d="M 126.278965 145.8 
L 127.904839 145.8 
L 127.904839 145.8 
L 126.278965 145.8 
z
" clip-path="url(#p9a219a9f73)" style="fill: #f77189; fill-opacity: 0.75; stroke: #ffffff; stroke-width: 0.162587; stroke-linejoin: miter"/>
   </g>
   <g id="patch_47">
    <path d="M 127.904839 145.8 
L 129.530714 145.8 
L 129.530714 144.735484 
L 127.904839 144.735484 
z
" clip-path="url(#p9a219a9f73)" style="fill: #f77189; fill-opacity: 0.75; stroke: #ffffff; stroke-width: 0.162587; stroke-linejoin: miter"/>
   </g>
   <g id="patch_48">
    <path d="M 129.530714 145.8 
L 131.156588 145.8 
L 131.156588 144.735484 
L 129.530714 144.735484 
z
" clip-path="url(#p9a219a9f73)" style="fill: #f77189; fill-opacity: 0.75; stroke: #ffffff; stroke-width: 0.162587; stroke-linejoin: miter"/>
   </g>
   <g id="patch_49">
    <path d="M 131.156588 145.8 
L 132.782462 145.8 
L 132.782462 145.8 
L 131.156588 145.8 
z
" clip-path="url(#p9a219a9f73)" style="fill: #f77189; fill-opacity: 0.75; stroke: #ffffff; stroke-width: 0.162587; stroke-linejoin: miter"/>
   </g>
   <g id="patch_50">
    <path d="M 132.782462 145.8 
L 134.408336 145.8 
L 134.408336 145.8 
L 132.782462 145.8 
z
" clip-path="url(#p9a219a9f73)" style="fill: #f77189; fill-opacity: 0.75; stroke: #ffffff; stroke-width: 0.162587; stroke-linejoin: miter"/>
   </g>
   <g id="patch_51">
    <path d="M 134.408336 145.8 
L 136.03421 145.8 
L 136.03421 145.8 
L 134.408336 145.8 
z
" clip-path="url(#p9a219a9f73)" style="fill: #f77189; fill-opacity: 0.75; stroke: #ffffff; stroke-width: 0.162587; stroke-linejoin: miter"/>
   </g>
   <g id="patch_52">
    <path d="M 136.03421 145.8 
L 137.660084 145.8 
L 137.660084 145.8 
L 136.03421 145.8 
z
" clip-path="url(#p9a219a9f73)" style="fill: #f77189; fill-opacity: 0.75; stroke: #ffffff; stroke-width: 0.162587; stroke-linejoin: miter"/>
   </g>
   <g id="patch_53">
    <path d="M 137.660084 145.8 
L 139.285958 145.8 
L 139.285958 144.735484 
L 137.660084 144.735484 
z
" clip-path="url(#p9a219a9f73)" style="fill: #f77189; fill-opacity: 0.75; stroke: #ffffff; stroke-width: 0.162587; stroke-linejoin: miter"/>
   </g>
   <g id="patch_54">
    <path d="M 139.285958 145.8 
L 140.911832 145.8 
L 140.911832 145.8 
L 139.285958 145.8 
z
" clip-path="url(#p9a219a9f73)" style="fill: #f77189; fill-opacity: 0.75; stroke: #ffffff; stroke-width: 0.162587; stroke-linejoin: miter"/>
   </g>
   <g id="patch_55">
    <path d="M 140.911832 145.8 
L 142.537707 145.8 
L 142.537707 143.670968 
L 140.911832 143.670968 
z
" clip-path="url(#p9a219a9f73)" style="fill: #f77189; fill-opacity: 0.75; stroke: #ffffff; stroke-width: 0.162587; stroke-linejoin: miter"/>
   </g>
   <g id="patch_56">
    <path d="M 142.537707 145.8 
L 144.163581 145.8 
L 144.163581 145.8 
L 142.537707 145.8 
z
" clip-path="url(#p9a219a9f73)" style="fill: #f77189; fill-opacity: 0.75; stroke: #ffffff; stroke-width: 0.162587; stroke-linejoin: miter"/>
   </g>
   <g id="patch_57">
    <path d="M 144.163581 145.8 
L 145.789455 145.8 
L 145.789455 145.8 
L 144.163581 145.8 
z
" clip-path="url(#p9a219a9f73)" style="fill: #f77189; fill-opacity: 0.75; stroke: #ffffff; stroke-width: 0.162587; stroke-linejoin: miter"/>
   </g>
   <g id="patch_58">
    <path d="M 145.789455 145.8 
L 147.415329 145.8 
L 147.415329 145.8 
L 145.789455 145.8 
z
" clip-path="url(#p9a219a9f73)" style="fill: #f77189; fill-opacity: 0.75; stroke: #ffffff; stroke-width: 0.162587; stroke-linejoin: miter"/>
   </g>
   <g id="patch_59">
    <path d="M 147.415329 145.8 
L 149.041203 145.8 
L 149.041203 145.8 
L 147.415329 145.8 
z
" clip-path="url(#p9a219a9f73)" style="fill: #f77189; fill-opacity: 0.75; stroke: #ffffff; stroke-width: 0.162587; stroke-linejoin: miter"/>
   </g>
   <g id="patch_60">
    <path d="M 149.041203 145.8 
L 150.667077 145.8 
L 150.667077 145.8 
L 149.041203 145.8 
z
" clip-path="url(#p9a219a9f73)" style="fill: #f77189; fill-opacity: 0.75; stroke: #ffffff; stroke-width: 0.162587; stroke-linejoin: miter"/>
   </g>
   <g id="patch_61">
    <path d="M 150.667077 145.8 
L 152.292951 145.8 
L 152.292951 145.8 
L 150.667077 145.8 
z
" clip-path="url(#p9a219a9f73)" style="fill: #f77189; fill-opacity: 0.75; stroke: #ffffff; stroke-width: 0.162587; stroke-linejoin: miter"/>
   </g>
   <g id="patch_62">
    <path d="M 152.292951 145.8 
L 153.918825 145.8 
L 153.918825 144.735484 
L 152.292951 144.735484 
z
" clip-path="url(#p9a219a9f73)" style="fill: #f77189; fill-opacity: 0.75; stroke: #ffffff; stroke-width: 0.162587; stroke-linejoin: miter"/>
   </g>
   <g id="patch_63">
    <path d="M 153.918825 145.8 
L 155.5447 145.8 
L 155.5447 145.8 
L 153.918825 145.8 
z
" clip-path="url(#p9a219a9f73)" style="fill: #f77189; fill-opacity: 0.75; stroke: #ffffff; stroke-width: 0.162587; stroke-linejoin: miter"/>
   </g>
   <g id="patch_64">
    <path d="M 155.5447 145.8 
L 157.170574 145.8 
L 157.170574 145.8 
L 155.5447 145.8 
z
" clip-path="url(#p9a219a9f73)" style="fill: #f77189; fill-opacity: 0.75; stroke: #ffffff; stroke-width: 0.162587; stroke-linejoin: miter"/>
   </g>
   <g id="patch_65">
    <path d="M 157.170574 145.8 
L 158.796448 145.8 
L 158.796448 145.8 
L 157.170574 145.8 
z
" clip-path="url(#p9a219a9f73)" style="fill: #f77189; fill-opacity: 0.75; stroke: #ffffff; stroke-width: 0.162587; stroke-linejoin: miter"/>
   </g>
   <g id="patch_66">
    <path d="M 158.796448 145.8 
L 160.422322 145.8 
L 160.422322 144.735484 
L 158.796448 144.735484 
z
" clip-path="url(#p9a219a9f73)" style="fill: #f77189; fill-opacity: 0.75; stroke: #ffffff; stroke-width: 0.162587; stroke-linejoin: miter"/>
   </g>
   <g id="patch_67">
    <path d="M 160.422322 145.8 
L 162.048196 145.8 
L 162.048196 145.8 
L 160.422322 145.8 
z
" clip-path="url(#p9a219a9f73)" style="fill: #f77189; fill-opacity: 0.75; stroke: #ffffff; stroke-width: 0.162587; stroke-linejoin: miter"/>
   </g>
   <g id="patch_68">
    <path d="M 162.048196 145.8 
L 163.67407 145.8 
L 163.67407 145.8 
L 162.048196 145.8 
z
" clip-path="url(#p9a219a9f73)" style="fill: #f77189; fill-opacity: 0.75; stroke: #ffffff; stroke-width: 0.162587; stroke-linejoin: miter"/>
   </g>
   <g id="patch_69">
    <path d="M 163.67407 145.8 
L 165.299944 145.8 
L 165.299944 145.8 
L 163.67407 145.8 
z
" clip-path="url(#p9a219a9f73)" style="fill: #f77189; fill-opacity: 0.75; stroke: #ffffff; stroke-width: 0.162587; stroke-linejoin: miter"/>
   </g>
   <g id="patch_70">
    <path d="M 165.299944 145.8 
L 166.925818 145.8 
L 166.925818 144.735484 
L 165.299944 144.735484 
z
" clip-path="url(#p9a219a9f73)" style="fill: #f77189; fill-opacity: 0.75; stroke: #ffffff; stroke-width: 0.162587; stroke-linejoin: miter"/>
   </g>
   <g id="patch_71">
    <path d="M 166.925818 145.8 
L 168.551693 145.8 
L 168.551693 144.735484 
L 166.925818 144.735484 
z
" clip-path="url(#p9a219a9f73)" style="fill: #f77189; fill-opacity: 0.75; stroke: #ffffff; stroke-width: 0.162587; stroke-linejoin: miter"/>
   </g>
   <g id="patch_72">
    <path d="M 168.551693 145.8 
L 170.177567 145.8 
L 170.177567 144.735484 
L 168.551693 144.735484 
z
" clip-path="url(#p9a219a9f73)" style="fill: #f77189; fill-opacity: 0.75; stroke: #ffffff; stroke-width: 0.162587; stroke-linejoin: miter"/>
   </g>
   <g id="patch_73">
    <path d="M 170.177567 145.8 
L 171.803441 145.8 
L 171.803441 145.8 
L 170.177567 145.8 
z
" clip-path="url(#p9a219a9f73)" style="fill: #f77189; fill-opacity: 0.75; stroke: #ffffff; stroke-width: 0.162587; stroke-linejoin: miter"/>
   </g>
   <g id="patch_74">
    <path d="M 171.803441 145.8 
L 173.429315 145.8 
L 173.429315 145.8 
L 171.803441 145.8 
z
" clip-path="url(#p9a219a9f73)" style="fill: #f77189; fill-opacity: 0.75; stroke: #ffffff; stroke-width: 0.162587; stroke-linejoin: miter"/>
   </g>
   <g id="patch_75">
    <path d="M 173.429315 145.8 
L 175.055189 145.8 
L 175.055189 145.8 
L 173.429315 145.8 
z
" clip-path="url(#p9a219a9f73)" style="fill: #f77189; fill-opacity: 0.75; stroke: #ffffff; stroke-width: 0.162587; stroke-linejoin: miter"/>
   </g>
   <g id="patch_76">
    <path d="M 175.055189 145.8 
L 176.681063 145.8 
L 176.681063 145.8 
L 175.055189 145.8 
z
" clip-path="url(#p9a219a9f73)" style="fill: #f77189; fill-opacity: 0.75; stroke: #ffffff; stroke-width: 0.162587; stroke-linejoin: miter"/>
   </g>
   <g id="patch_77">
    <path d="M 176.681063 145.8 
L 178.306937 145.8 
L 178.306937 144.735484 
L 176.681063 144.735484 
z
" clip-path="url(#p9a219a9f73)" style="fill: #f77189; fill-opacity: 0.75; stroke: #ffffff; stroke-width: 0.162587; stroke-linejoin: miter"/>
   </g>
   <g id="patch_78">
    <path d="M 178.306937 145.8 
L 179.932811 145.8 
L 179.932811 145.8 
L 178.306937 145.8 
z
" clip-path="url(#p9a219a9f73)" style="fill: #f77189; fill-opacity: 0.75; stroke: #ffffff; stroke-width: 0.162587; stroke-linejoin: miter"/>
   </g>
   <g id="patch_79">
    <path d="M 179.932811 145.8 
L 181.558686 145.8 
L 181.558686 145.8 
L 179.932811 145.8 
z
" clip-path="url(#p9a219a9f73)" style="fill: #f77189; fill-opacity: 0.75; stroke: #ffffff; stroke-width: 0.162587; stroke-linejoin: miter"/>
   </g>
   <g id="patch_80">
    <path d="M 181.558686 145.8 
L 183.18456 145.8 
L 183.18456 144.735484 
L 181.558686 144.735484 
z
" clip-path="url(#p9a219a9f73)" style="fill: #f77189; fill-opacity: 0.75; stroke: #ffffff; stroke-width: 0.162587; stroke-linejoin: miter"/>
   </g>
   <g id="patch_81">
    <path d="M 50.025469 145.8 
L 50.025469 7.2 
" style="fill: none; stroke: #000000; stroke-width: 1.25; stroke-linejoin: miter; stroke-linecap: square"/>
   </g>
   <g id="patch_82">
    <path d="M 189.525469 145.8 
L 189.525469 7.2 
" style="fill: none; stroke: #000000; stroke-width: 1.25; stroke-linejoin: miter; stroke-linecap: square"/>
   </g>
   <g id="patch_83">
    <path d="M 50.025469 145.8 
L 189.525469 145.8 
" style="fill: none; stroke: #000000; stroke-width: 1.25; stroke-linejoin: miter; stroke-linecap: square"/>
   </g>
   <g id="patch_84">
    <path d="M 50.025469 7.2 
L 189.525469 7.2 
" style="fill: none; stroke: #000000; stroke-width: 1.25; stroke-linejoin: miter; stroke-linecap: square"/>
   </g>
  </g>
 </g>
 <defs>
  <clipPath id="p9a219a9f73">
   <rect x="50.025469" y="7.2" width="139.5" height="138.6"/>
  </clipPath>
 </defs>
</svg>
