<?xml version="1.0" encoding="utf-8" standalone="no"?>
<!DOCTYPE svg PUBLIC "-//W3C//DTD SVG 1.1//EN"
  "http://www.w3.org/Graphics/SVG/1.1/DTD/svg11.dtd">
<svg xmlns:xlink="http://www.w3.org/1999/xlink" width="410.650745pt" height="325.062937pt" viewBox="0 0 410.650745 325.062937" xmlns="http://www.w3.org/2000/svg" version="1.1">
 <metadata>
  <rdf:RDF xmlns:dc="http://purl.org/dc/elements/1.1/" xmlns:cc="http://creativecommons.org/ns#" xmlns:rdf="http://www.w3.org/1999/02/22-rdf-syntax-ns#">
   <cc:Work>
    <dc:type rdf:resource="http://purl.org/dc/dcmitype/StillImage"/>
    <dc:date>2023-10-08T13:25:57.499396</dc:date>
    <dc:format>image/svg+xml</dc:format>
    <dc:creator>
     <cc:Agent>
      <dc:title>Matplotlib v3.6.3, https://matplotlib.org/</dc:title>
     </cc:Agent>
    </dc:creator>
   </cc:Work>
  </rdf:RDF>
 </metadata>
 <defs>
  <style type="text/css">*{stroke-linejoin: round; stroke-linecap: butt}</style>
 </defs>
 <g id="figure_1">
  <g id="patch_1">
   <path d="M 0 325.062937 
L 410.650745 325.062937 
L 410.650745 0 
L 0 0 
L 0 325.062937 
z
" style="fill: none"/>
  </g>
  <g id="axes_1">
   <g id="patch_2">
    <path d="M 45.414063 287.901375 
L 402.534063 287.901375 
L 402.534063 21.789375 
L 45.414063 21.789375 
L 45.414063 287.901375 
z
" style="fill: none"/>
   </g>
   <g id="matplotlib.axis_1">
    <g id="xtick_1">
     <g id="line2d_1">
      <path d="M 52.281755 287.901375 
L 52.281755 21.789375 
" clip-path="url(#pdc95613b56)" style="fill: none; stroke: #ffffff; stroke-linecap: round"/>
     </g>
     <g id="line2d_2">
      <defs>
       <path id="m5c7ff6e09b" d="M 0 0 
L 0 6 
" style="stroke: #000000; stroke-width: 1.25"/>
      </defs>
      <g>
       <use xlink:href="#m5c7ff6e09b" x="52.281755" y="287.901375" style="stroke: #000000; stroke-width: 1.25"/>
      </g>
     </g>
     <g id="text_1">
      <!-- 0.00 -->
      <g transform="translate(44.49738 303.127625) scale(0.08 -0.08)">
       <defs>
        <path id="ArialMT-30" d="M 266 2259 
Q 266 3072 433 3567 
Q 600 4063 929 4331 
Q 1259 4600 1759 4600 
Q 2128 4600 2406 4451 
Q 2684 4303 2865 4023 
Q 3047 3744 3150 3342 
Q 3253 2941 3253 2259 
Q 3253 1453 3087 958 
Q 2922 463 2592 192 
Q 2263 -78 1759 -78 
Q 1097 -78 719 397 
Q 266 969 266 2259 
z
M 844 2259 
Q 844 1131 1108 757 
Q 1372 384 1759 384 
Q 2147 384 2411 759 
Q 2675 1134 2675 2259 
Q 2675 3391 2411 3762 
Q 2147 4134 1753 4134 
Q 1366 4134 1134 3806 
Q 844 3388 844 2259 
z
" transform="scale(0.015625)"/>
        <path id="ArialMT-2e" d="M 581 0 
L 581 641 
L 1222 641 
L 1222 0 
L 581 0 
z
" transform="scale(0.015625)"/>
       </defs>
       <use xlink:href="#ArialMT-30"/>
       <use xlink:href="#ArialMT-2e" x="55.615234"/>
       <use xlink:href="#ArialMT-30" x="83.398438"/>
       <use xlink:href="#ArialMT-30" x="139.013672"/>
      </g>
     </g>
    </g>
    <g id="xtick_2">
     <g id="line2d_3">
      <path d="M 138.127909 287.901375 
L 138.127909 21.789375 
" clip-path="url(#pdc95613b56)" style="fill: none; stroke: #ffffff; stroke-linecap: round"/>
     </g>
     <g id="line2d_4">
      <g>
       <use xlink:href="#m5c7ff6e09b" x="138.127909" y="287.901375" style="stroke: #000000; stroke-width: 1.25"/>
      </g>
     </g>
     <g id="text_2">
      <!-- 0.25 -->
      <g transform="translate(130.343534 303.127625) scale(0.08 -0.08)">
       <defs>
        <path id="ArialMT-32" d="M 3222 541 
L 3222 0 
L 194 0 
Q 188 203 259 391 
Q 375 700 629 1000 
Q 884 1300 1366 1694 
Q 2113 2306 2375 2664 
Q 2638 3022 2638 3341 
Q 2638 3675 2398 3904 
Q 2159 4134 1775 4134 
Q 1369 4134 1125 3890 
Q 881 3647 878 3216 
L 300 3275 
Q 359 3922 746 4261 
Q 1134 4600 1788 4600 
Q 2447 4600 2831 4234 
Q 3216 3869 3216 3328 
Q 3216 3053 3103 2787 
Q 2991 2522 2730 2228 
Q 2469 1934 1863 1422 
Q 1356 997 1212 845 
Q 1069 694 975 541 
L 3222 541 
z
" transform="scale(0.015625)"/>
        <path id="ArialMT-35" d="M 266 1200 
L 856 1250 
Q 922 819 1161 601 
Q 1400 384 1738 384 
Q 2144 384 2425 690 
Q 2706 997 2706 1503 
Q 2706 1984 2436 2262 
Q 2166 2541 1728 2541 
Q 1456 2541 1237 2417 
Q 1019 2294 894 2097 
L 366 2166 
L 809 4519 
L 3088 4519 
L 3088 3981 
L 1259 3981 
L 1013 2750 
Q 1425 3038 1878 3038 
Q 2478 3038 2890 2622 
Q 3303 2206 3303 1553 
Q 3303 931 2941 478 
Q 2500 -78 1738 -78 
Q 1113 -78 717 272 
Q 322 622 266 1200 
z
" transform="scale(0.015625)"/>
       </defs>
       <use xlink:href="#ArialMT-30"/>
       <use xlink:href="#ArialMT-2e" x="55.615234"/>
       <use xlink:href="#ArialMT-32" x="83.398438"/>
       <use xlink:href="#ArialMT-35" x="139.013672"/>
      </g>
     </g>
    </g>
    <g id="xtick_3">
     <g id="line2d_5">
      <path d="M 223.974063 287.901375 
L 223.974063 21.789375 
" clip-path="url(#pdc95613b56)" style="fill: none; stroke: #ffffff; stroke-linecap: round"/>
     </g>
     <g id="line2d_6">
      <g>
       <use xlink:href="#m5c7ff6e09b" x="223.974063" y="287.901375" style="stroke: #000000; stroke-width: 1.25"/>
      </g>
     </g>
     <g id="text_3">
      <!-- 0.50 -->
      <g transform="translate(216.189687 303.127625) scale(0.08 -0.08)">
       <use xlink:href="#ArialMT-30"/>
       <use xlink:href="#ArialMT-2e" x="55.615234"/>
       <use xlink:href="#ArialMT-35" x="83.398438"/>
       <use xlink:href="#ArialMT-30" x="139.013672"/>
      </g>
     </g>
    </g>
    <g id="xtick_4">
     <g id="line2d_7">
      <path d="M 309.820216 287.901375 
L 309.820216 21.789375 
" clip-path="url(#pdc95613b56)" style="fill: none; stroke: #ffffff; stroke-linecap: round"/>
     </g>
     <g id="line2d_8">
      <g>
       <use xlink:href="#m5c7ff6e09b" x="309.820216" y="287.901375" style="stroke: #000000; stroke-width: 1.25"/>
      </g>
     </g>
     <g id="text_4">
      <!-- 0.75 -->
      <g transform="translate(302.035841 303.127625) scale(0.08 -0.08)">
       <defs>
        <path id="ArialMT-37" d="M 303 3981 
L 303 4522 
L 3269 4522 
L 3269 4084 
Q 2831 3619 2401 2847 
Q 1972 2075 1738 1259 
Q 1569 684 1522 0 
L 944 0 
Q 953 541 1156 1306 
Q 1359 2072 1739 2783 
Q 2119 3494 2547 3981 
L 303 3981 
z
" transform="scale(0.015625)"/>
       </defs>
       <use xlink:href="#ArialMT-30"/>
       <use xlink:href="#ArialMT-2e" x="55.615234"/>
       <use xlink:href="#ArialMT-37" x="83.398438"/>
       <use xlink:href="#ArialMT-35" x="139.013672"/>
      </g>
     </g>
    </g>
    <g id="xtick_5">
     <g id="line2d_9">
      <path d="M 395.66637 287.901375 
L 395.66637 21.789375 
" clip-path="url(#pdc95613b56)" style="fill: none; stroke: #ffffff; stroke-linecap: round"/>
     </g>
     <g id="line2d_10">
      <g>
       <use xlink:href="#m5c7ff6e09b" x="395.66637" y="287.901375" style="stroke: #000000; stroke-width: 1.25"/>
      </g>
     </g>
     <g id="text_5">
      <!-- 1.00 -->
      <g transform="translate(387.881995 303.127625) scale(0.08 -0.08)">
       <defs>
        <path id="ArialMT-31" d="M 2384 0 
L 1822 0 
L 1822 3584 
Q 1619 3391 1289 3197 
Q 959 3003 697 2906 
L 697 3450 
Q 1169 3672 1522 3987 
Q 1875 4303 2022 4600 
L 2384 4600 
L 2384 0 
z
" transform="scale(0.015625)"/>
       </defs>
       <use xlink:href="#ArialMT-31"/>
       <use xlink:href="#ArialMT-2e" x="55.615234"/>
       <use xlink:href="#ArialMT-30" x="83.398438"/>
       <use xlink:href="#ArialMT-30" x="139.013672"/>
      </g>
     </g>
    </g>
    <g id="text_6">
     <!-- Normalized Experimental RLU -->
     <g transform="translate(156.731094 315.875437) scale(0.1 -0.1)">
      <defs>
       <path id="ArialMT-4e" d="M 488 0 
L 488 4581 
L 1109 4581 
L 3516 984 
L 3516 4581 
L 4097 4581 
L 4097 0 
L 3475 0 
L 1069 3600 
L 1069 0 
L 488 0 
z
" transform="scale(0.015625)"/>
       <path id="ArialMT-6f" d="M 213 1659 
Q 213 2581 725 3025 
Q 1153 3394 1769 3394 
Q 2453 3394 2887 2945 
Q 3322 2497 3322 1706 
Q 3322 1066 3130 698 
Q 2938 331 2570 128 
Q 2203 -75 1769 -75 
Q 1072 -75 642 372 
Q 213 819 213 1659 
z
M 791 1659 
Q 791 1022 1069 705 
Q 1347 388 1769 388 
Q 2188 388 2466 706 
Q 2744 1025 2744 1678 
Q 2744 2294 2464 2611 
Q 2184 2928 1769 2928 
Q 1347 2928 1069 2612 
Q 791 2297 791 1659 
z
" transform="scale(0.015625)"/>
       <path id="ArialMT-72" d="M 416 0 
L 416 3319 
L 922 3319 
L 922 2816 
Q 1116 3169 1280 3281 
Q 1444 3394 1641 3394 
Q 1925 3394 2219 3213 
L 2025 2691 
Q 1819 2813 1613 2813 
Q 1428 2813 1281 2702 
Q 1134 2591 1072 2394 
Q 978 2094 978 1738 
L 978 0 
L 416 0 
z
" transform="scale(0.015625)"/>
       <path id="ArialMT-6d" d="M 422 0 
L 422 3319 
L 925 3319 
L 925 2853 
Q 1081 3097 1340 3245 
Q 1600 3394 1931 3394 
Q 2300 3394 2536 3241 
Q 2772 3088 2869 2813 
Q 3263 3394 3894 3394 
Q 4388 3394 4653 3120 
Q 4919 2847 4919 2278 
L 4919 0 
L 4359 0 
L 4359 2091 
Q 4359 2428 4304 2576 
Q 4250 2725 4106 2815 
Q 3963 2906 3769 2906 
Q 3419 2906 3187 2673 
Q 2956 2441 2956 1928 
L 2956 0 
L 2394 0 
L 2394 2156 
Q 2394 2531 2256 2718 
Q 2119 2906 1806 2906 
Q 1569 2906 1367 2781 
Q 1166 2656 1075 2415 
Q 984 2175 984 1722 
L 984 0 
L 422 0 
z
" transform="scale(0.015625)"/>
       <path id="ArialMT-61" d="M 2588 409 
Q 2275 144 1986 34 
Q 1697 -75 1366 -75 
Q 819 -75 525 192 
Q 231 459 231 875 
Q 231 1119 342 1320 
Q 453 1522 633 1644 
Q 813 1766 1038 1828 
Q 1203 1872 1538 1913 
Q 2219 1994 2541 2106 
Q 2544 2222 2544 2253 
Q 2544 2597 2384 2738 
Q 2169 2928 1744 2928 
Q 1347 2928 1158 2789 
Q 969 2650 878 2297 
L 328 2372 
Q 403 2725 575 2942 
Q 747 3159 1072 3276 
Q 1397 3394 1825 3394 
Q 2250 3394 2515 3294 
Q 2781 3194 2906 3042 
Q 3031 2891 3081 2659 
Q 3109 2516 3109 2141 
L 3109 1391 
Q 3109 606 3145 398 
Q 3181 191 3288 0 
L 2700 0 
Q 2613 175 2588 409 
z
M 2541 1666 
Q 2234 1541 1622 1453 
Q 1275 1403 1131 1340 
Q 988 1278 909 1158 
Q 831 1038 831 891 
Q 831 666 1001 516 
Q 1172 366 1500 366 
Q 1825 366 2078 508 
Q 2331 650 2450 897 
Q 2541 1088 2541 1459 
L 2541 1666 
z
" transform="scale(0.015625)"/>
       <path id="ArialMT-6c" d="M 409 0 
L 409 4581 
L 972 4581 
L 972 0 
L 409 0 
z
" transform="scale(0.015625)"/>
       <path id="ArialMT-69" d="M 425 3934 
L 425 4581 
L 988 4581 
L 988 3934 
L 425 3934 
z
M 425 0 
L 425 3319 
L 988 3319 
L 988 0 
L 425 0 
z
" transform="scale(0.015625)"/>
       <path id="ArialMT-7a" d="M 125 0 
L 125 456 
L 2238 2881 
Q 1878 2863 1603 2863 
L 250 2863 
L 250 3319 
L 2963 3319 
L 2963 2947 
L 1166 841 
L 819 456 
Q 1197 484 1528 484 
L 3063 484 
L 3063 0 
L 125 0 
z
" transform="scale(0.015625)"/>
       <path id="ArialMT-65" d="M 2694 1069 
L 3275 997 
Q 3138 488 2766 206 
Q 2394 -75 1816 -75 
Q 1088 -75 661 373 
Q 234 822 234 1631 
Q 234 2469 665 2931 
Q 1097 3394 1784 3394 
Q 2450 3394 2872 2941 
Q 3294 2488 3294 1666 
Q 3294 1616 3291 1516 
L 816 1516 
Q 847 969 1125 678 
Q 1403 388 1819 388 
Q 2128 388 2347 550 
Q 2566 713 2694 1069 
z
M 847 1978 
L 2700 1978 
Q 2663 2397 2488 2606 
Q 2219 2931 1791 2931 
Q 1403 2931 1139 2672 
Q 875 2413 847 1978 
z
" transform="scale(0.015625)"/>
       <path id="ArialMT-64" d="M 2575 0 
L 2575 419 
Q 2259 -75 1647 -75 
Q 1250 -75 917 144 
Q 584 363 401 755 
Q 219 1147 219 1656 
Q 219 2153 384 2558 
Q 550 2963 881 3178 
Q 1213 3394 1622 3394 
Q 1922 3394 2156 3267 
Q 2391 3141 2538 2938 
L 2538 4581 
L 3097 4581 
L 3097 0 
L 2575 0 
z
M 797 1656 
Q 797 1019 1065 703 
Q 1334 388 1700 388 
Q 2069 388 2326 689 
Q 2584 991 2584 1609 
Q 2584 2291 2321 2609 
Q 2059 2928 1675 2928 
Q 1300 2928 1048 2622 
Q 797 2316 797 1656 
z
" transform="scale(0.015625)"/>
       <path id="ArialMT-20" transform="scale(0.015625)"/>
       <path id="ArialMT-45" d="M 506 0 
L 506 4581 
L 3819 4581 
L 3819 4041 
L 1113 4041 
L 1113 2638 
L 3647 2638 
L 3647 2100 
L 1113 2100 
L 1113 541 
L 3925 541 
L 3925 0 
L 506 0 
z
" transform="scale(0.015625)"/>
       <path id="ArialMT-78" d="M 47 0 
L 1259 1725 
L 138 3319 
L 841 3319 
L 1350 2541 
Q 1494 2319 1581 2169 
Q 1719 2375 1834 2534 
L 2394 3319 
L 3066 3319 
L 1919 1756 
L 3153 0 
L 2463 0 
L 1781 1031 
L 1600 1309 
L 728 0 
L 47 0 
z
" transform="scale(0.015625)"/>
       <path id="ArialMT-70" d="M 422 -1272 
L 422 3319 
L 934 3319 
L 934 2888 
Q 1116 3141 1344 3267 
Q 1572 3394 1897 3394 
Q 2322 3394 2647 3175 
Q 2972 2956 3137 2557 
Q 3303 2159 3303 1684 
Q 3303 1175 3120 767 
Q 2938 359 2589 142 
Q 2241 -75 1856 -75 
Q 1575 -75 1351 44 
Q 1128 163 984 344 
L 984 -1272 
L 422 -1272 
z
M 931 1641 
Q 931 1000 1190 694 
Q 1450 388 1819 388 
Q 2194 388 2461 705 
Q 2728 1022 2728 1688 
Q 2728 2322 2467 2637 
Q 2206 2953 1844 2953 
Q 1484 2953 1207 2617 
Q 931 2281 931 1641 
z
" transform="scale(0.015625)"/>
       <path id="ArialMT-6e" d="M 422 0 
L 422 3319 
L 928 3319 
L 928 2847 
Q 1294 3394 1984 3394 
Q 2284 3394 2536 3286 
Q 2788 3178 2913 3003 
Q 3038 2828 3088 2588 
Q 3119 2431 3119 2041 
L 3119 0 
L 2556 0 
L 2556 2019 
Q 2556 2363 2490 2533 
Q 2425 2703 2258 2804 
Q 2091 2906 1866 2906 
Q 1506 2906 1245 2678 
Q 984 2450 984 1813 
L 984 0 
L 422 0 
z
" transform="scale(0.015625)"/>
       <path id="ArialMT-74" d="M 1650 503 
L 1731 6 
Q 1494 -44 1306 -44 
Q 1000 -44 831 53 
Q 663 150 594 308 
Q 525 466 525 972 
L 525 2881 
L 113 2881 
L 113 3319 
L 525 3319 
L 525 4141 
L 1084 4478 
L 1084 3319 
L 1650 3319 
L 1650 2881 
L 1084 2881 
L 1084 941 
Q 1084 700 1114 631 
Q 1144 563 1211 522 
Q 1278 481 1403 481 
Q 1497 481 1650 503 
z
" transform="scale(0.015625)"/>
       <path id="ArialMT-52" d="M 503 0 
L 503 4581 
L 2534 4581 
Q 3147 4581 3465 4457 
Q 3784 4334 3975 4021 
Q 4166 3709 4166 3331 
Q 4166 2844 3850 2509 
Q 3534 2175 2875 2084 
Q 3116 1969 3241 1856 
Q 3506 1613 3744 1247 
L 4541 0 
L 3778 0 
L 3172 953 
Q 2906 1366 2734 1584 
Q 2563 1803 2427 1890 
Q 2291 1978 2150 2013 
Q 2047 2034 1813 2034 
L 1109 2034 
L 1109 0 
L 503 0 
z
M 1109 2559 
L 2413 2559 
Q 2828 2559 3062 2645 
Q 3297 2731 3419 2920 
Q 3541 3109 3541 3331 
Q 3541 3656 3305 3865 
Q 3069 4075 2559 4075 
L 1109 4075 
L 1109 2559 
z
" transform="scale(0.015625)"/>
       <path id="ArialMT-4c" d="M 469 0 
L 469 4581 
L 1075 4581 
L 1075 541 
L 3331 541 
L 3331 0 
L 469 0 
z
" transform="scale(0.015625)"/>
       <path id="ArialMT-55" d="M 3500 4581 
L 4106 4581 
L 4106 1934 
Q 4106 1244 3950 837 
Q 3794 431 3386 176 
Q 2978 -78 2316 -78 
Q 1672 -78 1262 144 
Q 853 366 678 786 
Q 503 1206 503 1934 
L 503 4581 
L 1109 4581 
L 1109 1938 
Q 1109 1341 1220 1058 
Q 1331 775 1601 622 
Q 1872 469 2263 469 
Q 2931 469 3215 772 
Q 3500 1075 3500 1938 
L 3500 4581 
z
" transform="scale(0.015625)"/>
      </defs>
      <use xlink:href="#ArialMT-4e"/>
      <use xlink:href="#ArialMT-6f" x="72.216797"/>
      <use xlink:href="#ArialMT-72" x="127.832031"/>
      <use xlink:href="#ArialMT-6d" x="161.132812"/>
      <use xlink:href="#ArialMT-61" x="244.433594"/>
      <use xlink:href="#ArialMT-6c" x="300.048828"/>
      <use xlink:href="#ArialMT-69" x="322.265625"/>
      <use xlink:href="#ArialMT-7a" x="344.482422"/>
      <use xlink:href="#ArialMT-65" x="394.482422"/>
      <use xlink:href="#ArialMT-64" x="450.097656"/>
      <use xlink:href="#ArialMT-20" x="505.712891"/>
      <use xlink:href="#ArialMT-45" x="533.496094"/>
      <use xlink:href="#ArialMT-78" x="600.195312"/>
      <use xlink:href="#ArialMT-70" x="650.195312"/>
      <use xlink:href="#ArialMT-65" x="705.810547"/>
      <use xlink:href="#ArialMT-72" x="761.425781"/>
      <use xlink:href="#ArialMT-69" x="794.726562"/>
      <use xlink:href="#ArialMT-6d" x="816.943359"/>
      <use xlink:href="#ArialMT-65" x="900.244141"/>
      <use xlink:href="#ArialMT-6e" x="955.859375"/>
      <use xlink:href="#ArialMT-74" x="1011.474609"/>
      <use xlink:href="#ArialMT-61" x="1039.257812"/>
      <use xlink:href="#ArialMT-6c" x="1094.873047"/>
      <use xlink:href="#ArialMT-20" x="1117.089844"/>
      <use xlink:href="#ArialMT-52" x="1144.873047"/>
      <use xlink:href="#ArialMT-4c" x="1217.089844"/>
      <use xlink:href="#ArialMT-55" x="1272.705078"/>
     </g>
    </g>
   </g>
   <g id="matplotlib.axis_2">
    <g id="ytick_1">
     <g id="line2d_11">
      <path d="M 45.414063 282.783837 
L 402.534063 282.783837 
" clip-path="url(#pdc95613b56)" style="fill: none; stroke: #ffffff; stroke-linecap: round"/>
     </g>
     <g id="line2d_12">
      <defs>
       <path id="mdb226dbe93" d="M 0 0 
L -6 0 
" style="stroke: #000000; stroke-width: 1.25"/>
      </defs>
      <g>
       <use xlink:href="#mdb226dbe93" x="45.414063" y="282.783837" style="stroke: #000000; stroke-width: 1.25"/>
      </g>
     </g>
     <g id="text_7">
      <!-- 0.00 -->
      <g transform="translate(20.345313 285.646962) scale(0.08 -0.08)">
       <use xlink:href="#ArialMT-30"/>
       <use xlink:href="#ArialMT-2e" x="55.615234"/>
       <use xlink:href="#ArialMT-30" x="83.398438"/>
       <use xlink:href="#ArialMT-30" x="139.013672"/>
      </g>
     </g>
    </g>
    <g id="ytick_2">
     <g id="line2d_13">
      <path d="M 45.414063 218.814606 
L 402.534063 218.814606 
" clip-path="url(#pdc95613b56)" style="fill: none; stroke: #ffffff; stroke-linecap: round"/>
     </g>
     <g id="line2d_14">
      <g>
       <use xlink:href="#mdb226dbe93" x="45.414063" y="218.814606" style="stroke: #000000; stroke-width: 1.25"/>
      </g>
     </g>
     <g id="text_8">
      <!-- 0.25 -->
      <g transform="translate(20.345313 221.677731) scale(0.08 -0.08)">
       <use xlink:href="#ArialMT-30"/>
       <use xlink:href="#ArialMT-2e" x="55.615234"/>
       <use xlink:href="#ArialMT-32" x="83.398438"/>
       <use xlink:href="#ArialMT-35" x="139.013672"/>
      </g>
     </g>
    </g>
    <g id="ytick_3">
     <g id="line2d_15">
      <path d="M 45.414063 154.845375 
L 402.534063 154.845375 
" clip-path="url(#pdc95613b56)" style="fill: none; stroke: #ffffff; stroke-linecap: round"/>
     </g>
     <g id="line2d_16">
      <g>
       <use xlink:href="#mdb226dbe93" x="45.414063" y="154.845375" style="stroke: #000000; stroke-width: 1.25"/>
      </g>
     </g>
     <g id="text_9">
      <!-- 0.50 -->
      <g transform="translate(20.345313 157.7085) scale(0.08 -0.08)">
       <use xlink:href="#ArialMT-30"/>
       <use xlink:href="#ArialMT-2e" x="55.615234"/>
       <use xlink:href="#ArialMT-35" x="83.398438"/>
       <use xlink:href="#ArialMT-30" x="139.013672"/>
      </g>
     </g>
    </g>
    <g id="ytick_4">
     <g id="line2d_17">
      <path d="M 45.414063 90.876144 
L 402.534063 90.876144 
" clip-path="url(#pdc95613b56)" style="fill: none; stroke: #ffffff; stroke-linecap: round"/>
     </g>
     <g id="line2d_18">
      <g>
       <use xlink:href="#mdb226dbe93" x="45.414063" y="90.876144" style="stroke: #000000; stroke-width: 1.25"/>
      </g>
     </g>
     <g id="text_10">
      <!-- 0.75 -->
      <g transform="translate(20.345313 93.739269) scale(0.08 -0.08)">
       <use xlink:href="#ArialMT-30"/>
       <use xlink:href="#ArialMT-2e" x="55.615234"/>
       <use xlink:href="#ArialMT-37" x="83.398438"/>
       <use xlink:href="#ArialMT-35" x="139.013672"/>
      </g>
     </g>
    </g>
    <g id="ytick_5">
     <g id="line2d_19">
      <path d="M 45.414063 26.906913 
L 402.534063 26.906913 
" clip-path="url(#pdc95613b56)" style="fill: none; stroke: #ffffff; stroke-linecap: round"/>
     </g>
     <g id="line2d_20">
      <g>
       <use xlink:href="#mdb226dbe93" x="45.414063" y="26.906913" style="stroke: #000000; stroke-width: 1.25"/>
      </g>
     </g>
     <g id="text_11">
      <!-- 1.00 -->
      <g transform="translate(20.345313 29.770038) scale(0.08 -0.08)">
       <use xlink:href="#ArialMT-31"/>
       <use xlink:href="#ArialMT-2e" x="55.615234"/>
       <use xlink:href="#ArialMT-30" x="83.398438"/>
       <use xlink:href="#ArialMT-30" x="139.013672"/>
      </g>
     </g>
    </g>
    <g id="text_12">
     <!-- Normalized Predicted RLU -->
     <g transform="translate(14.357813 214.032094) rotate(-90) scale(0.1 -0.1)">
      <defs>
       <path id="ArialMT-50" d="M 494 0 
L 494 4581 
L 2222 4581 
Q 2678 4581 2919 4538 
Q 3256 4481 3484 4323 
Q 3713 4166 3852 3881 
Q 3991 3597 3991 3256 
Q 3991 2672 3619 2267 
Q 3247 1863 2275 1863 
L 1100 1863 
L 1100 0 
L 494 0 
z
M 1100 2403 
L 2284 2403 
Q 2872 2403 3119 2622 
Q 3366 2841 3366 3238 
Q 3366 3525 3220 3729 
Q 3075 3934 2838 4000 
Q 2684 4041 2272 4041 
L 1100 4041 
L 1100 2403 
z
" transform="scale(0.015625)"/>
       <path id="ArialMT-63" d="M 2588 1216 
L 3141 1144 
Q 3050 572 2676 248 
Q 2303 -75 1759 -75 
Q 1078 -75 664 370 
Q 250 816 250 1647 
Q 250 2184 428 2587 
Q 606 2991 970 3192 
Q 1334 3394 1763 3394 
Q 2303 3394 2647 3120 
Q 2991 2847 3088 2344 
L 2541 2259 
Q 2463 2594 2264 2762 
Q 2066 2931 1784 2931 
Q 1359 2931 1093 2626 
Q 828 2322 828 1663 
Q 828 994 1084 691 
Q 1341 388 1753 388 
Q 2084 388 2306 591 
Q 2528 794 2588 1216 
z
" transform="scale(0.015625)"/>
      </defs>
      <use xlink:href="#ArialMT-4e"/>
      <use xlink:href="#ArialMT-6f" x="72.216797"/>
      <use xlink:href="#ArialMT-72" x="127.832031"/>
      <use xlink:href="#ArialMT-6d" x="161.132812"/>
      <use xlink:href="#ArialMT-61" x="244.433594"/>
      <use xlink:href="#ArialMT-6c" x="300.048828"/>
      <use xlink:href="#ArialMT-69" x="322.265625"/>
      <use xlink:href="#ArialMT-7a" x="344.482422"/>
      <use xlink:href="#ArialMT-65" x="394.482422"/>
      <use xlink:href="#ArialMT-64" x="450.097656"/>
      <use xlink:href="#ArialMT-20" x="505.712891"/>
      <use xlink:href="#ArialMT-50" x="533.496094"/>
      <use xlink:href="#ArialMT-72" x="600.195312"/>
      <use xlink:href="#ArialMT-65" x="633.496094"/>
      <use xlink:href="#ArialMT-64" x="689.111328"/>
      <use xlink:href="#ArialMT-69" x="744.726562"/>
      <use xlink:href="#ArialMT-63" x="766.943359"/>
      <use xlink:href="#ArialMT-74" x="816.943359"/>
      <use xlink:href="#ArialMT-65" x="844.726562"/>
      <use xlink:href="#ArialMT-64" x="900.341797"/>
      <use xlink:href="#ArialMT-20" x="955.957031"/>
      <use xlink:href="#ArialMT-52" x="983.740234"/>
      <use xlink:href="#ArialMT-4c" x="1055.957031"/>
      <use xlink:href="#ArialMT-55" x="1111.572266"/>
     </g>
    </g>
   </g>
   <g id="PathCollection_1">
    <defs>
     <path id="m5940bab8cc" d="M 0 3 
C 0.795609 3 1.55874 2.683901 2.12132 2.12132 
C 2.683901 1.55874 3 0.795609 3 0 
C 3 -0.795609 2.683901 -1.55874 2.12132 -2.12132 
C 1.55874 -2.683901 0.795609 -3 0 -3 
C -0.795609 -3 -1.55874 -2.683901 -2.12132 -2.12132 
C -2.683901 -1.55874 -3 -0.795609 -3 0 
C -3 0.795609 -2.683901 1.55874 -2.12132 2.12132 
C -1.55874 2.683901 -0.795609 3 0 3 
z
" style="stroke: #1a1a1a; stroke-opacity: 0.8"/>
    </defs>
    <g clip-path="url(#pdc95613b56)">
     <use xlink:href="#m5940bab8cc" x="198.213291" y="242.307903" style="fill: #1a1a1a; fill-opacity: 0.8; stroke: #1a1a1a; stroke-opacity: 0.8"/>
     <use xlink:href="#m5940bab8cc" x="123.054626" y="245.493586" style="fill: #1a1a1a; fill-opacity: 0.8; stroke: #1a1a1a; stroke-opacity: 0.8"/>
     <use xlink:href="#m5940bab8cc" x="124.48578" y="238.003882" style="fill: #1a1a1a; fill-opacity: 0.8; stroke: #1a1a1a; stroke-opacity: 0.8"/>
     <use xlink:href="#m5940bab8cc" x="73.79523" y="249.925441" style="fill: #1a1a1a; fill-opacity: 0.8; stroke: #1a1a1a; stroke-opacity: 0.8"/>
     <use xlink:href="#m5940bab8cc" x="117.791673" y="246.956893" style="fill: #1a1a1a; fill-opacity: 0.8; stroke: #1a1a1a; stroke-opacity: 0.8"/>
     <use xlink:href="#m5940bab8cc" x="155.786502" y="205.047845" style="fill: #1a1a1a; fill-opacity: 0.8; stroke: #1a1a1a; stroke-opacity: 0.8"/>
     <use xlink:href="#m5940bab8cc" x="119.407492" y="210.294739" style="fill: #1a1a1a; fill-opacity: 0.8; stroke: #1a1a1a; stroke-opacity: 0.8"/>
     <use xlink:href="#m5940bab8cc" x="147.522742" y="200.152425" style="fill: #1a1a1a; fill-opacity: 0.8; stroke: #1a1a1a; stroke-opacity: 0.8"/>
     <use xlink:href="#m5940bab8cc" x="153.755186" y="206.874688" style="fill: #1a1a1a; fill-opacity: 0.8; stroke: #1a1a1a; stroke-opacity: 0.8"/>
     <use xlink:href="#m5940bab8cc" x="202.829917" y="198.393668" style="fill: #1a1a1a; fill-opacity: 0.8; stroke: #1a1a1a; stroke-opacity: 0.8"/>
     <use xlink:href="#m5940bab8cc" x="52.281755" y="196.566385" style="fill: #1a1a1a; fill-opacity: 0.8; stroke: #1a1a1a; stroke-opacity: 0.8"/>
     <use xlink:href="#m5940bab8cc" x="52.281755" y="206.95168" style="fill: #1a1a1a; fill-opacity: 0.8; stroke: #1a1a1a; stroke-opacity: 0.8"/>
     <use xlink:href="#m5940bab8cc" x="52.281755" y="199.868749" style="fill: #1a1a1a; fill-opacity: 0.8; stroke: #1a1a1a; stroke-opacity: 0.8"/>
     <use xlink:href="#m5940bab8cc" x="52.281755" y="200.445051" style="fill: #1a1a1a; fill-opacity: 0.8; stroke: #1a1a1a; stroke-opacity: 0.8"/>
     <use xlink:href="#m5940bab8cc" x="52.281755" y="195.685741" style="fill: #1a1a1a; fill-opacity: 0.8; stroke: #1a1a1a; stroke-opacity: 0.8"/>
     <use xlink:href="#m5940bab8cc" x="52.281755" y="193.304367" style="fill: #1a1a1a; fill-opacity: 0.8; stroke: #1a1a1a; stroke-opacity: 0.8"/>
     <use xlink:href="#m5940bab8cc" x="52.281755" y="196.907848" style="fill: #1a1a1a; fill-opacity: 0.8; stroke: #1a1a1a; stroke-opacity: 0.8"/>
     <use xlink:href="#m5940bab8cc" x="150.615881" y="255.802119" style="fill: #1a1a1a; fill-opacity: 0.8; stroke: #1a1a1a; stroke-opacity: 0.8"/>
     <use xlink:href="#m5940bab8cc" x="124.993609" y="250.294978" style="fill: #1a1a1a; fill-opacity: 0.8; stroke: #1a1a1a; stroke-opacity: 0.8"/>
     <use xlink:href="#m5940bab8cc" x="122.038968" y="248.430274" style="fill: #1a1a1a; fill-opacity: 0.8; stroke: #1a1a1a; stroke-opacity: 0.8"/>
     <use xlink:href="#m5940bab8cc" x="152.2317" y="240.444381" style="fill: #1a1a1a; fill-opacity: 0.8; stroke: #1a1a1a; stroke-opacity: 0.8"/>
     <use xlink:href="#m5940bab8cc" x="132.426376" y="231.020585" style="fill: #1a1a1a; fill-opacity: 0.8; stroke: #1a1a1a; stroke-opacity: 0.8"/>
     <use xlink:href="#m5940bab8cc" x="52.281755" y="235.821974" style="fill: #1a1a1a; fill-opacity: 0.8; stroke: #1a1a1a; stroke-opacity: 0.8"/>
     <use xlink:href="#m5940bab8cc" x="52.281755" y="235.634094" style="fill: #1a1a1a; fill-opacity: 0.8; stroke: #1a1a1a; stroke-opacity: 0.8"/>
     <use xlink:href="#m5940bab8cc" x="52.281755" y="233.456956" style="fill: #1a1a1a; fill-opacity: 0.8; stroke: #1a1a1a; stroke-opacity: 0.8"/>
     <use xlink:href="#m5940bab8cc" x="52.281755" y="285.048854" style="fill: #1a1a1a; fill-opacity: 0.8; stroke: #1a1a1a; stroke-opacity: 0.8"/>
     <use xlink:href="#m5940bab8cc" x="75.226384" y="289.522667" style="fill: #1a1a1a; fill-opacity: 0.8; stroke: #1a1a1a; stroke-opacity: 0.8"/>
     <use xlink:href="#m5940bab8cc" x="52.281755" y="281.702297" style="fill: #1a1a1a; fill-opacity: 0.8; stroke: #1a1a1a; stroke-opacity: 0.8"/>
     <use xlink:href="#m5940bab8cc" x="127.763584" y="285.286809" style="fill: #1a1a1a; fill-opacity: 0.8; stroke: #1a1a1a; stroke-opacity: 0.8"/>
     <use xlink:href="#m5940bab8cc" x="52.281755" y="248.368452" style="fill: #1a1a1a; fill-opacity: 0.8; stroke: #1a1a1a; stroke-opacity: 0.8"/>
     <use xlink:href="#m5940bab8cc" x="52.281755" y="255.942022" style="fill: #1a1a1a; fill-opacity: 0.8; stroke: #1a1a1a; stroke-opacity: 0.8"/>
     <use xlink:href="#m5940bab8cc" x="95.308706" y="248.773126" style="fill: #1a1a1a; fill-opacity: 0.8; stroke: #1a1a1a; stroke-opacity: 0.8"/>
     <use xlink:href="#m5940bab8cc" x="52.281755" y="237.622871" style="fill: #1a1a1a; fill-opacity: 0.8; stroke: #1a1a1a; stroke-opacity: 0.8"/>
     <use xlink:href="#m5940bab8cc" x="52.281755" y="245.169184" style="fill: #1a1a1a; fill-opacity: 0.8; stroke: #1a1a1a; stroke-opacity: 0.8"/>
     <use xlink:href="#m5940bab8cc" x="144.475769" y="232.585299" style="fill: #1a1a1a; fill-opacity: 0.8; stroke: #1a1a1a; stroke-opacity: 0.8"/>
     <use xlink:href="#m5940bab8cc" x="52.281755" y="235.846588" style="fill: #1a1a1a; fill-opacity: 0.8; stroke: #1a1a1a; stroke-opacity: 0.8"/>
     <use xlink:href="#m5940bab8cc" x="52.281755" y="234.030121" style="fill: #1a1a1a; fill-opacity: 0.8; stroke: #1a1a1a; stroke-opacity: 0.8"/>
     <use xlink:href="#m5940bab8cc" x="193.088837" y="208.740501" style="fill: #1a1a1a; fill-opacity: 0.8; stroke: #1a1a1a; stroke-opacity: 0.8"/>
     <use xlink:href="#m5940bab8cc" x="165.019753" y="205.511004" style="fill: #1a1a1a; fill-opacity: 0.8; stroke: #1a1a1a; stroke-opacity: 0.8"/>
     <use xlink:href="#m5940bab8cc" x="129.933398" y="204.337993" style="fill: #1a1a1a; fill-opacity: 0.8; stroke: #1a1a1a; stroke-opacity: 0.8"/>
     <use xlink:href="#m5940bab8cc" x="52.281755" y="207.475408" style="fill: #1a1a1a; fill-opacity: 0.8; stroke: #1a1a1a; stroke-opacity: 0.8"/>
     <use xlink:href="#m5940bab8cc" x="160.633959" y="180.339152" style="fill: #1a1a1a; fill-opacity: 0.8; stroke: #1a1a1a; stroke-opacity: 0.8"/>
     <use xlink:href="#m5940bab8cc" x="142.582952" y="171.217622" style="fill: #1a1a1a; fill-opacity: 0.8; stroke: #1a1a1a; stroke-opacity: 0.8"/>
     <use xlink:href="#m5940bab8cc" x="198.213291" y="157.95012" style="fill: #1a1a1a; fill-opacity: 0.8; stroke: #1a1a1a; stroke-opacity: 0.8"/>
     <use xlink:href="#m5940bab8cc" x="178.454134" y="243.337362" style="fill: #1a1a1a; fill-opacity: 0.8; stroke: #1a1a1a; stroke-opacity: 0.8"/>
     <use xlink:href="#m5940bab8cc" x="138.150992" y="239.86103" style="fill: #1a1a1a; fill-opacity: 0.8; stroke: #1a1a1a; stroke-opacity: 0.8"/>
     <use xlink:href="#m5940bab8cc" x="93.462056" y="241.396987" style="fill: #1a1a1a; fill-opacity: 0.8; stroke: #1a1a1a; stroke-opacity: 0.8"/>
     <use xlink:href="#m5940bab8cc" x="173.929841" y="220.30731" style="fill: #1a1a1a; fill-opacity: 0.8; stroke: #1a1a1a; stroke-opacity: 0.8"/>
     <use xlink:href="#m5940bab8cc" x="145.722258" y="217.568165" style="fill: #1a1a1a; fill-opacity: 0.8; stroke: #1a1a1a; stroke-opacity: 0.8"/>
     <use xlink:href="#m5940bab8cc" x="119.961487" y="216.597217" style="fill: #1a1a1a; fill-opacity: 0.8; stroke: #1a1a1a; stroke-opacity: 0.8"/>
     <use xlink:href="#m5940bab8cc" x="191.980847" y="207.767875" style="fill: #1a1a1a; fill-opacity: 0.8; stroke: #1a1a1a; stroke-opacity: 0.8"/>
     <use xlink:href="#m5940bab8cc" x="219.772933" y="194.958562" style="fill: #1a1a1a; fill-opacity: 0.8; stroke: #1a1a1a; stroke-opacity: 0.8"/>
     <use xlink:href="#m5940bab8cc" x="184.871243" y="201.043742" style="fill: #1a1a1a; fill-opacity: 0.8; stroke: #1a1a1a; stroke-opacity: 0.8"/>
     <use xlink:href="#m5940bab8cc" x="369.443937" y="193.259994" style="fill: #1a1a1a; fill-opacity: 0.8; stroke: #1a1a1a; stroke-opacity: 0.8"/>
     <use xlink:href="#m5940bab8cc" x="385.417461" y="190.257134" style="fill: #1a1a1a; fill-opacity: 0.8; stroke: #1a1a1a; stroke-opacity: 0.8"/>
     <use xlink:href="#m5940bab8cc" x="395.66637" y="188.741821" style="fill: #1a1a1a; fill-opacity: 0.8; stroke: #1a1a1a; stroke-opacity: 0.8"/>
     <use xlink:href="#m5940bab8cc" x="97.063024" y="253.846756" style="fill: #1a1a1a; fill-opacity: 0.8; stroke: #1a1a1a; stroke-opacity: 0.8"/>
     <use xlink:href="#m5940bab8cc" x="52.281755" y="230.326386" style="fill: #1a1a1a; fill-opacity: 0.8; stroke: #1a1a1a; stroke-opacity: 0.8"/>
     <use xlink:href="#m5940bab8cc" x="52.281755" y="228.43069" style="fill: #1a1a1a; fill-opacity: 0.8; stroke: #1a1a1a; stroke-opacity: 0.8"/>
     <use xlink:href="#m5940bab8cc" x="52.281755" y="248.525499" style="fill: #1a1a1a; fill-opacity: 0.8; stroke: #1a1a1a; stroke-opacity: 0.8"/>
     <use xlink:href="#m5940bab8cc" x="70.794424" y="215.121564" style="fill: #1a1a1a; fill-opacity: 0.8; stroke: #1a1a1a; stroke-opacity: 0.8"/>
     <use xlink:href="#m5940bab8cc" x="104.311126" y="205.558618" style="fill: #1a1a1a; fill-opacity: 0.8; stroke: #1a1a1a; stroke-opacity: 0.8"/>
     <use xlink:href="#m5940bab8cc" x="119.961487" y="205.091469" style="fill: #1a1a1a; fill-opacity: 0.8; stroke: #1a1a1a; stroke-opacity: 0.8"/>
     <use xlink:href="#m5940bab8cc" x="165.019753" y="207.513246" style="fill: #1a1a1a; fill-opacity: 0.8; stroke: #1a1a1a; stroke-opacity: 0.8"/>
     <use xlink:href="#m5940bab8cc" x="79.242849" y="206.194533" style="fill: #1a1a1a; fill-opacity: 0.8; stroke: #1a1a1a; stroke-opacity: 0.8"/>
     <use xlink:href="#m5940bab8cc" x="132.426376" y="232.954362" style="fill: #1a1a1a; fill-opacity: 0.8; stroke: #1a1a1a; stroke-opacity: 0.8"/>
     <use xlink:href="#m5940bab8cc" x="157.91015" y="186.23084" style="fill: #1a1a1a; fill-opacity: 0.8; stroke: #1a1a1a; stroke-opacity: 0.8"/>
     <use xlink:href="#m5940bab8cc" x="170.328873" y="178.173268" style="fill: #1a1a1a; fill-opacity: 0.8; stroke: #1a1a1a; stroke-opacity: 0.8"/>
     <use xlink:href="#m5940bab8cc" x="159.7568" y="162.915802" style="fill: #1a1a1a; fill-opacity: 0.8; stroke: #1a1a1a; stroke-opacity: 0.8"/>
     <use xlink:href="#m5940bab8cc" x="177.576975" y="177.653495" style="fill: #1a1a1a; fill-opacity: 0.8; stroke: #1a1a1a; stroke-opacity: 0.8"/>
     <use xlink:href="#m5940bab8cc" x="155.786502" y="169.956294" style="fill: #1a1a1a; fill-opacity: 0.8; stroke: #1a1a1a; stroke-opacity: 0.8"/>
     <use xlink:href="#m5940bab8cc" x="92.492564" y="167.129276" style="fill: #1a1a1a; fill-opacity: 0.8; stroke: #1a1a1a; stroke-opacity: 0.8"/>
     <use xlink:href="#m5940bab8cc" x="58.514199" y="168.906306" style="fill: #1a1a1a; fill-opacity: 0.8; stroke: #1a1a1a; stroke-opacity: 0.8"/>
     <use xlink:href="#m5940bab8cc" x="289.622479" y="151.84828" style="fill: #1a1a1a; fill-opacity: 0.8; stroke: #1a1a1a; stroke-opacity: 0.8"/>
     <use xlink:href="#m5940bab8cc" x="392.665564" y="146.272856" style="fill: #1a1a1a; fill-opacity: 0.8; stroke: #1a1a1a; stroke-opacity: 0.8"/>
     <use xlink:href="#m5940bab8cc" x="244.702712" y="154.511805" style="fill: #1a1a1a; fill-opacity: 0.8; stroke: #1a1a1a; stroke-opacity: 0.8"/>
     <use xlink:href="#m5940bab8cc" x="113.729042" y="250.582739" style="fill: #1a1a1a; fill-opacity: 0.8; stroke: #1a1a1a; stroke-opacity: 0.8"/>
     <use xlink:href="#m5940bab8cc" x="52.281755" y="251.667957" style="fill: #1a1a1a; fill-opacity: 0.8; stroke: #1a1a1a; stroke-opacity: 0.8"/>
     <use xlink:href="#m5940bab8cc" x="67.608952" y="246.444502" style="fill: #1a1a1a; fill-opacity: 0.8; stroke: #1a1a1a; stroke-opacity: 0.8"/>
     <use xlink:href="#m5940bab8cc" x="52.281755" y="225.928668" style="fill: #1a1a1a; fill-opacity: 0.8; stroke: #1a1a1a; stroke-opacity: 0.8"/>
     <use xlink:href="#m5940bab8cc" x="52.281755" y="223.83998" style="fill: #1a1a1a; fill-opacity: 0.8; stroke: #1a1a1a; stroke-opacity: 0.8"/>
     <use xlink:href="#m5940bab8cc" x="174.068339" y="215.757286" style="fill: #1a1a1a; fill-opacity: 0.8; stroke: #1a1a1a; stroke-opacity: 0.8"/>
     <use xlink:href="#m5940bab8cc" x="233.99214" y="215.918715" style="fill: #1a1a1a; fill-opacity: 0.8; stroke: #1a1a1a; stroke-opacity: 0.8"/>
     <use xlink:href="#m5940bab8cc" x="198.028626" y="204.438825" style="fill: #1a1a1a; fill-opacity: 0.8; stroke: #1a1a1a; stroke-opacity: 0.8"/>
     <use xlink:href="#m5940bab8cc" x="237.177612" y="206.576776" style="fill: #1a1a1a; fill-opacity: 0.8; stroke: #1a1a1a; stroke-opacity: 0.8"/>
     <use xlink:href="#m5940bab8cc" x="197.428465" y="200.20167" style="fill: #1a1a1a; fill-opacity: 0.8; stroke: #1a1a1a; stroke-opacity: 0.8"/>
     <use xlink:href="#m5940bab8cc" x="95.308706" y="202.170759" style="fill: #1a1a1a; fill-opacity: 0.8; stroke: #1a1a1a; stroke-opacity: 0.8"/>
     <use xlink:href="#m5940bab8cc" x="138.150992" y="190.895975" style="fill: #1a1a1a; fill-opacity: 0.8; stroke: #1a1a1a; stroke-opacity: 0.8"/>
     <use xlink:href="#m5940bab8cc" x="62.392165" y="259.474173" style="fill: #1a1a1a; fill-opacity: 0.8; stroke: #1a1a1a; stroke-opacity: 0.8"/>
     <use xlink:href="#m5940bab8cc" x="69.224771" y="259.881737" style="fill: #1a1a1a; fill-opacity: 0.8; stroke: #1a1a1a; stroke-opacity: 0.8"/>
     <use xlink:href="#m5940bab8cc" x="109.250915" y="261.463438" style="fill: #1a1a1a; fill-opacity: 0.8; stroke: #1a1a1a; stroke-opacity: 0.8"/>
     <use xlink:href="#m5940bab8cc" x="150.338883" y="260.052048" style="fill: #1a1a1a; fill-opacity: 0.8; stroke: #1a1a1a; stroke-opacity: 0.8"/>
     <use xlink:href="#m5940bab8cc" x="151.677705" y="258.232257" style="fill: #1a1a1a; fill-opacity: 0.8; stroke: #1a1a1a; stroke-opacity: 0.8"/>
     <use xlink:href="#m5940bab8cc" x="52.281755" y="236.441691" style="fill: #1a1a1a; fill-opacity: 0.8; stroke: #1a1a1a; stroke-opacity: 0.8"/>
     <use xlink:href="#m5940bab8cc" x="95.308706" y="200.545964" style="fill: #1a1a1a; fill-opacity: 0.8; stroke: #1a1a1a; stroke-opacity: 0.8"/>
     <use xlink:href="#m5940bab8cc" x="98.771175" y="238.235421" style="fill: #1a1a1a; fill-opacity: 0.8; stroke: #1a1a1a; stroke-opacity: 0.8"/>
     <use xlink:href="#m5940bab8cc" x="76.565206" y="228.808119" style="fill: #1a1a1a; fill-opacity: 0.8; stroke: #1a1a1a; stroke-opacity: 0.8"/>
     <use xlink:href="#m5940bab8cc" x="79.242849" y="230.891818" style="fill: #1a1a1a; fill-opacity: 0.8; stroke: #1a1a1a; stroke-opacity: 0.8"/>
     <use xlink:href="#m5940bab8cc" x="52.281755" y="224.333229" style="fill: #1a1a1a; fill-opacity: 0.8; stroke: #1a1a1a; stroke-opacity: 0.8"/>
     <use xlink:href="#m5940bab8cc" x="75.226384" y="225.797262" style="fill: #1a1a1a; fill-opacity: 0.8; stroke: #1a1a1a; stroke-opacity: 0.8"/>
     <use xlink:href="#m5940bab8cc" x="82.936149" y="210.081907" style="fill: #1a1a1a; fill-opacity: 0.8; stroke: #1a1a1a; stroke-opacity: 0.8"/>
     <use xlink:href="#m5940bab8cc" x="162.157445" y="222.796537" style="fill: #1a1a1a; fill-opacity: 0.8; stroke: #1a1a1a; stroke-opacity: 0.8"/>
     <use xlink:href="#m5940bab8cc" x="116.637516" y="210.242104" style="fill: #1a1a1a; fill-opacity: 0.8; stroke: #1a1a1a; stroke-opacity: 0.8"/>
     <use xlink:href="#m5940bab8cc" x="176.191987" y="213.698189" style="fill: #1a1a1a; fill-opacity: 0.8; stroke: #1a1a1a; stroke-opacity: 0.8"/>
     <use xlink:href="#m5940bab8cc" x="275.126275" y="219.170978" style="fill: #1a1a1a; fill-opacity: 0.8; stroke: #1a1a1a; stroke-opacity: 0.8"/>
     <use xlink:href="#m5940bab8cc" x="232.191656" y="205.195033" style="fill: #1a1a1a; fill-opacity: 0.8; stroke: #1a1a1a; stroke-opacity: 0.8"/>
     <use xlink:href="#m5940bab8cc" x="155.786502" y="227.10393" style="fill: #1a1a1a; fill-opacity: 0.8; stroke: #1a1a1a; stroke-opacity: 0.8"/>
     <use xlink:href="#m5940bab8cc" x="114.929365" y="232.203547" style="fill: #1a1a1a; fill-opacity: 0.8; stroke: #1a1a1a; stroke-opacity: 0.8"/>
     <use xlink:href="#m5940bab8cc" x="207.862039" y="209.292652" style="fill: #1a1a1a; fill-opacity: 0.8; stroke: #1a1a1a; stroke-opacity: 0.8"/>
     <use xlink:href="#m5940bab8cc" x="178.638799" y="213.330672" style="fill: #1a1a1a; fill-opacity: 0.8; stroke: #1a1a1a; stroke-opacity: 0.8"/>
     <use xlink:href="#m5940bab8cc" x="118.345668" y="204.20398" style="fill: #1a1a1a; fill-opacity: 0.8; stroke: #1a1a1a; stroke-opacity: 0.8"/>
     <use xlink:href="#m5940bab8cc" x="65.946967" y="204.336896" style="fill: #1a1a1a; fill-opacity: 0.8; stroke: #1a1a1a; stroke-opacity: 0.8"/>
     <use xlink:href="#m5940bab8cc" x="209.662523" y="191.354928" style="fill: #1a1a1a; fill-opacity: 0.8; stroke: #1a1a1a; stroke-opacity: 0.8"/>
     <use xlink:href="#m5940bab8cc" x="169.959542" y="199.421342" style="fill: #1a1a1a; fill-opacity: 0.8; stroke: #1a1a1a; stroke-opacity: 0.8"/>
     <use xlink:href="#m5940bab8cc" x="171.529195" y="202.018257" style="fill: #1a1a1a; fill-opacity: 0.8; stroke: #1a1a1a; stroke-opacity: 0.8"/>
     <use xlink:href="#m5940bab8cc" x="197.61313" y="183.345164" style="fill: #1a1a1a; fill-opacity: 0.8; stroke: #1a1a1a; stroke-opacity: 0.8"/>
     <use xlink:href="#m5940bab8cc" x="65.946967" y="183.40501" style="fill: #1a1a1a; fill-opacity: 0.8; stroke: #1a1a1a; stroke-opacity: 0.8"/>
     <use xlink:href="#m5940bab8cc" x="97.940182" y="187.177858" style="fill: #1a1a1a; fill-opacity: 0.8; stroke: #1a1a1a; stroke-opacity: 0.8"/>
     <use xlink:href="#m5940bab8cc" x="202.045091" y="180.066237" style="fill: #1a1a1a; fill-opacity: 0.8; stroke: #1a1a1a; stroke-opacity: 0.8"/>
     <use xlink:href="#m5940bab8cc" x="177.576975" y="184.234527" style="fill: #1a1a1a; fill-opacity: 0.8; stroke: #1a1a1a; stroke-opacity: 0.8"/>
     <use xlink:href="#m5940bab8cc" x="111.836226" y="182.496021" style="fill: #1a1a1a; fill-opacity: 0.8; stroke: #1a1a1a; stroke-opacity: 0.8"/>
     <use xlink:href="#m5940bab8cc" x="118.345668" y="181.604973" style="fill: #1a1a1a; fill-opacity: 0.8; stroke: #1a1a1a; stroke-opacity: 0.8"/>
     <use xlink:href="#m5940bab8cc" x="137.781662" y="183.159615" style="fill: #1a1a1a; fill-opacity: 0.8; stroke: #1a1a1a; stroke-opacity: 0.8"/>
     <use xlink:href="#m5940bab8cc" x="138.843486" y="268.190057" style="fill: #1a1a1a; fill-opacity: 0.8; stroke: #1a1a1a; stroke-opacity: 0.8"/>
     <use xlink:href="#m5940bab8cc" x="113.729042" y="262.449015" style="fill: #1a1a1a; fill-opacity: 0.8; stroke: #1a1a1a; stroke-opacity: 0.8"/>
     <use xlink:href="#m5940bab8cc" x="52.281755" y="264.062088" style="fill: #1a1a1a; fill-opacity: 0.8; stroke: #1a1a1a; stroke-opacity: 0.8"/>
     <use xlink:href="#m5940bab8cc" x="129.517902" y="237.087709" style="fill: #1a1a1a; fill-opacity: 0.8; stroke: #1a1a1a; stroke-opacity: 0.8"/>
     <use xlink:href="#m5940bab8cc" x="202.137423" y="222.867235" style="fill: #1a1a1a; fill-opacity: 0.8; stroke: #1a1a1a; stroke-opacity: 0.8"/>
     <use xlink:href="#m5940bab8cc" x="177.115312" y="227.768192" style="fill: #1a1a1a; fill-opacity: 0.8; stroke: #1a1a1a; stroke-opacity: 0.8"/>
     <use xlink:href="#m5940bab8cc" x="128.640743" y="221.434556" style="fill: #1a1a1a; fill-opacity: 0.8; stroke: #1a1a1a; stroke-opacity: 0.8"/>
     <use xlink:href="#m5940bab8cc" x="52.281755" y="219.677893" style="fill: #1a1a1a; fill-opacity: 0.8; stroke: #1a1a1a; stroke-opacity: 0.8"/>
     <use xlink:href="#m5940bab8cc" x="304.395681" y="222.544287" style="fill: #1a1a1a; fill-opacity: 0.8; stroke: #1a1a1a; stroke-opacity: 0.8"/>
     <use xlink:href="#m5940bab8cc" x="52.281755" y="282.252633" style="fill: #1a1a1a; fill-opacity: 0.8; stroke: #1a1a1a; stroke-opacity: 0.8"/>
     <use xlink:href="#m5940bab8cc" x="92.492564" y="270.235126" style="fill: #1a1a1a; fill-opacity: 0.8; stroke: #1a1a1a; stroke-opacity: 0.8"/>
     <use xlink:href="#m5940bab8cc" x="67.608952" y="273.331309" style="fill: #1a1a1a; fill-opacity: 0.8; stroke: #1a1a1a; stroke-opacity: 0.8"/>
     <use xlink:href="#m5940bab8cc" x="70.794424" y="252.311235" style="fill: #1a1a1a; fill-opacity: 0.8; stroke: #1a1a1a; stroke-opacity: 0.8"/>
     <use xlink:href="#m5940bab8cc" x="134.042195" y="254.838689" style="fill: #1a1a1a; fill-opacity: 0.8; stroke: #1a1a1a; stroke-opacity: 0.8"/>
     <use xlink:href="#m5940bab8cc" x="86.352452" y="238.747818" style="fill: #1a1a1a; fill-opacity: 0.8; stroke: #1a1a1a; stroke-opacity: 0.8"/>
     <use xlink:href="#m5940bab8cc" x="91.523073" y="234.435329" style="fill: #1a1a1a; fill-opacity: 0.8; stroke: #1a1a1a; stroke-opacity: 0.8"/>
     <use xlink:href="#m5940bab8cc" x="105.049786" y="229.862059" style="fill: #1a1a1a; fill-opacity: 0.8; stroke: #1a1a1a; stroke-opacity: 0.8"/>
     <use xlink:href="#m5940bab8cc" x="52.281755" y="236.563036" style="fill: #1a1a1a; fill-opacity: 0.8; stroke: #1a1a1a; stroke-opacity: 0.8"/>
     <use xlink:href="#m5940bab8cc" x="188.518378" y="227.191237" style="fill: #1a1a1a; fill-opacity: 0.8; stroke: #1a1a1a; stroke-opacity: 0.8"/>
     <use xlink:href="#m5940bab8cc" x="165.619914" y="230.701622" style="fill: #1a1a1a; fill-opacity: 0.8; stroke: #1a1a1a; stroke-opacity: 0.8"/>
     <use xlink:href="#m5940bab8cc" x="147.799739" y="227.317381" style="fill: #1a1a1a; fill-opacity: 0.8; stroke: #1a1a1a; stroke-opacity: 0.8"/>
    </g>
   </g>
   <g id="PolyCollection_1">
    <defs>
     <path id="mce28b18cad" d="M 52.281755 -97.144011 
L 52.281755 -84.465625 
L 55.750286 -85.244823 
L 59.218818 -86.034287 
L 62.687349 -86.784053 
L 66.155881 -87.611373 
L 69.624412 -88.382811 
L 73.092944 -89.154767 
L 76.561475 -89.882136 
L 80.030007 -90.609681 
L 83.498538 -91.306489 
L 86.967069 -92.03917 
L 90.435601 -92.821457 
L 93.904132 -93.604883 
L 97.372664 -94.364055 
L 100.841195 -95.059551 
L 104.309727 -95.812068 
L 107.778258 -96.53656 
L 111.24679 -97.2301 
L 114.715321 -97.93119 
L 118.183853 -98.552101 
L 121.652384 -99.073483 
L 125.120916 -99.793837 
L 128.589447 -100.516636 
L 132.057979 -101.059291 
L 135.52651 -101.703937 
L 138.995042 -102.303742 
L 142.463573 -102.893029 
L 145.932104 -103.52454 
L 149.400636 -104.075853 
L 152.869167 -104.720634 
L 156.337699 -105.31351 
L 159.80623 -105.909807 
L 163.274762 -106.504664 
L 166.743293 -106.991085 
L 170.211825 -107.65338 
L 173.680356 -108.29484 
L 177.148888 -108.860438 
L 180.617419 -109.35738 
L 184.085951 -109.80922 
L 187.554482 -110.266409 
L 191.023014 -110.723282 
L 194.491545 -111.191825 
L 197.960076 -111.662011 
L 201.428608 -112.241886 
L 204.897139 -112.825606 
L 208.365671 -113.409325 
L 211.834202 -113.993045 
L 215.302734 -114.576765 
L 218.771265 -115.160485 
L 222.239797 -115.724695 
L 225.708328 -116.221974 
L 229.17686 -116.719541 
L 232.645391 -117.190797 
L 236.113923 -117.644981 
L 239.582454 -118.083251 
L 243.050986 -118.45231 
L 246.519517 -118.880138 
L 249.988049 -119.405998 
L 253.45658 -119.864942 
L 256.925111 -120.312839 
L 260.393643 -120.75874 
L 263.862174 -121.211922 
L 267.330706 -121.736608 
L 270.799237 -122.261188 
L 274.267769 -122.698496 
L 277.7363 -123.117266 
L 281.204832 -123.573721 
L 284.673363 -124.032361 
L 288.141895 -124.488908 
L 291.610426 -124.998524 
L 295.078958 -125.489043 
L 298.547489 -126.011381 
L 302.016021 -126.534391 
L 305.484552 -127.048461 
L 308.953083 -127.446569 
L 312.421615 -127.844694 
L 315.890146 -128.302039 
L 319.358678 -128.775886 
L 322.827209 -129.206701 
L 326.295741 -129.588577 
L 329.764272 -129.974108 
L 333.232804 -130.429224 
L 336.701335 -130.88434 
L 340.169867 -131.339456 
L 343.638398 -131.788753 
L 347.10693 -132.219574 
L 350.575461 -132.652025 
L 354.043993 -133.084476 
L 357.512524 -133.516927 
L 360.981056 -133.949379 
L 364.449587 -134.38183 
L 367.918118 -134.847158 
L 371.38665 -135.334881 
L 374.855181 -135.822605 
L 378.323713 -136.310329 
L 381.792244 -136.798052 
L 385.260776 -137.279815 
L 388.729307 -137.737168 
L 392.197839 -138.194522 
L 395.66637 -138.651875 
L 395.66637 -169.750809 
L 395.66637 -169.750809 
L 392.197839 -168.857076 
L 388.729307 -168.046213 
L 385.260776 -167.236565 
L 381.792244 -166.426917 
L 378.323713 -165.617251 
L 374.855181 -164.802844 
L 371.38665 -163.947008 
L 367.918118 -163.090849 
L 364.449587 -162.245263 
L 360.981056 -161.388121 
L 357.512524 -160.530979 
L 354.043993 -159.673837 
L 350.575461 -158.816695 
L 347.10693 -157.959553 
L 343.638398 -157.104369 
L 340.169867 -156.24928 
L 336.701335 -155.394191 
L 333.232804 -154.540497 
L 329.764272 -153.707131 
L 326.295741 -152.873764 
L 322.827209 -152.040397 
L 319.358678 -151.207031 
L 315.890146 -150.373664 
L 312.421615 -149.540297 
L 308.953083 -148.706931 
L 305.484552 -147.873488 
L 302.016021 -147.039515 
L 298.547489 -146.205542 
L 295.078958 -145.371569 
L 291.610426 -144.537597 
L 288.141895 -143.703624 
L 284.673363 -142.869651 
L 281.204832 -142.056548 
L 277.7363 -141.257878 
L 274.267769 -140.459207 
L 270.799237 -139.660536 
L 267.330706 -138.861866 
L 263.862174 -138.063195 
L 260.393643 -137.264524 
L 256.925111 -136.503558 
L 253.45658 -135.793862 
L 249.988049 -134.920122 
L 246.519517 -134.115251 
L 243.050986 -133.277255 
L 239.582454 -132.476603 
L 236.113923 -131.67959 
L 232.645391 -130.882577 
L 229.17686 -130.084949 
L 225.708328 -129.286258 
L 222.239797 -128.487216 
L 218.771265 -127.6813 
L 215.302734 -126.85116 
L 211.834202 -126.063349 
L 208.365671 -125.225874 
L 204.897139 -124.388155 
L 201.428608 -123.630462 
L 197.960076 -122.852415 
L 194.491545 -122.084514 
L 191.023014 -121.287804 
L 187.554482 -120.550746 
L 184.085951 -119.818687 
L 180.617419 -119.020915 
L 177.148888 -118.225429 
L 173.680356 -117.481219 
L 170.211825 -116.716539 
L 166.743293 -116.101823 
L 163.274762 -115.392749 
L 159.80623 -114.739966 
L 156.337699 -114.015188 
L 152.869167 -113.266971 
L 149.400636 -112.643611 
L 145.932104 -112.036371 
L 142.463573 -111.220469 
L 138.995042 -110.631899 
L 135.52651 -110.076814 
L 132.057979 -109.51236 
L 128.589447 -108.886869 
L 125.120916 -108.335851 
L 121.652384 -107.7705 
L 118.183853 -107.231716 
L 114.715321 -106.639609 
L 111.24679 -106.076603 
L 107.778258 -105.552343 
L 104.309727 -104.960848 
L 100.841195 -104.383756 
L 97.372664 -103.805608 
L 93.904132 -103.329075 
L 90.435601 -102.82833 
L 86.967069 -102.23451 
L 83.498538 -101.768007 
L 80.030007 -101.270315 
L 76.561475 -100.829379 
L 73.092944 -100.318889 
L 69.624412 -99.829575 
L 66.155881 -99.331051 
L 62.687349 -98.805616 
L 59.218818 -98.303513 
L 55.750286 -97.750207 
L 52.281755 -97.144011 
z
" style="stroke: #ffffff; stroke-opacity: 0.15"/>
    </defs>
    <g clip-path="url(#pdc95613b56)">
     <use xlink:href="#mce28b18cad" x="0" y="325.062937" style="fill: #1a1a1a; fill-opacity: 0.15; stroke: #ffffff; stroke-opacity: 0.15"/>
    </g>
   </g>
   <g id="line2d_21">
    <path d="M 52.281755 234.039848 
L 55.750286 233.415207 
L 59.218818 232.790565 
L 62.687349 232.165923 
L 66.155881 231.541281 
L 69.624412 230.91664 
L 73.092944 230.291998 
L 76.561475 229.667356 
L 80.030007 229.042714 
L 83.498538 228.418073 
L 86.967069 227.793431 
L 90.435601 227.168789 
L 93.904132 226.544148 
L 97.372664 225.919506 
L 100.841195 225.294864 
L 104.309727 224.670222 
L 107.778258 224.045581 
L 111.24679 223.420939 
L 114.715321 222.796297 
L 118.183853 222.171656 
L 121.652384 221.547014 
L 125.120916 220.922372 
L 128.589447 220.29773 
L 132.057979 219.673089 
L 135.52651 219.048447 
L 138.995042 218.423805 
L 142.463573 217.799163 
L 145.932104 217.174522 
L 149.400636 216.54988 
L 152.869167 215.925238 
L 156.337699 215.300597 
L 159.80623 214.675955 
L 163.274762 214.051313 
L 166.743293 213.426671 
L 170.211825 212.80203 
L 173.680356 212.177388 
L 177.148888 211.552746 
L 180.617419 210.928104 
L 184.085951 210.303463 
L 187.554482 209.678821 
L 191.023014 209.054179 
L 194.491545 208.429538 
L 197.960076 207.804896 
L 201.428608 207.180254 
L 204.897139 206.555612 
L 208.365671 205.930971 
L 211.834202 205.306329 
L 215.302734 204.681687 
L 218.771265 204.057046 
L 222.239797 203.432404 
L 225.708328 202.807762 
L 229.17686 202.18312 
L 232.645391 201.558479 
L 236.113923 200.933837 
L 239.582454 200.309195 
L 243.050986 199.684553 
L 246.519517 199.059912 
L 249.988049 198.43527 
L 253.45658 197.810628 
L 256.925111 197.185987 
L 260.393643 196.561345 
L 263.862174 195.936703 
L 267.330706 195.312061 
L 270.799237 194.68742 
L 274.267769 194.062778 
L 277.7363 193.438136 
L 281.204832 192.813495 
L 284.673363 192.188853 
L 288.141895 191.564211 
L 291.610426 190.939569 
L 295.078958 190.314928 
L 298.547489 189.690286 
L 302.016021 189.065644 
L 305.484552 188.441002 
L 308.953083 187.816361 
L 312.421615 187.191719 
L 315.890146 186.567077 
L 319.358678 185.942436 
L 322.827209 185.317794 
L 326.295741 184.693152 
L 329.764272 184.06851 
L 333.232804 183.443869 
L 336.701335 182.819227 
L 340.169867 182.194585 
L 343.638398 181.569943 
L 347.10693 180.945302 
L 350.575461 180.32066 
L 354.043993 179.696018 
L 357.512524 179.071377 
L 360.981056 178.446735 
L 364.449587 177.822093 
L 367.918118 177.197451 
L 371.38665 176.57281 
L 374.855181 175.948168 
L 378.323713 175.323526 
L 381.792244 174.698885 
L 385.260776 174.074243 
L 388.729307 173.449601 
L 392.197839 172.824959 
L 395.66637 172.200318 
" clip-path="url(#pdc95613b56)" style="fill: none; stroke: #1a1a1a; stroke-width: 2.25; stroke-linecap: round"/>
   </g>
   <g id="patch_3">
    <path d="M 45.414063 287.901375 
L 45.414063 21.789375 
" style="fill: none; stroke: #000000; stroke-width: 1.25; stroke-linejoin: miter; stroke-linecap: square"/>
   </g>
   <g id="patch_4">
    <path d="M 402.534063 287.901375 
L 402.534063 21.789375 
" style="fill: none; stroke: #ffffff; stroke-width: 1.25; stroke-linejoin: miter; stroke-linecap: square"/>
   </g>
   <g id="patch_5">
    <path d="M 45.414063 287.901375 
L 402.534063 287.901375 
" style="fill: none; stroke: #000000; stroke-width: 1.25; stroke-linejoin: miter; stroke-linecap: square"/>
   </g>
   <g id="patch_6">
    <path d="M 45.414063 21.789375 
L 402.534063 21.789375 
" style="fill: none; stroke: #ffffff; stroke-width: 1.25; stroke-linejoin: miter; stroke-linecap: square"/>
   </g>
   <g id="text_13">
    <!-- Pearsons r = 0.44 -->
    <g style="fill: #262626" transform="translate(116.838063 48.400575) scale(0.12 -0.12)">
     <defs>
      <path id="ArialMT-73" d="M 197 991 
L 753 1078 
Q 800 744 1014 566 
Q 1228 388 1613 388 
Q 2000 388 2187 545 
Q 2375 703 2375 916 
Q 2375 1106 2209 1216 
Q 2094 1291 1634 1406 
Q 1016 1563 777 1677 
Q 538 1791 414 1992 
Q 291 2194 291 2438 
Q 291 2659 392 2848 
Q 494 3038 669 3163 
Q 800 3259 1026 3326 
Q 1253 3394 1513 3394 
Q 1903 3394 2198 3281 
Q 2494 3169 2634 2976 
Q 2775 2784 2828 2463 
L 2278 2388 
Q 2241 2644 2061 2787 
Q 1881 2931 1553 2931 
Q 1166 2931 1000 2803 
Q 834 2675 834 2503 
Q 834 2394 903 2306 
Q 972 2216 1119 2156 
Q 1203 2125 1616 2013 
Q 2213 1853 2448 1751 
Q 2684 1650 2818 1456 
Q 2953 1263 2953 975 
Q 2953 694 2789 445 
Q 2625 197 2315 61 
Q 2006 -75 1616 -75 
Q 969 -75 630 194 
Q 291 463 197 991 
z
" transform="scale(0.015625)"/>
      <path id="ArialMT-3d" d="M 3381 2694 
L 356 2694 
L 356 3219 
L 3381 3219 
L 3381 2694 
z
M 3381 1303 
L 356 1303 
L 356 1828 
L 3381 1828 
L 3381 1303 
z
" transform="scale(0.015625)"/>
      <path id="ArialMT-34" d="M 2069 0 
L 2069 1097 
L 81 1097 
L 81 1613 
L 2172 4581 
L 2631 4581 
L 2631 1613 
L 3250 1613 
L 3250 1097 
L 2631 1097 
L 2631 0 
L 2069 0 
z
M 2069 1613 
L 2069 3678 
L 634 1613 
L 2069 1613 
z
" transform="scale(0.015625)"/>
     </defs>
     <use xlink:href="#ArialMT-50"/>
     <use xlink:href="#ArialMT-65" x="66.699219"/>
     <use xlink:href="#ArialMT-61" x="122.314453"/>
     <use xlink:href="#ArialMT-72" x="177.929688"/>
     <use xlink:href="#ArialMT-73" x="211.230469"/>
     <use xlink:href="#ArialMT-6f" x="261.230469"/>
     <use xlink:href="#ArialMT-6e" x="316.845703"/>
     <use xlink:href="#ArialMT-73" x="372.460938"/>
     <use xlink:href="#ArialMT-20" x="422.460938"/>
     <use xlink:href="#ArialMT-72" x="450.244141"/>
     <use xlink:href="#ArialMT-20" x="483.544922"/>
     <use xlink:href="#ArialMT-3d" x="511.328125"/>
     <use xlink:href="#ArialMT-20" x="569.726562"/>
     <use xlink:href="#ArialMT-30" x="597.509766"/>
     <use xlink:href="#ArialMT-2e" x="653.125"/>
     <use xlink:href="#ArialMT-34" x="680.908203"/>
     <use xlink:href="#ArialMT-34" x="736.523438"/>
    </g>
   </g>
   <g id="text_14">
    <!-- Spearmans r = 0.41 -->
    <g style="fill: #262626" transform="translate(116.838063 75.011775) scale(0.12 -0.12)">
     <defs>
      <path id="ArialMT-53" d="M 288 1472 
L 859 1522 
Q 900 1178 1048 958 
Q 1197 738 1509 602 
Q 1822 466 2213 466 
Q 2559 466 2825 569 
Q 3091 672 3220 851 
Q 3350 1031 3350 1244 
Q 3350 1459 3225 1620 
Q 3100 1781 2813 1891 
Q 2628 1963 1997 2114 
Q 1366 2266 1113 2400 
Q 784 2572 623 2826 
Q 463 3081 463 3397 
Q 463 3744 659 4045 
Q 856 4347 1234 4503 
Q 1613 4659 2075 4659 
Q 2584 4659 2973 4495 
Q 3363 4331 3572 4012 
Q 3781 3694 3797 3291 
L 3216 3247 
Q 3169 3681 2898 3903 
Q 2628 4125 2100 4125 
Q 1550 4125 1298 3923 
Q 1047 3722 1047 3438 
Q 1047 3191 1225 3031 
Q 1400 2872 2139 2705 
Q 2878 2538 3153 2413 
Q 3553 2228 3743 1945 
Q 3934 1663 3934 1294 
Q 3934 928 3725 604 
Q 3516 281 3123 101 
Q 2731 -78 2241 -78 
Q 1619 -78 1198 103 
Q 778 284 539 648 
Q 300 1013 288 1472 
z
" transform="scale(0.015625)"/>
     </defs>
     <use xlink:href="#ArialMT-53"/>
     <use xlink:href="#ArialMT-70" x="66.699219"/>
     <use xlink:href="#ArialMT-65" x="122.314453"/>
     <use xlink:href="#ArialMT-61" x="177.929688"/>
     <use xlink:href="#ArialMT-72" x="233.544922"/>
     <use xlink:href="#ArialMT-6d" x="266.845703"/>
     <use xlink:href="#ArialMT-61" x="350.146484"/>
     <use xlink:href="#ArialMT-6e" x="405.761719"/>
     <use xlink:href="#ArialMT-73" x="461.376953"/>
     <use xlink:href="#ArialMT-20" x="511.376953"/>
     <use xlink:href="#ArialMT-72" x="539.160156"/>
     <use xlink:href="#ArialMT-20" x="572.460938"/>
     <use xlink:href="#ArialMT-3d" x="600.244141"/>
     <use xlink:href="#ArialMT-20" x="658.642578"/>
     <use xlink:href="#ArialMT-30" x="686.425781"/>
     <use xlink:href="#ArialMT-2e" x="742.041016"/>
     <use xlink:href="#ArialMT-34" x="769.824219"/>
     <use xlink:href="#ArialMT-31" x="825.439453"/>
    </g>
   </g>
   <g id="text_15">
    <!-- Hold-out Set Performance -->
    <g style="fill: #262626" transform="translate(149.967813 15.789375) scale(0.12 -0.12)">
     <defs>
      <path id="Arial-BoldMT-48" d="M 469 0 
L 469 4581 
L 1394 4581 
L 1394 2778 
L 3206 2778 
L 3206 4581 
L 4131 4581 
L 4131 0 
L 3206 0 
L 3206 2003 
L 1394 2003 
L 1394 0 
L 469 0 
z
" transform="scale(0.015625)"/>
      <path id="Arial-BoldMT-6f" d="M 256 1706 
Q 256 2144 472 2553 
Q 688 2963 1083 3178 
Q 1478 3394 1966 3394 
Q 2719 3394 3200 2905 
Q 3681 2416 3681 1669 
Q 3681 916 3195 420 
Q 2709 -75 1972 -75 
Q 1516 -75 1102 131 
Q 688 338 472 736 
Q 256 1134 256 1706 
z
M 1156 1659 
Q 1156 1166 1390 903 
Q 1625 641 1969 641 
Q 2313 641 2545 903 
Q 2778 1166 2778 1666 
Q 2778 2153 2545 2415 
Q 2313 2678 1969 2678 
Q 1625 2678 1390 2415 
Q 1156 2153 1156 1659 
z
" transform="scale(0.015625)"/>
      <path id="Arial-BoldMT-6c" d="M 459 0 
L 459 4581 
L 1338 4581 
L 1338 0 
L 459 0 
z
" transform="scale(0.015625)"/>
      <path id="Arial-BoldMT-64" d="M 3503 0 
L 2688 0 
L 2688 488 
Q 2484 203 2207 64 
Q 1931 -75 1650 -75 
Q 1078 -75 670 386 
Q 263 847 263 1672 
Q 263 2516 659 2955 
Q 1056 3394 1663 3394 
Q 2219 3394 2625 2931 
L 2625 4581 
L 3503 4581 
L 3503 0 
z
M 1159 1731 
Q 1159 1200 1306 963 
Q 1519 619 1900 619 
Q 2203 619 2415 876 
Q 2628 1134 2628 1647 
Q 2628 2219 2422 2470 
Q 2216 2722 1894 2722 
Q 1581 2722 1370 2473 
Q 1159 2225 1159 1731 
z
" transform="scale(0.015625)"/>
      <path id="Arial-BoldMT-2d" d="M 359 1222 
L 359 2100 
L 2084 2100 
L 2084 1222 
L 359 1222 
z
" transform="scale(0.015625)"/>
      <path id="Arial-BoldMT-75" d="M 2644 0 
L 2644 497 
Q 2463 231 2167 78 
Q 1872 -75 1544 -75 
Q 1209 -75 943 72 
Q 678 219 559 484 
Q 441 750 441 1219 
L 441 3319 
L 1319 3319 
L 1319 1794 
Q 1319 1094 1367 936 
Q 1416 778 1544 686 
Q 1672 594 1869 594 
Q 2094 594 2272 717 
Q 2450 841 2515 1023 
Q 2581 1206 2581 1919 
L 2581 3319 
L 3459 3319 
L 3459 0 
L 2644 0 
z
" transform="scale(0.015625)"/>
      <path id="Arial-BoldMT-74" d="M 1981 3319 
L 1981 2619 
L 1381 2619 
L 1381 1281 
Q 1381 875 1398 808 
Q 1416 741 1477 697 
Q 1538 653 1625 653 
Q 1747 653 1978 738 
L 2053 56 
Q 1747 -75 1359 -75 
Q 1122 -75 931 4 
Q 741 84 652 211 
Q 563 338 528 553 
Q 500 706 500 1172 
L 500 2619 
L 97 2619 
L 97 3319 
L 500 3319 
L 500 3978 
L 1381 4491 
L 1381 3319 
L 1981 3319 
z
" transform="scale(0.015625)"/>
      <path id="Arial-BoldMT-20" transform="scale(0.015625)"/>
      <path id="Arial-BoldMT-53" d="M 231 1491 
L 1131 1578 
Q 1213 1125 1461 912 
Q 1709 700 2131 700 
Q 2578 700 2804 889 
Q 3031 1078 3031 1331 
Q 3031 1494 2936 1608 
Q 2841 1722 2603 1806 
Q 2441 1863 1863 2006 
Q 1119 2191 819 2459 
Q 397 2838 397 3381 
Q 397 3731 595 4036 
Q 794 4341 1167 4500 
Q 1541 4659 2069 4659 
Q 2931 4659 3367 4281 
Q 3803 3903 3825 3272 
L 2900 3231 
Q 2841 3584 2645 3739 
Q 2450 3894 2059 3894 
Q 1656 3894 1428 3728 
Q 1281 3622 1281 3444 
Q 1281 3281 1419 3166 
Q 1594 3019 2269 2859 
Q 2944 2700 3267 2529 
Q 3591 2359 3773 2064 
Q 3956 1769 3956 1334 
Q 3956 941 3737 597 
Q 3519 253 3119 86 
Q 2719 -81 2122 -81 
Q 1253 -81 787 320 
Q 322 722 231 1491 
z
" transform="scale(0.015625)"/>
      <path id="Arial-BoldMT-65" d="M 2381 1056 
L 3256 909 
Q 3088 428 2723 176 
Q 2359 -75 1813 -75 
Q 947 -75 531 491 
Q 203 944 203 1634 
Q 203 2459 634 2926 
Q 1066 3394 1725 3394 
Q 2466 3394 2894 2905 
Q 3322 2416 3303 1406 
L 1103 1406 
Q 1113 1016 1316 798 
Q 1519 581 1822 581 
Q 2028 581 2168 693 
Q 2309 806 2381 1056 
z
M 2431 1944 
Q 2422 2325 2234 2523 
Q 2047 2722 1778 2722 
Q 1491 2722 1303 2513 
Q 1116 2303 1119 1944 
L 2431 1944 
z
" transform="scale(0.015625)"/>
      <path id="Arial-BoldMT-50" d="M 466 0 
L 466 4581 
L 1950 4581 
Q 2794 4581 3050 4513 
Q 3444 4409 3709 4064 
Q 3975 3719 3975 3172 
Q 3975 2750 3822 2462 
Q 3669 2175 3433 2011 
Q 3197 1847 2953 1794 
Q 2622 1728 1994 1728 
L 1391 1728 
L 1391 0 
L 466 0 
z
M 1391 3806 
L 1391 2506 
L 1897 2506 
Q 2444 2506 2628 2578 
Q 2813 2650 2917 2803 
Q 3022 2956 3022 3159 
Q 3022 3409 2875 3571 
Q 2728 3734 2503 3775 
Q 2338 3806 1838 3806 
L 1391 3806 
z
" transform="scale(0.015625)"/>
      <path id="Arial-BoldMT-72" d="M 1300 0 
L 422 0 
L 422 3319 
L 1238 3319 
L 1238 2847 
Q 1447 3181 1614 3287 
Q 1781 3394 1994 3394 
Q 2294 3394 2572 3228 
L 2300 2463 
Q 2078 2606 1888 2606 
Q 1703 2606 1575 2504 
Q 1447 2403 1373 2137 
Q 1300 1872 1300 1025 
L 1300 0 
z
" transform="scale(0.015625)"/>
      <path id="Arial-BoldMT-66" d="M 75 3319 
L 563 3319 
L 563 3569 
Q 563 3988 652 4194 
Q 741 4400 980 4529 
Q 1219 4659 1584 4659 
Q 1959 4659 2319 4547 
L 2200 3934 
Q 1991 3984 1797 3984 
Q 1606 3984 1523 3895 
Q 1441 3806 1441 3553 
L 1441 3319 
L 2097 3319 
L 2097 2628 
L 1441 2628 
L 1441 0 
L 563 0 
L 563 2628 
L 75 2628 
L 75 3319 
z
" transform="scale(0.015625)"/>
      <path id="Arial-BoldMT-6d" d="M 394 3319 
L 1203 3319 
L 1203 2866 
Q 1638 3394 2238 3394 
Q 2556 3394 2790 3262 
Q 3025 3131 3175 2866 
Q 3394 3131 3647 3262 
Q 3900 3394 4188 3394 
Q 4553 3394 4806 3245 
Q 5059 3097 5184 2809 
Q 5275 2597 5275 2122 
L 5275 0 
L 4397 0 
L 4397 1897 
Q 4397 2391 4306 2534 
Q 4184 2722 3931 2722 
Q 3747 2722 3584 2609 
Q 3422 2497 3350 2280 
Q 3278 2063 3278 1594 
L 3278 0 
L 2400 0 
L 2400 1819 
Q 2400 2303 2353 2443 
Q 2306 2584 2207 2653 
Q 2109 2722 1941 2722 
Q 1738 2722 1575 2612 
Q 1413 2503 1342 2297 
Q 1272 2091 1272 1613 
L 1272 0 
L 394 0 
L 394 3319 
z
" transform="scale(0.015625)"/>
      <path id="Arial-BoldMT-61" d="M 1116 2306 
L 319 2450 
Q 453 2931 781 3162 
Q 1109 3394 1756 3394 
Q 2344 3394 2631 3255 
Q 2919 3116 3036 2902 
Q 3153 2688 3153 2116 
L 3144 1091 
Q 3144 653 3186 445 
Q 3228 238 3344 0 
L 2475 0 
Q 2441 88 2391 259 
Q 2369 338 2359 363 
Q 2134 144 1878 34 
Q 1622 -75 1331 -75 
Q 819 -75 523 203 
Q 228 481 228 906 
Q 228 1188 362 1408 
Q 497 1628 739 1745 
Q 981 1863 1438 1950 
Q 2053 2066 2291 2166 
L 2291 2253 
Q 2291 2506 2166 2614 
Q 2041 2722 1694 2722 
Q 1459 2722 1328 2630 
Q 1197 2538 1116 2306 
z
M 2291 1594 
Q 2122 1538 1756 1459 
Q 1391 1381 1278 1306 
Q 1106 1184 1106 997 
Q 1106 813 1243 678 
Q 1381 544 1594 544 
Q 1831 544 2047 700 
Q 2206 819 2256 991 
Q 2291 1103 2291 1419 
L 2291 1594 
z
" transform="scale(0.015625)"/>
      <path id="Arial-BoldMT-6e" d="M 3478 0 
L 2600 0 
L 2600 1694 
Q 2600 2231 2544 2389 
Q 2488 2547 2361 2634 
Q 2234 2722 2056 2722 
Q 1828 2722 1647 2597 
Q 1466 2472 1398 2265 
Q 1331 2059 1331 1503 
L 1331 0 
L 453 0 
L 453 3319 
L 1269 3319 
L 1269 2831 
Q 1703 3394 2363 3394 
Q 2653 3394 2893 3289 
Q 3134 3184 3257 3021 
Q 3381 2859 3429 2653 
Q 3478 2447 3478 2063 
L 3478 0 
z
" transform="scale(0.015625)"/>
      <path id="Arial-BoldMT-63" d="M 3353 2338 
L 2488 2181 
Q 2444 2441 2289 2572 
Q 2134 2703 1888 2703 
Q 1559 2703 1364 2476 
Q 1169 2250 1169 1719 
Q 1169 1128 1367 884 
Q 1566 641 1900 641 
Q 2150 641 2309 783 
Q 2469 925 2534 1272 
L 3397 1125 
Q 3263 531 2881 228 
Q 2500 -75 1859 -75 
Q 1131 -75 698 384 
Q 266 844 266 1656 
Q 266 2478 700 2936 
Q 1134 3394 1875 3394 
Q 2481 3394 2839 3133 
Q 3197 2872 3353 2338 
z
" transform="scale(0.015625)"/>
     </defs>
     <use xlink:href="#Arial-BoldMT-48"/>
     <use xlink:href="#Arial-BoldMT-6f" x="72.216797"/>
     <use xlink:href="#Arial-BoldMT-6c" x="133.300781"/>
     <use xlink:href="#Arial-BoldMT-64" x="161.083984"/>
     <use xlink:href="#Arial-BoldMT-2d" x="222.167969"/>
     <use xlink:href="#Arial-BoldMT-6f" x="255.46875"/>
     <use xlink:href="#Arial-BoldMT-75" x="316.552734"/>
     <use xlink:href="#Arial-BoldMT-74" x="377.636719"/>
     <use xlink:href="#Arial-BoldMT-20" x="410.9375"/>
     <use xlink:href="#Arial-BoldMT-53" x="438.720703"/>
     <use xlink:href="#Arial-BoldMT-65" x="505.419922"/>
     <use xlink:href="#Arial-BoldMT-74" x="561.035156"/>
     <use xlink:href="#Arial-BoldMT-20" x="594.335938"/>
     <use xlink:href="#Arial-BoldMT-50" x="622.119141"/>
     <use xlink:href="#Arial-BoldMT-65" x="688.818359"/>
     <use xlink:href="#Arial-BoldMT-72" x="744.433594"/>
     <use xlink:href="#Arial-BoldMT-66" x="783.349609"/>
     <use xlink:href="#Arial-BoldMT-6f" x="816.650391"/>
     <use xlink:href="#Arial-BoldMT-72" x="877.734375"/>
     <use xlink:href="#Arial-BoldMT-6d" x="916.650391"/>
     <use xlink:href="#Arial-BoldMT-61" x="1005.566406"/>
     <use xlink:href="#Arial-BoldMT-6e" x="1061.181641"/>
     <use xlink:href="#Arial-BoldMT-63" x="1122.265625"/>
     <use xlink:href="#Arial-BoldMT-65" x="1177.880859"/>
    </g>
   </g>
  </g>
 </g>
 <defs>
  <clipPath id="pdc95613b56">
   <rect x="45.414063" y="21.789375" width="357.12" height="266.112"/>
  </clipPath>
 </defs>
</svg>
